<svg xmlns="http://www.w3.org/2000/svg" width="102" height="94" fill="none"><path fill="#E17726" stroke="#E17726" stroke-linecap="round" stroke-linejoin="round" stroke-width=".25" d="M96.054 1 56.99 29.905l7.265-17.034z"/><path fill="#E27625" stroke="#E27625" stroke-linecap="round" stroke-linejoin="round" stroke-width=".25" d="m5.946 1 38.717 29.175-6.916-17.304zM81.988 68.022 71.594 83.9l22.257 6.128 6.376-21.66zM1.811 68.369l6.337 21.66L30.366 83.9 20.011 68.022z"/><path fill="#E27625" stroke="#E27625" stroke-linecap="round" stroke-linejoin="round" stroke-width=".25" d="m29.168 41.198-6.182 9.327 22.024 1.002-.734-23.703zM72.83 41.198 57.492 27.555l-.502 23.972 22.024-1.002zM30.366 83.9l13.331-6.436-11.476-8.941zM58.303 77.464 71.595 83.9l-1.816-15.377z"/><path fill="#D5BFB2" stroke="#D5BFB2" stroke-linecap="round" stroke-linejoin="round" stroke-width=".25" d="m71.595 83.9-13.292-6.435 1.082 8.633-.116 3.661zM30.366 83.9l12.365 5.86-.077-3.662 1.043-8.633z"/><path fill="#233447" stroke="#233447" stroke-linecap="round" stroke-linejoin="round" stroke-width=".25" d="m42.963 62.819-11.051-3.237 7.805-3.585zM59.037 62.819l3.246-6.822 7.844 3.585z"/><path fill="#CC6228" stroke="#CC6228" stroke-linecap="round" stroke-linejoin="round" stroke-width=".25" d="m30.366 83.9 1.932-15.878-12.287.347zM69.701 68.022 71.595 83.9 81.989 68.37zM79.013 50.524 56.99 51.526l2.047 11.293 3.246-6.822 7.844 3.584zM31.912 59.581l7.805-3.584 3.246 6.822 2.047-11.293-22.024-1.002z"/><path fill="#E27525" stroke="#E27525" stroke-linecap="round" stroke-linejoin="round" stroke-width=".25" d="m22.987 50.524 9.235 17.999-.31-8.942zM70.127 59.581l-.348 8.942 9.235-17.999zM45.012 51.526 42.964 62.82l2.588 13.335.58-17.575zM56.99 51.526l-1.083 7.015.541 17.613 2.59-13.335z"/><path fill="#F5841F" stroke="#F5841F" stroke-linecap="round" stroke-linejoin="round" stroke-width=".25" d="m59.037 62.82-2.589 13.334 1.855 1.31 11.476-8.94.348-8.942zM31.912 59.582l.309 8.941 11.476 8.942 1.854-1.311-2.588-13.335z"/><path fill="#C0AC9D" stroke="#C0AC9D" stroke-linecap="round" stroke-linejoin="round" stroke-width=".25" d="m59.27 89.759.115-3.662-1.005-.847H43.62l-.966.847.077 3.662L30.366 83.9l4.328 3.545 8.771 6.051h15.031l8.81-6.05 4.289-3.546z"/><path fill="#161616" stroke="#161616" stroke-linecap="round" stroke-linejoin="round" stroke-width=".25" d="m58.303 77.464-1.855-1.31H45.55l-1.854 1.31-1.043 8.633.966-.847h14.76l1.005.847z"/><path fill="#763E1A" stroke="#763E1A" stroke-linecap="round" stroke-linejoin="round" stroke-width=".25" d="M97.716 31.794 101 15.838 96.054 1 58.303 28.942l14.528 12.256 20.518 5.974 4.521-5.28-1.97-1.427 3.13-2.851-2.396-1.85 3.13-2.39zM1 15.838l3.323 15.956-2.125 1.58 3.168 2.39-2.395 1.85 3.13 2.851-1.971 1.427 4.52 5.28 20.519-5.974 14.528-12.256L5.946 1z"/><path fill="#F5841F" stroke="#F5841F" stroke-linecap="round" stroke-linejoin="round" stroke-width=".25" d="m93.35 47.171-20.518-5.973 6.182 9.327-9.235 17.998 12.21-.154h18.238zM29.168 41.198 8.65 47.17 1.811 68.37h18.2l12.21.154-9.235-17.998zM56.989 51.527l1.314-22.585 5.95-16.072H37.746l5.95 16.072 1.314 22.585.503 7.091.038 17.536h10.897l.039-17.536z"/></svg>