<svg xmlns="http://www.w3.org/2000/svg" width="67" height="100" fill="none"><path fill="#133444" d="M.989 57.489 3.41 56.45 33.07 43.549l32.08 13.94-12.06 24.913-29.462 4.153L1.483 62.63z"/><path fill="#C42370" d="M58.478 42.165A32.94 32.94 0 0 0 37.469 30.55c-.198 0-.346-.05-.544-.05a33.5 33.5 0 0 0-7.711 0c-.198 0-.346.05-.544.05A32.94 32.94 0 0 0 7.662 42.165L6.327 44.39l-2.224 3.708-1.631 2.719c0 .098-.05.148-.1.197v.05l3.56 2.125L28.67 66.634l4.4 2.57v-32.13l-4.4 1.977v-4.795l4.4-1.977 4.4 1.977 22.342 10.133z"/><path fill="#1C4D6B" d="M66.14 65.497a35.26 35.26 0 0 1-12.952 27.138c-3.114 2.52-6.623 4.498-10.43 5.783A30.5 30.5 0 0 1 33.12 100C14.83 100 .05 83.737.05 65.497c0-2.719.346-5.388.99-8.008l32.08 18.982L65.2 57.489c.593 2.62.94 5.289.94 8.008"/><path fill="#000" d="m29.214 30.45 3.856 1.78-4.4 1.977v-3.955zM28.67 39.05l4.4-2.026v32.13l-4.4-2.57z"/><path fill="#1D4259" d="M33.07 37.024v32.13l30.746-18.14z"/><path fill="#4B6B9A" d="M33.07 0v37.024l30.746 13.99z"/><path fill="#343535" d="M33.07 37.024v32.13l-4.4-2.57-26.297-15.57c0-.1.05-.149.099-.198l3.855-6.377L28.67 34.306v4.844z"/><path fill="#3E5578" d="M33.07 37.024v32.13l-4.4-2.57-26.297-15.57h-.05l.05-.05L28.67 39.05z"/><path fill="#6DB2D8" d="M33.07 0v37.024L2.323 51.014z"/><path fill="#335F8A" d="M20.613 97.38c.445.198.94.396 1.384.593-.445-.197-.89-.395-1.384-.593M21.997 97.924c.445.198.94.346 1.434.494a16 16 0 0 1-1.434-.494M24.666 98.814c.396.099.742.197 1.088.296z"/><path fill="#6DB2D8" d="m.989 57.489 32.08 18.982c-.444 2.867-1.186 5.684-2.323 8.403-2.57 6.228-7.76 12.753-17.795 7.76A35.36 35.36 0 0 1 0 65.448c0-2.669.346-5.338.989-7.958"/><path fill="#529BBA" d="M53.09 92.684c-.198.148 0 0-.643.544l-.297.198-.445.296-.543.396c.543-.396-.445.296-.643.445a3.3 3.3 0 0 0-.544.346l-.346.247c-.099.05-.247.148-.346.247 0 0-.148.148-.197.148.197-.148-.248.099-.445.247a2.7 2.7 0 0 0-.643.346l-.692.346-.297.149c-.197.099-.099 0-.296.148-.198.148-.445.198-.692.346s0 0-.84.395c.84-.395 0 0-.445.198.444-.198-.791.297-1.335.495-.198.049-1.285.395-1.483.444-.198.05-.445.149-.643.198-.395.099-.741.198-1.087.297-.148.05-.297.05-.396.099l-.247.049-.593.148c-.198.05-.346.05-.544.1-.197.049-.346.049-.494.098-.148.05-.395.05-.544.099-.099 0-.197 0-.247.05l-.395.049h-.198c-.148 0-.297.05-.445.05s-.395.049-.593.049H30.45c-.198 0-.396-.05-.593-.05-.149 0-.297 0-.445-.05h-.198c-.148 0-.296-.049-.395-.049s-.198 0-.248-.05c-.197 0-.346-.049-.543-.098-.149 0-.346-.05-.495-.099-.148-.05-.346-.05-.543-.099l-.593-.148-.248-.05a.9.9 0 0 1-.395-.098c-.396-.1-.742-.198-1.088-.297l-.642-.198c-.198-.05-.396-.099-.593-.197-.495-.149-.94-.346-1.434-.495-.494-.148-.94-.395-1.384-.593a10 10 0 0 0-.692-.296c-.247-.1-.494-.198-.692-.347a2.7 2.7 0 0 1-.643-.346c-.197-.098-.445-.247-.642-.346-.198-.098-.346-.197-.495-.296-.494-.297-.79-.494-.494-.297l-.297-.197-.543-.346-.198-.1-.494-.345c-.198-.149-.396-.248-.594-.396s-.444-.296-.642-.445c-.198-.148-.396-.346-.544-.445l-.198-.148c-.197-.099-.346-.247-.494-.395 10.035 4.992 15.176-1.632 17.746-7.81a38.6 38.6 0 0 0 2.323-8.404c.445 2.917 1.187 5.784 2.324 8.502 2.669 6.13 7.71 12.704 17.746 7.761"/><path fill="#335F8A" d="M40.386 99.11c.395-.099.741-.198 1.087-.296zM44.044 97.973c.444-.197 1.038-.395 1.483-.642-.495.247-1.039.445-1.483.642"/><path fill="#4B6B9A" d="M66.14 65.497a35.26 35.26 0 0 1-12.952 27.138c-10.034 4.992-15.225-1.582-17.795-7.761a38.6 38.6 0 0 1-2.323-8.403l32.08-18.982c.643 2.62.99 5.289.99 8.008"/></svg>