<svg xmlns="http://www.w3.org/2000/svg" width="300" height="300" fill="none"><circle cx="150" cy="150" r="150" fill="#D08E39"/><path fill="#002522" fill-rule="evenodd" d="M241.377 139.857a11.63 11.63 0 0 1 4.096 6.987 8 8 0 0 1-.03 2.469 15 15 0 0 1-.211 1.716 25 25 0 0 1-.723 3.313 22.8 22.8 0 0 1-3.011 6.264c-.25.362-.567.776-.786 1.061l-.178.234v.15l.012.091c.034.243.097.695.229 1.355.363 2.188.474 4.411.331 6.625a38 38 0 0 1-3.011 12.498 27.8 27.8 0 0 1-7.71 10.69l-.391.362-.542.18a89 89 0 0 1-12.919 3.765 54 54 0 0 1-13.733 1.325h-.783a137.2 137.2 0 0 0-29.482-6.023 58.4 58.4 0 0 1-8.101-1.175 66 66 0 0 1-7.709-2.469 94 94 0 0 0-12.317-3.554 13.98 13.98 0 0 0-2.56 9.456 38.8 38.8 0 0 0 4.487 13.673 74 74 0 0 1 7.198 14.665 36.84 36.84 0 0 1 1.325 17.075l-.813 5.21-4.397-3.011c-.529-.453-1.521-1.054-2.466-1.626l-.546-.332-3.011-1.656a67 67 0 0 1 2.108 12.046 69 69 0 0 1-.211 10.57A36.7 36.7 0 0 1 143.233 272c-12.484-18.97-22.673-24.404-31.598-29.164-5.994-3.197-11.419-6.09-16.585-12.575-7.65-10.871-9.576-23.369 1.084-47.009 2.952-7.305 4.773-15.317 6.262-21.869 1.262-5.548 2.285-10.05 3.555-12.191v.181a44 44 0 0 0 0 15.057 16.8 16.8 0 0 0 2.56 6.565 12.35 12.35 0 0 0 5.331 4.006 46 46 0 0 0 14.214 3.011c2.469.392 4.969.392 7.528.392a37 37 0 0 1 3.976.15c1.355.121 2.68.301 4.005.482a97.7 97.7 0 0 1 15.479 3.825 43.5 43.5 0 0 0 14.244 2.86 135 135 0 0 1 30.476 6.023 53.6 53.6 0 0 0 11.654-.903c1.386-.241 2.771-.572 4.156-.903 6.806-1.988 14.455-13.552 5.601-12.588a48.5 48.5 0 0 0-7.317.903c-1.382.327-2.75.845-4.2 1.394-1.489.563-3.065 1.16-4.835 1.618a20.46 20.46 0 0 1-10.118-.271 29.8 29.8 0 0 0-9.035-2.109 11.4 11.4 0 0 1 4.728-1.445c1.218-.122 2.298-.08 3.334-.039.502.02.993.039 1.485.039 2.809.386 5.665.264 8.432-.361 1.421-.402 2.86-1.174 4.406-2.004 1.239-.664 2.546-1.365 3.966-1.941a27.3 27.3 0 0 1 9.907-2.108h-.06a21.4 21.4 0 0 1 3.704 0 12.05 12.05 0 0 0 3.012-9.426 6.5 6.5 0 0 0-3.674-2.681 97 97 0 0 0-2.256-.453c-4.47-.867-11.786-2.285-14.729-5.027-2.018-1.958-3.102-7.83 4.005-9.456a40.9 40.9 0 0 1 11.414-.362l.145.014c1.705.162 5.937.563 6.932-.285a28 28 0 0 1-1.339-.964q-.32-.24-.649-.481l-9.335-7.107c-.644-.453-1.269-.911-1.882-1.36-.937-.686-1.846-1.353-2.756-1.953a9 9 0 0 0-.964-.602 7 7 0 0 0-1.024-.452 29 29 0 0 1-3.011-1.355 38.1 38.1 0 0 1-9.818-7.258 122.7 122.7 0 0 1-21.531-29.904 20.72 20.72 0 0 0-10.812-9.787 17.8 17.8 0 0 1 13.281 4.818c.603.5 1.372 1.876 2.357 3.637 2.751 4.92 7.188 12.857 14.417 13.167 1.246-.1 2.473-.374 3.644-.813-3.589-3.397-6.019-7.489-8.293-11.318-3.45-5.812-6.544-11.021-12.788-12.292a42 42 0 0 1-4.577-1.957l-4.216-2.078-8.432-4.126a152 152 0 0 0-17.166-6.956 87 87 0 0 0-17.858-3.855c-1.438-.19-2.886-.3-4.336-.331a7.56 7.56 0 0 0-3.373.783c-.61.261-1.297.628-2.004 1.005-.759.405-1.54.821-2.272 1.133a75 75 0 0 0-4.186 1.927 83.6 83.6 0 0 0-15.449 9.697 40.4 40.4 0 0 0-9.336 9.185 34.2 34.2 0 0 1 13.341 1.747 50.7 50.7 0 0 0-16.02 2.289 55 55 0 0 0-7.439 2.74 51 51 0 0 0-6.957 3.644 30.4 30.4 0 0 0-6.022 4.547 7.7 7.7 0 0 0-1.687 2.59c-.511 1.143-.962 2.376-1.414 3.61l-.001.004a116 116 0 0 0-4.186 15.479 125.3 125.3 0 0 0-2.41 31.891 61.9 61.9 0 0 0 6.596 24.755 467 467 0 0 0 10.81-14.847 232 232 0 0 0 12.499-20.087c1.984-3.559 3.746-7.283 5.527-11.047 1.624-3.433 3.264-6.899 5.103-10.304a65.5 65.5 0 0 1 6.535-10.42 24.8 24.8 0 0 1 4.397-4.487 10.1 10.1 0 0 1 5.782-2.318c-6.746 6.053-11.986 22.315-17.226 40.534-4.216 14.786-18.55 48.485-27.585 49.328-3.493.18-4.788-1.476-7.167-4.909l-1.988-2.71a54 54 0 0 1-7.83-15.901 79.7 79.7 0 0 1-3.011-17.105c-.277-5.694-.146-11.4.391-17.075a142 142 0 0 1 3.012-16.714 121.5 121.5 0 0 1 4.909-16.262c.542-1.355 1.084-2.68 1.746-4.035q.546-1.124 1.235-2.168.79-1.067 1.717-2.018a31.5 31.5 0 0 1 7.348-5.21 50 50 0 0 1 12.527-4.547 29.9 29.9 0 0 1 5.541-8.342 61 61 0 0 1 7.469-6.595 90.6 90.6 0 0 1 16.502-10.36c.929-.464 2.06-.968 3.059-1.414.491-.22.951-.424 1.338-.603.52-.24 1.075-.527 1.676-.837.757-.392 1.587-.821 2.51-1.24A13.95 13.95 0 0 1 127.122 54c1.574 0 2.733.12 3.923.245.381.04.765.08 1.167.116a93.4 93.4 0 0 1 19.032 4.126 155 155 0 0 1 17.858 7.258l8.583 4.155 4.246 2.109c1.037.56 2.36 1.068 3.801 1.621l.325.125a46 46 0 0 1 4.577 2.018 20 20 0 0 1 2.439 1.476 24 24 0 0 1 2.108 1.927 44 44 0 0 1 6.023 8.221l.647 1.127c2.938 5.124 5.687 9.92 9.954 12.726l3.011 1.987a3 3 0 0 1-.181.482l-.632 1.145-3.012 1.535a2.44 2.44 0 0 0-1.295 1.386 2.7 2.7 0 0 0-.18.903v1.928a10.6 10.6 0 0 1-.392 3.011c-.125.388-.276.734-.41 1.041-.188.432-.343.785-.343 1.067-.095.314-.095.65 0 .964a32.1 32.1 0 0 0 8.192 6.023l2.409 1.114q.852.306 1.656.723l1.536.933c1.347.855 2.451 1.695 3.549 2.531.449.341.897.682 1.36 1.023l9.365 7.137 2.229 1.656q1.417.925 2.71 2.018m-73.993-27.796c.301 3.734-4.156 6.655-9.606 7.258-6.867.692-10.541-3.283-9.577-7.89 1.807-7.71-2.168-5.09-4.818-2.078a.364.364 0 0 1-.449.152.36.36 0 0 1-.214-.423c1.114-7.951 5.782-8.282 7.86-8.282a95 95 0 0 1 18.611 3.162.91.91 0 0 1 .688.683.9.9 0 0 1-.327.913 6.78 6.78 0 0 0-2.168 6.505" clip-rule="evenodd"/></svg>