<svg xmlns="http://www.w3.org/2000/svg" width="258" height="258" fill="none"><g clip-path="url(#a)"><mask id="b" width="258" height="258" x="0" y="0" maskUnits="userSpaceOnUse" style="mask-type:luminance"><path fill="#fff" d="M238 0H20C8.954 0 0 8.954 0 20v218c0 11.046 8.954 20 20 20h218c11.046 0 20-8.954 20-20V20c0-11.046-8.954-20-20-20"/></mask><g mask="url(#b)"><path fill="#000" d="m319.325 0-.71 205.318h43.215L362.54 0zm-462.026 48.885c-45.511 0-82.637 35.893-82.79 80.185s36.658 80.185 82.236 80.185 82.637-35.893 82.79-80.185-36.658-80.185-82.236-80.185m-.424 122.509c-24.105 0-43.554-18.964-43.473-42.389s19.661-42.389 43.767-42.389c24.173 0 43.621 18.963 43.54 42.389-.08 23.425-19.66 42.389-43.834 42.389M261.073 52.757l-.028 8.268c-12.601-7.678-27.575-12.14-43.578-12.14-23.093 0-43.99 9.187-59.031 24.017L71.44 158.73c-7.928 7.874-19.018 12.664-31.172 12.664-24.106 0-43.554-18.964-43.473-42.389.08-23.426 19.728-42.389 43.766-42.389 12.222 0 23.211 4.855 31.084 12.664l15.948 15.879 27.305-26.969-15.41-15.288C84.55 58.072 63.718 48.885 40.625 48.885a84.25 84.25 0 0 0-43.662 12.14l.21-60.96h-42.809l-.71 205.319h42.81l.029-8.268c12.667 7.677 27.642 12.205 43.577 12.205 23.093 0 43.99-9.252 59.03-24.016l86.998-86.025c7.927-7.874 19.018-12.664 31.172-12.664 24.105 0 43.554 18.963 43.473 42.389-.081 23.425-19.661 42.454-43.767 42.454-12.221 0-23.211-4.921-31.084-12.729l-15.881-15.814-27.304 26.969 15.342 15.289c14.939 14.829 35.771 24.016 58.864 24.016 16.003 0 31.009-4.462 43.663-12.205l-.029 8.268h42.877l.527-152.496zm-593.604 41.93c.032-9.515 10.242-13.452 22.599-13.452 19.109 0 23.739 8.4 24.308 19.423h42.81c-2.324-30.775-27.576-50.92-67.685-50.92-40.041 0-65.437 21.851-65.534 49.74-.224 64.698 93.324 37.073 93.23 64.107-.025 7.284-7.477 14.436-23.48 14.436-22.822-.328-29.265-11.68-29.232-20.998H-379c.776 29.397 27.237 51.248 70.384 51.248 39.839 0 71.357-15.289 71.484-51.969.202-58.335-95.495-34.056-95.399-61.615"/></g></g><defs><clipPath id="a"><path fill="#fff" d="M0 0h258v258H0z"/></clipPath></defs></svg>