<svg width="258" height="258" viewBox="0 0 258 258" fill="none" xmlns="http://www.w3.org/2000/svg">
<g clip-path="url(#clip0_2582_2)">
<mask id="mask0_2582_2" style="mask-type:luminance" maskUnits="userSpaceOnUse" x="0" y="0" width="258" height="258">
<path d="M238 0H20C8.9543 0 0 8.9543 0 20V238C0 249.046 8.9543 258 20 258H238C249.046 258 258 249.046 258 238V20C258 8.9543 249.046 0 238 0Z" fill="white"/>
</mask>
<g mask="url(#mask0_2582_2)">
<path d="M319.506 0L318.796 205.318H362.011L362.721 0H319.506ZM-142.52 48.8853C-188.031 48.8853 -225.157 84.7781 -225.31 129.07C-225.464 173.362 -188.652 209.255 -143.074 209.255C-97.4967 209.255 -60.4376 173.362 -60.2845 129.07C-60.1313 84.7781 -96.9423 48.8853 -142.52 48.8853ZM-142.944 171.394C-167.049 171.394 -186.498 152.43 -186.417 129.005C-186.336 105.579 -166.756 86.6161 -142.65 86.6161C-118.477 86.6161 -99.029 105.579 -99.1099 129.005C-99.1909 152.43 -118.77 171.394 -142.944 171.394ZM261.254 52.7568L261.226 61.0246C248.625 53.3474 233.651 48.8853 217.648 48.8853C194.555 48.8853 173.658 58.0718 158.617 72.9015L71.6205 158.73C63.6931 166.604 52.6027 171.394 40.4485 171.394C16.3428 171.394 -3.10574 152.43 -3.02475 129.005C-2.94377 105.579 16.7034 86.6161 40.7416 86.6161C52.9633 86.6161 63.9528 91.4711 71.826 99.2801L87.774 115.159L115.079 88.1901L99.6692 72.9015C84.7304 58.0718 63.8975 48.8853 40.8046 48.8853C24.8017 48.8853 9.86356 53.3474 -2.8573 61.0246L-2.64655 0.0655994H-45.456L-46.1658 205.384H-3.35638L-3.32779 197.116C9.33999 204.793 24.3146 209.321 40.25 209.321C63.3428 209.321 84.2395 200.069 99.2806 185.305L186.278 99.2801C194.205 91.4061 205.296 86.6161 217.45 86.6161C241.555 86.6161 261.004 105.579 260.923 129.005C260.842 152.43 241.262 171.459 217.156 171.459C204.935 171.459 193.945 166.538 186.072 158.73L170.191 142.916L142.887 169.885L158.229 185.174C173.168 200.003 194 209.19 217.093 209.19C233.096 209.19 248.102 204.728 260.756 196.985L260.727 205.253H303.604L304.131 52.7568H261.254ZM-332.35 94.6871C-332.318 85.1721 -322.108 81.2351 -309.751 81.2351C-290.642 81.2351 -286.012 89.6341 -285.443 100.658H-242.633C-244.957 69.883 -270.209 49.7384 -310.318 49.7384C-350.359 49.7384 -375.755 71.5891 -375.852 99.4771C-376.076 164.176 -282.528 136.551 -282.622 163.585C-282.647 170.869 -290.099 178.021 -306.102 178.021C-328.924 177.693 -335.367 166.341 -335.334 157.023H-378.819C-378.043 186.42 -351.582 208.271 -308.435 208.271C-268.596 208.271 -237.078 192.982 -236.951 156.302C-236.749 97.9671 -332.446 122.246 -332.35 94.6871Z" fill="white"/>
</g>
</g>
<defs>
<clipPath id="clip0_2582_2">
<rect width="258" height="258" fill="white"/>
</clipPath>
</defs>
</svg>
