<svg width="258" height="258" viewBox="0 0 258 258" fill="none" xmlns="http://www.w3.org/2000/svg">
<g clip-path="url(#clip0_6_24)">
<path d="M319.506 24.6389L318.796 229.957H362.011L362.721 24.6389H319.506ZM-142.52 73.5242C-188.031 73.5242 -225.157 109.417 -225.31 153.709C-225.464 198.001 -188.652 233.894 -143.074 233.894C-97.4964 233.894 -60.4373 198.001 -60.2842 153.709C-60.131 109.417 -96.942 73.5242 -142.52 73.5242ZM-142.944 196.033C-167.049 196.033 -186.498 177.069 -186.417 153.644C-186.336 130.218 -166.756 111.255 -142.65 111.255C-118.477 111.255 -99.0287 130.218 -99.1096 153.644C-99.1906 177.069 -118.77 196.033 -142.944 196.033ZM261.254 77.3957L261.226 85.6635C248.625 77.9863 233.651 73.5242 217.648 73.5242C194.555 73.5242 173.658 82.7107 158.617 97.5404L71.6208 183.369C63.6934 191.243 52.603 196.033 40.4488 196.033C16.3431 196.033 -3.10539 177.069 -3.0244 153.644C-2.94342 130.218 16.7037 111.255 40.7419 111.255C52.9636 111.255 63.9531 116.11 71.8263 123.919L87.7743 139.798L115.079 112.829L99.6695 97.5404C84.7307 82.7107 63.8978 73.5242 40.8049 73.5242C24.802 73.5242 9.86391 77.9863 -2.85695 85.6635L-2.64621 24.7045H-45.4557L-46.1655 230.023H-3.35604L-3.32745 221.755C9.34033 229.432 24.3149 233.96 40.2503 233.96C63.3431 233.96 84.2398 224.708 99.2809 209.944L186.278 123.919C194.205 116.045 205.296 111.255 217.45 111.255C241.555 111.255 261.004 130.218 260.923 153.644C260.842 177.069 241.262 196.098 217.156 196.098C204.935 196.098 193.945 191.177 186.072 183.369L170.191 167.555L142.887 194.524L158.229 209.813C173.168 224.642 194 233.829 217.093 233.829C233.096 233.829 248.102 229.367 260.756 221.624L260.727 229.892H303.604L304.131 77.3957H261.254ZM-332.35 119.326C-332.318 109.811 -322.108 105.874 -309.751 105.874C-290.642 105.874 -286.012 114.273 -285.443 125.297H-242.633C-244.957 94.5219 -270.209 74.3773 -310.318 74.3773C-350.359 74.3773 -375.755 96.228 -375.852 124.116C-376.076 188.815 -282.528 161.19 -282.622 188.224C-282.647 195.508 -290.099 202.66 -306.102 202.66C-328.924 202.332 -335.367 190.98 -335.334 181.662H-378.819C-378.043 211.059 -351.582 232.91 -308.435 232.91C-268.596 232.91 -237.078 217.621 -236.951 180.941C-236.749 122.606 -332.446 146.885 -332.35 119.326Z" fill="white"/>
</g>
<defs>
<clipPath id="clip0_6_24">
<rect width="258" height="258" rx="20" fill="white"/>
</clipPath>
</defs>
</svg>
