<svg width="258" height="258" viewBox="0 0 258 258" fill="none" xmlns="http://www.w3.org/2000/svg">
<g clip-path="url(#clip0_2582_8)">
<mask id="mask0_2582_8" style="mask-type:luminance" maskUnits="userSpaceOnUse" x="0" y="0" width="258" height="258">
<path d="M238 0H20C8.9543 0 0 8.9543 0 20V238C0 249.046 8.9543 258 20 258H238C249.046 258 258 249.046 258 238V20C258 8.9543 249.046 0 238 0Z" fill="white"/>
</mask>
<g mask="url(#mask0_2582_8)">
<path d="M319.325 0L318.615 205.318H361.83L362.54 0H319.325ZM-142.701 48.8853C-188.212 48.8853 -225.338 84.7781 -225.491 129.07C-225.645 173.362 -188.833 209.255 -143.255 209.255C-97.6774 209.255 -60.6183 173.362 -60.4652 129.07C-60.312 84.7781 -97.123 48.8853 -142.701 48.8853ZM-143.125 171.394C-167.23 171.394 -186.679 152.43 -186.598 129.005C-186.517 105.579 -166.937 86.6161 -142.831 86.6161C-118.658 86.6161 -99.2097 105.579 -99.2906 129.005C-99.3716 152.43 -118.951 171.394 -143.125 171.394ZM261.073 52.7568L261.045 61.0246C248.444 53.3474 233.47 48.8853 217.467 48.8853C194.374 48.8853 173.477 58.0718 158.436 72.9015L71.4398 158.73C63.5124 166.604 52.422 171.394 40.2678 171.394C16.1621 171.394 -3.2864 152.43 -3.20541 129.005C-3.12443 105.579 16.5227 86.6161 40.5609 86.6161C52.7826 86.6161 63.7721 91.4711 71.6453 99.2801L87.5933 115.159L114.898 88.1901L99.4885 72.9015C84.5497 58.0718 63.7168 48.8853 40.6239 48.8853C24.621 48.8853 9.6829 53.3474 -3.03796 61.0246L-2.82721 0.0655994H-45.6367L-46.3465 205.384H-3.53705L-3.50845 197.116C9.15933 204.793 24.1339 209.321 40.0693 209.321C63.1621 209.321 84.0588 200.069 99.0999 185.305L186.097 99.2801C194.024 91.4061 205.115 86.6161 217.269 86.6161C241.374 86.6161 260.823 105.579 260.742 129.005C260.661 152.43 241.081 171.459 216.975 171.459C204.754 171.459 193.764 166.538 185.891 158.73L170.01 142.916L142.706 169.885L158.048 185.174C172.987 200.003 193.819 209.19 216.912 209.19C232.915 209.19 247.921 204.728 260.575 196.985L260.546 205.253H303.423L303.95 52.7568H261.073ZM-332.531 94.6871C-332.499 85.1721 -322.289 81.2351 -309.932 81.2351C-290.823 81.2351 -286.193 89.6341 -285.624 100.658H-242.814C-245.138 69.883 -270.39 49.7384 -310.499 49.7384C-350.54 49.7384 -375.936 71.5891 -376.033 99.4771C-376.257 164.176 -282.709 136.551 -282.803 163.585C-282.828 170.869 -290.28 178.021 -306.283 178.021C-329.105 177.693 -335.548 166.341 -335.515 157.023H-379C-378.224 186.42 -351.763 208.271 -308.616 208.271C-268.777 208.271 -237.259 192.982 -237.132 156.302C-236.93 97.9671 -332.627 122.246 -332.531 94.6871Z" fill="black"/>
</g>
</g>
<defs>
<clipPath id="clip0_2582_8">
<rect width="258" height="258" fill="white"/>
</clipPath>
</defs>
</svg>
