<svg xmlns="http://www.w3.org/2000/svg" width="36" height="36" fill="none"><path fill="#6747ED" d="M18 36c9.941 0 18-8.059 18-18S27.941 0 18 0 0 8.059 0 18s8.059 18 18 18"/><path fill="#fff" fill-rule="evenodd" d="M17.738 20.325a4.785 4.785 0 0 1-4.8-4.8c0-2.662 2.137-4.8 4.8-4.8s4.8 2.138 4.8 4.8-2.138 4.8-4.8 4.8m0-12c3.974 0 7.2 3.225 7.2 7.2s-3.226 7.2-7.2 7.2a7.2 7.2 0 0 1-7.2-7.2c0-3.975 3.224-7.2 7.2-7.2M24.6 23.1c.487.487.487 1.237 0 1.688l-4.8 4.8c-.488.487-1.238.487-1.687 0-.488-.488-.488-1.238 0-1.688l4.8-4.8a1.156 1.156 0 0 1 1.687 0m2.775-13.575c0 .675-.525 1.2-1.2 1.2s-1.2-.525-1.2-1.2.525-1.2 1.2-1.2c.637 0 1.2.525 1.2 1.2" clip-rule="evenodd"/></svg>