<svg xmlns="http://www.w3.org/2000/svg" width="36" height="36" fill="none"><path fill="#fff" d="M0 0h36v36H0z"/><circle cx="18" cy="18" r="18" fill="#F4F4F4"/><path fill="#071C2C" d="M20.416 30.36c0-1.222-.88-2.25-2.043-2.444V21.31c.686-.074 1.222-.343 1.774-.745l5.174 5.174c-.402.685-.343 1.64.268 2.177a1.8 1.8 0 0 0 2.52 0 1.8 1.8 0 0 0 0-2.52 1.75 1.75 0 0 0-2.177-.269l-5.174-5.174a3.2 3.2 0 0 0 .746-1.774h6.605a2.48 2.48 0 0 0 2.446 2.043A2.437 2.437 0 0 0 33 17.776c0-1.357-1.223-2.31-2.594-2.31-1.223 0-2.252.879-2.446 2.042h-6.605a3.3 3.3 0 0 0-.746-1.774l5.174-5.174c.686.402 1.64.343 2.177-.269a1.8 1.8 0 0 0 0-2.52 1.8 1.8 0 0 0-2.52 0 1.75 1.75 0 0 0-.268 2.177l-5.04 5.249a3.2 3.2 0 0 0-1.774-.746v-6.56A2.48 2.48 0 0 0 20.4 5.445 2.437 2.437 0 0 0 17.955 3a2.437 2.437 0 0 0-2.445 2.445c0 1.223.88 2.252 2.043 2.446v6.53a3.3 3.3 0 0 0-1.775.746l-5.1-5.1c.403-.685.344-1.64-.268-2.176a1.8 1.8 0 0 0-2.52 0 1.8 1.8 0 0 0 0 2.52 1.75 1.75 0 0 0 2.178.268l5.099 5.1a3.2 3.2 0 0 0-.745 1.774H7.89a2.48 2.48 0 0 0-2.446-2.043A2.437 2.437 0 0 0 3 17.955a2.437 2.437 0 0 0 2.445 2.446c1.223 0 2.252-.88 2.446-2.043h6.53a3.3 3.3 0 0 0 .746 1.774l-5.1 5.1c-.685-.403-1.64-.343-2.176.268a1.8 1.8 0 0 0 0 2.52 1.8 1.8 0 0 0 2.52 0 1.75 1.75 0 0 0 .268-2.177l5.174-5.174a3.2 3.2 0 0 0 1.774.745v6.606a2.48 2.48 0 0 0-2.042 2.445 2.437 2.437 0 0 0 2.445 2.445c1.297-.03 2.386-1.192 2.386-2.55"/></svg>