<svg xmlns="http://www.w3.org/2000/svg" width="144" height="144" fill="none"><path fill="#fff" fill-rule="evenodd" d="M54.877 31.278a3.4 3.4 0 1 1 0-6.8 3.4 3.4 0 0 1 0 6.8m0 1.7a5.1 5.1 0 1 1 0-10.2 5.1 5.1 0 0 1 0 10.2m-6.8-5.1a6.8 6.8 0 1 0 13.6 0 6.8 6.8 0 0 0-13.6 0m-1.7 0a8.5 8.5 0 1 0 17 0 8.5 8.5 0 0 0-17 0" clip-rule="evenodd"/><path stroke="#fff" stroke-width="2" d="M132.622 108a70.003 70.003 0 0 1-95.627 25.619A70.003 70.003 0 0 1 11.384 37.99 70 70 0 0 1 72.014 3l-.008 40.6a29.4 29.4 0 1 0 25.455 44.1z"/><path stroke="url(#a)" stroke-width="2" d="M132.622 108a70.003 70.003 0 0 1-95.627 25.619A70.003 70.003 0 0 1 11.384 37.99 70 70 0 0 1 72.014 3l-.008 40.6a29.4 29.4 0 1 0 25.455 44.1z"/><path stroke="#fff" stroke-width="2" d="M72 3a70 70 0 0 1 70 70.022 70 70 0 0 1-9.393 35.003L97.455 87.711A29.402 29.402 0 0 0 72 43.6z"/><path stroke="url(#b)" stroke-width="2" d="M72 3a70 70 0 0 1 70 70.022 70 70 0 0 1-9.393 35.003L97.455 87.711A29.402 29.402 0 0 0 72 43.6z"/><path fill="#fff" d="M65.277 76.704v-8.34h1.259v7.256h3.779v1.084zm6.475 0v-8.34h2.973q.973 0 1.612.354.64.355.957.969.318.61.318 1.377 0 .77-.322 1.384-.318.61-.96.97-.64.353-1.61.353h-2.044v-1.066h1.93q.615 0 .998-.212a1.33 1.33 0 0 0 .562-.587q.18-.37.18-.843 0-.471-.18-.838a1.3 1.3 0 0 0-.566-.575q-.383-.207-1.01-.207h-1.58v7.26h-1.258Z"/><path fill="#fff" fill-rule="evenodd" d="M85.782 19.609 87 17.994l1.1 1.696 5.213 8.03-5.76 7.647-1.217 1.615-1.101-1.696-5.213-8.03zm-2.745 6.802 3.846-5.106 3.481 5.362zm-.066 1.899 3.48 5.361 3.847-5.106z" clip-rule="evenodd"/><defs><linearGradient id="a" x1="72" x2="72" y1="3" y2="143" gradientUnits="userSpaceOnUse"><stop stop-color="#fff"/><stop offset="1" stop-color="#fff" stop-opacity="0"/></linearGradient><linearGradient id="b" x1="72" x2="72" y1="3" y2="143" gradientUnits="userSpaceOnUse"><stop stop-color="#fff"/><stop offset="1" stop-color="#fff" stop-opacity="0"/></linearGradient></defs></svg>