<svg xmlns="http://www.w3.org/2000/svg" width="144" height="144" fill="none"><g clip-path="url(#a)"><path fill="#fff" fill-rule="evenodd" d="M92.138 27.821c3.03.557 5.118 1.65 5.076 2.834-.055 1.601-3.986 2.764-8.778 2.596s-8.632-1.601-8.576-3.202c.041-1.184 2.201-2.129 5.262-2.473 1.038.25 2.228.412 3.496.456a18 18 0 0 0 3.44-.197zm-1.145-4.813c2.746.403 4.704 1.342 4.668 2.367-.044 1.281-3.189 2.21-7.022 2.077-3.834-.134-6.906-1.28-6.861-2.562.036-1.024 2.054-1.825 4.822-2.035a14 14 0 0 0 2.19.248c.752.026 1.471-.006 2.131-.086z" clip-rule="evenodd"/><path fill="#fff" d="M88.806 22.639c2.876.1 5.234-.597 5.267-1.558.034-.96-2.27-1.821-5.145-1.921-2.876-.1-5.234.597-5.267 1.557-.034.961 2.27 1.821 5.145 1.922"/><path fill="#fff" fill-rule="evenodd" d="M72 2h-1v42.6h1a28.4 28.4 0 1 1-27.01 19.624l.309-.951-.951-.31L5.735 50.419l-.951-.31-.309.952A71 71 0 1 0 72 2m1 40.616V4.007a68.998 68.998 0 0 1 64.623 90.315A69 69 0 0 1 6.075 52.632l36.72 11.93A30.4 30.4 0 1 0 73 42.616m-4.077 26.452v8.216h3.15q.953 0 1.568-.289.614-.293.906-.79.297-.502.297-1.132 0-.637-.257-1.083a1.9 1.9 0 0 0-.65-.686 1.64 1.64 0 0 0-.798-.264v-.08q.378-.097.69-.305.317-.213.506-.562.188-.353.188-.867 0-.609-.285-1.095a1.98 1.98 0 0 0-.858-.774q-.574-.288-1.448-.289zm3.029 7.153h-1.79v-2.632h1.834a1.8 1.8 0 0 1 .858.193q.365.192.562.517t.197.714q0 .518-.386.863-.385.345-1.275.345m-.129-3.599h-1.66v-2.499h1.693q.738 0 1.095.345t.357.855a1.2 1.2 0 0 1-.2.69 1.3 1.3 0 0 1-.535.449 1.7 1.7 0 0 1-.75.16m-6.97 4.786q-.911 0-1.57-.389a2.64 2.64 0 0 1-1.01-1.103q-.353-.714-.353-1.673 0-.946.353-1.669.357-.722.995-1.127.642-.405 1.5-.405.522 0 1.011.172.49.173.879.542.388.37.613.959.225.585.225 1.424v.425h-4.38q.014.564.216.967.22.434.614.662.393.225.918.224.342 0 .622-.096a1.29 1.29 0 0 0 .798-.782l1.136.204a2.05 2.05 0 0 1-.49.879 2.4 2.4 0 0 1-.878.582q-.525.204-1.2.204Zm-1.537-4.485q-.175.345-.198.742h3.202q0-.473-.192-.838a1.46 1.46 0 0 0-.542-.582q-.345-.212-.81-.212a1.57 1.57 0 0 0-.882.248 1.67 1.67 0 0 0-.578.642m-2.037-1.8-2.234 6.16H57.76l-2.239-6.16h1.288l1.56 4.74h.065l1.556-4.74h1.288Zm15.73 6.16h-1.317l2.957-8.215h1.432l2.957 8.216h-1.316l-.751-2.174h-3.21l-.753 2.174Zm2.39-6.722 1.211 3.506h-2.488l1.213-3.506zm4.825-1.493v8.216h4.962v-1.067h-3.722v-7.149z" clip-rule="evenodd"/><path stroke="#fff" stroke-width="2" d="M5.426 51.369A70 70 0 0 1 72 3v40.6a29.4 29.4 0 0 0-27.961 20.315z"/><path fill="#fff" fill-rule="evenodd" d="m54.492 17.791 1.159-1.785 1.28 1.7 6.064 8.05-5.487 8.453-1.16 1.785-1.28-1.7-6.064-8.05zm-2.384 7.344 3.664-5.643 4.049 5.374zm.07 2 4.049 5.373 3.664-5.643z" clip-rule="evenodd"/></g><defs><clipPath id="a"><path fill="#fff" d="M1 2h142v142H1z"/></clipPath></defs></svg>