<svg xmlns="http://www.w3.org/2000/svg" width="152" height="114" fill="none"><g stroke-miterlimit="10" stroke-width="4" filter="url(#a)"><path stroke="#FF01FB" d="m54.332 3.845.957-.598L97.183 74.98M54.332 31.32l41.686 71.371 1.165-.732"/><path stroke="#fff" d="M54.332 3v100c-12.818 0-25.112-5.268-34.176-14.645S6 66.261 6 53s5.092-25.978 14.156-35.355S41.514 3 54.332 3Z"/><path stroke="#85E25E" d="M97.184 3v100c12.818 0 25.112-5.268 34.176-14.645S145.516 66.261 145.516 53s-5.092-25.978-14.156-35.355S110.002 3 97.184 3Z"/></g><defs><filter id="a" width="151.516" height="113.024" x="0" y=".459" color-interpolation-filters="sRGB" filterUnits="userSpaceOnUse"><feFlood flood-opacity="0" result="BackgroundImageFix"/><feColorMatrix in="SourceAlpha" result="hardAlpha" values="0 0 0 0 0 0 0 0 0 0 0 0 0 0 0 0 0 0 127 0"/><feOffset dy="4"/><feGaussianBlur stdDeviation="2"/><feComposite in2="hardAlpha" operator="out"/><feColorMatrix values="0 0 0 0 0 0 0 0 0 0 0 0 0 0 0 0 0 0 0.25 0"/><feBlend in2="BackgroundImageFix" result="effect1_dropShadow_1598_1744"/><feBlend in="SourceGraphic" in2="effect1_dropShadow_1598_1744" result="shape"/></filter></defs></svg>