<svg width="114" height="112" viewBox="0 0 114 112" fill="none" xmlns="http://www.w3.org/2000/svg">
<g filter="url(#filter0_d_1598_1754)">
<path d="M95.5071 102C102.228 102 107.676 96.4004 107.676 89.4928C107.676 82.5853 102.228 76.9856 95.5071 76.9856C88.7862 76.9856 83.3379 82.5853 83.3379 89.4928C83.3379 96.4004 88.7862 102 95.5071 102Z" stroke="#85E25E" stroke-width="4" stroke-miterlimit="10"/>
<path d="M62.1024 76.8903C73.8976 76.8903 83.4596 67.2257 83.4596 55.3038C83.4596 43.382 73.8976 33.7174 62.1024 33.7174C50.3071 33.7174 40.7451 43.382 40.7451 55.3038C40.7451 67.2257 50.3071 76.8903 62.1024 76.8903Z" stroke="white" stroke-width="4" stroke-miterlimit="10"/>
<path d="M62.1024 76.8903C73.8976 76.8903 83.4596 67.2257 83.4596 55.3038C83.4596 43.382 73.8976 33.7174 62.1024 33.7174C50.3071 33.7174 40.7451 43.382 40.7451 55.3038C40.7451 67.2257 50.3071 76.8903 62.1024 76.8903Z" stroke="white" stroke-width="4" stroke-miterlimit="10"/>
<path d="M18.1692 83.4501C24.89 83.4501 30.3384 77.8504 30.3384 70.9429C30.3384 64.0353 24.89 58.4357 18.1692 58.4357C11.4483 58.4357 6 64.0353 6 70.9429C6 77.8504 11.4483 83.4501 18.1692 83.4501Z" stroke="#85E25E" stroke-width="4" stroke-miterlimit="10"/>
<path d="M82.5256 27.0144C89.2465 27.0144 94.6948 21.4148 94.6948 14.5072C94.6948 7.59967 89.2465 2 82.5256 2C75.8048 2 70.3564 7.59967 70.3564 14.5072C70.3564 21.4148 75.8048 27.0144 82.5256 27.0144Z" stroke="#85E25E" stroke-width="4" stroke-miterlimit="10"/>
</g>
<defs>
<filter id="filter0_d_1598_1754" x="0" y="0" width="113.676" height="112" filterUnits="userSpaceOnUse" color-interpolation-filters="sRGB">
<feFlood flood-opacity="0" result="BackgroundImageFix"/>
<feColorMatrix in="SourceAlpha" type="matrix" values="0 0 0 0 0 0 0 0 0 0 0 0 0 0 0 0 0 0 127 0" result="hardAlpha"/>
<feOffset dy="4"/>
<feGaussianBlur stdDeviation="2"/>
<feComposite in2="hardAlpha" operator="out"/>
<feColorMatrix type="matrix" values="0 0 0 0 0 0 0 0 0 0 0 0 0 0 0 0 0 0 0.25 0"/>
<feBlend mode="normal" in2="BackgroundImageFix" result="effect1_dropShadow_1598_1754"/>
<feBlend mode="normal" in="SourceGraphic" in2="effect1_dropShadow_1598_1754" result="shape"/>
</filter>
</defs>
</svg>
