<svg xmlns="http://www.w3.org/2000/svg" width="114" height="112" fill="none"><g stroke-miterlimit="10" stroke-width="4" filter="url(#a)"><path stroke="#85E25E" d="M95.507 102c6.721 0 12.169-5.6 12.169-12.507 0-6.908-5.448-12.507-12.169-12.507-6.72 0-12.17 5.6-12.17 12.507S88.788 102 95.508 102Z"/><path stroke="#fff" d="M62.102 76.89c11.796 0 21.358-9.664 21.358-21.586s-9.562-21.587-21.358-21.587c-11.795 0-21.357 9.665-21.357 21.587S50.307 76.89 62.102 76.89Z"/><path stroke="#fff" d="M62.102 76.89c11.796 0 21.358-9.664 21.358-21.586s-9.562-21.587-21.358-21.587c-11.795 0-21.357 9.665-21.357 21.587S50.307 76.89 62.102 76.89Z"/><path stroke="#85E25E" d="M18.17 83.45c6.72 0 12.168-5.6 12.168-12.507 0-6.908-5.448-12.507-12.169-12.507C11.45 58.436 6 64.036 6 70.943S11.448 83.45 18.17 83.45ZM82.526 27.014c6.72 0 12.169-5.6 12.169-12.507S89.247 2 82.525 2c-6.72 0-12.169 5.6-12.169 12.507 0 6.908 5.449 12.507 12.17 12.507Z"/></g><defs><filter id="a" width="113.676" height="112" x="0" y="0" color-interpolation-filters="sRGB" filterUnits="userSpaceOnUse"><feFlood flood-opacity="0" result="BackgroundImageFix"/><feColorMatrix in="SourceAlpha" result="hardAlpha" values="0 0 0 0 0 0 0 0 0 0 0 0 0 0 0 0 0 0 127 0"/><feOffset dy="4"/><feGaussianBlur stdDeviation="2"/><feComposite in2="hardAlpha" operator="out"/><feColorMatrix values="0 0 0 0 0 0 0 0 0 0 0 0 0 0 0 0 0 0 0.25 0"/><feBlend in2="BackgroundImageFix" result="effect1_dropShadow_1598_1754"/><feBlend in="SourceGraphic" in2="effect1_dropShadow_1598_1754" result="shape"/></filter></defs></svg>