<svg xmlns="http://www.w3.org/2000/svg" width="127" height="104" fill="none"><path fill="#FF01FB" d="m81.174 57.192-5.552-10.124-5.993 9.87zM50.342 39.645l22.62 13.732 1.037-1.71L51.38 37.935zM44.322 50.524l5.552 10.124 5.993-9.87zm7.175 5.525 22.775 13.826 1.038-1.71L52.535 54.34z"/><path stroke="#85E25E" stroke-miterlimit="10" stroke-width="4" d="M100.879 102c13.298 0 24.078-11.266 24.078-25.162 0-13.897-10.78-25.163-24.078-25.163S76.801 62.941 76.801 76.838 87.58 102 100.879 102Z"/><path stroke="#fff" stroke-miterlimit="10" stroke-width="4" d="M26.078 52.325c13.298 0 24.078-11.266 24.078-25.163S39.376 2 26.078 2 2 13.266 2 27.162C2 41.06 12.78 52.325 26.078 52.325Z"/></svg>