<svg width="127" height="104" viewBox="0 0 127 104" fill="none" xmlns="http://www.w3.org/2000/svg">
<path d="M81.1735 57.1923L75.6216 47.0676L69.6293 56.9381L81.1735 57.1923ZM50.3424 39.645L72.9613 53.3766L73.9992 51.667L51.3803 37.9354L50.3424 39.645Z" fill="#FF01FB"/>
<path d="M44.3223 50.5236L49.8742 60.6482L55.8665 50.7778L44.3223 50.5236ZM51.4966 56.0489L74.2718 69.8754L75.3097 68.1658L52.5345 54.3392L51.4966 56.0489Z" fill="#FF01FB"/>
<path d="M100.879 102C114.177 102 124.957 90.7344 124.957 76.8376C124.957 62.9408 114.177 51.6753 100.879 51.6753C87.5809 51.6753 76.8008 62.9408 76.8008 76.8376C76.8008 90.7344 87.5809 102 100.879 102Z" stroke="#85E25E" stroke-width="4" stroke-miterlimit="10"/>
<path d="M26.0781 52.3246C39.376 52.3246 50.1562 41.0591 50.1562 27.1623C50.1562 13.2656 39.376 2 26.0781 2C12.7801 2 2 13.2656 2 27.1623C2 41.0591 12.7801 52.3246 26.0781 52.3246Z" stroke="white" stroke-width="4" stroke-miterlimit="10"/>
</svg>
