<svg xmlns="http://www.w3.org/2000/svg" width="330" height="402" fill="none"><mask id="i" width="330" height="402" x="0" y="0" maskUnits="userSpaceOnUse" style="mask-type:alpha"><path fill="url(#a)" stroke="#29252B" stroke-linecap="round" stroke-linejoin="round" stroke-miterlimit="10" stroke-width=".5" d="M316.893 32.779v6.516h-.104l-.208 48.87-87.759 51.497-7.487 4.414-2.703 1.576-13.102-7.672-18.404-10.72-1.768-1.051-8.422-4.834 6.446-3.784 7.487-4.414L307.327 44.76v-6.516l3.743-2.207z"/><path fill="#0551BF" d="m160.61 156.792 15.805 9.249v4.519l-7.487 4.414-9.982 5.885-11.75 6.937-7.59 4.519-22.356 13.137v-48.975c4.679-2.733 9.358-5.36 14.037-8.093l7.487-4.414c.52.316 1.04.736 1.56 1.051v9.669c4.263 2.417 8.526 4.94 12.789 7.357v-.841zM218.631 145.757l-7.383 4.309-5.718-3.363-20.173-11.666h-.104v-.105l-15.805-9.248 7.383-4.309 8.422 4.939 1.768 1.051 18.509 10.72z"/><path fill="url(#b)" stroke="#29252B" stroke-linecap="round" stroke-linejoin="round" stroke-miterlimit="10" stroke-width=".5" d="M56.005 185.904v6.516l-.208 48.975C19.3 220.06 1.103 192.104 1.207 164.254l.208-46.137v-2.628.526-4.835c0 1.366.104 2.628.312 3.994v.63c.208 1.156.312 2.418.52 3.679 0 .315.104.525.208.841.208 1.051.312 1.996.624 3.047 0 .421.208.841.312 1.262.312 1.156.624 2.312.936 3.573 0 .105.104.21.104.315.416 1.366.832 2.627 1.352 3.889a82 82 0 0 0 3.327 7.672c.416.84.832 1.681 1.352 2.522.416.841.936 1.682 1.455 2.522 1.04 1.682 2.08 3.258 3.224 4.94 1.144 1.681 2.391 3.258 3.64 4.834.623.841 1.247 1.577 1.975 2.417 1.975 2.418 4.159 4.73 6.55 7.042.832.736 1.56 1.576 2.392 2.312 1.56 1.471 3.12 2.838 4.783 4.309 2.808 2.312 5.72 4.624 8.839 6.831 1.04.736 1.975 1.472 3.015 2.102 3.015 1.892 6.343 3.994 9.67 5.991"/><path fill="#055AD5" d="m124.529 135.773 13.933 8.198-7.487 4.309-13.725 8.197h-.104l-.104-.105v-16.185zM190.764 113.177l-7.486 4.414-6.447 3.784-7.383 4.309v-16.185l7.487-4.414zM65.156 180.544v6.516l-9.15 5.36v-6.516z"/><path fill="#055AD5" d="m117.146 156.477-.104.106v-.211z"/><path fill="url(#c)" stroke="#29252B" stroke-linecap="round" stroke-linejoin="round" stroke-miterlimit="10" stroke-width=".5" d="M117.041 156.582v48.87l-61.244 35.943.208-48.975v-6.516l9.15-5.36v6.516l10.086-5.991z"/><path fill="#055AD5" d="M196.379 177.601c5.407 3.153 10.71 6.306 16.117 9.459 0 5.465-.104 10.825-.104 16.29l-7.382 4.309h-.104L189.1 198.41l-20.172-11.665-.104-.106-9.982-5.78-25.891-15.239h-.104l-15.597-9.143 13.725-8.198 7.487-4.309 1.872 1.051v9.669l12.789 7.357v-.841l7.487-4.414 15.805 9.249v4.519l-.104 5.044 12.893 7.567v-.946c2.392-1.576 4.784-3.152 7.175-4.624M257.416 176.971h-.104l-15.805-9.249-20.069-11.665h-.207v-.106l-9.983-5.885-5.718-3.363-20.173-11.666h-.104v-.105l-15.805-9.248 7.383-4.309 8.422 4.939 1.768 1.051 18.509 10.72 13.101 7.672 2.6 1.577 1.871 1.051 18.405 10.719 15.909 9.249 7.278 4.309z"/><path fill="#C50000" d="M185.356 135.036h-.104v-.104zM221.439 156.055h-.209v-.104zM132.951 165.62l-.104.104v-.104zM169.033 186.64l-.208.105v-.211z"/><path fill="#0447A8" d="m300.88 349.959-.208.211c.104-.105.208-.105.208-.211"/><path fill="#055AD5" d="M19.613 316.96c-.104 0-.208-.106-.312-.211.104.105.208.211.312.211M264.799 172.557v.105h-.104l-7.279 4.309 7.279-4.309zM101.343 342.392c-.312 0-.624-.105-1.04-.105.416 0 .728 0 1.04.105M309.51 285.64c-.312.315-.52.631-.936 1.051.208-.21.312-.315.416-.525.208-.105.312-.316.52-.526M310.34 284.694c-.104.21-.208.316-.416.526l-.104.105v-.105zM321.365 268.194c-.416.841-.832 1.577-1.248 2.417.416-.735.728-1.471 1.144-2.207 0 0 0-.105.104-.21M325.523 258.105c-.312.841-.52 1.576-.832 2.417-.104.21-.104.315-.208.42 0 .211-.104.316-.208.421l.312-.946c.416-.736.624-1.577.936-2.312"/><path fill="#858585" d="M264.903 166.041v6.516zc-.104 0 0 0 0 0"/><path fill="url(#d)" stroke="#29252B" stroke-linecap="round" stroke-linejoin="round" stroke-miterlimit="10" stroke-width=".5" d="M315.853 237.506v2.207c0 .42 0 .736-.104 1.156-1.144-22.49-15.077-44.876-41.8-63.058-3.119-1.681-6.031-3.573-9.15-5.36v-6.41c1.871 1.051 3.639 2.207 5.511 3.258 0 .105.104.105.104.105 1.144.63 2.287 1.366 3.535 1.996.832.631 1.768 1.157 2.6 1.787l2.183 1.577c.936.63 1.872 1.366 2.704 1.996 2.391 1.892 4.575 3.679 6.758 5.676 1.456 1.261 2.808 2.627 4.056 3.888 1.351 1.366 2.495 2.628 3.743 3.994.624.63 1.144 1.366 1.768 1.997.519.63 1.143 1.261 1.559 1.891 2.288 2.733 4.16 5.57 5.927 8.408.936 1.366 1.664 2.838 2.496 4.204s1.456 2.838 2.183 4.204l.936 2.207c.312.736.624 1.471.832 2.207.52 1.471 1.04 2.837 1.456 4.309l.624 2.207c.208.735.416 1.471.52 2.207.207.736.311 1.471.415 2.207l.312 1.892c.104.21.104.42.104.63l.312 2.838c.104 1.156.208 2.312.208 3.468.208.736.208 1.471.208 2.312"/><path fill="url(#e)" stroke="#29252B" stroke-linecap="round" stroke-linejoin="round" stroke-miterlimit="10" stroke-width=".5" d="M328.954 237.716v7.252l-.208 48.134v1.682c0 1.156-.104 2.312-.208 3.573-.104 1.156-.208 2.312-.416 3.573-.208 1.156-.312 2.417-.624 3.574v.105c-.312 1.471-.624 3.047-1.04 4.519-.104.525-.312 1.051-.416 1.471a76 76 0 0 1-1.455 4.519c-.208.526-.416 1.156-.624 1.682-.52 1.156-1.04 2.417-1.56 3.573-.832 1.787-1.664 3.573-2.703 5.255-2.08 3.783-4.576 7.462-7.487 11.14-1.04 1.261-1.976 2.522-3.119 3.784a153 153 0 0 1-8.111 8.512l-.208.211c-.728.63-1.456 1.366-2.183 1.996-.832.736-1.664 1.472-2.6 2.207a136 136 0 0 1-6.031 4.835c-1.975 1.471-3.951 2.837-6.031 4.309-2.079 1.366-4.263 2.837-6.55 4.204-.728.525-1.456.946-2.288 1.366-2.496 1.471-5.095 2.838-7.695 4.204-1.143.63-2.391 1.261-3.535 1.892-.728.315-1.352.735-2.08 1.051-1.351.63-2.703 1.366-4.159 1.891-1.559.736-3.119 1.366-4.679 2.102-2.287.946-4.471 1.892-6.759 2.838-2.287.841-4.679 1.681-6.966 2.522-.936.315-1.976.631-2.912 1.051-.52.21-1.04.315-1.663.526-2.808.945-5.615 1.786-8.527 2.627h-.104c-1.664.525-3.327.946-4.991 1.366-.312.105-.728.21-1.04.315l-3.743.946c-.312.105-.52.21-.832.21-2.287.526-4.471 1.051-6.759 1.577-3.015.631-5.926 1.261-8.942 1.787-1.456.315-3.015.525-4.575.735-1.04.21-1.976.316-2.911.526-2.184.315-4.472.63-6.655.946-.832.105-1.56.21-2.392.315-.728.105-1.56.21-2.287.315-1.56.21-3.12.315-4.679.526-2.6.21-5.095.525-7.695.63-2.495.21-5.095.316-7.591.526-1.663.105-3.431.21-5.095.21-6.342.21-12.581.21-18.924.105-2.288-.105-4.679-.21-6.967-.315-1.456-.105-2.911-.21-4.367-.21-2.288-.106-4.575-.316-6.863-.526-3.015-.21-6.031-.525-9.046-.841s-5.927-.63-8.942-1.156c-6.24-.946-12.27-1.997-18.405-3.258-1.663-.315-3.223-.63-4.887-1.051-1.976-.42-3.951-.946-5.927-1.366-2.6-.631-5.199-1.366-7.798-2.102-.312-.105-.52-.21-.728-.21-.312-.105-.624-.21-.936-.21a52 52 0 0 1-2.08-.631 157 157 0 0 1-10.606-3.468c-1.663-.631-3.43-1.156-5.095-1.892-.832-.315-1.767-.63-2.6-1.051-.415-.21-.831-.315-1.247-.525 0 0-.104 0-.208-.105-.208-.105-.52-.211-.624-.316l-.936-.315c-.623-.21-1.247-.525-1.871-.736-.624-.315-1.352-.525-1.976-.84-1.456-.631-3.015-1.261-4.471-1.997-1.144-.526-2.184-1.051-3.223-1.471-.728-.421-1.56-.736-2.288-1.157-1.56-.735-3.12-1.576-4.68-2.417a124 124 0 0 1-6.342-3.573l.208-48.975v-6.516c1.352.841 2.704 1.471 3.951 2.207.52.315 1.144.631 1.664.946.104 0 .208.105.312.21.104 0 .208.105.312.21l.624.316a405 405 0 0 0 6.759 3.468c1.975.946 4.159 1.892 6.238 2.837a49 49 0 0 0 5.407 2.207c.416.211.936.421 1.352.526.208.105.52.21.728.315 1.352.526 2.703 1.156 4.16 1.577a197 197 0 0 0 11.853 4.098c1.04.316 2.184.631 3.223 1.051.832.316 1.664.526 2.496.736 1.04.315 2.08.631 3.223.841.208.105.312.105.52.21.312.105.624.21 1.04.315l6.239 1.577c.208 0 .416.105.624.21l2.807.631c1.664.42 3.224.735 4.887 1.05h.208c.104 0 .312 0 .416.106h.208c2.807.63 5.511 1.156 8.319 1.576 3.015.526 6.134 1.051 9.254 1.471.312 0 .624.105 1.039.105 1.144.211 2.288.316 3.328.421 1.456.21 3.015.315 4.471.525h.104l9.046.946c.728 0 1.456.105 2.184.21 2.287.211 4.679.316 6.967.421 3.015.21 6.03.315 9.15.315 1.248 0 2.495.105 3.743 0 3.224.105 6.447.105 9.774 0 1.768 0 3.536 0 5.199-.105h.312c1.976-.105 3.848-.21 5.823-.21 1.04-.105 2.184-.105 3.224-.21.727 0 1.455-.106 2.183-.211 1.456-.105 2.808-.21 4.263-.315 1.664-.105 3.432-.315 5.095-.525l5.615-.631 2.184-.315c3.327-.421 6.655-.841 9.878-1.472 1.976-.315 3.951-.63 5.823-1.051 2.6-.42 5.095-.945 7.591-1.471l3.119-.63c2.392-.526 4.679-1.051 6.967-1.682.104 0 .208 0 .312-.105 1.663-.42 3.327-.841 4.991-1.366.208 0 .312-.105.52-.211l1.247-.315c.624-.21 1.352-.315 1.976-.525s1.352-.316 1.976-.631h.208c1.559-.42 3.119-.841 4.679-1.471.52-.105 1.04-.316 1.559-.526a185 185 0 0 0 10.71-3.783 77 77 0 0 0 5.199-2.102c1.768-.631 3.536-1.471 5.096-2.207 2.287-1.051 4.471-1.997 6.654-3.048 1.56-.736 3.12-1.576 4.679-2.312.936-.526 1.872-.946 2.808-1.471.208-.106.52-.211.728-.421l.624-.315c1.351-.631 2.599-1.471 3.951-2.207.728-.421 1.456-.841 2.287-1.366a9 9 0 0 1 1.04-.631 162 162 0 0 0 5.511-3.573c.312-.21.52-.316.832-.526.728-.525 1.456-.946 2.08-1.471l2.183-1.576c.52-.316.936-.631 1.352-1.051.52-.316.936-.631 1.352-1.051.52-.316.936-.631 1.352-1.051.104 0 .207-.105.311-.211.728-.63 1.456-1.156 2.184-1.786.416-.316.832-.736 1.352-1.156.624-.526 1.143-.946 1.767-1.472.728-.63 1.456-1.366 2.184-1.996.936-.841 1.768-1.682 2.6-2.523l.312-.315c.104 0 .103-.105.207-.21 1.04-1.051 1.976-2.102 3.016-3.153l.52-.526c.208-.21.52-.525.728-.84l.104-.105.208-.211.104-.105c.416-.315.623-.63.935-1.051l.312-.315v-.105l.104-.105c.208-.21.312-.316.416-.526.208-.105.208-.315.312-.42.104-.21.312-.315.312-.526.312-.315.52-.63.832-1.051.208-.105.208-.315.312-.42a65 65 0 0 0 1.144-1.471l.935-1.261c.416-.526.728-.946 1.04-1.472.104-.21.208-.315.312-.42l.624-.946c.624-.946 1.248-1.892 1.768-2.733 0 0 0-.105.104-.105.208-.21.312-.525.416-.735.416-.631.831-1.367 1.143-1.997.104-.21.208-.315.312-.526.416-.84.832-1.576 1.248-2.417v-.105c.416-.736.728-1.471 1.144-2.312a21.5 21.5 0 0 0 1.144-2.733c.104-.21.208-.42.208-.63.104-.315.208-.526.312-.841 0-.105.104-.105.104-.21.104-.21.207-.315.207-.42 0-.106.105-.316.209-.421.312-.841.519-1.576.831-2.417.52-1.682 1.04-3.258 1.456-4.94 0-.21.104-.315.104-.42l.624-2.838c.208-.735.312-1.471.416-2.207 0-.21 0-.315.104-.525.208-1.156.312-2.207.416-3.363v-1.997c0-.42 0-.841.104-1.261v-.21c-.52-.631-.416-1.472-.416-2.418"/><path fill="#9E9E9E" d="M325.523 258.105c-.312.841-.52 1.576-.832 2.417v-.105c.312-.736.52-1.577.832-2.312"/><path fill="#A3A3A3" d="M321.365 268.194c-.416.841-.832 1.577-1.248 2.417.416-.735.728-1.471 1.144-2.207 0 0 0-.105.104-.21M324.691 260.417c-.104.21-.104.42-.208.525 0 .211-.104.316-.208.421.208-.316.312-.631.416-.946"/><path fill="#ADADAD" d="M309.51 285.64c-.312.315-.52.631-.936 1.051.208-.21.312-.315.416-.525.208-.105.416-.316.52-.526M310.032 285.22l-.104.103c0-.103 0-.103.104-.103-.104 0 0 0 0 0"/><path fill="#999" d="M101.343 342.392c-.312 0-.624-.105-1.04-.105.416 0 .728 0 1.04.105"/><path fill="#DCDCDC" d="M101.343 342.392c-.312 0-.624-.105-1.04-.105.416 0 .728 0 1.04.105M309.51 285.64c-.312.315-.52.631-.936 1.051.208-.21.312-.315.416-.525.208-.105.312-.316.52-.526M310.34 284.694c-.104.21-.208.316-.416.526l-.104.105v-.105zM325.523 258.105c-.312.841-.52 1.576-.832 2.417-.104.21-.104.315-.208.42 0 .211-.104.316-.208.421l.312-.946c.416-.736.624-1.577.936-2.312"/><path fill="url(#f)" stroke="#29252B" stroke-linecap="round" stroke-linejoin="round" stroke-miterlimit="10" stroke-width=".5" d="M328.955 237.506v.21c0 .946 0 1.787-.104 2.733v.21c0 .421 0 .841-.104 1.261v1.997c-.104 1.156-.312 2.312-.416 3.363 0 .21-.104.316-.104.526-.104.735-.208 1.471-.416 2.207l-.624 2.837c0 .211-.104.316-.104.421-.416 1.681-.832 3.258-1.456 4.939-.312.736-.519 1.577-.831 2.312l-.312.946c0 .105 0 .105-.104.21-.104.316-.208.526-.312.841-.104.21-.208.421-.208.631-.416.946-.832 1.786-1.144 2.732-.312.736-.728 1.472-1.144 2.312v.105c0 .106-.104.211-.208.211-.312.735-.728 1.471-1.144 2.207-.104.21-.208.315-.312.525a20 20 0 0 1-1.143 1.997c-.104.315-.312.525-.416.736 0 0 0 .105-.104.105a24 24 0 0 1-1.768 2.732l-.624.946c-.104.21-.208.315-.312.421-.312.525-.624.945-1.04 1.471l-.935 1.261a8 8 0 0 1-1.144 1.471c-.104.105-.208.316-.312.421-.312.315-.52.63-.832 1.051-.104.21-.208.315-.312.525-.104.105-.208.316-.312.421l-.52.525v.21l-.312.316h-.104c-.207.21-.312.315-.416.525s-.311.315-.415.526l-.104.105c0 .105-.104.21-.208.21l-.104.105c-.208.315-.52.525-.728.841-.104.21-.312.315-.52.525-.936 1.051-1.976 2.102-3.016 3.153 0 .105-.103.105-.207.21l-.312.316c-.832.84-1.664 1.681-2.6 2.522-.728.63-1.456 1.366-2.184 1.997a12 12 0 0 1-1.767 1.471c-.416.42-.832.736-1.352 1.156-.624.631-1.352 1.156-2.184 1.787-.104.105-.208.21-.311.21-.416.315-.832.736-1.352 1.051-.416.42-.936.736-1.352 1.051s-.936.736-1.352 1.051l-2.183 1.576a15 15 0 0 1-2.08 1.472c-.312.21-.52.42-.832.525a561 561 0 0 1-5.511 3.573 9 9 0 0 1-1.04.631c-.727.525-1.455.946-2.287 1.366-1.352.736-2.6 1.472-3.951 2.207l-.624.316c-.208.21-.52.315-.728.42-.936.525-1.872 1.051-2.808 1.471-1.559.841-3.119 1.577-4.679 2.312-2.183 1.051-4.367 2.102-6.654 3.048-1.664.736-3.432 1.472-5.096 2.207-1.663.736-3.431 1.366-5.199 2.102a185 185 0 0 1-10.71 3.784c-.519.21-1.039.315-1.559.525-1.56.526-3.016.946-4.679 1.471h-.208c-.624.211-1.352.421-1.976.631s-1.248.315-1.976.525l-1.247.316c-.208 0-.312.105-.52.21-1.664.42-3.328.841-4.991 1.366-.104 0-.208 0-.312.105-2.288.526-4.679 1.156-6.967 1.682-1.04.21-2.08.525-3.119.63-2.496.526-5.095 1.051-7.591 1.472-1.976.315-3.847.63-5.823 1.051-3.223.525-6.551 1.051-9.878 1.471l-2.184.315-5.615.631c-1.663.21-3.431.315-5.095.525-1.455.106-2.807.211-4.263.316-.728.105-1.456.105-2.183.21-1.04.105-2.184.105-3.224.21-1.871.105-3.847.21-5.823.21h-.312c-1.767.105-3.535.105-5.199.105-3.223 0-6.446.105-9.774 0h-3.743c-3.016-.105-6.135-.21-9.15-.315-2.288-.105-4.68-.315-6.967-.42-.728 0-1.456-.105-2.184-.21-3.015-.316-6.03-.526-9.046-.946h-.104c-1.456-.211-3.015-.316-4.471-.526-1.144-.105-2.288-.315-3.328-.42-.311-.105-.623-.105-1.039-.21-3.12-.421-6.135-.946-9.255-1.472-2.807-.525-5.614-1.051-8.318-1.576h-.208c-.104 0-.312 0-.416-.105h-.208c-1.663-.316-3.223-.631-4.887-1.051l-2.807-.631c-.208-.105-.416-.105-.624-.21l-6.24-1.576a13 13 0 0 0-1.039-.316c-.208 0-.312-.105-.52-.21-1.144-.315-2.183-.525-3.223-.841-.832-.21-1.664-.525-2.496-.735-1.144-.316-2.183-.631-3.223-1.051-3.951-1.262-8.007-2.628-11.854-4.099-1.352-.526-2.807-1.051-4.16-1.577-.207-.105-.519-.21-.727-.315-.416-.21-.936-.315-1.352-.525-1.871-.736-3.639-1.472-5.407-2.207l-6.239-2.838c-2.287-1.156-4.575-2.207-6.758-3.468l-.624-.315c-.104 0-.208-.106-.312-.211-.104 0-.208-.105-.312-.21-.624-.315-1.144-.63-1.768-.946-1.351-.735-2.703-1.471-3.951-2.207l9.15-5.36c1.872 1.051 3.848 2.207 5.72 3.153 1.247.631 2.495 1.367 3.846 1.997a94 94 0 0 0 3.224 1.577c3.64 1.786 7.486 3.363 11.334 4.939 1.04.42 1.975.841 3.015 1.156 3.12 1.156 6.239 2.312 9.462 3.363 1.144.316 2.288.736 3.328 1.051 1.248.421 2.495.841 3.743 1.156a48 48 0 0 1 3.64 1.051c1.247.315 2.495.631 3.639.946a89 89 0 0 0 7.59 1.892c2.392.525 4.783 1.051 7.279 1.576l3.847.736c2.392.42 4.783.841 7.279 1.261 1.352.21 2.807.42 4.159.631 2.496.315 5.095.63 7.695 1.051 1.351.21 2.599.315 3.951.42 1.352.21 2.599.21 3.951.315s2.6.21 3.847.316c1.352.105 2.6.21 3.952.315 1.247.105 2.599.105 3.951.21 1.248 0 2.495.105 3.639.21 1.456 0 2.808 0 4.264.105 1.351 0 2.703 0 3.951.105h7.694c1.456 0 3.016-.105 4.471-.105 1.04 0 2.184-.105 3.328-.105 2.183-.105 4.471-.21 6.759-.42 1.351-.105 2.703-.21 3.951-.315l4.055-.316 1.04-.105c2.287-.21 4.783-.525 7.071-.841 1.351-.21 2.703-.42 4.055-.525 29.634-4.204 57.709-13.032 80.793-26.589 31.714-18.602 48.351-42.88 49.806-67.262 0-.42 0-.736.104-1.156v-4.624c0-1.156-.104-2.312-.208-3.469l-.312-2.837c0-.21 0-.526-.104-.631l-.312-1.891c-.104-.736-.311-1.472-.415-2.207-.208-.736-.312-1.472-.52-2.208-.208-.735-.312-1.471-.624-2.207-.416-1.471-.936-2.837-1.456-4.308-.312-.736-.52-1.472-.832-2.207l-.936-2.208c-.623-1.366-1.351-2.837-2.183-4.203-.728-1.472-1.56-2.838-2.496-4.204a88 88 0 0 0-5.927-8.408l-1.559-1.892c-.52-.63-1.144-1.366-1.768-1.996-1.144-1.367-2.496-2.628-3.743-3.994-1.352-1.366-2.704-2.628-4.056-3.889-2.183-1.891-4.367-3.783-6.758-5.675-.832-.63-1.768-1.366-2.704-1.997l-2.183-1.576c-.832-.631-1.664-1.156-2.6-1.787a132 132 0 0 1-3.535-1.997s-.104 0-.104-.105c-1.872-1.051-3.64-2.207-5.511-3.258v-.105l9.462-5.57c36.185 20.809 54.382 48.765 54.382 76.615"/><path fill="#DCDCDC" d="M264.905 165.936c0 .108-.109.108 0 0"/><path fill="url(#g)" stroke="#29252B" stroke-linecap="round" stroke-linejoin="round" stroke-miterlimit="10" stroke-width=".5" d="m316.893 32.779-5.823 3.363-3.743 2.207c-3.12-1.787-6.343-3.574-9.671-5.15-2.495-1.261-5.095-2.522-7.798-3.678-2.184-1.051-4.263-1.892-6.551-2.838-.52-.21-1.04-.42-1.456-.63-.52-.21-1.039-.421-1.455-.631-1.04-.316-1.976-.736-3.016-1.156-3.535-1.366-7.175-2.523-10.814-3.679l-4.055-1.26-1.248-.316a208 208 0 0 0-10.918-2.838c-1.871-.525-3.847-.946-5.823-1.366l-1.248-.315c-1.247-.21-2.495-.526-3.743-.736-1.04-.21-2.183-.42-3.223-.63-1.248-.21-2.496-.526-3.743-.631a27 27 0 0 0-4.056-.63c-.728-.106-1.351-.21-2.079-.316-.208 0-.52-.105-.728-.105-.52-.105-1.04-.21-1.56-.21-2.079-.316-4.263-.526-6.343-.841-1.871-.21-3.639-.42-5.511-.525-.831-.106-1.663-.21-2.495-.21-.624 0-1.248-.106-1.872-.106-2.495-.21-4.991-.315-7.486-.525s-4.991-.21-7.487-.316h-.312q-6.082-.158-12.166 0c-1.663 0-3.223 0-4.783.106h-.312l-7.174.315c-1.768 0-3.536.21-5.303.315-2.184.105-4.368.315-6.551.526h-.52c-1.456.21-2.911.315-4.263.525-2.496.315-5.095.63-7.487 1.051-2.079.315-4.055.63-6.135.946-1.247.21-2.391.42-3.639.63-.312 0-.624.106-1.04.21-2.287.421-4.471.841-6.758 1.367-.52.105-1.04.21-1.664.315-1.872.42-3.64.841-5.511 1.261-1.352.316-2.704.631-4.159 1.051-1.144.316-2.184.63-3.328.946-1.663.42-3.223.946-4.783 1.367-1.04.315-1.975.525-2.911.945l-2.184.63c-.624.211-1.144.421-1.768.632-1.04.315-2.183.735-3.119 1.05-2.288.841-4.471 1.577-6.655 2.523-2.08.84-4.159 1.681-6.135 2.522 0 0-.104 0-.104.105-2.183.946-4.263 1.892-6.446 2.838-.104.105-.312.105-.416.21a162 162 0 0 0-6.031 3.048c-.312.21-.728.315-1.04.525-1.976 1.051-3.951 2.207-5.927 3.258-.832.526-1.664.946-2.495 1.472-.624.315-1.144.735-1.768 1.156-1.456.946-2.807 1.891-4.16 2.732-1.247.84-2.495 1.787-3.639 2.628-2.495 1.891-4.887 3.678-7.174 5.57-1.144.946-2.184 1.891-3.328 2.837-.52.42-.935.841-1.351 1.261-.624.631-1.352 1.262-1.976 1.892s-1.248 1.156-1.872 1.892c-1.247 1.261-2.391 2.522-3.431 3.888-1.04 1.156-1.872 2.207-2.807 3.364-.208.21-.312.42-.52.63-.624.736-1.144 1.472-1.664 2.207-.728.946-1.352 1.892-1.976 2.838-.727 1.156-1.455 2.207-2.183 3.363-.416.63-.728 1.261-1.04 1.891-.104.21-.208.316-.312.526-.52.946-1.04 1.892-1.456 2.838a87 87 0 0 0-2.08 4.519c0 .105 0 .105-.103.21l-.312.946c-.208.42-.312.84-.52 1.156-.52 1.366-1.04 2.838-1.352 4.204l-.104.63c-.312.841-.52 1.577-.624 2.312-.104.526-.208.946-.312 1.472-.104.315-.104.525-.208.84 0 .21-.104.316-.104.42l-.623 3.469c-.104.631-.209 1.366-.209 1.997-.103.841-.207 1.787-.207 2.627v8.408c0-.631 0-1.261.104-1.997v.316c0 .84.103 1.681.207 2.522.104.736.208 1.366.312 2.102.104.841.208 1.576.312 2.312s.312 1.471.52 2.312.312 1.471.52 2.312c.208.736.416 1.577.624 2.312.208.841.416 1.577.624 2.312a81 81 0 0 0 1.768 4.519c.312.841.624 1.682 1.04 2.523.727 1.471 1.455 2.837 2.183 4.204l1.248 2.207c.831 1.471 1.767 2.837 2.703 4.309s2.08 2.942 3.224 4.414c.52.735 1.143 1.471 1.663 2.207.624.63 1.144 1.366 1.872 2.102l1.872 2.207c.624.63 1.247 1.366 1.871 1.996 1.872 1.892 3.848 3.679 5.823 5.571.624.63 1.352 1.156 1.976 1.681a298 298 0 0 0 8.422 6.621c.936.631 1.872 1.261 2.704 1.892a182 182 0 0 0 8.838 5.57l-9.15 5.36c-3.431-1.997-6.655-3.994-9.774-6.201a31 31 0 0 1-3.016-2.102c-3.12-2.207-6.03-4.519-8.838-6.831-1.664-1.366-3.328-2.838-4.783-4.309-.832-.736-1.664-1.471-2.392-2.312-2.287-2.312-4.47-4.729-6.55-7.041-.624-.841-1.352-1.577-1.976-2.418a147 147 0 0 1-3.64-4.834 133 133 0 0 1-3.223-4.94c-.52-.84-1.04-1.681-1.456-2.522-.52-.841-.935-1.681-1.351-2.522-1.352-2.523-2.392-5.045-3.328-7.672-.52-1.261-.936-2.523-1.352-3.889 0-.105-.103-.21-.103-.315-.312-1.156-.624-2.312-.936-3.573l-.312-1.262c-.312-1.051-.52-1.996-.624-3.047-.104-.316-.104-.526-.208-.841-.208-1.261-.312-2.522-.52-3.678v-.631c-.208-1.366-.208-2.627-.312-3.994v-2.207c0-27.64 17.885-55.175 53.758-76.195 72.37-42.248 189.556-42.248 262.135.105"/><path fill="url(#h)" stroke="#29252B" stroke-linecap="round" stroke-linejoin="round" stroke-miterlimit="10" stroke-width=".5" d="M297.761 33.094c-2.496-1.261-5.095-2.522-7.799-3.678-2.183-1.051-4.263-1.892-6.55-2.838-.52-.21-1.04-.42-1.456-.63-.52-.21-1.04-.42-1.456-.631-1.04-.315-1.976-.736-3.015-1.156-3.536-1.366-7.175-2.523-10.814-3.678l-4.056-1.262-1.247-.315a209 209 0 0 0-10.918-2.838c-1.872-.525-3.848-.945-5.823-1.366l-1.248-.315c-1.248-.21-2.496-.526-3.743-.736-1.04-.21-2.184-.42-3.224-.63-1.247-.21-2.495-.526-3.743-.63-1.352-.211-2.703-.526-4.055-.632-.728-.105-1.352-.21-2.08-.315-.208 0-.52-.105-.728-.105-.52-.105-1.039-.21-1.559-.21-2.08-.315-4.263-.526-6.343-.84-1.872-.211-3.639-.421-5.511-.526-.832-.105-1.664-.21-2.496-.21-.624 0-1.247-.106-1.871-.106-2.496-.21-4.991-.315-7.487-.525-2.495-.21-4.991-.21-7.486-.315h-.416a235 235 0 0 0-12.166 0c-1.664 0-3.224 0-4.783.105h-.312l-7.175.315c-1.767 0-3.535.21-5.303.315-2.183.105-4.367.316-6.551.526h-.52c-1.455.21-2.911.315-4.263.525-2.495.316-5.095.63-7.486 1.051-2.08.315-4.055.63-6.135.946-1.248.21-2.392.42-3.639.63-.312 0-.624.106-1.04.21-2.288.421-4.471.842-6.759 1.367-.52.105-1.04.21-1.664.315-1.871.42-3.639.841-5.511 1.261-1.351.316-2.703.631-4.159 1.052-1.144.315-2.183.63-3.327.945-1.664.42-3.224.946-4.783 1.367-1.04.315-1.976.525-2.912.946l-2.183.63c-.624.21-1.144.42-1.768.63-1.04.316-2.184.736-3.12 1.052-2.287.84-4.47 1.576-6.654 2.522-2.08.84-4.16 1.681-6.135 2.522 0 0-.104 0-.104.105-2.184.946-4.263 1.892-6.447 2.838-.104.105-.312.105-.416.21a162 162 0 0 0-6.03 3.048c-.312.21-.728.315-1.04.525-1.976 1.051-3.952 2.207-5.927 3.258-.832.526-1.664.946-2.496 1.472-.624.315-1.144.735-1.767 1.156-1.456.946-2.808 1.892-4.16 2.732-1.248.841-2.495 1.787-3.639 2.628-2.496 1.891-4.887 3.678-7.175 5.57-1.144.946-2.183 1.892-3.327 2.837-.52.42-.936.841-1.352 1.261-.624.631-1.352 1.262-1.975 1.892-.624.63-1.248 1.156-1.872 1.892-1.248 1.261-2.392 2.522-3.431 3.889-1.04 1.156-1.872 2.207-2.808 3.363-.208.21-.312.42-.52.63-.624.736-1.143 1.472-1.663 2.207-.728.946-1.352 1.892-1.976 2.838-.728 1.156-1.456 2.207-2.184 3.363-.416.63-.727 1.261-1.04 1.892-.103.21-.207.315-.312.525-.52.946-1.04 1.892-1.455 2.838a87 87 0 0 0-2.08 4.519c0 .105 0 .105-.104.21l-.312.946c-.208.42-.312.84-.52 1.156-.52 1.366-1.04 2.838-1.351 4.204l-.104.63c-.312.841-.52 1.577-.624 2.313-.104.525-.208.945-.312 1.47-.104.316-.104.526-.208.842 0 .21-.104.315-.104.42l-.624 3.468c-.104.631-.208 1.367-.208 1.997-.104.841-.208 1.787-.208 2.627v8.408c0-.63 0-1.261.104-1.997v-.315c.104-.841.104-1.576.208-2.312.104-.631.104-1.261.208-1.997.208-1.156.416-2.312.624-3.573v-.421c0-.315.104-.525.208-.84.104-.526.208-1.051.312-1.472.208-.84.416-1.576.624-2.312l.208-.63c.312-1.367.831-2.733 1.351-4.204.208-.42.312-.841.52-1.156.104-.316.208-.63.312-1.051v-.105c.312-.63.52-1.367.832-1.997s.624-1.366.936-1.997c.624-1.366 1.352-2.627 1.976-3.888 1.455-2.628 3.119-5.15 4.99-7.778.624-.84 1.248-1.681 1.976-2.522.832-1.05 1.56-1.997 2.392-2.943.624-.735 1.352-1.471 1.975-2.312.728-.84 1.56-1.681 2.392-2.522.52-.63 1.144-1.156 1.664-1.682.727-.735 1.455-1.471 2.183-2.102.728-.735 1.56-1.47 2.288-2.102 1.56-1.366 3.223-2.837 4.99-4.203.833-.736 1.769-1.367 2.704-1.997a115 115 0 0 1 9.775-6.726c1.351-.841 2.703-1.682 4.159-2.523 1.975-1.156 3.847-2.207 5.927-3.258.312-.21.728-.42 1.04-.525 1.975-1.051 3.95-2.102 6.03-3.048.104-.105.312-.105.416-.21 2.08-1.051 4.263-1.997 6.447-2.943 2.183-.946 4.367-1.786 6.55-2.732 2.08-.841 4.16-1.577 6.344-2.312 1.04-.316 2.08-.736 3.119-1.051.624-.21 1.144-.42 1.768-.631.832-.315 1.663-.526 2.495-.736.728-.315 1.456-.525 2.184-.735 1.871-.526 3.743-1.156 5.615-1.682.935-.21 1.871-.525 2.703-.735 1.456-.42 2.912-.736 4.367-1.157 1.872-.42 3.64-.84 5.511-1.26.52-.106 1.04-.211 1.664-.316 2.184-.525 4.471-.946 6.759-1.366.312-.105.624-.105 1.04-.21 1.143-.21 2.183-.42 3.327-.631 2.287-.42 4.679-.84 7.071-1.156 2.287-.315 4.471-.63 6.758-.84 1.456-.211 2.808-.316 4.264-.526h.519c2.08-.21 4.264-.42 6.343-.526 1.872-.21 3.848-.315 5.615-.42 2.288-.21 4.679-.21 6.967-.316h.312c1.56-.105 3.223-.105 4.783-.105q6.238-.158 12.478 0c2.495 0 4.991.21 7.59.316 2.496.105 4.991.315 7.487.525l4.367.315c1.872.21 3.639.316 5.511.526 2.079.21 4.263.525 6.343.84 1.975.21 3.951.526 5.927.841 1.975.316 3.847.631 5.822 1.051 1.04.21 2.184.316 3.12.631 1.456.21 2.807.526 4.159.84 1.04.211 1.976.421 2.912.631 1.247.21 2.495.526 3.743.841 2.287.526 4.679 1.156 6.967 1.787 1.351.315 2.703.735 4.055 1.156.104 0 .208 0 .208.105.104 0 .208 0 .208.105 1.663.526 3.327 1.051 4.991 1.471 3.639 1.156 7.278 2.313 10.918 3.679 1.039.315 1.975.735 3.015 1.156s1.976.84 3.016 1.26a88 88 0 0 1 6.55 2.839c2.704 1.156 5.199 2.417 7.799 3.678a206 206 0 0 1 9.566 5.15v-6.516c-2.807-1.682-6.031-3.363-9.254-5.045"/><path stroke="#29252B" stroke-linecap="round" stroke-linejoin="round" stroke-miterlimit="10" stroke-width=".5" d="m160.611 156.792 15.805 9.249c0 3.153-.104 6.411-.104 9.563 4.264 2.523 8.631 5.045 12.894 7.567v-.945c2.392-1.577 4.783-3.048 7.175-4.625"/></mask><g mask="url(#i)"><path fill="url(#j)" stroke="#29252B" stroke-linecap="round" stroke-linejoin="round" stroke-miterlimit="10" stroke-width=".5" d="M316.893 32.779v6.516h-.104l-.208 48.87-87.759 51.497-7.487 4.414-2.703 1.576-13.102-7.672-18.404-10.72-1.768-1.051-8.422-4.834 6.446-3.784 7.487-4.414L307.327 44.76v-6.516l3.743-2.207z"/><path fill="#0551BF" d="m160.61 156.792 15.805 9.249v4.519l-7.487 4.414-9.982 5.885-11.75 6.937-7.59 4.519-22.356 13.137v-48.975c4.679-2.733 9.358-5.36 14.037-8.093l7.487-4.414c.52.316 1.04.736 1.56 1.051v9.669c4.263 2.417 8.526 4.94 12.789 7.357v-.841zM218.631 145.757l-7.383 4.309-5.718-3.363-20.173-11.666h-.104v-.105l-15.805-9.248 7.383-4.309 8.422 4.939 1.768 1.051 18.509 10.72z"/><path fill="url(#k)" stroke="#29252B" stroke-linecap="round" stroke-linejoin="round" stroke-miterlimit="10" stroke-width=".5" d="M56.005 185.904v6.516l-.208 48.975C19.3 220.06 1.103 192.104 1.207 164.254l.208-46.137v-2.628.526-4.835c0 1.366.104 2.628.312 3.994v.63c.208 1.156.312 2.418.52 3.679 0 .315.104.525.208.841.208 1.051.312 1.996.624 3.047 0 .421.208.841.312 1.262.312 1.156.624 2.312.936 3.573 0 .105.104.21.104.315.416 1.366.832 2.627 1.352 3.889a82 82 0 0 0 3.327 7.672c.416.84.832 1.681 1.352 2.522.416.841.936 1.682 1.455 2.522 1.04 1.682 2.08 3.258 3.224 4.94 1.144 1.681 2.391 3.258 3.64 4.834.623.841 1.247 1.577 1.975 2.417 1.975 2.418 4.159 4.73 6.55 7.042.832.736 1.56 1.576 2.392 2.312 1.56 1.471 3.12 2.838 4.783 4.309 2.808 2.312 5.72 4.624 8.839 6.831 1.04.736 1.975 1.472 3.015 2.102 3.015 1.892 6.343 3.994 9.67 5.991"/><path fill="#055AD5" d="m124.529 135.773 13.933 8.198-7.487 4.309-13.725 8.197h-.104l-.104-.105v-16.185zM190.764 113.177l-7.486 4.414-6.447 3.784-7.383 4.309v-16.185l7.487-4.414zM65.156 180.544v6.516l-9.15 5.36v-6.516z"/><path fill="#055AD5" d="m117.146 156.477-.104.106v-.211z"/><path fill="url(#l)" stroke="#29252B" stroke-linecap="round" stroke-linejoin="round" stroke-miterlimit="10" stroke-width=".5" d="M117.041 156.582v48.87l-61.244 35.943.208-48.975v-6.516l9.15-5.36v6.516l10.086-5.991z"/><path fill="#055AD5" d="M196.379 177.601c5.407 3.153 10.71 6.306 16.117 9.459 0 5.465-.104 10.825-.104 16.29l-7.382 4.309h-.104L189.1 198.41l-20.172-11.665-.104-.106-9.982-5.78-25.891-15.239h-.104l-15.597-9.143 13.725-8.198 7.487-4.309 1.872 1.051v9.669l12.789 7.357v-.841l7.487-4.414 15.805 9.249v4.519l-.104 5.044 12.893 7.567v-.946c2.392-1.576 4.784-3.152 7.175-4.624M257.416 176.971h-.104l-15.805-9.249-20.069-11.665h-.207v-.106l-9.983-5.885-5.718-3.363-20.173-11.666h-.104v-.105l-15.805-9.248 7.383-4.309 8.422 4.939 1.768 1.051 18.509 10.72 13.101 7.672 2.6 1.577 1.871 1.051 18.405 10.719 15.909 9.249 7.278 4.309z"/><path fill="#C50000" d="M185.356 135.036h-.104v-.104zM221.439 156.055h-.209v-.104zM132.951 165.62l-.104.104v-.104zM169.033 186.64l-.208.105v-.211z"/><path fill="#0447A8" d="m300.88 349.959-.208.211c.104-.105.208-.105.208-.211"/><path fill="#055AD5" d="M19.613 316.96c-.104 0-.208-.106-.312-.211.104.105.208.211.312.211M264.799 172.557v.105h-.104l-7.279 4.309 7.279-4.309zM101.343 342.392c-.312 0-.624-.105-1.04-.105.416 0 .728 0 1.04.105M309.51 285.64c-.312.315-.52.631-.936 1.051.208-.21.312-.315.416-.525.208-.105.312-.316.52-.526M310.34 284.694c-.104.21-.208.316-.416.526l-.104.105v-.105zM321.365 268.194c-.416.841-.832 1.577-1.248 2.417.416-.735.728-1.471 1.144-2.207 0 0 0-.105.104-.21M325.523 258.105c-.312.841-.52 1.576-.832 2.417-.104.21-.104.315-.208.42 0 .211-.104.316-.208.421l.312-.946c.416-.736.624-1.577.936-2.312"/><path fill="#858585" d="M264.903 166.041v6.516zc-.104 0 0 0 0 0"/><path fill="url(#m)" stroke="#29252B" stroke-linecap="round" stroke-linejoin="round" stroke-miterlimit="10" stroke-width=".5" d="M315.853 237.506v2.207c0 .42 0 .736-.104 1.156-1.144-22.49-15.077-44.876-41.8-63.058-3.119-1.681-6.031-3.573-9.15-5.36v-6.41c1.871 1.051 3.639 2.207 5.511 3.258 0 .105.104.105.104.105 1.144.63 2.287 1.366 3.535 1.996.832.631 1.768 1.157 2.6 1.787l2.183 1.577c.936.63 1.872 1.366 2.704 1.996 2.391 1.892 4.575 3.679 6.758 5.676 1.456 1.261 2.808 2.627 4.056 3.888 1.351 1.366 2.495 2.628 3.743 3.994.624.63 1.144 1.366 1.768 1.997.519.63 1.143 1.261 1.559 1.891 2.288 2.733 4.16 5.57 5.927 8.408.936 1.366 1.664 2.838 2.496 4.204s1.456 2.838 2.183 4.204l.936 2.207c.312.736.624 1.471.832 2.207.52 1.471 1.04 2.837 1.456 4.309l.624 2.207c.208.735.416 1.471.52 2.207.207.736.311 1.471.415 2.207l.312 1.892c.104.21.104.42.104.63l.312 2.838c.104 1.156.208 2.312.208 3.468.208.736.208 1.471.208 2.312"/><path fill="url(#n)" stroke="#29252B" stroke-linecap="round" stroke-linejoin="round" stroke-miterlimit="10" stroke-width=".5" d="M328.954 237.716v7.252l-.208 48.134v1.682c0 1.156-.104 2.312-.208 3.573-.104 1.156-.208 2.312-.416 3.573-.208 1.156-.312 2.417-.624 3.574v.105c-.312 1.471-.624 3.047-1.04 4.519-.104.525-.312 1.051-.416 1.471a76 76 0 0 1-1.455 4.519c-.208.526-.416 1.156-.624 1.682-.52 1.156-1.04 2.417-1.56 3.573-.832 1.787-1.664 3.573-2.703 5.255-2.08 3.783-4.576 7.462-7.487 11.14-1.04 1.261-1.976 2.522-3.119 3.784a153 153 0 0 1-8.111 8.512l-.208.211c-.728.63-1.456 1.366-2.183 1.996-.832.736-1.664 1.472-2.6 2.207a136 136 0 0 1-6.031 4.835c-1.975 1.471-3.951 2.837-6.031 4.309-2.079 1.366-4.263 2.837-6.55 4.204-.728.525-1.456.946-2.288 1.366-2.496 1.471-5.095 2.838-7.695 4.204-1.143.63-2.391 1.261-3.535 1.892-.728.315-1.352.735-2.08 1.051-1.351.63-2.703 1.366-4.159 1.891-1.559.736-3.119 1.366-4.679 2.102-2.287.946-4.471 1.892-6.759 2.838-2.287.841-4.679 1.681-6.966 2.522-.936.315-1.976.631-2.912 1.051-.52.21-1.04.315-1.663.526-2.808.945-5.615 1.786-8.527 2.627h-.104c-1.664.525-3.327.946-4.991 1.366-.312.105-.728.21-1.04.315l-3.743.946c-.312.105-.52.21-.832.21-2.287.526-4.471 1.051-6.759 1.577-3.015.631-5.926 1.261-8.942 1.787-1.456.315-3.015.525-4.575.735-1.04.21-1.976.316-2.911.526-2.184.315-4.472.63-6.655.946-.832.105-1.56.21-2.392.315-.728.105-1.56.21-2.287.315-1.56.21-3.12.315-4.679.526-2.6.21-5.095.525-7.695.63-2.495.21-5.095.316-7.591.526-1.663.105-3.431.21-5.095.21-6.342.21-12.581.21-18.924.105-2.288-.105-4.679-.21-6.967-.315-1.456-.105-2.911-.21-4.367-.21-2.288-.106-4.575-.316-6.863-.526-3.015-.21-6.031-.525-9.046-.841s-5.927-.63-8.942-1.156c-6.24-.946-12.27-1.997-18.405-3.258-1.663-.315-3.223-.63-4.887-1.051-1.976-.42-3.951-.946-5.927-1.366-2.6-.631-5.199-1.366-7.798-2.102-.312-.105-.52-.21-.728-.21-.312-.105-.624-.21-.936-.21a52 52 0 0 1-2.08-.631 157 157 0 0 1-10.606-3.468c-1.663-.631-3.43-1.156-5.095-1.892-.832-.315-1.767-.63-2.6-1.051-.415-.21-.831-.315-1.247-.525 0 0-.104 0-.208-.105-.208-.105-.52-.211-.624-.316l-.936-.315c-.623-.21-1.247-.525-1.871-.736-.624-.315-1.352-.525-1.976-.84-1.456-.631-3.015-1.261-4.471-1.997-1.144-.526-2.184-1.051-3.223-1.471-.728-.421-1.56-.736-2.288-1.157-1.56-.735-3.12-1.576-4.68-2.417a124 124 0 0 1-6.342-3.573l.208-48.975v-6.516c1.352.841 2.704 1.471 3.951 2.207.52.315 1.144.631 1.664.946.104 0 .208.105.312.21.104 0 .208.105.312.21l.624.316a405 405 0 0 0 6.759 3.468c1.975.946 4.159 1.892 6.238 2.837a49 49 0 0 0 5.407 2.207c.416.211.936.421 1.352.526.208.105.52.21.728.315 1.352.526 2.703 1.156 4.16 1.577a197 197 0 0 0 11.853 4.098c1.04.316 2.184.631 3.223 1.051.832.316 1.664.526 2.496.736 1.04.315 2.08.631 3.223.841.208.105.312.105.52.21.312.105.624.21 1.04.315l6.239 1.577c.208 0 .416.105.624.21l2.807.631c1.664.42 3.224.735 4.887 1.05h.208c.104 0 .312 0 .416.106h.208c2.807.63 5.511 1.156 8.319 1.576 3.015.526 6.134 1.051 9.254 1.471.312 0 .624.105 1.039.105 1.144.211 2.288.316 3.328.421 1.456.21 3.015.315 4.471.525h.104l9.046.946c.728 0 1.456.105 2.184.21 2.287.211 4.679.316 6.967.421 3.015.21 6.03.315 9.15.315 1.248 0 2.495.105 3.743 0 3.224.105 6.447.105 9.774 0 1.768 0 3.536 0 5.199-.105h.312c1.976-.105 3.848-.21 5.823-.21 1.04-.105 2.184-.105 3.224-.21.727 0 1.455-.106 2.183-.211 1.456-.105 2.808-.21 4.263-.315 1.664-.105 3.432-.315 5.095-.525l5.615-.631 2.184-.315c3.327-.421 6.655-.841 9.878-1.472 1.976-.315 3.951-.63 5.823-1.051 2.6-.42 5.095-.945 7.591-1.471l3.119-.63c2.392-.526 4.679-1.051 6.967-1.682.104 0 .208 0 .312-.105 1.663-.42 3.327-.841 4.991-1.366.208 0 .312-.105.52-.211l1.247-.315c.624-.21 1.352-.315 1.976-.525s1.352-.316 1.976-.631h.208c1.559-.42 3.119-.841 4.679-1.471.52-.105 1.04-.316 1.559-.526a185 185 0 0 0 10.71-3.783 77 77 0 0 0 5.199-2.102c1.768-.631 3.536-1.471 5.096-2.207 2.287-1.051 4.471-1.997 6.654-3.048 1.56-.736 3.12-1.576 4.679-2.312.936-.526 1.872-.946 2.808-1.471.208-.106.52-.211.728-.421l.624-.315c1.351-.631 2.599-1.471 3.951-2.207.728-.421 1.456-.841 2.287-1.366a9 9 0 0 1 1.04-.631 162 162 0 0 0 5.511-3.573c.312-.21.52-.316.832-.526.728-.525 1.456-.946 2.08-1.471l2.183-1.576c.52-.316.936-.631 1.352-1.051.52-.316.936-.631 1.352-1.051.52-.316.936-.631 1.352-1.051.104 0 .207-.105.311-.211.728-.63 1.456-1.156 2.184-1.786.416-.316.832-.736 1.352-1.156.624-.526 1.143-.946 1.767-1.472.728-.63 1.456-1.366 2.184-1.996.936-.841 1.768-1.682 2.6-2.523l.312-.315c.104 0 .103-.105.207-.21 1.04-1.051 1.976-2.102 3.016-3.153l.52-.526c.208-.21.52-.525.728-.84l.104-.105.208-.211.104-.105c.416-.315.623-.63.935-1.051l.312-.315v-.105l.104-.105c.208-.21.312-.316.416-.526.208-.105.208-.315.312-.42.104-.21.312-.315.312-.526.312-.315.52-.63.832-1.051.208-.105.208-.315.312-.42a65 65 0 0 0 1.144-1.471l.935-1.261c.416-.526.728-.946 1.04-1.472.104-.21.208-.315.312-.42l.624-.946c.624-.946 1.248-1.892 1.768-2.733 0 0 0-.105.104-.105.208-.21.312-.525.416-.735.416-.631.831-1.367 1.143-1.997.104-.21.208-.315.312-.526.416-.84.832-1.576 1.248-2.417v-.105c.416-.736.728-1.471 1.144-2.312a21.5 21.5 0 0 0 1.144-2.733c.104-.21.208-.42.208-.63.104-.315.208-.526.312-.841 0-.105.104-.105.104-.21.104-.21.207-.315.207-.42 0-.106.105-.316.209-.421.312-.841.519-1.576.831-2.417.52-1.682 1.04-3.258 1.456-4.94 0-.21.104-.315.104-.42l.624-2.838c.208-.735.312-1.471.416-2.207 0-.21 0-.315.104-.525.208-1.156.312-2.207.416-3.363v-1.997c0-.42 0-.841.104-1.261v-.21c-.52-.631-.416-1.472-.416-2.418"/><path fill="#9E9E9E" d="M325.523 258.105c-.312.841-.52 1.576-.832 2.417v-.105c.312-.736.52-1.577.832-2.312"/><path fill="#A3A3A3" d="M321.365 268.194c-.416.841-.832 1.577-1.248 2.417.416-.735.728-1.471 1.144-2.207 0 0 0-.105.104-.21M324.691 260.417c-.104.21-.104.42-.208.525 0 .211-.104.316-.208.421.208-.316.312-.631.416-.946"/><path fill="#ADADAD" d="M309.51 285.64c-.312.315-.52.631-.936 1.051.208-.21.312-.315.416-.525.208-.105.416-.316.52-.526M310.032 285.22l-.104.103c0-.103 0-.103.104-.103-.104 0 0 0 0 0"/><path fill="#999" d="M101.343 342.392c-.312 0-.624-.105-1.04-.105.416 0 .728 0 1.04.105"/><path fill="#DCDCDC" d="M101.343 342.392c-.312 0-.624-.105-1.04-.105.416 0 .728 0 1.04.105M309.51 285.64c-.312.315-.52.631-.936 1.051.208-.21.312-.315.416-.525.208-.105.312-.316.52-.526M310.34 284.694c-.104.21-.208.316-.416.526l-.104.105v-.105zM325.523 258.105c-.312.841-.52 1.576-.832 2.417-.104.21-.104.315-.208.42 0 .211-.104.316-.208.421l.312-.946c.416-.736.624-1.577.936-2.312"/><path fill="url(#o)" stroke="#29252B" stroke-linecap="round" stroke-linejoin="round" stroke-miterlimit="10" stroke-width=".5" d="M328.955 237.506v.21c0 .946 0 1.787-.104 2.733v.21c0 .421 0 .841-.104 1.261v1.997c-.104 1.156-.312 2.312-.416 3.363 0 .21-.104.316-.104.526-.104.735-.208 1.471-.416 2.207l-.624 2.837c0 .211-.104.316-.104.421-.416 1.681-.832 3.258-1.456 4.939-.312.736-.519 1.577-.831 2.312l-.312.946c0 .105 0 .105-.104.21-.104.316-.208.526-.312.841-.104.21-.208.421-.208.631-.416.946-.832 1.786-1.144 2.732-.312.736-.728 1.472-1.144 2.312v.105c0 .106-.104.211-.208.211-.312.735-.728 1.471-1.144 2.207-.104.21-.208.315-.312.525a20 20 0 0 1-1.143 1.997c-.104.315-.312.525-.416.736 0 0 0 .105-.104.105a24 24 0 0 1-1.768 2.732l-.624.946c-.104.21-.208.315-.312.421-.312.525-.624.945-1.04 1.471l-.935 1.261a8 8 0 0 1-1.144 1.471c-.104.105-.208.316-.312.421-.312.315-.52.63-.832 1.051-.104.21-.208.315-.312.525-.104.105-.208.316-.312.421l-.52.525v.21l-.312.316h-.104c-.207.21-.312.315-.416.525s-.311.315-.415.526l-.104.105c0 .105-.104.21-.208.21l-.104.105c-.208.315-.52.525-.728.841-.104.21-.312.315-.52.525-.936 1.051-1.976 2.102-3.016 3.153 0 .105-.103.105-.207.21l-.312.316c-.832.84-1.664 1.681-2.6 2.522-.728.63-1.456 1.366-2.184 1.997a12 12 0 0 1-1.767 1.471c-.416.42-.832.736-1.352 1.156-.624.631-1.352 1.156-2.184 1.787-.104.105-.208.21-.311.21-.416.315-.832.736-1.352 1.051-.416.42-.936.736-1.352 1.051s-.936.736-1.352 1.051l-2.183 1.576a15 15 0 0 1-2.08 1.472c-.312.21-.52.42-.832.525a561 561 0 0 1-5.511 3.573 9 9 0 0 1-1.04.631c-.727.525-1.455.946-2.287 1.366-1.352.736-2.6 1.472-3.951 2.207l-.624.316c-.208.21-.52.315-.728.42-.936.525-1.872 1.051-2.808 1.471-1.559.841-3.119 1.577-4.679 2.312-2.183 1.051-4.367 2.102-6.654 3.048-1.664.736-3.432 1.472-5.096 2.207-1.663.736-3.431 1.366-5.199 2.102a185 185 0 0 1-10.71 3.784c-.519.21-1.039.315-1.559.525-1.56.526-3.016.946-4.679 1.471h-.208c-.624.211-1.352.421-1.976.631s-1.248.315-1.976.525l-1.247.316c-.208 0-.312.105-.52.21-1.664.42-3.328.841-4.991 1.366-.104 0-.208 0-.312.105-2.288.526-4.679 1.156-6.967 1.682-1.04.21-2.08.525-3.119.63-2.496.526-5.095 1.051-7.591 1.472-1.976.315-3.847.63-5.823 1.051-3.223.525-6.551 1.051-9.878 1.471l-2.184.315-5.615.631c-1.663.21-3.431.315-5.095.525-1.455.106-2.807.211-4.263.316-.728.105-1.456.105-2.183.21-1.04.105-2.184.105-3.224.21-1.871.105-3.847.21-5.823.21h-.312c-1.767.105-3.535.105-5.199.105-3.223 0-6.446.105-9.774 0h-3.743c-3.016-.105-6.135-.21-9.15-.315-2.288-.105-4.68-.315-6.967-.42-.728 0-1.456-.105-2.184-.21-3.015-.316-6.03-.526-9.046-.946h-.104c-1.456-.211-3.015-.316-4.471-.526-1.144-.105-2.288-.315-3.328-.42-.311-.105-.623-.105-1.039-.21-3.12-.421-6.135-.946-9.255-1.472-2.807-.525-5.614-1.051-8.318-1.576h-.208c-.104 0-.312 0-.416-.105h-.208c-1.663-.316-3.223-.631-4.887-1.051l-2.807-.631c-.208-.105-.416-.105-.624-.21l-6.24-1.576a13 13 0 0 0-1.039-.316c-.208 0-.312-.105-.52-.21-1.144-.315-2.183-.525-3.223-.841-.832-.21-1.664-.525-2.496-.735-1.144-.316-2.183-.631-3.223-1.051-3.951-1.262-8.007-2.628-11.854-4.099-1.352-.526-2.807-1.051-4.16-1.577-.207-.105-.519-.21-.727-.315-.416-.21-.936-.315-1.352-.525-1.871-.736-3.639-1.472-5.407-2.207l-6.239-2.838c-2.287-1.156-4.575-2.207-6.758-3.468l-.624-.315c-.104 0-.208-.106-.312-.211-.104 0-.208-.105-.312-.21-.624-.315-1.144-.63-1.768-.946-1.351-.735-2.703-1.471-3.951-2.207l9.15-5.36c1.872 1.051 3.848 2.207 5.72 3.153 1.247.631 2.495 1.367 3.846 1.997a94 94 0 0 0 3.224 1.577c3.64 1.786 7.486 3.363 11.334 4.939 1.04.42 1.975.841 3.015 1.156 3.12 1.156 6.239 2.312 9.462 3.363 1.144.316 2.288.736 3.328 1.051 1.248.421 2.495.841 3.743 1.156a48 48 0 0 1 3.64 1.051c1.247.315 2.495.631 3.639.946a89 89 0 0 0 7.59 1.892c2.392.525 4.783 1.051 7.279 1.576l3.847.736c2.392.42 4.783.841 7.279 1.261 1.352.21 2.807.42 4.159.631 2.496.315 5.095.63 7.695 1.051 1.351.21 2.599.315 3.951.42 1.352.21 2.599.21 3.951.315s2.6.21 3.847.316c1.352.105 2.6.21 3.952.315 1.247.105 2.599.105 3.951.21 1.248 0 2.495.105 3.639.21 1.456 0 2.808 0 4.264.105 1.351 0 2.703 0 3.951.105h7.694c1.456 0 3.016-.105 4.471-.105 1.04 0 2.184-.105 3.328-.105 2.183-.105 4.471-.21 6.759-.42 1.351-.105 2.703-.21 3.951-.315l4.055-.316 1.04-.105c2.287-.21 4.783-.525 7.071-.841 1.351-.21 2.703-.42 4.055-.525 29.634-4.204 57.709-13.032 80.793-26.589 31.714-18.602 48.351-42.88 49.806-67.262 0-.42 0-.736.104-1.156v-4.624c0-1.156-.104-2.312-.208-3.469l-.312-2.837c0-.21 0-.526-.104-.631l-.312-1.891c-.104-.736-.311-1.472-.415-2.207-.208-.736-.312-1.472-.52-2.208-.208-.735-.312-1.471-.624-2.207-.416-1.471-.936-2.837-1.456-4.308-.312-.736-.52-1.472-.832-2.207l-.936-2.208c-.623-1.366-1.351-2.837-2.183-4.203-.728-1.472-1.56-2.838-2.496-4.204a88 88 0 0 0-5.927-8.408l-1.559-1.892c-.52-.63-1.144-1.366-1.768-1.996-1.144-1.367-2.496-2.628-3.743-3.994-1.352-1.366-2.704-2.628-4.056-3.889-2.183-1.891-4.367-3.783-6.758-5.675-.832-.63-1.768-1.366-2.704-1.997l-2.183-1.576c-.832-.631-1.664-1.156-2.6-1.787a132 132 0 0 1-3.535-1.997s-.104 0-.104-.105c-1.872-1.051-3.64-2.207-5.511-3.258v-.105l9.462-5.57c36.185 20.809 54.382 48.765 54.382 76.615"/><path fill="#DCDCDC" d="M264.905 165.936c0 .108-.109.108 0 0"/><path fill="url(#p)" stroke="#29252B" stroke-linecap="round" stroke-linejoin="round" stroke-miterlimit="10" stroke-width=".5" d="m316.893 32.779-5.823 3.363-3.743 2.207c-3.12-1.787-6.343-3.574-9.671-5.15-2.495-1.261-5.095-2.522-7.798-3.678-2.184-1.051-4.263-1.892-6.551-2.838-.52-.21-1.04-.42-1.456-.63-.52-.21-1.039-.421-1.455-.631-1.04-.316-1.976-.736-3.016-1.156-3.535-1.366-7.175-2.523-10.814-3.679l-4.055-1.26-1.248-.316a208 208 0 0 0-10.918-2.838c-1.871-.525-3.847-.946-5.823-1.366l-1.248-.315c-1.247-.21-2.495-.526-3.743-.736-1.04-.21-2.183-.42-3.223-.63-1.248-.21-2.496-.526-3.743-.631a27 27 0 0 0-4.056-.63c-.728-.106-1.351-.21-2.079-.316-.208 0-.52-.105-.728-.105-.52-.105-1.04-.21-1.56-.21-2.079-.316-4.263-.526-6.343-.841-1.871-.21-3.639-.42-5.511-.525-.831-.106-1.663-.21-2.495-.21-.624 0-1.248-.106-1.872-.106-2.495-.21-4.991-.315-7.486-.525s-4.991-.21-7.487-.316h-.312q-6.082-.158-12.166 0c-1.663 0-3.223 0-4.783.106h-.312l-7.174.315c-1.768 0-3.536.21-5.303.315-2.184.105-4.368.315-6.551.526h-.52c-1.456.21-2.911.315-4.263.525-2.496.315-5.095.63-7.487 1.051-2.079.315-4.055.63-6.135.946-1.247.21-2.391.42-3.639.63-.312 0-.624.106-1.04.21-2.287.421-4.471.841-6.758 1.367-.52.105-1.04.21-1.664.315-1.872.42-3.64.841-5.511 1.261-1.352.316-2.704.631-4.159 1.051-1.144.316-2.184.63-3.328.946-1.663.42-3.223.946-4.783 1.367-1.04.315-1.975.525-2.911.945l-2.184.63c-.624.211-1.144.421-1.768.632-1.04.315-2.183.735-3.119 1.05-2.288.841-4.471 1.577-6.655 2.523-2.08.84-4.159 1.681-6.135 2.522 0 0-.104 0-.104.105-2.183.946-4.263 1.892-6.446 2.838-.104.105-.312.105-.416.21a162 162 0 0 0-6.031 3.048c-.312.21-.728.315-1.04.525-1.976 1.051-3.951 2.207-5.927 3.258-.832.526-1.664.946-2.495 1.472-.624.315-1.144.735-1.768 1.156-1.456.946-2.807 1.891-4.16 2.732-1.247.84-2.495 1.787-3.639 2.628-2.495 1.891-4.887 3.678-7.174 5.57-1.144.946-2.184 1.891-3.328 2.837-.52.42-.935.841-1.351 1.261-.624.631-1.352 1.262-1.976 1.892s-1.248 1.156-1.872 1.892c-1.247 1.261-2.391 2.522-3.431 3.888-1.04 1.156-1.872 2.207-2.807 3.364-.208.21-.312.42-.52.63-.624.736-1.144 1.472-1.664 2.207-.728.946-1.352 1.892-1.976 2.838-.727 1.156-1.455 2.207-2.183 3.363-.416.63-.728 1.261-1.04 1.891-.104.21-.208.316-.312.526-.52.946-1.04 1.892-1.456 2.838a87 87 0 0 0-2.08 4.519c0 .105 0 .105-.103.21l-.312.946c-.208.42-.312.84-.52 1.156-.52 1.366-1.04 2.838-1.352 4.204l-.104.63c-.312.841-.52 1.577-.624 2.312-.104.526-.208.946-.312 1.472-.104.315-.104.525-.208.84 0 .21-.104.316-.104.42l-.623 3.469c-.104.631-.209 1.366-.209 1.997-.103.841-.207 1.787-.207 2.627v8.408c0-.631 0-1.261.104-1.997v.316c0 .84.103 1.681.207 2.522.104.736.208 1.366.312 2.102.104.841.208 1.576.312 2.312s.312 1.471.52 2.312.312 1.471.52 2.312c.208.736.416 1.577.624 2.312.208.841.416 1.577.624 2.312a81 81 0 0 0 1.768 4.519c.312.841.624 1.682 1.04 2.523.727 1.471 1.455 2.837 2.183 4.204l1.248 2.207c.831 1.471 1.767 2.837 2.703 4.309s2.08 2.942 3.224 4.414c.52.735 1.143 1.471 1.663 2.207.624.63 1.144 1.366 1.872 2.102l1.872 2.207c.624.63 1.247 1.366 1.871 1.996 1.872 1.892 3.848 3.679 5.823 5.571.624.63 1.352 1.156 1.976 1.681a298 298 0 0 0 8.422 6.621c.936.631 1.872 1.261 2.704 1.892a182 182 0 0 0 8.838 5.57l-9.15 5.36c-3.431-1.997-6.655-3.994-9.774-6.201a31 31 0 0 1-3.016-2.102c-3.12-2.207-6.03-4.519-8.838-6.831-1.664-1.366-3.328-2.838-4.783-4.309-.832-.736-1.664-1.471-2.392-2.312-2.287-2.312-4.47-4.729-6.55-7.041-.624-.841-1.352-1.577-1.976-2.418a147 147 0 0 1-3.64-4.834 133 133 0 0 1-3.223-4.94c-.52-.84-1.04-1.681-1.456-2.522-.52-.841-.935-1.681-1.351-2.522-1.352-2.523-2.392-5.045-3.328-7.672-.52-1.261-.936-2.523-1.352-3.889 0-.105-.103-.21-.103-.315-.312-1.156-.624-2.312-.936-3.573l-.312-1.262c-.312-1.051-.52-1.996-.624-3.047-.104-.316-.104-.526-.208-.841-.208-1.261-.312-2.522-.52-3.678v-.631c-.208-1.366-.208-2.627-.312-3.994v-2.207c0-27.64 17.885-55.175 53.758-76.195 72.37-42.248 189.556-42.248 262.135.105"/><path fill="url(#q)" stroke="#29252B" stroke-linecap="round" stroke-linejoin="round" stroke-miterlimit="10" stroke-width=".5" d="M297.761 33.094c-2.496-1.261-5.095-2.522-7.799-3.678-2.183-1.051-4.263-1.892-6.55-2.838-.52-.21-1.04-.42-1.456-.63-.52-.21-1.04-.42-1.456-.631-1.04-.315-1.976-.736-3.015-1.156-3.536-1.366-7.175-2.523-10.814-3.678l-4.056-1.262-1.247-.315a209 209 0 0 0-10.918-2.838c-1.872-.525-3.848-.945-5.823-1.366l-1.248-.315c-1.248-.21-2.496-.526-3.743-.736-1.04-.21-2.184-.42-3.224-.63-1.247-.21-2.495-.526-3.743-.63-1.352-.211-2.703-.526-4.055-.632-.728-.105-1.352-.21-2.08-.315-.208 0-.52-.105-.728-.105-.52-.105-1.039-.21-1.559-.21-2.08-.315-4.263-.526-6.343-.84-1.872-.211-3.639-.421-5.511-.526-.832-.105-1.664-.21-2.496-.21-.624 0-1.247-.106-1.871-.106-2.496-.21-4.991-.315-7.487-.525-2.495-.21-4.991-.21-7.486-.315h-.416a235 235 0 0 0-12.166 0c-1.664 0-3.224 0-4.783.105h-.312l-7.175.315c-1.767 0-3.535.21-5.303.315-2.183.105-4.367.316-6.551.526h-.52c-1.455.21-2.911.315-4.263.525-2.495.316-5.095.63-7.486 1.051-2.08.315-4.055.63-6.135.946-1.248.21-2.392.42-3.639.63-.312 0-.624.106-1.04.21-2.288.421-4.471.842-6.759 1.367-.52.105-1.04.21-1.664.315-1.871.42-3.639.841-5.511 1.261-1.351.316-2.703.631-4.159 1.052-1.144.315-2.183.63-3.327.945-1.664.42-3.224.946-4.783 1.367-1.04.315-1.976.525-2.912.946l-2.183.63c-.624.21-1.144.42-1.768.63-1.04.316-2.184.736-3.12 1.052-2.287.84-4.47 1.576-6.654 2.522-2.08.84-4.16 1.681-6.135 2.522 0 0-.104 0-.104.105-2.184.946-4.263 1.892-6.447 2.838-.104.105-.312.105-.416.21a162 162 0 0 0-6.03 3.048c-.312.21-.728.315-1.04.525-1.976 1.051-3.952 2.207-5.927 3.258-.832.526-1.664.946-2.496 1.472-.624.315-1.144.735-1.767 1.156-1.456.946-2.808 1.892-4.16 2.732-1.248.841-2.495 1.787-3.639 2.628-2.496 1.891-4.887 3.678-7.175 5.57-1.144.946-2.183 1.892-3.327 2.837-.52.42-.936.841-1.352 1.261-.624.631-1.352 1.262-1.975 1.892-.624.63-1.248 1.156-1.872 1.892-1.248 1.261-2.392 2.522-3.431 3.889-1.04 1.156-1.872 2.207-2.808 3.363-.208.21-.312.42-.52.63-.624.736-1.143 1.472-1.663 2.207-.728.946-1.352 1.892-1.976 2.838-.728 1.156-1.456 2.207-2.184 3.363-.416.63-.727 1.261-1.04 1.892-.103.21-.207.315-.312.525-.52.946-1.04 1.892-1.455 2.838a87 87 0 0 0-2.08 4.519c0 .105 0 .105-.104.21l-.312.946c-.208.42-.312.84-.52 1.156-.52 1.366-1.04 2.838-1.351 4.204l-.104.63c-.312.841-.52 1.577-.624 2.313-.104.525-.208.945-.312 1.47-.104.316-.104.526-.208.842 0 .21-.104.315-.104.42l-.624 3.468c-.104.631-.208 1.367-.208 1.997-.104.841-.208 1.787-.208 2.627v8.408c0-.63 0-1.261.104-1.997v-.315c.104-.841.104-1.576.208-2.312.104-.631.104-1.261.208-1.997.208-1.156.416-2.312.624-3.573v-.421c0-.315.104-.525.208-.84.104-.526.208-1.051.312-1.472.208-.84.416-1.576.624-2.312l.208-.63c.312-1.367.831-2.733 1.351-4.204.208-.42.312-.841.52-1.156.104-.316.208-.63.312-1.051v-.105c.312-.63.52-1.367.832-1.997s.624-1.366.936-1.997c.624-1.366 1.352-2.627 1.976-3.888 1.455-2.628 3.119-5.15 4.99-7.778.624-.84 1.248-1.681 1.976-2.522.832-1.05 1.56-1.997 2.392-2.943.624-.735 1.352-1.471 1.975-2.312.728-.84 1.56-1.681 2.392-2.522.52-.63 1.144-1.156 1.664-1.682.727-.735 1.455-1.471 2.183-2.102.728-.735 1.56-1.47 2.288-2.102 1.56-1.366 3.223-2.837 4.99-4.203.833-.736 1.769-1.367 2.704-1.997a115 115 0 0 1 9.775-6.726c1.351-.841 2.703-1.682 4.159-2.523 1.975-1.156 3.847-2.207 5.927-3.258.312-.21.728-.42 1.04-.525 1.975-1.051 3.95-2.102 6.03-3.048.104-.105.312-.105.416-.21 2.08-1.051 4.263-1.997 6.447-2.943 2.183-.946 4.367-1.786 6.55-2.732 2.08-.841 4.16-1.577 6.344-2.312 1.04-.316 2.08-.736 3.119-1.051.624-.21 1.144-.42 1.768-.631.832-.315 1.663-.526 2.495-.736.728-.315 1.456-.525 2.184-.735 1.871-.526 3.743-1.156 5.615-1.682.935-.21 1.871-.525 2.703-.735 1.456-.42 2.912-.736 4.367-1.157 1.872-.42 3.64-.84 5.511-1.26.52-.106 1.04-.211 1.664-.316 2.184-.525 4.471-.946 6.759-1.366.312-.105.624-.105 1.04-.21 1.143-.21 2.183-.42 3.327-.631 2.287-.42 4.679-.84 7.071-1.156 2.287-.315 4.471-.63 6.758-.84 1.456-.211 2.808-.316 4.264-.526h.519c2.08-.21 4.264-.42 6.343-.526 1.872-.21 3.848-.315 5.615-.42 2.288-.21 4.679-.21 6.967-.316h.312c1.56-.105 3.223-.105 4.783-.105q6.238-.158 12.478 0c2.495 0 4.991.21 7.59.316 2.496.105 4.991.315 7.487.525l4.367.315c1.872.21 3.639.316 5.511.526 2.079.21 4.263.525 6.343.84 1.975.21 3.951.526 5.927.841 1.975.316 3.847.631 5.822 1.051 1.04.21 2.184.316 3.12.631 1.456.21 2.807.526 4.159.84 1.04.211 1.976.421 2.912.631 1.247.21 2.495.526 3.743.841 2.287.526 4.679 1.156 6.967 1.787 1.351.315 2.703.735 4.055 1.156.104 0 .208 0 .208.105.104 0 .208 0 .208.105 1.663.526 3.327 1.051 4.991 1.471 3.639 1.156 7.278 2.313 10.918 3.679 1.039.315 1.975.735 3.015 1.156s1.976.84 3.016 1.26a88 88 0 0 1 6.55 2.839c2.704 1.156 5.199 2.417 7.799 3.678a206 206 0 0 1 9.566 5.15v-6.516c-2.807-1.682-6.031-3.363-9.254-5.045"/><path stroke="#29252B" stroke-linecap="round" stroke-linejoin="round" stroke-miterlimit="10" stroke-width=".5" d="m160.611 156.792 15.805 9.249c0 3.153-.104 6.411-.104 9.563 4.264 2.523 8.631 5.045 12.894 7.567v-.945c2.392-1.577 4.783-3.048 7.175-4.625"/></g><path fill="#DDDADA" stroke="#29252B" stroke-linecap="round" stroke-linejoin="round" stroke-miterlimit="10" stroke-width=".5" d="M192.738 114.333v9.669l-7.486 4.414v-9.668999999999999zM228.821 135.353l-.104 9.669-7.487 4.414.104-8.723v-.946z"/><path fill="#fff" stroke="#29252B" stroke-linecap="round" stroke-linejoin="round" stroke-miterlimit="10" stroke-width=".5" d="m140.334 145.022-7.487 4.414-1.872-1.156-13.933-8.093 7.487-4.414 13.933 8.198zM189.205 183.171l-.104 8.723-14.557-8.513-5.719-3.363 7.487-4.414zM176.415 166.041l-7.487 4.414-15.805-9.249 7.487-4.414zM212.497 187.06l-7.487 4.414-15.805-9.248c2.392-1.577 4.783-3.048 7.175-4.624a2176 2176 0 0 1 16.117 9.458M205.528 131.464v8.723l-14.557-8.513-5.719-3.258 7.486-4.414zM192.74 114.333l-7.487 4.414-1.975-1.156-13.83-8.092 7.487-4.414 13.829 8.092zM241.611 152.483l-.104 8.723-14.558-8.512-5.719-3.258 7.487-4.415zM228.823 135.352l-7.487 4.414-15.805-9.248 7.487-4.309z"/><path fill="#DDDADA" stroke="#29252B" stroke-linecap="round" stroke-linejoin="round" stroke-miterlimit="10" stroke-width=".5" d="M264.903 156.477v9.563l-.104 6.516v.105h-.104l-7.279 4.309v-16.079zM257.416 160.891v9.564l-.104 6.516-15.805-9.249-20.069-11.666-.207-.105-9.983-5.885-5.718-3.363-20.173-11.666-.104-.105-15.805-9.248v-16.185000000000002l13.83 8.092 1.975 1.156v9.669l5.719 3.258 14.558 8.513v-9.669l15.805 9.248v4.309l-.104 3.258v2.102l5.718 3.258 14.558 8.513v-2.102l.104-6.621v-.841z"/><path fill="#fff" stroke="#29252B" stroke-linecap="round" stroke-linejoin="round" stroke-miterlimit="10" stroke-width=".5" d="m264.902 156.477-7.487 4.414-15.805-9.249 7.487-4.414z"/><path fill="#DDDADA" stroke="#29252B" stroke-linecap="round" stroke-linejoin="round" stroke-miterlimit="10" stroke-width=".5" d="M140.333 145.021v9.669l-7.486 4.309v-9.563z"/><path fill="#fff" stroke="#29252B" stroke-linecap="round" stroke-linejoin="round" stroke-miterlimit="10" stroke-width=".5" d="m153.123 162.047-.104 8.828-14.453-8.513-5.719-3.363 7.486-4.309z"/><path fill="#DDDADA" stroke="#29252B" stroke-linecap="round" stroke-linejoin="round" stroke-miterlimit="10" stroke-width=".5" d="M176.416 166.041v4.519l-.104 5.044-7.487 4.414c0-3.153.104-6.41.104-9.563zM212.498 187.06c0 5.465-.104 10.825-.104 16.29l-7.382 4.309v-16.185000000000002zM165.705 200.617l-28.283 16.711v-16.921c0-11.245 7.902-15.764 17.573-10.194 4.159 2.312 7.902 6.095 10.71 10.404"/><path fill="#fff" stroke="#29252B" stroke-linecap="round" stroke-linejoin="round" stroke-miterlimit="10" stroke-width=".5" d="M205.009 201.143v6.516l.104.105-32.338 19.022v-5.885c0-6.621-2.703-14.083-6.862-20.179-2.912-4.309-6.655-8.092-10.606-10.404-2.912-1.682-5.615-2.523-8.007-2.418-3.327.106-5.927 1.682-7.59 4.52-.416.735-.832 1.576-1.04 2.417-.104.315-.208.63-.208.841-.416 1.366-.624 3.047-.624 4.729v16.92c-6.967-3.993-13.829-7.882-20.796-11.875v-65.265c5.303 3.047 10.502 6.2 15.805 9.248v9.564c6.759 3.994 13.413 7.882 20.172 11.876 0-2.943.104-5.886.104-8.828v-.841c5.303 3.048 10.502 6.201 15.805 9.248 0 3.153-.104 6.411-.104 9.564 2.08 1.261 4.159 2.417 6.239 3.679l14.037 8.197.104-7.567v-2.102l15.805 9.249v9.669"/><path fill="#87DA65" stroke="#29252B" stroke-linecap="round" stroke-linejoin="round" stroke-miterlimit="10" stroke-width=".5" d="M315.749 240.869c-1.455 24.488-18.092 48.66-49.806 67.262-23.084 13.557-51.159 22.385-80.793 26.589-1.352.21-2.703.315-4.055.526-2.288.315-4.783.525-7.071.84l-1.04.105-4.055.316c-1.352.105-2.703.21-3.951.315-2.288.21-4.471.315-6.759.42-1.144 0-2.288.106-3.327.106-1.456 0-3.016.105-4.471.105-1.352 0-2.6.105-3.848 0h-3.847c-1.352 0-2.704-.105-3.951-.105-1.456 0-2.808 0-4.264-.106-1.143-.105-2.391-.105-3.639-.21-1.352-.105-2.703-.105-3.951-.21-1.352-.105-2.6-.21-3.951-.315-1.352-.105-2.6-.21-3.848-.316-1.247-.105-2.599-.21-3.951-.315s-2.599-.21-3.951-.42c-2.6-.315-5.095-.631-7.695-1.051-1.455-.21-2.807-.421-4.159-.631-2.495-.42-4.887-.84-7.278-1.261l-3.848-.736c-2.495-.525-4.887-1.051-7.278-1.576a100 100 0 0 1-7.591-1.892c-1.248-.315-2.391-.63-3.64-.946-1.143-.315-2.39-.63-3.639-1.051-1.247-.315-2.495-.735-3.743-1.156-1.144-.315-2.183-.735-3.327-1.051a340 340 0 0 1-9.462-3.363c-1.04-.315-1.976-.735-3.016-1.156-3.847-1.576-7.59-3.153-11.334-4.939a94 94 0 0 1-3.223-1.577 136 136 0 0 1-3.847-1.997l144.22-84.707 32.754-18.602-.104-.105 7.383-4.309c0-5.465.104-10.825.104-16.29l-16.117-9.459-7.175 4.624v.946c-4.263-2.522-8.63-5.044-12.893-7.567 0-3.153.104-6.411.104-9.563-5.303-3.048-10.502-6.201-15.805-9.249l-7.487 4.414v.841c-4.263-2.417-8.526-4.94-12.79-7.357v-9.669c-.728-.525-1.455-.946-2.183-1.471-4.575-2.627-9.046-5.15-13.622-7.777l-7.486 4.414v16.395c-14.038 7.987-27.97 16.08-42.008 24.067l-10.086 5.99v-6.516c-3.12-1.786-6.031-3.678-8.839-5.57-.936-.63-1.871-1.261-2.703-1.891-3.016-2.207-5.823-4.309-8.423-6.621-.624-.526-1.352-1.156-1.975-1.682a74 74 0 0 1-5.823-5.57c-.624-.631-1.248-1.366-1.872-1.997l-1.871-2.207c-.624-.736-1.248-1.471-1.872-2.102-.624-.736-1.144-1.471-1.664-2.207-1.144-1.471-2.287-2.943-3.223-4.414-1.04-1.366-1.872-2.838-2.704-4.309-.52-.736-.832-1.471-1.247-2.207-.728-1.366-1.456-2.837-2.184-4.204-.416-.841-.832-1.681-1.04-2.522a81 81 0 0 1-1.768-4.519c-.207-.736-.52-1.472-.623-2.312a8.4 8.4 0 0 1-.624-2.312c-.208-.736-.312-1.472-.52-2.313-.208-.735-.312-1.471-.52-2.312a8.3 8.3 0 0 1-.312-2.312c-.104-.735-.208-1.366-.312-2.102-.104-.84-.208-1.681-.208-2.522v-.631c.104-.84.104-1.576.208-2.312.104-.63.104-1.261.208-1.997.208-1.156.416-2.312.624-3.573v-.42c0-.315.104-.526.208-.841.104-.525.208-1.051.312-1.471.208-.841.416-1.577.624-2.312l.207-.631c.313-1.366.832-2.732 1.352-4.204.208-.42.312-.84.52-1.156.104-.315.208-.63.312-1.05v-.106c.312-.63.52-1.366.832-1.997.312-.63.624-1.366.936-1.997.624-1.366 1.352-2.627 1.976-3.888 1.455-2.628 3.119-5.15 4.99-7.777.624-.841 1.248-1.682 1.976-2.523.832-1.05 1.56-1.996 2.392-2.942.624-.736 1.351-1.472 1.975-2.312.728-.841 1.56-1.682 2.392-2.523l1.664-1.681c.727-.736 1.455-1.472 2.183-2.102.728-.736 1.56-1.472 2.288-2.102 1.56-1.366 3.223-2.838 4.99-4.204.833-.736 1.769-1.366 2.704-1.997a115 115 0 0 1 9.774-6.726c1.352-.84 2.704-1.682 4.16-2.522 1.975-1.156 3.847-2.207 5.927-3.258.312-.21.727-.42 1.04-.526 1.975-1.05 3.95-2.102 6.03-3.048.104-.105.312-.105.416-.21 2.08-1.05 4.263-1.997 6.447-2.943 2.184-.945 4.367-1.786 6.55-2.732 2.08-.84 4.16-1.576 6.344-2.312 1.04-.315 2.08-.736 3.119-1.051.624-.21 1.144-.42 1.768-.63.831-.316 1.663-.526 2.495-.736.728-.316 1.456-.526 2.184-.736 1.871-.525 3.743-1.156 5.615-1.681.936-.21 1.871-.526 2.703-.736 1.456-.42 2.912-.736 4.367-1.156 1.872-.42 3.64-.841 5.511-1.261.52-.105 1.04-.21 1.664-.316 2.184-.525 4.471-.946 6.759-1.366.312-.105.624-.105 1.04-.21 1.143-.21 2.183-.42 3.327-.63 2.287-.421 4.679-.841 7.071-1.157 2.287-.315 4.471-.63 6.758-.84 1.456-.21 2.808-.316 4.263-.526h.52c2.08-.21 4.264-.42 6.343-.526 1.872-.21 3.743-.315 5.615-.42 2.288-.21 4.679-.21 6.967-.315h.312c1.559-.105 3.223-.105 4.783-.105q6.239-.158 12.477 0c2.496 0 4.992.21 7.591.315 2.496.105 4.991.315 7.487.525l4.367.316c1.872.21 3.639.315 5.511.525 2.079.21 4.263.526 6.343.841 1.975.21 3.951.526 5.927.84 1.975.316 3.847.631 5.822 1.052 1.04.21 2.184.315 3.12.63 1.456.21 2.807.526 4.159.841 1.04.21 1.976.42 2.912.63 1.247.21 2.495.526 3.743.841 2.287.526 4.679 1.157 6.966 1.787 1.352.315 2.704.736 4.056 1.156.104 0 .208 0 .208.105.104 0 .208 0 .208.105 1.663.526 3.327 1.051 4.991 1.472 3.639 1.156 7.278 2.312 10.918 3.678 1.04.315 1.975.736 3.015 1.156s1.976.84 3.016 1.261a88 88 0 0 1 6.55 2.838c2.704 1.156 5.199 2.417 7.799 3.678 3.639 1.787 4.783 2.417 5.719 2.943 1.767 1.05 3.119 1.997 4.055 2.732-38.785 22.806-77.673 45.612-116.458 68.418-4.679-2.732-9.254-5.36-13.933-8.092l-7.487 4.414c0 5.149-.104 10.404-.104 15.554v.105h.104l15.805 9.249v.21l.104-.105 20.068 11.77 5.719 3.364 10.086 5.885v.21l.104-.105 20.172 11.771 15.805 9.248v.105l7.383-4.309h.104v-.105c3.119 1.787 5.927 3.679 9.15 5.36 26.827 18.287 40.761 40.673 41.8 63.163"/><path fill="#fff" stroke="#29252B" stroke-linecap="round" stroke-linejoin="round" stroke-miterlimit="10" stroke-width=".5" d="M147.925 107.922c1.144.631.312 1.787-1.247 1.787h-24.852c-.936 0-1.871-.21-2.599-.631L56.007 72.19c-1.144-.631-.312-1.787 1.248-1.787h24.85c.936 0 1.872.21 2.6.63zM157.906 86.378c.728.42 1.04.946 1.04 1.471l.104 14.609c0 .945-1.976 1.471-3.12.735L92.71 66.304c-.728-.42-1.04-.945-1.04-1.47l-.104-14.61c0-.945 1.976-1.47 3.12-.735zM194.299 80.702c1.144.63.312 1.787-1.247 1.787H168.2c-.935 0-1.871-.21-2.599-.63l-63.22-36.89c-1.144-.63-.312-1.786 1.247-1.786h24.852c.936 0 1.871.21 2.599.63z"/><path fill="#fff" d="M245.342 292.875c1.808 1.05 1.808 2.727 0 3.777l-37.189 21.613a7.14 7.14 0 0 1-6.504 0l-74.888-43.241c-1.313-.758-1.721-1.896-1.021-2.917a5.34 5.34 0 0 1 1.94-1.289 5.3 5.3 0 0 1 2.304-.344h63.542l-29.577-17.078a1.983 1.983 0 0 1 0-3.762l37.204-21.628a7.16 7.16 0 0 1 6.49 0l74.903 43.241c1.312.758 1.72 1.911 1.006 2.917a2.9 2.9 0 0 1-.977.86 6.6 6.6 0 0 1-3.252.788h-63.484zm-3.456-37.583-26.149 15.197h52.502l-26.251-15.182m-32.668 11.419 26.149-15.182-26.251-15.196.16 30.378m-41.783 24.297 26.149-15.197h-52.502l26.251 15.197m6.286-39.479 26.251 15.182-.175-30.378-26.134 15.196m.233 43.241 26.251 15.182-.175-30.378-26.134 15.196m35.511 15.182 26.135-15.182-26.251-15.196.175 30.378"/><path stroke="#29252B" stroke-linecap="round" stroke-linejoin="round" stroke-width=".5" d="m241.886 255.292-26.149 15.197h52.502l-26.251-15.182m-32.668 11.419 26.149-15.182-26.251-15.196.16 30.378m-41.783 24.297 26.149-15.197h-52.502l26.251 15.197m6.286-39.479 26.251 15.182-.175-30.378-26.134 15.196m.233 43.241 26.251 15.182-.175-30.378-26.134 15.196m35.511 15.182 26.135-15.182-26.251-15.196.175 30.378m35.876-17.092c1.808 1.05 1.808 2.727 0 3.777l-37.189 21.613a7.14 7.14 0 0 1-6.504 0l-74.888-43.241c-1.313-.758-1.721-1.896-1.021-2.917a5.34 5.34 0 0 1 1.94-1.289 5.3 5.3 0 0 1 2.304-.344h63.542l-29.577-17.078a1.983 1.983 0 0 1 0-3.762l37.204-21.628a7.16 7.16 0 0 1 6.49 0l74.903 43.241c1.312.758 1.72 1.911 1.006 2.917a2.9 2.9 0 0 1-.977.86 6.6 6.6 0 0 1-3.252.788h-63.484z"/><defs><linearGradient id="a" x1="176.958" x2="316.916" y1="89.166" y2="89.166" gradientUnits="userSpaceOnUse"><stop stop-color="#524560"/><stop offset="1" stop-color="#29252B"/></linearGradient><linearGradient id="b" x1="1.23" x2="56.028" y1="176.238" y2="176.238" gradientUnits="userSpaceOnUse"><stop stop-color="#29252B"/><stop offset="1" stop-color="#A386CA"/></linearGradient><linearGradient id="c" x1="55.819" x2="117.064" y1="198.939" y2="198.939" gradientUnits="userSpaceOnUse"><stop stop-color="#524560"/><stop offset="1" stop-color="#29252B"/></linearGradient><linearGradient id="d" x1="264.821" x2="315.876" y1="203.405" y2="203.405" gradientUnits="userSpaceOnUse"><stop stop-color="#524560"/><stop offset="1" stop-color="#29252B"/></linearGradient><linearGradient id="e" x1="13.812" x2="329.392" y1="319.309" y2="319.309" gradientUnits="userSpaceOnUse"><stop stop-color="#A386CA"/><stop offset="1" stop-color="#29252B"/></linearGradient><linearGradient id="f" x1="13.397" x2="328.978" y1="253.247" y2="253.247" gradientUnits="userSpaceOnUse"><stop stop-color="#29252B"/><stop offset="1" stop-color="#A386CA"/></linearGradient><linearGradient id="g" x1="1.023" x2="316.915" y1="93.456" y2="93.456" gradientUnits="userSpaceOnUse"><stop stop-color="#29252B"/><stop offset="1" stop-color="#A386CA"/></linearGradient><linearGradient id="h" x1="14.437" x2="307.038" y1="61.223" y2="61.223" gradientUnits="userSpaceOnUse"><stop stop-color="#524560"/><stop offset="1" stop-color="#29252B"/></linearGradient><linearGradient id="j" x1="176.958" x2="316.916" y1="89.166" y2="89.166" gradientUnits="userSpaceOnUse"><stop stop-color="#524560"/><stop offset="1" stop-color="#29252B"/></linearGradient><linearGradient id="k" x1="1.23" x2="56.028" y1="176.238" y2="176.238" gradientUnits="userSpaceOnUse"><stop stop-color="#29252B"/><stop offset="1" stop-color="#A386CA"/></linearGradient><linearGradient id="l" x1="55.819" x2="117.064" y1="198.939" y2="198.939" gradientUnits="userSpaceOnUse"><stop stop-color="#524560"/><stop offset="1" stop-color="#29252B"/></linearGradient><linearGradient id="m" x1="264.821" x2="315.876" y1="203.405" y2="203.405" gradientUnits="userSpaceOnUse"><stop stop-color="#524560"/><stop offset="1" stop-color="#29252B"/></linearGradient><linearGradient id="n" x1="13.812" x2="329.392" y1="319.309" y2="319.309" gradientUnits="userSpaceOnUse"><stop stop-color="#A386CA"/><stop offset="1" stop-color="#29252B"/></linearGradient><linearGradient id="o" x1="13.397" x2="328.978" y1="253.247" y2="253.247" gradientUnits="userSpaceOnUse"><stop stop-color="#29252B"/><stop offset="1" stop-color="#A386CA"/></linearGradient><linearGradient id="p" x1="1.023" x2="316.915" y1="93.456" y2="93.456" gradientUnits="userSpaceOnUse"><stop stop-color="#29252B"/><stop offset="1" stop-color="#A386CA"/></linearGradient><linearGradient id="q" x1="14.437" x2="307.038" y1="61.223" y2="61.223" gradientUnits="userSpaceOnUse"><stop stop-color="#524560"/><stop offset="1" stop-color="#29252B"/></linearGradient></defs></svg>