<svg width="247" height="295" viewBox="0 0 247 295" fill="none" xmlns="http://www.w3.org/2000/svg">
<g clip-path="url(#clip0_1599_2177)">
<path d="M120.173 116.958L119.787 69.6984" stroke="#29252B" stroke-width="0.3" stroke-linecap="round" stroke-linejoin="round"/>
<path d="M246.993 265.624L246.916 293.133L151.916 348.425L151.993 320.916L246.993 265.624Z" fill="#B7B6B6" stroke="#29252B" stroke-width="0.3" stroke-linecap="round" stroke-linejoin="round"/>
<path d="M151.993 320.916L151.916 348.425L56.2988 293.133L56.3759 265.624L151.993 320.916Z" fill="white" stroke="#29252B" stroke-width="0.3" stroke-linecap="round" stroke-linejoin="round"/>
<path d="M246.993 265.624L151.993 320.916L56.376 265.624L151.371 210.332L246.993 265.624Z" fill="#87DA65" stroke="#29252B" stroke-width="0.3" stroke-linecap="round" stroke-linejoin="round"/>
<path d="M246.993 226.305L246.916 253.814L151.916 309.111L151.993 281.597L246.993 226.305Z" fill="#B7B6B6" stroke="#29252B" stroke-width="0.3" stroke-linecap="round" stroke-linejoin="round"/>
<path d="M151.993 281.597L151.916 309.111L56.2988 253.819L56.3759 226.305L151.993 281.597Z" fill="white" stroke="#29252B" stroke-width="0.3" stroke-linecap="round" stroke-linejoin="round"/>
<path d="M246.993 226.305L151.993 281.597L56.376 226.305L151.371 171.013L246.993 226.305Z" fill="#87DA65" stroke="#29252B" stroke-width="0.3" stroke-linecap="round" stroke-linejoin="round"/>
<path d="M246.993 186.991L246.916 214.501L151.916 269.792L151.993 242.283L246.993 186.991Z" fill="#B7B6B6" stroke="#29252B" stroke-width="0.3" stroke-linecap="round" stroke-linejoin="round"/>
<path d="M151.993 242.283L151.916 269.792L56.2988 214.501L56.3759 186.991L151.993 242.283Z" fill="white" stroke="#29252B" stroke-width="0.3" stroke-linecap="round" stroke-linejoin="round"/>
<path d="M246.993 186.991L151.993 242.283L56.376 186.991L151.371 131.699L246.993 186.991Z" fill="#87DA65" stroke="#29252B" stroke-width="0.3" stroke-linecap="round" stroke-linejoin="round"/>
<path d="M215.432 168.746L247.102 150.31L246.994 186.991L215.329 205.422L215.432 168.746Z" fill="#4B415E" stroke="#29252B" stroke-width="0.3" stroke-linecap="round" stroke-linejoin="round"/>
<path d="M183.562 150.31L215.226 131.879L247.102 150.31L215.432 168.746L183.562 150.31Z" fill="#DCDCDC"/>
<path d="M215.432 168.746L215.329 205.422L183.458 186.991L183.561 150.31L215.432 168.746Z" fill="#675A82" stroke="#29252B" stroke-width="0.3" stroke-linecap="round" stroke-linejoin="round"/>
<path d="M215.54 132.06L247.205 113.629L247.102 150.31L215.432 168.746L215.54 132.06Z" fill="#4B415E" stroke="#29252B" stroke-width="0.3" stroke-linecap="round" stroke-linejoin="round"/>
<path d="M183.664 113.629L215.329 95.1985L247.205 113.629L215.54 132.06L183.664 113.629Z" fill="#8773A8" stroke="#29252B" stroke-width="0.3" stroke-linecap="round" stroke-linejoin="round"/>
<path d="M215.539 132.06L215.431 168.746L183.561 150.31L183.663 113.629L215.539 132.06Z" fill="#675A82" stroke="#29252B" stroke-width="0.3" stroke-linecap="round" stroke-linejoin="round"/>
<path d="M120.052 150.31L151.722 131.879L151.614 168.56L119.949 186.991L120.052 150.31Z" fill="#4B415E" stroke="#29252B" stroke-width="0.3" stroke-linecap="round" stroke-linejoin="round"/>
<path d="M88.1807 131.879L119.845 113.449L151.721 131.879L120.051 150.31L88.1807 131.879Z" fill="#8773A8" stroke="#29252B" stroke-width="0.3" stroke-linecap="round" stroke-linejoin="round"/>
<path d="M120.052 150.31L119.949 186.991L88.0732 168.56L88.1813 131.879L120.052 150.31Z" fill="#898989"/>
<path d="M88.3531 168.741L120.018 150.31L119.915 186.991L88.2451 205.422L88.3531 168.741Z" fill="#4B415E" stroke="#29252B" stroke-width="0.3" stroke-linecap="round" stroke-linejoin="round"/>
<path d="M56.4775 150.31L88.1425 131.879L120.018 150.31L88.3534 168.741L56.4775 150.31Z" fill="#8773A8" stroke="#29252B" stroke-width="0.3" stroke-linecap="round" stroke-linejoin="round"/>
<path d="M88.3527 168.741L88.2447 205.422L56.374 186.991L56.4769 150.31L88.3527 168.741Z" fill="#675A82" stroke="#29252B" stroke-width="0.3" stroke-linecap="round" stroke-linejoin="round"/>
<path d="M148.673 12.732L149.069 12.3713L149.635 12.0416L149.563 0.27832L148.596 0.834795L148.673 12.732Z" fill="#B7B6B6" stroke="#29252B" stroke-width="0.3" stroke-linecap="round" stroke-linejoin="round"/>
<path d="M149.564 0.278237L149.137 0L148.17 0.556474L148.597 0.834712L149.564 0.278237Z" fill="white" stroke="#29252B" stroke-width="0.3" stroke-linecap="round" stroke-linejoin="round"/>
<path d="M142.325 172.069V161.259L141.019 158.322V157.364V156.06V155.138L142.325 153.546V142.736L141.019 139.799V138.84V137.568V137.537V136.615L142.325 135.022V124.218L141.019 121.275V120.317V119.044V119.013V118.091L142.325 116.499V105.694L141.019 102.752V101.794V100.521V100.49V99.5678L142.325 97.9756V91.0455L140.71 90.1025V175.707L141.019 175.887V173.661L142.325 172.069Z" fill="#B7B6B6" stroke="#29252B" stroke-width="0.3" stroke-linecap="round" stroke-linejoin="round"/>
<path d="M142.088 175.202L142.325 175.341L142.36 175.361L142.088 175.202Z" fill="#B7B6B6" stroke="#29252B" stroke-width="0.3" stroke-linecap="round" stroke-linejoin="round"/>
<path d="M143.143 158.59L141.779 157.802L146.085 167.494L146.744 166.69L143.143 158.59Z" fill="#B7B6B6" stroke="#29252B" stroke-width="0.3" stroke-linecap="round" stroke-linejoin="round"/>
<path d="M146.868 169.256L150.469 177.361V175.078L147.527 168.452L146.868 169.256Z" fill="#B7B6B6" stroke="#29252B" stroke-width="0.3" stroke-linecap="round" stroke-linejoin="round"/>
<path d="M143.143 140.067L141.779 139.283L146.085 148.97L146.744 148.166L143.143 140.067Z" fill="#B7B6B6" stroke="#29252B" stroke-width="0.3" stroke-linecap="round" stroke-linejoin="round"/>
<path d="M146.868 150.732L150.469 158.837V156.555L147.527 149.929L146.868 150.732Z" fill="#B7B6B6" stroke="#29252B" stroke-width="0.3" stroke-linecap="round" stroke-linejoin="round"/>
<path d="M143.143 121.548L141.779 120.76L146.085 130.447L146.744 129.643L143.143 121.548Z" fill="#B7B6B6" stroke="#29252B" stroke-width="0.3" stroke-linecap="round" stroke-linejoin="round"/>
<path d="M146.868 132.209L150.469 140.314V138.031L147.527 131.405L146.868 132.209Z" fill="#B7B6B6" stroke="#29252B" stroke-width="0.3" stroke-linecap="round" stroke-linejoin="round"/>
<path d="M146.868 113.686L150.469 121.791V119.508L147.527 112.887L146.868 113.686Z" fill="#B7B6B6" stroke="#29252B" stroke-width="0.3" stroke-linecap="round" stroke-linejoin="round"/>
<path d="M143.143 103.025L141.779 102.237L146.085 111.923L146.744 111.125L143.143 103.025Z" fill="#B7B6B6" stroke="#29252B" stroke-width="0.3" stroke-linecap="round" stroke-linejoin="round"/>
<path d="M145.978 93.1631L146.086 93.3999L146.183 93.2815L145.978 93.1631Z" fill="#B7B6B6" stroke="#29252B" stroke-width="0.3" stroke-linecap="round" stroke-linejoin="round"/>
<path d="M146.868 95.1623L150.469 103.267V100.985L147.527 94.3636L146.868 95.1623Z" fill="#B7B6B6" stroke="#29252B" stroke-width="0.3" stroke-linecap="round" stroke-linejoin="round"/>
<path d="M142.653 174.388L142.524 174.542L141.752 174.991L141.742 175.001L142.087 175.202L142.36 175.362L144.736 176.732L150.467 180.05V178.907L150.061 178.675L142.653 174.388Z" fill="white" stroke="#29252B" stroke-width="0.3" stroke-linecap="round" stroke-linejoin="round"/>
<path d="M142.653 155.864L142.524 156.019L141.752 156.467L141.742 156.483L150.467 161.527V160.383L150.061 160.151L142.653 155.864Z" fill="white" stroke="#29252B" stroke-width="0.3" stroke-linecap="round" stroke-linejoin="round"/>
<path d="M142.653 137.341L142.524 137.495L141.752 137.944L141.742 137.959L150.467 143.003V141.86L150.061 141.628L142.653 137.341Z" fill="white" stroke="#29252B" stroke-width="0.3" stroke-linecap="round" stroke-linejoin="round"/>
<path d="M142.653 118.818L142.524 118.972L141.752 119.42L141.742 119.436L150.467 124.48V123.336L150.061 123.105L142.653 118.818Z" fill="white" stroke="#29252B" stroke-width="0.3" stroke-linecap="round" stroke-linejoin="round"/>
<path d="M142.653 100.294L142.524 100.449L141.752 100.897L141.742 100.912L150.467 105.957V104.818L150.061 104.581L142.653 100.294Z" fill="white" stroke="#29252B" stroke-width="0.3" stroke-linecap="round" stroke-linejoin="round"/>
<path d="M161.838 91.7564V97.7694L163.15 99.3667V100.289V100.325V101.593V102.551L161.838 105.503V116.293L163.15 117.89V118.812V118.848V120.116V121.074L161.838 124.027V134.816L163.15 136.414V137.336V137.367V138.639V139.598L161.838 142.55V153.34L163.15 154.937V155.859V157.163V158.121L161.838 161.074V171.863L163.15 173.46V175.686L163.458 175.506V90.8187L161.838 91.7564Z" fill="#DDDADA" stroke="#29252B" stroke-width="0.3" stroke-linecap="round" stroke-linejoin="round"/>
<path d="M163.459 175.506L165.074 174.573V89.881L163.459 90.8187V175.506Z" fill="#B7B6B6" stroke="#29252B" stroke-width="0.3" stroke-linecap="round" stroke-linejoin="round"/>
<path d="M153.7 174.883V177.16L157.301 169.055L156.648 168.251L153.7 174.883Z" fill="white" stroke="#29252B" stroke-width="0.3" stroke-linecap="round" stroke-linejoin="round"/>
<path d="M157.43 166.494L158.088 167.293L162.394 157.606L161.031 158.394L157.43 166.494Z" fill="white" stroke="#29252B" stroke-width="0.3" stroke-linecap="round" stroke-linejoin="round"/>
<path d="M157.43 147.971L158.088 148.769L162.394 139.083L161.031 139.871L157.43 147.971Z" fill="white" stroke="#29252B" stroke-width="0.3" stroke-linecap="round" stroke-linejoin="round"/>
<path d="M153.7 156.359V158.637L157.301 150.532L156.648 149.733L153.7 156.359Z" fill="white" stroke="#29252B" stroke-width="0.3" stroke-linecap="round" stroke-linejoin="round"/>
<path d="M157.43 129.447L158.088 130.246L162.394 120.559L161.031 121.347L157.43 129.447Z" fill="white" stroke="#29252B" stroke-width="0.3" stroke-linecap="round" stroke-linejoin="round"/>
<path d="M153.7 137.836V140.113L157.301 132.008L156.648 131.209L153.7 137.836Z" fill="white" stroke="#29252B" stroke-width="0.3" stroke-linecap="round" stroke-linejoin="round"/>
<path d="M158.088 111.723L162.394 102.036L161.031 102.824L157.43 110.924L158.088 111.723Z" fill="white" stroke="#29252B" stroke-width="0.3" stroke-linecap="round" stroke-linejoin="round"/>
<path d="M153.7 119.312V121.59L157.301 113.485L156.648 112.686L153.7 119.312Z" fill="white" stroke="#29252B" stroke-width="0.3" stroke-linecap="round" stroke-linejoin="round"/>
<path d="M153.7 103.066L157.301 94.9612L156.977 94.5645L156.288 94.9612L153.7 100.789V103.066Z" fill="white" stroke="#29252B" stroke-width="0.3" stroke-linecap="round" stroke-linejoin="round"/>
<path d="M161.649 174.341L161.52 174.187L154.107 178.474L153.7 178.711V179.849L161.35 175.423L161.808 175.161H161.813L162.425 174.805L162.415 174.79L161.649 174.341Z" fill="white" stroke="#29252B" stroke-width="0.3" stroke-linecap="round" stroke-linejoin="round"/>
<path d="M162.415 156.266L161.649 155.818L161.52 155.663L154.107 159.95L153.7 160.187V161.326L162.425 156.282L162.415 156.266Z" fill="white" stroke="#29252B" stroke-width="0.3" stroke-linecap="round" stroke-linejoin="round"/>
<path d="M162.415 137.743L161.649 137.295L161.52 137.14L154.107 141.427L153.7 141.664V142.803L162.425 137.758L162.415 137.743Z" fill="white" stroke="#29252B" stroke-width="0.3" stroke-linecap="round" stroke-linejoin="round"/>
<path d="M162.415 119.22L161.649 118.771L161.52 118.617L154.107 122.904L153.7 123.141V124.279L162.425 119.235L162.415 119.22Z" fill="white" stroke="#29252B" stroke-width="0.3" stroke-linecap="round" stroke-linejoin="round"/>
<path d="M161.52 100.093L154.107 104.38L153.7 104.617V105.756L162.425 100.712L162.415 100.696L161.649 100.248L161.52 100.093Z" fill="white" stroke="#29252B" stroke-width="0.3" stroke-linecap="round" stroke-linejoin="round"/>
<path d="M161.838 171.863L158.726 168.076L161.838 161.073L163.15 158.121V157.168V154.937L161.838 153.339L158.726 149.552L161.838 142.555L163.15 139.598V136.419L161.838 134.816L158.726 131.029L161.838 124.032L163.15 121.074V117.895L161.838 116.293L158.726 112.506L161.838 105.508L163.15 102.551V99.3718L161.838 97.7693L158.726 93.9822L158.983 93.4052L158.468 93.6937L157.239 94.4048L162.43 100.722H162.394L153.648 105.771V104.627L154.054 104.396L157.892 95.7547L157.249 94.9767L153.648 103.082V96.4709L152.619 97.0634L152.027 96.7183V182.096L152.501 181.823L152.537 181.874L152.583 181.776L152.784 181.658L153.226 181.4L153.632 181.168L153.741 181.107L154.008 180.957L160.963 176.938L161.771 176.469L162.322 176.155L163.083 175.717V173.491L161.838 171.863ZM158.083 167.293L157.424 166.494L154.075 162.413L161.025 158.394L162.389 157.606L158.083 167.293ZM158.083 148.743L157.424 147.945L154.075 143.864L161.025 139.845L162.389 139.057L158.083 148.743ZM158.083 130.194L157.424 129.396L154.075 125.315L161.025 121.296L162.389 120.508L158.083 130.194ZM161.025 102.773L162.389 101.984L158.083 111.671L157.424 110.872L154.075 106.791L161.025 102.773ZM153.699 123.089L154.106 122.857L157.944 114.216L157.301 113.433L153.699 121.543V108.538L162.445 119.194H162.409L153.663 124.238L153.699 123.089ZM153.699 141.638L154.106 141.401L157.944 132.765L157.301 131.982L153.699 140.092V127.087L162.445 137.743H162.409L153.663 142.787L153.699 141.638ZM153.699 160.187L154.106 159.95L157.944 151.315L157.301 150.531L153.699 158.641V145.636L162.445 156.292H162.409L153.663 161.336L153.699 160.187ZM161.807 175.161L161.349 175.428L153.699 179.849V178.711L154.106 178.474L157.944 169.838L157.301 169.055L153.699 177.165V164.16L162.445 174.815H162.409L161.807 175.161Z" fill="#B7B6B6" stroke="#29252B" stroke-width="0.3" stroke-linecap="round" stroke-linejoin="round"/>
<path d="M161.649 174.341L162.415 174.79L162.451 174.81L153.7 164.16V164.67L156.648 168.251L157.301 169.055L157.944 169.838L161.52 174.187L161.649 174.341Z" fill="#DDDADA" stroke="#29252B" stroke-width="0.3" stroke-linecap="round" stroke-linejoin="round"/>
<path d="M161.649 155.818L162.415 156.266L162.451 156.287L153.7 145.637V146.147L156.648 149.733L157.301 150.532L157.944 151.315L161.52 155.663L161.649 155.818Z" fill="#DDDADA" stroke="#29252B" stroke-width="0.3" stroke-linecap="round" stroke-linejoin="round"/>
<path d="M161.649 137.295L162.415 137.743L162.451 137.763L153.7 127.113V127.623L156.648 131.209L157.301 132.008L157.944 132.791L161.52 137.14L161.649 137.295Z" fill="#DDDADA" stroke="#29252B" stroke-width="0.3" stroke-linecap="round" stroke-linejoin="round"/>
<path d="M161.649 118.771L162.415 119.22L162.451 119.24L153.7 108.59V109.1L156.648 112.686L157.301 113.485L157.944 114.268L161.52 118.617L161.649 118.771Z" fill="#DDDADA" stroke="#29252B" stroke-width="0.3" stroke-linecap="round" stroke-linejoin="round"/>
<path d="M157.942 95.7445L161.517 100.093L161.646 100.248L162.412 100.696L162.448 100.717L157.258 94.3997L156.975 94.5645L157.299 94.9613L157.942 95.7445Z" fill="#DDDADA" stroke="#29252B" stroke-width="0.3" stroke-linecap="round" stroke-linejoin="round"/>
<path d="M156.555 56.8892L159.76 55.0446L160.501 54.617L160.526 54.5861L159.786 55.0137L159.724 55.0498L156.57 56.8738L156.555 56.8892Z" fill="#FFA90A"/>
<path d="M142.073 46.3986L142.443 44.5592L142.711 43.2453L142.716 43.2349L142.721 43.1989L142.839 42.6166L147.284 20.7132L146.78 20.4195L141.105 46.9551V47.0221L142.073 47.5785V46.3986Z" fill="#B7B6B6" stroke="#29252B" stroke-width="0.3" stroke-linecap="round" stroke-linejoin="round"/>
<path d="M163.429 52.9064V52.9322L164.396 52.3757V52.3499L163.871 52.6488L163.429 52.9064Z" fill="#B7B6B6" stroke="#29252B" stroke-width="0.3" stroke-linecap="round" stroke-linejoin="round"/>
<path d="M162.467 53.4834L163.429 52.9321V52.9063L162.467 53.4628V53.4834Z" fill="#DDDADA" stroke="#29252B" stroke-width="0.3" stroke-linecap="round" stroke-linejoin="round"/>
<path d="M162.466 53.4833L160.5 54.6168L159.76 55.0445L156.555 56.8891L153.643 58.5688L153.617 58.5843L153.643 59.4757L152.681 59.9549V97.048L153.699 96.4606L156.287 94.9612L156.976 94.5645L157.259 94.3996L158.489 93.6937L158.983 93.4052L161.838 91.7563L163.459 90.8186L165.074 89.8808L169.185 87.5055V49.5416L164.395 52.3755L163.428 52.9319L162.466 53.4833Z" fill="#B7B6B6" stroke="#29252B" stroke-width="0.3" stroke-linecap="round" stroke-linejoin="round"/>
<path d="M148.571 52.2314L147.886 52.2468L144.342 54.2976L146.724 55.6887L148.571 52.2314Z" fill="#B7B6B6" stroke="#29252B" stroke-width="0.3" stroke-linecap="round" stroke-linejoin="round"/>
<path d="M139.69 51.5924L142.232 53.0712L144.789 51.5924L142.237 50.1188L139.69 51.5924Z" fill="#B7B6B6" stroke="#29252B" stroke-width="0.3" stroke-linecap="round" stroke-linejoin="round"/>
<path d="M149.877 52.2004L151.183 52.1746L148.693 56.8325L150.545 57.9145L151.77 57.2035L151.703 52.1643L148.801 52.2261L149.877 52.2004Z" fill="#B7B6B6" stroke="#29252B" stroke-width="0.3" stroke-linecap="round" stroke-linejoin="round"/>
<path d="M151.009 45.0436L144.352 48.8977L146.898 50.3713L151.677 50.2683L151.605 44.6984L151.009 45.0436Z" fill="#B7B6B6" stroke="#29252B" stroke-width="0.3" stroke-linecap="round" stroke-linejoin="round"/>
<path d="M141.405 63.2012L138.174 62.2686V65.0664L141.405 63.2012Z" fill="#DDDADA" stroke="#29252B" stroke-width="0.3" stroke-linecap="round" stroke-linejoin="round"/>
<path d="M152.676 97.0531V59.9548L152.563 60.0115L151.966 23.4285V15.9727V14.0663L149.044 12.3763L148.648 12.7421L148.576 0.839718L148.149 0.561523L147.753 13.6026L146.122 20.0587L140.977 42.6681L140.838 43.2864L140.54 44.5951L140.133 46.3934V46.4603L141.096 47.0219V46.9704L146.755 20.44L147.269 20.7285L148.123 21.2438L151.164 23.0008L150.495 39.7569V42.5598L151.524 43.0751H151.554L151.585 45.3937L151.647 50.2629V50.8555V52.159L151.709 57.2034V58.337V59.6302L138.086 67.5085V88.6339L139.007 89.1491V174.753L140.622 175.686V90.1075L142.238 91.0453L144.558 92.3901L145.355 94.1832L142.238 97.9806L140.931 99.5676V102.752L142.238 105.694L145.355 112.707L142.238 116.499L140.931 118.091V121.275L142.238 124.217L145.355 131.23L142.238 135.022L140.931 136.614V139.799L142.238 142.741L145.355 149.753L142.238 153.546L140.931 155.138V157.369V158.322L142.238 161.259L145.355 168.277L142.238 172.069L140.931 173.661V175.887L141.692 176.325L142.238 176.639L143.05 177.108L150.001 181.122L150.212 181.24L150.268 181.271L150.376 181.333L150.783 181.565L151.225 181.823L151.431 181.941L151.508 181.982L151.812 182.163L151.976 182.07V96.6925L152.676 97.0531ZM145.988 93.163L146.194 93.2815L146.091 93.4L145.988 93.163ZM141.79 102.237L143.153 103.025L150.104 107.044L146.749 111.125L146.091 111.923L141.79 102.237ZM141.79 120.786L143.153 121.574L150.104 125.593L146.749 129.674L146.091 130.473L141.79 120.786ZM141.79 139.335L143.153 140.123L150.104 144.142L146.749 148.223L146.091 149.022L141.79 139.335ZM141.79 157.858L143.153 158.647L150.104 162.666L146.749 166.746L146.091 167.545L141.79 157.858ZM150.479 180.102L144.748 176.789L142.371 175.413H142.335L142.099 175.279L141.754 175.078L142.526 174.625L142.649 174.47L146.25 170.121L150.088 178.752L150.495 178.989L150.479 180.102ZM150.479 175.135V177.412L146.878 169.307L147.531 168.509L150.479 164.902V175.135ZM150.479 161.578L141.733 156.534L142.505 156.081L142.629 155.926L146.23 151.577L150.068 160.213L150.474 160.45L150.479 161.578ZM150.479 156.611V158.889L146.878 150.784L147.531 149.985L150.479 146.378V156.611ZM150.479 143.055L141.733 138.011L142.505 137.557L142.629 137.403L146.23 133.054L150.068 141.69L150.474 141.927L150.479 143.055ZM150.479 138.088V140.365L146.878 132.26L147.531 131.462L150.479 127.855V138.088ZM150.479 124.532L141.733 119.487L142.505 119.034L142.629 118.884L146.23 114.531L150.068 123.166L150.474 123.403L150.479 124.532ZM150.479 119.565V121.842L146.878 113.737L147.531 112.938L150.479 109.332V119.565ZM150.479 106.008L141.733 100.964L142.505 100.516L142.629 100.361L146.23 96.0072L150.068 104.643L150.474 104.88L150.479 106.008ZM150.479 101.041V103.319L146.878 95.2137L147.531 94.415L147.701 94.209L150.479 95.8217V101.041Z" fill="#DDDADA" stroke="#29252B" stroke-width="0.3" stroke-linecap="round" stroke-linejoin="round"/>
<path d="M148.692 56.8324L147.025 59.9445L150.544 57.9144L148.692 56.8324Z" fill="#DDDADA" stroke="#29252B" stroke-width="0.3" stroke-linecap="round" stroke-linejoin="round"/>
<path d="M138.174 52.4683V55.4155L142.233 53.0711L139.691 51.5923L138.174 52.4683Z" fill="#DDDADA" stroke="#29252B" stroke-width="0.3" stroke-linecap="round" stroke-linejoin="round"/>
<path d="M19.5377 121.069V121.059V119.766L19.5892 119.735L12.3662 117.658L16.9809 120.327L18.0407 120.631L17.7732 120.786L18.8998 121.435L19.5377 121.069Z" fill="#B7B6B6" stroke="#29252B" stroke-width="0.3" stroke-linecap="round" stroke-linejoin="round"/>
<path d="M38.0911 110.28V109.038L38.2043 108.971L28.5633 106.199L28.8978 106.008L39.8095 99.6965V98.3929L25.1113 106.895L26.2431 107.544L27.128 108.054L27.555 107.255L35.3337 109.492L36.6506 109.868L33.4558 111.717L34.5825 112.367L38.0911 110.342V110.28Z" fill="#B7B6B6" stroke="#29252B" stroke-width="0.3" stroke-linecap="round" stroke-linejoin="round"/>
<path d="M109.745 67.6013L96.1787 75.4486L97.3053 76.0979L110.877 68.2557L109.745 67.6013Z" fill="#B7B6B6" stroke="#29252B" stroke-width="0.3" stroke-linecap="round" stroke-linejoin="round"/>
<path d="M56.6413 99.5008V98.3106L56.8162 98.2075L47.1753 95.4406L47.5045 95.2448L55.4889 90.6333V89.3297L40.7959 97.8262L41.9225 98.4755L42.7921 97.9705L44.6595 96.8936L43.3682 99.3153L44.3559 99.8821L46.1668 96.4917L53.9455 98.7279L55.2625 99.1041L49.1353 102.649L50.262 103.303L56.6413 99.6142V99.5008Z" fill="#B7B6B6" stroke="#29252B" stroke-width="0.3" stroke-linecap="round" stroke-linejoin="round"/>
<path d="M18.6135 119.158L18.6084 119.163L18.634 119.168L19.5961 119.73L18.6135 119.158Z" fill="white" stroke="#29252B" stroke-width="0.3" stroke-linecap="round" stroke-linejoin="round"/>
<path d="M133.137 54.0759L141.111 49.4696L140.123 48.8976L134.022 52.4271L133.137 54.0759Z" fill="white" stroke="#29252B" stroke-width="0.3" stroke-linecap="round" stroke-linejoin="round"/>
<path d="M55.8548 97.6458L56.8221 98.2023L55.8343 97.6355L55.8291 97.6406L55.8548 97.6458Z" fill="white" stroke="#29252B" stroke-width="0.3" stroke-linecap="round" stroke-linejoin="round"/>
<path d="M78.3822 85.7383L77.8111 85.4086L77.3018 86.3618L78.3822 85.7383Z" fill="white" stroke="#29252B" stroke-width="0.3" stroke-linecap="round" stroke-linejoin="round"/>
<path d="M130.301 54.5964L131.268 55.158V55.1528L130.286 54.5861L130.275 54.5912L130.301 54.5964Z" fill="white" stroke="#29252B" stroke-width="0.3" stroke-linecap="round" stroke-linejoin="round"/>
<path d="M58.6904 97.1253L62.7032 94.8015L61.7205 94.2347L59.5753 95.4765L58.6904 97.1253Z" fill="white" stroke="#29252B" stroke-width="0.3" stroke-linecap="round" stroke-linejoin="round"/>
<path d="M2.85449 129.411L15.6594 122.007L14.6767 121.435L3.7342 127.762L2.85449 129.411Z" fill="white" stroke="#29252B" stroke-width="0.3" stroke-linecap="round" stroke-linejoin="round"/>
<path d="M74.467 86.8822L75.4343 87.4438L74.4464 86.8719L74.4414 86.877L74.467 86.8822Z" fill="white" stroke="#29252B" stroke-width="0.3" stroke-linecap="round" stroke-linejoin="round"/>
<path d="M93.0804 76.1237L94.0476 76.6801L93.0598 76.1082L93.0547 76.1134L93.0804 76.1237Z" fill="white" stroke="#29252B" stroke-width="0.3" stroke-linecap="round" stroke-linejoin="round"/>
<path d="M111.696 65.36L112.663 65.9165L111.675 65.3497H111.665L111.696 65.36Z" fill="white" stroke="#29252B" stroke-width="0.3" stroke-linecap="round" stroke-linejoin="round"/>
<path d="M40.0771 107.889L47.0223 103.87L46.0396 103.303L40.962 106.235L40.0771 107.889Z" fill="white" stroke="#29252B" stroke-width="0.3" stroke-linecap="round" stroke-linejoin="round"/>
<path d="M21.4678 118.648L31.3403 112.939L30.3576 112.367L22.3476 116.999L21.4678 118.648Z" fill="white" stroke="#29252B" stroke-width="0.3" stroke-linecap="round" stroke-linejoin="round"/>
<path d="M114.528 64.8396L125.425 58.5328L124.442 57.9661L115.408 63.1856L114.528 64.8396Z" fill="white" stroke="#29252B" stroke-width="0.3" stroke-linecap="round" stroke-linejoin="round"/>
<path d="M37.2425 108.409L38.2097 108.966L37.2271 108.394L37.2168 108.399L37.2425 108.409Z" fill="white" stroke="#29252B" stroke-width="0.3" stroke-linecap="round" stroke-linejoin="round"/>
<path d="M140.853 43.2813L140.992 42.663L133.893 42.8485L134.88 43.4204L140.853 43.2813Z" fill="white" stroke="#29252B" stroke-width="0.3" stroke-linecap="round" stroke-linejoin="round"/>
<path d="M137.051 44.6777L137.9 45.1672L138.172 44.6519L140.554 44.6004L140.853 43.2916L134.88 43.4204L137.051 44.6777Z" fill="#B7B6B6" stroke="#29252B" stroke-width="0.3" stroke-linecap="round" stroke-linejoin="round"/>
<path d="M1.97085 129.921L2.43896 130.189L3.10264 130.57L16.7873 122.656L15.6607 122.007L2.85571 129.411L3.73541 127.762L8.9006 118.096L8.5817 117.911L8.44793 117.833V116.53L0.988281 130.493L1.97085 129.921Z" fill="#B7B6B6" stroke="#29252B" stroke-width="0.3" stroke-linecap="round" stroke-linejoin="round"/>
<path d="M21.0198 119.482L21.6526 119.843L32.4665 113.593L31.3399 112.939L21.4673 118.648L22.3471 116.999L26.1283 109.924L25.1406 109.352L19.5947 119.73L20.5259 119.194L21.0198 119.482Z" fill="#B7B6B6" stroke="#29252B" stroke-width="0.3" stroke-linecap="round" stroke-linejoin="round"/>
<path d="M42.7934 97.9703L42.3818 98.7432L43.3696 99.3151L44.6609 96.8934L42.7934 97.9703Z" fill="#DDDADA" stroke="#29252B" stroke-width="0.3" stroke-linecap="round" stroke-linejoin="round"/>
<path d="M39.6073 108.77L40.2042 109.115L48.1474 104.525L47.0208 103.87L40.0756 107.889L40.9604 106.235L43.3577 101.752L42.37 101.181L38.208 108.966L39.0774 108.466L39.6073 108.77Z" fill="#B7B6B6" stroke="#29252B" stroke-width="0.3" stroke-linecap="round" stroke-linejoin="round"/>
<path d="M61.4058 87.2119L59.6104 90.5714L60.5981 91.1433L63.2732 86.1299L61.4058 87.2119Z" fill="#DDDADA" stroke="#29252B" stroke-width="0.3" stroke-linecap="round" stroke-linejoin="round"/>
<path d="M57.6289 97.7386L58.1897 98.0632L58.7555 98.3929L63.8282 95.456L62.7015 94.8016L58.6887 97.1254L59.5736 95.4766L60.5819 93.5805L59.5993 93.0085L56.8213 98.2023L57.6289 97.7386Z" fill="#B7B6B6" stroke="#29252B" stroke-width="0.3" stroke-linecap="round" stroke-linejoin="round"/>
<path d="M80.0192 76.4482L76.8398 82.3994L77.8276 82.9661L81.8867 75.3661L80.0192 76.4482Z" fill="#DDDADA" stroke="#29252B" stroke-width="0.3" stroke-linecap="round" stroke-linejoin="round"/>
<path d="M76.1805 87.0109L76.7721 87.3509L77.3071 87.6652L79.509 86.3874L78.3824 85.7382L77.302 86.3616L77.8113 85.4084L76.8287 84.8365L75.4346 87.4437L76.1805 87.0109Z" fill="#B7B6B6" stroke="#29252B" stroke-width="0.3" stroke-linecap="round" stroke-linejoin="round"/>
<path d="M98.6306 65.6846L94.0674 74.2275L95.05 74.7943L100.498 64.6077L98.6306 65.6846Z" fill="#DDDADA" stroke="#29252B" stroke-width="0.3" stroke-linecap="round" stroke-linejoin="round"/>
<path d="M94.0524 76.6647L94.0469 76.6812L94.0634 76.6702L94.0524 76.6647Z" fill="#B7B6B6" stroke="#29252B" stroke-width="0.3" stroke-linecap="round" stroke-linejoin="round"/>
<path d="M117.24 54.9209L111.674 65.3497L112.662 65.9164L118.686 54.6375L119.674 55.2095L124.443 57.9661L125.425 58.5329L126.557 59.1872L129.109 60.6609L130.236 60.0116L118.213 53.0609V54.3644L117.24 54.9209Z" fill="#DDDADA" stroke="#29252B" stroke-width="0.3" stroke-linecap="round" stroke-linejoin="round"/>
<path d="M113.942 65.9319L114.416 66.205L126.557 59.1873L125.425 58.5329L114.529 64.8396L115.408 63.1856L119.673 55.2095L118.686 54.6376L112.661 65.9165L113.284 65.5558L113.942 65.9319Z" fill="#B7B6B6" stroke="#29252B" stroke-width="0.3" stroke-linecap="round" stroke-linejoin="round"/>
<path d="M132.525 55.225L132.967 55.4826L138.174 52.4683L139.691 51.5924L142.238 50.1188L141.111 49.4696L133.137 54.0759L134.022 52.4271L136.903 47.0324L135.915 46.4656L131.27 55.1528L131.835 54.8282L132.525 55.225Z" fill="#B7B6B6" stroke="#29252B" stroke-width="0.3" stroke-linecap="round" stroke-linejoin="round"/>
<path d="M19.5968 119.73L18.6347 119.168L18.609 119.163L11.3809 117.086L12.3686 117.658L19.5916 119.735L19.5968 119.73Z" fill="#DDDADA" stroke="#29252B" stroke-width="0.3" stroke-linecap="round" stroke-linejoin="round"/>
<path d="M37.2157 108.399L28.897 106.008L28.5625 106.199L38.2035 108.971L38.2086 108.966L37.2415 108.41L37.2157 108.399Z" fill="#DDDADA" stroke="#29252B" stroke-width="0.3" stroke-linecap="round" stroke-linejoin="round"/>
<path d="M55.8556 97.6458L55.8299 97.6407L47.506 95.2448L47.1768 95.4406L56.8177 98.2075L56.8229 98.2023L55.8556 97.6458Z" fill="#DDDADA" stroke="#29252B" stroke-width="0.3" stroke-linecap="round" stroke-linejoin="round"/>
<path d="M74.4679 86.8823L74.4423 86.8771L66.1183 84.4863L65.7891 84.677L75.43 87.4439H75.4352L74.4679 86.8823Z" fill="#DDDADA" stroke="#29252B" stroke-width="0.3" stroke-linecap="round" stroke-linejoin="round"/>
<path d="M93.0813 76.1237L93.0556 76.1134L84.7317 73.7227L84.4023 73.9133L94.0381 76.6854L94.0484 76.6802L93.0813 76.1237Z" fill="#DDDADA" stroke="#29252B" stroke-width="0.3" stroke-linecap="round" stroke-linejoin="round"/>
<path d="M112.661 65.9165L111.694 65.36L111.663 65.3497L108.52 64.448L109.502 65.0148L112.651 65.9216L112.661 65.9165Z" fill="#DDDADA" stroke="#29252B" stroke-width="0.3" stroke-linecap="round" stroke-linejoin="round"/>
<path d="M112.65 65.9216L109.502 65.0147L112.301 66.6326V66.1277L112.65 65.9216Z" fill="#B7B6B6" stroke="#29252B" stroke-width="0.3" stroke-linecap="round" stroke-linejoin="round"/>
<path d="M130.302 54.5963L130.276 54.5911L121.957 52.1952L121.623 52.391L131.264 55.1579H131.269L130.302 54.5963Z" fill="#DDDADA" stroke="#29252B" stroke-width="0.3" stroke-linecap="round" stroke-linejoin="round"/>
<path d="M72.1565 79.6892L73.2832 80.3436L80.0174 76.4483L81.885 75.3662L77.8258 82.9662L78.8085 83.5382L83.3872 74.9643L91.1709 77.2005L92.4879 77.5818L80.4958 84.512L81.6226 85.1664L93.7431 78.1589V77.9425V76.8553L94.0364 76.6853L84.4006 73.9132L84.7299 73.7226L86.8494 72.4963V71.1927L87.8372 70.6207L88.9639 71.2751L98.6305 65.6846L100.498 64.6077L95.0499 74.7943L96.0377 75.3662L96.794 73.9493L102 64.2058L105.715 65.2724L102.53 63.4278V62.1242L103.518 61.5574L104.645 62.2066L117.239 54.9209L118.211 54.3645V53.0609L119.199 52.4889L120.325 53.1382L121.076 53.5761L128.392 55.6784L129.709 56.0545L127.538 57.3117L128.67 57.9661L130.851 56.7037V56.3843V55.4001L131.263 55.158L121.622 52.391L121.956 52.1952L133.892 45.296V43.9924L134.879 43.4205L71.5186 80.055L72.1565 79.6892Z" fill="#B7B6B6" stroke="#29252B" stroke-width="0.3" stroke-linecap="round" stroke-linejoin="round"/>
<path d="M24.1288 107.462L9.43066 115.958L10.5624 116.612L24.1288 108.765V107.462Z" fill="#B7B6B6" stroke="#29252B" stroke-width="0.3" stroke-linecap="round" stroke-linejoin="round"/>
<path d="M57.6054 89.4068L61.4073 87.2118L63.2747 86.1298L60.5996 91.1432L61.5823 91.71L64.7822 85.7279L72.5607 87.9641L73.8778 88.3454L64.8181 93.5804L65.9449 94.2347L75.1948 88.8864V88.7215V87.5828L75.4314 87.4437L65.7905 84.6768L66.1197 84.4861L71.1717 81.5646V80.261L55.8975 89.0925L56.4787 88.7576L57.6054 89.4068Z" fill="#B7B6B6" stroke="#29252B" stroke-width="0.3" stroke-linecap="round" stroke-linejoin="round"/>
<path d="M2.43896 130.189L1.97085 129.921L0.988281 130.493L13.006 137.444L13.4742 136.573L3.10264 130.57L2.43896 130.189Z" fill="white" stroke="#29252B" stroke-width="0.3" stroke-linecap="round" stroke-linejoin="round"/>
<path d="M31.4024 126.624L25.3317 123.115L24.2051 123.764L26.9163 125.335L31.4024 126.624Z" fill="#DDDADA" stroke="#29252B" stroke-width="0.3" stroke-linecap="round" stroke-linejoin="round"/>
<path d="M19.5391 121.059V121.069L22.0909 122.543L23.2175 121.889L19.5391 119.766V121.059Z" fill="#DDDADA" stroke="#29252B" stroke-width="0.3" stroke-linecap="round" stroke-linejoin="round"/>
<path d="M31.6137 126.685L31.6187 126.68L32.056 125.861L26.3147 122.543L25.332 123.115L31.4027 126.624L31.6137 126.685Z" fill="white" stroke="#29252B" stroke-width="0.3" stroke-linecap="round" stroke-linejoin="round"/>
<path d="M21.0208 119.482L20.5269 119.194L19.5957 119.73L19.5906 119.735L19.5391 119.766L23.2175 121.889L24.2052 121.322L21.6535 119.843L21.0208 119.482Z" fill="white" stroke="#29252B" stroke-width="0.3" stroke-linecap="round" stroke-linejoin="round"/>
<path d="M49.774 115.793L43.8835 112.387L42.7568 113.037L45.2931 114.505L49.774 115.793Z" fill="#DDDADA" stroke="#29252B" stroke-width="0.3" stroke-linecap="round" stroke-linejoin="round"/>
<path d="M38.0898 110.28V110.342L40.6415 111.815L41.7683 111.161L38.0898 109.038V110.28Z" fill="#DDDADA" stroke="#29252B" stroke-width="0.3" stroke-linecap="round" stroke-linejoin="round"/>
<path d="M50.2252 115.922L50.2303 115.917L50.6419 115.154L44.8696 111.815L43.8818 112.387L49.7724 115.793L50.2252 115.922Z" fill="white" stroke="#29252B" stroke-width="0.3" stroke-linecap="round" stroke-linejoin="round"/>
<path d="M39.6075 108.77L39.0776 108.466L38.2082 108.966L38.203 108.971L38.0898 109.038L41.7683 111.161L42.756 110.594L40.2043 109.115L39.6075 108.77Z" fill="white" stroke="#29252B" stroke-width="0.3" stroke-linecap="round" stroke-linejoin="round"/>
<path d="M68.1508 104.962L62.4352 101.66L61.3086 102.309L63.6699 103.674L68.1508 104.962Z" fill="#DDDADA" stroke="#29252B" stroke-width="0.3" stroke-linecap="round" stroke-linejoin="round"/>
<path d="M56.6416 99.5007V99.614L59.1933 101.088L60.3199 100.438L56.6416 98.3104V99.5007Z" fill="#DDDADA" stroke="#29252B" stroke-width="0.3" stroke-linecap="round" stroke-linejoin="round"/>
<path d="M68.8354 105.158H68.8457L69.2264 104.442L63.4233 101.088L62.4355 101.66L68.1511 104.962L68.8354 105.158Z" fill="white" stroke="#29252B" stroke-width="0.3" stroke-linecap="round" stroke-linejoin="round"/>
<path d="M58.1901 98.0631L57.6293 97.7385L56.8217 98.2023L56.8166 98.2074L56.6416 98.3105L60.3199 100.438L61.3078 99.8665L58.756 98.3929L58.1901 98.0631Z" fill="white" stroke="#29252B" stroke-width="0.3" stroke-linecap="round" stroke-linejoin="round"/>
<path d="M86.5217 94.1317L80.9861 90.9319L79.8594 91.5812L82.0407 92.8435L86.5217 94.1317Z" fill="#DDDADA" stroke="#29252B" stroke-width="0.3" stroke-linecap="round" stroke-linejoin="round"/>
<path d="M75.1943 88.7217V88.8865L77.746 90.3602L78.8727 89.7109L75.1943 87.5829V88.7217Z" fill="#DDDADA" stroke="#29252B" stroke-width="0.3" stroke-linecap="round" stroke-linejoin="round"/>
<path d="M87.4488 94.3998L87.4591 94.3946L87.809 93.7351L81.975 90.3602L80.9873 90.9321L86.5229 94.1318L87.4488 94.3998Z" fill="white" stroke="#29252B" stroke-width="0.3" stroke-linecap="round" stroke-linejoin="round"/>
<path d="M76.7736 87.3512L76.1821 87.0111L75.4361 87.4439H75.431L75.1943 87.583L78.8727 89.711L79.8604 89.1391L77.3087 87.6655L76.7736 87.3512Z" fill="white" stroke="#29252B" stroke-width="0.3" stroke-linecap="round" stroke-linejoin="round"/>
<path d="M104.897 83.3011L99.5358 80.2044L98.4092 80.8536L100.41 82.013L104.897 83.3011Z" fill="#DDDADA" stroke="#29252B" stroke-width="0.3" stroke-linecap="round" stroke-linejoin="round"/>
<path d="M93.7451 77.9424V78.1588L96.2969 79.6324L97.4287 78.9781L93.7451 76.8552V77.9424Z" fill="#DDDADA" stroke="#29252B" stroke-width="0.3" stroke-linecap="round" stroke-linejoin="round"/>
<path d="M106.061 83.6359L106.066 83.6308L106.39 83.0228L100.525 79.6324L99.5371 80.2043L104.898 83.301L106.061 83.6359Z" fill="white" stroke="#29252B" stroke-width="0.3" stroke-linecap="round" stroke-linejoin="round"/>
<path d="M94.0487 76.68L94.0384 76.6851L93.7451 76.8552L97.4287 78.978L97.7425 78.7977L94.0641 76.6697L94.0487 76.68Z" fill="white" stroke="#29252B" stroke-width="0.3" stroke-linecap="round" stroke-linejoin="round"/>
<path d="M123.269 72.4704L118.094 69.4768L116.962 70.126L118.788 71.1823L123.269 72.4704Z" fill="#DDDADA" stroke="#29252B" stroke-width="0.3" stroke-linecap="round" stroke-linejoin="round"/>
<path d="M112.303 66.6326L115.539 68.5082L115.981 68.2505L112.303 66.1277V66.6326Z" fill="#DDDADA" stroke="#29252B" stroke-width="0.3" stroke-linecap="round" stroke-linejoin="round"/>
<path d="M124.673 72.8724H124.678V72.8672L124.976 72.3159L119.075 68.9049L118.093 69.4768L123.268 72.4705L124.673 72.8724Z" fill="white" stroke="#29252B" stroke-width="0.3" stroke-linecap="round" stroke-linejoin="round"/>
<path d="M113.944 65.9319L113.285 65.5558L112.663 65.9165L112.653 65.9216L112.303 66.1277L115.981 68.2506L116.964 67.6838L114.417 66.205L113.944 65.9319Z" fill="white" stroke="#29252B" stroke-width="0.3" stroke-linecap="round" stroke-linejoin="round"/>
<path d="M141.646 61.64L136.645 58.7494L135.519 59.3986L137.16 60.3518L141.646 61.64Z" fill="#DDDADA" stroke="#29252B" stroke-width="0.3" stroke-linecap="round" stroke-linejoin="round"/>
<path d="M130.852 56.3843V56.7037L133.403 58.1774L134.53 57.523L130.852 55.4001V56.3843Z" fill="#DDDADA" stroke="#29252B" stroke-width="0.3" stroke-linecap="round" stroke-linejoin="round"/>
<path d="M143.287 62.1086H143.292L143.56 61.6036L138.173 58.4915L137.628 58.1772L136.646 58.7491L141.646 61.6397L143.287 62.1086Z" fill="white" stroke="#29252B" stroke-width="0.3" stroke-linecap="round" stroke-linejoin="round"/>
<path d="M132.524 55.2249L131.834 54.8282L131.268 55.1528V55.1579H131.263L130.852 55.4001L134.53 57.523L135.518 56.9562L132.966 55.4826L132.524 55.2249Z" fill="white" stroke="#29252B" stroke-width="0.3" stroke-linecap="round" stroke-linejoin="round"/>
<path d="M20.4664 123.486L21.4542 122.914L18.8819 121.44L17.7553 120.786L18.0176 120.631L16.9887 120.327L12.3586 117.658L11.3708 117.091L10.5477 116.612L9.42102 115.963L24.114 107.467L36.1369 114.417L35.0102 115.067L24.2066 121.322L23.2239 121.894L22.0921 122.543L20.4716 123.486L21.4593 124.053L147.893 50.9432L146.905 50.3764L144.333 48.8976L143.206 48.2484L149.894 44.3943L147.836 44.4407L142.239 47.6765L142.079 47.5837L141.112 47.0272L140.15 46.4656L137.902 45.1672L137.058 44.6519L134.882 43.3947L133.899 43.9667L145.917 50.9174L144.791 51.5718L142.218 53.0454L138.159 55.395L135.499 56.9407L134.512 57.5127L133.385 58.1619L131.204 59.4243L128.631 57.9507L127.505 57.3014L129.676 56.0442L128.359 55.6629L126.517 56.7295L121.038 53.5607L120.287 53.1278L119.16 52.4735L118.178 53.0454L130.195 59.9962L129.069 60.6506L116.927 67.6684L115.94 68.2403L115.502 68.4928L112.261 66.6224L109.468 65.0045L108.48 64.4325L104.606 62.1964L103.479 61.542L102.497 62.1139L114.515 69.0647L113.486 69.6572L113.383 69.7139L99.8165 77.5612L97.2442 76.0876L96.1176 75.4332L109.684 67.5911L108.696 67.0191L96.807 73.9493L96.0507 75.3662L95.063 74.7995L94.0752 74.2275L88.9718 71.2751L87.8451 70.6259L86.8625 71.1978L98.8803 78.1486L97.7536 78.7978L97.4346 78.9833L96.308 79.6325L84.177 86.6451L81.6047 85.1664L80.4781 84.5171L92.4701 77.5818L91.1479 77.2057L79.4903 83.9452L78.8009 83.5536L77.8131 82.9817L76.8306 82.4098L73.2705 80.3488L72.1439 79.6995L71.511 80.0653L134.877 43.4205L133.894 42.8537L119.129 51.3863L100.521 62.1499L7.46094 115.963L8.44354 116.53L20.4664 123.486ZM71.1664 80.2611L83.1893 87.2119L82.0626 87.8663L79.8607 89.139L78.8729 89.7109L77.7463 90.3601L76.3007 91.1948L68.5117 95.7136L65.9394 94.2348L64.8128 93.5856L73.8724 88.3455L72.5554 87.9693L63.8096 93.0137L61.5614 91.7152L60.5736 91.1433L59.591 90.5714L57.5795 89.4121L56.4529 88.7577L55.8715 89.0978L71.1664 80.2611ZM50.2639 103.303L49.1372 102.649L55.2644 99.1091L53.9474 98.7278L48.1495 102.082L44.3528 99.8872L43.3701 99.3152L42.3824 98.7433L41.9194 98.4805L40.7927 97.8261L55.4857 89.3296L67.5086 96.2804L66.3819 96.9348L61.3093 99.8666L60.3215 100.439L59.1949 101.088L51.8278 105.349L50.7012 106.003L42.7528 110.594L41.7702 111.166L40.6435 111.815L37.1349 113.845L34.5626 112.372L33.436 111.717L36.6308 109.873L35.3137 109.492L32.4482 111.151L27.103 108.059L26.2181 107.544L25.0914 106.89L39.7844 98.393L51.8073 105.344L52.795 104.772L50.2639 103.303Z" fill="white" stroke="#29252B" stroke-width="0.3" stroke-linecap="round" stroke-linejoin="round"/>
<path d="M24.154 108.781L18.6133 119.158L19.5959 119.73L25.1417 109.353L26.1295 109.924L30.3583 112.367L31.341 112.939L32.4676 113.593L35.0193 115.067L36.1459 114.412L24.1283 107.462V108.765L24.154 108.781Z" fill="#DDDADA" stroke="#29252B" stroke-width="0.3" stroke-linecap="round" stroke-linejoin="round"/>
<path d="M39.8092 99.6965L41.3834 100.609L37.2266 108.394L38.2091 108.966L42.3711 101.18L43.3589 101.752L46.0392 103.303L47.0219 103.87L48.1485 104.524L50.7002 105.998L51.8268 105.349L39.8092 98.3929V99.6965Z" fill="#DDDADA" stroke="#29252B" stroke-width="0.3" stroke-linecap="round" stroke-linejoin="round"/>
<path d="M55.4902 90.6333L58.613 92.4367L55.8349 97.6356L56.8227 98.2024L59.6008 93.0086L60.5833 93.5806L61.7203 94.2349L62.703 94.8017L63.8296 95.4561L66.3813 96.9297L67.5079 96.2805L55.4902 89.3297V90.6333Z" fill="#DDDADA" stroke="#29252B" stroke-width="0.3" stroke-linecap="round" stroke-linejoin="round"/>
<path d="M75.8422 84.2646L74.4479 86.8718L75.4358 87.4437L76.8299 84.8365L77.8125 85.4084L78.3836 85.7382L79.5103 86.3874L82.062 87.861L83.1937 87.2118L71.1709 80.261V81.5646L75.8422 84.2646Z" fill="#DDDADA" stroke="#29252B" stroke-width="0.3" stroke-linecap="round" stroke-linejoin="round"/>
<path d="M86.8516 72.4963L93.0714 76.0928L93.0611 76.1082L94.0488 76.6801L94.054 76.6647L94.0643 76.6698L97.7426 78.7978L98.8745 78.1435L86.8516 71.1927V72.4963Z" fill="#DDDADA" stroke="#29252B" stroke-width="0.3" stroke-linecap="round" stroke-linejoin="round"/>
<path d="M105.716 65.2723L108.761 67.0294L109.744 67.6013L110.876 68.2557L113.422 69.7293L113.525 69.6675L114.554 69.0749L102.531 62.1241V63.4277L105.716 65.2723Z" fill="#DDDADA" stroke="#29252B" stroke-width="0.3" stroke-linecap="round" stroke-linejoin="round"/>
<path d="M133.893 45.2959L134.928 45.8936L130.287 54.5859L131.27 55.1527L135.915 46.4655L136.903 47.0323L140.124 48.8975L141.111 49.4695L142.238 50.1187L144.79 51.5923L145.916 50.9431L133.893 43.9923V45.2959Z" fill="#DDDADA" stroke="#29252B" stroke-width="0.3" stroke-linecap="round" stroke-linejoin="round"/>
<path d="M151.779 58.3422L146.146 61.5987L147.026 59.9498L148.688 56.8583L151.178 52.1953L149.871 52.2262L144.274 62.7013L134.607 59.9241L134.941 59.7334L135.492 59.414L136.618 58.7596L137.606 58.1877L138.151 57.8734L144.325 54.3078L147.875 52.2468H148.554H148.785L151.692 52.185V50.8813L147.895 50.9638L21.4517 124.053L13.9766 138.016V139.32L138.157 67.5138L151.779 59.6355V58.3422ZM15.8595 136.934L16.7392 135.285L21.9455 125.542L29.7293 127.778L31.0463 128.154L15.8595 136.934ZM22.959 124.485L23.2883 124.295L24.1989 123.779L25.3255 123.125L26.3133 122.553L37.1889 116.267L39.0564 115.19L32.6051 127.263L22.959 124.485ZM34.4726 126.175L35.3523 124.521L40.5587 114.778L48.3373 117.014L49.6594 117.39L34.4726 126.175ZM41.567 113.727L41.9014 113.531L42.7503 113.016L43.882 112.362L44.8647 111.79L55.7969 105.473L57.6644 104.39L51.2131 116.463L41.567 113.727ZM53.0857 115.412L53.9654 113.763L59.1717 104.014L66.9504 106.251L68.2674 106.632L53.0857 115.412ZM60.1801 102.963L60.5145 102.773L61.3068 102.314L62.4334 101.66L63.416 101.088L74.41 94.7346L76.2775 93.6526L69.8262 105.71L60.1801 102.963ZM71.6937 104.648L72.5786 102.999L77.7849 93.2507L85.5635 95.4869L86.8805 95.8682L71.6937 104.648ZM78.7932 92.1996L79.1225 92.009L79.8582 91.5864L80.9848 90.932L81.9726 90.3601L93.0232 83.971L94.8906 82.8889L88.4393 94.9665L78.7932 92.1996ZM90.3068 93.8845L91.1865 92.2356L96.398 82.4922L104.177 84.7284L105.494 85.1045L90.3068 93.8845ZM97.4064 81.4359L97.7356 81.2453L98.4095 80.8589L99.5362 80.2045L100.524 79.6326L111.636 73.2073L113.504 72.1304L107.052 84.2029L97.4064 81.4359ZM108.92 83.126L109.8 81.472L115.006 71.7286L122.79 73.9648L124.107 74.3409L108.92 83.126ZM116.019 70.6774L116.349 70.4816L116.961 70.1312L118.088 69.4769L119.075 68.9049L130.244 62.4282L132.117 61.3462L125.666 73.4237L116.019 70.6774ZM127.533 72.3623L128.413 70.7135L133.619 60.9649L138.172 62.2736L141.398 63.2011L142.72 63.5824L127.533 72.3623Z" fill="#B7B6B6" stroke="#29252B" stroke-width="0.3" stroke-linecap="round" stroke-linejoin="round"/>
<path d="M124.68 72.8672V72.8724H124.675L124.701 72.8827L125.668 73.4392L124.68 72.8672Z" fill="white" stroke="#29252B" stroke-width="0.3" stroke-linecap="round" stroke-linejoin="round"/>
<path d="M53.9676 113.758L53.0879 115.407L68.2746 106.627L66.9577 106.25L53.9676 113.758Z" fill="white" stroke="#29252B" stroke-width="0.3" stroke-linecap="round" stroke-linejoin="round"/>
<path d="M35.3533 124.521L34.4736 126.17L49.6605 117.39L48.3434 117.009L35.3533 124.521Z" fill="white" stroke="#29252B" stroke-width="0.3" stroke-linecap="round" stroke-linejoin="round"/>
<path d="M68.8389 105.158L68.8646 105.169L69.8317 105.725L68.844 105.158H68.8389Z" fill="white" stroke="#29252B" stroke-width="0.3" stroke-linecap="round" stroke-linejoin="round"/>
<path d="M106.062 83.6361L106.087 83.6413L107.054 84.2029L106.067 83.631L106.062 83.6361Z" fill="white" stroke="#29252B" stroke-width="0.3" stroke-linecap="round" stroke-linejoin="round"/>
<path d="M31.6133 126.685L31.6389 126.691L32.6062 127.252L31.6183 126.68L31.6133 126.685Z" fill="white" stroke="#29252B" stroke-width="0.3" stroke-linecap="round" stroke-linejoin="round"/>
<path d="M50.2266 115.922L50.2523 115.932L51.2194 116.489L50.2317 115.917L50.2266 115.922Z" fill="white" stroke="#29252B" stroke-width="0.3" stroke-linecap="round" stroke-linejoin="round"/>
<path d="M87.4482 94.3997L87.474 94.4048L88.4412 94.9665L87.4585 94.3945L87.4482 94.3997Z" fill="white" stroke="#29252B" stroke-width="0.3" stroke-linecap="round" stroke-linejoin="round"/>
<path d="M91.1922 92.2356L90.3125 93.8844L105.494 85.1045L104.177 84.7232L91.1922 92.2356Z" fill="white" stroke="#29252B" stroke-width="0.3" stroke-linecap="round" stroke-linejoin="round"/>
<path d="M72.5809 102.994L71.7012 104.648L86.888 95.8629L85.5658 95.4868L72.5809 102.994Z" fill="white" stroke="#29252B" stroke-width="0.3" stroke-linecap="round" stroke-linejoin="round"/>
<path d="M16.7462 135.285L15.8613 136.934L31.0482 128.154L29.7311 127.773L16.7462 135.285Z" fill="white" stroke="#29252B" stroke-width="0.3" stroke-linecap="round" stroke-linejoin="round"/>
<path d="M109.807 81.4719L108.922 83.1208L124.109 74.3408L122.792 73.9595L109.807 81.4719Z" fill="white" stroke="#29252B" stroke-width="0.3" stroke-linecap="round" stroke-linejoin="round"/>
<path d="M147.027 59.9446L146.147 61.5986L151.786 58.3371L151.77 57.2035L150.546 57.9145L147.027 59.9446Z" fill="white" stroke="#29252B" stroke-width="0.3" stroke-linecap="round" stroke-linejoin="round"/>
<path d="M143.286 62.1088L143.312 62.1191L144.279 62.6756L143.291 62.1088H143.286Z" fill="white" stroke="#29252B" stroke-width="0.3" stroke-linecap="round" stroke-linejoin="round"/>
<path d="M138.174 65.0663L128.415 70.7083L127.535 72.3571L142.722 63.5772L141.405 63.201L138.174 65.0663Z" fill="white" stroke="#29252B" stroke-width="0.3" stroke-linecap="round" stroke-linejoin="round"/>
<path d="M147.887 50.9432L151.689 50.8608L151.679 50.2682L146.899 50.3713L147.887 50.9432Z" fill="white" stroke="#29252B" stroke-width="0.3" stroke-linecap="round" stroke-linejoin="round"/>
<path d="M21.453 124.053L20.4652 123.481L8.4475 116.53V117.833L8.58126 117.911L8.90016 118.096L14.6775 121.435L15.6602 122.007L16.7869 122.656L19.9353 124.475L13.4738 136.573L13.0055 137.444L0.987846 130.493L8.4475 116.53L7.45965 115.958L0 129.921V131.225L0.987846 131.797L13.0055 138.748L13.9934 139.32V138.011L21.453 124.053Z" fill="#DDDADA" stroke="#29252B" stroke-width="0.3" stroke-linecap="round" stroke-linejoin="round"/>
<path d="M31.6201 126.68L32.608 127.252L39.0593 115.175L37.1917 116.257L32.0575 125.861L31.6201 126.68Z" fill="#DDDADA" stroke="#29252B" stroke-width="0.3" stroke-linecap="round" stroke-linejoin="round"/>
<path d="M50.2334 115.917L51.2211 116.489L57.6725 104.416L55.8049 105.493L50.645 115.154L50.2334 115.917Z" fill="#DDDADA" stroke="#29252B" stroke-width="0.3" stroke-linecap="round" stroke-linejoin="round"/>
<path d="M68.8438 105.158L69.8315 105.725L76.2828 93.6526L74.4102 94.7295L69.2244 104.442L68.8438 105.158Z" fill="#DDDADA" stroke="#29252B" stroke-width="0.3" stroke-linecap="round" stroke-linejoin="round"/>
<path d="M87.4561 94.3946L88.4388 94.9665L94.8901 82.889L93.0225 83.971L87.806 93.7351L87.4561 94.3946Z" fill="#DDDADA" stroke="#29252B" stroke-width="0.3" stroke-linecap="round" stroke-linejoin="round"/>
<path d="M106.066 83.6308L107.054 84.2027L113.505 72.1252L111.638 73.2072L106.39 83.0228L106.066 83.6308Z" fill="#DDDADA" stroke="#29252B" stroke-width="0.3" stroke-linecap="round" stroke-linejoin="round"/>
<path d="M124.679 72.8673L125.666 73.4392L132.118 61.3668L130.25 62.4437L124.977 72.316L124.679 72.8673Z" fill="#DDDADA" stroke="#29252B" stroke-width="0.3" stroke-linecap="round" stroke-linejoin="round"/>
<path d="M148.571 52.2312L146.724 55.6886L144.342 54.2974L138.174 57.863V58.4916L143.56 61.6037L143.293 62.1087H143.288H143.293L144.281 62.6754L149.878 52.2003L148.802 52.2261L148.571 52.2312Z" fill="#DDDADA" stroke="#29252B" stroke-width="0.3" stroke-linecap="round" stroke-linejoin="round"/>
<path d="M31.6388 126.691L31.6132 126.686L31.4022 126.624L26.9161 125.336L23.2892 124.295L22.96 124.485L32.6267 127.263L32.6061 127.252L31.6388 126.691Z" fill="#B7B6B6" stroke="#29252B" stroke-width="0.3" stroke-linecap="round" stroke-linejoin="round"/>
<path d="M50.2532 115.932L50.2274 115.922L49.7747 115.793L45.2937 114.505L41.9035 113.531L41.5742 113.722L51.2358 116.499L51.2203 116.489L50.2532 115.932Z" fill="#B7B6B6" stroke="#29252B" stroke-width="0.3" stroke-linecap="round" stroke-linejoin="round"/>
<path d="M68.8665 105.169L68.8407 105.158H68.8356L68.1513 104.962L63.6704 103.674L60.5168 102.767L60.1875 102.958L69.849 105.735L69.8336 105.725L68.8665 105.169Z" fill="#B7B6B6" stroke="#29252B" stroke-width="0.3" stroke-linecap="round" stroke-linejoin="round"/>
<path d="M87.4718 94.405L87.4461 94.3998L86.5201 94.1319L82.0391 92.8438L79.1273 92.0039L78.793 92.1997L88.4597 94.9769L88.4391 94.9666L87.4718 94.405Z" fill="#B7B6B6" stroke="#29252B" stroke-width="0.3" stroke-linecap="round" stroke-linejoin="round"/>
<path d="M106.086 83.6411L106.06 83.636L104.898 83.301L100.412 82.0129L97.7416 81.2452L97.4072 81.4358L107.074 84.213L107.053 84.2027L106.086 83.6411Z" fill="#B7B6B6" stroke="#29252B" stroke-width="0.3" stroke-linecap="round" stroke-linejoin="round"/>
<path d="M124.699 72.8826L124.674 72.8723L123.269 72.4704L118.788 71.1823L116.35 70.4815L116.021 70.6721L125.687 73.4494L125.667 73.4391L124.699 72.8826Z" fill="#B7B6B6" stroke="#29252B" stroke-width="0.3" stroke-linecap="round" stroke-linejoin="round"/>
<path d="M143.286 62.1086L141.645 61.6397L137.159 60.3516L134.962 59.7178L134.633 59.9085L144.299 62.6908L144.279 62.6754L143.312 62.1189L143.286 62.1086Z" fill="#B7B6B6" stroke="#29252B" stroke-width="0.3" stroke-linecap="round" stroke-linejoin="round"/>
<path d="M193.559 16.3439V14.8342L160.953 33.6874L161.257 35.0167L193.559 16.3439Z" fill="white" stroke="#29252B" stroke-width="0.3" stroke-linecap="round" stroke-linejoin="round"/>
<path d="M215.852 3.45222L214.545 2.69995L213.876 3.08639L215.183 3.83866L215.852 3.45222Z" fill="white" stroke="#29252B" stroke-width="0.3" stroke-linecap="round" stroke-linejoin="round"/>
<path d="M150.508 39.7352V39.7262L150.499 39.7307L150.508 39.7352Z" fill="white" stroke="#29252B" stroke-width="0.3" stroke-linecap="round" stroke-linejoin="round"/>
<path d="M158.988 34.8208L153.036 38.2627L153.082 39.7466L159.297 36.1553L158.988 34.8208Z" fill="white" stroke="#29252B" stroke-width="0.3" stroke-linecap="round" stroke-linejoin="round"/>
<path d="M193.561 16.3439L161.258 35.0167L162.276 39.453L193.561 21.3624V16.3439Z" fill="#B7B6B6" stroke="#29252B" stroke-width="0.3" stroke-linecap="round" stroke-linejoin="round"/>
<path d="M215.851 4.22509V3.45221L215.183 3.83865L215.851 4.22509Z" fill="#B7B6B6" stroke="#29252B" stroke-width="0.3" stroke-linecap="round" stroke-linejoin="round"/>
<path d="M160.311 40.5865L159.298 36.1553L153.083 39.7466L153.222 44.6879L153.731 44.3942L154.086 44.1881L160.311 40.5865Z" fill="#B7B6B6" stroke="#29252B" stroke-width="0.3" stroke-linecap="round" stroke-linejoin="round"/>
<path d="M210.768 13.9633V15.8491L211.051 16.0141L213.942 14.3395L214.282 14.1437L217.173 12.4743L217.518 12.2733L220.409 10.6039L220.749 10.4081L223.64 8.73352L215.846 4.22504L215.177 3.8386L213.876 3.08629L210.634 1.21075L207.743 2.88533L207.404 3.08113L204.507 4.75571L204.168 4.9515L201.276 6.62092L200.937 6.82188L199.676 7.54841L197.758 6.4406L193.56 8.86749L206.57 16.3902L210.768 13.9633Z" fill="#87DA65" stroke="#29252B" stroke-width="0.3" stroke-linecap="round" stroke-linejoin="round"/>
<path d="M220.409 10.6039L217.518 12.2733L217.173 12.4743L214.282 14.1437L213.943 14.3395L211.051 16.0141L210.768 15.8492V13.9633L206.57 16.3902V20.1309L210.768 17.7041L211.051 17.5392L213.943 15.8646L214.282 15.6688L217.173 13.9943L217.518 13.7985L220.409 12.1239L220.749 11.9281L223.64 10.2587V8.73352L220.749 10.4081L220.409 10.6039Z" fill="#5E8E44" stroke="#29252B" stroke-width="0.3" stroke-linecap="round" stroke-linejoin="round"/>
<path d="M193.56 21.3623V27.6484L206.57 20.1309V16.3901L193.56 8.86743V14.8341V16.3438V21.3623Z" fill="#74B555" stroke="#29252B" stroke-width="0.3" stroke-linecap="round" stroke-linejoin="round"/>
<path d="M193.56 35.2485V40.2259L206.57 47.7486V27.6227L193.56 35.2485Z" fill="#74B555" stroke="#29252B" stroke-width="0.3" stroke-linecap="round" stroke-linejoin="round"/>
<path d="M220.409 19.5126L217.518 21.2078L217.173 21.4087L214.282 23.104L213.942 23.2998L211.051 25.0001C210.953 25.0516 210.861 25.1083 210.768 25.165L206.57 27.6227V47.7485L210.768 45.3217V38.9377L213.942 37.0312L214.282 36.8303L217.173 35.1609L217.518 34.9599L220.409 33.2905L220.749 33.0947L223.64 31.4201V17.601L220.749 19.2962L220.409 19.5126Z" fill="#5E8E44" stroke="#29252B" stroke-width="0.3" stroke-linecap="round" stroke-linejoin="round"/>
<path d="M151.607 44.6982L151.587 43.0752H151.556L151.607 44.6982Z" fill="#DDDADA" stroke="#29252B" stroke-width="0.3" stroke-linecap="round" stroke-linejoin="round"/>
<path d="M159.971 47.5941L158.613 46.8109L156.987 45.868L154.085 44.1882L153.73 44.3943L158.397 47.0943L161.586 48.9337V48.5215L159.971 47.5941Z" fill="#B7B6B6" stroke="#29252B" stroke-width="0.3" stroke-linecap="round" stroke-linejoin="round"/>
<path d="M161.586 50.6391V50.0466L157.116 50.1445L153.381 50.2269L153.396 50.8195L156.864 50.7422L161.586 50.6391Z" fill="white" stroke="#29252B" stroke-width="0.3" stroke-linecap="round" stroke-linejoin="round"/>
<path d="M161.586 51.1647V50.6494L156.863 50.7524L153.396 50.8297L153.431 52.1333L158.756 52.0149L160.3 51.9787L161.601 51.1698L161.586 51.1647Z" fill="#B7B6B6" stroke="#29252B" stroke-width="0.3" stroke-linecap="round" stroke-linejoin="round"/>
<path d="M220.409 12.1239L217.517 13.7985L217.173 13.9943L214.281 15.6689L213.942 15.8647L211.051 17.5392L210.768 17.7041L206.57 20.131L193.559 27.6485L163.551 45.0074L163.757 45.9143L163.854 46.3368L226.932 9.86195L225.625 9.10968L223.639 10.2587L220.748 11.9281L220.409 12.1239Z" fill="white" stroke="#29252B" stroke-width="0.3" stroke-linecap="round" stroke-linejoin="round"/>
<path d="M155.86 21.1717L158.988 34.8208L159.297 36.1553L160.31 40.5865L161.586 46.1409V46.651V48.5214V48.9336V50.0466V50.6391V51.1595L162.893 51.9169V50.6133V46.8932L157.121 20.4401L155.86 21.1717Z" fill="#DDDADA" stroke="#29252B" stroke-width="0.3" stroke-linecap="round" stroke-linejoin="round"/>
<path d="M151.993 14.0613L153.299 13.3039V11.8663L151.622 10.8925L149.636 12.0415L149.07 12.3713L151.993 14.0613Z" fill="white" stroke="#29252B" stroke-width="0.3" stroke-linecap="round" stroke-linejoin="round"/>
<path d="M154.264 21.9704L153.297 15.2721V13.309L151.985 14.0664V15.9728V23.4286L152.582 60.0116L152.695 59.9549L153.662 59.4809V58.5844L153.626 57.3684V57.3066L153.596 56.1833L159.579 52.4477L160.33 51.9788L158.786 52.0149L153.462 52.1334L153.426 50.8298V50.2372L157.161 50.1548L161.631 50.0569V48.9439L158.442 47.0993L153.776 44.3994L153.261 44.6931L153.117 39.757L153.076 38.273L152.855 30.4618V22.9391L155.833 21.2181L155.9 21.1769L157.161 20.4453L162.933 46.9035L163.9 46.3471L163.802 45.9194L163.592 45.0125L162.321 39.4581L161.292 35.0269L160.988 33.6924L157.855 20.0433L155.854 13.7573L155.005 12.9844L154.727 3.63251L153.76 4.18896L154.264 21.9704Z" fill="#B7B6B6" stroke="#29252B" stroke-width="0.3" stroke-linecap="round" stroke-linejoin="round"/>
<path d="M154.693 3.62229L154.266 3.34406L153.299 3.90053L153.731 4.17877L154.693 3.62229Z" fill="white" stroke="#29252B" stroke-width="0.3" stroke-linecap="round" stroke-linejoin="round"/>
<path d="M153.299 15.2616L154.266 21.9651L153.731 4.17851L153.299 3.90027V11.8661V13.3037V15.2616Z" fill="#DDDADA" stroke="#29252B" stroke-width="0.3" stroke-linecap="round" stroke-linejoin="round"/>
<path d="M161.588 51.1646L160.286 51.9735L159.535 52.4424L153.552 56.178L153.583 57.3013L159.293 53.9985L162.894 51.9375L161.588 51.1646Z" fill="white" stroke="#29252B" stroke-width="0.3" stroke-linecap="round" stroke-linejoin="round"/>
<path d="M151.555 43.0545V43.0494L151.55 43.0545H151.555Z" fill="#B7B6B6" stroke="#29252B" stroke-width="0.3" stroke-linecap="round" stroke-linejoin="round"/>
<path d="M151.605 44.6982L151.553 43.0752H151.533H151.214L142.715 43.2349L142.71 43.2452L142.442 44.5591L147.834 44.4406L149.881 44.3942L143.219 48.2432L144.351 48.8976L151.008 45.0435L151.605 44.6982Z" fill="#B7B6B6" stroke="#29252B" stroke-width="0.3" stroke-linecap="round" stroke-linejoin="round"/>
<path d="M142.722 43.1989L142.717 43.2349L142.722 43.1989Z" fill="#B7B6B6" stroke="#29252B" stroke-width="0.3" stroke-linecap="round" stroke-linejoin="round"/>
<path d="M142.84 42.6166L142.722 43.1988L142.717 43.2349L151.216 43.0752H151.535H151.555H151.586H151.596L151.586 43.07L151.555 43.0546H151.55L150.5 42.529L150.49 42.5239L142.84 42.6166Z" fill="white" stroke="#29252B" stroke-width="0.3" stroke-linecap="round" stroke-linejoin="round"/>
<path d="M226.932 9.87225V14.8857L226.794 15.7667L223.64 17.6165L220.749 19.3117L220.409 19.5126L217.518 21.2078L217.173 21.4088L214.282 23.104L213.942 23.2998L211.051 25.0001C210.953 25.0516 210.861 25.1083 210.768 25.165L206.57 27.6227L193.56 35.2485L164.395 52.3498L163.88 52.6487L163.438 52.9011L162.476 53.4576L160.536 54.5809L159.796 55.0085L159.734 55.0446L156.58 56.8634L153.658 58.5534L153.622 57.3375V57.2756L159.333 53.9728L162.934 51.9118V46.8932L226.932 9.87225Z" fill="#B7B6B6" stroke="#29252B" stroke-width="0.3" stroke-linecap="round" stroke-linejoin="round"/>
<path d="M152.098 205.602L183.763 187.176L183.66 223.852L151.995 242.283L152.098 205.602Z" fill="#4B415E" stroke="#29252B" stroke-width="0.3" stroke-linecap="round" stroke-linejoin="round"/>
<path d="M120.229 187.176L151.893 168.746L183.764 187.176L152.099 205.602L120.229 187.176Z" fill="#8773A8" stroke="#29252B" stroke-width="0.3" stroke-linecap="round" stroke-linejoin="round"/>
<path d="M152.099 205.602L151.996 242.283L120.125 223.852L120.228 187.176L152.099 205.602Z" fill="#675A82" stroke="#29252B" stroke-width="0.3" stroke-linecap="round" stroke-linejoin="round"/>
<path d="M120.171 135.388L151.836 116.958L151.733 153.638L120.068 172.069L120.171 135.388Z" fill="#5E8E44" stroke="#29252B" stroke-width="0.3" stroke-linecap="round" stroke-linejoin="round"/>
<path d="M88.2959 116.957L119.966 98.5216L151.837 116.957L120.172 135.388L88.2959 116.957Z" fill="#87DA65" stroke="#29252B" stroke-width="0.3" stroke-linecap="round" stroke-linejoin="round"/>
<path d="M120.171 135.388L120.068 172.069L88.1924 153.638L88.2952 116.958L120.171 135.388Z" fill="#74B555" stroke="#29252B" stroke-width="0.3" stroke-linecap="round" stroke-linejoin="round"/>
<path d="M120.172 135.388L119.966 98.5217" stroke="#29252B" stroke-width="0.3" stroke-linecap="round" stroke-linejoin="round"/>
<path d="M151.837 116.958H88.3018" stroke="#29252B" stroke-width="0.3" stroke-linecap="round" stroke-linejoin="round"/>
</g>
<defs>
<clipPath id="clip0_1599_2177">
<rect width="247" height="295" fill="white"/>
</clipPath>
</defs>
</svg>
