<svg xmlns="http://www.w3.org/2000/svg" width="247" height="295" fill="none"><g clip-path="url(#a)"><path stroke="#29252B" stroke-linecap="round" stroke-linejoin="round" stroke-width=".3" d="m120.173 116.958-.386-47.26"/><path fill="#B7B6B6" stroke="#29252B" stroke-linecap="round" stroke-linejoin="round" stroke-width=".3" d="m246.993 265.624-.077 27.509-95 55.292.077-27.509z"/><path fill="#fff" stroke="#29252B" stroke-linecap="round" stroke-linejoin="round" stroke-width=".3" d="m151.993 320.916-.077 27.509-95.617-55.292.077-27.509z"/><path fill="#87DA65" stroke="#29252B" stroke-linecap="round" stroke-linejoin="round" stroke-width=".3" d="m246.993 265.624-95 55.292-95.617-55.292 94.995-55.292z"/><path fill="#B7B6B6" stroke="#29252B" stroke-linecap="round" stroke-linejoin="round" stroke-width=".3" d="m246.993 226.305-.077 27.509-95 55.297.077-27.514z"/><path fill="#fff" stroke="#29252B" stroke-linecap="round" stroke-linejoin="round" stroke-width=".3" d="m151.993 281.597-.077 27.514-95.617-55.292.077-27.514z"/><path fill="#87DA65" stroke="#29252B" stroke-linecap="round" stroke-linejoin="round" stroke-width=".3" d="m246.993 226.305-95 55.292-95.617-55.292 94.995-55.292z"/><path fill="#B7B6B6" stroke="#29252B" stroke-linecap="round" stroke-linejoin="round" stroke-width=".3" d="m246.993 186.991-.077 27.51-95 55.291.077-27.509z"/><path fill="#fff" stroke="#29252B" stroke-linecap="round" stroke-linejoin="round" stroke-width=".3" d="m151.993 242.283-.077 27.509-95.617-55.291.077-27.51z"/><path fill="#87DA65" stroke="#29252B" stroke-linecap="round" stroke-linejoin="round" stroke-width=".3" d="m246.993 186.991-95 55.292-95.617-55.292 94.995-55.292z"/><path fill="#4B415E" stroke="#29252B" stroke-linecap="round" stroke-linejoin="round" stroke-width=".3" d="m215.432 168.746 31.67-18.436-.108 36.681-31.665 18.431z"/><path fill="#DCDCDC" d="m183.562 150.31 31.664-18.431 31.876 18.431-31.67 18.436z"/><path fill="#675A82" stroke="#29252B" stroke-linecap="round" stroke-linejoin="round" stroke-width=".3" d="m215.432 168.746-.103 36.676-31.871-18.431.103-36.681z"/><path fill="#4B415E" stroke="#29252B" stroke-linecap="round" stroke-linejoin="round" stroke-width=".3" d="m215.54 132.06 31.665-18.431-.103 36.681-31.67 18.436z"/><path fill="#8773A8" stroke="#29252B" stroke-linecap="round" stroke-linejoin="round" stroke-width=".3" d="m183.664 113.629 31.665-18.43 31.876 18.43-31.665 18.431z"/><path fill="#675A82" stroke="#29252B" stroke-linecap="round" stroke-linejoin="round" stroke-width=".3" d="m215.539 132.06-.108 36.686-31.87-18.436.102-36.681z"/><path fill="#4B415E" stroke="#29252B" stroke-linecap="round" stroke-linejoin="round" stroke-width=".3" d="m120.052 150.31 31.67-18.431-.108 36.681-31.665 18.431z"/><path fill="#8773A8" stroke="#29252B" stroke-linecap="round" stroke-linejoin="round" stroke-width=".3" d="m88.18 131.879 31.665-18.43 31.876 18.43-31.67 18.431z"/><path fill="#898989" d="m120.052 150.31-.103 36.681-31.876-18.431.108-36.681z"/><path fill="#4B415E" stroke="#29252B" stroke-linecap="round" stroke-linejoin="round" stroke-width=".3" d="m88.353 168.741 31.665-18.431-.103 36.681-31.67 18.431z"/><path fill="#8773A8" stroke="#29252B" stroke-linecap="round" stroke-linejoin="round" stroke-width=".3" d="m56.478 150.31 31.664-18.431 31.876 18.431-31.665 18.431z"/><path fill="#675A82" stroke="#29252B" stroke-linecap="round" stroke-linejoin="round" stroke-width=".3" d="m88.353 168.741-.108 36.681-31.871-18.431.103-36.681z"/><path fill="#B7B6B6" stroke="#29252B" stroke-linecap="round" stroke-linejoin="round" stroke-width=".3" d="m148.673 12.732.396-.36.566-.33-.072-11.764-.967.557z"/><path fill="#fff" stroke="#29252B" stroke-linecap="round" stroke-linejoin="round" stroke-width=".3" d="M149.564.278 149.137 0l-.967.556.427.279z"/><path fill="#B7B6B6" stroke="#29252B" stroke-linecap="round" stroke-linejoin="round" stroke-width=".3" d="M142.325 172.069v-10.81l-1.306-2.937v-3.184l1.306-1.592v-10.81l-1.306-2.937v-3.184l1.306-1.593v-10.804l-1.306-2.943v-3.184l1.306-1.592v-10.805l-1.306-2.942v-3.184l1.306-1.592v-6.93l-1.615-.944v85.605l.309.18v-2.226zM142.088 175.202l.237.139.035.02z"/><path fill="#B7B6B6" stroke="#29252B" stroke-linecap="round" stroke-linejoin="round" stroke-width=".3" d="m143.143 158.59-1.364-.788 4.306 9.692.659-.804zM146.868 169.256l3.601 8.105v-2.283l-2.942-6.626zM143.143 140.067l-1.364-.784 4.306 9.687.659-.804zM146.868 150.732l3.601 8.105v-2.282l-2.942-6.626zM143.143 121.548l-1.364-.788 4.306 9.687.659-.804zM146.868 132.209l3.601 8.105v-2.283l-2.942-6.626zM146.868 113.686l3.601 8.105v-2.283l-2.942-6.621zM143.143 103.025l-1.364-.788 4.306 9.686.659-.798zM145.978 93.163l.108.237.097-.119zM146.868 95.162l3.601 8.105v-2.282l-2.942-6.621z"/><path fill="#fff" stroke="#29252B" stroke-linecap="round" stroke-linejoin="round" stroke-width=".3" d="m142.653 174.388-.129.154-.772.449-.01.01.345.201.273.16 2.376 1.37 5.731 3.318v-1.143l-.406-.232zM142.653 155.864l-.129.155-.772.448-.01.016 8.725 5.044v-1.144l-.406-.232zM142.653 137.341l-.129.154-.772.449-.01.015 8.725 5.044v-1.143l-.406-.232zM142.653 118.818l-.129.154-.772.448-.01.016 8.725 5.044v-1.144l-.406-.231zM142.653 100.294l-.129.155-.772.448-.01.015 8.725 5.045v-1.139l-.406-.237z"/><path fill="#DDDADA" stroke="#29252B" stroke-linecap="round" stroke-linejoin="round" stroke-width=".3" d="M161.838 91.756v6.013l1.312 1.598v3.184l-1.312 2.952v10.79l1.312 1.597v3.184l-1.312 2.953v10.789l1.312 1.598v3.184l-1.312 2.952v10.79l1.312 1.597v3.184l-1.312 2.953v10.789l1.312 1.597v2.226l.308-.18V90.819z"/><path fill="#B7B6B6" stroke="#29252B" stroke-linecap="round" stroke-linejoin="round" stroke-width=".3" d="m163.459 175.506 1.615-.933V89.881l-1.615.938z"/><path fill="#fff" stroke="#29252B" stroke-linecap="round" stroke-linejoin="round" stroke-width=".3" d="M153.7 174.883v2.277l3.601-8.105-.653-.804zM157.43 166.494l.658.799 4.306-9.687-1.363.788zM157.43 147.971l.658.798 4.306-9.686-1.363.788zM153.7 156.359v2.278l3.601-8.105-.653-.799zM157.43 129.447l.658.799 4.306-9.687-1.363.788zM153.7 137.836v2.277l3.601-8.105-.653-.799zM158.088 111.723l4.306-9.687-1.363.788-3.601 8.1zM153.7 119.312v2.278l3.601-8.105-.653-.799zM153.7 103.066l3.601-8.105-.324-.397-.689.397-2.588 5.828zM161.649 174.341l-.129-.154-7.413 4.287-.407.237v1.138l7.65-4.426.458-.262h.005l.612-.356-.01-.015zM162.415 156.266l-.766-.448-.129-.155-7.413 4.287-.407.237v1.139l8.725-5.044zM162.415 137.743l-.766-.448-.129-.155-7.413 4.287-.407.237v1.139l8.725-5.045zM162.415 119.22l-.766-.449-.129-.154-7.413 4.287-.407.237v1.138l8.725-5.044zM161.52 100.093l-7.413 4.287-.407.237v1.139l8.725-5.044-.01-.016-.766-.448z"/><path fill="#B7B6B6" stroke="#29252B" stroke-linecap="round" stroke-linejoin="round" stroke-width=".3" d="m161.838 171.863-3.112-3.787 3.112-7.003 1.312-2.952v-3.184l-1.312-1.598-3.112-3.787 3.112-6.997 1.312-2.957v-3.179l-1.312-1.603-3.112-3.787 3.112-6.997 1.312-2.958v-3.179l-1.312-1.602-3.112-3.787 3.112-6.998 1.312-2.957v-3.18l-1.312-1.602-3.112-3.787.257-.577-.515.289-1.229.71 5.191 6.318h-.036l-8.746 5.049v-1.144l.406-.231 3.838-8.641-.643-.778-3.601 8.105v-6.611l-1.029.592-.592-.345v85.378l.474-.273.036.051.046-.098.201-.118.442-.258.406-.232.109-.061.267-.15 6.955-4.019.808-.469.551-.314.761-.438v-2.226zm-3.755-4.57-.659-.799-3.349-4.081 6.95-4.019 1.364-.788zm0-18.55-.659-.798-3.349-4.081 6.95-4.019 1.364-.788zm0-18.549-.659-.798-3.349-4.081 6.95-4.019 1.364-.788zm2.942-27.421 1.364-.789-4.306 9.687-.659-.799-3.349-4.081zm-7.326 20.316.407-.232 3.838-8.641-.643-.783-3.602 8.11v-13.005l8.746 10.656h-.036l-8.746 5.044zm0 18.549.407-.237 3.838-8.636-.643-.783-3.602 8.11v-13.005l8.746 10.656h-.036l-8.746 5.044zm0 18.549.407-.237 3.838-8.635-.643-.784-3.602 8.11v-13.005l8.746 10.656h-.036l-8.746 5.044zm8.108 14.974-.458.267-7.65 4.421v-1.138l.407-.237 3.838-8.636-.643-.783-3.602 8.11V164.16l8.746 10.655h-.036z"/><path fill="#DDDADA" stroke="#29252B" stroke-linecap="round" stroke-linejoin="round" stroke-width=".3" d="m161.649 174.341.766.449.036.02-8.751-10.65v.51l2.948 3.581.653.804.643.783 3.576 4.349zM161.649 155.818l.766.448.036.021-8.751-10.65v.51l2.948 3.586.653.799.643.783 3.576 4.348zM161.649 137.295l.766.448.036.02-8.751-10.65v.51l2.948 3.586.653.799.643.783 3.576 4.349zM161.649 118.771l.766.449.036.02-8.751-10.65v.51l2.948 3.586.653.799.643.783 3.576 4.349zM157.942 95.745l3.575 4.348.129.155.766.448.036.021-5.19-6.317-.283.164.324.397z"/><path fill="#FFA90A" d="m156.555 56.89 3.205-1.845.741-.428.025-.03-.74.427-.062.036-3.154 1.824z"/><path fill="#B7B6B6" stroke="#29252B" stroke-linecap="round" stroke-linejoin="round" stroke-width=".3" d="m142.073 46.399.37-1.84.268-1.314.005-.01.005-.036.118-.582 4.445-21.904-.504-.294-5.675 26.536v.067l.968.556zM163.429 52.906v.026l.967-.556v-.026l-.525.299z"/><path fill="#DDDADA" stroke="#29252B" stroke-linecap="round" stroke-linejoin="round" stroke-width=".3" d="m162.467 53.483.962-.55v-.027l-.962.557z"/><path fill="#B7B6B6" stroke="#29252B" stroke-linecap="round" stroke-linejoin="round" stroke-width=".3" d="m162.466 53.483-1.966 1.134-.74.428-3.205 1.844-2.912 1.68-.026.015.026.892-.962.479v37.093l1.018-.587 2.588-1.5.689-.397.283-.164 1.23-.706.494-.289 2.855-1.649 1.621-.937 1.615-.938 4.111-2.376V49.543l-4.79 2.834-.967.556zM148.571 52.231l-.685.016-3.544 2.05 2.382 1.392zM139.69 51.592l2.542 1.48 2.557-1.48-2.552-1.473zM149.877 52.2l1.306-.025-2.49 4.658 1.852 1.081 1.225-.71-.067-5.04-2.902.062zM151.009 45.044l-6.657 3.854 2.546 1.473 4.779-.103-.072-5.57z"/><path fill="#DDDADA" stroke="#29252B" stroke-linecap="round" stroke-linejoin="round" stroke-width=".3" d="m141.405 63.201-3.231-.932v2.797z"/><path fill="#DDDADA" stroke="#29252B" stroke-linecap="round" stroke-linejoin="round" stroke-width=".3" d="M152.676 97.053V59.955l-.113.056-.597-36.582v-9.363l-2.922-1.69-.396.366L148.576.84l-.427-.278-.396 13.04-1.631 6.457-5.145 22.61-.139.617-.298 1.31-.407 1.797v.067l.963.562v-.052l5.659-26.53.514.288.854.516L151.164 23l-.669 16.756v2.803l1.029.515h.03l.031 2.319.062 4.869v1.896l.062 5.044v2.427l-13.623 7.878v21.126l.921.515v85.604l1.615.933V90.108l1.616.937 2.32 1.345.797 1.793-3.117 3.798-1.307 1.587v3.184l1.307 2.942 3.117 7.013-3.117 3.792-1.307 1.592v3.184l1.307 2.942 3.117 7.013-3.117 3.792-1.307 1.592v3.185l1.307 2.942 3.117 7.012-3.117 3.793-1.307 1.592v3.184l1.307 2.937 3.117 7.018-3.117 3.792-1.307 1.592v2.226l.761.438.546.314.812.469 6.951 4.014.211.118.056.031.108.062.407.232.442.258.206.118.077.041.304.181.164-.093V96.693zm-6.688-3.89.206.118-.103.119zm-4.198 9.074 1.363.788 6.951 4.019-3.355 4.081-.658.798zm0 18.549 1.363.788 6.951 4.019-3.355 4.081-.658.799zm0 18.549 1.363.788 6.951 4.019-3.355 4.081-.658.799zm0 18.523 1.363.789 6.951 4.019-3.355 4.08-.658.799zm8.689 22.244-5.731-3.313-2.377-1.376h-.036l-.236-.134-.345-.201.772-.453.123-.155 3.601-4.349 3.838 8.631.407.237zm0-4.967v2.277l-3.601-8.105.653-.798 2.948-3.607zm0-13.557-8.746-5.044.772-.453.124-.155 3.601-4.349 3.838 8.636.406.237zm0-4.967v2.278l-3.601-8.105.653-.799 2.948-3.607zm0-13.556-8.746-5.044.772-.454.124-.154 3.601-4.349 3.838 8.636.406.237zm0-4.967v2.277l-3.601-8.105.653-.798 2.948-3.607zm0-13.556-8.746-5.045.772-.453.124-.15 3.601-4.353 3.838 8.635.406.237zm0-4.967v2.277l-3.601-8.105.653-.799 2.948-3.606zm0-13.557-8.746-5.044.772-.448.124-.155 3.601-4.354 3.838 8.636.406.237zm0-4.967v2.278l-3.601-8.105.653-.799.17-.206 2.778 1.613z"/><path fill="#DDDADA" stroke="#29252B" stroke-linecap="round" stroke-linejoin="round" stroke-width=".3" d="m148.692 56.832-1.667 3.112 3.519-2.03zM138.174 52.468v2.947l4.059-2.344-2.542-1.479z"/><path fill="#B7B6B6" stroke="#29252B" stroke-linecap="round" stroke-linejoin="round" stroke-width=".3" d="M19.538 121.069v-1.303l.051-.031-7.223-2.077 4.615 2.669 1.06.304-.268.155 1.127.649zM38.091 110.28v-1.242l.113-.067-9.64-2.772.334-.191 10.912-6.311v-1.304l-14.699 8.502 1.132.649.885.51.427-.799 7.779 2.237 1.317.376-3.195 1.849 1.127.65 3.508-2.025zM109.745 67.601 96.179 75.45l1.126.649 13.572-7.842zM56.641 99.5v-1.19l.175-.103-9.64-2.766.328-.196 7.985-4.612V89.33l-14.693 8.496 1.127.65.87-.505 1.867-1.077-1.292 2.421.988.567 1.81-3.39 7.78 2.236 1.317.376-6.128 3.545 1.127.654 6.38-3.689z"/><path fill="#fff" stroke="#29252B" stroke-linecap="round" stroke-linejoin="round" stroke-width=".3" d="m18.614 119.158-.006.005.026.005.962.562zM133.137 54.076l7.974-4.606-.988-.572-6.101 3.53zM55.855 97.646l.967.556-.988-.567-.005.006zM78.382 85.738l-.57-.33-.51.954zM130.301 54.596l.967.562v-.005l-.982-.567-.011.005zM58.69 97.125l4.013-2.323-.983-.567-2.145 1.242zM2.854 129.411l12.805-7.404-.982-.572-10.943 6.327zM74.467 86.882l.967.562-.988-.572-.005.005zM93.08 76.124l.968.556-.988-.572-.005.005zM111.696 65.36l.967.556-.988-.566h-.01zM40.077 107.889l6.945-4.019-.982-.567-5.078 2.932zM21.468 118.648l9.872-5.709-.982-.572-8.01 4.632zM114.528 64.84l10.897-6.307-.983-.567-9.034 5.22zM37.243 108.409l.967.557-.983-.572-.01.005zM140.853 43.281l.139-.618-7.099.186.987.571z"/><path fill="#B7B6B6" stroke="#29252B" stroke-linecap="round" stroke-linejoin="round" stroke-width=".3" d="m137.051 44.678.849.49.272-.516 2.382-.052.299-1.308-5.973.128zM1.97 129.921l.469.268.664.381 13.684-7.914-1.126-.649-12.805 7.404.88-1.649 5.165-9.666-.32-.185-.133-.078v-1.303l-7.46 13.963zM21.02 119.482l.633.361 10.814-6.25-1.127-.654-9.873 5.709.88-1.649 3.781-7.075-.987-.572-5.546 10.378.93-.536z"/><path fill="#DDDADA" stroke="#29252B" stroke-linecap="round" stroke-linejoin="round" stroke-width=".3" d="m42.793 97.97-.411.773.988.572 1.29-2.422z"/><path fill="#B7B6B6" stroke="#29252B" stroke-linecap="round" stroke-linejoin="round" stroke-width=".3" d="m39.607 108.77.597.345 7.943-4.59-1.126-.655-6.945 4.019.884-1.654 2.398-4.483-.988-.571-4.162 7.785.87-.5z"/><path fill="#DDDADA" stroke="#29252B" stroke-linecap="round" stroke-linejoin="round" stroke-width=".3" d="m61.406 87.212-1.796 3.36.988.571 2.675-5.013z"/><path fill="#B7B6B6" stroke="#29252B" stroke-linecap="round" stroke-linejoin="round" stroke-width=".3" d="m57.629 97.739.56.324.566.33 5.073-2.937-1.126-.654-4.013 2.323.885-1.648 1.008-1.897-.983-.572-2.778 5.194z"/><path fill="#DDDADA" stroke="#29252B" stroke-linecap="round" stroke-linejoin="round" stroke-width=".3" d="M80.02 76.448 76.84 82.4l.988.567 4.059-7.6z"/><path fill="#B7B6B6" stroke="#29252B" stroke-linecap="round" stroke-linejoin="round" stroke-width=".3" d="m76.18 87.01.592.34.535.315 2.202-1.278-1.127-.649-1.08.624.51-.954-.983-.572-1.394 2.608z"/><path fill="#DDDADA" stroke="#29252B" stroke-linecap="round" stroke-linejoin="round" stroke-width=".3" d="m98.63 65.685-4.563 8.543.983.566 5.448-10.186z"/><path fill="#B7B6B6" stroke="#29252B" stroke-linecap="round" stroke-linejoin="round" stroke-width=".3" d="m94.052 76.665-.005.016.016-.01z"/><path fill="#DDDADA" stroke="#29252B" stroke-linecap="round" stroke-linejoin="round" stroke-width=".3" d="m117.24 54.92-5.566 10.43.988.566 6.024-11.278.988.572 4.769 2.756.982.567 1.132.654 2.552 1.474 1.127-.65-12.023-6.95v1.303z"/><path fill="#B7B6B6" stroke="#29252B" stroke-linecap="round" stroke-linejoin="round" stroke-width=".3" d="m113.942 65.932.474.273 12.141-7.018-1.132-.654-10.896 6.307.879-1.654 4.265-7.977-.987-.571-6.025 11.279.623-.361zM132.525 55.225l.442.258 5.207-3.015 1.517-.876 2.547-1.473-1.127-.65-7.974 4.607.885-1.649 2.881-5.395-.988-.566-4.645 8.687.565-.325z"/><path fill="#DDDADA" stroke="#29252B" stroke-linecap="round" stroke-linejoin="round" stroke-width=".3" d="m19.597 119.73-.962-.562-.026-.005-7.228-2.077.988.572 7.223 2.077zM37.216 108.399l-8.319-2.391-.334.191 9.64 2.772.006-.005-.968-.556zM55.856 97.646l-.026-.005-8.324-2.396-.33.196 9.642 2.766.005-.005zM74.468 86.882l-.026-.005-8.324-2.39-.329.19 9.641 2.767h.005zM93.081 76.124l-.025-.01-8.324-2.391-.33.19 9.636 2.772.01-.005zM112.661 65.917l-.967-.557-.031-.01-3.143-.902.982.567 3.149.907z"/><path fill="#B7B6B6" stroke="#29252B" stroke-linecap="round" stroke-linejoin="round" stroke-width=".3" d="m112.65 65.922-3.148-.907 2.799 1.618v-.505z"/><path fill="#DDDADA" stroke="#29252B" stroke-linecap="round" stroke-linejoin="round" stroke-width=".3" d="m130.302 54.596-.026-.005-8.319-2.396-.334.196 9.641 2.767h.005z"/><path fill="#B7B6B6" stroke="#29252B" stroke-linecap="round" stroke-linejoin="round" stroke-width=".3" d="m72.157 79.69 1.126.654 6.734-3.896 1.868-1.082-4.06 7.6.983.572 4.58-8.574 7.783 2.237 1.317.38-11.992 6.931 1.127.654 12.12-7.007v-1.304l.293-.17-9.635-2.772.329-.19 2.12-1.227v-1.303l.987-.572 1.127.654 9.667-5.59 1.867-1.077-5.448 10.186.988.572.756-1.417L102 64.206l3.715 1.066-3.185-1.844v-1.304l.988-.567 1.127.65 12.594-7.286.972-.556V53.06l.988-.572 1.126.65.751.437 7.316 2.102 1.317.377-2.171 1.257 1.132.654 2.181-1.262V55.4l.412-.242-9.641-2.767.334-.196 11.936-6.899v-1.304l.987-.572-63.36 36.635zM24.129 107.462 9.43 115.958l1.131.654 13.567-7.847zM57.605 89.407l3.802-2.195 1.868-1.082-2.675 5.013.982.567 3.2-5.982 7.779 2.236 1.317.381-9.06 5.235 1.127.655 9.25-5.349v-1.3039999999999998l.236-.138-9.64-2.767.329-.19 5.052-2.922V80.26l-15.274 8.832.58-.335z"/><path fill="#fff" stroke="#29252B" stroke-linecap="round" stroke-linejoin="round" stroke-width=".3" d="m2.439 130.189-.468-.268-.983.572 12.018 6.951.468-.871-10.371-6.003z"/><path fill="#DDDADA" stroke="#29252B" stroke-linecap="round" stroke-linejoin="round" stroke-width=".3" d="m31.402 126.624-6.07-3.509-1.127.649 2.711 1.571zM19.54 121.059v.01l2.55 1.474 1.128-.654-3.679-2.123z"/><path fill="#fff" stroke="#29252B" stroke-linecap="round" stroke-linejoin="round" stroke-width=".3" d="m31.614 126.685.005-.005.437-.819-5.741-3.318-.983.572 6.07 3.509zM21.02 119.482l-.493-.288-.931.536-.005.005-.052.031 3.678 2.123.988-.567-2.551-1.479z"/><path fill="#DDDADA" stroke="#29252B" stroke-linecap="round" stroke-linejoin="round" stroke-width=".3" d="m49.774 115.793-5.89-3.406-1.127.65 2.536 1.468zM38.09 110.28v.062l2.551 1.473 1.127-.654-3.678-2.123z"/><path fill="#fff" stroke="#29252B" stroke-linecap="round" stroke-linejoin="round" stroke-width=".3" d="m50.225 115.922.005-.005.412-.763-5.772-3.339-.988.572 5.89 3.406zM39.608 108.77l-.53-.304-.87.5-.005.005-.113.067 3.678 2.123.988-.567-2.552-1.479z"/><path fill="#DDDADA" stroke="#29252B" stroke-linecap="round" stroke-linejoin="round" stroke-width=".3" d="m68.15 104.962-5.715-3.302-1.126.649 2.36 1.365zM56.642 99.5v.114l2.551 1.474 1.127-.65-3.678-2.128z"/><path fill="#fff" stroke="#29252B" stroke-linecap="round" stroke-linejoin="round" stroke-width=".3" d="M68.835 105.158h.01l.381-.716-5.803-3.354-.988.572 5.716 3.302zM58.19 98.063l-.56-.325-.808.464-.005.005-.175.104 3.678 2.127.988-.572-2.552-1.473z"/><path fill="#DDDADA" stroke="#29252B" stroke-linecap="round" stroke-linejoin="round" stroke-width=".3" d="m86.522 94.132-5.536-3.2-1.127.65 2.182 1.262zM75.194 88.722v.165l2.552 1.473 1.127-.65-3.679-2.127z"/><path fill="#fff" stroke="#29252B" stroke-linecap="round" stroke-linejoin="round" stroke-width=".3" d="m87.449 94.4.01-.005.35-.66-5.834-3.375-.988.572 5.536 3.2zM76.774 87.351l-.592-.34-.746.433h-.005l-.237.139 3.679 2.128.987-.572-2.551-1.474z"/><path fill="#DDDADA" stroke="#29252B" stroke-linecap="round" stroke-linejoin="round" stroke-width=".3" d="m104.897 83.301-5.361-3.097-1.127.65 2.001 1.159zM93.745 77.942v.217l2.552 1.473 1.132-.654-3.684-2.123z"/><path fill="#fff" stroke="#29252B" stroke-linecap="round" stroke-linejoin="round" stroke-width=".3" d="m106.061 83.636.005-.005.324-.608-5.865-3.39-.988.571 5.361 3.097zM94.049 76.68l-.01.005-.294.17 3.684 2.123.314-.18-3.679-2.128z"/><path fill="#DDDADA" stroke="#29252B" stroke-linecap="round" stroke-linejoin="round" stroke-width=".3" d="m123.269 72.47-5.175-2.993-1.132.649 1.826 1.056zM112.303 66.633l3.236 1.875.442-.257-3.678-2.123z"/><path fill="#fff" stroke="#29252B" stroke-linecap="round" stroke-linejoin="round" stroke-width=".3" d="M124.673 72.872h.005v-.005l.298-.551-5.901-3.411-.982.572 5.175 2.993zM113.944 65.932l-.659-.376-.622.36-.01.006-.35.206 3.678 2.123.983-.567-2.547-1.479z"/><path fill="#DDDADA" stroke="#29252B" stroke-linecap="round" stroke-linejoin="round" stroke-width=".3" d="m141.646 61.64-5.001-2.89-1.126.649 1.641.953zM130.852 56.384v.32l2.551 1.473 1.127-.654-3.678-2.123z"/><path fill="#fff" stroke="#29252B" stroke-linecap="round" stroke-linejoin="round" stroke-width=".3" d="M143.287 62.109h.005l.268-.505-5.387-3.112-.545-.315-.982.572 5 2.89zM132.524 55.225l-.69-.397-.566.325v.005h-.005l-.411.242 3.678 2.123.988-.567-2.552-1.473z"/><path fill="#fff" stroke="#29252B" stroke-linecap="round" stroke-linejoin="round" stroke-width=".3" d="m20.466 123.486.988-.572-2.572-1.474-1.127-.654.263-.155-1.03-.304-4.63-2.669-.987-.567-.823-.479-1.127-.649 14.693-8.496 12.023 6.95-1.127.65-10.803 6.255-.983.572-1.132.649-1.62.943.987.567 126.434-73.11-.988-.567-2.572-1.478-1.127-.65 6.688-3.854-2.058.047-5.597 3.235-.16-.092-.967-.557-.962-.561-2.248-1.299-.844-.515-2.176-1.257-.983.572 12.018 6.95-1.126.655-2.573 1.473-4.059 2.35-2.66 1.546-.987.572-1.127.649-2.181 1.262-2.573-1.473-1.126-.65 2.171-1.257-1.317-.381-1.842 1.067-5.479-3.17-.751-.432-1.127-.654-.982.571 12.017 6.951-1.126.655-12.142 7.017-.987.572-.438.253-3.241-1.87-2.793-1.619-.988-.572-3.874-2.236-1.127-.654-.982.572 12.018 6.95-1.029.593-.103.057-13.566 7.847-2.573-1.473-1.126-.655 13.566-7.842-.988-.572-11.889 6.93-.756 1.417-.988-.567-.988-.572-5.103-2.952-1.127-.65-.983.573 12.018 6.95-1.126.65-.32.185-1.126.65-12.131 7.012-2.572-1.479-1.127-.649 11.992-6.935-1.322-.376-11.658 6.74-.69-.392-.987-.572-.982-.572-3.56-2.061-1.127-.65-.633.366 63.366-36.644-.983-.567-14.765 8.532-18.608 10.764-93.06 53.813.983.567zm50.7-43.225 12.023 6.95-1.126.655-2.202 1.273-.988.572-1.127.65-1.445.834-7.79 4.519-2.572-1.48-1.126-.648 9.06-5.24-1.318-.377-8.745 5.045-2.249-1.299-.987-.572-.983-.572-2.011-1.159-1.127-.654-.582.34zm-20.902 23.042-1.127-.654 6.127-3.54-1.317-.381-5.797 3.354-3.797-2.195-.983-.572-.988-.572-.463-.262-1.126-.655 14.693-8.496 12.023 6.95-1.127.655-5.073 2.932-.987.572-1.127.649-7.367 4.261-1.127.654-7.948 4.591-.983.572-1.126.649-3.51 2.03-2.571-1.473-1.127-.655 3.195-1.844-1.317-.381-2.866 1.659-5.345-3.092-.885-.515-1.127-.654 14.693-8.497 12.023 6.951.988-.572z"/><path fill="#DDDADA" stroke="#29252B" stroke-linecap="round" stroke-linejoin="round" stroke-width=".3" d="m24.154 108.781-5.54 10.377.982.572 5.546-10.377.988.571 4.228 2.443.983.572 1.127.654 2.551 1.474 1.127-.655-12.018-6.95v1.303zM39.81 99.697l1.573.912-4.156 7.785.982.572 4.162-7.786.988.572 2.68 1.551.983.567 1.127.654 2.551 1.474 1.127-.649-12.018-6.956zM55.49 90.633l3.123 1.804-2.778 5.199.988.566L59.6 93.01l.982.572 1.137.654.983.567 1.127.654 2.551 1.474 1.127-.65-12.018-6.95zM75.842 84.265l-1.394 2.607.988.572 1.394-2.608.983.572.57.33 1.127.65 2.552 1.473 1.132-.65-12.023-6.95v1.304zM86.852 72.496l6.22 3.597-.01.015.987.572.005-.015.01.005 3.679 2.128 1.132-.654-12.023-6.951zM105.716 65.272l3.045 1.757.983.572 1.132.655 2.546 1.473.103-.061 1.029-.593-12.023-6.95v1.303zM133.893 45.296l1.035.598-4.641 8.692.983.567 4.645-8.687.988.566 3.221 1.866.987.571 1.127.65 2.552 1.473 1.126-.649-12.023-6.95z"/><path fill="#B7B6B6" stroke="#29252B" stroke-linecap="round" stroke-linejoin="round" stroke-width=".3" d="m151.779 58.342-5.633 3.257.88-1.65 1.662-3.09 2.49-4.664-1.307.031-5.597 10.475-9.667-2.777.334-.19.551-.32 1.126-.654.988-.572.545-.315 6.174-3.565 3.55-2.061h.91l2.907-.062v-1.304l-3.797.083-126.443 73.089-7.475 13.963v1.304l124.18-71.806 13.622-7.878zm-135.92 78.592.88-1.649 5.206-9.743 7.784 2.236 1.317.376zm7.1-12.449.33-.19.91-.516 1.127-.654.987-.572 10.876-6.286 1.867-1.077-6.45 12.073zm11.514 1.69.88-1.654 5.206-9.743 7.778 2.236 1.322.376zm7.094-12.448.334-.196.85-.515 1.131-.654.983-.572 10.932-6.317 1.867-1.083-6.45 12.073zm11.519 1.685.88-1.649 5.206-9.749 7.778 2.237 1.317.381zm7.094-12.449.334-.19.793-.459 1.126-.654.983-.572 10.994-6.353 1.868-1.082-6.452 12.057zm11.514 1.685.885-1.649 5.206-9.748 7.779 2.236 1.317.381zm7.1-12.448.329-.191.735-.423 1.127-.654.988-.572 11.05-6.389 1.868-1.082-6.452 12.078zm11.513 1.685.88-1.65 5.211-9.743 7.779 2.236 1.317.377zm7.1-12.45.329-.19.673-.386 1.127-.654.988-.572 11.112-6.426 1.868-1.077-6.452 12.073zm11.513 1.691.88-1.654 5.206-9.743 7.784 2.236 1.317.376zm7.099-12.449.33-.195.612-.35 1.127-.655.987-.572 11.169-6.477 1.873-1.082-6.451 12.078zm11.514 1.685.88-1.648 5.206-9.75 4.553 1.31 3.226.927 1.322.381z"/><path fill="#fff" stroke="#29252B" stroke-linecap="round" stroke-linejoin="round" stroke-width=".3" d="M124.68 72.867v.005h-.005l.026.01.967.557zM53.968 113.758l-.88 1.649 15.187-8.78-1.317-.377zM35.353 124.521l-.88 1.649 15.188-8.78-1.318-.381zM68.839 105.158l.026.011.967.556-.988-.567zM106.062 83.636l.025.005.967.562-.987-.572zM31.613 126.685l.026.006.967.561-.988-.572zM50.227 115.922l.025.01.967.557-.987-.572zM87.448 94.4l.026.005.967.561-.983-.572zM91.192 92.236l-.88 1.648 15.182-8.78-1.317-.38zM72.58 102.994l-.879 1.654 15.187-8.785-1.322-.376zM16.746 135.285l-.885 1.649 15.187-8.78-1.317-.381zM109.807 81.472l-.885 1.649 15.187-8.78-1.317-.381zM147.027 59.945l-.88 1.654 5.639-3.262-.016-1.134-1.224.711zM143.286 62.109l.026.01.967.557-.988-.567zM138.174 65.066l-9.759 5.642-.88 1.65 15.187-8.78-1.317-.377zM147.887 50.943l3.802-.082-.01-.593-4.78.103z"/><path fill="#DDDADA" stroke="#29252B" stroke-linecap="round" stroke-linejoin="round" stroke-width=".3" d="m21.453 124.053-.988-.572-12.017-6.951v1.303l.133.078.32.185 5.777 3.339.982.572 1.127.649 3.148 1.819-6.461 12.098-.469.871-12.017-6.951 7.46-13.963-.988-.572L0 129.921v1.304l.988.572 12.018 6.951.987.572v-1.309zM31.62 126.68l.988.572 6.451-12.077-1.867 1.082-5.135 9.604zM50.233 115.917l.988.572 6.452-12.073-1.868 1.077-5.16 9.661zM68.844 105.158l.988.567 6.45-12.072-1.872 1.076-5.186 9.713zM87.456 94.395l.983.572 6.451-12.078-1.868 1.082-5.216 9.764zM106.066 83.63l.988.573 6.451-12.078-1.867 1.082-5.248 9.816zM124.679 72.867l.987.572 6.452-12.072-1.868 1.077-5.273 9.872zM148.571 52.231l-1.847 3.458-2.382-1.392-6.168 3.566v.629l5.386 3.112-.267.505h-.005.005l.988.566 5.597-10.475-1.076.026z"/><path fill="#B7B6B6" stroke="#29252B" stroke-linecap="round" stroke-linejoin="round" stroke-width=".3" d="m31.639 126.691-.026-.005-.21-.062-4.487-1.288-3.627-1.041-.329.19 9.667 2.778-.02-.011zM50.253 115.932l-.026-.01-.452-.129-4.481-1.288-3.39-.974-.33.191 9.662 2.777-.016-.01zM68.867 105.169l-.026-.011h-.005l-.685-.196-4.48-1.288-3.154-.907-.33.191 9.662 2.777-.015-.01zM87.472 94.405l-.026-.005-.926-.268-4.48-1.288-2.913-.84-.334.196 9.667 2.777-.02-.01zM106.086 83.641l-.026-.005-1.162-.335-4.486-1.288-2.67-.768-.335.19 9.667 2.778-.021-.01zM124.699 72.883l-.025-.01-1.405-.403-4.481-1.288-2.438-.7-.329.19 9.666 2.777-.02-.01zM143.286 62.109l-1.641-.47-4.486-1.287-2.197-.634-.329.19 9.666 2.783-.02-.016-.967-.556z"/><path fill="#fff" stroke="#29252B" stroke-linecap="round" stroke-linejoin="round" stroke-width=".3" d="M193.559 16.344v-1.51l-32.606 18.853.304 1.33zM215.852 3.452l-1.307-.752-.669.386 1.307.753zM150.508 39.735v-.009l-.009.005zM158.988 34.82l-5.952 3.443.046 1.484 6.215-3.592z"/><path fill="#B7B6B6" stroke="#29252B" stroke-linecap="round" stroke-linejoin="round" stroke-width=".3" d="m193.561 16.344-32.303 18.673 1.018 4.436 31.285-18.09zM215.851 4.225v-.773l-.668.387zM160.311 40.587l-1.013-4.432-6.215 3.592.139 4.94.509-.293.355-.206z"/><path fill="#87DA65" stroke="#29252B" stroke-linecap="round" stroke-linejoin="round" stroke-width=".3" d="M210.768 13.963v1.886l.283.165 2.891-1.674.34-.196 2.891-1.67.345-.2 2.891-1.67.34-.196 2.891-1.674-7.794-4.509-.669-.386-1.301-.753-3.242-1.875-2.891 1.674-.339.196-2.897 1.675-.339.196-2.892 1.669-.339.2-1.261.727-1.918-1.107-4.198 2.426 13.01 7.523z"/><path fill="#5E8E44" stroke="#29252B" stroke-linecap="round" stroke-linejoin="round" stroke-width=".3" d="m220.409 10.604-2.891 1.67-.345.2-2.891 1.67-.339.195-2.892 1.675-.283-.165v-1.886l-4.198 2.427v3.74l4.198-2.426.283-.165 2.892-1.674.339-.196 2.891-1.675.345-.195 2.891-1.675.34-.196 2.891-1.67V8.735l-2.891 1.674z"/><path fill="#74B555" stroke="#29252B" stroke-linecap="round" stroke-linejoin="round" stroke-width=".3" d="M193.56 21.362v6.286l13.01-7.517v-3.74l-13.01-7.524v12.495M193.56 35.249v4.977l13.01 7.523V27.623z"/><path fill="#5E8E44" stroke="#29252B" stroke-linecap="round" stroke-linejoin="round" stroke-width=".3" d="m220.409 19.513-2.891 1.695-.345.2-2.891 1.696-.34.196-2.891 1.7q-.145.079-.283.165l-4.198 2.458v20.126l4.198-2.427v-6.384l3.174-1.907.34-.2 2.891-1.67.345-.201 2.891-1.67.34-.195 2.891-1.675V17.601l-2.891 1.695z"/><path fill="#DDDADA" stroke="#29252B" stroke-linecap="round" stroke-linejoin="round" stroke-width=".3" d="m151.607 44.698-.02-1.623h-.031z"/><path fill="#B7B6B6" stroke="#29252B" stroke-linecap="round" stroke-linejoin="round" stroke-width=".3" d="m159.971 47.594-1.358-.783-1.626-.943-2.902-1.68-.355.206 4.667 2.7 3.189 1.84v-.412z"/><path fill="#fff" stroke="#29252B" stroke-linecap="round" stroke-linejoin="round" stroke-width=".3" d="M161.586 50.64v-.593l-4.47.098-3.735.082.015.593 3.468-.078z"/><path fill="#B7B6B6" stroke="#29252B" stroke-linecap="round" stroke-linejoin="round" stroke-width=".3" d="M161.586 51.165v-.516l-4.723.103-3.467.078.035 1.303 5.325-.118 1.544-.036 1.301-.81z"/><path fill="#fff" stroke="#29252B" stroke-linecap="round" stroke-linejoin="round" stroke-width=".3" d="m220.409 12.124-2.892 1.675-.344.195-2.892 1.675-.339.196-2.891 1.674-.283.165-4.198 2.427-13.011 7.517-30.008 17.36.206.906.097.423 63.078-36.475-1.307-.752-1.986 1.149-2.891 1.67z"/><path fill="#DDDADA" stroke="#29252B" stroke-linecap="round" stroke-linejoin="round" stroke-width=".3" d="m155.86 21.172 3.128 13.649.309 1.334 1.013 4.432 1.276 5.554v5.018l1.307.758v-5.024l-5.772-26.453z"/><path fill="#fff" stroke="#29252B" stroke-linecap="round" stroke-linejoin="round" stroke-width=".3" d="m151.993 14.061 1.306-.757v-1.438l-1.677-.973-1.986 1.148-.566.33z"/><path fill="#B7B6B6" stroke="#29252B" stroke-linecap="round" stroke-linejoin="round" stroke-width=".3" d="m154.264 21.97-.967-6.698V13.31l-1.312.757v9.363l.597 36.583.113-.057.967-.474v-.897l-.036-1.216v-.061l-.03-1.124 5.983-3.735.751-.47-1.544.037-5.324.118-.036-1.303v-.593l3.735-.082 4.47-.098v-1.113l-3.189-1.845-4.666-2.7-.515.294-.144-4.936-.041-1.484-.221-7.811v-7.523l2.978-1.72.067-.042 1.261-.732 5.772 26.459.967-.557-.098-.428-.21-.906-1.271-5.555-1.029-4.431-.304-1.335-3.133-13.649-2.001-6.286-.849-.773-.278-9.351-.967.556z"/><path fill="#fff" stroke="#29252B" stroke-linecap="round" stroke-linejoin="round" stroke-width=".3" d="m154.693 3.622-.427-.278-.967.557.432.278z"/><path fill="#DDDADA" stroke="#29252B" stroke-linecap="round" stroke-linejoin="round" stroke-width=".3" d="m153.299 15.262.967 6.703-.535-17.786-.432-.279v11.362"/><path fill="#fff" stroke="#29252B" stroke-linecap="round" stroke-linejoin="round" stroke-width=".3" d="m161.588 51.165-1.302.809-.751.468-5.983 3.736.031 1.123 5.71-3.303 3.601-2.06z"/><path fill="#B7B6B6" stroke="#29252B" stroke-linecap="round" stroke-linejoin="round" stroke-width=".3" d="M151.555 43.055v-.006l-.005.005zM151.605 44.698l-.052-1.623h-.339l-8.499.16-.005.01-.268 1.314 5.392-.118 2.047-.047-6.662 3.85 1.132.654 6.657-3.855zM142.722 43.199l-.005.036z"/><path fill="#fff" stroke="#29252B" stroke-linecap="round" stroke-linejoin="round" stroke-width=".3" d="m142.84 42.617-.118.582-.005.036 8.499-.16h.38l-.01-.005-.031-.015h-.005l-1.05-.526-.01-.005z"/><path fill="#B7B6B6" stroke="#29252B" stroke-linecap="round" stroke-linejoin="round" stroke-width=".3" d="M226.932 9.872v5.014l-.138.88-3.154 1.85-2.891 1.696-.34.2-2.891 1.696-.345.2-2.891 1.696-.34.196-2.891 1.7q-.145.079-.283.165l-4.198 2.458-13.01 7.625-29.165 17.102-.515.299-.442.252-.962.557-1.94 1.123-.74.427-.062.037-3.154 1.818-2.922 1.69-.036-1.215v-.062l5.711-3.303 3.601-2.061v-5.019z"/><path fill="#4B415E" stroke="#29252B" stroke-linecap="round" stroke-linejoin="round" stroke-width=".3" d="m152.098 205.602 31.665-18.426-.103 36.676-31.665 18.431z"/><path fill="#8773A8" stroke="#29252B" stroke-linecap="round" stroke-linejoin="round" stroke-width=".3" d="m120.229 187.176 31.664-18.43 31.871 18.43-31.665 18.426z"/><path fill="#675A82" stroke="#29252B" stroke-linecap="round" stroke-linejoin="round" stroke-width=".3" d="m152.099 205.602-.103 36.681-31.871-18.431.103-36.676z"/><path fill="#5E8E44" stroke="#29252B" stroke-linecap="round" stroke-linejoin="round" stroke-width=".3" d="m120.171 135.388 31.665-18.43-.103 36.68-31.665 18.431z"/><path fill="#87DA65" stroke="#29252B" stroke-linecap="round" stroke-linejoin="round" stroke-width=".3" d="m88.296 116.957 31.67-18.435 31.871 18.435-31.665 18.431z"/><path fill="#74B555" stroke="#29252B" stroke-linecap="round" stroke-linejoin="round" stroke-width=".3" d="m120.171 135.388-.103 36.681-31.876-18.431.103-36.68z"/><path stroke="#29252B" stroke-linecap="round" stroke-linejoin="round" stroke-width=".3" d="m120.172 135.388-.206-36.866M151.837 116.958H88.302"/></g><defs><clipPath id="a"><path fill="#fff" d="M0 0h247v295H0z"/></clipPath></defs></svg>