<svg width="756" height="510" viewBox="0 0 756 510" fill="none" xmlns="http://www.w3.org/2000/svg">
<path d="M284.573 75.6869V85.7989C282.798 84.7797 280.95 83.8944 279.043 83.1504V73.0386C280.95 73.7825 282.798 74.6677 284.573 75.6869" fill="#858585"/>
<path d="M279.043 73.0384V83.1503C277.54 82.5617 275.986 82.0365 274.381 81.5744V71.4624C275.979 71.922 277.54 72.4474 279.043 73.0384Z" fill="#8A8A8A"/>
<path d="M274.38 71.4626V81.5746C273.067 81.205 271.729 80.8766 270.367 80.5896V70.4778C271.734 70.7599 273.071 71.0881 274.38 71.4626Z" fill="#8F8F8F"/>
<path d="M270.368 70.4778V80.5896C269.114 80.3342 267.837 80.1081 266.553 79.9257V69.8137C267.837 69.9961 269.114 70.2224 270.368 70.4778Z" fill="#949494"/>
<path d="M266.553 69.8137V79.9257C265.312 79.7506 264.058 79.6119 262.803 79.5098V69.3979C264.058 69.5001 265.312 69.6386 266.553 69.8137Z" fill="#999999"/>
<path d="M262.802 69.3982V79.51C261.54 79.4079 260.27 79.3349 259.001 79.3057V69.1938C260.27 69.1938 261.54 69.296 262.802 69.3982Z" fill="#9E9E9E"/>
<path d="M259.001 69.1934V79.3052C257.687 79.3052 256.367 79.3052 255.054 79.3052V69.2007C256.367 69.1496 257.687 69.1496 259.001 69.2007" fill="#A3A3A3"/>
<path d="M255.054 69.2156V79.3201C253.595 79.3712 252.194 79.4661 250.771 79.6048V69.5C252.194 69.3541 253.617 69.2594 255.054 69.2156Z" fill="#A8A8A8"/>
<path d="M250.771 69.4924V79.5972C249.115 79.765 247.474 79.9911 245.861 80.2829V70.1782C247.474 69.8864 249.115 69.6529 250.771 69.4924Z" fill="#ADADAD"/>
<path d="M245.862 70.2222V80.3269C243.392 80.7654 240.954 81.3724 238.566 82.1435V72.0315C240.953 71.2594 243.391 70.6548 245.862 70.2222Z" fill="#B3B3B3"/>
<path d="M238.581 71.9954V82.1074C235.656 83.0374 232.839 84.2749 230.176 85.7991V75.6871C232.839 74.1629 235.656 72.9254 238.581 71.9954Z" fill="#B8B8B8"/>
<path d="M230.175 75.6938L230.146 85.7985L23.1279 206.106L23.1571 195.994L230.175 75.6938Z" fill="#C5C5C5"/>
<path d="M23.1495 195.994V206.106L22.6826 206.383V196.271L23.1495 195.994Z" fill="#B8B8B8"/>
<path d="M22.6818 196.271V206.383C20.9465 207.414 19.3209 208.619 17.8301 209.98V199.868C19.3228 198.51 20.9482 197.305 22.6818 196.271" fill="#B3B3B3"/>
<path d="M17.8306 199.868V209.98C16.9695 210.768 16.1741 211.624 15.4521 212.541V202.429C16.1787 201.514 16.9764 200.657 17.8379 199.868" fill="#ADADAD"/>
<path d="M15.431 202.429V212.541C14.8544 213.266 14.3348 214.034 13.877 214.839V204.727C14.3348 203.924 14.8518 203.156 15.4237 202.429" fill="#A8A8A8"/>
<path d="M13.8984 204.727V214.839C13.5017 215.541 13.1602 216.273 12.877 217.028V206.916C13.1602 206.161 13.5017 205.429 13.8984 204.727" fill="#A3A3A3"/>
<path d="M12.8765 206.916V217.028C12.6087 217.739 12.3988 218.471 12.249 219.216V209.105C12.3988 208.359 12.6087 207.627 12.8765 206.916Z" fill="#9E9E9E"/>
<path d="M12.25 209.09V219.202C12.107 219.923 12.024 220.655 12.002 221.39V211.279C12.0209 210.543 12.1039 209.811 12.25 209.09" fill="#999999"/>
<path d="M23.3318 227.505V237.616C15.7588 233.239 11.9796 227.497 11.9942 221.755V211.644C11.9942 217.385 15.7588 223.134 23.3318 227.505Z" fill="#151316"/>
<path d="M732.737 334.438L732.708 344.55L284.543 85.7982L284.572 75.6863L732.737 334.438Z" fill="#898989"/>
<path d="M744.076 350.299V360.412C744.076 354.67 740.311 348.921 732.738 344.543V334.438C740.311 338.816 744.09 344.558 744.076 350.299Z" fill="#858585"/>
<path d="M744.068 350.643V360.754C744.043 361.49 743.957 362.222 743.812 362.943V352.831C743.957 352.11 744.043 351.378 744.068 350.643Z" fill="#19161A"/>
<path d="M743.813 352.853V362.965C743.667 363.71 743.459 364.443 743.192 365.154V355.049C743.458 354.337 743.665 353.605 743.813 352.86" fill="#19171B"/>
<path d="M743.193 355.027V365.132C742.908 365.887 742.564 366.619 742.164 367.321V357.209C742.563 356.507 742.907 355.775 743.193 355.02" fill="#1A181C"/>
<path d="M742.164 357.216V367.328C741.707 368.132 741.19 368.9 740.617 369.626V359.514C741.191 358.789 741.709 358.021 742.164 357.216" fill="#1B181C"/>
<path d="M740.632 359.514V369.626C739.903 370.539 739.106 371.396 738.246 372.187V362.075C739.108 361.285 739.905 360.429 740.632 359.514Z" fill="#1C191D"/>
<path d="M738.232 362.053V372.165C736.741 373.525 735.116 374.73 733.381 375.762V365.65C735.116 364.618 736.741 363.413 738.232 362.053" fill="#1D1A1E"/>
<path d="M733.38 365.701V375.813L732.913 376.083V365.978L733.38 365.701Z" fill="#1E1B1F"/>
<path d="M732.92 365.949L732.89 376.061L525.865 496.369L525.894 486.257L732.92 365.949Z" fill="#201D21"/>
<path d="M471.497 486.256L471.468 496.368L23.3027 237.616L23.3319 227.504L471.497 486.256Z" fill="#161417"/>
<path d="M525.895 486.257V496.361C523.232 497.888 520.415 499.128 517.49 500.06V489.948C520.413 489.016 523.23 487.778 525.895 486.257" fill="#1E1B1F"/>
<path d="M517.49 489.948V500.06C515.101 500.824 512.664 501.428 510.194 501.869V491.765C512.664 491.324 515.102 490.718 517.49 489.948" fill="#1D1A1E"/>
<path d="M510.208 491.765V501.869C508.589 502.161 506.95 502.39 505.291 502.555V492.443C506.947 492.283 508.589 492.049 510.208 491.765Z" fill="#1C191D"/>
<path d="M505.292 492.443V502.556C503.877 502.694 502.447 502.789 501.017 502.84V492.728C502.476 492.684 503.877 492.589 505.292 492.443Z" fill="#1B181C"/>
<path d="M501.017 492.728V502.84C499.704 502.884 498.383 502.891 497.062 502.84V492.728C498.383 492.728 499.704 492.728 501.017 492.728Z" fill="#1A181C"/>
<path d="M497.062 492.75V502.862C495.793 502.825 494.523 502.76 493.269 502.658V492.546C494.523 492.648 495.793 492.721 497.062 492.75Z" fill="#19171B"/>
<path d="M493.305 492.545V502.657C492.043 502.555 490.795 502.409 489.555 502.234V492.13C490.795 492.305 492.043 492.443 493.305 492.545" fill="#19161A"/>
<path d="M489.519 492.13V502.234C488.23 502.054 486.958 501.833 485.703 501.57V491.466C486.958 491.721 488.227 491.947 489.519 492.13Z" fill="#181519"/>
<path d="M485.703 491.466V501.571C484.339 501.293 482.996 500.965 481.69 500.593V490.481C482.996 490.853 484.339 491.21 485.703 491.466" fill="#171518"/>
<path d="M481.69 490.459V500.571C480.085 500.111 478.523 499.586 477.021 498.995V488.883C478.523 489.474 480.085 489.999 481.69 490.459Z" fill="#161417"/>
<path d="M477.021 488.905V499.017C475.12 498.265 473.274 497.381 471.498 496.369V486.257C473.27 487.276 475.117 488.161 477.021 488.905" fill="#151316"/>
<path d="M740.442 329.952C759.805 341.129 759.907 359.244 740.675 370.421L533.658 490.729C514.426 501.906 483.142 501.906 463.786 490.729L15.6207 231.984C-3.73504 220.814 -3.83717 202.692 15.3872 191.514L222.412 71.207C241.637 60.0299 272.928 60.0372 292.284 71.207L740.442 329.952ZM525.895 486.257L732.913 365.949C747.862 357.26 747.781 343.121 732.738 334.439L284.572 75.6866C269.528 67.0046 245.124 67.0046 230.175 75.6866L23.1499 195.994C8.20087 204.683 8.28112 218.815 23.3323 227.505L471.497 486.257C486.541 494.939 510.946 494.939 525.895 486.257" fill="white"/>
<path d="M525.895 486.257L732.913 365.949C747.862 357.26 747.781 343.121 732.738 334.439L284.572 75.6866C269.528 67.0046 245.124 67.0046 230.175 75.6866L23.1499 195.994C8.20087 204.683 8.28112 218.815 23.3323 227.505L471.497 486.257C486.541 494.939 510.946 494.939 525.895 486.257M740.442 329.952C759.805 341.129 759.907 359.244 740.675 370.421L533.658 490.729C514.426 501.906 483.142 501.906 463.786 490.729L15.6207 231.984C-3.73504 220.814 -3.83717 202.692 15.3872 191.514L222.412 71.207C241.637 60.0299 272.928 60.0372 292.284 71.207L740.442 329.952Z" stroke="#29252B" stroke-width="0.6" stroke-linecap="round" stroke-linejoin="round"/>
<path d="M732.737 334.438C747.781 343.128 747.861 357.26 732.912 365.949L525.894 486.256C510.945 494.938 486.541 494.938 471.497 486.256L23.3317 227.504C8.28055 218.822 8.20029 204.683 23.1493 195.994L230.174 75.6863C245.123 67.0043 269.521 67.0043 284.572 75.6863L732.737 334.438Z" fill="#232025"/>
<path d="M533.658 490.736V500.848C526.187 505.225 516.877 507.837 507.181 508.8L506.627 508.844C506.094 508.895 505.569 508.939 505.036 508.975L504.037 509.048L502.373 509.129H502.103H501.702H501.432H499.973H498.959H497.419H496.5C496.033 509.129 495.559 509.129 495.092 509.078L494.1 509.034L492.582 508.932L491.751 508.873H491.707C491.101 508.822 490.503 508.757 489.905 508.698L489.328 508.64C488.533 508.552 487.753 508.45 486.965 508.341L486.622 508.282C485.943 508.188 485.265 508.078 484.593 507.961C484.316 507.918 484.039 507.859 483.762 507.808L482.23 507.516H482.062L481.442 507.378L479.778 506.998L478.859 506.765C478.363 506.641 477.859 506.51 477.4 506.371L476.947 506.254L476.553 506.13C475.773 505.904 474.992 505.663 474.219 505.401L473.81 505.262C472.935 504.963 472.081 504.649 471.228 504.328L470.972 504.233L470.184 503.905L469.367 503.562C468.98 503.402 468.601 503.226 468.222 503.051L467.492 502.708C467.076 502.511 466.668 502.307 466.266 502.103L465.646 501.789C465.041 501.475 464.45 501.154 463.866 500.811L15.5916 242.096C5.85169 236.471 1 229.087 1 221.719V211.658C1 219.019 5.86629 226.373 15.5916 231.984L463.757 490.736C464.34 491.072 464.931 491.393 465.537 491.714L466.15 492.02L467.383 492.626L468.112 492.969L469.265 493.487L470.082 493.822L471.125 494.245C471.979 494.581 472.847 494.895 473.737 495.201L474.146 495.332C474.919 495.588 475.7 495.828 476.481 496.062C476.765 496.142 477.042 496.23 477.327 496.303L478.83 496.704L479.742 496.93L481.412 497.309L482.193 497.477C482.704 497.587 483.215 497.674 483.725 497.769L484.557 497.93C485.228 498.039 485.907 498.149 486.585 498.243L486.943 498.302C487.731 498.411 488.511 498.513 489.307 498.601L489.839 498.652C490.452 498.718 491.065 498.783 491.685 498.834L492.546 498.893L494.078 498.995L495.056 499.039C495.53 499.039 496.004 499.082 496.478 499.09C496.785 499.09 497.091 499.09 497.39 499.09C497.908 499.09 498.419 499.09 498.937 499.09H499.944H501.403H502.045H502.344L504 499.009L505.007 498.937C505.532 498.9 506.065 498.856 506.59 498.805C516.534 497.828 526.041 495.165 533.658 490.736Z" fill="white" stroke="#29252B" stroke-width="0.6" stroke-linecap="round" stroke-linejoin="round"/>
<path d="M310.305 262.831V350.927H310.217H310.1H309.699C309.368 350.956 309.04 350.978 308.714 350.993H308.481H308.08C307.817 350.993 307.547 350.993 307.284 350.993C307.182 350.993 307.087 350.993 306.985 350.993H306.613H306.175H305.876H305.548L305.198 350.949L304.468 350.869H304.133L303.819 350.818L303.045 350.679L302.681 350.614L302.44 350.555C302.133 350.49 301.834 350.417 301.535 350.336L301.163 350.242L301.032 350.205C300.499 350.044 299.974 349.869 299.463 349.672H299.39C299.164 349.585 298.953 349.483 298.734 349.388C298.515 349.293 298.478 349.286 298.354 349.22C298.23 349.154 298.004 349.052 297.829 348.957C297.654 348.863 297.457 348.768 297.282 348.666L59.2059 211.104C56.3314 209.448 54.8941 207.266 54.9014 205.092L54.9889 117.054C54.9901 117.585 55.0789 118.113 55.2516 118.615C55.7842 120.22 57.1339 121.76 59.2934 122.993L297.369 260.445L297.836 260.7C298.033 260.803 298.238 260.912 298.442 261.007L298.821 261.167C299.062 261.277 299.31 261.386 299.551 261.481C300.054 261.678 300.579 261.853 301.119 262.014L301.615 262.145L302.527 262.371L303.126 262.488L303.906 262.626C304.118 262.626 304.337 262.692 304.556 262.714C304.775 262.736 305.037 262.772 305.285 262.802L305.956 262.853H306.175H306.701H307.365H308.167H308.802C309.128 262.853 309.456 262.831 309.787 262.787L310.305 262.831Z" fill="white" stroke="#29252B" stroke-width="0.6" stroke-linecap="round" stroke-linejoin="round"/>
<path d="M507.356 146.952L507.276 235.056V235.18C507.276 235.282 507.276 235.384 507.276 235.479C507.276 235.574 507.276 235.785 507.225 235.939C507.225 235.939 507.225 235.99 507.225 236.019C507.225 236.048 507.167 236.216 507.145 236.311C507.123 236.405 507.072 236.603 507.021 236.748C507.021 236.748 507.021 236.807 507.021 236.843C507.021 236.88 506.933 237.018 506.897 237.106C506.86 237.193 506.765 237.405 506.685 237.558C506.685 237.558 506.685 237.631 506.634 237.668C506.537 237.844 506.429 238.014 506.313 238.178L506.24 238.273C506.174 238.361 506.116 238.456 506.043 238.543C505.97 238.631 505.861 238.762 505.759 238.871L505.664 238.988C505.503 239.163 505.328 239.338 505.138 239.514C505.113 239.542 505.083 239.566 505.051 239.586C504.912 239.71 504.759 239.834 504.606 239.958C504.453 240.083 504.343 240.177 504.197 240.28C504.051 240.382 503.847 240.513 503.672 240.63C503.497 240.747 503.431 240.798 503.293 240.878L503.117 240.987L408.338 296.063L358.661 324.933L334.585 338.933L318.009 348.564C317.563 348.821 317.103 349.052 316.63 349.257C316.499 349.322 316.353 349.381 316.214 349.439C315.842 349.592 315.485 349.738 315.069 349.87L314.813 349.972L314.653 350.015C314.405 350.096 314.149 350.161 313.923 350.227L313.347 350.387L312.537 350.555L312.07 350.657H311.99C311.469 350.745 310.944 350.818 310.414 350.876V262.831C310.976 262.772 311.53 262.699 312.07 262.605L312.625 262.488C312.895 262.437 313.165 262.386 313.427 262.32L314.004 262.167C314.259 262.094 314.507 262.028 314.733 261.948L315.156 261.802C315.543 261.671 315.93 261.525 316.302 261.372L316.718 261.189C317.189 260.983 317.65 260.752 318.096 260.496L503.117 152.883C503.314 152.767 503.49 152.65 503.672 152.526C503.854 152.402 504.037 152.3 504.197 152.176C504.358 152.052 504.474 151.964 504.606 151.855C504.737 151.745 504.912 151.614 505.058 151.483C505.204 151.351 505.481 151.089 505.671 150.884L505.766 150.768C505.937 150.577 506.098 150.377 506.247 150.169L506.313 150.075C506.452 149.877 506.576 149.67 506.685 149.454C506.768 149.309 506.842 149.158 506.904 149.002C506.955 148.885 507.006 148.769 507.05 148.645C507.094 148.521 507.137 148.353 507.174 148.207C507.212 148.085 507.244 147.96 507.269 147.835C507.297 147.683 507.314 147.529 507.32 147.375C507.339 147.235 507.351 147.093 507.356 146.952Z" fill="#DDDADA" stroke="#29252B" stroke-width="0.6" stroke-linecap="round" stroke-linejoin="round"/>
<path d="M503.045 140.933C508.765 144.231 508.802 149.586 503.118 152.884L318.01 260.46C312.326 263.765 303.082 263.765 297.363 260.46L59.2867 123.007C53.5668 119.702 53.5376 114.355 59.221 111.05L244.337 3.47327C250.013 0.175577 259.249 0.175577 264.969 3.47327L503.045 140.933Z" fill="#87DA65" stroke="#29252B" stroke-width="0.6" stroke-linecap="round" stroke-linejoin="round"/>
<path d="M503.118 152.884L318.01 260.46C312.326 263.765 303.083 263.765 297.363 260.46L273.644 246.78L260.512 239.185L466.253 119.688L503.075 140.948C508.773 144.231 508.802 149.586 503.118 152.884Z" fill="#DDDADA" stroke="#29252B" stroke-width="0.6" stroke-linecap="round" stroke-linejoin="round"/>
<path d="M466.229 119.673L260.488 239.17L226.03 219.275C240.118 199.138 241.928 144.201 259.532 134.045C279.333 122.613 279.53 190.741 299.338 179.279C315.148 170.145 318.096 81.472 328.718 40.2509C331.396 29.8325 334.555 22.442 338.568 20.1365C346.155 15.7591 350.89 33.0499 354.961 55.4042C361.527 91.4235 366.35 140.59 378.57 133.535C392.965 125.225 396.81 101.375 405.477 84.5654L457.876 114.821L466.229 119.673Z" fill="white" stroke="#29252B" stroke-width="0.6" stroke-linecap="round" stroke-linejoin="round"/>
<path d="M260.496 239.163L466.098 119.753" stroke="#606060" stroke-width="0.6" stroke-miterlimit="10"/>
<path d="M339.028 19.9324V193.55" stroke="#29252B" stroke-width="0.6" stroke-linecap="round" stroke-linejoin="round"/>
<path d="M378.571 133.564V170.59" stroke="#29252B" stroke-width="0.6" stroke-linecap="round" stroke-linejoin="round"/>
<path d="M420.989 93.5544V145.953" stroke="#29252B" stroke-width="0.6" stroke-linecap="round" stroke-linejoin="round"/>
<path d="M297.281 180.235V217.801" stroke="#29252B" stroke-width="0.6" stroke-linecap="round" stroke-linejoin="round"/>
<path d="M260.496 133.564V239.163" stroke="#29252B" stroke-width="0.6" stroke-linecap="round" stroke-linejoin="round"/>
<path d="M297.281 217.802L344.507 245.066" stroke="#29252B" stroke-width="0.6" stroke-linecap="round" stroke-linejoin="round"/>
<path d="M339.028 193.55L386.239 220.807" stroke="#29252B" stroke-width="0.6" stroke-linecap="round" stroke-linejoin="round"/>
<path d="M378.571 170.591L425.768 197.84" stroke="#29252B" stroke-width="0.6" stroke-linecap="round" stroke-linejoin="round"/>
<path d="M420.989 145.952L468.178 173.195" stroke="#29252B" stroke-width="0.6" stroke-linecap="round" stroke-linejoin="round"/>
<path d="M129.742 118.754C136.344 122.562 133.623 127.334 126.699 131.354C119.207 135.731 110.649 136.125 105.213 133.156L112.772 128.778C114.45 129.749 117.623 130.274 121.643 127.997C124.423 126.385 124.43 124.889 123.103 124.131C118.236 121.322 106.964 133.615 95.3203 126.91C90.3008 123.992 90.7677 119.184 97.7279 115.142C104.688 111.101 112.728 110.626 118.681 113.581L111.247 117.9C109.16 116.813 106.869 116.441 103.513 118.345C101.368 119.593 100.303 121.03 102.018 121.993C106.993 124.875 119.236 112.691 129.742 118.754Z" fill="white" stroke="#29252B" stroke-width="0.6" stroke-linecap="round" stroke-linejoin="round"/>
<path d="M155.509 98.0847C163.484 102.696 163.535 110.152 155.604 114.756C147.674 119.359 134.797 119.359 126.822 114.756C118.848 110.152 118.797 102.688 126.735 98.092C134.673 93.4957 147.55 93.4884 155.509 98.0847ZM133.622 110.823C137.839 113.26 144.646 113.26 148.834 110.823C153.022 108.386 153.014 104.439 148.797 102.003C144.58 99.5658 137.773 99.5731 133.571 102.003C129.369 104.432 129.405 108.379 133.622 110.816" fill="white"/>
<path d="M133.622 110.823C137.839 113.26 144.646 113.26 148.834 110.823C153.022 108.386 153.014 104.439 148.797 102.003C144.58 99.5658 137.773 99.5731 133.571 102.003C129.369 104.432 129.405 108.379 133.622 110.816M155.509 98.0847C163.484 102.696 163.535 110.152 155.604 114.756C147.674 119.359 134.797 119.359 126.822 114.756C118.848 110.152 118.797 102.688 126.735 98.092C134.673 93.4957 147.55 93.4884 155.509 98.0847Z" stroke="#29252B" stroke-width="0.6" stroke-linecap="round" stroke-linejoin="round"/>
<path d="M179.207 100.244L171.765 104.571L134.805 83.2307L142.246 78.9041L153.19 85.2443C154.014 83.1577 155.802 81.1878 158.582 79.5755C162.594 77.2408 167.876 76.0881 173.173 76.1173H178.609L178.733 81.6693L173.1 81.6327C170.421 81.5644 167.771 82.1956 165.41 83.464C161.23 85.8862 161.245 89.8406 165.454 92.27C169.664 94.6995 176.478 94.7068 180.666 92.27C182.782 91.0444 183.847 89.4248 183.803 87.8124L183.416 70.1346C183.358 67.0777 185.328 64.0135 189.341 61.6862C192.359 60.0125 195.675 58.9443 199.102 58.5417L197.643 57.6808L205.1 53.3472L232.554 69.2009L225.097 73.5345L223.638 72.6737C222.836 74.753 221.034 76.73 218.254 78.3423C214.241 80.677 208.966 81.8297 203.662 81.8078L198.234 81.7715L198.11 76.2193H203.728C206.41 76.288 209.064 75.6622 211.432 74.4027C215.62 71.9659 215.584 68.0188 211.367 65.582C207.15 63.1452 200.35 63.1452 196.162 65.582C194.046 66.815 192.981 68.4275 193.025 70.0398L193.448 87.7394C193.499 90.789 191.537 93.8606 187.524 96.188C184.497 97.858 181.174 98.9234 177.74 99.325L179.207 100.244Z" fill="white" stroke="#29252B" stroke-width="0.6" stroke-linecap="round" stroke-linejoin="round"/>
<path d="M242.694 63.3351L235.18 67.6979L198.227 46.3651L205.734 42.0022L242.694 63.3351Z" fill="white" stroke="#29252B" stroke-width="0.6" stroke-linecap="round" stroke-linejoin="round"/>
<path d="M306.174 262.882V350.986H305.875H305.547L305.197 350.942L304.467 350.862H304.132L303.818 350.811L303.045 350.672L302.68 350.607L302.439 350.548C302.133 350.483 301.834 350.41 301.534 350.329L301.162 350.235L301.031 350.198C300.498 350.037 299.973 349.862 299.462 349.665H299.389C299.163 349.578 298.952 349.476 298.733 349.381C298.514 349.286 298.477 349.279 298.353 349.213C298.229 349.147 298.003 349.045 297.828 348.95V260.715C298.025 260.817 298.229 260.927 298.434 261.022L298.813 261.182C299.054 261.292 299.302 261.401 299.543 261.496C300.046 261.693 300.571 261.868 301.111 262.028L301.607 262.16L302.519 262.386L303.118 262.503L303.898 262.641C304.11 262.641 304.329 262.707 304.548 262.729C304.766 262.751 305.029 262.787 305.277 262.816L305.948 262.868L306.174 262.882Z" fill="#DDDADA" stroke="#29252B" stroke-width="0.6" stroke-linecap="round" stroke-linejoin="round"/>
<path d="M557.639 217.481C556.865 217.481 556.123 217.173 555.575 216.626C555.028 216.078 554.721 215.336 554.721 214.562V206.274C554.745 201.924 553.608 197.647 551.428 193.883C549.247 190.119 546.103 187.005 542.318 184.861C538.562 182.669 534.29 181.518 529.941 181.527C525.592 181.536 521.325 182.705 517.578 184.912L499.674 195.316C499.343 195.509 498.976 195.634 498.596 195.685C498.216 195.736 497.83 195.712 497.459 195.614C497.089 195.516 496.741 195.345 496.436 195.113C496.132 194.88 495.876 194.59 495.683 194.258C495.296 193.589 495.19 192.794 495.389 192.048C495.587 191.301 496.073 190.663 496.741 190.275L514.645 179.863C519.277 177.136 524.553 175.692 529.928 175.68C535.304 175.669 540.585 177.09 545.229 179.798C549.906 182.45 553.791 186.302 556.484 190.956C559.177 195.61 560.581 200.897 560.55 206.274V214.562C560.55 215.335 560.244 216.076 559.698 216.623C559.152 217.17 558.412 217.479 557.639 217.481V217.481Z" fill="white" stroke="#29252B" stroke-width="0.6" stroke-linecap="round" stroke-linejoin="round"/>
<path d="M483.09 183.715C479.326 185.904 476.283 191.15 476.298 195.476C476.312 199.803 479.369 201.539 483.134 199.365L493.275 193.528C497.033 191.34 500.075 186.087 500.06 181.767C500.046 177.448 496.989 175.705 493.231 177.872L483.09 183.715Z" fill="#29252B" stroke="#29252B" stroke-width="0.6" stroke-linecap="round" stroke-linejoin="round"/>
<path d="M480.37 197.49C480.773 197.971 481.248 198.387 481.778 198.723L489.628 203.283C491.048 204.008 492.619 204.386 494.214 204.386C495.808 204.386 497.379 204.008 498.799 203.283L506.693 198.723C507.244 198.389 507.736 197.967 508.152 197.475C509.17 196.124 509.72 194.479 509.72 192.788C509.72 191.097 509.17 189.451 508.152 188.1C507.75 187.621 507.275 187.207 506.744 186.874L498.894 182.315C497.475 181.591 495.905 181.214 494.312 181.214C492.719 181.214 491.149 181.591 489.73 182.315L481.829 186.874C481.276 187.224 480.784 187.66 480.37 188.166C479.364 189.512 478.821 191.148 478.821 192.828C478.821 194.508 479.364 196.143 480.37 197.49V197.49Z" fill="white" stroke="#29252B" stroke-width="0.6" stroke-linecap="round" stroke-linejoin="round"/>
<path d="M481.777 198.723C481.415 197.077 481.589 195.359 482.273 193.82C482.382 193.604 482.504 193.394 482.638 193.193C483.916 191.455 485.582 190.041 487.504 189.063C491.291 187.02 493.239 185.97 496.383 185.459C499.225 185.009 502.127 185.133 504.919 185.824L492.787 179.404L479.705 187.779C477.575 190.355 477.123 193.674 478.516 196.06C479.273 197.289 480.422 198.227 481.777 198.723V198.723Z" fill="#29252B" stroke="#29252B" stroke-width="0.6" stroke-linecap="round" stroke-linejoin="round"/>
<path d="M408.257 348.782V407.754H408.111C407.78 407.783 407.452 407.805 407.126 407.82H406.893H405.434C405.31 407.82 405.186 407.82 405.061 407.82H404.332H404.004L403.653 407.776L402.924 407.696L402.581 407.659L402.274 407.601C402.012 407.601 401.756 407.52 401.501 407.469C401.377 407.469 401.253 407.433 401.136 407.404L400.896 407.345C400.589 407.28 400.29 407.207 399.991 407.127L399.612 407.032L399.487 406.988C398.955 406.835 398.43 406.66 397.926 406.463H397.846C397.62 406.375 397.408 406.273 397.189 406.178L396.81 406.018C396.467 405.857 396.139 405.682 395.825 405.507L395.737 405.456L338.83 372.625C335.949 370.961 334.511 368.78 334.519 366.606L334.562 339.042L334.606 307.67C334.616 308.499 334.821 309.314 335.204 310.049C336.073 311.578 337.362 312.826 338.918 313.646L358.617 325.034L395.825 346.513C396.168 346.71 396.555 346.9 396.897 347.075L397.27 347.235L397.999 347.549C398.51 347.746 399.028 347.921 399.568 348.075L400.064 348.213C400.363 348.293 400.669 348.366 400.969 348.432L401.574 348.556L402.347 348.687L403.004 348.782L403.734 348.862H404.164H404.405H405.134H405.806H406.608H407.243C407.571 348.862 407.9 348.862 408.221 348.797L408.257 348.782Z" fill="white" stroke="#29252B" stroke-width="0.6" stroke-linecap="round" stroke-linejoin="round"/>
<path d="M605.769 232.918L605.659 291.868C605.663 291.912 605.663 291.955 605.659 291.999C605.659 292.101 605.659 292.196 605.659 292.298C605.659 292.4 605.659 292.605 605.608 292.758C605.608 292.758 605.608 292.809 605.608 292.838C605.608 292.867 605.55 293.028 605.528 293.13C605.506 293.232 605.455 293.422 605.404 293.568C605.404 293.568 605.404 293.626 605.404 293.655C605.404 293.685 605.316 293.831 605.28 293.918C605.243 294.006 605.149 294.224 605.068 294.378C605.068 294.414 605.068 294.451 605.017 294.487C604.922 294.655 604.813 294.823 604.696 294.991L604.623 295.093C604.558 295.18 604.499 295.268 604.426 295.355C604.338 295.472 604.243 295.584 604.142 295.691L604.047 295.8C603.881 295.987 603.706 296.165 603.522 296.333L603.434 296.406C603.295 296.53 603.135 296.654 602.989 296.778L602.581 297.099L602.055 297.449C601.924 297.529 601.814 297.617 601.676 297.697L601.501 297.807L546.549 329.74L546.162 329.966L433.333 395.505L432.946 395.731L416.334 405.383C415.896 405.631 415.429 405.864 414.955 406.112C414.824 406.178 414.678 406.229 414.539 406.288C414.167 406.448 413.809 406.594 413.394 406.725C413.306 406.725 413.226 406.798 413.131 406.828L412.97 406.871L412.241 407.083C412.051 407.134 411.861 407.192 411.672 407.236C411.482 407.28 411.132 407.36 410.862 407.411L410.395 407.513H410.315C409.768 407.615 409.213 407.688 408.651 407.747H408.527H408.279V348.775H408.739C409.293 348.717 409.848 348.644 410.395 348.541C410.585 348.541 410.767 348.469 410.95 348.432C411.132 348.396 411.489 348.323 411.752 348.257C412.015 348.191 412.139 348.155 412.328 348.104L413.058 347.892L413.474 347.746C413.868 347.615 414.255 347.469 414.627 347.309L415.042 347.133C415.517 346.922 415.984 346.688 416.421 346.404L601.53 238.828C601.727 238.711 601.902 238.587 602.084 238.47L602.61 238.12L603.018 237.799L603.471 237.427C603.689 237.23 603.894 237.026 604.083 236.821L604.178 236.712C604.353 236.515 604.514 236.31 604.66 236.113L604.725 236.011C604.863 235.815 604.987 235.611 605.098 235.398C605.175 235.243 605.248 235.09 605.316 234.939C605.367 234.822 605.419 234.705 605.462 234.589C605.506 234.472 605.55 234.297 605.586 234.151C605.625 234.029 605.656 233.905 605.681 233.779C605.681 233.626 605.718 233.472 605.732 233.319C605.751 233.186 605.763 233.052 605.769 232.918V232.918Z" fill="#DDDADA" stroke="#29252B" stroke-width="0.6" stroke-linecap="round" stroke-linejoin="round"/>
<path d="M601.464 226.936C607.177 230.233 607.206 235.588 601.53 238.886L416.414 346.462C410.738 349.767 401.494 349.767 395.782 346.462L338.875 313.595C333.155 310.29 333.125 304.942 338.809 301.637L523.925 194.061C529.601 190.763 538.845 190.763 544.565 194.061L601.464 226.936Z" fill="url(#paint0_linear_1598_1562)" stroke="#29252B" stroke-width="0.6" stroke-linecap="round" stroke-linejoin="round"/>
<path d="M481.003 323.809C477.239 325.998 474.196 331.243 474.211 335.57C474.226 339.896 477.253 341.625 481.047 339.437L491.188 333.6C494.946 331.411 497.988 326.166 497.981 321.846C497.973 317.527 494.902 315.776 491.144 317.943L481.003 323.809Z" fill="#29252B" stroke="#29252B" stroke-width="0.6" stroke-linecap="round" stroke-linejoin="round"/>
<path d="M522.837 300.426C519.073 302.615 516.03 307.868 516.045 312.194C516.06 316.52 519.116 318.257 522.881 316.083L533.022 310.246C536.78 308.057 539.822 302.804 539.815 298.485C539.807 294.166 536.736 292.415 532.978 294.589L522.837 300.426Z" fill="#29252B" stroke="#29252B" stroke-width="0.6" stroke-linecap="round" stroke-linejoin="round"/>
<path d="M404.129 348.797V407.783H403.961L403.611 407.74L402.881 407.66L402.538 407.623L402.232 407.565C401.969 407.565 401.714 407.484 401.458 407.433C401.334 407.433 401.21 407.397 401.094 407.368L400.853 407.309C400.546 407.244 400.247 407.171 399.948 407.09L399.569 406.996L399.445 406.952C398.912 406.799 398.387 406.624 397.883 406.427H397.803C397.577 406.339 397.365 406.237 397.147 406.142L396.767 405.981C396.424 405.821 396.096 405.646 395.782 405.471V346.448C396.125 346.645 396.512 346.835 396.855 347.01L397.227 347.17L397.956 347.484C398.467 347.681 398.985 347.856 399.525 348.009L400.021 348.148C400.32 348.228 400.627 348.301 400.926 348.367L401.531 348.491L402.305 348.622L402.961 348.717L403.691 348.797H404.129Z" fill="#DDDADA" stroke="#29252B" stroke-width="0.6" stroke-linecap="round" stroke-linejoin="round"/>
<path d="M481.003 323.809C477.239 325.998 474.196 331.243 474.211 335.57C474.226 339.896 477.253 341.625 481.047 339.437L491.188 333.6C494.946 331.411 497.988 326.166 497.981 321.846C497.973 317.527 494.902 315.776 491.144 317.943L481.003 323.809Z" fill="#29252B" stroke="#29252B" stroke-width="0.6" stroke-linecap="round" stroke-linejoin="round"/>
<path d="M478.29 337.583C478.695 338.065 479.173 338.481 479.706 338.816L487.556 343.376C488.976 344.101 490.547 344.479 492.141 344.479C493.735 344.479 495.307 344.101 496.727 343.376L504.621 338.816C505.17 338.48 505.662 338.059 506.08 337.569C507.099 336.22 507.65 334.575 507.65 332.885C507.65 331.194 507.099 329.55 506.08 328.201C505.679 327.72 505.207 327.304 504.679 326.968L496.829 322.408C495.41 321.685 493.84 321.308 492.247 321.308C490.654 321.308 489.084 321.685 487.665 322.408L479.764 326.968C479.21 327.318 478.717 327.757 478.305 328.266C477.297 329.61 476.751 331.243 476.748 332.922C476.745 334.602 477.286 336.237 478.29 337.583V337.583Z" fill="white" stroke="#29252B" stroke-width="0.6" stroke-linecap="round" stroke-linejoin="round"/>
<path d="M479.705 338.816C479.336 337.172 479.508 335.453 480.194 333.914C480.245 333.811 480.369 333.593 480.566 333.286C481.84 331.545 483.508 330.13 485.432 329.157C489.212 327.114 491.16 326.063 494.304 325.56C497.144 325.104 500.048 325.226 502.84 325.917L490.714 319.497L477.626 327.873C475.503 330.448 475.05 333.768 476.437 336.153C477.196 337.383 478.347 338.321 479.705 338.816V338.816Z" fill="#29252B" stroke="#29252B" stroke-width="0.6" stroke-linecap="round" stroke-linejoin="round"/>
<path d="M546.906 310.254C546.394 310.253 545.892 310.118 545.449 309.862C545.005 309.606 544.638 309.238 544.382 308.794C543.992 308.126 543.884 307.33 544.081 306.581C544.278 305.833 544.764 305.194 545.432 304.804L610.97 266.669C618.474 262.31 627.001 260.019 635.679 260.031C644.357 260.042 652.877 262.356 660.37 266.734L692.646 285.63C694.131 286.49 695.361 287.727 696.212 289.216C697.063 290.705 697.504 292.393 697.491 294.108C697.499 295.824 697.053 297.511 696.196 298.997C695.34 300.484 694.105 301.717 692.617 302.571L683.695 307.758C683.363 307.951 682.997 308.077 682.617 308.128C682.237 308.179 681.851 308.155 681.48 308.056C681.109 307.958 680.762 307.788 680.457 307.555C680.152 307.323 679.896 307.032 679.704 306.7C679.511 306.369 679.386 306.003 679.334 305.623C679.283 305.243 679.308 304.857 679.406 304.486C679.504 304.115 679.674 303.768 679.907 303.463C680.14 303.158 680.43 302.902 680.762 302.71L689.684 297.522C690.289 297.181 690.79 296.683 691.137 296.081C691.483 295.479 691.662 294.795 691.654 294.101C691.667 293.405 691.492 292.719 691.146 292.115C690.801 291.512 690.298 291.013 689.692 290.672L657.415 271.776C650.816 267.917 643.312 265.878 635.668 265.867C628.024 265.855 620.514 267.871 613.903 271.71L548.365 309.845C547.924 310.109 547.42 310.25 546.906 310.254V310.254Z" fill="white" stroke="#29252B" stroke-width="0.6" stroke-linecap="round" stroke-linejoin="round"/>
<path d="M695.923 311.027C695.52 311.51 695.045 311.928 694.515 312.267L686.643 316.82C685.223 317.545 683.651 317.922 682.057 317.922C680.463 317.922 678.892 317.545 677.472 316.82L669.578 312.26C669.029 311.92 668.537 311.497 668.119 311.005C667.103 309.654 666.554 308.011 666.554 306.321C666.554 304.631 667.103 302.987 668.119 301.637C668.519 301.156 668.995 300.742 669.527 300.411L677.377 295.851C678.796 295.128 680.366 294.751 681.959 294.751C683.551 294.751 685.122 295.128 686.541 295.851L694.442 300.411C694.994 300.76 695.487 301.197 695.901 301.703C696.912 303.046 697.46 304.68 697.464 306.361C697.468 308.042 696.927 309.679 695.923 311.027V311.027Z" fill="white" stroke="#29252B" stroke-width="0.6" stroke-linecap="round" stroke-linejoin="round"/>
<path d="M522.837 300.426C519.073 302.615 516.03 307.868 516.045 312.194C516.06 316.52 519.116 318.257 522.881 316.083L533.022 310.246C536.78 308.057 539.822 302.804 539.815 298.485C539.807 294.166 536.736 292.415 532.978 294.589L522.837 300.426Z" fill="#29252B" stroke="#29252B" stroke-width="0.6" stroke-linecap="round" stroke-linejoin="round"/>
<path d="M520.124 314.2C520.528 314.686 521.005 315.104 521.54 315.441L529.39 320.001C530.81 320.726 532.381 321.104 533.975 321.104C535.569 321.104 537.141 320.726 538.561 320.001L546.455 315.441C547.004 315.101 547.496 314.678 547.914 314.186C548.933 312.837 549.484 311.193 549.484 309.502C549.484 307.811 548.933 306.167 547.914 304.818C547.514 304.339 547.041 303.926 546.513 303.592L538.663 299.033C537.244 298.309 535.674 297.932 534.081 297.932C532.488 297.932 530.918 298.309 529.499 299.033L521.598 303.592C521.044 303.94 520.551 304.376 520.139 304.884C519.131 306.227 518.585 307.86 518.582 309.54C518.579 311.219 519.12 312.854 520.124 314.2Z" fill="white" stroke="#29252B" stroke-width="0.6" stroke-linecap="round" stroke-linejoin="round"/>
<path d="M521.54 315.441C521.171 313.797 521.342 312.077 522.029 310.538C522.137 310.32 522.261 310.11 522.401 309.911C523.675 308.17 525.343 306.755 527.267 305.781C531.047 303.739 532.995 302.688 536.139 302.177C538.98 301.727 541.883 301.851 544.675 302.542L532.549 296.122L519.461 304.497C517.33 307.065 516.885 310.385 518.272 312.771C519.029 314.004 520.181 314.945 521.54 315.441V315.441Z" fill="#29252B" stroke="#29252B" stroke-width="0.6" stroke-linecap="round" stroke-linejoin="round"/>
<path d="M620.776 368.977V398.708L620.214 398.773H620.09H619.689C619.36 398.773 619.039 398.824 618.704 398.839H618.47H617.011H616.726H616.602C616.354 398.839 616.106 398.839 615.873 398.795H615.545L615.202 398.751C614.954 398.751 614.713 398.708 614.472 398.671H614.129L613.815 398.62L613.042 398.481L612.685 398.423L612.437 398.357C612.13 398.292 611.831 398.219 611.532 398.139L611.16 398.044H611.036C610.496 397.883 609.978 397.708 609.467 397.511H609.387C609.161 397.424 608.949 397.329 608.73 397.227L608.351 397.066C607.986 396.891 607.621 396.701 607.286 396.504L591.023 387.115V384.787C591.019 384.929 591.006 385.07 590.987 385.21C590.987 385.364 590.987 385.517 590.936 385.67C590.885 385.823 590.87 385.918 590.841 386.042C590.812 386.166 590.768 386.334 590.717 386.48C590.666 386.626 590.615 386.721 590.564 386.837L550.349 363.622C547.475 361.959 546.038 359.777 546.045 357.603L546.118 330.018L546.505 329.792C547.317 331.557 548.7 332.999 550.43 333.885L607.337 366.716C607.651 366.905 607.986 367.073 608.322 367.234L608.409 367.277L608.789 367.438C609.029 367.547 609.27 367.657 609.518 367.752C610.022 367.949 610.547 368.124 611.08 368.284L611.583 368.416L612.488 368.642L613.093 368.758L613.867 368.897L614.516 368.992L615.245 369.072L615.924 369.123C616.165 369.123 616.413 369.123 616.654 369.167H617.325C617.587 369.167 617.857 369.167 618.12 369.167H618.755C619.085 369.167 619.414 369.145 619.74 369.101C619.915 369.101 620.09 369.101 620.258 369.058L620.776 368.977Z" fill="white" stroke="#29252B" stroke-width="0.6" stroke-linecap="round" stroke-linejoin="round"/>
<path d="M546.119 327.829C546.12 328.485 546.248 329.134 546.498 329.741L546.111 329.967L546.119 327.829Z" fill="#DDDADA" stroke="#29252B" stroke-width="0.6" stroke-linecap="round" stroke-linejoin="round"/>
<path d="M590.988 385.144C591.007 385.004 591.019 384.863 591.024 384.721V387.049L590.564 386.786C590.616 386.669 590.674 386.545 590.718 386.429C590.761 386.312 590.805 386.137 590.842 385.991C590.878 385.845 590.915 385.743 590.937 385.619C590.958 385.495 590.973 385.298 590.988 385.144Z" fill="#DDDADA" stroke="#29252B" stroke-width="0.6" stroke-linecap="round" stroke-linejoin="round"/>
<path d="M704.152 318.957L704.072 348.695C704.075 348.736 704.075 348.778 704.072 348.819C704.072 348.921 704.072 349.023 704.072 349.118C704.072 349.213 704.072 349.424 704.013 349.578C704.017 349.604 704.017 349.631 704.013 349.658C704.013 349.76 703.955 349.855 703.933 349.957C703.911 350.059 703.86 350.242 703.802 350.388V350.482C703.802 350.57 703.714 350.657 703.678 350.745C703.641 350.833 703.546 351.052 703.466 351.197C703.446 351.232 703.429 351.269 703.415 351.307C703.313 351.482 703.211 351.65 703.094 351.817L703.021 351.912C702.955 352.007 702.897 352.095 702.824 352.182C702.751 352.27 702.642 352.401 702.539 352.511C702.51 352.551 702.478 352.59 702.445 352.627C702.279 352.812 702.103 352.987 701.919 353.153L701.832 353.233C701.693 353.357 701.533 353.474 701.379 353.598C701.226 353.722 701.117 353.817 700.971 353.919C700.825 354.021 700.628 354.16 700.453 354.269C700.278 354.378 700.205 354.444 700.073 354.524L699.898 354.626L627.947 396.438C627.51 396.694 627.043 396.92 626.568 397.168L626.153 397.343C625.781 397.496 625.423 397.642 625.007 397.774L624.752 397.876L624.591 397.919C624.343 398 624.088 398.065 623.862 398.131L623.285 398.292C623.023 398.357 622.753 398.408 622.483 398.459L622.009 398.562H621.928C621.564 398.627 621.199 398.678 620.834 398.722V368.992C621.235 368.948 621.629 368.89 622.016 368.824L622.563 368.707C622.833 368.656 623.103 368.605 623.373 368.539L623.942 368.386C624.197 368.313 624.445 368.248 624.672 368.167L625.095 368.029C625.481 367.89 625.868 367.752 626.24 367.591L626.656 367.416C627.125 367.196 627.583 366.953 628.028 366.686L699.979 324.874C700.176 324.765 700.351 324.641 700.533 324.524L701.058 324.174C701.204 324.064 701.336 323.955 701.467 323.845C701.598 323.736 701.773 323.605 701.912 323.481C702.051 323.357 702.342 323.079 702.532 322.875L702.627 322.766C702.798 322.574 702.956 322.372 703.101 322.16C703.13 322.132 703.154 322.1 703.174 322.065C703.309 321.868 703.433 321.663 703.546 321.453C703.627 321.299 703.692 321.146 703.758 320.993C703.815 320.879 703.866 320.762 703.911 320.643C703.962 320.497 703.999 320.351 704.035 320.205C704.073 320.083 704.105 319.958 704.13 319.833C704.13 319.68 704.13 319.526 704.181 319.373C704.178 319.234 704.168 319.095 704.152 318.957V318.957Z" fill="#DDDADA" stroke="#29252B" stroke-width="0.6" stroke-linecap="round" stroke-linejoin="round"/>
<path d="M699.876 312.938C705.589 316.243 705.618 321.591 699.942 324.889L627.991 366.701C622.315 370.006 613.078 370.006 607.358 366.701L550.451 333.87C544.739 330.572 544.709 325.217 550.385 321.92L622.336 280.107C628.013 276.802 637.249 276.802 642.969 280.107L699.876 312.938Z" fill="#87DA65" stroke="#29252B" stroke-width="0.6" stroke-linecap="round" stroke-linejoin="round"/>
<path d="M506.204 434.873V464.603C505.985 464.603 505.766 464.64 505.54 464.647H505.306H503.811H503.446L502.716 464.603H502.388L502.089 464.567H502.06C501.812 464.567 501.571 464.523 501.33 464.486L500.987 464.45L500.673 464.399L499.944 464.26L499.579 464.202L499.331 464.136C499.032 464.07 498.726 463.998 498.426 463.917L498.054 463.822H497.93C497.39 463.662 496.872 463.487 496.362 463.29H496.281C496.055 463.202 495.844 463.1 495.625 463.005C495.406 462.911 495.369 462.903 495.253 462.845C494.881 462.67 494.523 462.48 494.18 462.283L493.794 462.057L437.244 429.416C434.369 427.752 432.932 425.571 432.939 423.397L433.012 395.811L433.399 395.585C433.59 396.038 433.835 396.467 434.129 396.862C434.991 398.022 436.094 398.982 437.361 399.678L493.83 432.275L494.297 432.545C494.647 432.75 495.027 432.932 495.369 433.107L495.749 433.268C495.99 433.377 496.23 433.487 496.478 433.581C496.982 433.778 497.507 433.954 498.04 434.114L498.543 434.245L499.448 434.472L500.053 434.588L500.827 434.727C501.046 434.727 501.257 434.792 501.476 434.814C501.695 434.836 501.943 434.873 502.169 434.895H502.206L502.884 434.946C503.125 434.946 503.373 434.946 503.614 434.989H504.285C504.548 434.989 504.817 434.989 505.08 434.989C505.343 434.989 505.503 434.989 505.715 434.989L506.204 434.873Z" fill="white" stroke="#29252B" stroke-width="0.6" stroke-linecap="round" stroke-linejoin="round"/>
<path d="M433.225 395.205C433.255 395.307 433.291 395.407 433.334 395.505L432.947 395.731V393.578C432.947 393.852 432.969 394.126 433.013 394.396C433.059 394.671 433.13 394.942 433.225 395.205V395.205Z" fill="#DDDADA" stroke="#29252B" stroke-width="0.6" stroke-linecap="round" stroke-linejoin="round"/>
<path d="M591.024 384.721V387.049L590.944 414.452V414.583C590.939 414.683 590.927 414.783 590.907 414.882C590.907 415.035 590.907 415.189 590.856 415.342C590.86 415.368 590.86 415.395 590.856 415.422C590.856 415.517 590.798 415.619 590.769 415.714C590.74 415.809 590.696 416.006 590.645 416.152V416.239C590.645 416.334 590.557 416.421 590.521 416.509C590.457 416.664 590.384 416.815 590.302 416.961C590.288 416.999 590.271 417.036 590.251 417.071C590.153 417.245 590.046 417.413 589.93 417.574L589.864 417.676L589.667 417.946C589.58 418.056 589.477 418.165 589.383 418.275L589.288 418.384C589.12 418.566 588.952 418.742 588.762 418.917L588.675 418.99L588.222 419.362C588.091 419.471 587.96 419.581 587.814 419.683L587.289 420.033L586.917 420.281L586.734 420.39L514.783 462.203C514.337 462.46 513.877 462.691 513.404 462.896C513.273 462.961 513.127 463.02 512.988 463.078C512.616 463.231 512.259 463.377 511.843 463.509L511.588 463.611L511.427 463.654C511.179 463.735 510.924 463.8 510.698 463.873L510.121 464.027L509.319 464.194L508.844 464.296H508.764C508.217 464.391 507.662 464.464 507.108 464.523H506.984H506.59H506.262V434.792H506.67C506.845 434.792 507.02 434.792 507.188 434.748C507.75 434.69 508.305 434.617 508.852 434.522L509.399 434.413L510.209 434.238L510.778 434.085C511.033 434.012 511.281 433.946 511.507 433.866L511.931 433.727C512.317 433.589 512.704 433.443 513.076 433.289L513.492 433.114C513.966 432.895 514.433 432.669 514.871 432.385L586.822 390.573C587.019 390.456 587.194 390.339 587.376 390.215C587.559 390.091 587.734 389.989 587.901 389.865L588.31 389.544C588.463 389.42 588.616 389.303 588.755 389.172C588.894 389.04 589.178 388.778 589.368 388.574L589.47 388.457C589.638 388.26 589.798 388.063 589.944 387.859L590.017 387.764C590.154 387.565 590.278 387.357 590.389 387.144C590.465 387.001 590.533 386.855 590.594 386.706C590.594 386.706 590.594 386.706 590.594 386.706C590.645 386.589 590.703 386.465 590.747 386.348C590.791 386.232 590.834 386.056 590.871 385.911C590.907 385.765 590.944 385.662 590.966 385.538C590.988 385.414 590.966 385.232 591.017 385.079C591.024 384.96 591.027 384.841 591.024 384.721V384.721Z" fill="#DDDADA" stroke="#29252B" stroke-width="0.6" stroke-linecap="round" stroke-linejoin="round"/>
<path d="M586.69 378.703C592.41 382 592.439 387.355 586.763 390.653L514.805 432.465C509.129 435.77 499.893 435.77 494.173 432.465L437.266 399.598C431.553 396.293 431.524 390.945 437.2 387.647L509.151 345.828C514.834 342.53 524.071 342.53 529.791 345.828L586.69 378.703Z" fill="#87DA65" stroke="#29252B" stroke-width="0.6" stroke-linecap="round" stroke-linejoin="round"/>
<path d="M658.875 339.904L611.445 335.242L642.722 330.58L658.875 339.904Z" fill="white" stroke="#29252B" stroke-width="0.6" stroke-linecap="round" stroke-linejoin="round"/>
<path d="M638.98 328.42L607.695 333.082L618.333 316.499L638.98 328.42Z" fill="white" stroke="#29252B" stroke-width="0.6" stroke-linecap="round" stroke-linejoin="round"/>
<path d="M646.924 310.283L618.339 316.499L594.555 302.768L646.924 310.283Z" fill="white" stroke="#29252B" stroke-width="0.6" stroke-linecap="round" stroke-linejoin="round"/>
<path d="M646.925 310.283L638.98 328.42L618.34 316.499L646.925 310.283Z" fill="white" stroke="#29252B" stroke-width="0.6" stroke-linecap="round" stroke-linejoin="round"/>
<path d="M650.69 312.442L658.876 339.903L642.723 330.579L650.69 312.442Z" fill="white" stroke="#29252B" stroke-width="0.6" stroke-linecap="round" stroke-linejoin="round"/>
<path d="M618.331 316.499L607.694 333.082L594.562 302.768L618.331 316.499Z" fill="white" stroke="#29252B" stroke-width="0.6" stroke-linecap="round" stroke-linejoin="round"/>
<path d="M521.327 357.545C521.438 357.598 521.534 357.679 521.606 357.78C521.677 357.881 521.722 357.998 521.735 358.121L521.801 369.305C521.774 369.553 521.684 369.79 521.54 369.993C521.396 370.196 521.202 370.359 520.977 370.466L472.285 398.759C471.973 398.921 471.626 399.006 471.274 399.006C470.922 399.006 470.576 398.921 470.264 398.759C470.154 398.704 470.059 398.623 469.989 398.522C469.919 398.421 469.876 398.304 469.863 398.182L469.797 386.998C469.825 386.751 469.915 386.516 470.06 386.315C470.204 386.113 470.397 385.951 470.621 385.845L519.321 357.545C519.631 357.385 519.975 357.301 520.324 357.301C520.673 357.301 521.017 357.385 521.327 357.545V357.545Z" fill="white" stroke="#29252B" stroke-width="0.6" stroke-linecap="round" stroke-linejoin="round"/>
<path d="M557.507 378.418C557.619 378.47 557.717 378.551 557.79 378.652C557.862 378.753 557.908 378.871 557.923 378.994L557.981 390.179C557.954 390.426 557.864 390.663 557.72 390.866C557.575 391.069 557.381 391.232 557.156 391.339L508.464 419.632C508.153 419.793 507.808 419.877 507.458 419.877C507.107 419.877 506.762 419.793 506.451 419.632C506.339 419.578 506.244 419.497 506.172 419.396C506.101 419.296 506.056 419.178 506.042 419.055L505.977 407.871C506.004 407.623 506.093 407.387 506.238 407.184C506.382 406.981 506.576 406.818 506.801 406.711L555.5 378.411C555.811 378.252 556.155 378.17 556.504 378.171C556.853 378.172 557.197 378.257 557.507 378.418Z" fill="white" stroke="#29252B" stroke-width="0.6" stroke-linecap="round" stroke-linejoin="round"/>
<path d="M549.256 373.668C549.767 373.96 549.862 374.478 549.256 374.829L500.601 403.129C499.987 403.459 499.299 403.625 498.602 403.61H479.268C478.92 403.622 478.575 403.541 478.269 403.377C477.751 403.078 477.656 402.56 478.269 402.21L526.961 373.917C527.574 373.584 528.263 373.419 528.96 373.435H548.264C548.61 373.425 548.952 373.506 549.256 373.668V373.668Z" fill="white" stroke="#29252B" stroke-width="0.6" stroke-linecap="round" stroke-linejoin="round"/>
<path d="M502.06 434.815V464.559C501.812 464.559 501.571 464.516 501.33 464.479L500.988 464.443L500.674 464.392L499.944 464.253L499.579 464.195L499.331 464.129C499.032 464.063 498.726 463.99 498.427 463.91L498.055 463.815H497.931C497.391 463.655 496.873 463.48 496.362 463.283H496.282C496.056 463.195 495.844 463.093 495.625 462.998C495.406 462.903 495.37 462.896 495.253 462.838C494.881 462.662 494.524 462.473 494.181 462.276L493.794 462.05V432.268L494.261 432.538C494.611 432.743 494.99 432.925 495.333 433.1L495.713 433.261C495.953 433.37 496.194 433.479 496.442 433.574C496.946 433.771 497.471 433.946 498.004 434.107L498.507 434.238L499.412 434.464L500.017 434.581L500.791 434.72C501.009 434.72 501.221 434.785 501.44 434.807C501.659 434.829 501.848 434.793 502.06 434.815Z" fill="#DDDADA" stroke="#29252B" stroke-width="0.6" stroke-linecap="round" stroke-linejoin="round"/>
<path d="M616.691 369.152V398.89H616.603C616.355 398.89 616.107 398.89 615.874 398.846H615.545L615.202 398.802C614.954 398.802 614.713 398.759 614.473 398.722H614.13L613.816 398.671L613.043 398.532L612.685 398.474L612.437 398.408C612.131 398.343 611.832 398.27 611.533 398.19L611.16 398.095H611.036C610.497 397.934 609.978 397.759 609.468 397.562H609.388C609.161 397.475 608.95 397.38 608.731 397.278L608.352 397.117V367.336L608.439 367.38L608.819 367.54C609.059 367.649 609.3 367.759 609.548 367.854C610.051 368.051 610.577 368.226 611.109 368.386L611.613 368.518L612.517 368.744L613.123 368.861L613.896 368.999L614.546 369.094L615.275 369.174L615.954 369.225C616.195 369.131 616.443 369.138 616.691 369.152Z" fill="#DDDADA" stroke="#29252B" stroke-width="0.6" stroke-linecap="round" stroke-linejoin="round"/>
<path d="M467.419 425.257C471.184 427.446 474.226 432.691 474.212 437.018C474.197 441.344 471.14 443.081 467.375 440.914L457.234 435.077C453.477 432.888 450.435 427.643 450.449 423.324C450.464 419.004 453.521 417.253 457.278 419.42L467.419 425.257Z" fill="#29252B" stroke="#29252B" stroke-width="0.6" stroke-linecap="round" stroke-linejoin="round"/>
<path d="M470.132 439.032C469.731 439.515 469.256 439.931 468.724 440.265L460.874 444.824C459.454 445.549 457.883 445.928 456.289 445.928C454.694 445.928 453.123 445.549 451.703 444.824L443.809 440.265C443.259 439.93 442.766 439.509 442.35 439.017C441.333 437.667 440.783 436.023 440.783 434.333C440.783 432.643 441.333 430.999 442.35 429.649C442.753 429.168 443.228 428.752 443.758 428.416L451.608 423.856C453.027 423.133 454.597 422.756 456.19 422.756C457.783 422.756 459.353 423.133 460.772 423.856L468.673 428.416C469.226 428.768 469.718 429.207 470.132 429.715C471.138 431.06 471.682 432.694 471.682 434.373C471.682 436.053 471.138 437.687 470.132 439.032V439.032Z" fill="white" stroke="#29252B" stroke-width="0.6" stroke-linecap="round" stroke-linejoin="round"/>
<path d="M468.725 440.264C469.087 438.619 468.913 436.901 468.229 435.362C468.118 435.146 467.996 434.937 467.864 434.734C466.586 432.997 464.92 431.582 462.998 430.605C459.211 428.562 457.263 427.511 454.119 427.008C451.281 426.552 448.38 426.673 445.59 427.365L457.715 420.945L470.797 429.321C472.927 431.896 473.38 435.216 471.986 437.601C471.229 438.83 470.08 439.768 468.725 440.264V440.264Z" fill="#29252B" stroke="#29252B" stroke-width="0.6" stroke-linecap="round" stroke-linejoin="round"/>
<path d="M441.833 445.174C438.695 445.177 435.613 444.344 432.903 442.76L402.706 425.074C399.407 423.169 396.672 420.423 394.779 417.117C392.886 413.81 391.903 410.061 391.93 406.251C391.913 402.442 392.906 398.697 394.808 395.397C396.71 392.096 399.453 389.36 402.757 387.465L487.775 337.978C488.106 337.785 488.473 337.659 488.853 337.608C489.233 337.557 489.619 337.581 489.99 337.68C490.36 337.778 490.708 337.948 491.013 338.181C491.317 338.413 491.573 338.704 491.766 339.035C491.958 339.367 492.084 339.733 492.135 340.113C492.186 340.493 492.162 340.879 492.064 341.25C491.965 341.621 491.795 341.968 491.562 342.273C491.33 342.578 491.039 342.834 490.708 343.026L405.69 392.492C403.272 393.881 401.265 395.886 399.873 398.303C398.481 400.72 397.754 403.462 397.767 406.251C397.748 409.039 398.468 411.782 399.853 414.202C401.239 416.621 403.24 418.631 405.654 420.026L435.851 437.711C437.663 438.766 439.722 439.322 441.819 439.322C443.916 439.322 445.975 438.766 447.787 437.711C448.118 437.518 448.484 437.393 448.864 437.342C449.244 437.29 449.631 437.315 450.001 437.413C450.372 437.511 450.72 437.681 451.024 437.914C451.329 438.147 451.585 438.437 451.778 438.769C451.97 439.1 452.096 439.466 452.147 439.846C452.198 440.226 452.174 440.613 452.076 440.983C451.977 441.354 451.807 441.702 451.574 442.006C451.342 442.311 451.051 442.567 450.72 442.76C448.022 444.334 444.957 445.167 441.833 445.174V445.174Z" fill="white" stroke="#29252B" stroke-width="0.6" stroke-linecap="round" stroke-linejoin="round"/>
<path d="M754.997 351.205C754.997 351.453 754.997 351.701 754.938 351.934C754.88 352.168 754.887 352.372 754.858 352.591C754.829 352.81 754.785 353.08 754.741 353.321C754.698 353.561 754.654 353.758 754.603 353.977C754.552 354.196 754.493 354.451 754.428 354.707C754.362 354.962 754.311 355.145 754.238 355.363C754.165 355.582 754.085 355.838 754.004 356.093C753.924 356.348 753.844 356.516 753.764 356.728C753.683 356.939 753.559 357.231 753.45 357.457C753.341 357.683 753.26 357.873 753.158 358.077C753.056 358.282 752.903 358.574 752.771 358.807L752.443 359.405C752.268 359.697 752.086 359.989 751.896 360.281C751.787 360.456 751.677 360.638 751.553 360.813C751.334 361.134 751.093 361.448 750.823 361.769C750.714 361.915 750.612 362.068 750.495 362.214L750.32 362.418C750.065 362.732 749.802 363.046 749.525 363.36L749.291 363.622C748.963 363.98 748.62 364.352 748.255 364.695L748.058 364.884C747.788 365.147 747.504 365.41 747.212 365.665L746.483 366.292C746.256 366.482 746.03 366.672 745.797 366.854C745.563 367.037 745.286 367.263 745.023 367.46L744.294 368.014C744.017 368.211 743.739 368.408 743.455 368.598C743.17 368.788 742.937 368.955 742.667 369.13C742.397 369.306 742.076 369.51 741.769 369.7C741.463 369.889 741.04 370.174 740.624 370.429L533.606 490.736C530.176 492.7 526.546 494.295 522.779 495.493C519.718 496.484 516.593 497.264 513.426 497.828C511.361 498.2 509.253 498.492 507.13 498.704V508.815C509.253 508.604 511.361 508.312 513.433 507.933C516.598 507.37 519.72 506.592 522.779 505.605C526.547 504.408 530.176 502.814 533.606 500.848L740.631 380.541L741.237 380.184C741.427 380.074 741.594 379.957 741.777 379.841L742.674 379.272C742.944 379.097 743.199 378.922 743.462 378.739C743.725 378.557 744.024 378.352 744.301 378.155L745.031 377.601C745.293 377.404 745.556 377.2 745.804 376.995L746.49 376.426C746.731 376.222 746.971 376.018 747.219 375.806C747.314 375.719 747.424 375.638 747.511 375.551C747.599 375.463 747.883 375.201 748.073 375.018L748.263 374.828C748.627 374.478 748.992 374.099 749.299 373.756C749.379 373.676 749.452 373.588 749.525 373.501C749.809 373.187 750.079 372.873 750.335 372.552L750.503 372.355C750.525 372.322 750.549 372.291 750.575 372.26C750.67 372.144 750.743 372.02 750.838 371.903C751.079 371.589 751.312 371.268 751.568 370.947C751.692 370.772 751.801 370.597 751.911 370.422C752.1 370.13 752.283 369.838 752.458 369.546C752.502 369.466 752.56 369.386 752.604 369.306C752.647 369.225 752.728 369.065 752.786 368.948C752.925 368.7 753.049 368.452 753.173 368.218C753.297 367.985 753.37 367.803 753.465 367.591C753.559 367.38 753.676 367.095 753.778 366.862L753.917 366.526C753.917 366.424 753.983 366.322 754.019 366.219C754.107 365.986 754.18 365.745 754.253 365.49C754.326 365.235 754.391 365.052 754.449 364.833L754.625 364.104C754.625 363.98 754.69 363.848 754.719 363.717C754.749 363.586 754.719 363.542 754.719 363.454C754.763 363.206 754.807 362.958 754.836 362.725C754.865 362.491 754.895 362.294 754.916 362.075C754.938 361.857 754.96 361.579 754.975 361.346C754.989 361.112 754.975 361.054 754.975 360.908C754.975 360.762 754.975 360.624 754.975 360.478V350.366C755.033 350.628 755.011 350.92 754.997 351.205Z" fill="#DDDADA" stroke="#29252B" stroke-width="0.6" stroke-linecap="round" stroke-linejoin="round"/>
<path d="M550.678 483.674C551.648 483.112 552.429 483.565 552.436 484.674C552.404 485.281 552.229 485.872 551.925 486.398C551.62 486.925 551.196 487.371 550.685 487.701C549.715 488.263 548.927 487.811 548.927 486.702C548.958 486.095 549.133 485.503 549.437 484.977C549.742 484.451 550.167 484.004 550.678 483.674V483.674Z" fill="#29252B"/>
<path d="M556.325 480.413C557.288 479.858 558.076 480.304 558.076 481.413C558.046 482.02 557.873 482.612 557.57 483.14C557.267 483.668 556.843 484.116 556.333 484.448C555.362 485.002 554.574 484.557 554.574 483.441C554.605 482.833 554.78 482.242 555.085 481.716C555.389 481.189 555.814 480.743 556.325 480.413V480.413Z" fill="#29252B"/>
<path d="M561.966 477.152C562.936 476.597 563.724 477.042 563.724 478.159C563.693 478.765 563.519 479.356 563.216 479.882C562.913 480.408 562.49 480.855 561.98 481.186C561.01 481.748 560.222 481.296 560.215 480.179C560.25 479.573 560.427 478.984 560.731 478.458C561.035 477.932 561.458 477.485 561.966 477.152Z" fill="#29252B"/>
<path d="M567.612 473.898C568.575 473.336 569.371 473.781 569.371 474.897C569.34 475.504 569.166 476.095 568.863 476.621C568.56 477.148 568.136 477.595 567.627 477.925C566.657 478.487 565.869 478.035 565.861 476.926C565.893 476.318 566.068 475.727 566.373 475.201C566.677 474.675 567.102 474.228 567.612 473.898Z" fill="#29252B"/>
<path d="M573.259 470.637C574.222 470.082 575.01 470.527 575.017 471.636C574.985 472.242 574.81 472.833 574.507 473.359C574.205 473.885 573.782 474.332 573.273 474.664C572.303 475.226 571.515 474.773 571.508 473.664C571.541 473.058 571.716 472.467 572.021 471.941C572.325 471.415 572.749 470.968 573.259 470.637V470.637Z" fill="#29252B"/>
<path d="M502.059 499.046V509.158H501.658H501.388H499.929H498.915H497.375H496.456C495.989 509.158 495.515 509.158 495.048 509.107L494.056 509.063L492.538 508.961L491.707 508.903H491.663C491.057 508.852 490.459 508.786 489.861 508.728L489.284 508.669C488.489 508.582 487.709 508.48 486.921 508.37L486.578 508.312C485.899 508.217 485.221 508.108 484.549 507.991C484.272 507.947 483.995 507.889 483.718 507.838L482.186 507.546H482.018L481.398 507.407L479.734 507.028L478.815 506.794C478.319 506.67 477.815 506.539 477.356 506.4L476.904 506.284L476.51 506.16C475.729 505.933 474.948 505.693 474.175 505.43L473.766 505.291C472.891 504.992 472.037 504.679 471.184 504.358V494.231C472.037 494.567 472.905 494.88 473.795 495.187L474.204 495.318C474.977 495.573 475.758 495.814 476.539 496.048C476.823 496.128 477.1 496.215 477.385 496.288L478.888 496.69L479.8 496.916L481.471 497.295L482.251 497.463C482.762 497.573 483.273 497.66 483.783 497.755L484.615 497.915C485.286 498.025 485.965 498.134 486.643 498.229L487.001 498.287C487.789 498.397 488.569 498.499 489.365 498.587L489.897 498.638C490.51 498.703 491.123 498.769 491.743 498.82L492.604 498.878L494.136 498.981L495.114 499.024C495.588 499.024 496.062 499.068 496.536 499.075C496.843 499.075 497.149 499.075 497.448 499.075C497.966 499.075 498.477 499.075 498.995 499.075H500.002H501.461L502.059 499.046Z" fill="#DDDADA" stroke="#29252B" stroke-width="0.6" stroke-linecap="round" stroke-linejoin="round"/>
<path d="M567.811 244.141C568.715 244.667 568.715 245.506 567.811 246.031L549.206 256.843C548.703 257.101 548.145 257.235 547.579 257.235C547.014 257.235 546.456 257.101 545.952 256.843L508.489 235.211C507.832 234.832 507.628 234.263 507.978 233.752C508.25 233.468 508.581 233.248 508.948 233.107C509.315 232.966 509.709 232.907 510.101 232.935H541.889L527.093 224.392C526.895 224.326 526.724 224.199 526.602 224.03C526.48 223.862 526.415 223.659 526.415 223.45C526.415 223.242 526.48 223.039 526.602 222.871C526.724 222.702 526.895 222.575 527.093 222.509L545.704 211.69C546.207 211.434 546.763 211.301 547.328 211.301C547.892 211.301 548.448 211.434 548.951 211.69L586.422 233.322C587.079 233.701 587.283 234.277 586.925 234.781C586.797 234.959 586.63 235.106 586.437 235.211C585.937 235.481 585.377 235.616 584.81 235.605H553.051L567.811 244.141ZM566.081 225.34L553 232.942H579.265L566.133 225.347M549.79 231.06L562.871 223.465L549.739 215.863L549.819 231.06M528.917 243.215L541.998 235.613H515.733L528.866 243.215M532.01 223.465L545.143 231.06L545.055 215.863L531.981 223.465M532.098 245.097L545.23 252.692L545.143 237.495L532.069 245.097M549.834 252.692L562.908 245.097L549.775 237.495L549.863 252.692" fill="white"/>
<path d="M566.081 225.34L553 232.942H579.265L566.133 225.347M549.79 231.06L562.871 223.465L549.739 215.863L549.819 231.06M528.917 243.215L541.998 235.613H515.733L528.866 243.215M532.01 223.465L545.143 231.06L545.055 215.863L531.981 223.465M532.098 245.097L545.23 252.692L545.143 237.495L532.069 245.097M549.834 252.692L562.908 245.097L549.775 237.495L549.863 252.692M567.811 244.141C568.715 244.667 568.715 245.506 567.811 246.031L549.206 256.843C548.703 257.101 548.145 257.235 547.579 257.235C547.014 257.235 546.456 257.101 545.952 256.843L508.489 235.211C507.832 234.832 507.628 234.263 507.978 233.752C508.25 233.468 508.581 233.248 508.948 233.107C509.315 232.966 509.709 232.907 510.101 232.935H541.889L527.093 224.392C526.895 224.326 526.724 224.199 526.602 224.03C526.48 223.862 526.415 223.659 526.415 223.45C526.415 223.242 526.48 223.039 526.602 222.871C526.724 222.702 526.895 222.575 527.093 222.509L545.704 211.69C546.207 211.434 546.763 211.301 547.328 211.301C547.892 211.301 548.448 211.434 548.951 211.69L586.422 233.322C587.079 233.701 587.283 234.277 586.925 234.781C586.797 234.959 586.63 235.106 586.437 235.211C585.937 235.481 585.377 235.616 584.81 235.605H553.051L567.811 244.141Z" stroke="#29252B" stroke-width="0.6" stroke-linecap="round" stroke-linejoin="round"/>
<defs>
<linearGradient id="paint0_linear_1598_1562" x1="469.243" y1="234.304" x2="474.955" y2="459.839" gradientUnits="userSpaceOnUse">
<stop stop-color="#8773A8"/>
<stop offset="1" stop-color="#29252B"/>
</linearGradient>
</defs>
</svg>
