<svg xmlns="http://www.w3.org/2000/svg" width="756" height="510" fill="none"><path fill="#858585" d="M284.573 75.687v10.112a41 41 0 0 0-5.53-2.649V73.04a41 41 0 0 1 5.53 2.648"/><path fill="#8A8A8A" d="M279.043 73.038V83.15a53 53 0 0 0-4.662-1.576V71.462a52 52 0 0 1 4.662 1.576"/><path fill="#8F8F8F" d="M274.38 71.463v10.112a62 62 0 0 0-4.013-.985V70.478q2.05.423 4.013.985"/><path fill="#949494" d="M270.368 70.478V80.59a65 65 0 0 0-3.815-.664V69.814c1.284.182 2.561.408 3.815.664"/><path fill="#999" d="M266.553 69.814v10.112a64 64 0 0 0-3.75-.416V69.398c1.255.102 2.509.24 3.75.416"/><path fill="#9E9E9E" d="M262.802 69.398V79.51a66 66 0 0 0-3.801-.204V69.194c1.269 0 2.539.102 3.801.204"/><path fill="#A3A3A3" d="M259.001 69.193v10.112h-3.947V69.201a51 51 0 0 1 3.947 0"/><path fill="#A8A8A8" d="M255.054 69.216V79.32c-1.459.051-2.86.146-4.283.285V69.5a60 60 0 0 1 4.283-.284"/><path fill="#ADADAD" d="M250.771 69.492v10.105a64 64 0 0 0-4.91.686V70.178a60 60 0 0 1 4.91-.686"/><path fill="#B3B3B3" d="M245.862 70.222v10.105a55 55 0 0 0-7.296 1.817V72.03a54 54 0 0 1 7.296-1.809"/><path fill="#B8B8B8" d="M238.581 71.995v10.112a43.4 43.4 0 0 0-8.405 3.692V75.687a43.4 43.4 0 0 1 8.405-3.692"/><path fill="#C5C5C5" d="m230.175 75.694-.029 10.105L23.128 206.106l.03-10.112z"/><path fill="#B8B8B8" d="M23.15 195.994v10.112l-.467.277v-10.112z"/><path fill="#B3B3B3" d="M22.682 196.271v10.112a29.7 29.7 0 0 0-4.852 3.597v-10.112a30 30 0 0 1 4.852-3.597"/><path fill="#ADADAD" d="M17.83 199.868v10.112a21.5 21.5 0 0 0-2.378 2.561v-10.112a22 22 0 0 1 2.386-2.561"/><path fill="#A8A8A8" d="M15.431 202.429v10.112a18 18 0 0 0-1.554 2.298v-10.112q.688-1.206 1.547-2.298"/><path fill="#A3A3A3" d="M13.898 204.727v10.112a15.6 15.6 0 0 0-1.021 2.189v-10.112a15.6 15.6 0 0 1 1.021-2.189"/><path fill="#9E9E9E" d="M12.877 206.916v10.112a14 14 0 0 0-.628 2.188v-10.111q.226-1.12.627-2.189"/><path fill="#999" d="M12.25 209.09v10.112a13.3 13.3 0 0 0-.248 2.188v-10.111q.029-1.106.248-2.189"/><path fill="#151316" d="M23.332 227.505v10.111c-7.573-4.377-11.352-10.119-11.338-15.861v-10.111c0 5.741 3.765 11.49 11.338 15.861"/><path fill="#898989" d="m732.737 334.438-.029 10.112L284.543 85.798l.029-10.112z"/><path fill="#858585" d="M744.076 350.299v10.113c0-5.742-3.765-11.491-11.338-15.869v-10.105c7.573 4.378 11.352 10.12 11.338 15.861"/><path fill="#19161A" d="M744.068 350.643v10.111a13.4 13.4 0 0 1-.256 2.189v-10.112q.218-1.084.256-2.188"/><path fill="#19171B" d="M743.813 352.853v10.112a14 14 0 0 1-.621 2.189v-10.105q.399-1.07.621-2.189"/><path fill="#1A181C" d="M743.193 355.027v10.105a15.4 15.4 0 0 1-1.029 2.189v-10.112q.6-1.055 1.029-2.189"/><path fill="#1B181C" d="M742.164 357.216v10.112a18 18 0 0 1-1.547 2.298v-10.112a18 18 0 0 0 1.547-2.298"/><path fill="#1C191D" d="M740.632 359.514v10.112a23 23 0 0 1-2.386 2.561v-10.112a22 22 0 0 0 2.386-2.561"/><path fill="#1D1A1E" d="M738.232 362.053v10.112a30 30 0 0 1-4.851 3.597V365.65a30 30 0 0 0 4.851-3.597"/><path fill="#1E1B1F" d="M733.38 365.701v10.112l-.467.27v-10.105z"/><path fill="#201D21" d="m732.92 365.949-.03 10.112-207.025 120.308.029-10.112z"/><path fill="#161417" d="m471.497 486.256-.029 10.112L23.303 237.616l.029-10.112z"/><path fill="#1E1B1F" d="M525.895 486.257v10.104a43.4 43.4 0 0 1-8.405 3.699v-10.112a43.8 43.8 0 0 0 8.405-3.691"/><path fill="#1D1A1E" d="M517.49 489.948v10.112a57 57 0 0 1-7.296 1.809v-10.104a56 56 0 0 0 7.296-1.817"/><path fill="#1C191D" d="M510.208 491.765v10.104a63 63 0 0 1-4.917.686v-10.112a64 64 0 0 0 4.917-.678"/><path fill="#1B181C" d="M505.292 492.443v10.113a70 70 0 0 1-4.275.284v-10.112a59 59 0 0 0 4.275-.285"/><path fill="#1A181C" d="M501.017 492.728v10.112a55 55 0 0 1-3.955 0v-10.112z"/><path fill="#19171B" d="M497.062 492.75v10.112a73 73 0 0 1-3.793-.204v-10.112a65 65 0 0 0 3.793.204"/><path fill="#19161A" d="M493.305 492.545v10.112a63 63 0 0 1-3.75-.423V492.13q1.858.262 3.75.415"/><path fill="#181519" d="M489.519 492.13v10.104a57 57 0 0 1-3.816-.664v-10.104c1.255.255 2.524.481 3.816.664"/><path fill="#171518" d="M485.703 491.466v10.105a54 54 0 0 1-4.013-.978v-10.112c1.306.372 2.649.729 4.013.985"/><path fill="#161417" d="M481.69 490.459v10.112a52 52 0 0 1-4.669-1.576v-10.112a52 52 0 0 0 4.669 1.576"/><path fill="#151316" d="M477.021 488.905v10.112a43.4 43.4 0 0 1-5.523-2.648v-10.112a41 41 0 0 0 5.523 2.648"/><path fill="#fff" d="M740.442 329.952c19.363 11.177 19.465 29.292.233 40.469L533.658 490.729c-19.232 11.177-50.516 11.177-69.872 0L15.621 231.984c-19.356-11.17-19.458-29.292-.234-40.47L222.412 71.207c19.225-11.177 50.516-11.17 69.872 0zM525.895 486.257l207.018-120.308c14.949-8.689 14.868-22.828-.175-31.51L284.572 75.687c-15.044-8.682-39.448-8.682-54.397 0L23.15 195.994c-14.95 8.689-14.869 22.821.182 31.511l448.165 258.752c15.044 8.682 39.449 8.682 54.398 0"/><path stroke="#29252B" stroke-linecap="round" stroke-linejoin="round" stroke-width=".6" d="m525.895 486.257 207.018-120.308c14.949-8.689 14.868-22.828-.175-31.51L284.572 75.687c-15.044-8.682-39.448-8.682-54.397 0L23.15 195.994c-14.95 8.689-14.869 22.821.182 31.511l448.165 258.752c15.044 8.682 39.449 8.682 54.398 0m214.547-156.305c19.363 11.177 19.465 29.292.233 40.469L533.658 490.729c-19.232 11.177-50.516 11.177-69.872 0L15.621 231.984c-19.356-11.17-19.458-29.292-.234-40.47L222.412 71.207c19.225-11.177 50.516-11.17 69.872 0z"/><path fill="#232025" d="M732.737 334.438c15.044 8.69 15.124 22.822.175 31.511L525.894 486.256c-14.949 8.682-39.353 8.682-54.397 0L23.332 227.504c-15.051-8.682-15.132-22.821-.183-31.51L230.174 75.686c14.949-8.682 39.347-8.682 54.398 0z"/><path fill="#fff" stroke="#29252B" stroke-linecap="round" stroke-linejoin="round" stroke-width=".6" d="M533.658 490.736v10.112c-7.471 4.377-16.781 6.989-26.477 7.952l-.554.044c-.533.051-1.058.095-1.591.131l-.999.073-1.664.081H496.5c-.467 0-.941 0-1.408-.051l-.992-.044-1.518-.102-.831-.059h-.044c-.606-.051-1.204-.116-1.802-.175l-.577-.058a87 87 0 0 1-2.363-.299l-.343-.059a59 59 0 0 1-2.029-.321c-.277-.043-.554-.102-.831-.153l-1.532-.292h-.168l-.62-.138-1.664-.38-.919-.233c-.496-.124-1-.255-1.459-.394l-.453-.117-.394-.124a55 55 0 0 1-2.334-.729l-.409-.139a89 89 0 0 1-2.582-.934l-.256-.095-.788-.328-.817-.343c-.387-.16-.766-.336-1.145-.511l-.73-.343a50 50 0 0 1-1.226-.605l-.62-.314a39 39 0 0 1-1.78-.978L15.592 242.096C5.852 236.471 1 229.087 1 221.719v-10.061c0 7.361 4.866 14.715 14.592 20.326l448.165 258.752c.583.336 1.174.657 1.78.978l.613.306 1.233.606.729.343 1.153.518.817.335 1.043.423c.854.336 1.722.65 2.612.956l.409.131c.773.256 1.554.496 2.335.73.284.08.561.168.846.241l1.503.401.912.226 1.67.379.781.168c.511.11 1.022.197 1.532.292l.832.161c.671.109 1.35.219 2.028.313l.358.059c.788.109 1.568.211 2.364.299l.532.051c.613.066 1.226.131 1.846.182l.861.059 1.532.102.978.044c.474 0 .948.043 1.422.051h5.866000000000001l1.656-.081 1.007-.072a60 60 0 0 0 1.583-.132c9.944-.977 19.451-3.64 27.068-8.069M310.305 262.831v88.096h-.6060000000000001q-.496.043-.985.066h-3.166l-.35-.044-.73-.08h-.335l-.314-.051-.774-.139-.364-.065-.241-.059a17 17 0 0 1-.905-.219l-.372-.094-.131-.037a22 22 0 0 1-1.569-.533h-.073c-.226-.087-.437-.189-.656-.284s-.256-.102-.38-.168-.35-.168-.525-.263c-.175-.094-.372-.189-.547-.291L59.206 211.104c-2.875-1.656-4.312-3.838-4.305-6.012l.088-88.038c.001.531.09 1.059.263 1.561.532 1.605 1.882 3.145 4.041 4.378L297.37 260.445l.467.255c.197.103.402.212.606.307l.379.16c.241.11.489.219.73.314.503.197 1.028.372 1.568.533l.496.131.912.226.599.117.78.138c.212 0 .431.066.65.088s.481.058.729.088l.671.051h2.846q.489 0 .985-.066z"/><path fill="#DDDADA" stroke="#29252B" stroke-linecap="round" stroke-linejoin="round" stroke-width=".6" d="m507.356 146.952-.08 88.104v.423c0 .095 0 .306-.051.46v.08c0 .029-.058.197-.08.292a5 5 0 0 1-.124.437v.095c0 .037-.088.175-.124.263a8 8 0 0 1-.212.452s0 .073-.051.11a5 5 0 0 1-.321.51l-.073.095c-.066.088-.124.183-.197.27a8 8 0 0 1-.284.328l-.095.117q-.241.262-.526.526a.4.4 0 0 1-.087.072c-.139.124-.292.248-.445.372-.153.125-.263.219-.409.322-.146.102-.35.233-.525.35s-.241.168-.379.248l-.176.109-94.779 55.076-49.677 28.87-24.076 14-16.576 9.631q-.67.385-1.379.693c-.131.065-.277.124-.416.182-.372.153-.729.299-1.145.431l-.256.102-.16.043c-.248.081-.504.146-.73.212l-.576.16-.81.168-.467.102h-.08a27 27 0 0 1-1.576.219v-88.045a25 25 0 0 0 1.656-.226l.555-.117c.27-.051.54-.102.802-.168l.577-.153c.255-.073.503-.139.729-.219l.423-.146c.387-.131.774-.277 1.146-.43l.416-.183q.708-.309 1.378-.693l185.021-107.613c.197-.116.373-.233.555-.357s.365-.226.525-.35.277-.212.409-.321.306-.241.452-.372c.146-.132.423-.394.613-.599l.095-.116q.257-.287.481-.599l.066-.094a5 5 0 0 0 .372-.621q.125-.218.219-.452c.051-.117.102-.233.146-.357s.087-.292.124-.438q.057-.184.095-.372.042-.228.051-.46.029-.21.036-.423"/><path fill="#87DA65" stroke="#29252B" stroke-linecap="round" stroke-linejoin="round" stroke-width=".6" d="M503.045 140.933c5.72 3.298 5.757 8.653.073 11.951L318.01 260.46c-5.684 3.305-14.928 3.305-20.647 0L59.287 123.007c-5.72-3.305-5.75-8.652-.066-11.957L244.337 3.473c5.676-3.297 14.912-3.297 20.632 0z"/><path fill="#DDDADA" stroke="#29252B" stroke-linecap="round" stroke-linejoin="round" stroke-width=".6" d="M503.118 152.884 318.01 260.46c-5.684 3.305-14.927 3.305-20.647 0l-23.719-13.68-13.132-7.595 205.741-119.497 36.822 21.26c5.698 3.283 5.727 8.638.043 11.936"/><path fill="#fff" stroke="#29252B" stroke-linecap="round" stroke-linejoin="round" stroke-width=".6" d="M466.229 119.673 260.488 239.17l-34.458-19.895c14.088-20.137 15.898-75.074 33.502-85.23 19.801-11.432 19.998 56.696 39.806 45.234 15.81-9.134 18.758-97.807 29.38-139.028 2.678-10.418 5.837-17.809 9.85-20.114 7.587-4.378 12.322 12.913 16.393 35.267 6.566 36.02 11.389 85.186 23.609 78.131 14.395-8.31 18.24-32.16 26.907-48.97l52.399 30.256z"/><path stroke="#606060" stroke-miterlimit="10" stroke-width=".6" d="m260.496 239.163 205.602-119.41"/><path stroke="#29252B" stroke-linecap="round" stroke-linejoin="round" stroke-width=".6" d="M339.028 19.932V193.55M378.571 133.564v37.026M420.989 93.554v52.399M297.281 180.235v37.566M260.496 133.564v105.599M297.281 217.802l47.226 27.264M339.028 193.55l47.211 27.257M378.571 170.591l47.197 27.249M420.989 145.952l47.189 27.243"/><path fill="#fff" stroke="#29252B" stroke-linecap="round" stroke-linejoin="round" stroke-width=".6" d="M129.742 118.754c6.602 3.808 3.881 8.58-3.043 12.6-7.492 4.377-16.05 4.771-21.486 1.802l7.559-4.378c1.678.971 4.851 1.496 8.871-.781 2.78-1.612 2.787-3.108 1.46-3.866-4.867-2.809-16.139 9.484-27.783 2.779-5.02-2.918-4.552-7.726 2.408-11.768 6.96-4.041 15-4.516 20.953-1.561l-7.434 4.319c-2.087-1.087-4.378-1.459-7.734.445-2.145 1.248-3.21 2.685-1.495 3.648 4.975 2.882 17.218-9.302 27.724-3.239"/><path fill="#fff" d="M155.509 98.085c7.975 4.611 8.026 12.067.095 16.671-7.93 4.603-20.807 4.603-28.782 0-7.974-4.604-8.025-12.068-.087-16.664s20.815-4.604 28.774-.007m-21.887 12.738c4.217 2.437 11.024 2.437 15.212 0s4.18-6.384-.037-8.82-11.024-2.43-15.226 0c-4.202 2.429-4.166 6.376.051 8.813"/><path stroke="#29252B" stroke-linecap="round" stroke-linejoin="round" stroke-width=".6" d="M133.622 110.823c4.217 2.437 11.024 2.437 15.212 0s4.18-6.384-.037-8.82-11.024-2.43-15.226 0c-4.202 2.429-4.166 6.376.051 8.813m21.887-12.731c7.975 4.611 8.026 12.067.095 16.671-7.93 4.603-20.807 4.603-28.782 0-7.974-4.604-8.025-12.068-.087-16.664s20.815-4.604 28.774-.007"/><path fill="#fff" stroke="#29252B" stroke-linecap="round" stroke-linejoin="round" stroke-width=".6" d="m179.207 100.244-7.442 4.327-36.96-21.34 7.441-4.327 10.944 6.34c.824-2.086 2.612-4.056 5.392-5.668 4.012-2.335 9.294-3.488 14.591-3.459h5.436l.124 5.552-5.633-.036a15.4 15.4 0 0 0-7.69 1.831c-4.18 2.422-4.165 6.377.044 8.806 4.21 2.43 11.024 2.437 15.212 0 2.116-1.226 3.181-2.845 3.137-4.458l-.387-17.677c-.058-3.057 1.912-6.122 5.925-8.449a26.5 26.5 0 0 1 9.761-3.144l-1.459-.861 7.457-4.334 27.454 15.854-7.457 4.334-1.459-.861c-.802 2.079-2.604 4.056-5.384 5.668-4.013 2.335-9.288 3.488-14.592 3.466l-5.428-.037-.124-5.552h5.618a15.56 15.56 0 0 0 7.704-1.816c4.188-2.437 4.152-6.384-.065-8.821s-11.017-2.437-15.205 0c-2.116 1.233-3.181 2.846-3.137 4.458l.423 17.7c.051 3.049-1.911 6.12-5.924 8.448a26.7 26.7 0 0 1-9.784 3.137zM242.694 63.335l-7.514 4.363-36.953-21.333 7.507-4.363z"/><path fill="#DDDADA" stroke="#29252B" stroke-linecap="round" stroke-linejoin="round" stroke-width=".6" d="M306.174 262.882v88.104h-.627l-.35-.044-.73-.08h-.335l-.314-.051-.773-.139-.365-.065-.241-.059a17 17 0 0 1-.905-.219l-.372-.094-.131-.037a22 22 0 0 1-1.569-.533h-.073c-.226-.087-.437-.189-.656-.284s-.256-.102-.38-.168-.35-.168-.525-.263v-88.235c.197.102.401.212.606.307l.379.16c.241.11.489.219.73.314q.756.294 1.568.532l.496.132.912.226.599.117.78.138c.212 0 .431.066.65.088.218.022.481.058.729.087l.671.052z"/><path fill="#fff" stroke="#29252B" stroke-linecap="round" stroke-linejoin="round" stroke-width=".6" d="M557.639 217.481a2.921 2.921 0 0 1-2.918-2.919v-8.288a24.45 24.45 0 0 0-12.403-21.413 24.45 24.45 0 0 0-24.74.051l-17.904 10.404a2.9 2.9 0 0 1-2.215.298 2.9 2.9 0 0 1-1.023-.501 2.914 2.914 0 0 1-1.047-3.065 2.91 2.91 0 0 1 1.352-1.773l17.904-10.412a30.25 30.25 0 0 1 30.584-.065 30.23 30.23 0 0 1 15.321 26.476v8.288a2.916 2.916 0 0 1-2.911 2.919"/><path fill="#29252B" stroke="#29252B" stroke-linecap="round" stroke-linejoin="round" stroke-width=".6" d="M483.09 183.715c-3.764 2.189-6.807 7.435-6.792 11.761.014 4.327 3.071 6.063 6.836 3.889l10.141-5.837c3.758-2.188 6.8-7.441 6.785-11.761s-3.071-6.062-6.829-3.895z"/><path fill="#fff" stroke="#29252B" stroke-linecap="round" stroke-linejoin="round" stroke-width=".6" d="M480.37 197.49c.403.481.878.897 1.408 1.233l7.85 4.56a10.08 10.08 0 0 0 9.171 0l7.894-4.56a6 6 0 0 0 1.459-1.248 7.79 7.79 0 0 0 0-9.375 6 6 0 0 0-1.408-1.226l-7.85-4.559a10.08 10.08 0 0 0-9.164 0l-7.901 4.559a6.1 6.1 0 0 0-1.459 1.292 7.79 7.79 0 0 0 0 9.324"/><path fill="#29252B" stroke="#29252B" stroke-linecap="round" stroke-linejoin="round" stroke-width=".6" d="M481.777 198.723a7.9 7.9 0 0 1 .496-4.903q.164-.325.365-.627a13.8 13.8 0 0 1 4.866-4.13c3.787-2.043 5.735-3.093 8.879-3.604a21.5 21.5 0 0 1 8.536.365l-12.132-6.42-13.082 8.375c-2.13 2.576-2.582 5.895-1.189 8.281a6.42 6.42 0 0 0 3.261 2.663"/><path fill="#fff" stroke="#29252B" stroke-linecap="round" stroke-linejoin="round" stroke-width=".6" d="M408.257 348.782v58.972h-.146q-.496.043-.985.066h-3.122l-.351-.044-.729-.08-.343-.037-.307-.058c-.262 0-.518-.081-.773-.132-.124 0-.248-.036-.365-.065l-.24-.059a18 18 0 0 1-.905-.218l-.379-.095-.125-.044a18 18 0 0 1-1.561-.525h-.08c-.226-.088-.438-.19-.657-.285l-.379-.16a16 16 0 0 1-.985-.511l-.088-.051-56.907-32.831c-2.881-1.664-4.319-3.845-4.311-6.019l.043-27.564.044-31.372c.01.829.215 1.644.598 2.379a9.2 9.2 0 0 0 3.714 3.597l19.699 11.388 37.208 21.479c.343.197.73.387 1.072.562l.373.16.729.314a18 18 0 0 0 1.569.526l.496.138c.299.08.605.153.905.219l.605.124.773.131.657.095.73.08h3.509c.328 0 .657 0 .978-.065z"/><path fill="#DDDADA" stroke="#29252B" stroke-linecap="round" stroke-linejoin="round" stroke-width=".6" d="m605.769 232.918-.11 58.95a1 1 0 0 1 0 .131v.299c0 .102 0 .307-.051.46v.08c0 .029-.058.19-.08.292a4 4 0 0 1-.124.438v.087c0 .03-.088.176-.124.263a7 7 0 0 1-.212.46c0 .036 0 .073-.051.109a6 6 0 0 1-.321.504l-.073.102c-.065.087-.124.175-.197.262a4 4 0 0 1-.284.336l-.095.109a7 7 0 0 1-.525.533l-.088.073c-.139.124-.299.248-.445.372l-.408.321-.526.35c-.131.08-.241.168-.379.248l-.175.11-54.952 31.933-.387.226-112.829 65.539-.387.226-16.612 9.652c-.438.248-.905.481-1.379.729-.131.066-.277.117-.416.176-.372.16-.73.306-1.145.437-.088 0-.168.073-.263.103l-.161.043-.729.212c-.19.051-.38.109-.569.153-.19.044-.54.124-.81.175l-.467.102h-.08c-.547.102-1.102.175-1.664.234h-.372v-58.972h.46a21 21 0 0 0 1.656-.234c.19 0 .372-.072.555-.109.182-.036.539-.109.802-.175s.387-.102.576-.153l.73-.212.416-.146q.593-.197 1.153-.437l.415-.176a10 10 0 0 0 1.379-.729L601.53 238.828c.197-.117.372-.241.554-.358l.526-.35.408-.321.453-.372a10 10 0 0 0 .612-.606l.095-.109c.175-.197.336-.402.482-.599l.065-.102q.207-.294.373-.613.116-.232.218-.459c.051-.117.103-.234.146-.35.044-.117.088-.292.124-.438q.058-.183.095-.372c0-.153.037-.307.051-.46q.028-.2.037-.401"/><path fill="url(#a)" stroke="#29252B" stroke-linecap="round" stroke-linejoin="round" stroke-width=".6" d="M601.464 226.936c5.713 3.297 5.742 8.652.066 11.95L416.414 346.462c-5.676 3.305-14.92 3.305-20.632 0l-56.907-32.867c-5.72-3.305-5.75-8.653-.066-11.958l185.116-107.576c5.676-3.298 14.92-3.298 20.64 0z"/><path fill="#29252B" stroke="#29252B" stroke-linecap="round" stroke-linejoin="round" stroke-width=".6" d="M481.003 323.809c-3.764 2.189-6.807 7.434-6.792 11.761s3.042 6.055 6.836 3.867l10.141-5.837c3.758-2.189 6.8-7.434 6.793-11.754-.008-4.319-3.079-6.07-6.837-3.903zM522.837 300.426c-3.764 2.189-6.807 7.442-6.792 11.768s3.071 6.063 6.836 3.889l10.141-5.837c3.758-2.189 6.8-7.442 6.793-11.761-.008-4.319-3.079-6.07-6.837-3.896z"/><path fill="#DDDADA" stroke="#29252B" stroke-linecap="round" stroke-linejoin="round" stroke-width=".6" d="M404.129 348.797v58.986h-.168l-.35-.043-.73-.08-.343-.037-.306-.058c-.263 0-.518-.081-.774-.132-.124 0-.248-.036-.364-.065l-.241-.059a17 17 0 0 1-.905-.219l-.379-.094-.124-.044a18 18 0 0 1-1.562-.525h-.08c-.226-.088-.438-.19-.656-.285l-.38-.161c-.343-.16-.671-.335-.985-.51v-59.023c.343.197.73.387 1.073.562l.372.16.729.314c.511.197 1.029.372 1.569.525l.496.139c.299.08.606.153.905.219l.605.124.774.131.656.095.73.08z"/><path fill="#29252B" stroke="#29252B" stroke-linecap="round" stroke-linejoin="round" stroke-width=".6" d="M481.003 323.809c-3.764 2.189-6.807 7.434-6.792 11.761s3.042 6.055 6.836 3.867l10.141-5.837c3.758-2.189 6.8-7.434 6.793-11.754-.008-4.319-3.079-6.07-6.837-3.903z"/><path fill="#fff" stroke="#29252B" stroke-linecap="round" stroke-linejoin="round" stroke-width=".6" d="M478.29 337.583c.405.482.883.898 1.416 1.233l7.85 4.56a10.08 10.08 0 0 0 9.171 0l7.894-4.56a6.1 6.1 0 0 0 1.459-1.247 7.77 7.77 0 0 0 0-9.368 6 6 0 0 0-1.401-1.233l-7.85-4.56a10.1 10.1 0 0 0-9.164 0l-7.901 4.56a6 6 0 0 0-1.459 1.298 7.78 7.78 0 0 0-.015 9.317"/><path fill="#29252B" stroke="#29252B" stroke-linecap="round" stroke-linejoin="round" stroke-width=".6" d="M479.705 338.816a7.83 7.83 0 0 1 .489-4.902c.051-.103.175-.321.372-.628a13.7 13.7 0 0 1 4.866-4.129c3.78-2.043 5.728-3.094 8.872-3.597a21.4 21.4 0 0 1 8.536.357l-12.126-6.42-13.088 8.376c-2.123 2.575-2.576 5.895-1.189 8.28a6.43 6.43 0 0 0 3.268 2.663"/><path fill="#fff" stroke="#29252B" stroke-linecap="round" stroke-linejoin="round" stroke-width=".6" d="M546.906 310.254a2.92 2.92 0 0 1-2.524-1.46 2.917 2.917 0 0 1 1.05-3.99l65.538-38.135a49.06 49.06 0 0 1 49.4.065l32.276 18.896a9.71 9.71 0 0 1 4.845 8.478 9.701 9.701 0 0 1-4.874 8.463l-8.922 5.187a2.917 2.917 0 0 1-4.361-2.135 2.93 2.93 0 0 1 .573-2.16c.233-.305.523-.561.855-.753l8.922-5.188a3.87 3.87 0 0 0 1.97-3.421 3.85 3.85 0 0 0-1.962-3.429l-32.277-18.896a43.205 43.205 0 0 0-43.512-.066l-65.538 38.135a2.9 2.9 0 0 1-1.459.409"/><path fill="#fff" stroke="#29252B" stroke-linecap="round" stroke-linejoin="round" stroke-width=".6" d="M695.923 311.027a6.2 6.2 0 0 1-1.408 1.24l-7.872 4.553a10.09 10.09 0 0 1-9.171 0l-7.894-4.56a6.2 6.2 0 0 1-1.459-1.255 7.79 7.79 0 0 1 0-9.368c.4-.481.876-.895 1.408-1.226l7.85-4.56a10.1 10.1 0 0 1 9.164 0l7.901 4.56a6.1 6.1 0 0 1 1.459 1.292 7.775 7.775 0 0 1 .022 9.324"/><path fill="#29252B" stroke="#29252B" stroke-linecap="round" stroke-linejoin="round" stroke-width=".6" d="M522.837 300.426c-3.764 2.189-6.807 7.442-6.792 11.768s3.071 6.063 6.836 3.889l10.141-5.837c3.758-2.189 6.8-7.442 6.793-11.761-.008-4.319-3.079-6.07-6.837-3.896z"/><path fill="#fff" stroke="#29252B" stroke-linecap="round" stroke-linejoin="round" stroke-width=".6" d="M520.124 314.2c.404.486.881.904 1.416 1.241l7.85 4.56a10.08 10.08 0 0 0 9.171 0l7.894-4.56a6.2 6.2 0 0 0 1.459-1.255 7.77 7.77 0 0 0 0-9.368 6 6 0 0 0-1.401-1.226l-7.85-4.559a10.08 10.08 0 0 0-9.164 0l-7.901 4.559a6 6 0 0 0-1.459 1.292 7.78 7.78 0 0 0-.015 9.316"/><path fill="#29252B" stroke="#29252B" stroke-linecap="round" stroke-linejoin="round" stroke-width=".6" d="M521.54 315.441a7.83 7.83 0 0 1 .489-4.903q.162-.328.372-.627a13.7 13.7 0 0 1 4.866-4.13c3.78-2.042 5.728-3.093 8.872-3.604a21.5 21.5 0 0 1 8.536.365l-12.126-6.42-13.088 8.375c-2.131 2.568-2.576 5.888-1.189 8.274a6.4 6.4 0 0 0 3.268 2.67"/><path fill="#fff" stroke="#29252B" stroke-linecap="round" stroke-linejoin="round" stroke-width=".6" d="M620.776 368.977v29.731l-.562.065h-.525c-.329 0-.65.051-.985.066h-2.102c-.248 0-.496 0-.729-.044h-.328l-.343-.044c-.248 0-.489-.043-.73-.08h-.343l-.314-.051-.773-.139-.357-.058-.248-.066a18 18 0 0 1-.905-.218l-.372-.095h-.124a21 21 0 0 1-1.569-.533h-.08a10 10 0 0 1-.657-.284l-.379-.161c-.365-.175-.73-.365-1.065-.562l-16.263-9.389v-2.328a4 4 0 0 1-.036.423c0 .154 0 .307-.051.46s-.066.248-.095.372a5 5 0 0 1-.124.438c-.051.146-.102.241-.153.357l-40.215-23.215c-2.874-1.663-4.311-3.845-4.304-6.019l.073-27.585.387-.226a8.67 8.67 0 0 0 3.925 4.093l56.907 32.831c.314.189.649.357.985.518l.087.043.38.161c.24.109.481.219.729.314.504.197 1.029.372 1.562.532l.503.132.905.226.605.116.774.139.649.095.729.08.679.051c.241 0 .489 0 .73.044h2.101q.495 0 .985-.066c.175 0 .35 0 .518-.043z"/><path fill="#DDDADA" stroke="#29252B" stroke-linecap="round" stroke-linejoin="round" stroke-width=".6" d="M546.119 327.829c.001.656.129 1.305.379 1.912l-.387.226zM590.988 385.144q.028-.21.036-.423v2.328l-.46-.263c.052-.117.11-.241.154-.357.043-.117.087-.292.124-.438.036-.146.073-.248.095-.372.021-.124.036-.321.051-.475M704.152 318.957l-.08 29.738a1 1 0 0 1 0 .124v.299c0 .095 0 .306-.059.46a.3.3 0 0 1 0 .08c0 .102-.058.197-.08.299a3 3 0 0 1-.131.431v.094c0 .088-.088.175-.124.263a6 6 0 0 1-.212.452 1 1 0 0 0-.051.11 7 7 0 0 1-.321.51l-.073.095c-.066.095-.124.183-.197.27a8 8 0 0 1-.285.329q-.044.06-.094.116-.25.277-.526.526l-.087.08c-.139.124-.299.241-.453.365-.153.124-.262.219-.408.321s-.343.241-.518.35-.248.175-.38.255l-.175.102-71.951 41.812c-.437.256-.904.482-1.379.73l-.415.175c-.372.153-.73.299-1.146.431l-.255.102-.161.043c-.248.081-.503.146-.729.212l-.577.161c-.262.065-.532.116-.802.167l-.474.103h-.081q-.546.096-1.094.16v-29.73q.601-.067 1.182-.168l.547-.117c.27-.051.54-.102.81-.168l.569-.153c.255-.073.503-.138.73-.219l.423-.138c.386-.139.773-.277 1.145-.438l.416-.175q.704-.33 1.372-.73l71.951-41.812c.197-.109.372-.233.554-.35l.525-.35c.146-.11.278-.219.409-.329.131-.109.306-.24.445-.364s.43-.402.62-.606l.095-.109q.256-.288.474-.606a.4.4 0 0 0 .073-.095q.202-.296.372-.612c.081-.154.146-.307.212-.46q.085-.171.153-.35c.051-.146.088-.292.124-.438q.057-.184.095-.372c0-.153 0-.307.051-.46a5 5 0 0 0-.029-.416"/><path fill="#87DA65" stroke="#29252B" stroke-linecap="round" stroke-linejoin="round" stroke-width=".6" d="M699.876 312.938c5.713 3.305 5.742 8.653.066 11.951l-71.951 41.812c-5.676 3.305-14.913 3.305-20.633 0l-56.907-32.831c-5.712-3.298-5.742-8.653-.066-11.95l71.951-41.813c5.677-3.305 14.913-3.305 20.633 0z"/><path fill="#fff" stroke="#29252B" stroke-linecap="round" stroke-linejoin="round" stroke-width=".6" d="M506.204 434.873v29.73c-.219 0-.438.037-.664.044h-2.094l-.73-.044h-.328l-.299-.036h-.029c-.248 0-.489-.044-.73-.081l-.343-.036-.314-.051-.729-.139-.365-.058-.248-.066a20 20 0 0 1-.905-.219l-.372-.095h-.124c-.54-.16-1.058-.335-1.568-.532h-.081c-.226-.088-.437-.19-.656-.285s-.256-.102-.372-.16a15 15 0 0 1-1.073-.562l-.386-.226-56.55-32.641c-2.875-1.664-4.312-3.845-4.305-6.019l.073-27.586.387-.226c.191.453.436.882.73 1.277a10.1 10.1 0 0 0 3.232 2.816l56.469 32.597.467.27c.35.205.73.387 1.072.562l.38.161c.241.109.481.219.729.313.504.197 1.029.373 1.562.533l.503.131.905.227.605.116.774.139c.219 0 .43.065.649.087s.467.059.693.081h.037l.678.051c.241 0 .489 0 .73.043h2.101z"/><path fill="#DDDADA" stroke="#29252B" stroke-linecap="round" stroke-linejoin="round" stroke-width=".6" d="M433.225 395.205q.045.153.109.3l-.387.226v-2.153q0 .412.066.818.07.413.212.809M591.024 384.721v2.328l-.08 27.403v.131q-.007.15-.037.299c0 .153 0 .307-.051.46a.3.3 0 0 1 0 .08c0 .095-.058.197-.087.292s-.073.292-.124.438v.087c0 .095-.088.182-.124.27a4 4 0 0 1-.219.452 1 1 0 0 1-.051.11 5 5 0 0 1-.321.503l-.066.102-.197.27c-.087.11-.19.219-.284.329l-.095.109a9 9 0 0 1-.526.533l-.087.073-.453.372c-.131.109-.262.219-.408.321l-.525.35-.372.248-.183.109-71.951 41.813q-.67.385-1.379.693c-.131.065-.277.124-.416.182-.372.153-.729.299-1.145.431l-.255.102-.161.043c-.248.081-.503.146-.729.219l-.577.154-.802.167-.475.102h-.08a25 25 0 0 1-1.656.227h-.8460000000000001v-29.731h.408c.175 0 .35 0 .518-.044a24 24 0 0 0 1.664-.226l.547-.109.81-.175.569-.153c.255-.073.503-.139.729-.219l.424-.139c.386-.138.773-.284 1.145-.438l.416-.175c.474-.219.941-.445 1.379-.729l71.951-41.812c.197-.117.372-.234.554-.358s.358-.226.525-.35l.409-.321c.153-.124.306-.241.445-.372.139-.132.423-.394.613-.598l.102-.117q.254-.294.474-.598l.073-.095a6 6 0 0 0 .577-1.058q0 0 0 0c.051-.117.109-.241.153-.358s.087-.292.124-.437c.036-.146.073-.249.095-.373s0-.306.051-.459q.011-.178.007-.358"/><path fill="#87DA65" stroke="#29252B" stroke-linecap="round" stroke-linejoin="round" stroke-width=".6" d="M586.69 378.703c5.72 3.297 5.749 8.652.073 11.95l-71.958 41.812c-5.676 3.305-14.912 3.305-20.632 0l-56.907-32.867c-5.713-3.305-5.742-8.653-.066-11.951l71.951-41.819c5.683-3.298 14.92-3.298 20.64 0z"/><path fill="#fff" stroke="#29252B" stroke-linecap="round" stroke-linejoin="round" stroke-width=".6" d="m658.875 339.904-47.43-4.662 31.277-4.662zM638.98 328.42l-31.285 4.662 10.638-16.583zM646.924 310.283l-28.585 6.216-23.784-13.731z"/><path fill="#fff" stroke="#29252B" stroke-linecap="round" stroke-linejoin="round" stroke-width=".6" d="m646.925 310.283-7.945 18.137-20.64-11.921zM650.69 312.442l8.186 27.461-16.153-9.324zM618.331 316.499l-10.637 16.583-13.132-30.314zM521.327 357.545a.73.73 0 0 1 .408.576l.066 11.184a1.46 1.46 0 0 1-.824 1.161l-48.692 28.293a2.2 2.2 0 0 1-2.021 0 .73.73 0 0 1-.401-.577l-.066-11.184c.028-.247.118-.482.263-.683.144-.202.337-.364.561-.47l48.7-28.3a2.19 2.19 0 0 1 2.006 0M557.507 378.418a.73.73 0 0 1 .416.576l.058 11.185a1.46 1.46 0 0 1-.825 1.16l-48.692 28.293a2.19 2.19 0 0 1-2.013 0 .73.73 0 0 1-.409-.577l-.065-11.184a1.458 1.458 0 0 1 .824-1.16l48.699-28.3a2.19 2.19 0 0 1 2.007.007M549.256 373.668c.511.292.606.81 0 1.161l-48.655 28.3a4.04 4.04 0 0 1-1.999.481h-19.334a2 2 0 0 1-.999-.233c-.518-.299-.613-.817 0-1.167l48.692-28.293a4 4 0 0 1 1.999-.482h19.304c.346-.01.688.071.992.233"/><path fill="#DDDADA" stroke="#29252B" stroke-linecap="round" stroke-linejoin="round" stroke-width=".6" d="M502.06 434.815v29.744c-.248 0-.489-.043-.73-.08l-.342-.036-.314-.051-.73-.139-.365-.058-.248-.066a21 21 0 0 1-.904-.219l-.372-.095h-.124c-.54-.16-1.058-.335-1.569-.532h-.08c-.226-.088-.438-.19-.657-.285s-.255-.102-.372-.16a15 15 0 0 1-1.072-.562l-.387-.226v-29.782l.467.27c.35.205.729.387 1.072.562l.38.161c.24.109.481.218.729.313a21 21 0 0 0 1.562.533l.503.131.905.226.605.117.774.139c.218 0 .43.065.649.087s.408-.014.62.008M616.691 369.152v29.738h-.088c-.248 0-.496 0-.729-.044h-.329l-.343-.044c-.248 0-.489-.043-.729-.08h-.343l-.314-.051-.773-.139-.358-.058-.248-.066a18 18 0 0 1-.904-.218l-.373-.095h-.124a21 21 0 0 1-1.568-.533h-.08a10 10 0 0 1-.657-.284l-.379-.161v-29.781l.087.044.38.16c.24.109.481.219.729.314.503.197 1.029.372 1.561.532l.504.132.904.226.606.117.773.138.65.095.729.08.679.051c.241-.094.489-.087.737-.073"/><path fill="#29252B" stroke="#29252B" stroke-linecap="round" stroke-linejoin="round" stroke-width=".6" d="M467.419 425.257c3.765 2.189 6.807 7.434 6.793 11.761s-3.072 6.063-6.837 3.896l-10.141-5.837c-3.757-2.189-6.799-7.434-6.785-11.753.015-4.32 3.072-6.071 6.829-3.904z"/><path fill="#fff" stroke="#29252B" stroke-linecap="round" stroke-linejoin="round" stroke-width=".6" d="M470.132 439.032a6 6 0 0 1-1.408 1.233l-7.85 4.559a10.08 10.08 0 0 1-9.171 0l-7.894-4.559a6 6 0 0 1-1.459-1.248 7.784 7.784 0 0 1 0-9.368 6.1 6.1 0 0 1 1.408-1.233l7.85-4.56a10.1 10.1 0 0 1 9.164 0l7.901 4.56a6.1 6.1 0 0 1 1.459 1.299 7.78 7.78 0 0 1 0 9.317"/><path fill="#29252B" stroke="#29252B" stroke-linecap="round" stroke-linejoin="round" stroke-width=".6" d="M468.725 440.264a7.9 7.9 0 0 0-.496-4.902 7 7 0 0 0-.365-.628 13.8 13.8 0 0 0-4.866-4.129c-3.787-2.043-5.735-3.094-8.879-3.597a21.4 21.4 0 0 0-8.529.357l12.125-6.42 13.082 8.376c2.13 2.575 2.583 5.895 1.189 8.28a6.42 6.42 0 0 1-3.261 2.663"/><path fill="#fff" stroke="#29252B" stroke-linecap="round" stroke-linejoin="round" stroke-width=".6" d="M441.833 445.174c-3.138.003-6.22-.83-8.93-2.414l-30.197-17.686a21.56 21.56 0 0 1-10.776-18.823 21.54 21.54 0 0 1 10.827-18.786l85.018-49.487a2.91 2.91 0 0 1 3.238.203 2.93 2.93 0 0 1 1.122 1.932 2.93 2.93 0 0 1-.573 2.16 2.9 2.9 0 0 1-.854.753l-85.018 49.466a15.79 15.79 0 0 0-7.923 13.759 15.79 15.79 0 0 0 7.887 13.775l30.197 17.685a11.86 11.86 0 0 0 11.936 0 2.906 2.906 0 0 1 3.237.203 2.93 2.93 0 0 1 1.052 3.069 2.92 2.92 0 0 1-1.356 1.777 17.7 17.7 0 0 1-8.887 2.414"/><path fill="#DDDADA" stroke="#29252B" stroke-linecap="round" stroke-linejoin="round" stroke-width=".6" d="M754.997 351.205c0 .248 0 .496-.059.729-.058.234-.051.438-.08.657s-.073.489-.117.73c-.043.24-.087.437-.138.656s-.11.474-.175.73a9 9 0 0 1-.19.656c-.073.219-.153.475-.234.73-.08.255-.16.423-.24.635-.081.211-.205.503-.314.729s-.19.416-.292.62-.255.497-.387.73l-.328.598q-.262.438-.547.876c-.109.175-.219.357-.343.532-.219.321-.46.635-.73.956-.109.146-.211.299-.328.445l-.175.204q-.381.471-.795.942l-.234.262c-.328.358-.671.73-1.036 1.073l-.197.189c-.27.263-.554.526-.846.781l-.729.627c-.227.19-.453.38-.686.562s-.511.409-.774.606l-.729.554q-.414.297-.839.584c-.285.19-.518.357-.788.532s-.591.38-.898.57c-.306.189-.729.474-1.145.729L533.606 490.736a56 56 0 0 1-10.827 4.757 70.5 70.5 0 0 1-9.353 2.335 81 81 0 0 1-6.296.876v10.111a78 78 0 0 0 6.303-.882 71 71 0 0 0 9.346-2.328 55.7 55.7 0 0 0 10.827-4.757l207.025-120.307.606-.357c.19-.11.357-.227.54-.343l.897-.569c.27-.175.525-.35.788-.533.263-.182.562-.387.839-.584l.73-.554c.262-.197.525-.401.773-.606l.686-.569.729-.62c.095-.087.205-.168.292-.255.088-.088.372-.35.562-.533l.19-.19c.364-.35.729-.729 1.036-1.072.08-.08.153-.168.226-.255q.426-.47.81-.949l.168-.197q.033-.049.072-.095c.095-.116.168-.24.263-.357.241-.314.474-.635.73-.956.124-.175.233-.35.343-.525q.284-.438.547-.876c.044-.08.102-.16.146-.24.043-.081.124-.241.182-.358.139-.248.263-.496.387-.73s.197-.415.292-.627c.094-.211.211-.496.313-.729l.139-.336c0-.102.066-.204.102-.307.088-.233.161-.474.234-.729s.138-.438.196-.657l.176-.729c0-.124.065-.256.094-.387.03-.131 0-.175 0-.263.044-.248.088-.496.117-.729.029-.234.059-.431.08-.65.022-.218.044-.496.059-.729.014-.234 0-.292 0-.438v-10.542c.058.262.036.554.022.839"/><path fill="#29252B" d="M550.678 483.674c.97-.562 1.751-.109 1.758 1a3.85 3.85 0 0 1-1.751 3.027c-.97.562-1.758.11-1.758-.999a3.84 3.84 0 0 1 1.751-3.028M556.325 480.413c.963-.555 1.751-.109 1.751 1a3.85 3.85 0 0 1-1.743 3.035c-.971.554-1.759.109-1.759-1.007a3.8 3.8 0 0 1 .511-1.725 3.8 3.8 0 0 1 1.24-1.303M561.966 477.152c.97-.555 1.758-.11 1.758 1.007a3.85 3.85 0 0 1-1.744 3.027c-.97.562-1.758.11-1.765-1.007a3.89 3.89 0 0 1 1.751-3.027M567.612 473.898c.963-.562 1.759-.117 1.759.999a3.85 3.85 0 0 1-1.744 3.028c-.97.562-1.758.11-1.766-.999a3.84 3.84 0 0 1 1.751-3.028M573.259 470.637c.963-.555 1.751-.11 1.758.999a3.86 3.86 0 0 1-1.744 3.028c-.97.562-1.758.109-1.765-1a3.85 3.85 0 0 1 1.751-3.027"/><path fill="#DDDADA" stroke="#29252B" stroke-linecap="round" stroke-linejoin="round" stroke-width=".6" d="M502.059 499.046v10.112h-5.603c-.467 0-.941 0-1.408-.051l-.992-.044-1.518-.102-.831-.058h-.044c-.606-.051-1.204-.117-1.802-.175l-.577-.059a80 80 0 0 1-2.363-.299l-.343-.058a62 62 0 0 1-2.029-.321c-.277-.044-.554-.102-.831-.153l-1.532-.292h-.168l-.62-.139-1.664-.379-.919-.234c-.496-.124-1-.255-1.459-.394l-.452-.116-.394-.124a54 54 0 0 1-2.335-.73l-.409-.139a89 89 0 0 1-2.582-.933v-10.127c.853.336 1.721.649 2.611.956l.409.131q1.161.38 2.335.73c.284.08.561.167.846.24l1.503.402.912.226 1.671.379.78.168c.511.11 1.022.197 1.532.292l.832.16c.671.11 1.35.219 2.028.314l.358.058c.788.11 1.568.212 2.364.3l.532.051c.613.065 1.226.131 1.846.182l.861.058 1.532.103.978.043c.474 0 .948.044 1.422.051h4.925z"/><path fill="#fff" d="M567.811 244.141c.904.526.904 1.365 0 1.89l-18.605 10.812a3.57 3.57 0 0 1-3.254 0l-37.463-21.632c-.657-.379-.861-.948-.511-1.459a2.67 2.67 0 0 1 2.123-.817h31.788l-14.796-8.543a.993.993 0 0 1 0-1.883l18.611-10.819a3.58 3.58 0 0 1 3.247 0l37.471 21.632c.657.379.861.955.503 1.459a1.5 1.5 0 0 1-.488.43c-.5.27-1.06.405-1.627.394h-31.759zm-1.73-18.801L553 232.942h26.265l-13.132-7.595m-16.343 5.713 13.081-7.595-13.132-7.602.08 15.197m-20.902 12.155 13.081-7.602h-26.265l13.133 7.602m3.144-19.75 13.133 7.595-.088-15.197-13.074 7.602m.117 21.632 13.132 7.595-.087-15.197-13.074 7.602m17.765 7.595 13.074-7.595-13.133-7.602.088 15.197"/><path stroke="#29252B" stroke-linecap="round" stroke-linejoin="round" stroke-width=".6" d="M566.081 225.34 553 232.942h26.265l-13.132-7.595m-16.343 5.713 13.081-7.595-13.132-7.602.08 15.197m-20.902 12.155 13.081-7.602h-26.265l13.133 7.602m3.144-19.75 13.133 7.595-.088-15.197-13.074 7.602m.117 21.632 13.132 7.595-.087-15.197-13.074 7.602m17.765 7.595 13.074-7.595-13.133-7.602.088 15.197m17.948-8.551c.904.526.904 1.365 0 1.89l-18.605 10.812a3.57 3.57 0 0 1-3.254 0l-37.463-21.632c-.657-.379-.861-.948-.511-1.459a2.67 2.67 0 0 1 2.123-.817h31.788l-14.796-8.543a.993.993 0 0 1 0-1.883l18.611-10.819a3.58 3.58 0 0 1 3.247 0l37.471 21.632c.657.379.861.955.503 1.459a1.5 1.5 0 0 1-.488.43c-.5.27-1.06.405-1.627.394h-31.759z"/><defs><linearGradient id="a" x1="469.243" x2="474.955" y1="234.304" y2="459.839" gradientUnits="userSpaceOnUse"><stop stop-color="#8773A8"/><stop offset="1" stop-color="#29252B"/></linearGradient></defs></svg>