<svg xmlns="http://www.w3.org/2000/svg" width="277" height="270" fill="none"><g clip-path="url(#a)"><path fill="url(#b)" d="M250.592 110.394c15.749 10.842 22.417 20.709 23.759 34.927l1.423 45.201c-1.26-12.361-5.679-22.512-23.759-34.941-.352-11.127-.827-25.969-1.166-37.11-.081-2.426-.176-5.651-.257-8.132"/><path stroke="#29252B" stroke-linecap="round" stroke-linejoin="round" stroke-width="1.5" d="M250.592 110.394c15.749 10.842 22.417 20.709 23.759 34.927l1.423 45.201c-1.26-12.361-5.679-22.512-23.759-34.941-.352-11.127-.827-25.969-1.166-37.11-.081-2.426-.176-5.651-.257-8.132"/><path fill="url(#c)" d="M26.199 159.62c-15.763-10.924-22.418-20.723-23.76-34.927L1.084 79.492c1.26 12.36 5.679 22.512 23.76 34.94.352 11.128.813 25.983 1.165 37.11.081 2.426.176 5.665.258 8.132"/><path stroke="#29252B" stroke-linecap="round" stroke-linejoin="round" stroke-width="1.5" d="M26.199 159.62c-15.763-10.924-22.418-20.723-23.76-34.927L1.084 79.492c1.26 12.36 5.679 22.512 23.76 34.94.352 11.128.813 25.983 1.165 37.11.081 2.426.176 5.665.258 8.132"/><path fill="#DDDADA" stroke="#29252B" stroke-linecap="round" stroke-linejoin="round" stroke-width="1.5" d="m62.346 241.876 20.615 12.199c51.191 29.56 122.117 2.954 158.4-59.433s24.288-136.958-26.972-166.518l-20.615-12.199c51.192 29.56 63.295 104.105 27.013 166.492-36.283 62.387-107.195 89.02-158.441 59.459"/><path fill="#fff" stroke="#29252B" stroke-linecap="round" stroke-linejoin="round" stroke-width="1.5" d="M193.815 15.953C142.569-13.553 71.657 13.01 35.375 75.398c-36.283 62.387-24.18 136.918 26.971 166.478s122.117 2.955 158.387-59.432 24.233-136.931-26.918-166.491"/><path fill="#29252B" stroke="#29252B" stroke-linecap="round" stroke-linejoin="round" stroke-width="1.5" d="M180.909 31.435 186 34.35C141.037 8.67 78.902 31.865 47.27 86.178 15.64 140.491 26.338 205.321 71.3 231l-5.091-2.914c-44.977-25.68-55.66-90.522-24.043-144.822 31.618-54.3 93.781-77.44 138.743-51.829"/><path fill="#8773A8" stroke="#29252B" stroke-linecap="round" stroke-linejoin="round" stroke-width="1.5" d="M183.826 33.464C139.371 7.807 77.96 30.984 46.637 85.238 15.315 139.493 25.941 204.28 70.383 229.936s105.853 2.48 137.176-51.775 20.696-119.04-23.733-144.697"/><path fill="#fff" stroke="#29252B" stroke-linecap="round" stroke-linejoin="round" stroke-width="1.5" d="M195.983 89.126a4.644 4.644 0 0 0-3.775-4.323L138.89 75.39a4.929 4.929 0 0 0-5.587 3.963l-7.62 38.105-1.022 5.159-36.068-54.618c-2.323-3.486-7.852-2.15-8.607 1.976L58.113 179.537a4.646 4.646 0 0 0 3.694 5.589l53.294 9.401a4.753 4.753 0 0 0 4.135-1.289 5.06 5.06 0 0 0 1.475-2.662l8.643-43.253 5.912 8.96 30.144 45.682a4.65 4.65 0 0 0 4.321 2.01 5.02 5.02 0 0 0 4.124-3.37c.232-.476 21.873-109.62 22.07-110.189.073-.426.093-.86.058-1.29M84.028 97.91l2.95-14.793 5.913 8.948 23.859 36.141-37.45-6.612zm-14.323 71.713c1.836-9.192 5.878-29.471 7.679-38.477l37.45 6.601-2.904 2.068c-6.645 4.672-36.207 25.601-42.225 29.808m48.323-13.829c-1.243 6.252-4.367 21.917-5.657 28.355l-37.45-6.612 45.128-31.876zm15.926-31.539c1.579-7.949 6.04-30.214 7.678-38.5l37.462 6.612-2.149 1.523zm40.273 26.53c-1.964 9.797-5.228 26.171-7.191 36.025l-19.364-29.319-.581-.872-9.827-14.886 37.45 6.6zm8.061-40.382-5.668 28.355-37.439-6.613 6.482-4.566 38.646-27.31z"/><path fill="url(#d)" d="M274.35 145.321c-1.138 28.788-30.942 50.311-79.721 57.575-.204-6.261-.461-14.61-.665-20.886a248.8 248.8 0 0 1-81.47 31.811c23.854 26.077 46.665 40.985 84.208 55.162-.203-6.261-.461-14.61-.664-20.886 48.793-7.305 78.611-28.828 79.736-57.575z"/><path stroke="#29252B" stroke-linecap="round" stroke-linejoin="round" stroke-width="1.5" d="M274.35 145.321c-1.138 28.788-30.942 50.311-79.721 57.575-.204-6.261-.461-14.61-.665-20.886a248.8 248.8 0 0 1-81.47 31.811c23.854 26.077 46.665 40.985 84.208 55.162-.203-6.261-.461-14.61-.664-20.886 48.793-7.305 78.611-28.828 79.736-57.575z"/><path fill="url(#e)" stroke="#29252B" stroke-linecap="round" stroke-linejoin="round" stroke-width="1.5" d="M2.44 124.693c1.138-28.788 30.942-50.311 79.722-57.576.19 6.262.46 14.624.65 20.886a248.9 248.9 0 0 1 81.443-31.796C140.442 30.17 117.618 15.22 80.088 1.017c.203 6.261.46 14.624.65 20.886-48.792 7.305-78.61 28.841-79.721 57.575z"/></g><defs><linearGradient id="b" x1="232.186" x2="283.69" y1="132.201" y2="162.534" gradientUnits="userSpaceOnUse"><stop stop-color="#29252B"/><stop offset="1" stop-color="#87DA65"/></linearGradient><linearGradient id="c" x1="44.618" x2="-6.899" y1="137.812" y2="107.48" gradientUnits="userSpaceOnUse"><stop stop-color="#29252B"/><stop offset="1" stop-color="#87DA65"/></linearGradient><linearGradient id="d" x1="279.609" x2="133.272" y1="196.133" y2="232.714" gradientUnits="userSpaceOnUse"><stop stop-color="#29252B"/><stop offset="1" stop-color="#87DA65"/></linearGradient><linearGradient id="e" x1="-2.819" x2="143.518" y1="73.88" y2="37.286" gradientUnits="userSpaceOnUse"><stop stop-color="#29252B"/><stop offset="1" stop-color="#87DA65"/></linearGradient><clipPath id="a"><path fill="#fff" d="M0 0h276.79v270H0z"/></clipPath></defs></svg>