<svg width="298" height="279" viewBox="0 0 298 279" fill="none" xmlns="http://www.w3.org/2000/svg">
<path d="M235.37 124C253.422 127.457 272.034 126.596 289.69 121.49" stroke="#29252B" stroke-width="0.5" stroke-linecap="round" stroke-linejoin="round"/>
<path d="M226.3 278.12H183.85L1 171.86L62.24 136.5L69.59 132.26L103.39 112.75L103.51 112.68V137.18L43.44 171.86L88.73 198.18L103.51 206.77L110.85 211.03L144.66 230.68L151.98 234.93L226.3 278.12Z" fill="white" stroke="#29252B" stroke-width="0.5" stroke-linecap="round" stroke-linejoin="round"/>
<path d="M144.66 88.9199V113.42L110.85 132.94V109.53C110.85 109.17 110.85 108.81 110.85 108.46L144.66 88.9199Z" fill="white" stroke="#29252B" stroke-width="0.5" stroke-linecap="round" stroke-linejoin="round"/>
<path d="M296.94 1V25.49L152 109.18V84.68L296.94 1Z" fill="white" stroke="#29252B" stroke-width="0.5" stroke-linecap="round" stroke-linejoin="round"/>
<path d="M183.85 278.12H161.93L1 184.6V171.86L183.85 278.12Z" fill="#DDDADA" stroke="#29252B" stroke-width="0.5" stroke-linecap="round" stroke-linejoin="round"/>
<path d="M252.209 51.4399L202.189 80.2299" stroke="white" stroke-width="0.5" stroke-miterlimit="10"/>
<path d="M103.511 111.42V112.68L103.391 112.75V109.46C103.471 110.11 103.511 110.765 103.511 111.42V111.42Z" fill="#29252B" stroke="white" stroke-width="0.5" stroke-miterlimit="10"/>
<path d="M110.82 108.46H110.74V107.25C110.78 107.68 110.8 108.07 110.82 108.46Z" fill="#29252B" stroke="white" stroke-width="0.5" stroke-miterlimit="10"/>
<path d="M110.85 144.28V152.43L110.74 152.49V144.34L110.85 144.28Z" fill="#29252B" stroke="white" stroke-width="0.5" stroke-miterlimit="10"/>
<path d="M110.85 169.66V177.81L110.74 177.87V169.72L110.85 169.66Z" fill="#29252B" stroke="white" stroke-width="0.5" stroke-miterlimit="10"/>
<path d="M110.85 195.04L110.74 195.139L110.85 195.04Z" fill="#29252B" stroke="white" stroke-width="0.5" stroke-miterlimit="10"/>
<path d="M110.85 144.28V152.43L110.74 152.49V144.34L110.85 144.28Z" fill="#29252B" stroke="white" stroke-width="0.5" stroke-miterlimit="10"/>
<path d="M110.85 169.66V177.81L110.74 177.87V169.72L110.85 169.66Z" fill="#29252B" stroke="white" stroke-width="0.5" stroke-miterlimit="10"/>
<path d="M110.85 195.04L110.74 195.139L110.85 195.04Z" fill="#29252B" stroke="white" stroke-width="0.5" stroke-miterlimit="10"/>
<path d="M296.93 77.96V264.39C296.93 266 296.93 274 296.93 278.12C294.026 278.141 284.965 278.113 281.12 278.12H226.25L225.58 277.73L151.93 234.93L144.61 230.68L110.8 211.03L103.46 206.77L88.6797 198.18L103.46 189.64V195.04C104.413 195.998 105.703 196.545 107.054 196.564C108.406 196.583 109.711 196.072 110.69 195.14L110.8 195.04V185.4L144.61 165.88V171.1C145.092 171.582 145.664 171.964 146.293 172.225C146.923 172.486 147.598 172.62 148.28 172.62C148.961 172.62 149.636 172.486 150.266 172.225C150.896 171.964 151.468 171.582 151.95 171.1V161.65L296.93 77.96Z" fill="#87DA65" stroke="#29252B" stroke-width="0.5" stroke-linecap="round" stroke-linejoin="round"/>
<path d="M117.34 188.82C120.1 190.51 121.49 192.71 121.49 194.92C121.49 197.13 120.14 199.34 117.4 201.02C114.338 202.671 110.914 203.535 107.435 203.535C103.957 203.535 100.532 202.671 97.4704 201.02C94.7104 199.34 93.3304 197.14 93.3204 194.92C93.3104 192.7 94.6804 190.51 97.4204 188.83C100.479 187.173 103.902 186.305 107.38 186.305C110.859 186.305 114.282 187.173 117.34 188.83V188.82Z" fill="#87DA65" stroke="#29252B" stroke-width="0.5" stroke-linecap="round" stroke-linejoin="round"/>
<path d="M113.42 191.42C115.1 192.42 115.93 193.66 115.94 194.92C115.95 196.18 115.12 197.45 113.46 198.42C111.589 199.366 109.522 199.86 107.425 199.86C105.328 199.86 103.261 199.366 101.39 198.42C99.7202 197.42 98.8802 196.19 98.8702 194.92C98.8602 193.65 99.6902 192.39 101.35 191.43C103.193 190.44 105.259 189.941 107.35 189.98C109.463 189.934 111.553 190.429 113.42 191.42V191.42Z" fill="#87DA65" stroke="#29252B" stroke-width="0.5" stroke-linecap="round" stroke-linejoin="round"/>
<path d="M158.44 164.79C161.21 166.48 162.59 168.68 162.59 170.89C162.59 173.1 161.25 175.3 158.51 176.99C155.448 178.641 152.023 179.505 148.545 179.505C145.066 179.505 141.642 178.641 138.58 176.99C135.82 175.3 134.44 173.1 134.43 170.89C134.42 168.68 135.78 166.48 138.52 164.8C141.542 163.07 144.978 162.196 148.46 162.27C151.952 162.202 155.398 163.073 158.44 164.79V164.79Z" fill="#87DA65" stroke="#29252B" stroke-width="0.5" stroke-linecap="round" stroke-linejoin="round"/>
<path d="M154.531 167.39C156.201 168.39 157.041 169.62 157.041 170.89C157.041 172.16 156.231 173.42 154.571 174.38C152.7 175.334 150.63 175.831 148.531 175.831C146.431 175.831 144.361 175.334 142.491 174.38C140.821 173.38 139.991 172.16 139.981 170.89C139.971 169.62 140.801 168.36 142.461 167.4C144.301 166.405 146.369 165.906 148.461 165.95C150.574 165.905 152.663 166.401 154.531 167.39V167.39Z" fill="#87DA65" stroke="#29252B" stroke-width="0.5" stroke-linecap="round" stroke-linejoin="round"/>
<path d="M148.51 152.25V156.05L144.66 158.25L110.85 177.81V169.66L144.66 150.14H144.74C145.117 149.921 145.544 149.804 145.98 149.8C146.416 149.797 146.846 149.907 147.226 150.12C147.607 150.333 147.925 150.641 148.15 151.015C148.375 151.388 148.499 151.814 148.51 152.25Z" fill="#8773A8" stroke="#29252B" stroke-width="0.5" stroke-linecap="round" stroke-linejoin="round"/>
<path d="M148.51 126.88V130.68L144.66 132.9L110.85 152.43V144.25L144.66 124.73L144.74 124.68C145.123 124.457 145.559 124.34 146.003 124.341C146.446 124.341 146.882 124.459 147.265 124.683C147.648 124.907 147.965 125.228 148.184 125.614C148.402 126 148.515 126.437 148.51 126.88Z" fill="#8773A8" stroke="#29252B" stroke-width="0.5" stroke-linecap="round" stroke-linejoin="round"/>
<path d="M144.66 158.29V165.88L110.85 185.4V177.81L144.66 158.29Z" fill="#DDDADA" stroke="#29252B" stroke-width="0.5" stroke-linecap="round" stroke-linejoin="round"/>
<path d="M144.66 132.9V150.14L110.85 169.66V152.43L144.66 132.9Z" fill="#DDDADA" stroke="#29252B" stroke-width="0.5" stroke-linecap="round" stroke-linejoin="round"/>
<path d="M144.66 113.42V124.76L110.85 144.28V132.94L144.66 113.42Z" fill="#DDDADA" stroke="#29252B" stroke-width="0.5" stroke-linecap="round" stroke-linejoin="round"/>
<path d="M152 68.38V171.1C151.518 171.582 150.946 171.964 150.317 172.225C149.687 172.486 149.012 172.62 148.33 172.62C147.649 172.62 146.974 172.486 146.344 172.225C145.714 171.964 145.142 171.582 144.66 171.1V158.25L148.51 156.03V152.25C148.512 151.808 148.397 151.374 148.177 150.99C147.957 150.607 147.639 150.289 147.257 150.068C146.874 149.847 146.44 149.73 145.998 149.731C145.556 149.731 145.123 149.848 144.74 150.07H144.66V132.9L148.51 130.68V126.88C148.51 126.439 148.394 126.006 148.173 125.624C147.952 125.242 147.635 124.925 147.253 124.705C146.87 124.485 146.437 124.37 145.996 124.371C145.555 124.372 145.122 124.489 144.74 124.71L144.66 124.76V70.25C144.82 67.9248 144.5 65.5916 143.72 63.3953C142.94 61.199 141.717 59.1866 140.126 57.483C138.536 55.7794 136.612 54.4211 134.474 53.4924C132.337 52.5637 130.031 52.0845 127.7 52.0845C125.37 52.0845 123.064 52.5637 120.926 53.4924C118.789 54.4211 116.865 55.7794 115.274 57.483C113.684 59.1866 112.461 61.199 111.681 63.3953C110.901 65.5916 110.581 67.9248 110.74 70.25V107.25C110.227 101.604 107.75 96.3178 103.74 92.31L103.4 91.98V68.38C103.529 62.0192 106.147 55.9626 110.691 51.5098C115.235 47.057 121.343 44.563 127.705 44.563C134.067 44.563 140.176 47.057 144.72 51.5098C149.264 55.9626 151.881 62.0192 152.01 68.38H152Z" fill="#8773A8" stroke="#29252B" stroke-width="0.5" stroke-linecap="round" stroke-linejoin="round"/>
<path d="M296.94 25.49V77.96L152 161.65V109.18L296.94 25.49Z" fill="#DDDADA" stroke="#29252B" stroke-width="0.5" stroke-linecap="round" stroke-linejoin="round"/>
<path d="M110.85 109.53V144.25L110.74 144.31V152.46L110.85 152.4V169.63L110.74 169.69V177.84L110.85 177.78V195.01L110.74 195.07C109.761 196.002 108.456 196.513 107.105 196.494C105.753 196.476 104.463 195.928 103.51 194.97V111.42C103.512 110.752 103.472 110.084 103.39 109.42C102.756 105.227 100.577 101.422 97.2809 98.7528C93.9852 96.0835 89.8108 94.7425 85.5772 94.9931C81.3435 95.2436 77.3564 97.0675 74.3985 100.107C71.4406 103.146 69.7255 107.181 69.59 111.42V132.25L62.25 136.5V109.5C62.2544 104.736 63.6588 100.078 66.2885 96.1046C68.9183 92.1317 72.6575 89.0191 77.0416 87.1536C81.4256 85.2881 86.2612 84.752 90.9474 85.6119C95.6336 86.4717 99.9639 88.6897 103.4 91.9901L103.74 92.3201C107.749 96.3279 110.226 101.615 110.74 107.26V108.47H110.82C110.84 108.81 110.85 109.17 110.85 109.53Z" fill="#8773A8" stroke="#29252B" stroke-width="0.5" stroke-linecap="round" stroke-linejoin="round"/>
<path d="M103.509 137.18V189.64L88.7295 198.18L43.4395 171.86L103.509 137.18Z" fill="#DDDADA" stroke="#29252B" stroke-width="0.5" stroke-linecap="round" stroke-linejoin="round"/>
<path d="M181.9 182.15L182.02 183.38C182.02 182.97 181.96 182.56 181.94 182.14L181.9 182.15Z" fill="white" stroke="black" stroke-width="0.5" stroke-linecap="round" stroke-linejoin="round"/>
<path d="M207.25 212.68C191.6 205.52 183.11 194.98 182.02 183.68L183.71 201.68C184.136 205.722 185.461 209.617 187.59 213.08C188.387 214.365 189.276 215.592 190.25 216.75C192.341 219.321 194.731 221.634 197.37 223.64C198.12 224.22 198.91 224.79 199.73 225.35C201.928 226.828 204.22 228.165 206.59 229.35C207.34 229.73 208.12 230.1 208.91 230.46L209.01 230.51C211.136 231.49 213.343 232.377 215.63 233.17C216.38 233.45 217.15 233.7 217.91 233.94C220.076 234.647 222.293 235.27 224.56 235.81C225.3 236 226.05 236.16 226.81 236.32C228.97 236.8 231.166 237.203 233.4 237.53C234.14 237.64 234.88 237.76 235.63 237.84C237.78 238.14 239.97 238.37 242.17 238.52C242.9 238.58 243.65 238.64 244.4 238.67C246.55 238.8 248.72 238.86 250.89 238.88C251.62 238.88 252.35 238.88 253.09 238.88C254.22 238.88 255.35 238.88 256.48 238.81L254.8 220.96C237.74 221.59 220.91 218.93 207.25 212.68Z" fill="#29252B" stroke="#29252B" stroke-width="0.5" stroke-linecap="round" stroke-linejoin="round"/>
<path d="M296.93 212.33V230.82L295.73 231.28C295.02 231.53 294.3 231.79 293.58 232.03C291.53 232.75 289.43 233.4 287.29 234.03C286.59 234.23 285.87 234.42 285.15 234.61C283.06 235.17 280.95 235.61 278.81 236.11C278.103 236.257 277.383 236.397 276.65 236.53C274.55 236.95 272.41 237.3 270.28 237.6C269.55 237.71 268.82 237.8 268.09 237.88C267.84 237.88 267.58 237.95 267.32 237.97C265.45 238.21 263.57 238.39 261.68 238.54H261.55C260.87 238.59 260.18 238.65 259.5 238.68C258.5 238.74 257.45 238.79 256.43 238.82L254.75 220.97L257.31 220.85L259.87 220.68C261.797 220.54 263.72 220.353 265.64 220.12L266.64 220L268.02 219.82L269.85 219.56L270.85 219.4C272.01 219.22 273.16 219.02 274.3 218.81L275.3 218.62L276.89 218.3H277.09L279.41 217.8L280.69 217.5L281.13 217.39C282.23 217.13 283.32 216.85 284.41 216.55H284.51C285.24 216.36 285.96 216.15 286.68 215.94L287.74 215.62L287.99 215.54C288.53 215.39 289.06 215.22 289.59 215.05L291.17 214.53C292.3 214.15 293.43 213.75 294.54 213.34L296.23 212.69L296.93 212.33Z" fill="#DDDADA" stroke="#29252B" stroke-width="0.5" stroke-linecap="round" stroke-linejoin="round"/>
<path d="M187.69 178.48C187.69 178.25 187.75 178.02 187.8 177.78C187.795 177.76 187.795 177.74 187.8 177.72C187.8 177.53 187.86 177.34 187.9 177.15C187.94 176.96 187.99 176.71 188.04 176.48C188.09 176.25 188.19 175.87 188.27 175.57C188.35 175.27 188.43 174.96 188.53 174.65C188.526 174.593 188.526 174.537 188.53 174.48L188.65 174.12C188.76 173.81 188.87 173.49 188.99 173.17L189.26 172.49C189.39 172.18 189.53 171.87 189.67 171.56L189.85 171.17L190.18 170.51C190.33 170.23 190.48 169.93 190.64 169.64C190.96 169.06 191.31 168.48 191.64 167.9C191.97 167.32 192.41 166.74 192.82 166.17L193.46 165.31L194.13 164.45C194.36 164.16 194.6 163.87 194.84 163.6C195.08 163.33 195.33 163.04 195.59 162.76L196.36 161.92L197.17 161.09L198.01 160.26L198.89 159.44C199.2 159.16 199.49 158.89 199.81 158.62C200.13 158.35 200.59 157.94 200.99 157.62C201.59 157.11 202.22 156.62 202.86 156.13L203.31 155.8C203.81 155.42 204.31 155.04 204.85 154.67L206.04 153.83C206.44 153.55 206.85 153.29 207.26 153.02L208.05 152.51L208.89 151.98L210.29 151.14C210.64 150.93 210.99 150.72 211.36 150.52L211.6 150.38L212.98 149.63L213.88 149.14L214.38 148.89L214.54 148.81L214.72 148.71L215.28 148.44L216.21 147.97C217.85 147.16 219.53 146.4 221.28 145.69C224.857 144.17 228.52 142.861 232.25 141.77C233.18 141.48 234.13 141.21 235.09 140.97C236.05 140.73 237.01 140.45 238 140.23C239.94 139.75 241.92 139.33 243.92 138.97C244.92 138.78 245.92 138.6 246.92 138.44L248.98 138.12C249.553 138.033 250.123 137.953 250.69 137.88C252.29 137.66 253.9 137.48 255.52 137.33C257.14 137.18 258.81 137.05 260.44 136.96L262.07 136.88C263.16 136.88 264.24 136.79 265.31 136.78H266.92H268.52H270.1L271.7 136.83C272.7 136.83 273.79 136.91 274.83 136.98C275.87 137.05 276.92 137.11 277.94 137.21C278.46 137.21 278.94 137.29 279.48 137.35C281.01 137.5 282.48 137.69 284.02 137.91C285.56 138.13 287.02 138.36 288.45 138.65H288.53C289.96 138.92 291.37 139.21 292.76 139.55C293.23 139.65 293.7 139.77 294.16 139.89C294.62 140.01 295.09 140.12 295.55 140.26C296.01 140.4 296.45 140.49 296.9 140.63V134.85C266.22 126.63 226.34 132.46 201.67 149.99C188.03 159.69 181.52 171.19 181.91 182.14C181.91 182.55 181.91 182.96 181.98 183.36V183.71C182.121 185.121 182.371 186.518 182.73 187.89C182.83 188.28 182.95 188.67 183.07 189.05C183.19 189.43 183.25 189.62 183.35 189.9C183.722 190.951 184.157 191.98 184.65 192.98C184.81 193.307 184.98 193.64 185.16 193.98L185.58 194.74L186.01 195.45C186.16 195.69 186.31 195.94 186.47 196.18C186.63 196.42 186.78 196.66 186.95 196.9C188.849 199.611 191.091 202.065 193.62 204.2C194.29 204.78 194.98 205.34 195.71 205.89C196.44 206.44 197.19 206.99 197.97 207.52C198.36 207.79 198.76 208.05 199.16 208.31C199.973 208.83 200.813 209.34 201.68 209.84C203.407 210.84 205.25 211.787 207.21 212.68C220.84 218.92 237.66 221.58 254.67 220.96L257.23 220.84C258.08 220.84 258.93 220.74 259.79 220.68L262.37 220.46C263.43 220.36 264.5 220.25 265.56 220.11L266.56 219.99L267.94 219.81L269.77 219.55L270.77 219.39L272.5 219.11C272.85 219.06 273.19 218.99 273.5 218.93L274.18 218.8L275.18 218.61L276.77 218.29H276.97L278.77 217.9L279.26 217.79L280.54 217.49L280.98 217.38L282.66 216.97L284.26 216.54H284.36L285.85 216.12L286.53 215.93L287.2 215.74L287.59 215.61L287.84 215.53L289.44 215.04L291.02 214.52C292.16 214.13 293.29 213.73 294.39 213.33L296.08 212.68L296.8 212.39V206.39C285.64 211.023 273.837 213.92 261.8 214.98C242.38 216.82 223.8 214.22 209.51 207.68C197.75 202.16 190.25 194.67 188.14 186.25C188.14 186.08 188.06 185.92 188.02 185.74C187.98 185.56 187.93 185.34 187.89 185.13C187.82 184.77 187.75 184.42 187.71 184.06C187.67 183.7 187.63 183.46 187.6 183.16C187.6 183.06 187.6 182.96 187.6 182.86V182.79C187.6 182.67 187.6 182.56 187.6 182.45C187.6 182.3 187.6 182.14 187.6 181.99C187.6 181.49 187.6 180.99 187.6 180.47V179.81C187.613 179.343 187.643 178.9 187.69 178.48Z" fill="white" stroke="#29252B" stroke-width="0.5" stroke-linecap="round" stroke-linejoin="round"/>
<path d="M211.71 150.25C212.62 149.74 213.54 149.25 214.48 148.77C213.54 149.25 212.61 149.77 211.71 150.25Z" fill="white" stroke="#29252B" stroke-width="0.5" stroke-linecap="round" stroke-linejoin="round"/>
<path d="M216.32 147.86L214.48 148.8L215.2 148.41L216.32 147.86Z" fill="white" stroke="#29252B" stroke-width="0.5" stroke-linecap="round" stroke-linejoin="round"/>
<path d="M221.39 145.59C219.66 146.31 217.96 147.07 216.32 147.86C217.96 147.06 219.65 146.25 221.39 145.59Z" fill="white" stroke="#29252B" stroke-width="0.5" stroke-linecap="round" stroke-linejoin="round"/>
<path d="M232.251 141.77C228.566 142.852 224.941 144.127 221.391 145.59C224.934 144.107 228.56 142.832 232.251 141.77V141.77Z" fill="white" stroke="#29252B" stroke-width="0.5" stroke-linecap="round" stroke-linejoin="round"/>
<path d="M238 140.25C239.94 139.78 241.92 139.35 243.93 138.99C241.917 139.357 239.94 139.777 238 140.25Z" fill="white" stroke="#29252B" stroke-width="0.5" stroke-linecap="round" stroke-linejoin="round"/>
<path d="M296.931 140.64V206.3C285.771 210.933 273.967 213.83 261.931 214.89C242.511 216.73 223.931 214.13 209.641 207.59C197.751 202.16 190.251 194.67 188.141 186.25C188.641 177.43 194.711 168.52 205.521 160.83C216.601 152.96 231.301 147.35 247.521 144.73C248.761 144.52 250.021 144.34 251.291 144.18L250.701 137.94L248.991 138.17C249.564 138.083 250.134 138.003 250.701 137.93C252.301 137.71 253.911 137.53 255.531 137.38C257.151 137.23 258.821 137.1 260.451 137.01L262.081 136.93L265.321 136.83H266.931H268.531H270.111L271.711 136.88C272.711 136.88 273.801 136.97 274.841 137.03C275.881 137.09 276.931 137.16 277.951 137.26L279.491 137.4C281.021 137.55 282.491 137.74 284.031 137.96C285.571 138.18 287.031 138.41 288.461 138.7H288.541C289.971 138.97 291.381 139.26 292.771 139.6L294.171 139.94L295.561 140.31L296.931 140.64Z" fill="white" stroke="#29252B" stroke-width="0.5" stroke-linecap="round" stroke-linejoin="round"/>
<path d="M250.731 137.9L251.311 144.13C250.041 144.29 248.791 144.48 247.541 144.69C231.301 147.3 216.611 152.91 205.541 160.79C194.721 168.48 188.651 177.39 188.151 186.2C188.151 186.04 188.071 185.87 188.031 185.69C187.991 185.51 187.941 185.29 187.901 185.08C187.861 184.87 187.771 184.37 187.721 184.01C187.671 183.65 187.641 183.41 187.621 183.11C187.571 182.715 187.551 182.318 187.561 181.92C187.457 177.917 188.39 173.955 190.271 170.42C190.411 170.14 190.561 169.84 190.731 169.56C191.041 168.98 191.391 168.39 191.731 167.81C192.071 167.23 192.491 166.66 192.901 166.09C193.111 165.79 193.331 165.51 193.541 165.22C193.751 164.93 193.991 164.66 194.211 164.36C194.431 164.06 194.681 163.79 194.931 163.51L195.671 162.67C195.931 162.39 196.181 162.11 196.451 161.83L197.251 161C197.541 160.73 197.811 160.45 198.101 160.17L198.971 159.35L199.891 158.53C201.487 157.112 203.156 155.777 204.891 154.53C205.681 153.97 206.481 153.42 207.311 152.88L208.091 152.37L208.941 151.84C209.401 151.56 209.861 151.28 210.331 151.01C210.801 150.74 211.041 150.59 211.401 150.38L211.651 150.24C213.151 149.4 214.651 148.6 216.261 147.82C217.871 147.04 219.601 146.27 221.331 145.55C224.901 144.098 228.546 142.836 232.251 141.77C233.191 141.49 234.141 141.23 235.101 140.97L238.001 140.23C239.941 139.77 241.917 139.35 243.931 138.97L246.931 138.44C248.251 138.25 249.461 138.06 250.731 137.9Z" fill="#29252B" stroke="#29252B" stroke-width="0.5" stroke-linecap="round" stroke-linejoin="round"/>
<path d="M187.58 182.741C187.58 182.631 187.58 182.51 187.58 182.4C187.56 182.51 187.57 182.631 187.58 182.741Z" fill="#DDDADA" stroke="#29252B" stroke-width="0.5" stroke-linecap="round" stroke-linejoin="round"/>
<path d="M187.6 183.12C187.6 182.99 187.6 182.87 187.6 182.74C187.6 182.86 187.6 182.98 187.6 183.11C187.6 183.41 187.66 183.72 187.7 184.01C187.66 183.72 187.63 183.42 187.6 183.12Z" fill="#DDDADA" stroke="#29252B" stroke-width="0.5" stroke-linecap="round" stroke-linejoin="round"/>
<path d="M187.559 182.4C187.353 178.229 188.287 174.081 190.259 170.4C188.379 173.935 187.445 177.897 187.549 181.9C187.549 182.09 187.549 182.25 187.559 182.4Z" fill="#DDDADA" stroke="#29252B" stroke-width="0.5" stroke-linecap="round" stroke-linejoin="round"/>
<path d="M190.721 169.56C191.024 168.96 191.358 168.376 191.721 167.81C191.381 168.39 191.031 168.98 190.721 169.56Z" fill="#DDDADA" stroke="#29252B" stroke-width="0.5" stroke-linecap="round" stroke-linejoin="round"/>
<path d="M191.75 167.81C192.1 167.24 192.49 166.66 192.92 166.09C192.51 166.66 192.11 167.25 191.75 167.81Z" fill="#DDDADA" stroke="#29252B" stroke-width="0.5" stroke-linecap="round" stroke-linejoin="round"/>
<path d="M204.94 154.56C205.73 154 206.54 153.45 207.37 152.92C206.54 153.46 205.74 154.01 204.95 154.57C203.216 155.817 201.547 157.152 199.95 158.57C201.541 157.145 203.207 155.807 204.94 154.56V154.56Z" fill="#DDDADA" stroke="#29252B" stroke-width="0.5" stroke-linecap="round" stroke-linejoin="round"/>
<path d="M296.931 140.64V146.7C284.781 143.3 270.711 142.19 256.151 143.57C254.531 143.72 252.911 143.9 251.311 144.13L250.721 137.89C252.321 137.67 253.941 137.49 255.561 137.34C257.181 137.19 258.851 137.06 260.471 136.96L262.101 136.88L265.341 136.78H266.951H268.551H270.131L271.731 136.83C272.731 136.83 273.821 136.92 274.861 136.98C275.901 137.04 276.951 137.11 277.971 137.21L279.511 137.35C281.041 137.51 282.511 137.69 284.051 137.91C285.591 138.13 287.051 138.37 288.481 138.65H288.561C289.991 138.93 291.401 139.22 292.791 139.55L294.191 139.89L295.581 140.26L296.931 140.64Z" fill="#DDDADA" stroke="#29252B" stroke-width="0.5" stroke-linecap="round" stroke-linejoin="round"/>
<path d="M265.64 220.12L267.33 237.96C265.45 238.19 263.57 238.37 261.68 238.52H261.56L259.87 220.67L265.64 220.12Z" fill="#29252B" stroke="#29252B" stroke-width="0.5" stroke-linecap="round" stroke-linejoin="round"/>
<path d="M274.48 200.55C275.36 200.95 274.85 201.82 273.69 201.93L255.84 203.62C255.194 203.69 254.541 203.597 253.94 203.35L206.14 181.45C205.27 181.05 205.77 180.18 206.94 180.07L224.79 178.39C225.433 178.31 226.085 178.403 226.68 178.66L274.48 200.55Z" fill="#8773A8" stroke="#29252B" stroke-width="0.5" stroke-linecap="round" stroke-linejoin="round"/>
<path d="M280.15 184.61C280.369 184.687 280.565 184.82 280.717 184.995C280.87 185.17 280.974 185.382 281.02 185.61L282.02 195.95C282.09 196.62 280.72 197.09 279.84 196.69L232.04 174.8C231.819 174.726 231.622 174.594 231.469 174.418C231.316 174.242 231.213 174.029 231.17 173.8L230.17 163.47C230.11 162.79 231.48 162.32 232.36 162.72L280.15 184.61Z" fill="#8773A8" stroke="#29252B" stroke-width="0.5" stroke-linecap="round" stroke-linejoin="round"/>
<path d="M296.93 174.01V180.25L287.23 181.16C286.587 181.236 285.936 181.142 285.34 180.89L237.53 159C236.66 158.6 237.16 157.73 238.33 157.62L256.18 155.93C256.822 155.866 257.471 155.959 258.07 156.2L296.93 174.01Z" fill="#8773A8" stroke="#29252B" stroke-width="0.5" stroke-linecap="round" stroke-linejoin="round"/>
<path d="M205.53 158.1C213.07 154.88 222.21 151.34 232.82 147.99C232.05 148.65 215.71 163.08 219.4 184.3C220.793 191.84 224.361 198.808 229.665 204.345C234.969 209.881 241.777 213.745 249.25 215.46C237.635 215.678 226.076 213.781 215.14 209.86C208.06 207.29 199.86 204.09 193.55 196.25C191.514 193.834 189.873 191.11 188.69 188.18C187.18 183.869 186.896 179.223 187.87 174.76C190.95 162.56 204.86 158.25 205.53 158.1Z" fill="#87DA65" stroke="#29252B" stroke-width="0.5" stroke-linecap="round" stroke-linejoin="round"/>
<path d="M182.251 176.4C180.781 177.81 173.331 185.18 173.591 196.26C173.706 200.278 174.78 204.21 176.721 207.73" stroke="#29252B" stroke-width="0.5" stroke-linecap="round" stroke-linejoin="round"/>
<path d="M191.02 224.17C198.645 230.445 207.145 235.575 216.25 239.4C232.594 246.144 250.384 248.621 267.95 246.6" stroke="#29252B" stroke-width="0.5" stroke-linecap="round" stroke-linejoin="round"/>
<path d="M181.11 179.56C181.062 183.354 181.522 187.138 182.48 190.81C191.97 226.97 247.59 238.24 254.54 239.56C245.95 240.461 237.276 240.158 228.77 238.66C228.77 238.66 210.89 235.49 196.24 225.73C192.655 223.425 189.461 220.563 186.78 217.25C185.237 215.308 183.897 213.214 182.78 211C176.11 197.74 179.69 184.12 181.11 179.56Z" fill="#87DA65"/>
</svg>
