<svg xmlns="http://www.w3.org/2000/svg" width="298" height="279" fill="none"><path stroke="#29252B" stroke-linecap="round" stroke-linejoin="round" stroke-width=".5" d="M235.37 124a116.6 116.6 0 0 0 54.32-2.51"/><path fill="#fff" stroke="#29252B" stroke-linecap="round" stroke-linejoin="round" stroke-width=".5" d="M226.3 278.12h-42.45L1 171.86l61.24-35.36 7.35-4.24 33.8-19.51.12-.07v24.5l-60.07 34.68 45.29 26.32 14.78 8.59 7.34 4.26 33.81 19.65 7.32 4.25z"/><path fill="#fff" stroke="#29252B" stroke-linecap="round" stroke-linejoin="round" stroke-width=".5" d="M144.66 88.92v24.5l-33.81 19.52v-24.48zM296.94 1v24.49L152 109.18v-24.5z"/><path fill="#DDDADA" stroke="#29252B" stroke-linecap="round" stroke-linejoin="round" stroke-width=".5" d="M183.85 278.12h-21.92L1 184.6v-12.74z"/><path stroke="#fff" stroke-miterlimit="10" stroke-width=".5" d="m252.209 51.44-50.02 28.79"/><path fill="#29252B" stroke="#fff" stroke-miterlimit="10" stroke-width=".5" d="M103.511 111.42v1.26l-.12.07v-3.29q.12.976.12 1.96ZM110.82 108.46h-.08v-1.21c.04.43.06.82.08 1.21ZM110.85 144.28v8.15l-.11.06v-8.15zM110.85 169.66v8.15l-.11.06v-8.15zM110.85 195.04l-.11.099z"/><path fill="#29252B" stroke="#fff" stroke-miterlimit="10" stroke-width=".5" d="M110.85 144.28v8.15l-.11.06v-8.15zM110.85 169.66v8.15l-.11.06v-8.15zM110.85 195.04l-.11.099z"/><path fill="#87DA65" stroke="#29252B" stroke-linecap="round" stroke-linejoin="round" stroke-width=".5" d="M296.93 77.96v200.16c-2.904.021-11.965-.007-15.81 0h-54.87l-.67-.39-73.65-42.8-7.32-4.25-33.81-19.65-7.34-4.26-14.78-8.59 14.78-8.54v5.4a5.17 5.17 0 0 0 7.23.1l.11-.1v-9.64l33.81-19.52v5.22a5.2 5.2 0 0 0 3.67 1.52 5.2 5.2 0 0 0 3.67-1.52v-9.45z"/><path fill="#87DA65" stroke="#29252B" stroke-linecap="round" stroke-linejoin="round" stroke-width=".5" d="M117.34 188.82c2.76 1.69 4.15 3.89 4.15 6.1s-1.35 4.42-4.09 6.1a21 21 0 0 1-19.93 0c-2.76-1.68-4.14-3.88-4.15-6.1s1.36-4.41 4.1-6.09a20.91 20.91 0 0 1 19.92 0z"/><path fill="#87DA65" stroke="#29252B" stroke-linecap="round" stroke-linejoin="round" stroke-width=".5" d="M113.42 191.42c1.68 1 2.51 2.24 2.52 3.5s-.82 2.53-2.48 3.5a13.38 13.38 0 0 1-12.07 0c-1.67-1-2.51-2.23-2.52-3.5s.82-2.53 2.48-3.49a12.2 12.2 0 0 1 6-1.45 12.4 12.4 0 0 1 6.07 1.44M158.44 164.79c2.77 1.69 4.15 3.89 4.15 6.1s-1.34 4.41-4.08 6.1a21 21 0 0 1-19.93 0c-2.76-1.69-4.14-3.89-4.15-6.1s1.35-4.41 4.09-6.09a19.2 19.2 0 0 1 9.94-2.53 19.53 19.53 0 0 1 9.98 2.52"/><path fill="#87DA65" stroke="#29252B" stroke-linecap="round" stroke-linejoin="round" stroke-width=".5" d="M154.531 167.39c1.67 1 2.51 2.23 2.51 3.5s-.81 2.53-2.47 3.49a13.3 13.3 0 0 1-12.08 0c-1.67-1-2.5-2.22-2.51-3.49s.82-2.53 2.48-3.49a12.1 12.1 0 0 1 6-1.45 12.4 12.4 0 0 1 6.07 1.44"/><path fill="#8773A8" stroke="#29252B" stroke-linecap="round" stroke-linejoin="round" stroke-width=".5" d="M148.51 152.25v3.8l-3.85 2.2-33.81 19.56v-8.15l33.81-19.52h.08a2.51 2.51 0 0 1 2.486-.02 2.515 2.515 0 0 1 1.284 2.13M148.51 126.88v3.8l-3.85 2.22-33.81 19.53v-8.18l33.81-19.52.08-.05c.383-.223.819-.34 1.263-.339a2.5 2.5 0 0 1 2.181 1.273c.218.386.331.823.326 1.266"/><path fill="#DDDADA" stroke="#29252B" stroke-linecap="round" stroke-linejoin="round" stroke-width=".5" d="M144.66 158.29v7.59l-33.81 19.52v-7.59zM144.66 132.9v17.24l-33.81 19.52v-17.23zM144.66 113.42v11.34l-33.81 19.52v-11.34z"/><path fill="#8773A8" stroke="#29252B" stroke-linecap="round" stroke-linejoin="round" stroke-width=".5" d="M152 68.38V171.1a5.2 5.2 0 0 1-3.67 1.52 5.2 5.2 0 0 1-3.67-1.52v-12.85l3.85-2.22v-3.78a2.51 2.51 0 0 0-3.77-2.18h-.08V132.9l3.85-2.22v-3.8a2.507 2.507 0 0 0-2.514-2.509 2.5 2.5 0 0 0-1.256.339l-.08.05V70.25a17 17 0 0 0-10.186-16.758 16.996 16.996 0 0 0-22.793 9.903c-.78 2.197-1.1 4.53-.941 6.855v37a24.22 24.22 0 0 0-7-14.94l-.34-.33v-23.6a24.31 24.31 0 0 1 48.61 0z"/><path fill="#DDDADA" stroke="#29252B" stroke-linecap="round" stroke-linejoin="round" stroke-width=".5" d="M296.94 25.49v52.47L152 161.65v-52.47z"/><path fill="#8773A8" stroke="#29252B" stroke-linecap="round" stroke-linejoin="round" stroke-width=".5" d="M110.85 109.53v34.72l-.11.06v8.15l.11-.06v17.23l-.11.06v8.15l.11-.06v17.23l-.11.06a5.166 5.166 0 0 1-7.23-.1v-83.55a16 16 0 0 0-.12-2 16.996 16.996 0 0 0-17.813-14.427A17 17 0 0 0 69.59 111.42v20.83l-7.34 4.25v-27a24.312 24.312 0 0 1 28.697-23.888A24.3 24.3 0 0 1 103.4 91.99l.34.33a24.23 24.23 0 0 1 7 14.94v1.21h.08c.02.34.03.7.03 1.06"/><path fill="#DDDADA" stroke="#29252B" stroke-linecap="round" stroke-linejoin="round" stroke-width=".5" d="M103.509 137.18v52.46l-14.78 8.54-45.29-26.32z"/><path fill="#fff" stroke="#000" stroke-linecap="round" stroke-linejoin="round" stroke-width=".5" d="m181.9 182.15.12 1.23c0-.41-.06-.82-.08-1.24z"/><path fill="#29252B" stroke="#29252B" stroke-linecap="round" stroke-linejoin="round" stroke-width=".5" d="M207.25 212.68c-15.65-7.16-24.14-17.7-25.23-29l1.69 18a27.2 27.2 0 0 0 3.88 11.4 31.5 31.5 0 0 0 2.66 3.67 41.7 41.7 0 0 0 7.12 6.89c.75.58 1.54 1.15 2.36 1.71a62 62 0 0 0 6.86 4c.75.38 1.53.75 2.32 1.11l.1.05a73 73 0 0 0 6.62 2.66c.75.28 1.52.53 2.28.77a85 85 0 0 0 6.65 1.87c.74.19 1.49.35 2.25.51q3.24.72 6.59 1.21c.74.11 1.48.23 2.23.31 2.15.3 4.34.53 6.54.68.73.06 1.48.12 2.23.15 2.15.13 4.32.19 6.49.21h2.2c1.13 0 2.26 0 3.39-.07l-1.68-17.85c-17.06.63-33.89-2.03-47.55-8.28"/><path fill="#DDDADA" stroke="#29252B" stroke-linecap="round" stroke-linejoin="round" stroke-width=".5" d="M296.93 212.33v18.49l-1.2.46c-.71.25-1.43.51-2.15.75-2.05.72-4.15 1.37-6.29 2-.7.2-1.42.39-2.14.58-2.09.56-4.2 1-6.34 1.5q-1.06.22-2.16.42c-2.1.42-4.24.77-6.37 1.07-.73.11-1.46.2-2.19.28-.25 0-.51.07-.77.09-1.87.24-3.75.42-5.64.57h-.13c-.68.05-1.37.11-2.05.14-1 .06-2.05.11-3.07.14l-1.68-17.85 2.56-.12 2.56-.17q2.89-.21 5.77-.56l1-.12 1.38-.18 1.83-.26 1-.16c1.16-.18 2.31-.38 3.45-.59l1-.19 1.59-.32h.2l2.32-.5 1.28-.3.44-.11c1.1-.26 2.19-.54 3.28-.84h.1c.73-.19 1.45-.4 2.17-.61l1.06-.32.25-.08c.54-.15 1.07-.32 1.6-.49l1.58-.52c1.13-.38 2.26-.78 3.37-1.19l1.69-.65z"/><path fill="#fff" stroke="#29252B" stroke-linecap="round" stroke-linejoin="round" stroke-width=".5" d="M187.69 178.48c0-.23.06-.46.11-.7a.1.1 0 0 1 0-.06c0-.19.06-.38.1-.57s.09-.44.14-.67.15-.61.23-.91.16-.61.26-.92a1 1 0 0 1 0-.17l.12-.36c.11-.31.22-.63.34-.95l.27-.68c.13-.31.27-.62.41-.93l.18-.39.33-.66c.15-.28.3-.58.46-.87.32-.58.67-1.16 1-1.74s.77-1.16 1.18-1.73l.64-.86.67-.86c.23-.29.47-.58.71-.85s.49-.56.75-.84l.77-.84.81-.83.84-.83.88-.82c.31-.28.6-.55.92-.82s.78-.68 1.18-1c.6-.51 1.23-1 1.87-1.49l.45-.33c.5-.38 1-.76 1.54-1.13l1.19-.84c.4-.28.81-.54 1.22-.81l.79-.51.84-.53 1.4-.84c.35-.21.7-.42 1.07-.62l.24-.14 1.38-.75.9-.49.5-.25.16-.08.18-.1.56-.27.93-.47c1.64-.81 3.32-1.57 5.07-2.28a99 99 0 0 1 10.97-3.92c.93-.29 1.88-.56 2.84-.8s1.92-.52 2.91-.74c1.94-.48 3.92-.9 5.92-1.26 1-.19 2-.37 3-.53l2.06-.32a76 76 0 0 1 1.71-.24c1.6-.22 3.21-.4 4.83-.55s3.29-.28 4.92-.37l1.63-.08c1.09 0 2.17-.09 3.24-.1h4.79l1.6.05c1 0 2.09.08 3.13.15s2.09.13 3.11.23c.52 0 1 .08 1.54.14 1.53.15 3 .34 4.54.56s3 .45 4.43.74h.08c1.43.27 2.84.56 4.23.9.47.1.94.22 1.4.34s.93.23 1.39.37.9.23 1.35.37v-5.78c-30.68-8.22-70.56-2.39-95.23 15.14-13.64 9.7-20.15 21.2-19.76 32.15 0 .41 0 .82.07 1.22v.35c.141 1.411.391 2.808.75 4.18.1.39.22.78.34 1.16s.18.57.28.85q.56 1.578 1.3 3.08.24.49.51 1l.42.76.43.71c.15.24.3.49.46.73s.31.48.48.72a38.3 38.3 0 0 0 6.67 7.3c.67.58 1.36 1.14 2.09 1.69s1.48 1.1 2.26 1.63c.39.27.79.53 1.19.79a64 64 0 0 0 8.05 4.37c13.63 6.24 30.45 8.9 47.46 8.28l2.56-.12c.85 0 1.7-.1 2.56-.16l2.58-.22c1.06-.1 2.13-.21 3.19-.35l1-.12 1.38-.18 1.83-.26 1-.16 1.73-.28c.35-.05.69-.12 1-.18l.68-.13 1-.19 1.59-.32h.2l1.8-.39.49-.11 1.28-.3.44-.11 1.68-.41 1.6-.43h.1l1.49-.42.68-.19.67-.19.39-.13.25-.08 1.6-.49 1.58-.52c1.14-.39 2.27-.79 3.37-1.19l1.69-.65.72-.29v-6a118.4 118.4 0 0 1-35 8.59c-19.42 1.84-38-.76-52.29-7.3-11.76-5.52-19.26-13.01-21.37-21.43 0-.17-.08-.33-.12-.51s-.09-.4-.13-.61c-.07-.36-.14-.71-.18-1.07s-.08-.6-.11-.9v-3.35q.02-.7.09-1.33"/><path fill="#fff" stroke="#29252B" stroke-linecap="round" stroke-linejoin="round" stroke-width=".5" d="M211.71 150.25c.91-.51 1.83-1 2.77-1.48-.94.48-1.87 1-2.77 1.48M216.32 147.86l-1.84.94.72-.39zM221.39 145.59c-1.73.72-3.43 1.48-5.07 2.27 1.64-.8 3.33-1.61 5.07-2.27M232.251 141.77a109 109 0 0 0-10.86 3.82 99 99 0 0 1 10.86-3.82M296.931 140.64v65.66a118.4 118.4 0 0 1-35 8.59c-19.42 1.84-38-.76-52.29-7.3-11.89-5.43-19.39-12.92-21.5-21.34.5-8.82 6.57-17.73 17.38-25.42 11.08-7.87 25.78-13.48 42-16.1 1.24-.21 2.5-.39 3.77-.55l-.59-6.24-1.71.23a76 76 0 0 1 1.71-.24c1.6-.22 3.21-.4 4.83-.55s3.29-.28 4.92-.37l1.63-.08 3.24-.1h4.79l1.6.05c1 0 2.09.09 3.13.15s2.09.13 3.11.23l1.54.14c1.53.15 3 .34 4.54.56s3 .45 4.43.74h.08c1.43.27 2.84.56 4.23.9l1.4.34 1.39.37z"/><path fill="#29252B" stroke="#29252B" stroke-linecap="round" stroke-linejoin="round" stroke-width=".5" d="m250.731 137.9.58 6.23c-1.27.16-2.52.35-3.77.56-16.24 2.61-30.93 8.22-42 16.1-10.82 7.69-16.89 16.6-17.39 25.41 0-.16-.08-.33-.12-.51s-.09-.4-.13-.61-.13-.71-.18-1.07-.08-.6-.1-.9a8 8 0 0 1-.06-1.19 23.2 23.2 0 0 1 2.71-11.5c.14-.28.29-.58.46-.86.31-.58.66-1.17 1-1.75s.76-1.15 1.17-1.72c.21-.3.43-.58.64-.87s.45-.56.67-.86.47-.57.72-.85l.74-.84c.26-.28.51-.56.78-.84l.8-.83c.29-.27.56-.55.85-.83l.87-.82.92-.82a62 62 0 0 1 5-4c.79-.56 1.59-1.11 2.42-1.65l.78-.51.85-.53c.46-.28.92-.56 1.39-.83s.71-.42 1.07-.63l.25-.14c1.5-.84 3-1.64 4.61-2.42s3.34-1.55 5.07-2.27a109 109 0 0 1 10.92-3.78c.94-.28 1.89-.54 2.85-.8l2.9-.74q2.91-.69 5.93-1.26l3-.53c1.32-.19 2.53-.38 3.8-.54"/><path fill="#DDDADA" stroke="#29252B" stroke-linecap="round" stroke-linejoin="round" stroke-width=".5" d="M187.58 182.741v-.341c-.02.11-.01.231 0 .341M187.6 183.12v-.38.37c0 .3.06.61.1.9-.04-.29-.07-.59-.1-.89M187.559 182.4a23 23 0 0 1 2.7-12 23.2 23.2 0 0 0-2.71 11.5c0 .19 0 .35.01.5M190.721 169.56q.455-.9 1-1.75c-.34.58-.69 1.17-1 1.75M191.75 167.81c.35-.57.74-1.15 1.17-1.72-.41.57-.81 1.16-1.17 1.72M204.94 154.56c.79-.56 1.6-1.11 2.43-1.64-.83.54-1.63 1.09-2.42 1.65a62 62 0 0 0-5 4 60 60 0 0 1 4.99-4.01M296.931 140.64v6.06c-12.15-3.4-26.22-4.51-40.78-3.13-1.62.15-3.24.33-4.84.56l-.59-6.24c1.6-.22 3.22-.4 4.84-.55s3.29-.28 4.91-.38l1.63-.08 3.24-.1h4.79l1.6.05c1 0 2.09.09 3.13.15s2.09.13 3.11.23l1.54.14c1.53.16 3 .34 4.54.56s3 .46 4.43.74h.08c1.43.28 2.84.57 4.23.9l1.4.34 1.39.37z"/><path fill="#29252B" stroke="#29252B" stroke-linecap="round" stroke-linejoin="round" stroke-width=".5" d="m265.64 220.12 1.69 17.84c-1.88.23-3.76.41-5.65.56h-.12l-1.69-17.85z"/><path fill="#8773A8" stroke="#29252B" stroke-linecap="round" stroke-linejoin="round" stroke-width=".5" d="M274.48 200.55c.88.4.37 1.27-.79 1.38l-17.85 1.69a3.9 3.9 0 0 1-1.9-.27l-47.8-21.9c-.87-.4-.37-1.27.8-1.38l17.85-1.68a3.63 3.63 0 0 1 1.89.27zM280.15 184.61a1.34 1.34 0 0 1 .87 1l1 10.34c.07.67-1.3 1.14-2.18.74l-47.8-21.89a1.3 1.3 0 0 1-.87-1l-1-10.33c-.06-.68 1.31-1.15 2.19-.75zM296.93 174.01v6.24l-9.7.91a3.73 3.73 0 0 1-1.89-.27L237.53 159c-.87-.4-.37-1.27.8-1.38l17.85-1.69a4 4 0 0 1 1.89.27z"/><path fill="#87DA65" stroke="#29252B" stroke-linecap="round" stroke-linejoin="round" stroke-width=".5" d="M205.53 158.1c7.54-3.22 16.68-6.76 27.29-10.11-.77.66-17.11 15.09-13.42 36.31a39.297 39.297 0 0 0 29.85 31.16 95.7 95.7 0 0 1-34.11-5.6c-7.08-2.57-15.28-5.77-21.59-13.61a29.9 29.9 0 0 1-4.86-8.07 24.7 24.7 0 0 1-.82-13.42c3.08-12.2 16.99-16.51 17.66-16.66"/><path stroke="#29252B" stroke-linecap="round" stroke-linejoin="round" stroke-width=".5" d="M182.251 176.4c-1.47 1.41-8.92 8.78-8.66 19.86a25.25 25.25 0 0 0 3.13 11.47M191.02 224.17a101.7 101.7 0 0 0 25.23 15.23 104.3 104.3 0 0 0 51.7 7.2"/><path fill="#87DA65" d="M181.11 179.56a42.4 42.4 0 0 0 1.37 11.25c9.49 36.16 65.11 47.43 72.06 48.75a92.8 92.8 0 0 1-25.77-.9s-17.88-3.17-32.53-12.93a40 40 0 0 1-9.46-8.48 36.4 36.4 0 0 1-4-6.25c-6.67-13.26-3.09-26.88-1.67-31.44"/></svg>