<svg xmlns="http://www.w3.org/2000/svg" width="277" height="270" fill="none"><g clip-path="url(#a)"><path fill="url(#b)" d="M26.199 110.394c-15.763 10.91-22.418 20.709-23.76 34.927l-1.355 45.201c1.26-12.361 5.679-22.512 23.76-34.941.352-11.127.813-25.969 1.165-37.11.081-2.426.176-5.651.258-8.132"/><path stroke="#29252B" stroke-linecap="round" stroke-linejoin="round" stroke-width="1.5" d="M26.199 110.394c-15.763 10.91-22.418 20.709-23.76 34.927l-1.355 45.201c1.26-12.361 5.679-22.512 23.76-34.941.352-11.127.813-25.969 1.165-37.11.081-2.426.176-5.651.258-8.132"/><path fill="url(#c)" d="M250.592 159.62c15.749-10.924 22.417-20.723 23.759-34.941l1.423-45.201c-1.26 12.36-5.679 22.512-23.759 34.941-.352 11.127-.827 25.982-1.166 37.11-.081 2.426-.176 5.665-.257 8.132"/><path stroke="#29252B" stroke-linecap="round" stroke-linejoin="round" stroke-width="1.5" d="M250.592 159.62c15.749-10.924 22.417-20.723 23.759-34.941l1.423-45.201c-1.26 12.36-5.679 22.512-23.759 34.941-.352 11.127-.827 25.982-1.166 37.11-.081 2.426-.176 5.665-.257 8.132"/><path fill="#DDDADA" stroke="#29252B" stroke-linecap="round" stroke-linejoin="round" stroke-width="1.5" d="m214.39 241.876-20.615 12.199c-51.206 29.56-122.118 2.954-158.4-59.433S11.194 57.684 62.345 28.124l20.629-12.199C31.824 45.513 19.72 120.057 56.003 182.444s107.195 88.993 158.387 59.432"/><path fill="#fff" stroke="#29252B" stroke-linecap="round" stroke-linejoin="round" stroke-width="1.5" d="M83.015 15.953c51.165-29.506 122.117-2.942 158.4 59.445s24.18 136.891-27.025 166.478c-51.206 29.588-122.118 2.955-158.387-59.432S31.823 45.513 83.015 15.953"/><path fill="#29252B" stroke="#29252B" stroke-linecap="round" stroke-linejoin="round" stroke-width="1.5" d="M96.129 31.435 91 34.35c44.937-25.68 107.038-2.485 138.72 51.828 31.681 54.313 20.922 119.143-24.016 144.822l5.088-2.914c44.938-25.68 55.697-90.522 24.016-144.822s-93.742-77.44-138.68-51.829"/><path fill="#87DA65" stroke="#29252B" stroke-linecap="round" stroke-linejoin="round" stroke-width="1.5" d="M92.963 33.464c44.442-25.657 105.867-2.48 137.189 51.774 31.323 54.255 20.697 119.041-23.759 144.698s-105.84 2.48-137.175-51.775S48.535 59.121 92.963 33.464"/><path fill="#fff" stroke="#29252B" stroke-linecap="round" stroke-linejoin="round" stroke-width="1.5" d="M219.08 127.512c1.64-.8 3.646 1.206 3.198 3.185l-7.034 30.346a3.78 3.78 0 0 1-1.938 2.589l-89.575 44.239c-1.64.799-3.646-1.207-3.185-3.185l7.02-30.347a3.83 3.83 0 0 1 1.952-2.589zM181.319 100.649a3.77 3.77 0 0 1 3.239 0l28.368 12.848c1.843.854 2.223 3.673.583 4.473l-89.562 44.266a3.77 3.77 0 0 1-3.239 0L92.34 149.374c-1.843-.841-2.223-3.646-.583-4.46zM181.78 55.57c1.64-.8 3.646 1.206 3.199 3.185L177.944 89.1a3.78 3.78 0 0 1-1.951 2.589l-89.562 44.198c-1.64.799-3.646-1.207-3.185-3.185l7.02-30.347a3.92 3.92 0 0 1 1.898-2.588z"/><path fill="url(#d)" stroke="#29252B" stroke-linecap="round" stroke-linejoin="round" stroke-width="1.5" d="M2.44 145.321c1.138 28.788 30.942 50.311 79.722 57.575.19-6.261.46-14.61.65-20.886a249.1 249.1 0 0 0 81.443 31.811c-23.813 26.077-46.637 40.985-84.167 55.162.203-6.261.46-14.61.65-20.886-48.792-7.305-78.61-28.828-79.721-57.575z"/><path fill="url(#e)" stroke="#29252B" stroke-linecap="round" stroke-linejoin="round" stroke-width="1.5" d="M274.35 124.693c-1.138-28.788-30.942-50.311-79.721-57.576-.204 6.262-.461 14.624-.665 20.886a248.6 248.6 0 0 0-81.47-31.81c23.854-26.023 46.665-40.972 84.208-55.176-.203 6.261-.461 14.624-.664 20.886 48.793 7.305 78.611 28.841 79.736 57.575z"/></g><defs><linearGradient id="b" x1="44.604" x2="-6.899" y1="132.201" y2="162.534" gradientUnits="userSpaceOnUse"><stop stop-color="#29252B"/><stop offset="1" stop-color="#8773A8"/></linearGradient><linearGradient id="c" x1="232.186" x2="283.69" y1="137.812" y2="107.48" gradientUnits="userSpaceOnUse"><stop stop-color="#29252B"/><stop offset="1" stop-color="#8773A8"/></linearGradient><linearGradient id="d" x1="-2.819" x2="143.518" y1="196.133" y2="232.714" gradientUnits="userSpaceOnUse"><stop stop-color="#29252B"/><stop offset="1" stop-color="#8773A8"/></linearGradient><linearGradient id="e" x1="279.609" x2="133.272" y1="73.88" y2="37.286" gradientUnits="userSpaceOnUse"><stop stop-color="#29252B"/><stop offset="1" stop-color="#8773A8"/></linearGradient><clipPath id="a"><path fill="#fff" d="M0 0h276.79v270H0z"/></clipPath></defs></svg>