<svg xmlns="http://www.w3.org/2000/svg" width="118" height="22" fill="none"><path fill="#fff" d="M19.788 13.432c4.229.771 7.12 2.277 7.12 4.014 0 2.508-6.018 4.554-13.454 4.554C6.02 22 0 19.974 0 17.446c0-1.737 2.872-3.243 7.12-4.014 1.85.463 4.013.733 6.334.733s4.485-.251 6.334-.733m-1.613-7.353c3.6.579 6.078 1.814 6.078 3.261 0 1.988-4.839 3.61-10.799 3.61S2.655 11.327 2.655 9.32c0-1.428 2.479-2.663 6.078-3.261 1.377.347 2.99.54 4.721.54 1.711.02 3.325-.193 4.721-.521M13.494 0c4.465 0 8.084 1.235 8.084 2.74s-3.62 2.74-8.084 2.74c-4.466 0-8.085-1.234-8.085-2.74C5.41 1.235 9.03 0 13.494 0M44.06 18.14c1.12 0 2.065-.173 2.793-.501.747-.348 1.298-.81 1.672-1.41.373-.597.57-1.292.55-2.006 0-.734-.157-1.351-.452-1.872a3.3 3.3 0 0 0-1.18-1.197 3.15 3.15 0 0 0-1.495-.463v-.135c.452-.096.905-.29 1.298-.56.394-.25.689-.598.925-1.003s.334-.907.334-1.505q0-1.071-.531-1.91-.531-.84-1.593-1.332c-.708-.328-1.593-.483-2.656-.483h-5.625V18.16h5.96zm-.65-8.279h-2.635V5.886h2.695c.786 0 1.377.193 1.77.54.393.367.61.81.61 1.37 0 .425-.118.792-.315 1.1-.217.31-.511.54-.866.715-.413.173-.826.25-1.258.25m.237 6.099h-2.853v-4.227h2.931c.551 0 1.023.097 1.416.31.394.192.709.462.925.81.216.347.334.733.334 1.158 0 .579-.216 1.042-.649 1.408-.452.367-1.14.54-2.104.54m10.248 2.393c.57 0 1.062-.078 1.495-.232a3.1 3.1 0 0 0 1.062-.617c.295-.251.511-.54.668-.85h.08v1.486h2.497v-7.217c0-.714-.137-1.312-.393-1.795a3.25 3.25 0 0 0-1.043-1.139 4.4 4.4 0 0 0-1.435-.598c-.512-.135-1.043-.173-1.574-.173-.767 0-1.475.115-2.105.328-.61.212-1.16.56-1.613 1.003a3.9 3.9 0 0 0-.944 1.66l2.42.347c.117-.366.373-.695.747-.965s.865-.405 1.514-.405c.61 0 1.063.135 1.377.444.315.29.492.695.492 1.235v.038a.62.62 0 0 1-.275.54c-.177.117-.472.194-.885.252s-.925.115-1.574.173c-.511.058-1.042.136-1.554.27-.472.116-.924.29-1.357.54a2.64 2.64 0 0 0-.944.966q-.354.608-.354 1.505c0 .714.157 1.312.491 1.795.315.482.768.849 1.318 1.1.551.193 1.18.309 1.889.309m.668-1.872c-.55 0-.983-.116-1.337-.367-.354-.232-.531-.598-.531-1.061 0-.328.079-.599.275-.81.177-.213.413-.368.708-.483a4 4 0 0 1 1.043-.251l.61-.077c.236-.02.472-.078.708-.116s.452-.097.649-.155.334-.115.413-.193v1.274c0 .405-.098.772-.315 1.1a2.2 2.2 0 0 1-.885.81c-.374.232-.826.329-1.338.329m9.776 1.66V3.743h-2.596V18.14zm5.272.212c.57 0 1.082-.078 1.495-.232a3.1 3.1 0 0 0 1.062-.617c.295-.251.511-.54.669-.85h.079v1.486h2.517v-7.217c0-.714-.138-1.312-.393-1.795a3.25 3.25 0 0 0-1.043-1.139 4.4 4.4 0 0 0-1.436-.598c-.511-.135-1.042-.173-1.573-.173-.767 0-1.475.115-2.105.328-.61.212-1.16.56-1.613 1.003a3.7 3.7 0 0 0-.944 1.66l2.42.347c.137-.366.373-.695.747-.965s.865-.405 1.514-.405c.61 0 1.063.135 1.377.444.315.29.472.695.472 1.235v.038a.62.62 0 0 1-.275.54c-.177.117-.472.194-.885.252-.393.058-.925.115-1.574.173-.53.058-1.042.136-1.554.27-.472.116-.924.29-1.337.54-.394.232-.728.56-.944.966-.236.405-.335.907-.335 1.505 0 .714.158 1.312.492 1.795.315.482.767.849 1.318 1.1.531.193 1.16.309 1.849.309m.688-1.872c-.53 0-.983-.116-1.337-.367-.354-.232-.512-.598-.512-1.061 0-.328.08-.599.256-.81.177-.213.413-.368.728-.483a4 4 0 0 1 1.042-.251l.61-.077c.236-.02.472-.078.708-.116s.453-.097.65-.155c.196-.057.334-.115.413-.193v1.274c0 .405-.099.772-.315 1.1a2.2 2.2 0 0 1-.885.81c-.394.232-.846.329-1.358.329m9.776 1.66v-6.33c0-.521.099-.965.315-1.332.197-.367.472-.656.826-.85.374-.192.787-.289 1.2-.289.669 0 1.2.213 1.574.618.373.405.57.965.57 1.698v6.484h2.596v-6.87c0-.868-.157-1.602-.452-2.2a3.36 3.36 0 0 0-1.318-1.39c-.57-.327-1.239-.482-1.986-.482-.827 0-1.515.174-2.066.54-.55.348-.964.85-1.22 1.448h-.137V7.353H77.5V18.16h2.576zm13.966.212c.924 0 1.731-.174 2.4-.502a4.04 4.04 0 0 0 1.632-1.39c.394-.598.63-1.273.689-2.026h-2.479a2.3 2.3 0 0 1-.432.984c-.197.27-.453.483-.767.618-.315.135-.65.212-1.023.212-.551 0-1.004-.135-1.417-.424-.393-.29-.708-.695-.924-1.216s-.334-1.158-.334-1.892c0-.733.118-1.35.334-1.871s.531-.927.944-1.197c.393-.29.866-.424 1.397-.424.63 0 1.12.173 1.495.52.373.348.61.792.708 1.313h2.478c-.059-.772-.295-1.467-.708-2.046a4 4 0 0 0-1.652-1.35c-.689-.329-1.475-.483-2.38-.483-1.082 0-2.007.232-2.793.714a4.8 4.8 0 0 0-1.83 1.968c-.432.83-.649 1.814-.649 2.914s.217 2.065.63 2.895c.432.83 1.022 1.486 1.81 1.969.825.482 1.77.714 2.871.714m11.173 0c.845 0 1.612-.136 2.281-.386.669-.251 1.2-.618 1.633-1.081a3.5 3.5 0 0 0 .865-1.64l-2.419-.27a2.1 2.1 0 0 1-.512.771 2.1 2.1 0 0 1-.806.463 2.6 2.6 0 0 1-1.023.155q-.855 0-1.475-.348a2.37 2.37 0 0 1-.984-1.022q-.354-.666-.354-1.621v.058h7.672v-.772c0-.946-.138-1.757-.413-2.451-.276-.695-.63-1.255-1.102-1.698a4.3 4.3 0 0 0-1.613-.985 5.9 5.9 0 0 0-1.928-.328c-1.042 0-1.966.232-2.734.714a4.76 4.76 0 0 0-1.809 1.969c-.433.83-.65 1.814-.65 2.933 0 1.139.217 2.104.65 2.933.432.83 1.042 1.486 1.849 1.93s1.77.676 2.872.676m-2.774-6.716c.02-.386.138-.753.334-1.1q.325-.607.945-.984a2.5 2.5 0 0 1 1.396-.367c.492 0 .925.116 1.298.328.374.232.669.521.886.907s.314.81.314 1.312h-5.173zm11.9 6.503v-6.349c0-.463.099-.868.315-1.216.216-.347.512-.636.885-.83a2.64 2.64 0 0 1 1.259-.308c.216 0 .453.02.689.038.236.039.413.058.511.097V7.237c-.138-.02-.295-.039-.452-.058s-.315-.02-.492-.02a3 3 0 0 0-1.692.502c-.492.348-.826.81-1.042 1.448h-.118V7.314h-2.518v10.807h2.655z"/></svg>