<svg xmlns="http://www.w3.org/2000/svg" width="54" height="40" fill="none"><path fill="#8773A8" d="M44.972 3.35A43.7 43.7 0 0 0 34.084 0q-.773 1.384-1.395 2.835a40.7 40.7 0 0 0-12.084 0A30 30 0 0 0 19.21 0 44.1 44.1 0 0 0 8.314 3.358C1.423 13.553-.446 23.495.489 33.296A43.9 43.9 0 0 0 13.843 40a32.4 32.4 0 0 0 2.86-4.612 28.4 28.4 0 0 1-4.504-2.15c.378-.274.747-.556 1.104-.83a31.37 31.37 0 0 0 26.7 0c.361.294.73.577 1.104.83a28.3 28.3 0 0 1-4.512 2.154A32 32 0 0 0 39.455 40a43.7 43.7 0 0 0 13.363-6.7c1.095-11.366-1.873-21.216-7.846-29.95M17.886 27.269c-2.603 0-4.753-2.362-4.753-5.268s2.076-5.289 4.745-5.289 4.802 2.383 4.757 5.289c-.046 2.906-2.096 5.268-4.749 5.268m17.534 0c-2.607 0-4.749-2.362-4.749-5.268s2.076-5.289 4.75-5.289 4.79 2.383 4.744 5.289-2.092 5.268-4.745 5.268"/></svg>