<svg xmlns="http://www.w3.org/2000/svg" width="105" height="22" fill="none"><path fill="#4285FD" d="M13.343 18.05c.525 0 .84.42.84.84 0 .525-.42.84-.84.84a.83.83 0 0 1-.84-.84c0-.42.315-.84.84-.84m13.755-5.355a.83.83 0 0 1-.84-.84c0-.42.42-.84.84-.84.525 0 .84.42.84.84s-.42.84-.84.84m0-3.57c-1.47 0-2.73 1.26-2.73 2.73 0 .315 0 .63.105.84l-8.925 4.725a2.74 2.74 0 0 0-2.205-1.155c-1.05 0-1.995.63-2.415 1.47l-7.98-4.2c-.84-.42-1.47-1.89-1.365-3.15 0-.63.315-1.155.63-1.365a.9.9 0 0 1 .735 0h.105c2.1 1.155 9.135 4.725 9.345 4.935.42.21.735.315 1.47-.105l14.385-7.455c.21-.105.42-.315.42-.63 0-.42-.42-.63-.42-.63-.84-.42-2.1-.945-3.255-1.575a555 555 0 0 0-6.93-3.255c-1.155-.63-1.995-.105-2.205 0l-.315.105C9.668 3.35 1.793 7.235 1.373 7.445.533 7.97.113 8.915.008 10.07c-.105 1.89.84 3.885 2.31 4.62l8.505 4.41c.21 1.365 1.365 2.31 2.625 2.31 1.47 0 2.73-1.155 2.73-2.625l9.345-5.04c.525.42 1.05.525 1.68.525 1.47 0 2.73-1.26 2.73-2.73-.21-1.26-1.365-2.415-2.835-2.415M47.573 16.265a5.66 5.66 0 0 1-2.205 1.365 9.9 9.9 0 0 1-3.15.525c-1.785 0-3.255-.525-4.305-1.68-1.05-1.05-1.68-2.625-1.68-4.515v-1.155c0-1.365.21-2.52.735-3.465.525-1.05 1.155-1.785 1.995-2.31s1.89-.84 3.045-.84c1.68 0 3.045.42 3.99 1.155s1.47 1.89 1.68 3.465h-3.15c-.105-.735-.315-1.26-.735-1.575a2.58 2.58 0 0 0-1.575-.525c-.84 0-1.47.315-1.89 1.05s-.63 1.68-.735 2.94v.84c0 1.365.21 2.415.735 3.045.42.63 1.155 1.05 2.205 1.05.84 0 1.47-.21 1.89-.525v-2.1h-2.31v-2.205h5.565v5.46zM49.463 17.945h3.15V7.865h-3.15zM49.358 5.24c0-.42.21-.84.525-1.155s.735-.42 1.26-.42.945.105 1.26.42.525.63.525 1.155c0 .42-.21.84-.525 1.155s-.735.42-1.26.42-.945-.105-1.26-.42c-.42-.315-.525-.63-.525-1.155M58.283 5.345v2.52h1.68v2.205h-1.68v4.62c0 .42.105.63.21.84.105.105.42.21.84.21.315 0 .525 0 .735-.105v2.205c-.525.21-1.155.315-1.785.315-1.05 0-1.89-.21-2.415-.735s-.735-1.26-.735-2.31v-5.04h-1.26V7.865h1.26v-2.52zM64.583 12.17v3.255h2.1c.63 0 1.05-.105 1.365-.42s.525-.63.525-1.155c0-1.155-.525-1.68-1.68-1.68zm0-2.1h1.68c.735 0 1.26-.105 1.575-.42.315-.21.42-.63.42-1.155s-.21-.945-.525-1.26c-.315-.21-.84-.42-1.575-.42h-1.575zm-3.255 7.875V4.4h4.935c1.785 0 3.045.315 3.99.945s1.365 1.575 1.365 2.835c0 .735-.21 1.26-.525 1.785s-.84.84-1.47 1.05c.735.21 1.26.525 1.68 1.05s.525 1.155.525 1.89c0 1.365-.42 2.31-1.26 3.045-.84.63-2.1 1.05-3.78 1.05zM76.238 13.01c0 .945.105 1.575.42 2.1q.473.63 1.26.63c1.155 0 1.68-.84 1.68-2.625V12.8c0-1.785-.63-2.73-1.785-2.73-1.05 0-1.575.735-1.68 2.31zm-3.15-.21c0-1.05.21-1.89.63-2.73.42-.735.945-1.365 1.68-1.785s1.575-.63 2.625-.63c1.47 0 2.73.42 3.57 1.365q1.26 1.418 1.26 3.78v.21c0 1.575-.42 2.835-1.365 3.78-.84.945-2.1 1.365-3.57 1.365q-2.205 0-3.465-1.26c-.84-.84-1.365-1.995-1.365-3.465zM87.053 13.01c0 .945.105 1.575.42 2.1q.472.63 1.26.63c1.155 0 1.68-.84 1.68-2.625V12.8c0-1.785-.63-2.73-1.785-2.73-1.05 0-1.575.735-1.68 2.31zm-3.15-.21c0-1.05.21-1.89.63-2.73.42-.735.945-1.365 1.68-1.785s1.575-.63 2.625-.63c1.47 0 2.73.42 3.57 1.365q1.26 1.418 1.26 3.78v.21c0 1.575-.42 2.835-1.365 3.78-.84.945-2.1 1.365-3.57 1.365q-2.205 0-3.465-1.26c-.84-.84-1.365-1.995-1.365-3.465zM99.128 14.27l-.945.84v2.835h-3.15V3.665h3.15v7.56l.315-.42 2.415-2.94h3.78l-3.57 4.2 3.78 5.88h-3.57z"/></svg>