<svg xmlns="http://www.w3.org/2000/svg" width="127" height="40" fill="none"><path fill="#fff" d="M40.685 20c0 11.045-8.894 20-19.865 20S.957 31.048.957 20 9.85 0 20.82 0s19.865 8.954 19.865 20M62.475 20c0 10.398-4.447 18.826-9.932 18.826S42.611 30.396 42.611 20s4.447-18.827 9.932-18.827S62.475 9.604 62.475 20M71.389 20c0 9.316-1.564 16.868-3.493 16.868-1.93 0-3.494-7.555-3.494-16.868 0-9.314 1.564-16.868 3.494-16.868S71.39 10.684 71.39 20M126.21 1.734l.055-.012v-.428h-11.297l-10.489 24.653L93.99 1.294H81.817v.428l.054.012c2.062.466 3.109 1.16 3.109 3.663V34.7c0 2.503-1.05 3.197-3.113 3.662l-.055.012v.43h8.26v-.428l-.055-.013c-2.062-.465-3.109-1.159-3.109-3.662V7.097l13.475 31.708h.764l13.867-32.593v29.214c-.177 1.977-1.214 2.587-3.081 3.009l-.055.012v.425h14.387v-.425l-.055-.012c-1.869-.422-2.932-1.032-3.109-3.01l-.009-30.028h.009c0-2.503 1.047-3.197 3.109-3.663"/></svg>