<svg xmlns="http://www.w3.org/2000/svg" width="163" height="30" fill="none"><g clip-path="url(#a)"><path fill="#FF86FF" d="M12.835 14.102 1.798 3.072v11.03z"/><path fill="#FF86FF" d="m1.542.267 14.096 14.095a.902.902 0 0 1-.668 1.536H.901A.896.896 0 0 1 0 14.997V.895A.901.901 0 0 1 1.542.267"/><path fill="#E200F1" d="m17.175 15.898 11.03 11.03v-11.03z"/><path fill="#E200F1" d="M28.458 29.726 14.363 15.631a.9.9 0 0 1 0-1.269.91.91 0 0 1 .667-.26h14.102a.895.895 0 0 1 .895.895v14.102a.894.894 0 0 1-.895.901.91.91 0 0 1-.668-.274"/><path fill="#FF59FF" d="M15.637 15.63 1.542 29.727A.9.9 0 0 1 .874 30a.894.894 0 0 1-.901-.901V14.997a.895.895 0 0 1 .901-.895h14.129a.894.894 0 0 1 .667 1.529"/><path fill="#FF59FF" d="m1.798 26.928 11.037-11.03H1.798z"/><path fill="#F41AFA" d="M.267 28.464 14.362 14.37a.88.88 0 0 1 .668-.267.895.895 0 0 1 .894.895v14.102a.896.896 0 0 1-.894.901H.9a.87.87 0 0 1-.633-.267.89.89 0 0 1 0-1.269"/><path fill="#F41AFA" d="m14.104 17.173-11.03 11.03h11.03z"/><path fill="#BC00DE" d="M14.362 14.362 28.458.267A.9.9 0 0 1 29.125 0a.895.895 0 0 1 .895.895v14.102a.894.894 0 0 1-.895.901H15.003a.901.901 0 0 1-.667-1.536"/><path fill="#BC00DE" d="m28.205 3.072-11.03 11.03h11.03z"/><path fill="#90C" d="M29.739 1.536 15.643 15.63a.93.93 0 0 1-.667.267.894.894 0 0 1-.902-.901V.895A.894.894 0 0 1 14.976 0h14.102a.9.9 0 0 1 .667.26.91.91 0 0 1 0 1.276"/><path fill="#90C" d="m15.9 12.827 11.037-11.03H15.899z"/><path fill="#fff" d="M42.843 22h-2.755V7.645h2.697v1.943h.116a6.4 6.4 0 0 1 2.146-1.711q1.275-.638 2.813-.638 1.827 0 3.19.812 1.392.783 2.146 2.262.783 1.479.783 3.451V22h-2.755v-7.743q0-1.914-1.073-3.132-1.044-1.218-2.871-1.218-1.305 0-2.32.638-.986.638-1.566 1.769-.55 1.102-.551 2.523zM55.148 14.837q0-2.088.928-3.828a7.23 7.23 0 0 1 2.64-2.755q1.71-1.015 3.856-1.015 2.32 0 4.06 1.131 1.77 1.13 2.61 3.103.87 1.943.696 4.321h-11.86q.087 1.102.695 2.03.639.9 1.653 1.421 1.044.522 2.32.522 1.392 0 2.465-.609 1.074-.609 1.566-1.624h2.871q-.724 2.262-2.61 3.567t-4.408 1.305q-2.262 0-3.973-1.015a7.3 7.3 0 0 1-2.61-2.755q-.899-1.74-.899-3.799m11.803-1.479a4.06 4.06 0 0 0-.84-1.798 4 4 0 0 0-1.538-1.247q-.928-.435-2.059-.435-1.1 0-2.03.464a4.14 4.14 0 0 0-1.537 1.218 4.24 4.24 0 0 0-.812 1.798zM78.257 22.406q-2.291 0-4.06-1.015a7.25 7.25 0 0 1-2.755-2.755q-.957-1.74-.957-3.828 0-2.116.957-3.828a7.05 7.05 0 0 1 2.755-2.726q1.769-1.015 4.06-1.015 2.233 0 3.973 1.015a6.85 6.85 0 0 1 2.726 2.726q.957 1.71.957 3.828 0 2.088-.986 3.828a7.1 7.1 0 0 1-2.697 2.755q-1.74 1.015-3.973 1.015m-4.988-7.598q0 1.363.609 2.494a4.8 4.8 0 0 0 1.769 1.798q1.131.667 2.61.667 1.42 0 2.523-.667a4.57 4.57 0 0 0 1.74-1.798 5.1 5.1 0 0 0 .638-2.494q0-1.363-.638-2.494a4.4 4.4 0 0 0-1.74-1.769q-1.102-.667-2.523-.667-1.479 0-2.61.667a4.6 4.6 0 0 0-1.77 1.769 5.2 5.2 0 0 0-.608 2.494M90.016 22H87.26V7.645h2.697v1.943h.117a6.4 6.4 0 0 1 2.145-1.711q1.276-.638 2.814-.638 1.826 0 3.19.812 1.391.783 2.145 2.262.783 1.479.783 3.451V22h-2.754v-7.743q0-1.914-1.074-3.132-1.043-1.218-2.87-1.218-1.305 0-2.32.638-.987.638-1.566 1.769-.551 1.102-.551 2.523zM111.224 7.239q2.117-.03 3.77.928 1.653.957 2.581 2.697.957 1.74.957 3.944t-.957 3.944a6.8 6.8 0 0 1-2.61 2.726q-1.653.957-3.712.928-1.653-.03-2.987-.725a6.3 6.3 0 0 1-2.175-1.914h-.116V27.8h-2.726V7.645h2.726v2.088h.145a5.8 5.8 0 0 1 2.117-1.798q1.334-.667 2.987-.696m-.377 12.499q1.479 0 2.581-.638a4.57 4.57 0 0 0 1.74-1.798 5.2 5.2 0 0 0 .609-2.494q0-1.363-.609-2.494a4.4 4.4 0 0 0-1.74-1.769q-1.102-.667-2.581-.667-1.42 0-2.523.667a4.43 4.43 0 0 0-1.711 1.769 5.2 5.2 0 0 0-.609 2.494q0 1.363.609 2.494a4.7 4.7 0 0 0 1.711 1.769q1.103.667 2.523.667M131.659 9.733V7.645h2.726V22h-2.726v-2.233h-.116a6 6 0 0 1-2.146 1.914q-1.305.696-3.016.725-2.058.03-3.741-.928a7.1 7.1 0 0 1-2.61-2.726q-.927-1.74-.928-3.944 0-2.204.928-3.944.957-1.74 2.61-2.697t3.77-.928q1.683.03 2.987.696a6.1 6.1 0 0 1 2.146 1.798zm-4.872 10.005q1.422 0 2.523-.667a4.7 4.7 0 0 0 1.711-1.769 5.2 5.2 0 0 0 .609-2.494q0-1.363-.609-2.494a4.43 4.43 0 0 0-1.711-1.769q-1.101-.667-2.523-.667-1.479 0-2.61.667a4.44 4.44 0 0 0-1.711 1.769 5.2 5.2 0 0 0-.609 2.494q0 1.363.609 2.494a4.64 4.64 0 0 0 1.711 1.798q1.131.638 2.61.638M135.884 11.56q0-1.103.522-2.001.522-.9 1.45-1.392.928-.522 2.088-.522h7.975v2.668h-7.917q-.55 0-.899.348-.32.32-.319.87 0 .494.261.812.261.32.696.406l5.916 1.334q1.508.348 2.378 1.392.899 1.044.899 2.494 0 1.16-.522 2.088a3.74 3.74 0 0 1-1.479 1.421q-.928.522-2.088.522h-8.381v-2.668h8.323q.55 0 .899-.348.348-.377.348-.986 0-.494-.261-.812a1.25 1.25 0 0 0-.725-.464l-5.945-1.305q-1.479-.32-2.349-1.363-.87-1.073-.87-2.494M149.267 11.56q0-1.103.522-2.001.522-.9 1.45-1.392.929-.522 2.088-.522h7.975v2.668h-7.917q-.55 0-.899.348-.32.32-.319.87 0 .494.261.812.261.32.696.406l5.916 1.334q1.508.348 2.378 1.392.899 1.044.899 2.494 0 1.16-.522 2.088a3.74 3.74 0 0 1-1.479 1.421q-.929.522-2.088.522h-8.381v-2.668h8.323q.55 0 .899-.348.348-.377.348-.986 0-.494-.261-.812a1.25 1.25 0 0 0-.725-.464l-5.945-1.305q-1.479-.32-2.349-1.363-.87-1.073-.87-2.494"/></g><defs><clipPath id="a"><path fill="#fff" d="M0 0h163v30H0z"/></clipPath></defs></svg>