<svg width="163" height="17" viewBox="0 0 163 17" fill="none" xmlns="http://www.w3.org/2000/svg">
<path d="M1.01367 15.9375H2.09766V12.8906C2.17578 12.9766 2.25977 13.0566 2.34961 13.1309C2.43945 13.2012 2.53516 13.2656 2.63672 13.3242C2.80469 13.418 2.99219 13.4902 3.19922 13.541C3.41016 13.5918 3.63672 13.6172 3.87891 13.6172C4.27734 13.6172 4.63086 13.5352 4.93945 13.3711C5.25195 13.207 5.51367 12.9805 5.72461 12.6914C5.93555 12.4023 6.0957 12.0625 6.20508 11.6719C6.31445 11.2773 6.36914 10.8535 6.36914 10.4004V10.2773C6.36914 9.80469 6.31445 9.37109 6.20508 8.97656C6.0957 8.57812 5.93555 8.23633 5.72461 7.95117C5.51367 7.66602 5.25195 7.44336 4.93945 7.2832C4.62695 7.12305 4.26758 7.04297 3.86133 7.04297C3.63086 7.04297 3.41406 7.06836 3.21094 7.11914C3.01172 7.16602 2.83008 7.23633 2.66602 7.33008C2.54883 7.39258 2.43945 7.46875 2.33789 7.55859C2.23633 7.64453 2.14258 7.74219 2.05664 7.85156L2.00391 7.16016H1.01367V15.9375ZM5.28516 10.2773V10.4004C5.28516 10.709 5.25 11.0039 5.17969 11.2852C5.11328 11.5664 5.00977 11.8145 4.86914 12.0293C4.72852 12.2441 4.54883 12.416 4.33008 12.5449C4.11133 12.6699 3.85156 12.7324 3.55078 12.7324C3.36328 12.7324 3.19141 12.709 3.03516 12.6621C2.88281 12.6152 2.74414 12.5508 2.61914 12.4688C2.50977 12.3984 2.41211 12.3125 2.32617 12.2109C2.24023 12.1094 2.16406 12 2.09766 11.8828V8.83008C2.17188 8.69727 2.25781 8.57617 2.35547 8.4668C2.45312 8.35742 2.56445 8.26562 2.68945 8.19141C2.80273 8.11719 2.92969 8.06055 3.07031 8.02148C3.21484 7.98242 3.37109 7.96289 3.53906 7.96289C3.84375 7.96289 4.10547 8.02539 4.32422 8.15039C4.54297 8.27539 4.72461 8.44336 4.86914 8.6543C5.00977 8.86914 5.11328 9.11719 5.17969 9.39844C5.25 9.67578 5.28516 9.96875 5.28516 10.2773ZM7.92188 10.2715V10.4004C7.92188 10.8574 7.98828 11.2812 8.12109 11.6719C8.25391 12.0625 8.44531 12.4023 8.69531 12.6914C8.94141 12.9805 9.24219 13.207 9.59766 13.3711C9.95703 13.5352 10.3613 13.6172 10.8105 13.6172C11.2559 13.6172 11.6562 13.5352 12.0117 13.3711C12.3672 13.207 12.6699 12.9805 12.9199 12.6914C13.166 12.4023 13.3555 12.0625 13.4883 11.6719C13.6211 11.2812 13.6875 10.8574 13.6875 10.4004V10.2715C13.6875 9.81445 13.6211 9.39062 13.4883 9C13.3555 8.60547 13.166 8.26367 12.9199 7.97461C12.6699 7.68555 12.3652 7.45898 12.0059 7.29492C11.6504 7.12695 11.248 7.04297 10.7988 7.04297C10.3535 7.04297 9.95312 7.12695 9.59766 7.29492C9.24219 7.45898 8.94141 7.68555 8.69531 7.97461C8.44531 8.26367 8.25391 8.60547 8.12109 9C7.98828 9.39062 7.92188 9.81445 7.92188 10.2715ZM9.00586 10.4004V10.2715C9.00586 9.96289 9.04297 9.66797 9.11719 9.38672C9.19141 9.10156 9.30469 8.85156 9.45703 8.63672C9.60547 8.42188 9.79102 8.25195 10.0137 8.12695C10.2363 7.99805 10.498 7.93359 10.7988 7.93359C11.0996 7.93359 11.3613 7.99805 11.584 8.12695C11.8105 8.25195 12 8.42188 12.1523 8.63672C12.3008 8.85156 12.4121 9.10156 12.4863 9.38672C12.5645 9.66797 12.6035 9.96289 12.6035 10.2715V10.4004C12.6035 10.7129 12.5664 11.0117 12.4922 11.2969C12.418 11.5781 12.3066 11.8262 12.1582 12.041C12.0059 12.2559 11.8164 12.4258 11.5898 12.5508C11.3672 12.6758 11.1074 12.7383 10.8105 12.7383C10.5098 12.7383 10.2461 12.6758 10.0195 12.5508C9.79297 12.4258 9.60547 12.2559 9.45703 12.041C9.30469 11.8262 9.19141 11.5781 9.11719 11.2969C9.04297 11.0117 9.00586 10.7129 9.00586 10.4004ZM16.043 13.5H16.8984L17.877 9.61523L18.0352 8.63086L18.1992 9.61523L19.1895 13.5H20.0449L21.3926 7.16016H20.4316L19.7285 11.2031L19.5703 12.1992L19.4004 11.2031L18.3926 7.16016H17.6953L16.6816 11.2031L16.5234 12.1113L16.3945 11.2031L15.6562 7.16016H14.6953L16.043 13.5ZM25.4414 13.6172C26.0586 13.6172 26.5762 13.4941 26.9941 13.248C27.416 12.998 27.7324 12.7129 27.9434 12.3926L27.2812 11.877C27.082 12.1348 26.832 12.3418 26.5312 12.498C26.2305 12.6543 25.8867 12.7324 25.5 12.7324C25.207 12.7324 24.9395 12.6777 24.6973 12.5684C24.4551 12.459 24.248 12.3086 24.0762 12.1172C23.9082 11.9375 23.7754 11.7305 23.6777 11.4961C23.584 11.2617 23.5234 10.9902 23.4961 10.6816V10.6406H28.0254V10.1543C28.0254 9.71289 27.9688 9.30273 27.8555 8.92383C27.7461 8.54492 27.5781 8.21484 27.3516 7.93359C27.125 7.65625 26.8398 7.43945 26.4961 7.2832C26.1562 7.12305 25.7578 7.04297 25.3008 7.04297C24.9375 7.04297 24.582 7.11719 24.2344 7.26562C23.8906 7.41406 23.584 7.62695 23.3145 7.9043C23.041 8.18555 22.8223 8.5293 22.6582 8.93555C22.4941 9.33789 22.4121 9.79492 22.4121 10.3066V10.5527C22.4121 10.9941 22.4863 11.4023 22.6348 11.7773C22.7832 12.1523 22.9902 12.4766 23.2559 12.75C23.5215 13.0234 23.8398 13.2363 24.2109 13.3887C24.5859 13.541 24.9961 13.6172 25.4414 13.6172ZM25.3008 7.93359C25.5781 7.93359 25.8164 7.98438 26.0156 8.08594C26.2188 8.1875 26.3867 8.32031 26.5195 8.48438C26.6523 8.64844 26.7559 8.84375 26.8301 9.07031C26.9043 9.29297 26.9414 9.50195 26.9414 9.69727V9.75H23.5312C23.5742 9.45703 23.6484 9.19922 23.7539 8.97656C23.8633 8.75 23.9961 8.55859 24.1523 8.40234C24.3086 8.25 24.4844 8.13477 24.6797 8.05664C24.875 7.97461 25.082 7.93359 25.3008 7.93359ZM34.002 7.04297C33.541 7.04297 33.1289 7.14453 32.7656 7.34766C32.4062 7.54688 32.0977 7.82031 31.8398 8.16797L31.834 8.00977L31.7871 7.16016H30.7559V13.5H31.8457V9.43359C31.916 9.23828 32.0039 9.0625 32.1094 8.90625C32.2188 8.74609 32.3457 8.61133 32.4902 8.50195C32.6504 8.37695 32.8379 8.2832 33.0527 8.2207C33.2676 8.1543 33.5078 8.12109 33.7734 8.12109C33.9805 8.12109 34.1777 8.13281 34.3652 8.15625C34.5566 8.17578 34.7578 8.20898 34.9688 8.25586L35.1152 7.19531C35.0059 7.14844 34.8418 7.11133 34.623 7.08398C34.4082 7.05664 34.2012 7.04297 34.002 7.04297ZM39.8555 13.6172C40.4727 13.6172 40.9902 13.4941 41.4082 13.248C41.8301 12.998 42.1465 12.7129 42.3574 12.3926L41.6953 11.877C41.4961 12.1348 41.2461 12.3418 40.9453 12.498C40.6445 12.6543 40.3008 12.7324 39.9141 12.7324C39.6211 12.7324 39.3535 12.6777 39.1113 12.5684C38.8691 12.459 38.6621 12.3086 38.4902 12.1172C38.3223 11.9375 38.1895 11.7305 38.0918 11.4961C37.998 11.2617 37.9375 10.9902 37.9102 10.6816V10.6406H42.4395V10.1543C42.4395 9.71289 42.3828 9.30273 42.2695 8.92383C42.1602 8.54492 41.9922 8.21484 41.7656 7.93359C41.5391 7.65625 41.2539 7.43945 40.9102 7.2832C40.5703 7.12305 40.1719 7.04297 39.7148 7.04297C39.3516 7.04297 38.9961 7.11719 38.6484 7.26562C38.3047 7.41406 37.998 7.62695 37.7285 7.9043C37.4551 8.18555 37.2363 8.5293 37.0723 8.93555C36.9082 9.33789 36.8262 9.79492 36.8262 10.3066V10.5527C36.8262 10.9941 36.9004 11.4023 37.0488 11.7773C37.1973 12.1523 37.4043 12.4766 37.6699 12.75C37.9355 13.0234 38.2539 13.2363 38.625 13.3887C39 13.541 39.4102 13.6172 39.8555 13.6172ZM39.7148 7.93359C39.9922 7.93359 40.2305 7.98438 40.4297 8.08594C40.6328 8.1875 40.8008 8.32031 40.9336 8.48438C41.0664 8.64844 41.1699 8.84375 41.2441 9.07031C41.3184 9.29297 41.3555 9.50195 41.3555 9.69727V9.75H37.9453C37.9883 9.45703 38.0625 9.19922 38.168 8.97656C38.2773 8.75 38.4102 8.55859 38.5664 8.40234C38.7227 8.25 38.8984 8.13477 39.0938 8.05664C39.2891 7.97461 39.4961 7.93359 39.7148 7.93359ZM44.0566 10.2773V10.4004C44.0566 10.8535 44.1172 11.2773 44.2383 11.6719C44.3594 12.0625 44.5293 12.4023 44.748 12.6914C44.9668 12.9805 45.2305 13.207 45.5391 13.3711C45.8516 13.5352 46.1992 13.6172 46.582 13.6172C46.9727 13.6172 47.3145 13.5508 47.6074 13.418C47.9004 13.2852 48.1523 13.0898 48.3633 12.832L48.4102 13.5H49.4062V4.5H48.3223V7.78711C48.1152 7.54492 47.8691 7.36133 47.584 7.23633C47.3027 7.10742 46.9727 7.04297 46.5938 7.04297C46.207 7.04297 45.8574 7.12305 45.5449 7.2832C45.2324 7.44336 44.9668 7.66602 44.748 7.95117C44.5254 8.23633 44.3535 8.57812 44.2324 8.97656C44.1152 9.37109 44.0566 9.80469 44.0566 10.2773ZM45.1406 10.4004V10.2773C45.1406 9.96875 45.1738 9.67578 45.2402 9.39844C45.3066 9.11719 45.4102 8.86914 45.5508 8.6543C45.6875 8.44336 45.8633 8.27539 46.0781 8.15039C46.2969 8.02539 46.5586 7.96289 46.8633 7.96289C47.2188 7.96289 47.5156 8.04688 47.7539 8.21484C47.9922 8.37891 48.1816 8.58984 48.3223 8.84766V11.7891C48.1816 12.0664 47.9922 12.2871 47.7539 12.4512C47.5156 12.6152 47.2148 12.6973 46.8516 12.6973C46.5508 12.6973 46.293 12.6367 46.0781 12.5156C45.8633 12.3906 45.6875 12.2227 45.5508 12.0117C45.4102 11.8008 45.3066 11.5566 45.2402 11.2793C45.1738 11.002 45.1406 10.709 45.1406 10.4004ZM64.0488 10.4004V10.2773C64.0488 9.94531 64.0215 9.63086 63.9668 9.33398C63.9121 9.0332 63.832 8.75977 63.7266 8.51367C63.625 8.29492 63.5078 8.09766 63.375 7.92188C63.2422 7.74219 63.0918 7.58984 62.9238 7.46484C62.7363 7.33203 62.5273 7.22852 62.2969 7.1543C62.0664 7.08008 61.8145 7.04297 61.541 7.04297C61.3223 7.04297 61.1191 7.06445 60.9316 7.10742C60.7441 7.15039 60.5723 7.21289 60.416 7.29492C60.291 7.36133 60.1738 7.44141 60.0645 7.53516C59.9551 7.625 59.8555 7.72656 59.7656 7.83984V4.5H58.6816V13.5H59.6777L59.7305 12.7793C59.8008 12.8691 59.875 12.9512 59.9531 13.0254C60.0312 13.0996 60.1133 13.168 60.1992 13.2305C60.3789 13.3555 60.5801 13.4512 60.8027 13.5176C61.0293 13.584 61.2793 13.6172 61.5527 13.6172C61.791 13.6172 62.0117 13.5879 62.2148 13.5293C62.4219 13.4707 62.6113 13.3887 62.7832 13.2832C63.0215 13.1309 63.2246 12.9395 63.3926 12.709C63.5645 12.4746 63.7031 12.2109 63.8086 11.918C63.8867 11.6953 63.9453 11.457 63.9844 11.2031C64.0273 10.9453 64.0488 10.6777 64.0488 10.4004ZM62.9648 10.2773V10.4004C62.9648 10.5879 62.9531 10.7715 62.9297 10.9512C62.9062 11.1309 62.8691 11.2988 62.8184 11.4551C62.7559 11.6621 62.6719 11.8496 62.5664 12.0176C62.4609 12.1855 62.3301 12.3242 62.1738 12.4336C62.0566 12.5195 61.9238 12.5859 61.7754 12.6328C61.627 12.6758 61.4629 12.6973 61.2832 12.6973C61.0957 12.6973 60.9238 12.6738 60.7676 12.627C60.6113 12.5762 60.4707 12.5059 60.3457 12.416C60.2207 12.3262 60.1094 12.2227 60.0117 12.1055C59.918 11.9844 59.8359 11.8535 59.7656 11.7129V8.94141C59.832 8.80078 59.9121 8.67188 60.0059 8.55469C60.1035 8.43359 60.2148 8.32812 60.3398 8.23828C60.4609 8.15234 60.5996 8.08594 60.7559 8.03906C60.9121 7.98828 61.084 7.96289 61.2715 7.96289C61.4434 7.96289 61.5996 7.98242 61.7402 8.02148C61.8809 8.06055 62.0078 8.11523 62.1211 8.18555C62.2852 8.2832 62.4238 8.41797 62.5371 8.58984C62.6504 8.76172 62.7422 8.95117 62.8125 9.1582C62.8633 9.32617 62.9004 9.50586 62.9238 9.69727C62.9512 9.88477 62.9648 10.0781 62.9648 10.2773ZM66.3926 16.0605C66.6777 16.0605 66.9297 16.0078 67.1484 15.9023C67.3672 15.7969 67.5586 15.666 67.7227 15.5098C67.8867 15.3535 68.0254 15.1836 68.1387 15C68.2559 14.8164 68.3516 14.6426 68.4258 14.4785L71.6426 7.16016H70.4297L68.7949 11.2734L68.4961 12.0176L68.2148 11.25L66.4746 7.16016H65.2617L67.9922 13.2012L67.5586 14.0449C67.5195 14.123 67.4648 14.2227 67.3945 14.3438C67.3281 14.4648 67.248 14.582 67.1543 14.6953C67.0566 14.8086 66.9453 14.9062 66.8203 14.9883C66.6992 15.0703 66.5645 15.1113 66.416 15.1113C66.3613 15.1113 66.2852 15.1074 66.1875 15.0996C66.0938 15.0957 65.998 15.0898 65.9004 15.082L65.7246 15.9668C65.7949 15.9824 65.8984 16.002 66.0352 16.0254C66.1719 16.0488 66.291 16.0605 66.3926 16.0605Z" fill="#383339"/>
<path d="M90.557 14.3321C90.9724 14.3321 91.2216 14.6656 91.2216 14.999C91.2216 15.4159 90.8893 15.666 90.557 15.666C90.1416 15.666 89.8924 15.3325 89.8924 14.999C89.8924 14.6656 90.1416 14.3321 90.557 14.3321ZM101.44 10.08C101.025 10.08 100.775 9.74655 100.775 9.41306C100.775 9.07957 101.108 8.74608 101.44 8.74608C101.855 8.74608 102.105 9.07957 102.105 9.41306C102.105 9.74655 101.772 10.08 101.44 10.08ZM101.44 7.24537C100.277 7.24537 99.2801 8.24584 99.2801 9.41306C99.2801 9.66318 99.2801 9.9133 99.3631 10.08L92.3016 13.8318C91.8862 13.2482 91.2216 12.9147 90.557 12.9147C89.7262 12.9147 88.9786 13.415 88.6462 14.0819L82.3324 10.747C81.6678 10.4135 81.1694 9.24632 81.2524 8.24584C81.2524 7.7456 81.5017 7.32874 81.7509 7.16199C81.917 7.07862 82.1663 7.07862 82.3324 7.16199H82.4155C84.077 8.0791 89.6432 10.9138 89.8093 11.0805C90.1416 11.2473 90.3909 11.3306 90.9724 10.9971L102.354 5.07767C102.52 4.9943 102.686 4.82755 102.686 4.57743C102.686 4.24394 102.354 4.0772 102.354 4.0772C101.689 3.7437 100.692 3.32684 99.7785 2.8266C97.7016 1.82613 95.3755 0.742279 94.2955 0.242041C93.3816 -0.258196 92.717 0.158668 92.5508 0.242041L92.3016 0.325415C87.6493 2.65986 81.4186 5.74466 81.0863 5.9114C80.4217 6.32827 80.0894 7.07862 80.0063 7.99572C79.9232 9.49644 80.6709 11.0805 81.834 11.6641L88.5632 15.1658C88.7293 16.2496 89.6432 17 90.6401 17C91.8032 17 92.8001 16.0829 92.8001 14.9157L100.194 10.9138C100.609 11.2473 101.025 11.3306 101.523 11.3306C102.686 11.3306 103.683 10.3302 103.683 9.16295C103.517 8.16247 102.603 7.24537 101.44 7.24537Z" fill="#575255"/>
<path d="M117.64 12.9147C117.225 13.3316 116.643 13.7485 115.896 13.9986C115.148 14.2487 114.317 14.4154 113.403 14.4154C111.991 14.4154 110.828 13.9986 109.997 13.0815C109.167 12.2477 108.668 10.9971 108.668 9.49643V8.57933C108.668 7.49548 108.834 6.57838 109.25 5.82802C109.665 4.99429 110.163 4.41068 110.828 3.99382C111.493 3.57695 112.323 3.32683 113.237 3.32683C114.567 3.32683 115.647 3.66033 116.394 4.24394C117.142 4.82755 117.557 5.74465 117.723 6.99524H115.231C115.148 6.41163 114.982 5.99477 114.65 5.74465C114.317 5.49453 113.902 5.32778 113.403 5.32778C112.739 5.32778 112.24 5.5779 111.908 6.16151C111.576 6.74512 111.41 7.49548 111.327 8.49595V9.16294C111.327 10.2468 111.493 11.0805 111.908 11.5808C112.24 12.081 112.822 12.4145 113.653 12.4145C114.317 12.4145 114.816 12.2477 115.148 11.9976V10.3302H113.32V8.57933H117.723V12.9147H117.64Z" fill="#575255"/>
<path d="M119.136 14.2487H121.628V6.24491H119.136V14.2487ZM119.053 4.16059C119.053 3.8271 119.219 3.49361 119.468 3.24349C119.717 2.99337 120.05 2.91 120.465 2.91C120.88 2.91 121.213 2.99337 121.462 3.24349C121.711 3.49361 121.877 3.74373 121.877 4.16059C121.877 4.49408 121.711 4.82758 121.462 5.07769C121.213 5.32781 120.88 5.41118 120.465 5.41118C120.05 5.41118 119.717 5.32781 119.468 5.07769C119.136 4.82758 119.053 4.57746 119.053 4.16059Z" fill="#575255"/>
<path d="M126.114 4.24394V6.24489H127.443V7.99572H126.114V11.6641C126.114 11.9976 126.197 12.1644 126.28 12.3311C126.363 12.4145 126.612 12.4979 126.945 12.4979C127.194 12.4979 127.36 12.4979 127.526 12.4145V14.1653C127.111 14.3321 126.612 14.4154 126.114 14.4154C125.283 14.4154 124.618 14.2487 124.203 13.8318C123.788 13.415 123.621 12.8314 123.621 11.9976V7.99572H122.625V6.24489H123.621V4.24394H126.114Z" fill="#575255"/>
<path d="M131.098 9.66318V12.2477H132.76C133.258 12.2477 133.591 12.1644 133.84 11.9143C134.089 11.6641 134.255 11.414 134.255 10.9971C134.255 10.08 133.84 9.66318 132.926 9.66318H131.098ZM131.098 7.99572H132.428C133.009 7.99572 133.425 7.91235 133.674 7.66223C133.923 7.49549 134.006 7.16199 134.006 6.74513C134.006 6.32827 133.84 5.99477 133.591 5.74465C133.341 5.57791 132.926 5.41116 132.345 5.41116H131.098V7.99572ZM128.523 14.2487V3.49358H132.428C133.84 3.49358 134.837 3.74371 135.585 4.24394C136.332 4.74418 136.665 5.49454 136.665 6.49501C136.665 7.07862 136.498 7.49549 136.249 7.91235C136 8.32922 135.585 8.57933 135.086 8.74608C135.668 8.91283 136.083 9.16294 136.415 9.57981C136.748 9.99667 136.831 10.4969 136.831 11.0805C136.831 12.1644 136.498 12.9147 135.834 13.4983C135.169 13.9986 134.172 14.3321 132.843 14.3321L128.523 14.2487Z" fill="#575255"/>
<path d="M140.32 10.3302C140.32 11.0805 140.403 11.5808 140.652 11.9976C140.901 12.3311 141.234 12.4979 141.649 12.4979C142.563 12.4979 142.978 11.8309 142.978 10.4135V10.1634C142.978 8.74608 142.48 7.99572 141.566 7.99572C140.735 7.99572 140.32 8.57933 140.237 9.82993L140.32 10.3302ZM137.828 10.1634C137.828 9.32969 137.994 8.66271 138.326 7.99572C138.658 7.41211 139.074 6.91188 139.655 6.57838C140.237 6.24489 140.901 6.07815 141.732 6.07815C142.895 6.07815 143.892 6.41164 144.557 7.16199C145.221 7.91235 145.554 8.91282 145.554 10.1634V10.3302C145.554 11.5808 145.221 12.5812 144.474 13.3316C143.809 14.0819 142.812 14.4154 141.649 14.4154C140.486 14.4154 139.572 14.0819 138.908 13.415C138.243 12.748 137.828 11.8309 137.828 10.6637V10.1634Z" fill="#575255"/>
<path d="M148.877 10.3302C148.877 11.0805 148.96 11.5808 149.209 11.9976C149.459 12.3311 149.791 12.4979 150.206 12.4979C151.12 12.4979 151.536 11.8309 151.536 10.4136V10.1634C151.536 8.74609 151.037 7.99574 150.123 7.99574C149.292 7.99574 148.877 8.57935 148.794 9.82994L148.877 10.3302ZM146.385 10.1634C146.385 9.3297 146.551 8.66272 146.883 7.99574C147.216 7.41213 147.631 6.91189 148.212 6.5784C148.794 6.24491 149.459 6.07816 150.289 6.07816C151.452 6.07816 152.449 6.41165 153.114 7.16201C153.779 7.91237 154.111 8.91284 154.111 10.1634V10.3302C154.111 11.5808 153.779 12.5812 153.031 13.3316C152.366 14.082 151.369 14.4155 150.206 14.4155C149.043 14.4155 148.129 14.082 147.465 13.415C146.8 12.748 146.385 11.8309 146.385 10.6637V10.1634Z" fill="#575255"/>
<path d="M158.431 11.3307L157.683 11.9976V14.2487H155.191V2.91H157.683V8.91285L157.932 8.57936L159.843 6.24491H162.834L160.009 9.57983L163 14.2487H160.175L158.431 11.3307Z" fill="#575255"/>
</svg>
