<svg xmlns="http://www.w3.org/2000/svg" width="163" height="17" fill="none"><path fill="#383339" d="M1.014 15.938h1.084V12.89q.117.129.252.24.135.105.287.193.252.14.562.217.317.075.68.076.597 0 1.06-.246.47-.245.786-.68.315-.433.48-1.02.164-.59.164-1.27v-.124a4.9 4.9 0 0 0-.164-1.3q-.165-.598-.48-1.026a2.2 2.2 0 0 0-.786-.668 2.3 2.3 0 0 0-1.078-.24q-.345 0-.65.076-.299.07-.545.211a1.7 1.7 0 0 0-.328.229 2 2 0 0 0-.281.293l-.053-.692h-.99zm4.271-5.66v.122q0 .463-.105.885a2.3 2.3 0 0 1-.31.744 1.6 1.6 0 0 1-.54.516 1.55 1.55 0 0 1-.78.187q-.28 0-.515-.07a1.6 1.6 0 0 1-.416-.193 1.3 1.3 0 0 1-.293-.258 2 2 0 0 1-.228-.328V8.83a2 2 0 0 1 .257-.363 1.4 1.4 0 0 1 .334-.276q.17-.11.381-.17.217-.058.47-.058.456 0 .784.187t.545.504q.21.322.31.744.106.416.106.88m2.637-.007v.13q0 .684.2 1.27.198.587.573 1.02a2.6 2.6 0 0 0 .903.68q.539.246 1.212.246.668 0 1.202-.246.533-.245.908-.68.369-.433.568-1.02.2-.585.2-1.27v-.13q0-.685-.2-1.271a3.1 3.1 0 0 0-.568-1.025 2.64 2.64 0 0 0-.914-.68 2.8 2.8 0 0 0-1.207-.252q-.668 0-1.201.252-.534.245-.903.68Q8.32 8.408 8.121 9q-.2.585-.2 1.271m1.084.13v-.13q0-.462.111-.884.111-.428.34-.75.222-.322.557-.51a1.54 1.54 0 0 1 .785-.193q.45 0 .785.193.34.188.568.51.223.322.334.75.118.422.117.884v.13q0 .467-.11.896-.112.422-.335.744a1.7 1.7 0 0 1-.568.51 1.57 1.57 0 0 1-.78.187q-.45 0-.79-.187a1.64 1.64 0 0 1-.563-.51 2.3 2.3 0 0 1-.34-.744 3.6 3.6 0 0 1-.111-.897m7.037 3.099h.855l.979-3.885.158-.984.164.984.99 3.885h.856l1.348-6.34h-.961l-.703 4.043-.159.996-.17-.996-1.007-4.043h-.698l-1.013 4.043-.159.908-.128-.908-.739-4.043h-.96zm9.398.117q.927 0 1.553-.369.632-.375.95-.855l-.663-.516q-.299.387-.75.621-.45.234-1.031.234-.439 0-.803-.164-.363-.164-.62-.45-.253-.27-.4-.622a2.9 2.9 0 0 1-.18-.814v-.041h4.528v-.487q0-.662-.17-1.23a2.8 2.8 0 0 0-.503-.99 2.3 2.3 0 0 0-.856-.65q-.51-.24-1.195-.241-.545 0-1.067.223-.515.221-.92.638a3.2 3.2 0 0 0-.656 1.032q-.246.603-.246 1.37v.247q0 .662.223 1.224.222.563.62.973.4.41.956.639a3.2 3.2 0 0 0 1.23.228m-.14-5.683q.415 0 .715.152a1.5 1.5 0 0 1 .504.398q.199.246.31.586.111.335.111.627v.053h-3.41q.064-.439.223-.773.165-.34.398-.575.235-.228.528-.345.293-.123.62-.123m8.701-.891a2.5 2.5 0 0 0-1.236.305q-.54.298-.926.82l-.006-.158-.047-.85h-1.031v6.34h1.09V9.434q.105-.293.263-.528.165-.24.381-.404.24-.188.563-.281.323-.1.72-.1.311 0 .592.035.288.03.604.1l.146-1.06a2 2 0 0 0-.492-.112 5 5 0 0 0-.621-.041m5.853 6.574q.926 0 1.553-.369.633-.375.95-.855l-.663-.516q-.298.387-.75.621-.45.234-1.03.234a1.9 1.9 0 0 1-.804-.164q-.363-.164-.62-.45-.252-.27-.4-.622a2.9 2.9 0 0 1-.18-.814v-.041h4.529v-.487q0-.662-.17-1.23a2.8 2.8 0 0 0-.504-.99 2.3 2.3 0 0 0-.856-.65q-.51-.24-1.195-.241-.545 0-1.067.223-.515.221-.92.638a3.2 3.2 0 0 0-.656 1.032q-.246.603-.246 1.37v.247q0 .662.223 1.224.222.563.62.973.4.41.956.639a3.2 3.2 0 0 0 1.23.228m-.14-5.683q.415 0 .715.152.304.152.504.398.198.246.31.586.111.335.111.627v.053h-3.41q.064-.439.223-.773.164-.34.398-.575.235-.228.528-.345.293-.123.62-.123m4.342 2.343v.123q0 .68.181 1.272.181.585.51 1.02.329.432.791.68.469.245 1.043.245.586 0 1.025-.199.44-.2.756-.586l.047.668h.996v-9h-1.084v3.287a2.04 2.04 0 0 0-.738-.55 2.36 2.36 0 0 0-.99-.194q-.58 0-1.05.24a2.34 2.34 0 0 0-.796.668 3.1 3.1 0 0 0-.516 1.026 4.6 4.6 0 0 0-.175 1.3m1.084.123v-.123q0-.462.1-.879.1-.42.31-.744a1.55 1.55 0 0 1 .527-.504q.328-.187.785-.187.534 0 .89.252.36.246.57.633v2.941q-.21.416-.57.662-.356.246-.901.246-.451 0-.774-.181a1.55 1.55 0 0 1-.527-.504 2.3 2.3 0 0 1-.31-.733q-.1-.415-.1-.879m18.908 0v-.123q0-.498-.082-.943a3.8 3.8 0 0 0-.24-.82 3.3 3.3 0 0 0-.352-.592 2.2 2.2 0 0 0-.451-.457 2.3 2.3 0 0 0-.627-.31 2.5 2.5 0 0 0-.756-.112q-.328 0-.61.064-.28.065-.515.188a2 2 0 0 0-.351.24q-.165.135-.3.305V4.5h-1.083v9h.996l.053-.72a2.3 2.3 0 0 0 .468.45q.27.188.604.288.339.1.75.1.357 0 .662-.089.31-.087.568-.246.358-.228.61-.574.258-.351.416-.791.117-.334.175-.715.065-.386.065-.803m-1.084-.123v.123q0 .282-.035.551t-.112.504a2.3 2.3 0 0 1-.252.563 1.4 1.4 0 0 1-.392.416q-.175.129-.399.199a1.8 1.8 0 0 1-.492.064q-.282 0-.515-.07a1.5 1.5 0 0 1-.422-.211 1.8 1.8 0 0 1-.334-.31 2.4 2.4 0 0 1-.246-.393V8.94q.099-.211.24-.386.146-.182.334-.317.181-.129.416-.199a1.7 1.7 0 0 1 .516-.076q.257 0 .468.058.21.06.381.165.246.146.416.404t.276.568q.075.252.11.54.042.28.042.58m3.428 5.784q.428 0 .755-.159.329-.158.575-.392t.416-.51q.176-.275.287-.521l3.217-7.319H70.43l-1.635 4.113-.299.745-.281-.768-1.74-4.09h-1.213l2.73 6.041-.433.844q-.06.117-.165.299a2.3 2.3 0 0 1-.24.351q-.146.17-.334.293a.7.7 0 0 1-.404.123 3 3 0 0 1-.228-.011 8 8 0 0 1-.288-.018l-.175.885q.105.023.31.058t.358.036"/><path fill="#575255" d="M90.557 14.332c.415 0 .665.334.665.667a.656.656 0 0 1-.665.667.656.656 0 0 1-.665-.667c0-.333.25-.667.665-.667m10.883-4.252a.657.657 0 0 1-.665-.667c0-.333.333-.667.665-.667.415 0 .665.334.665.667 0 .334-.333.667-.665.667m0-2.835c-1.163 0-2.16 1-2.16 2.168 0 .25 0 .5.083.667l-7.061 3.752a2.17 2.17 0 0 0-1.745-.917c-.83 0-1.578.5-1.91 1.167l-6.315-3.335c-.664-.333-1.163-1.5-1.08-2.501 0-.5.25-.917.499-1.084a.7.7 0 0 1 .581 0h.084c1.661.917 7.227 3.752 7.393 3.919.333.166.582.25 1.163-.084l11.382-5.92c.166-.083.332-.25.332-.5 0-.333-.332-.5-.332-.5-.665-.333-1.662-.75-2.576-1.25-2.076-1-4.403-2.085-5.483-2.585-.913-.5-1.578-.083-1.744 0l-.25.083C87.65 2.66 81.42 5.745 81.087 5.911c-.664.417-.997 1.168-1.08 2.085-.083 1.5.665 3.085 1.828 3.668l6.73 3.502C88.728 16.25 89.643 17 90.64 17c1.163 0 2.16-.917 2.16-2.084l7.394-4.002c.415.333.831.417 1.329.417 1.163 0 2.16-1 2.16-2.168-.166-1-1.08-1.918-2.243-1.918M117.64 12.915a4.5 4.5 0 0 1-1.744 1.084 7.8 7.8 0 0 1-2.493.416c-1.412 0-2.575-.416-3.406-1.333-.83-.834-1.329-2.085-1.329-3.586V8.58c0-1.084.166-2 .582-2.751.415-.834.913-1.417 1.578-1.834a4.53 4.53 0 0 1 2.409-.667c1.33 0 2.41.333 3.157.917.748.584 1.163 1.5 1.329 2.751h-2.492c-.083-.583-.249-1-.581-1.25a2.04 2.04 0 0 0-1.247-.417c-.664 0-1.163.25-1.495.834-.332.583-.498 1.333-.581 2.334v.667c0 1.084.166 1.918.581 2.418.332.5.914.834 1.745.834.664 0 1.163-.167 1.495-.417V10.33h-1.828V8.58h4.403v4.335zM119.136 14.249h2.492V6.245h-2.492zm-.083-10.088c0-.334.166-.667.415-.918.249-.25.582-.333.997-.333s.748.083.997.333.415.5.415.918c0 .333-.166.667-.415.917s-.582.333-.997.333-.748-.083-.997-.333c-.332-.25-.415-.5-.415-.917M126.114 4.244v2h1.329v1.752h-1.329v3.668c0 .334.083.5.166.667.083.084.332.167.665.167.249 0 .415 0 .581-.083v1.75c-.415.167-.914.25-1.412.25-.831 0-1.496-.166-1.911-.583s-.582-1-.582-1.834V7.996h-.996V6.245h.996V4.244zM131.098 9.663v2.585h1.662c.498 0 .831-.084 1.08-.334s.415-.5.415-.917c0-.917-.415-1.334-1.329-1.334zm0-1.667h1.33c.581 0 .997-.084 1.246-.334.249-.167.332-.5.332-.917s-.166-.75-.415-1c-.25-.167-.665-.334-1.246-.334h-1.247zm-2.575 6.253V3.494h3.905c1.412 0 2.409.25 3.157.75.747.5 1.08 1.25 1.08 2.251 0 .584-.167 1-.416 1.417s-.664.667-1.163.834c.582.167.997.417 1.329.834.333.417.416.917.416 1.5 0 1.084-.333 1.835-.997 2.418-.665.5-1.662.834-2.991.834zM140.32 10.33c0 .75.083 1.25.332 1.668q.374.5.997.5c.914 0 1.329-.667 1.329-2.084v-.25c0-1.418-.498-2.168-1.412-2.168-.831 0-1.246.583-1.329 1.834zm-2.492-.167c0-.833.166-1.5.498-2.167.332-.584.748-1.084 1.329-1.418.582-.333 1.246-.5 2.077-.5 1.163 0 2.16.334 2.825 1.084q.996 1.125.997 3.001v.167c0 1.25-.333 2.251-1.08 3.002-.665.75-1.662 1.083-2.825 1.083q-1.745 0-2.741-1c-.665-.667-1.08-1.584-1.08-2.751zM148.877 10.33c0 .75.083 1.25.332 1.668q.375.5.997.5c.914 0 1.33-.667 1.33-2.084v-.25c0-1.418-.499-2.168-1.413-2.168-.831 0-1.246.583-1.329 1.834zm-2.492-.167c0-.833.166-1.5.498-2.167.333-.584.748-1.084 1.329-1.418.582-.333 1.247-.5 2.077-.5 1.163 0 2.16.334 2.825 1.084q.997 1.125.997 3.001v.167c0 1.25-.332 2.251-1.08 3.002-.665.75-1.662 1.083-2.825 1.083q-1.745 0-2.741-1c-.665-.667-1.08-1.584-1.08-2.751zM158.431 11.33l-.748.668v2.25h-2.492V2.91h2.492v6.003l.249-.334 1.911-2.334h2.991l-2.825 3.335L163 14.249h-2.825z"/></svg>