<svg xmlns="http://www.w3.org/2000/svg" width="41" height="34" fill="none"><path fill="#51BBFE" d="M40.042 4.595a16.4 16.4 0 0 1-4.713 1.292 8.22 8.22 0 0 0 3.608-4.54 16.4 16.4 0 0 1-5.212 1.991 8.2 8.2 0 0 0-5.99-2.591c-5.298 0-9.191 4.943-7.995 10.075-6.818-.342-12.865-3.609-16.913-8.574-2.15 3.689-1.115 8.514 2.538 10.957a8.2 8.2 0 0 1-3.715-1.027c-.09 3.802 2.635 7.359 6.582 8.15a8.2 8.2 0 0 1-3.707.14 8.21 8.21 0 0 0 7.667 5.699 16.5 16.5 0 0 1-12.15 3.4 23.23 23.23 0 0 0 12.58 3.686c15.237 0 23.845-12.868 23.325-24.41a16.7 16.7 0 0 0 4.095-4.248"/></svg>