<svg xmlns="http://www.w3.org/2000/svg" width="200" height="201" fill="none"><path fill="#42DFA6" fill-rule="evenodd" d="M100 200.724c55.226 0 100-44.742 100-99.929.141-55.328-44.774-100.07-100-100.07S0 45.466 0 100.653s44.774 100.07 100 100.07M61.3 58.17l37.429 37.402V60.146c0-.282 0-.706.14-.988.142-.282.283-.565.566-.847.282-.282.565-.423.847-.565.283-.14.707-.14.989-.14h42.373c.282 0 .706.14.989.14.282.142.564.283.847.565.282.282.424.565.565.847s.141.706.141.988v84.121c0 .424 0 .706-.141.988s-.283.565-.565.847c-.283.282-.565.423-.847.565s-.707.141-.989.141c-.424 0-.706 0-1.13-.141-.283-.142-.706-.283-.848-.565l-37.429-37.403v35.568c0 .282 0 .706-.141.988s-.283.565-.565.847c-.283.282-.565.423-.848.565-.282.141-.706.141-.988.141H59.322c-.283 0-.706-.141-.989-.141-.282-.142-.565-.283-.847-.565s-.424-.565-.565-.847-.141-.706-.141-.988v-42.06c0-.283 0-.424.14-.707V60.146c0-.565.142-.988.424-1.553.283-.423.707-.847 1.272-.988.423-.141.988-.282 1.553-.141.283.141.848.424 1.13.706" clip-rule="evenodd"/></svg>