<svg xmlns="http://www.w3.org/2000/svg" width="200" height="200" fill="none"><path fill="#FF0420" d="M100 197.5c53.848 0 97.5-43.652 97.5-97.5S153.848 2.5 100 2.5 2.5 46.152 2.5 100s43.652 97.5 97.5 97.5"/><path fill="#fff" d="M71.582 125.914q-8.708 0-14.27-4.098-5.487-4.171-5.488-11.855 0-1.61.366-3.952.952-5.268 2.708-12.66 4.977-20.123 25.685-20.123 5.635 0 10.1 1.902 4.463 1.83 7.024 5.562 2.562 3.659 2.562 8.781 0 1.536-.367 3.879a166 166 0 0 1-2.634 12.659q-2.56 10.026-8.855 15.002-6.293 4.903-16.83 4.903m1.025-10.538q4.099 0 6.952-2.415 2.927-2.414 4.171-7.391 1.683-6.879 2.561-12.001.293-1.537.293-3.147 0-6.66-6.952-6.66-4.098 0-7.025 2.415-2.854 2.416-4.098 7.392-1.317 4.903-2.635 12.001-.291 1.464-.292 3.073 0 6.733 7.025 6.733M103.628 125.182q-.804 0-1.244-.512-.366-.586-.219-1.318l10.098-47.566a2.1 2.1 0 0 1 .805-1.317q.659-.512 1.391-.512h19.465q8.123 0 13.026 3.366 4.976 3.367 4.976 9.733 0 1.83-.439 3.805-1.829 8.415-7.39 12.441-5.49 4.024-15.076 4.024h-9.878l-3.367 16.026a2.1 2.1 0 0 1-.805 1.318q-.658.512-1.39.512zm25.906-27.954q3.073 0 5.342-1.683 2.341-1.684 3.073-4.83.22-1.245.22-2.196 0-2.122-1.244-3.22-1.244-1.17-4.245-1.17h-8.781l-2.781 13.099z"/></svg>