<svg xmlns="http://www.w3.org/2000/svg" width="200" height="200" fill="none"><g clip-path="url(#a)"><mask id="b" width="200" height="200" x="0" y="0" maskUnits="userSpaceOnUse" style="mask-type:luminance"><path fill="#fff" d="M0 0h200v200H0z"/></mask><g fill="#8247E5" mask="url(#b)"><path d="M175.585 39.416 114.062 3.878a28.95 28.95 0 0 0-28.952 0L23.586 39.415a28.95 28.95 0 0 0-14.477 25.08v71.007a28.95 28.95 0 0 0 14.477 25.079l61.523 35.54a28.96 28.96 0 0 0 28.952 0l61.523-35.54a28.96 28.96 0 0 0 14.477-25.079V64.497a28.96 28.96 0 0 0-14.476-25.081m0 96.087a14.46 14.46 0 0 1-7.237 12.539l-61.524 35.503a14.29 14.29 0 0 1-14.476 0l-61.523-35.503a14.48 14.48 0 0 1-7.238-12.539V64.497a14.6 14.6 0 0 1 7.238-12.577l61.523-35.502a14.48 14.48 0 0 1 14.476 0l61.524 35.503a14.6 14.6 0 0 1 7.237 12.576z"/><path d="m155.681 92.347-23.524-13.573a10.96 10.96 0 0 0-10.857 0L72.444 107.02 52.539 95.511V72.514l19.906-11.508 19.902 11.508v12.379l14.476-8.416v-6.062a10.86 10.86 0 0 0-5.429-9.41l-23.523-13.48a10.97 10.97 0 0 0-10.857 0l-23.522 13.57a10.98 10.98 0 0 0-5.43 9.41v27.142a11 11 0 0 0 5.43 9.427l23.522 13.571a11.06 11.06 0 0 0 10.859 0l48.856-28.3 19.905 11.526v22.964l-19.905 11.508-19.904-11.508v-12.522l-14.477 8.36v6.279a10.86 10.86 0 0 0 5.43 9.354l23.522 13.608a10.74 10.74 0 0 0 5.429 1.466 10.54 10.54 0 0 0 5.428-1.466l23.524-13.571a10.86 10.86 0 0 0 5.429-9.391v-27.143a10.85 10.85 0 0 0-5.429-9.464z"/></g></g><defs><clipPath id="a"><path fill="#fff" d="M0 0h200v200H0z"/></clipPath></defs></svg>