<svg xmlns="http://www.w3.org/2000/svg" width="200" height="200" fill="none"><circle cx="100" cy="100" r="100" fill="#000"/><g clip-path="url(#a)"><path fill="url(#b)" d="m164.336 132.418-21.296 22.249a4.9 4.9 0 0 1-1.645 1.132 5.05 5.05 0 0 1-1.972.399H38.473c-.483 0-.954-.137-1.356-.394a2.43 2.43 0 0 1-.912-1.054 2.35 2.35 0 0 1-.17-1.369c.083-.462.301-.892.63-1.235l21.311-22.249a4.9 4.9 0 0 1 1.64-1.129c.62-.264 1.29-.4 1.967-.401h100.945c.481 0 .953.137 1.356.394.402.257.719.624.912 1.054a2.36 2.36 0 0 1-.46 2.603M143.04 87.615a4.95 4.95 0 0 0-1.645-1.132 5.1 5.1 0 0 0-1.972-.399H38.473c-.483 0-.954.137-1.356.395-.403.257-.72.623-.912 1.054-.192.43-.25.906-.17 1.368.083.463.301.892.63 1.235l21.311 22.249c.462.482 1.02.866 1.64 1.13s1.29.4 1.967.401h100.945c.481 0 .953-.137 1.356-.395.402-.257.719-.623.912-1.054.191-.43.25-.906.168-1.368a2.4 2.4 0 0 0-.628-1.235zM38.472 71.633h100.951c.678 0 1.35-.135 1.972-.398a4.95 4.95 0 0 0 1.645-1.132l21.296-22.25a2.4 2.4 0 0 0 .628-1.234 2.36 2.36 0 0 0-.168-1.369 2.44 2.44 0 0 0-.912-1.054 2.5 2.5 0 0 0-1.356-.394H61.583a5.1 5.1 0 0 0-1.966.4 4.95 4.95 0 0 0-1.64 1.13L36.67 67.583a2.4 2.4 0 0 0-.629 1.233c-.081.462-.023.937.168 1.368.192.43.508.796.91 1.054a2.5 2.5 0 0 0 1.353.396"/></g><defs><linearGradient id="b" x1="46.889" x2="149.665" y1="158.877" y2="39.95" gradientUnits="userSpaceOnUse"><stop offset=".08" stop-color="#9945FF"/><stop offset=".3" stop-color="#8752F3"/><stop offset=".5" stop-color="#5497D5"/><stop offset=".6" stop-color="#43B4CA"/><stop offset=".72" stop-color="#28E0B9"/><stop offset=".97" stop-color="#19FB9B"/></linearGradient><clipPath id="a"><path fill="#fff" d="M36 43.802h129v112.396H36z"/></clipPath></defs></svg>