<svg width="1440" height="240" viewBox="0 0 1440 240" fill="none" xmlns="http://www.w3.org/2000/svg">
<rect width="1440" height="240" fill="#29312F"/>
<mask id="mask0_2_73" style="mask-type:alpha" maskUnits="userSpaceOnUse" x="0" y="0" width="1440" height="240">
<rect width="1440" height="240" fill="url(#paint0_linear_2_73)"/>
</mask>
<g mask="url(#mask0_2_73)">
<g filter="url(#filter0_f_2_73)">
<path d="M813.344 243.782C813.344 354.97 482.848 445.105 75.1594 445.105C-332.529 445.105 -663.025 354.97 -663.025 243.782C-663.025 132.594 -332.529 42.459 75.1594 42.459C482.848 42.459 813.344 132.594 813.344 243.782Z" fill="#AEDB4C"/>
</g>
<g filter="url(#filter1_f_2_73)">
<path d="M720.065 222.66C720.065 333.847 389.569 423.983 -18.1194 423.983C-425.808 423.983 -756.304 333.847 -756.304 222.66C-756.304 111.472 -425.808 21.3365 -18.1194 21.3365C389.569 21.3365 720.065 111.472 720.065 222.66Z" fill="#C9F862"/>
</g>
<g filter="url(#filter2_f_2_73)">
<path d="M2154.05 -64.2772C2154.05 46.9105 1823.55 137.046 1415.86 137.046C1008.17 137.046 677.678 46.9105 677.678 -64.2772C677.678 -175.465 1008.17 -265.6 1415.86 -265.6C1823.55 -265.6 2154.05 -175.465 2154.05 -64.2772Z" fill="#A386CA"/>
</g>
<g filter="url(#filter3_f_2_73)">
<path d="M2323.47 236.468C2323.47 347.655 1992.97 437.791 1585.28 437.791C1177.59 437.791 847.097 347.655 847.097 236.468C847.097 125.28 1177.59 35.1447 1585.28 35.1447C1992.97 35.1447 2323.47 125.28 2323.47 236.468Z" fill="#43305E" fill-opacity="0.7"/>
</g>
<g filter="url(#filter4_f_2_73)">
<path d="M1459.89 304.58C1459.89 415.768 1129.39 505.903 721.701 505.903C314.013 505.903 -16.4839 415.768 -16.4839 304.58C-16.4839 193.393 314.013 103.257 721.701 103.257C1129.39 103.257 1459.89 193.393 1459.89 304.58Z" fill="#0B0F0A" fill-opacity="0.4"/>
</g>
<rect width="1440" height="240" fill="url(#paint1_linear_2_73)" fill-opacity="0.6"/>
</g>
<defs>
<filter id="filter0_f_2_73" x="-863.025" y="-157.541" width="1876.37" height="802.646" filterUnits="userSpaceOnUse" color-interpolation-filters="sRGB">
<feFlood flood-opacity="0" result="BackgroundImageFix"/>
<feBlend mode="normal" in="SourceGraphic" in2="BackgroundImageFix" result="shape"/>
<feGaussianBlur stdDeviation="100" result="effect1_foregroundBlur_2_73"/>
</filter>
<filter id="filter1_f_2_73" x="-956.304" y="-178.663" width="1876.37" height="802.646" filterUnits="userSpaceOnUse" color-interpolation-filters="sRGB">
<feFlood flood-opacity="0" result="BackgroundImageFix"/>
<feBlend mode="normal" in="SourceGraphic" in2="BackgroundImageFix" result="shape"/>
<feGaussianBlur stdDeviation="100" result="effect1_foregroundBlur_2_73"/>
</filter>
<filter id="filter2_f_2_73" x="477.678" y="-465.6" width="1876.37" height="802.646" filterUnits="userSpaceOnUse" color-interpolation-filters="sRGB">
<feFlood flood-opacity="0" result="BackgroundImageFix"/>
<feBlend mode="normal" in="SourceGraphic" in2="BackgroundImageFix" result="shape"/>
<feGaussianBlur stdDeviation="100" result="effect1_foregroundBlur_2_73"/>
</filter>
<filter id="filter3_f_2_73" x="757.097" y="-54.8553" width="1656.37" height="582.646" filterUnits="userSpaceOnUse" color-interpolation-filters="sRGB">
<feFlood flood-opacity="0" result="BackgroundImageFix"/>
<feBlend mode="normal" in="SourceGraphic" in2="BackgroundImageFix" result="shape"/>
<feGaussianBlur stdDeviation="45" result="effect1_foregroundBlur_2_73"/>
</filter>
<filter id="filter4_f_2_73" x="-106.484" y="13.2572" width="1656.37" height="582.646" filterUnits="userSpaceOnUse" color-interpolation-filters="sRGB">
<feFlood flood-opacity="0" result="BackgroundImageFix"/>
<feBlend mode="normal" in="SourceGraphic" in2="BackgroundImageFix" result="shape"/>
<feGaussianBlur stdDeviation="45" result="effect1_foregroundBlur_2_73"/>
</filter>
<linearGradient id="paint0_linear_2_73" x1="-1.21072e-07" y1="130" x2="1440" y2="130" gradientUnits="userSpaceOnUse">
<stop stop-opacity="0"/>
<stop offset="0.5"/>
<stop offset="1" stop-opacity="0.0188679"/>
</linearGradient>
<linearGradient id="paint1_linear_2_73" x1="-9.38773e-06" y1="120" x2="1440" y2="120" gradientUnits="userSpaceOnUse">
<stop stop-opacity="0"/>
<stop offset="0.5"/>
<stop offset="1" stop-opacity="0"/>
</linearGradient>
</defs>
</svg>
