<svg xmlns="http://www.w3.org/2000/svg" width="2000" height="330" fill="none"><path fill="url(#a)" d="M0 0h2000v330H0z"/><path fill="url(#b)" d="m0 94.286 403.112 58.668a500 500 0 0 0 210.666-14.397l265.982-76.77a500 500 0 0 1 242.65-8.675l260.43 55.379a500 500 0 0 0 232.89-5.965L2000 0v330H0z" style="mix-blend-mode:soft-light"/><path stroke="#fff" stroke-opacity=".06" d="M1615.86 103.009 1999.5.651V329.5H.5V94.864l402.54 58.585a500.5 500.5 0 0 0 210.877-14.411l265.981-76.77A499.5 499.5 0 0 1 1122.31 53.6l260.43 55.379a500.5 500.5 0 0 0 233.12-5.971Z"/><path fill="url(#c)" fill-opacity=".9" d="m0 96.292 382.356 82.719a500 500 0 0 0 252.488-10.719l237.791-73.014a500 500 0 0 1 257.305-9.653l232.53 52.713a500 500 0 0 0 271.08-14.101L2000 0v330H0z" style="mix-blend-mode:soft-light"/><path stroke="#fff" stroke-opacity=".06" d="M1633.71 124.71 1999.5.697V329.5H.5V96.911L382.25 179.5a500.5 500.5 0 0 0 252.741-10.73l237.791-73.014a499.5 499.5 0 0 1 257.048-9.643l232.53 52.713a500.5 500.5 0 0 0 271.35-14.116Z"/><path fill="url(#d)" fill-opacity=".7" d="m0 103.313 361.871 99.639a500 500 0 0 0 293.601-8.646l204.506-69.492a500 500 0 0 1 283.402-11.339l197.51 49.924a500 500 0 0 0 311.11-21.68L2000 0v330H0z" style="mix-blend-mode:soft-light"/><path stroke="#fff" stroke-opacity=".06" d="M1652.19 142.182 1999.5.743V329.5H.5V103.969l361.238 99.465a500.5 500.5 0 0 0 293.895-8.654l204.506-69.492a499.5 499.5 0 0 1 283.111-11.329l197.52 49.925a500.5 500.5 0 0 0 311.42-21.702Z"/><path fill="url(#e)" fill-opacity=".7" d="m0 107.325 360.375 114.111a500 500 0 0 0 299.485.75l200.302-62.323a500 500 0 0 1 281.048-4.7l172.38 47.375a500.01 500.01 0 0 0 358.8-36.262L2000 0v330H0z"/><path stroke="#fff" stroke-opacity=".06" d="M1672.61 166.722 1999.5.814V329.5H.5V108.008l359.724 113.905a500.5 500.5 0 0 0 299.785.75l200.302-62.323a499.5 499.5 0 0 1 280.769-4.695l172.38 47.375a500.49 500.49 0 0 0 359.15-36.298Z"/><path fill="url(#f)" fill-opacity=".4" d="m0 123.374 359.679 127.331a500 500 0 0 0 303.696 9.575l201.158-57.236a500 500 0 0 1 271.137-.715l161.03 44.903a500 500 0 0 0 385.73-49.442L2000 13.04V330H0z"/><path stroke="#fff" stroke-opacity=".05" d="M1682.68 198.223 1999.5 13.909V329.5H.5V124.081l359.012 127.095a500.5 500.5 0 0 0 304 9.585l201.158-57.236a499.47 499.47 0 0 1 270.86-.714l161.04 44.903a500.5 500.5 0 0 0 386.11-49.491Z"/><defs><linearGradient id="a" x1="2062" x2="1877.83" y1="-147.604" y2="494.599" gradientUnits="userSpaceOnUse"><stop stop-color="#232E3E"/><stop offset=".609" stop-color="#3B0063"/><stop offset="1" stop-color="#111827"/></linearGradient><linearGradient id="b" x1="1985" x2="1806.97" y1="-43.131" y2="553.893" gradientUnits="userSpaceOnUse"><stop stop-color="#FFD500"/><stop offset=".633" stop-color="#974F73"/><stop offset="1" stop-color="#F0F"/></linearGradient><linearGradient id="c" x1="1962" x2="1700.71" y1="16.733" y2="934.171" gradientUnits="userSpaceOnUse"><stop stop-color="#FFD500"/><stop offset="1" stop-color="#F0F"/></linearGradient><linearGradient id="d" x1="1000" x2="836.186" y1="24.754" y2="647.788" gradientUnits="userSpaceOnUse"><stop stop-color="#FFD500"/><stop offset="1" stop-color="#F0F"/></linearGradient><linearGradient id="e" x1="1949" x2="1690.31" y1="273" y2="845.194" gradientUnits="userSpaceOnUse"><stop stop-color="#FFD500"/><stop offset=".424" stop-color="#FD8541"/><stop offset="1" stop-color="#810681"/></linearGradient><linearGradient id="f" x1="2013" x2="1806.84" y1="245" y2="809.214" gradientUnits="userSpaceOnUse"><stop stop-color="#FCD34D"/><stop offset=".499" stop-color="#E00"/><stop offset=".733" stop-color="#E10017"/><stop offset="1" stop-color="#21003C"/></linearGradient></defs></svg>