<svg width="1728" height="210" viewBox="0 0 1728 210" fill="none" xmlns="http://www.w3.org/2000/svg">
<path d="M965.438 19.1704V22.1785C960.96 19.3853 955.644 17.7619 949.969 17.7619C941.779 17.7619 934.379 21.1042 929.063 26.4996L898.316 57.7262C895.514 60.591 891.587 62.3338 887.276 62.3338C878.727 62.3338 871.807 55.4343 871.807 46.9115C871.807 38.3886 878.751 31.4892 887.276 31.4892C891.611 31.4892 895.514 33.2558 898.316 36.0968L903.991 41.8742L913.642 32.0622L908.158 26.4996C902.842 21.1042 895.442 17.7619 887.252 17.7619C881.577 17.7619 876.285 19.3853 871.783 22.1785V0H856.601V74.7003H871.783V71.6922C876.285 74.4854 881.601 76.1327 887.252 76.1327C895.442 76.1327 902.842 72.7665 908.158 67.395L938.905 36.0968C941.707 33.232 945.634 31.4892 949.945 31.4892C958.494 31.4892 965.414 38.3886 965.414 46.9115C965.414 55.4343 958.494 62.3577 949.945 62.3577C945.61 62.3577 941.707 60.5672 938.905 57.7262L933.254 51.9727L923.604 61.7847L929.063 67.3472C934.379 72.7426 941.779 76.0849 949.969 76.0849C955.644 76.0849 960.96 74.4615 965.438 71.6445V74.6525H980.644V19.1704H965.438Z" fill="url(#paint0_linear_1598_1218)"/>
<path d="M965.438 63.7929V66.801C960.96 64.0078 955.644 62.3844 949.969 62.3844C941.779 62.3844 934.379 65.7267 929.063 71.1221L898.316 102.349C895.514 105.214 891.587 106.956 887.276 106.956C878.727 106.956 871.807 100.057 871.807 91.534C871.807 83.0111 878.751 76.1117 887.276 76.1117C891.611 76.1117 895.514 77.8783 898.316 80.7193L903.991 86.4967L913.642 76.6846L908.158 71.1221C902.842 65.7267 895.442 62.3844 887.253 62.3844C881.577 62.3844 876.285 64.0078 871.783 66.801V44.6225H856.601V119.323H871.783V116.315C876.285 119.108 881.601 120.755 887.253 120.755C895.442 120.755 902.842 117.389 908.158 112.017L938.905 80.7193C941.707 77.8544 945.634 76.1117 949.945 76.1117C958.494 76.1117 965.414 83.0111 965.414 91.534C965.414 100.057 958.494 106.98 949.945 106.98C945.61 106.98 941.707 105.19 938.905 102.349L933.254 96.5951L923.604 106.407L929.063 111.97C934.379 117.365 941.779 120.707 949.969 120.707C955.644 120.707 960.96 119.084 965.438 116.267V119.275H980.644V63.7929H965.438Z" fill="url(#paint1_linear_1598_1218)"/>
<path d="M965.438 108.415V111.423C960.96 108.63 955.644 107.007 949.969 107.007C941.779 107.007 934.379 110.349 929.063 115.744L898.316 146.971C895.514 149.836 891.587 151.579 887.276 151.579C878.727 151.579 871.807 144.679 871.807 136.156C871.807 127.633 878.751 120.734 887.276 120.734C891.611 120.734 895.514 122.501 898.316 125.342L903.991 131.119L913.642 121.307L908.158 115.744C902.842 110.349 895.442 107.007 887.253 107.007C881.577 107.007 876.285 108.63 871.783 111.423V89.2448H856.601V163.945H871.783V160.937C876.285 163.73 881.601 165.378 887.253 165.378C895.442 165.378 902.842 162.011 908.158 156.64L938.905 125.342C941.707 122.477 945.634 120.734 949.945 120.734C958.494 120.734 965.414 127.633 965.414 136.156C965.414 144.679 958.494 151.602 949.945 151.602C945.61 151.602 941.707 149.812 938.905 146.971L933.254 141.217L923.604 151.03L929.063 156.592C934.379 161.987 941.779 165.33 949.969 165.33C955.644 165.33 960.96 163.706 965.438 160.889V163.897H980.644V108.415H965.438Z" fill="url(#paint2_linear_1598_1218)"/>
<path d="M965.438 153.038V156.046C960.96 153.253 955.644 151.629 949.969 151.629C941.779 151.629 934.379 154.972 929.063 160.367L898.316 191.594C895.514 194.458 891.587 196.201 887.276 196.201C878.727 196.201 871.807 189.302 871.807 180.779C871.807 172.256 878.751 165.357 887.276 165.357C891.611 165.357 895.514 167.123 898.316 169.964L903.991 175.741L913.642 165.929L908.158 160.367C902.842 154.972 895.442 151.629 887.253 151.629C881.577 151.629 876.285 153.253 871.783 156.046V133.867H856.601V208.568H871.783V205.56C876.285 208.353 881.601 210 887.253 210C895.442 210 902.842 206.634 908.158 201.262L938.905 169.964C941.707 167.099 945.634 165.357 949.945 165.357C958.494 165.357 965.414 172.256 965.414 180.779C965.414 189.302 958.494 196.225 949.945 196.225C945.61 196.225 941.707 194.434 938.905 191.594L933.254 185.84L923.604 195.652L929.063 201.215C934.379 206.61 941.779 209.952 949.969 209.952C955.644 209.952 960.96 208.329 965.438 205.512V208.52H980.644V153.038H965.438Z" fill="url(#paint3_linear_1598_1218)"/>
<path d="M1075.01 19.1704V22.1785C1070.54 19.3853 1065.22 17.7619 1059.54 17.7619C1051.35 17.7619 1043.95 21.1042 1038.64 26.4996L1007.89 57.7262C1005.09 60.591 1001.16 62.3338 996.851 62.3338C988.302 62.3338 981.382 55.4343 981.382 46.9115C981.382 38.3886 988.326 31.4892 996.851 31.4892C1001.19 31.4892 1005.09 33.2558 1007.89 36.0968L1013.57 41.8742L1023.22 32.0622L1017.73 26.4996C1012.42 21.1042 1005.02 17.7619 996.827 17.7619C991.152 17.7619 985.86 19.3853 981.358 22.1785V0H966.176V74.7003H981.358V71.6922C985.86 74.4854 991.176 76.1327 996.827 76.1327C1005.02 76.1327 1012.42 72.7665 1017.73 67.395L1048.48 36.0968C1051.28 33.232 1055.21 31.4892 1059.52 31.4892C1068.07 31.4892 1074.99 38.3886 1074.99 46.9115C1074.99 55.4343 1068.07 62.3577 1059.52 62.3577C1055.19 62.3577 1051.28 60.5672 1048.48 57.7262L1042.83 51.9727L1033.18 61.7847L1038.64 67.3472C1043.95 72.7426 1051.35 76.0849 1059.54 76.0849C1065.22 76.0849 1070.54 74.4615 1075.01 71.6445V74.6525H1090.22V19.1704H1075.01Z" fill="url(#paint4_linear_1598_1218)"/>
<path d="M1075.01 63.7929V66.801C1070.54 64.0078 1065.22 62.3844 1059.54 62.3844C1051.35 62.3844 1043.95 65.7267 1038.64 71.1221L1007.89 102.349C1005.09 105.214 1001.16 106.956 996.851 106.956C988.302 106.956 981.382 100.057 981.382 91.534C981.382 83.0111 988.326 76.1117 996.851 76.1117C1001.19 76.1117 1005.09 77.8783 1007.89 80.7193L1013.57 86.4967L1023.22 76.6846L1017.73 71.1221C1012.42 65.7267 1005.02 62.3844 996.827 62.3844C991.152 62.3844 985.86 64.0078 981.358 66.801V44.6225H966.176V119.323H981.358V116.315C985.86 119.108 991.176 120.755 996.827 120.755C1005.02 120.755 1012.42 117.389 1017.73 112.017L1048.48 80.7193C1051.28 77.8544 1055.21 76.1117 1059.52 76.1117C1068.07 76.1117 1074.99 83.0111 1074.99 91.534C1074.99 100.057 1068.07 106.98 1059.52 106.98C1055.19 106.98 1051.28 105.19 1048.48 102.349L1042.83 96.5951L1033.18 106.407L1038.64 111.97C1043.95 117.365 1051.35 120.707 1059.54 120.707C1065.22 120.707 1070.54 119.084 1075.01 116.267V119.275H1090.22V63.7929H1075.01Z" fill="url(#paint5_linear_1598_1218)"/>
<path d="M1075.01 108.415V111.423C1070.54 108.63 1065.22 107.007 1059.54 107.007C1051.35 107.007 1043.95 110.349 1038.64 115.744L1007.89 146.971C1005.09 149.836 1001.16 151.579 996.851 151.579C988.302 151.579 981.382 144.679 981.382 136.156C981.382 127.633 988.326 120.734 996.851 120.734C1001.19 120.734 1005.09 122.501 1007.89 125.342L1013.57 131.119L1023.22 121.307L1017.73 115.744C1012.42 110.349 1005.02 107.007 996.827 107.007C991.152 107.007 985.86 108.63 981.358 111.423V89.2448H966.176V163.945H981.358V160.937C985.86 163.73 991.176 165.378 996.827 165.378C1005.02 165.378 1012.42 162.011 1017.73 156.64L1048.48 125.342C1051.28 122.477 1055.21 120.734 1059.52 120.734C1068.07 120.734 1074.99 127.633 1074.99 136.156C1074.99 144.679 1068.07 151.602 1059.52 151.602C1055.19 151.602 1051.28 149.812 1048.48 146.971L1042.83 141.217L1033.18 151.03L1038.64 156.592C1043.95 161.987 1051.35 165.33 1059.54 165.33C1065.22 165.33 1070.54 163.706 1075.01 160.889V163.897H1090.22V108.415H1075.01Z" fill="url(#paint6_linear_1598_1218)"/>
<path d="M1075.01 153.038V156.046C1070.54 153.253 1065.22 151.629 1059.54 151.629C1051.35 151.629 1043.95 154.972 1038.64 160.367L1007.89 191.594C1005.09 194.458 1001.16 196.201 996.851 196.201C988.302 196.201 981.382 189.302 981.382 180.779C981.382 172.256 988.326 165.357 996.851 165.357C1001.19 165.357 1005.09 167.123 1007.89 169.964L1013.57 175.741L1023.22 165.929L1017.73 160.367C1012.42 154.972 1005.02 151.629 996.827 151.629C991.152 151.629 985.86 153.253 981.358 156.046V133.867H966.176V208.568H981.358V205.56C985.86 208.353 991.176 210 996.827 210C1005.02 210 1012.42 206.634 1017.73 201.262L1048.48 169.964C1051.28 167.099 1055.21 165.357 1059.52 165.357C1068.07 165.357 1074.99 172.256 1074.99 180.779C1074.99 189.302 1068.07 196.225 1059.52 196.225C1055.19 196.225 1051.28 194.434 1048.48 191.594L1042.83 185.84L1033.18 195.652L1038.64 201.215C1043.95 206.61 1051.35 209.952 1059.54 209.952C1065.22 209.952 1070.54 208.329 1075.01 205.512V208.52H1090.22V153.038H1075.01Z" fill="url(#paint7_linear_1598_1218)"/>
<path d="M1184.59 19.1704V22.1785C1180.11 19.3853 1174.79 17.7619 1169.12 17.7619C1160.93 17.7619 1153.53 21.1042 1148.21 26.4996L1117.47 57.7262C1114.66 60.591 1110.74 62.3338 1106.43 62.3338C1097.88 62.3338 1090.96 55.4343 1090.96 46.9115C1090.96 38.3886 1097.9 31.4892 1106.43 31.4892C1110.76 31.4892 1114.66 33.2558 1117.47 36.0968L1123.14 41.8742L1132.79 32.0622L1127.31 26.4996C1121.99 21.1042 1114.59 17.7619 1106.4 17.7619C1100.73 17.7619 1095.43 19.3853 1090.93 22.1785V0H1075.75V74.7003H1090.93V71.6922C1095.43 74.4854 1100.75 76.1327 1106.4 76.1327C1114.59 76.1327 1121.99 72.7665 1127.31 67.395L1158.06 36.0968C1160.86 33.232 1164.78 31.4892 1169.09 31.4892C1177.64 31.4892 1184.56 38.3886 1184.56 46.9115C1184.56 55.4343 1177.64 62.3577 1169.09 62.3577C1164.76 62.3577 1160.86 60.5672 1158.06 57.7262L1152.4 51.9727L1142.75 61.7847L1148.21 67.3472C1153.53 72.7426 1160.93 76.0849 1169.12 76.0849C1174.79 76.0849 1180.11 74.4615 1184.59 71.6445V74.6525H1199.79V19.1704H1184.59Z" fill="url(#paint8_linear_1598_1218)"/>
<path d="M1184.59 63.7929V66.801C1180.11 64.0078 1174.79 62.3844 1169.12 62.3844C1160.93 62.3844 1153.53 65.7267 1148.21 71.1221L1117.47 102.349C1114.66 105.214 1110.74 106.956 1106.43 106.956C1097.88 106.956 1090.96 100.057 1090.96 91.534C1090.96 83.0111 1097.9 76.1117 1106.43 76.1117C1110.76 76.1117 1114.66 77.8783 1117.47 80.7193L1123.14 86.4967L1132.79 76.6846L1127.31 71.1221C1121.99 65.7267 1114.59 62.3844 1106.4 62.3844C1100.73 62.3844 1095.43 64.0078 1090.93 66.801V44.6225H1075.75V119.323H1090.93V116.315C1095.43 119.108 1100.75 120.755 1106.4 120.755C1114.59 120.755 1121.99 117.389 1127.31 112.017L1158.06 80.7193C1160.86 77.8544 1164.78 76.1117 1169.09 76.1117C1177.64 76.1117 1184.56 83.0111 1184.56 91.534C1184.56 100.057 1177.64 106.98 1169.09 106.98C1164.76 106.98 1160.86 105.19 1158.06 102.349L1152.4 96.5951L1142.75 106.407L1148.21 111.97C1153.53 117.365 1160.93 120.707 1169.12 120.707C1174.79 120.707 1180.11 119.084 1184.59 116.267V119.275H1199.79V63.7929H1184.59Z" fill="url(#paint9_linear_1598_1218)"/>
<path d="M1184.59 108.415V111.423C1180.11 108.63 1174.79 107.007 1169.12 107.007C1160.93 107.007 1153.53 110.349 1148.21 115.744L1117.47 146.971C1114.66 149.836 1110.74 151.579 1106.43 151.579C1097.88 151.579 1090.96 144.679 1090.96 136.156C1090.96 127.633 1097.9 120.734 1106.43 120.734C1110.76 120.734 1114.66 122.501 1117.47 125.342L1123.14 131.119L1132.79 121.307L1127.31 115.744C1121.99 110.349 1114.59 107.007 1106.4 107.007C1100.73 107.007 1095.43 108.63 1090.93 111.423V89.2448H1075.75V163.945H1090.93V160.937C1095.43 163.73 1100.75 165.378 1106.4 165.378C1114.59 165.378 1121.99 162.011 1127.31 156.64L1158.06 125.342C1160.86 122.477 1164.78 120.734 1169.09 120.734C1177.64 120.734 1184.56 127.633 1184.56 136.156C1184.56 144.679 1177.64 151.602 1169.09 151.602C1164.76 151.602 1160.86 149.812 1158.06 146.971L1152.4 141.217L1142.75 151.03L1148.21 156.592C1153.53 161.987 1160.93 165.33 1169.12 165.33C1174.79 165.33 1180.11 163.706 1184.59 160.889V163.897H1199.79V108.415H1184.59Z" fill="url(#paint10_linear_1598_1218)"/>
<path d="M1184.59 153.038V156.046C1180.11 153.253 1174.79 151.629 1169.12 151.629C1160.93 151.629 1153.53 154.972 1148.21 160.367L1117.47 191.594C1114.66 194.458 1110.74 196.201 1106.43 196.201C1097.88 196.201 1090.96 189.302 1090.96 180.779C1090.96 172.256 1097.9 165.357 1106.43 165.357C1110.76 165.357 1114.66 167.123 1117.47 169.964L1123.14 175.741L1132.79 165.929L1127.31 160.367C1121.99 154.972 1114.59 151.629 1106.4 151.629C1100.73 151.629 1095.43 153.253 1090.93 156.046V133.867H1075.75V208.568H1090.93V205.56C1095.43 208.353 1100.75 210 1106.4 210C1114.59 210 1121.99 206.634 1127.31 201.262L1158.06 169.964C1160.86 167.099 1164.78 165.357 1169.09 165.357C1177.64 165.357 1184.56 172.256 1184.56 180.779C1184.56 189.302 1177.64 196.225 1169.09 196.225C1164.76 196.225 1160.86 194.434 1158.06 191.594L1152.4 185.84L1142.75 195.652L1148.21 201.215C1153.53 206.61 1160.93 209.952 1169.12 209.952C1174.79 209.952 1180.11 208.329 1184.59 205.512V208.52H1199.79V153.038H1184.59Z" fill="url(#paint11_linear_1598_1218)"/>
<path d="M1294.16 19.1704V22.1785C1289.69 19.3853 1284.37 17.7619 1278.69 17.7619C1270.5 17.7619 1263.1 21.1042 1257.79 26.4996L1227.04 57.7262C1224.24 60.591 1220.31 62.3338 1216 62.3338C1207.45 62.3338 1200.53 55.4343 1200.53 46.9115C1200.53 38.3886 1207.48 31.4892 1216 31.4892C1220.34 31.4892 1224.24 33.2558 1227.04 36.0968L1232.72 41.8742L1242.37 32.0622L1236.88 26.4996C1231.57 21.1042 1224.17 17.7619 1215.98 17.7619C1210.3 17.7619 1205.01 19.3853 1200.51 22.1785V0H1185.33V74.7003H1200.51V71.6922C1205.01 74.4854 1210.33 76.1327 1215.98 76.1327C1224.17 76.1327 1231.57 72.7665 1236.88 67.395L1267.63 36.0968C1270.43 33.232 1274.36 31.4892 1278.67 31.4892C1287.22 31.4892 1294.14 38.3886 1294.14 46.9115C1294.14 55.4343 1287.22 62.3577 1278.67 62.3577C1274.34 62.3577 1270.43 60.5672 1267.63 57.7262L1261.98 51.9727L1252.33 61.7847L1257.79 67.3472C1263.1 72.7426 1270.5 76.0849 1278.69 76.0849C1284.37 76.0849 1289.69 74.4615 1294.16 71.6445V74.6525H1309.37V19.1704H1294.16Z" fill="url(#paint12_linear_1598_1218)"/>
<path d="M1294.16 63.7929V66.801C1289.69 64.0078 1284.37 62.3844 1278.69 62.3844C1270.5 62.3844 1263.1 65.7267 1257.79 71.1221L1227.04 102.349C1224.24 105.214 1220.31 106.956 1216 106.956C1207.45 106.956 1200.53 100.057 1200.53 91.534C1200.53 83.0111 1207.48 76.1117 1216 76.1117C1220.34 76.1117 1224.24 77.8783 1227.04 80.7193L1232.72 86.4967L1242.37 76.6846L1236.88 71.1221C1231.57 65.7267 1224.17 62.3844 1215.98 62.3844C1210.3 62.3844 1205.01 64.0078 1200.51 66.801V44.6225H1185.33V119.323H1200.51V116.315C1205.01 119.108 1210.33 120.755 1215.98 120.755C1224.17 120.755 1231.57 117.389 1236.88 112.017L1267.63 80.7193C1270.43 77.8544 1274.36 76.1117 1278.67 76.1117C1287.22 76.1117 1294.14 83.0111 1294.14 91.534C1294.14 100.057 1287.22 106.98 1278.67 106.98C1274.34 106.98 1270.43 105.19 1267.63 102.349L1261.98 96.5951L1252.33 106.407L1257.79 111.97C1263.1 117.365 1270.5 120.707 1278.69 120.707C1284.37 120.707 1289.69 119.084 1294.16 116.267V119.275H1309.37V63.7929H1294.16Z" fill="url(#paint13_linear_1598_1218)"/>
<path d="M1294.16 108.415V111.423C1289.69 108.63 1284.37 107.007 1278.69 107.007C1270.5 107.007 1263.1 110.349 1257.79 115.744L1227.04 146.971C1224.24 149.836 1220.31 151.579 1216 151.579C1207.45 151.579 1200.53 144.679 1200.53 136.156C1200.53 127.633 1207.48 120.734 1216 120.734C1220.34 120.734 1224.24 122.501 1227.04 125.342L1232.72 131.119L1242.37 121.307L1236.88 115.744C1231.57 110.349 1224.17 107.007 1215.98 107.007C1210.3 107.007 1205.01 108.63 1200.51 111.423V89.2448H1185.33V163.945H1200.51V160.937C1205.01 163.73 1210.33 165.378 1215.98 165.378C1224.17 165.378 1231.57 162.011 1236.88 156.64L1267.63 125.342C1270.43 122.477 1274.36 120.734 1278.67 120.734C1287.22 120.734 1294.14 127.633 1294.14 136.156C1294.14 144.679 1287.22 151.602 1278.67 151.602C1274.34 151.602 1270.43 149.812 1267.63 146.971L1261.98 141.217L1252.33 151.03L1257.79 156.592C1263.1 161.987 1270.5 165.33 1278.69 165.33C1284.37 165.33 1289.69 163.706 1294.16 160.889V163.897H1309.37V108.415H1294.16Z" fill="url(#paint14_linear_1598_1218)"/>
<path d="M1294.16 153.038V156.046C1289.69 153.253 1284.37 151.629 1278.69 151.629C1270.5 151.629 1263.1 154.972 1257.79 160.367L1227.04 191.594C1224.24 194.458 1220.31 196.201 1216 196.201C1207.45 196.201 1200.53 189.302 1200.53 180.779C1200.53 172.256 1207.48 165.357 1216 165.357C1220.34 165.357 1224.24 167.123 1227.04 169.964L1232.72 175.741L1242.37 165.929L1236.88 160.367C1231.57 154.972 1224.17 151.629 1215.98 151.629C1210.3 151.629 1205.01 153.253 1200.51 156.046V133.867H1185.33V208.568H1200.51V205.56C1205.01 208.353 1210.33 210 1215.98 210C1224.17 210 1231.57 206.634 1236.88 201.262L1267.63 169.964C1270.43 167.099 1274.36 165.357 1278.67 165.357C1287.22 165.357 1294.14 172.256 1294.14 180.779C1294.14 189.302 1287.22 196.225 1278.67 196.225C1274.34 196.225 1270.43 194.434 1267.63 191.594L1261.98 185.84L1252.33 195.652L1257.79 201.215C1263.1 206.61 1270.5 209.952 1278.69 209.952C1284.37 209.952 1289.69 208.329 1294.16 205.512V208.52H1309.37V153.038H1294.16Z" fill="url(#paint15_linear_1598_1218)"/>
<path d="M1403.74 19.1704V22.1785C1399.26 19.3853 1393.94 17.7619 1388.27 17.7619C1380.08 17.7619 1372.68 21.1042 1367.36 26.4996L1336.62 57.7262C1333.81 60.591 1329.89 62.3338 1325.58 62.3338C1317.03 62.3338 1310.11 55.4343 1310.11 46.9115C1310.11 38.3886 1317.05 31.4892 1325.58 31.4892C1329.91 31.4892 1333.81 33.2558 1336.62 36.0968L1342.29 41.8742L1351.94 32.0622L1346.46 26.4996C1341.14 21.1042 1333.74 17.7619 1325.55 17.7619C1319.88 17.7619 1314.59 19.3853 1310.08 22.1785V0H1294.9V74.7003H1310.08V71.6922C1314.59 74.4854 1319.9 76.1327 1325.55 76.1327C1333.74 76.1327 1341.14 72.7665 1346.46 67.395L1377.21 36.0968C1380.01 33.232 1383.93 31.4892 1388.24 31.4892C1396.79 31.4892 1403.71 38.3886 1403.71 46.9115C1403.71 55.4343 1396.79 62.3577 1388.24 62.3577C1383.91 62.3577 1380.01 60.5672 1377.21 57.7262L1371.55 51.9727L1361.9 61.7847L1367.36 67.3472C1372.68 72.7426 1380.08 76.0849 1388.27 76.0849C1393.94 76.0849 1399.26 74.4615 1403.74 71.6445V74.6525H1418.94V19.1704H1403.74Z" fill="url(#paint16_linear_1598_1218)"/>
<path d="M1403.74 63.7929V66.801C1399.26 64.0078 1393.94 62.3844 1388.27 62.3844C1380.08 62.3844 1372.68 65.7267 1367.36 71.1221L1336.62 102.349C1333.81 105.214 1329.89 106.956 1325.58 106.956C1317.03 106.956 1310.11 100.057 1310.11 91.534C1310.11 83.0111 1317.05 76.1117 1325.58 76.1117C1329.91 76.1117 1333.81 77.8783 1336.62 80.7193L1342.29 86.4967L1351.94 76.6846L1346.46 71.1221C1341.14 65.7267 1333.74 62.3844 1325.55 62.3844C1319.88 62.3844 1314.59 64.0078 1310.08 66.801V44.6225H1294.9V119.323H1310.08V116.315C1314.59 119.108 1319.9 120.755 1325.55 120.755C1333.74 120.755 1341.14 117.389 1346.46 112.017L1377.21 80.7193C1380.01 77.8544 1383.93 76.1117 1388.25 76.1117C1396.79 76.1117 1403.71 83.0111 1403.71 91.534C1403.71 100.057 1396.79 106.98 1388.25 106.98C1383.91 106.98 1380.01 105.19 1377.21 102.349L1371.55 96.5951L1361.9 106.407L1367.36 111.97C1372.68 117.365 1380.08 120.707 1388.27 120.707C1393.94 120.707 1399.26 119.084 1403.74 116.267V119.275H1418.94V63.7929H1403.74Z" fill="url(#paint17_linear_1598_1218)"/>
<path d="M1403.74 108.415V111.423C1399.26 108.63 1393.94 107.007 1388.27 107.007C1380.08 107.007 1372.68 110.349 1367.36 115.744L1336.62 146.971C1333.81 149.836 1329.89 151.579 1325.58 151.579C1317.03 151.579 1310.11 144.679 1310.11 136.156C1310.11 127.633 1317.05 120.734 1325.58 120.734C1329.91 120.734 1333.81 122.501 1336.62 125.342L1342.29 131.119L1351.94 121.307L1346.46 115.744C1341.14 110.349 1333.74 107.007 1325.55 107.007C1319.88 107.007 1314.59 108.63 1310.08 111.423V89.2448H1294.9V163.945H1310.08V160.937C1314.59 163.73 1319.9 165.378 1325.55 165.378C1333.74 165.378 1341.14 162.011 1346.46 156.64L1377.21 125.342C1380.01 122.477 1383.93 120.734 1388.25 120.734C1396.79 120.734 1403.71 127.633 1403.71 136.156C1403.71 144.679 1396.79 151.602 1388.25 151.602C1383.91 151.602 1380.01 149.812 1377.21 146.971L1371.55 141.217L1361.9 151.03L1367.36 156.592C1372.68 161.987 1380.08 165.33 1388.27 165.33C1393.94 165.33 1399.26 163.706 1403.74 160.889V163.897H1418.94V108.415H1403.74Z" fill="url(#paint18_linear_1598_1218)"/>
<path d="M1403.74 153.038V156.046C1399.26 153.253 1393.94 151.629 1388.27 151.629C1380.08 151.629 1372.68 154.972 1367.36 160.367L1336.62 191.594C1333.81 194.458 1329.89 196.201 1325.58 196.201C1317.03 196.201 1310.11 189.302 1310.11 180.779C1310.11 172.256 1317.05 165.357 1325.58 165.357C1329.91 165.357 1333.81 167.123 1336.62 169.964L1342.29 175.741L1351.94 165.929L1346.46 160.367C1341.14 154.972 1333.74 151.629 1325.55 151.629C1319.88 151.629 1314.59 153.253 1310.08 156.046V133.867H1294.9V208.568H1310.08V205.56C1314.59 208.353 1319.9 210 1325.55 210C1333.74 210 1341.14 206.634 1346.46 201.262L1377.21 169.964C1380.01 167.099 1383.93 165.357 1388.25 165.357C1396.79 165.357 1403.71 172.256 1403.71 180.779C1403.71 189.302 1396.79 196.225 1388.25 196.225C1383.91 196.225 1380.01 194.434 1377.21 191.594L1371.55 185.84L1361.9 195.652L1367.36 201.215C1372.68 206.61 1380.08 209.952 1388.27 209.952C1393.94 209.952 1399.26 208.329 1403.74 205.512V208.52H1418.94V153.038H1403.74Z" fill="url(#paint19_linear_1598_1218)"/>
<path d="M1513.31 19.1704V22.1785C1508.84 19.3853 1503.52 17.7619 1497.84 17.7619C1489.65 17.7619 1482.25 21.1042 1476.94 26.4996L1446.19 57.7262C1443.39 60.591 1439.46 62.3338 1435.15 62.3338C1426.6 62.3338 1419.68 55.4343 1419.68 46.9115C1419.68 38.3886 1426.63 31.4892 1435.15 31.4892C1439.49 31.4892 1443.39 33.2558 1446.19 36.0968L1451.87 41.8742L1461.52 32.0622L1456.03 26.4996C1450.72 21.1042 1443.32 17.7619 1435.13 17.7619C1429.45 17.7619 1424.16 19.3853 1419.66 22.1785V0H1404.48V74.7003H1419.66V71.6922C1424.16 74.4854 1429.48 76.1327 1435.13 76.1327C1443.32 76.1327 1450.72 72.7665 1456.03 67.395L1486.78 36.0968C1489.58 33.232 1493.51 31.4892 1497.82 31.4892C1506.37 31.4892 1513.29 38.3886 1513.29 46.9115C1513.29 55.4343 1506.37 62.3577 1497.82 62.3577C1493.49 62.3577 1489.58 60.5672 1486.78 57.7262L1481.13 51.9727L1471.48 61.7847L1476.94 67.3472C1482.25 72.7426 1489.65 76.0849 1497.84 76.0849C1503.52 76.0849 1508.84 74.4615 1513.31 71.6445V74.6525H1528.52V19.1704H1513.31Z" fill="url(#paint20_linear_1598_1218)"/>
<path d="M1513.31 63.7929V66.801C1508.84 64.0078 1503.52 62.3844 1497.84 62.3844C1489.65 62.3844 1482.25 65.7267 1476.94 71.1221L1446.19 102.349C1443.39 105.214 1439.46 106.956 1435.15 106.956C1426.6 106.956 1419.68 100.057 1419.68 91.534C1419.68 83.0111 1426.63 76.1117 1435.15 76.1117C1439.49 76.1117 1443.39 77.8783 1446.19 80.7193L1451.87 86.4967L1461.52 76.6846L1456.03 71.1221C1450.72 65.7267 1443.32 62.3844 1435.13 62.3844C1429.45 62.3844 1424.16 64.0078 1419.66 66.801V44.6225H1404.48V119.323H1419.66V116.315C1424.16 119.108 1429.48 120.755 1435.13 120.755C1443.32 120.755 1450.72 117.389 1456.03 112.017L1486.78 80.7193C1489.58 77.8544 1493.51 76.1117 1497.82 76.1117C1506.37 76.1117 1513.29 83.0111 1513.29 91.534C1513.29 100.057 1506.37 106.98 1497.82 106.98C1493.49 106.98 1489.58 105.19 1486.78 102.349L1481.13 96.5951L1471.48 106.407L1476.94 111.97C1482.25 117.365 1489.65 120.707 1497.84 120.707C1503.52 120.707 1508.84 119.084 1513.31 116.267V119.275H1528.52V63.7929H1513.31Z" fill="url(#paint21_linear_1598_1218)"/>
<path d="M1513.31 108.415V111.423C1508.84 108.63 1503.52 107.007 1497.84 107.007C1489.65 107.007 1482.25 110.349 1476.94 115.744L1446.19 146.971C1443.39 149.836 1439.46 151.579 1435.15 151.579C1426.6 151.579 1419.68 144.679 1419.68 136.156C1419.68 127.633 1426.63 120.734 1435.15 120.734C1439.49 120.734 1443.39 122.501 1446.19 125.342L1451.87 131.119L1461.52 121.307L1456.03 115.744C1450.72 110.349 1443.32 107.007 1435.13 107.007C1429.45 107.007 1424.16 108.63 1419.66 111.423V89.2448H1404.48V163.945H1419.66V160.937C1424.16 163.73 1429.48 165.378 1435.13 165.378C1443.32 165.378 1450.72 162.011 1456.03 156.64L1486.78 125.342C1489.58 122.477 1493.51 120.734 1497.82 120.734C1506.37 120.734 1513.29 127.633 1513.29 136.156C1513.29 144.679 1506.37 151.602 1497.82 151.602C1493.49 151.602 1489.58 149.812 1486.78 146.971L1481.13 141.217L1471.48 151.03L1476.94 156.592C1482.25 161.987 1489.65 165.33 1497.84 165.33C1503.52 165.33 1508.84 163.706 1513.31 160.889V163.897H1528.52V108.415H1513.31Z" fill="url(#paint22_linear_1598_1218)"/>
<path d="M1513.31 153.038V156.046C1508.84 153.253 1503.52 151.629 1497.84 151.629C1489.65 151.629 1482.25 154.972 1476.94 160.367L1446.19 191.594C1443.39 194.458 1439.46 196.201 1435.15 196.201C1426.6 196.201 1419.68 189.302 1419.68 180.779C1419.68 172.256 1426.63 165.357 1435.15 165.357C1439.49 165.357 1443.39 167.123 1446.19 169.964L1451.87 175.741L1461.52 165.929L1456.03 160.367C1450.72 154.972 1443.32 151.629 1435.13 151.629C1429.45 151.629 1424.16 153.253 1419.66 156.046V133.867H1404.48V208.568H1419.66V205.56C1424.16 208.353 1429.48 210 1435.13 210C1443.32 210 1450.72 206.634 1456.03 201.262L1486.78 169.964C1489.58 167.099 1493.51 165.357 1497.82 165.357C1506.37 165.357 1513.29 172.256 1513.29 180.779C1513.29 189.302 1506.37 196.225 1497.82 196.225C1493.49 196.225 1489.58 194.434 1486.78 191.594L1481.13 185.84L1471.48 195.652L1476.94 201.215C1482.25 206.61 1489.65 209.952 1497.84 209.952C1503.52 209.952 1508.84 208.329 1513.31 205.512V208.52H1528.52V153.038H1513.31Z" fill="url(#paint23_linear_1598_1218)"/>
<path d="M1622.89 19.1704V22.1785C1618.41 19.3853 1613.09 17.7619 1607.42 17.7619C1599.23 17.7619 1591.83 21.1042 1586.51 26.4996L1555.77 57.7262C1552.96 60.591 1549.04 62.3338 1544.73 62.3338C1536.18 62.3338 1529.26 55.4343 1529.26 46.9115C1529.26 38.3886 1536.2 31.4892 1544.73 31.4892C1549.06 31.4892 1552.96 33.2558 1555.77 36.0968L1561.44 41.8742L1571.09 32.0622L1565.61 26.4996C1560.29 21.1042 1552.89 17.7619 1544.7 17.7619C1539.03 17.7619 1533.74 19.3853 1529.23 22.1785V0H1514.05V74.7003H1529.23V71.6922C1533.74 74.4854 1539.05 76.1327 1544.7 76.1327C1552.89 76.1327 1560.29 72.7665 1565.61 67.395L1596.36 36.0968C1599.16 33.232 1603.08 31.4892 1607.4 31.4892C1615.94 31.4892 1622.86 38.3886 1622.86 46.9115C1622.86 55.4343 1615.94 62.3577 1607.4 62.3577C1603.06 62.3577 1599.16 60.5672 1596.36 57.7262L1590.7 51.9727L1581.05 61.7847L1586.51 67.3472C1591.83 72.7426 1599.23 76.0849 1607.42 76.0849C1613.09 76.0849 1618.41 74.4615 1622.89 71.6445V74.6525H1638.09V19.1704H1622.89Z" fill="url(#paint24_linear_1598_1218)"/>
<path d="M1622.89 63.7929V66.801C1618.41 64.0078 1613.09 62.3844 1607.42 62.3844C1599.23 62.3844 1591.83 65.7267 1586.51 71.1221L1555.77 102.349C1552.96 105.214 1549.04 106.956 1544.73 106.956C1536.18 106.956 1529.26 100.057 1529.26 91.534C1529.26 83.0111 1536.2 76.1117 1544.73 76.1117C1549.06 76.1117 1552.96 77.8783 1555.77 80.7193L1561.44 86.4967L1571.09 76.6846L1565.61 71.1221C1560.29 65.7267 1552.89 62.3844 1544.7 62.3844C1539.03 62.3844 1533.74 64.0078 1529.23 66.801V44.6225H1514.05V119.323H1529.23V116.315C1533.74 119.108 1539.05 120.755 1544.7 120.755C1552.89 120.755 1560.29 117.389 1565.61 112.017L1596.36 80.7193C1599.16 77.8544 1603.08 76.1117 1607.4 76.1117C1615.94 76.1117 1622.86 83.0111 1622.86 91.534C1622.86 100.057 1615.94 106.98 1607.4 106.98C1603.06 106.98 1599.16 105.19 1596.36 102.349L1590.7 96.5951L1581.05 106.407L1586.51 111.97C1591.83 117.365 1599.23 120.707 1607.42 120.707C1613.09 120.707 1618.41 119.084 1622.89 116.267V119.275H1638.09V63.7929H1622.89Z" fill="url(#paint25_linear_1598_1218)"/>
<path d="M1622.89 108.415V111.423C1618.41 108.63 1613.09 107.007 1607.42 107.007C1599.23 107.007 1591.83 110.349 1586.51 115.744L1555.77 146.971C1552.96 149.836 1549.04 151.579 1544.73 151.579C1536.18 151.579 1529.26 144.679 1529.26 136.156C1529.26 127.633 1536.2 120.734 1544.73 120.734C1549.06 120.734 1552.96 122.501 1555.77 125.342L1561.44 131.119L1571.09 121.307L1565.61 115.744C1560.29 110.349 1552.89 107.007 1544.7 107.007C1539.03 107.007 1533.74 108.63 1529.23 111.423V89.2448H1514.05V163.945H1529.23V160.937C1533.74 163.73 1539.05 165.378 1544.7 165.378C1552.89 165.378 1560.29 162.011 1565.61 156.64L1596.36 125.342C1599.16 122.477 1603.08 120.734 1607.4 120.734C1615.94 120.734 1622.86 127.633 1622.86 136.156C1622.86 144.679 1615.94 151.602 1607.4 151.602C1603.06 151.602 1599.16 149.812 1596.36 146.971L1590.7 141.217L1581.05 151.03L1586.51 156.592C1591.83 161.987 1599.23 165.33 1607.42 165.33C1613.09 165.33 1618.41 163.706 1622.89 160.889V163.897H1638.09V108.415H1622.89Z" fill="url(#paint26_linear_1598_1218)"/>
<path d="M1622.89 153.038V156.046C1618.41 153.253 1613.09 151.629 1607.42 151.629C1599.23 151.629 1591.83 154.972 1586.51 160.367L1555.77 191.594C1552.96 194.458 1549.04 196.201 1544.73 196.201C1536.18 196.201 1529.26 189.302 1529.26 180.779C1529.26 172.256 1536.2 165.357 1544.73 165.357C1549.06 165.357 1552.96 167.123 1555.77 169.964L1561.44 175.741L1571.09 165.929L1565.61 160.367C1560.29 154.972 1552.89 151.629 1544.7 151.629C1539.03 151.629 1533.74 153.253 1529.23 156.046V133.867H1514.05V208.568H1529.23V205.56C1533.74 208.353 1539.05 210 1544.7 210C1552.89 210 1560.29 206.634 1565.61 201.262L1596.36 169.964C1599.16 167.099 1603.08 165.357 1607.4 165.357C1615.94 165.357 1622.86 172.256 1622.86 180.779C1622.86 189.302 1615.94 196.225 1607.4 196.225C1603.06 196.225 1599.16 194.434 1596.36 191.594L1590.7 185.84L1581.05 195.652L1586.51 201.215C1591.83 206.61 1599.23 209.952 1607.42 209.952C1613.09 209.952 1618.41 208.329 1622.89 205.512V208.52H1638.09V153.038H1622.89Z" fill="url(#paint27_linear_1598_1218)"/>
<path d="M1732.46 19.1704V22.1785C1727.99 19.3853 1722.67 17.7619 1716.99 17.7619C1708.8 17.7619 1701.4 21.1042 1696.09 26.4996L1665.34 57.7262C1662.54 60.591 1658.61 62.3338 1654.3 62.3338C1645.75 62.3338 1638.83 55.4343 1638.83 46.9115C1638.83 38.3886 1645.78 31.4892 1654.3 31.4892C1658.64 31.4892 1662.54 33.2558 1665.34 36.0968L1671.02 41.8742L1680.67 32.0622L1675.18 26.4996C1669.87 21.1042 1662.47 17.7619 1654.28 17.7619C1648.6 17.7619 1643.31 19.3853 1638.81 22.1785V0H1623.63V74.7003H1638.81V71.6922C1643.31 74.4854 1648.63 76.1327 1654.28 76.1327C1662.47 76.1327 1669.87 72.7665 1675.18 67.395L1705.93 36.0968C1708.73 33.232 1712.66 31.4892 1716.97 31.4892C1725.52 31.4892 1732.44 38.3886 1732.44 46.9115C1732.44 55.4343 1725.52 62.3577 1716.97 62.3577C1712.64 62.3577 1708.73 60.5672 1705.93 57.7262L1700.28 51.9727L1690.63 61.7847L1696.09 67.3472C1701.4 72.7426 1708.8 76.0849 1716.99 76.0849C1722.67 76.0849 1727.99 74.4615 1732.46 71.6445V74.6525H1747.67V19.1704H1732.46Z" fill="url(#paint28_linear_1598_1218)"/>
<path d="M1732.46 63.7929V66.801C1727.99 64.0078 1722.67 62.3844 1716.99 62.3844C1708.8 62.3844 1701.4 65.7267 1696.09 71.1221L1665.34 102.349C1662.54 105.214 1658.61 106.956 1654.3 106.956C1645.75 106.956 1638.83 100.057 1638.83 91.534C1638.83 83.0111 1645.78 76.1117 1654.3 76.1117C1658.64 76.1117 1662.54 77.8783 1665.34 80.7193L1671.02 86.4967L1680.67 76.6846L1675.18 71.1221C1669.87 65.7267 1662.47 62.3844 1654.28 62.3844C1648.6 62.3844 1643.31 64.0078 1638.81 66.801V44.6225H1623.63V119.323H1638.81V116.315C1643.31 119.108 1648.63 120.755 1654.28 120.755C1662.47 120.755 1669.87 117.389 1675.18 112.017L1705.93 80.7193C1708.73 77.8544 1712.66 76.1117 1716.97 76.1117C1725.52 76.1117 1732.44 83.0111 1732.44 91.534C1732.44 100.057 1725.52 106.98 1716.97 106.98C1712.64 106.98 1708.73 105.19 1705.93 102.349L1700.28 96.5951L1690.63 106.407L1696.09 111.97C1701.4 117.365 1708.8 120.707 1716.99 120.707C1722.67 120.707 1727.99 119.084 1732.46 116.267V119.275H1747.67V63.7929H1732.46Z" fill="url(#paint29_linear_1598_1218)"/>
<path d="M1732.46 108.415V111.423C1727.99 108.63 1722.67 107.007 1716.99 107.007C1708.8 107.007 1701.4 110.349 1696.09 115.744L1665.34 146.971C1662.54 149.836 1658.61 151.579 1654.3 151.579C1645.75 151.579 1638.83 144.679 1638.83 136.156C1638.83 127.633 1645.78 120.734 1654.3 120.734C1658.64 120.734 1662.54 122.501 1665.34 125.342L1671.02 131.119L1680.67 121.307L1675.18 115.744C1669.87 110.349 1662.47 107.007 1654.28 107.007C1648.6 107.007 1643.31 108.63 1638.81 111.423V89.2448H1623.63V163.945H1638.81V160.937C1643.31 163.73 1648.63 165.378 1654.28 165.378C1662.47 165.378 1669.87 162.011 1675.18 156.64L1705.93 125.342C1708.73 122.477 1712.66 120.734 1716.97 120.734C1725.52 120.734 1732.44 127.633 1732.44 136.156C1732.44 144.679 1725.52 151.602 1716.97 151.602C1712.64 151.602 1708.73 149.812 1705.93 146.971L1700.28 141.217L1690.63 151.03L1696.09 156.592C1701.4 161.987 1708.8 165.33 1716.99 165.33C1722.67 165.33 1727.99 163.706 1732.46 160.889V163.897H1747.67V108.415H1732.46Z" fill="url(#paint30_linear_1598_1218)"/>
<path d="M1732.46 153.038V156.046C1727.99 153.253 1722.67 151.629 1716.99 151.629C1708.8 151.629 1701.4 154.972 1696.09 160.367L1665.34 191.594C1662.54 194.458 1658.61 196.201 1654.3 196.201C1645.75 196.201 1638.83 189.302 1638.83 180.779C1638.83 172.256 1645.78 165.357 1654.3 165.357C1658.64 165.357 1662.54 167.123 1665.34 169.964L1671.02 175.741L1680.67 165.929L1675.18 160.367C1669.87 154.972 1662.47 151.629 1654.28 151.629C1648.6 151.629 1643.31 153.253 1638.81 156.046V133.867H1623.63V208.568H1638.81V205.56C1643.31 208.353 1648.63 210 1654.28 210C1662.47 210 1669.87 206.634 1675.18 201.262L1705.93 169.964C1708.73 167.099 1712.66 165.357 1716.97 165.357C1725.52 165.357 1732.44 172.256 1732.44 180.779C1732.44 189.302 1725.52 196.225 1716.97 196.225C1712.64 196.225 1708.73 194.434 1705.93 191.594L1700.28 185.84L1690.63 195.652L1696.09 201.215C1701.4 206.61 1708.8 209.952 1716.99 209.952C1722.67 209.952 1727.99 208.329 1732.46 205.512V208.52H1747.67V153.038H1732.46Z" fill="url(#paint31_linear_1598_1218)"/>
<path d="M88.8377 19.1704V22.1785C84.3596 19.3853 79.0435 17.7619 73.3681 17.7619C65.1784 17.7619 57.7788 21.1042 52.4627 26.4996L21.7152 57.7262C18.9134 60.591 14.9862 62.3338 10.6758 62.3338C2.12679 62.3338 -4.79378 55.4343 -4.79378 46.9115C-4.79378 38.3886 2.15074 31.4892 10.6758 31.4892C15.0101 31.4892 18.9134 33.2558 21.7152 36.0968L27.3905 41.8742L37.041 32.0622L31.5573 26.4996C26.2411 21.1042 18.8416 17.7619 10.6518 17.7619C4.97647 17.7619 -0.315773 19.3853 -4.81775 22.1785V0H-19.9999V74.7003H-4.81775V71.6922C-0.315773 74.4854 5.00042 76.1327 10.6518 76.1327C18.8416 76.1327 26.2411 72.7665 31.5573 67.395L62.3048 36.0968C65.1065 33.232 69.0338 31.4892 73.3442 31.4892C81.8932 31.4892 88.8137 38.3886 88.8137 46.9115C88.8137 55.4343 81.8932 62.3577 73.3442 62.3577C69.0099 62.3577 65.1065 60.5672 62.3048 57.7262L56.6533 51.9727L47.0029 61.7847L52.4627 67.3472C57.7788 72.7426 65.1784 76.0849 73.3681 76.0849C79.0435 76.0849 84.3596 74.4615 88.8377 71.6445V74.6525H104.044V19.1704H88.8377Z" fill="url(#paint32_linear_1598_1218)"/>
<path d="M88.8376 63.7929V66.801C84.3595 64.0078 79.0434 62.3844 73.368 62.3844C65.1783 62.3844 57.7787 65.7267 52.4625 71.1221L21.7151 102.349C18.9133 105.214 14.986 106.956 10.6756 106.956C2.12669 106.956 -4.79388 100.057 -4.79388 91.534C-4.79388 83.0111 2.15063 76.1117 10.6756 76.1117C15.01 76.1117 18.9133 77.8783 21.7151 80.7193L27.3904 86.4967L37.0409 76.6846L31.5572 71.1221C26.241 65.7267 18.8415 62.3844 10.6517 62.3844C4.97636 62.3844 -0.315882 64.0078 -4.81785 66.801V44.6225H-20V119.323H-4.81785V116.315C-0.315882 119.108 5.00031 120.755 10.6517 120.755C18.8415 120.755 26.241 117.389 31.5572 112.017L62.3047 80.7193C65.1064 77.8544 69.0337 76.1117 73.3441 76.1117C81.8931 76.1117 88.8136 83.0111 88.8136 91.534C88.8136 100.057 81.8931 106.98 73.3441 106.98C69.0098 106.98 65.1064 105.19 62.3047 102.349L56.6532 96.5951L47.0028 106.407L52.4625 111.97C57.7787 117.365 65.1783 120.707 73.368 120.707C79.0434 120.707 84.3595 119.084 88.8376 116.267V119.275H104.044V63.7929H88.8376Z" fill="url(#paint33_linear_1598_1218)"/>
<path d="M88.8376 108.415V111.423C84.3595 108.63 79.0434 107.007 73.368 107.007C65.1783 107.007 57.7787 110.349 52.4625 115.744L21.7151 146.971C18.9133 149.836 14.986 151.579 10.6756 151.579C2.12669 151.579 -4.79388 144.679 -4.79388 136.156C-4.79388 127.633 2.15063 120.734 10.6756 120.734C15.01 120.734 18.9133 122.501 21.7151 125.342L27.3904 131.119L37.0409 121.307L31.5572 115.744C26.241 110.349 18.8415 107.007 10.6517 107.007C4.97636 107.007 -0.315882 108.63 -4.81785 111.423V89.2448H-20V163.945H-4.81785V160.937C-0.315882 163.73 5.00031 165.378 10.6517 165.378C18.8415 165.378 26.241 162.011 31.5572 156.64L62.3047 125.342C65.1064 122.477 69.0337 120.734 73.3441 120.734C81.8931 120.734 88.8136 127.633 88.8136 136.156C88.8136 144.679 81.8931 151.602 73.3441 151.602C69.0098 151.602 65.1064 149.812 62.3047 146.971L56.6532 141.217L47.0028 151.03L52.4625 156.592C57.7787 161.987 65.1783 165.33 73.368 165.33C79.0434 165.33 84.3595 163.706 88.8376 160.889V163.897H104.044V108.415H88.8376Z" fill="url(#paint34_linear_1598_1218)"/>
<path d="M88.8376 153.038V156.046C84.3595 153.253 79.0434 151.629 73.368 151.629C65.1783 151.629 57.7787 154.972 52.4625 160.367L21.7151 191.594C18.9133 194.458 14.986 196.201 10.6756 196.201C2.12669 196.201 -4.79388 189.302 -4.79388 180.779C-4.79388 172.256 2.15063 165.357 10.6756 165.357C15.01 165.357 18.9133 167.123 21.7151 169.964L27.3904 175.741L37.0409 165.929L31.5572 160.367C26.241 154.972 18.8415 151.629 10.6517 151.629C4.97636 151.629 -0.315882 153.253 -4.81785 156.046V133.867H-20V208.568H-4.81785V205.56C-0.315882 208.353 5.00031 210 10.6517 210C18.8415 210 26.241 206.634 31.5572 201.262L62.3047 169.964C65.1064 167.099 69.0337 165.357 73.3441 165.357C81.8931 165.357 88.8136 172.256 88.8136 180.779C88.8136 189.302 81.8931 196.225 73.3441 196.225C69.0098 196.225 65.1064 194.434 62.3047 191.594L56.6532 185.84L47.0028 195.652L52.4625 201.215C57.7787 206.61 65.1783 209.952 73.368 209.952C79.0434 209.952 84.3595 208.329 88.8376 205.512V208.52H104.044V153.038H88.8376Z" fill="url(#paint35_linear_1598_1218)"/>
<path d="M198.413 19.1704V22.1785C193.935 19.3853 188.619 17.7619 182.943 17.7619C174.753 17.7619 167.354 21.1042 162.038 26.4996L131.29 57.7262C128.488 60.591 124.561 62.3338 120.251 62.3338C111.702 62.3338 104.781 55.4343 104.781 46.9115C104.781 38.3886 111.726 31.4892 120.251 31.4892C124.585 31.4892 128.488 33.2558 131.29 36.0968L136.966 41.8742L146.616 32.0622L141.132 26.4996C135.816 21.1042 128.417 17.7619 120.227 17.7619C114.552 17.7619 109.259 19.3853 104.757 22.1785V0H89.5752V74.7003H104.757V71.6922C109.259 74.4854 114.576 76.1327 120.227 76.1327C128.417 76.1327 135.816 72.7665 141.132 67.395L171.88 36.0968C174.682 33.232 178.609 31.4892 182.919 31.4892C191.468 31.4892 198.389 38.3886 198.389 46.9115C198.389 55.4343 191.468 62.3577 182.919 62.3577C178.585 62.3577 174.682 60.5672 171.88 57.7262L166.228 51.9727L156.578 61.7847L162.038 67.3472C167.354 72.7426 174.753 76.0849 182.943 76.0849C188.619 76.0849 193.935 74.4615 198.413 71.6445V74.6525H213.619V19.1704H198.413Z" fill="url(#paint36_linear_1598_1218)"/>
<path d="M198.413 63.7929V66.801C193.935 64.0078 188.619 62.3844 182.943 62.3844C174.754 62.3844 167.354 65.7267 162.038 71.1221L131.29 102.349C128.489 105.214 124.561 106.956 120.251 106.956C111.702 106.956 104.781 100.057 104.781 91.534C104.781 83.0111 111.726 76.1117 120.251 76.1117C124.585 76.1117 128.489 77.8783 131.29 80.7193L136.966 86.4967L146.616 76.6846L141.132 71.1221C135.816 65.7267 128.417 62.3844 120.227 62.3844C114.552 62.3844 109.259 64.0078 104.757 66.801V44.6225H89.5753V119.323H104.757V116.315C109.259 119.108 114.576 120.755 120.227 120.755C128.417 120.755 135.816 117.389 141.132 112.017L171.88 80.7193C174.682 77.8544 178.609 76.1117 182.919 76.1117C191.468 76.1117 198.389 83.0111 198.389 91.534C198.389 100.057 191.468 106.98 182.919 106.98C178.585 106.98 174.682 105.19 171.88 102.349L166.229 96.5951L156.578 106.407L162.038 111.97C167.354 117.365 174.754 120.707 182.943 120.707C188.619 120.707 193.935 119.084 198.413 116.267V119.275H213.619V63.7929H198.413Z" fill="url(#paint37_linear_1598_1218)"/>
<path d="M198.413 108.415V111.423C193.935 108.63 188.619 107.007 182.943 107.007C174.754 107.007 167.354 110.349 162.038 115.744L131.29 146.971C128.489 149.836 124.561 151.579 120.251 151.579C111.702 151.579 104.781 144.679 104.781 136.156C104.781 127.633 111.726 120.734 120.251 120.734C124.585 120.734 128.489 122.501 131.29 125.342L136.966 131.119L146.616 121.307L141.132 115.744C135.816 110.349 128.417 107.007 120.227 107.007C114.552 107.007 109.259 108.63 104.757 111.423V89.2448H89.5753V163.945H104.757V160.937C109.259 163.73 114.576 165.378 120.227 165.378C128.417 165.378 135.816 162.011 141.132 156.64L171.88 125.342C174.682 122.477 178.609 120.734 182.919 120.734C191.468 120.734 198.389 127.633 198.389 136.156C198.389 144.679 191.468 151.602 182.919 151.602C178.585 151.602 174.682 149.812 171.88 146.971L166.229 141.217L156.578 151.03L162.038 156.592C167.354 161.987 174.754 165.33 182.943 165.33C188.619 165.33 193.935 163.706 198.413 160.889V163.897H213.619V108.415H198.413Z" fill="url(#paint38_linear_1598_1218)"/>
<path d="M198.413 153.038V156.046C193.935 153.253 188.619 151.629 182.943 151.629C174.754 151.629 167.354 154.972 162.038 160.367L131.29 191.594C128.489 194.458 124.561 196.201 120.251 196.201C111.702 196.201 104.781 189.302 104.781 180.779C104.781 172.256 111.726 165.357 120.251 165.357C124.585 165.357 128.489 167.123 131.29 169.964L136.966 175.741L146.616 165.929L141.132 160.367C135.816 154.972 128.417 151.629 120.227 151.629C114.552 151.629 109.259 153.253 104.757 156.046V133.867H89.5753V208.568H104.757V205.56C109.259 208.353 114.576 210 120.227 210C128.417 210 135.816 206.634 141.132 201.262L171.88 169.964C174.682 167.099 178.609 165.357 182.919 165.357C191.468 165.357 198.389 172.256 198.389 180.779C198.389 189.302 191.468 196.225 182.919 196.225C178.585 196.225 174.682 194.434 171.88 191.594L166.229 185.84L156.578 195.652L162.038 201.215C167.354 206.61 174.754 209.952 182.943 209.952C188.619 209.952 193.935 208.329 198.413 205.512V208.52H213.619V153.038H198.413Z" fill="url(#paint39_linear_1598_1218)"/>
<path d="M307.988 19.1704V22.1785C303.51 19.3853 298.194 17.7619 292.518 17.7619C284.329 17.7619 276.929 21.1042 271.613 26.4996L240.865 57.7262C238.064 60.591 234.136 62.3338 229.826 62.3338C221.277 62.3338 214.356 55.4343 214.356 46.9115C214.356 38.3886 221.301 31.4892 229.826 31.4892C234.16 31.4892 238.064 33.2558 240.865 36.0968L246.541 41.8742L256.191 32.0622L250.707 26.4996C245.391 21.1042 237.992 17.7619 229.802 17.7619C224.127 17.7619 218.834 19.3853 214.332 22.1785V0H199.15V74.7003H214.332V71.6922C218.834 74.4854 224.151 76.1327 229.802 76.1327C237.992 76.1327 245.391 72.7665 250.707 67.395L281.455 36.0968C284.257 33.232 288.184 31.4892 292.494 31.4892C301.043 31.4892 307.964 38.3886 307.964 46.9115C307.964 55.4343 301.043 62.3577 292.494 62.3577C288.16 62.3577 284.257 60.5672 281.455 57.7262L275.803 51.9727L266.153 61.7847L271.613 67.3472C276.929 72.7426 284.329 76.0849 292.518 76.0849C298.194 76.0849 303.51 74.4615 307.988 71.6445V74.6525H323.194V19.1704H307.988Z" fill="url(#paint40_linear_1598_1218)"/>
<path d="M307.988 63.7929V66.801C303.51 64.0078 298.194 62.3844 292.518 62.3844C284.329 62.3844 276.929 65.7267 271.613 71.1221L240.865 102.349C238.064 105.214 234.136 106.956 229.826 106.956C221.277 106.956 214.356 100.057 214.356 91.534C214.356 83.0111 221.301 76.1117 229.826 76.1117C234.16 76.1117 238.064 77.8783 240.865 80.7193L246.541 86.4967L256.191 76.6846L250.707 71.1221C245.391 65.7267 237.992 62.3844 229.802 62.3844C224.127 62.3844 218.834 64.0078 214.332 66.801V44.6225H199.15V119.323H214.332V116.315C218.834 119.108 224.151 120.755 229.802 120.755C237.992 120.755 245.391 117.389 250.707 112.017L281.455 80.7193C284.257 77.8544 288.184 76.1117 292.494 76.1117C301.043 76.1117 307.964 83.0111 307.964 91.534C307.964 100.057 301.043 106.98 292.494 106.98C288.16 106.98 284.257 105.19 281.455 102.349L275.804 96.5951L266.153 106.407L271.613 111.97C276.929 117.365 284.329 120.707 292.518 120.707C298.194 120.707 303.51 119.084 307.988 116.267V119.275H323.194V63.7929H307.988Z" fill="url(#paint41_linear_1598_1218)"/>
<path d="M307.988 108.415V111.423C303.51 108.63 298.194 107.007 292.518 107.007C284.329 107.007 276.929 110.349 271.613 115.744L240.865 146.971C238.064 149.836 234.136 151.579 229.826 151.579C221.277 151.579 214.356 144.679 214.356 136.156C214.356 127.633 221.301 120.734 229.826 120.734C234.16 120.734 238.064 122.501 240.865 125.342L246.541 131.119L256.191 121.307L250.707 115.744C245.391 110.349 237.992 107.007 229.802 107.007C224.127 107.007 218.834 108.63 214.332 111.423V89.2448H199.15V163.945H214.332V160.937C218.834 163.73 224.151 165.378 229.802 165.378C237.992 165.378 245.391 162.011 250.707 156.64L281.455 125.342C284.257 122.477 288.184 120.734 292.494 120.734C301.043 120.734 307.964 127.633 307.964 136.156C307.964 144.679 301.043 151.602 292.494 151.602C288.16 151.602 284.257 149.812 281.455 146.971L275.804 141.217L266.153 151.03L271.613 156.592C276.929 161.987 284.329 165.33 292.518 165.33C298.194 165.33 303.51 163.706 307.988 160.889V163.897H323.194V108.415H307.988Z" fill="url(#paint42_linear_1598_1218)"/>
<path d="M307.988 153.038V156.046C303.51 153.253 298.194 151.629 292.518 151.629C284.329 151.629 276.929 154.972 271.613 160.367L240.865 191.594C238.064 194.458 234.136 196.201 229.826 196.201C221.277 196.201 214.356 189.302 214.356 180.779C214.356 172.256 221.301 165.357 229.826 165.357C234.16 165.357 238.064 167.123 240.865 169.964L246.541 175.741L256.191 165.929L250.707 160.367C245.391 154.972 237.992 151.629 229.802 151.629C224.127 151.629 218.834 153.253 214.332 156.046V133.867H199.15V208.568H214.332V205.56C218.834 208.353 224.151 210 229.802 210C237.992 210 245.391 206.634 250.707 201.262L281.455 169.964C284.257 167.099 288.184 165.357 292.494 165.357C301.043 165.357 307.964 172.256 307.964 180.779C307.964 189.302 301.043 196.225 292.494 196.225C288.16 196.225 284.257 194.434 281.455 191.594L275.804 185.84L266.153 195.652L271.613 201.215C276.929 206.61 284.329 209.952 292.518 209.952C298.194 209.952 303.51 208.329 307.988 205.512V208.52H323.194V153.038H307.988Z" fill="url(#paint43_linear_1598_1218)"/>
<path d="M417.563 19.1704V22.1785C413.085 19.3853 407.769 17.7619 402.093 17.7619C393.904 17.7619 386.504 21.1042 381.188 26.4996L350.44 57.7262C347.639 60.591 343.711 62.3338 339.401 62.3338C330.852 62.3338 323.931 55.4343 323.931 46.9115C323.931 38.3886 330.876 31.4892 339.401 31.4892C343.735 31.4892 347.639 33.2558 350.44 36.0968L356.116 41.8742L365.766 32.0622L360.282 26.4996C354.966 21.1042 347.567 17.7619 339.377 17.7619C333.702 17.7619 328.409 19.3853 323.907 22.1785V0H308.725V74.7003H323.907V71.6922C328.409 74.4854 333.726 76.1327 339.377 76.1327C347.567 76.1327 354.966 72.7665 360.282 67.395L391.03 36.0968C393.832 33.232 397.759 31.4892 402.069 31.4892C410.618 31.4892 417.539 38.3886 417.539 46.9115C417.539 55.4343 410.618 62.3577 402.069 62.3577C397.735 62.3577 393.832 60.5672 391.03 57.7262L385.379 51.9727L375.728 61.7847L381.188 67.3472C386.504 72.7426 393.904 76.0849 402.093 76.0849C407.769 76.0849 413.085 74.4615 417.563 71.6445V74.6525H432.769V19.1704H417.563Z" fill="url(#paint44_linear_1598_1218)"/>
<path d="M417.563 63.7929V66.801C413.085 64.0078 407.769 62.3844 402.093 62.3844C393.904 62.3844 386.504 65.7267 381.188 71.1221L350.44 102.349C347.639 105.214 343.711 106.956 339.401 106.956C330.852 106.956 323.931 100.057 323.931 91.534C323.931 83.0111 330.876 76.1117 339.401 76.1117C343.735 76.1117 347.639 77.8783 350.44 80.7193L356.116 86.4967L365.766 76.6846L360.282 71.1221C354.966 65.7267 347.567 62.3844 339.377 62.3844C333.702 62.3844 328.409 64.0078 323.907 66.801V44.6225H308.725V119.323H323.907V116.315C328.409 119.108 333.726 120.755 339.377 120.755C347.567 120.755 354.966 117.389 360.282 112.017L391.03 80.7193C393.832 77.8544 397.759 76.1117 402.069 76.1117C410.618 76.1117 417.539 83.0111 417.539 91.534C417.539 100.057 410.618 106.98 402.069 106.98C397.735 106.98 393.832 105.19 391.03 102.349L385.379 96.5951L375.728 106.407L381.188 111.97C386.504 117.365 393.904 120.707 402.093 120.707C407.769 120.707 413.085 119.084 417.563 116.267V119.275H432.769V63.7929H417.563Z" fill="url(#paint45_linear_1598_1218)"/>
<path d="M417.563 108.415V111.423C413.085 108.63 407.769 107.007 402.093 107.007C393.904 107.007 386.504 110.349 381.188 115.744L350.44 146.971C347.639 149.836 343.711 151.579 339.401 151.579C330.852 151.579 323.931 144.679 323.931 136.156C323.931 127.633 330.876 120.734 339.401 120.734C343.735 120.734 347.639 122.501 350.44 125.342L356.116 131.119L365.766 121.307L360.282 115.744C354.966 110.349 347.567 107.007 339.377 107.007C333.702 107.007 328.409 108.63 323.907 111.423V89.2448H308.725V163.945H323.907V160.937C328.409 163.73 333.726 165.378 339.377 165.378C347.567 165.378 354.966 162.011 360.282 156.64L391.03 125.342C393.832 122.477 397.759 120.734 402.069 120.734C410.618 120.734 417.539 127.633 417.539 136.156C417.539 144.679 410.618 151.602 402.069 151.602C397.735 151.602 393.832 149.812 391.03 146.971L385.379 141.217L375.728 151.03L381.188 156.592C386.504 161.987 393.904 165.33 402.093 165.33C407.769 165.33 413.085 163.706 417.563 160.889V163.897H432.769V108.415H417.563Z" fill="url(#paint46_linear_1598_1218)"/>
<path d="M417.563 153.038V156.046C413.085 153.253 407.769 151.629 402.093 151.629C393.904 151.629 386.504 154.972 381.188 160.367L350.44 191.594C347.639 194.458 343.711 196.201 339.401 196.201C330.852 196.201 323.931 189.302 323.931 180.779C323.931 172.256 330.876 165.357 339.401 165.357C343.735 165.357 347.639 167.123 350.44 169.964L356.116 175.741L365.766 165.929L360.282 160.367C354.966 154.972 347.567 151.629 339.377 151.629C333.702 151.629 328.409 153.253 323.907 156.046V133.867H308.725V208.568H323.907V205.56C328.409 208.353 333.726 210 339.377 210C347.567 210 354.966 206.634 360.282 201.262L391.03 169.964C393.832 167.099 397.759 165.357 402.069 165.357C410.618 165.357 417.539 172.256 417.539 180.779C417.539 189.302 410.618 196.225 402.069 196.225C397.735 196.225 393.832 194.434 391.03 191.594L385.379 185.84L375.728 195.652L381.188 201.215C386.504 206.61 393.904 209.952 402.093 209.952C407.769 209.952 413.085 208.329 417.563 205.512V208.52H432.769V153.038H417.563Z" fill="url(#paint47_linear_1598_1218)"/>
<path d="M527.138 19.1704V22.1785C522.66 19.3853 517.344 17.7619 511.668 17.7619C503.479 17.7619 496.079 21.1042 490.763 26.4996L460.015 57.7262C457.214 60.591 453.286 62.3338 448.976 62.3338C440.427 62.3338 433.507 55.4343 433.507 46.9115C433.507 38.3886 440.451 31.4892 448.976 31.4892C453.31 31.4892 457.214 33.2558 460.015 36.0968L465.691 41.8742L475.341 32.0622L469.858 26.4996C464.541 21.1042 457.142 17.7619 448.952 17.7619C443.277 17.7619 437.984 19.3853 433.483 22.1785V0H418.3V74.7003H433.483V71.6922C437.984 74.4854 443.301 76.1327 448.952 76.1327C457.142 76.1327 464.541 72.7665 469.858 67.395L500.605 36.0968C503.407 33.232 507.334 31.4892 511.644 31.4892C520.193 31.4892 527.114 38.3886 527.114 46.9115C527.114 55.4343 520.193 62.3577 511.644 62.3577C507.31 62.3577 503.407 60.5672 500.605 57.7262L494.954 51.9727L485.303 61.7847L490.763 67.3472C496.079 72.7426 503.479 76.0849 511.668 76.0849C517.344 76.0849 522.66 74.4615 527.138 71.6445V74.6525H542.344V19.1704H527.138Z" fill="url(#paint48_linear_1598_1218)"/>
<path d="M527.138 63.7929V66.801C522.66 64.0078 517.344 62.3844 511.668 62.3844C503.479 62.3844 496.079 65.7267 490.763 71.1221L460.015 102.349C457.214 105.214 453.286 106.956 448.976 106.956C440.427 106.956 433.506 100.057 433.506 91.534C433.506 83.0111 440.451 76.1117 448.976 76.1117C453.31 76.1117 457.214 77.8783 460.015 80.7193L465.691 86.4967L475.341 76.6846L469.858 71.1221C464.541 65.7267 457.142 62.3844 448.952 62.3844C443.277 62.3844 437.984 64.0078 433.482 66.801V44.6225H418.3V119.323H433.482V116.315C437.984 119.108 443.301 120.755 448.952 120.755C457.142 120.755 464.541 117.389 469.858 112.017L500.605 80.7193C503.407 77.8544 507.334 76.1117 511.644 76.1117C520.193 76.1117 527.114 83.0111 527.114 91.534C527.114 100.057 520.193 106.98 511.644 106.98C507.31 106.98 503.407 105.19 500.605 102.349L494.954 96.5951L485.303 106.407L490.763 111.97C496.079 117.365 503.479 120.707 511.668 120.707C517.344 120.707 522.66 119.084 527.138 116.267V119.275H542.344V63.7929H527.138Z" fill="url(#paint49_linear_1598_1218)"/>
<path d="M527.138 108.415V111.423C522.66 108.63 517.344 107.007 511.668 107.007C503.479 107.007 496.079 110.349 490.763 115.744L460.015 146.971C457.214 149.836 453.286 151.579 448.976 151.579C440.427 151.579 433.506 144.679 433.506 136.156C433.506 127.633 440.451 120.734 448.976 120.734C453.31 120.734 457.214 122.501 460.015 125.342L465.691 131.119L475.341 121.307L469.858 115.744C464.541 110.349 457.142 107.007 448.952 107.007C443.277 107.007 437.984 108.63 433.482 111.423V89.2448H418.3V163.945H433.482V160.937C437.984 163.73 443.301 165.378 448.952 165.378C457.142 165.378 464.541 162.011 469.858 156.64L500.605 125.342C503.407 122.477 507.334 120.734 511.644 120.734C520.193 120.734 527.114 127.633 527.114 136.156C527.114 144.679 520.193 151.602 511.644 151.602C507.31 151.602 503.407 149.812 500.605 146.971L494.954 141.217L485.303 151.03L490.763 156.592C496.079 161.987 503.479 165.33 511.668 165.33C517.344 165.33 522.66 163.706 527.138 160.889V163.897H542.344V108.415H527.138Z" fill="url(#paint50_linear_1598_1218)"/>
<path d="M527.138 153.038V156.046C522.66 153.253 517.344 151.629 511.668 151.629C503.479 151.629 496.079 154.972 490.763 160.367L460.015 191.594C457.214 194.458 453.286 196.201 448.976 196.201C440.427 196.201 433.506 189.302 433.506 180.779C433.506 172.256 440.451 165.357 448.976 165.357C453.31 165.357 457.214 167.123 460.015 169.964L465.691 175.741L475.341 165.929L469.858 160.367C464.541 154.972 457.142 151.629 448.952 151.629C443.277 151.629 437.984 153.253 433.482 156.046V133.867H418.3V208.568H433.482V205.56C437.984 208.353 443.301 210 448.952 210C457.142 210 464.541 206.634 469.858 201.262L500.605 169.964C503.407 167.099 507.334 165.357 511.644 165.357C520.193 165.357 527.114 172.256 527.114 180.779C527.114 189.302 520.193 196.225 511.644 196.225C507.31 196.225 503.407 194.434 500.605 191.594L494.954 185.84L485.303 195.652L490.763 201.215C496.079 206.61 503.479 209.952 511.668 209.952C517.344 209.952 522.66 208.329 527.138 205.512V208.52H542.344V153.038H527.138Z" fill="url(#paint51_linear_1598_1218)"/>
<path d="M636.713 19.1704V22.1785C632.235 19.3853 626.919 17.7619 621.244 17.7619C613.054 17.7619 605.654 21.1042 600.338 26.4996L569.591 57.7262C566.789 60.591 562.862 62.3338 558.551 62.3338C550.002 62.3338 543.082 55.4343 543.082 46.9115C543.082 38.3886 550.026 31.4892 558.551 31.4892C562.885 31.4892 566.789 33.2558 569.591 36.0968L575.266 41.8742L584.916 32.0622L579.433 26.4996C574.116 21.1042 566.717 17.7619 558.527 17.7619C552.852 17.7619 547.56 19.3853 543.058 22.1785V0H527.875V74.7003H543.058V71.6922C547.56 74.4854 552.876 76.1327 558.527 76.1327C566.717 76.1327 574.116 72.7665 579.433 67.395L610.18 36.0968C612.982 33.232 616.909 31.4892 621.22 31.4892C629.769 31.4892 636.689 38.3886 636.689 46.9115C636.689 55.4343 629.769 62.3577 621.22 62.3577C616.885 62.3577 612.982 60.5672 610.18 57.7262L604.529 51.9727L594.878 61.7847L600.338 67.3472C605.654 72.7426 613.054 76.0849 621.244 76.0849C626.919 76.0849 632.235 74.4615 636.713 71.6445V74.6525H651.919V19.1704H636.713Z" fill="url(#paint52_linear_1598_1218)"/>
<path d="M636.713 63.7929V66.801C632.235 64.0078 626.919 62.3844 621.243 62.3844C613.054 62.3844 605.654 65.7267 600.338 71.1221L569.59 102.349C566.789 105.214 562.861 106.956 558.551 106.956C550.002 106.956 543.082 100.057 543.082 91.534C543.082 83.0111 550.026 76.1117 558.551 76.1117C562.885 76.1117 566.789 77.8783 569.59 80.7193L575.266 86.4967L584.916 76.6846L579.433 71.1221C574.116 65.7267 566.717 62.3844 558.527 62.3844C552.852 62.3844 547.56 64.0078 543.058 66.801V44.6225H527.875V119.323H543.058V116.315C547.56 119.108 552.876 120.755 558.527 120.755C566.717 120.755 574.116 117.389 579.433 112.017L610.18 80.7193C612.982 77.8544 616.909 76.1117 621.22 76.1117C629.768 76.1117 636.689 83.0111 636.689 91.534C636.689 100.057 629.768 106.98 621.22 106.98C616.885 106.98 612.982 105.19 610.18 102.349L604.529 96.5951L594.878 106.407L600.338 111.97C605.654 117.365 613.054 120.707 621.243 120.707C626.919 120.707 632.235 119.084 636.713 116.267V119.275H651.919V63.7929H636.713Z" fill="url(#paint53_linear_1598_1218)"/>
<path d="M636.713 108.415V111.423C632.235 108.63 626.919 107.007 621.243 107.007C613.054 107.007 605.654 110.349 600.338 115.744L569.59 146.971C566.789 149.836 562.861 151.579 558.551 151.579C550.002 151.579 543.082 144.679 543.082 136.156C543.082 127.633 550.026 120.734 558.551 120.734C562.885 120.734 566.789 122.501 569.59 125.342L575.266 131.119L584.916 121.307L579.433 115.744C574.116 110.349 566.717 107.007 558.527 107.007C552.852 107.007 547.56 108.63 543.058 111.423V89.2448H527.875V163.945H543.058V160.937C547.56 163.73 552.876 165.378 558.527 165.378C566.717 165.378 574.116 162.011 579.433 156.64L610.18 125.342C612.982 122.477 616.909 120.734 621.22 120.734C629.768 120.734 636.689 127.633 636.689 136.156C636.689 144.679 629.768 151.602 621.22 151.602C616.885 151.602 612.982 149.812 610.18 146.971L604.529 141.217L594.878 151.03L600.338 156.592C605.654 161.987 613.054 165.33 621.243 165.33C626.919 165.33 632.235 163.706 636.713 160.889V163.897H651.919V108.415H636.713Z" fill="url(#paint54_linear_1598_1218)"/>
<path d="M636.713 153.038V156.046C632.235 153.253 626.919 151.629 621.243 151.629C613.054 151.629 605.654 154.972 600.338 160.367L569.59 191.594C566.789 194.458 562.861 196.201 558.551 196.201C550.002 196.201 543.082 189.302 543.082 180.779C543.082 172.256 550.026 165.357 558.551 165.357C562.885 165.357 566.789 167.123 569.59 169.964L575.266 175.741L584.916 165.929L579.433 160.367C574.116 154.972 566.717 151.629 558.527 151.629C552.852 151.629 547.56 153.253 543.058 156.046V133.867H527.875V208.568H543.058V205.56C547.56 208.353 552.876 210 558.527 210C566.717 210 574.116 206.634 579.433 201.262L610.18 169.964C612.982 167.099 616.909 165.357 621.22 165.357C629.768 165.357 636.689 172.256 636.689 180.779C636.689 189.302 629.768 196.225 621.22 196.225C616.885 196.225 612.982 194.434 610.18 191.594L604.529 185.84L594.878 195.652L600.338 201.215C605.654 206.61 613.054 209.952 621.243 209.952C626.919 209.952 632.235 208.329 636.713 205.512V208.52H651.919V153.038H636.713Z" fill="url(#paint55_linear_1598_1218)"/>
<path d="M746.288 19.1704V22.1785C741.81 19.3853 736.494 17.7619 730.819 17.7619C722.629 17.7619 715.229 21.1042 709.913 26.4996L679.166 57.7262C676.364 60.591 672.437 62.3338 668.126 62.3338C659.577 62.3338 652.657 55.4343 652.657 46.9115C652.657 38.3886 659.601 31.4892 668.126 31.4892C672.461 31.4892 676.364 33.2558 679.166 36.0968L684.841 41.8742L694.491 32.0622L689.008 26.4996C683.692 21.1042 676.292 17.7619 668.102 17.7619C662.427 17.7619 657.135 19.3853 652.633 22.1785V0H637.451V74.7003H652.633V71.6922C657.135 74.4854 662.451 76.1327 668.102 76.1327C676.292 76.1327 683.692 72.7665 689.008 67.395L719.755 36.0968C722.557 33.232 726.484 31.4892 730.795 31.4892C739.344 31.4892 746.264 38.3886 746.264 46.9115C746.264 55.4343 739.344 62.3577 730.795 62.3577C726.46 62.3577 722.557 60.5672 719.755 57.7262L714.104 51.9727L704.453 61.7847L709.913 67.3472C715.229 72.7426 722.629 76.0849 730.819 76.0849C736.494 76.0849 741.81 74.4615 746.288 71.6445V74.6525H761.494V19.1704H746.288Z" fill="url(#paint56_linear_1598_1218)"/>
<path d="M746.288 63.7929V66.801C741.81 64.0078 736.494 62.3844 730.818 62.3844C722.629 62.3844 715.229 65.7267 709.913 71.1221L679.166 102.349C676.364 105.214 672.437 106.956 668.126 106.956C659.577 106.956 652.657 100.057 652.657 91.534C652.657 83.0111 659.601 76.1117 668.126 76.1117C672.46 76.1117 676.364 77.8783 679.166 80.7193L684.841 86.4967L694.491 76.6846L689.008 71.1221C683.691 65.7267 676.292 62.3844 668.102 62.3844C662.427 62.3844 657.135 64.0078 652.633 66.801V44.6225H637.45V119.323H652.633V116.315C657.135 119.108 662.451 120.755 668.102 120.755C676.292 120.755 683.691 117.389 689.008 112.017L719.755 80.7193C722.557 77.8544 726.484 76.1117 730.795 76.1117C739.344 76.1117 746.264 83.0111 746.264 91.534C746.264 100.057 739.344 106.98 730.795 106.98C726.46 106.98 722.557 105.19 719.755 102.349L714.104 96.5951L704.453 106.407L709.913 111.97C715.229 117.365 722.629 120.707 730.818 120.707C736.494 120.707 741.81 119.084 746.288 116.267V119.275H761.494V63.7929H746.288Z" fill="url(#paint57_linear_1598_1218)"/>
<path d="M746.288 108.415V111.423C741.81 108.63 736.494 107.007 730.818 107.007C722.629 107.007 715.229 110.349 709.913 115.744L679.166 146.971C676.364 149.836 672.437 151.579 668.126 151.579C659.577 151.579 652.657 144.679 652.657 136.156C652.657 127.633 659.601 120.734 668.126 120.734C672.46 120.734 676.364 122.501 679.166 125.342L684.841 131.119L694.491 121.307L689.008 115.744C683.691 110.349 676.292 107.007 668.102 107.007C662.427 107.007 657.135 108.63 652.633 111.423V89.2448H637.45V163.945H652.633V160.937C657.135 163.73 662.451 165.378 668.102 165.378C676.292 165.378 683.691 162.011 689.008 156.64L719.755 125.342C722.557 122.477 726.484 120.734 730.795 120.734C739.344 120.734 746.264 127.633 746.264 136.156C746.264 144.679 739.344 151.602 730.795 151.602C726.46 151.602 722.557 149.812 719.755 146.971L714.104 141.217L704.453 151.03L709.913 156.592C715.229 161.987 722.629 165.33 730.818 165.33C736.494 165.33 741.81 163.706 746.288 160.889V163.897H761.494V108.415H746.288Z" fill="url(#paint58_linear_1598_1218)"/>
<path d="M746.288 153.038V156.046C741.81 153.253 736.494 151.629 730.818 151.629C722.629 151.629 715.229 154.972 709.913 160.367L679.166 191.594C676.364 194.458 672.437 196.201 668.126 196.201C659.577 196.201 652.657 189.302 652.657 180.779C652.657 172.256 659.601 165.357 668.126 165.357C672.46 165.357 676.364 167.123 679.166 169.964L684.841 175.741L694.491 165.929L689.008 160.367C683.691 154.972 676.292 151.629 668.102 151.629C662.427 151.629 657.135 153.253 652.633 156.046V133.867H637.45V208.568H652.633V205.56C657.135 208.353 662.451 210 668.102 210C676.292 210 683.691 206.634 689.008 201.262L719.755 169.964C722.557 167.099 726.484 165.357 730.795 165.357C739.344 165.357 746.264 172.256 746.264 180.779C746.264 189.302 739.344 196.225 730.795 196.225C726.46 196.225 722.557 194.434 719.755 191.594L714.104 185.84L704.453 195.652L709.913 201.215C715.229 206.61 722.629 209.952 730.818 209.952C736.494 209.952 741.81 208.329 746.288 205.512V208.52H761.494V153.038H746.288Z" fill="url(#paint59_linear_1598_1218)"/>
<path d="M855.863 19.1704V22.1785C851.385 19.3853 846.069 17.7619 840.394 17.7619C832.204 17.7619 824.804 21.1042 819.488 26.4996L788.741 57.7262C785.939 60.591 782.012 62.3338 777.701 62.3338C769.152 62.3338 762.232 55.4343 762.232 46.9115C762.232 38.3886 769.176 31.4892 777.701 31.4892C782.036 31.4892 785.939 33.2558 788.741 36.0968L794.416 41.8742L804.067 32.0622L798.583 26.4996C793.267 21.1042 785.867 17.7619 777.677 17.7619C772.002 17.7619 766.71 19.3853 762.208 22.1785V0H747.026V74.7003H762.208V71.6922C766.71 74.4854 772.026 76.1327 777.677 76.1327C785.867 76.1327 793.267 72.7665 798.583 67.395L829.33 36.0968C832.132 33.232 836.059 31.4892 840.37 31.4892C848.919 31.4892 855.839 38.3886 855.839 46.9115C855.839 55.4343 848.919 62.3577 840.37 62.3577C836.035 62.3577 832.132 60.5672 829.33 57.7262L823.679 51.9727L814.028 61.7847L819.488 67.3472C824.804 72.7426 832.204 76.0849 840.394 76.0849C846.069 76.0849 851.385 74.4615 855.863 71.6445V74.6525H871.069V19.1704H855.863Z" fill="url(#paint60_linear_1598_1218)"/>
<path d="M855.863 63.7929V66.801C851.385 64.0078 846.069 62.3844 840.394 62.3844C832.204 62.3844 824.804 65.7267 819.488 71.1221L788.741 102.349C785.939 105.214 782.012 106.956 777.701 106.956C769.152 106.956 762.232 100.057 762.232 91.534C762.232 83.0111 769.176 76.1117 777.701 76.1117C782.036 76.1117 785.939 77.8783 788.741 80.7193L794.416 86.4967L804.067 76.6846L798.583 71.1221C793.267 65.7267 785.867 62.3844 777.677 62.3844C772.002 62.3844 766.71 64.0078 762.208 66.801V44.6225H747.026V119.323H762.208V116.315C766.71 119.108 772.026 120.755 777.677 120.755C785.867 120.755 793.267 117.389 798.583 112.017L829.33 80.7193C832.132 77.8544 836.059 76.1117 840.37 76.1117C848.919 76.1117 855.839 83.0111 855.839 91.534C855.839 100.057 848.919 106.98 840.37 106.98C836.035 106.98 832.132 105.19 829.33 102.349L823.679 96.5951L814.028 106.407L819.488 111.97C824.804 117.365 832.204 120.707 840.394 120.707C846.069 120.707 851.385 119.084 855.863 116.267V119.275H871.069V63.7929H855.863Z" fill="url(#paint61_linear_1598_1218)"/>
<path d="M855.863 108.415V111.423C851.385 108.63 846.069 107.007 840.394 107.007C832.204 107.007 824.804 110.349 819.488 115.744L788.741 146.971C785.939 149.836 782.012 151.579 777.701 151.579C769.152 151.579 762.232 144.679 762.232 136.156C762.232 127.633 769.176 120.734 777.701 120.734C782.036 120.734 785.939 122.501 788.741 125.342L794.416 131.119L804.067 121.307L798.583 115.744C793.267 110.349 785.867 107.007 777.677 107.007C772.002 107.007 766.71 108.63 762.208 111.423V89.2448H747.026V163.945H762.208V160.937C766.71 163.73 772.026 165.378 777.677 165.378C785.867 165.378 793.267 162.011 798.583 156.64L829.33 125.342C832.132 122.477 836.059 120.734 840.37 120.734C848.919 120.734 855.839 127.633 855.839 136.156C855.839 144.679 848.919 151.602 840.37 151.602C836.035 151.602 832.132 149.812 829.33 146.971L823.679 141.217L814.028 151.03L819.488 156.592C824.804 161.987 832.204 165.33 840.394 165.33C846.069 165.33 851.385 163.706 855.863 160.889V163.897H871.069V108.415H855.863Z" fill="url(#paint62_linear_1598_1218)"/>
<path d="M855.863 153.038V156.046C851.385 153.253 846.069 151.629 840.394 151.629C832.204 151.629 824.804 154.972 819.488 160.367L788.741 191.594C785.939 194.458 782.012 196.201 777.701 196.201C769.152 196.201 762.232 189.302 762.232 180.779C762.232 172.256 769.176 165.357 777.701 165.357C782.036 165.357 785.939 167.123 788.741 169.964L794.416 175.741L804.067 165.929L798.583 160.367C793.267 154.972 785.867 151.629 777.677 151.629C772.002 151.629 766.71 153.253 762.208 156.046V133.867H747.026V208.568H762.208V205.56C766.71 208.353 772.026 210 777.677 210C785.867 210 793.267 206.634 798.583 201.262L829.33 169.964C832.132 167.099 836.059 165.357 840.37 165.357C848.919 165.357 855.839 172.256 855.839 180.779C855.839 189.302 848.919 196.225 840.37 196.225C836.035 196.225 832.132 194.434 829.33 191.594L823.679 185.84L814.028 195.652L819.488 201.215C824.804 206.61 832.204 209.952 840.394 209.952C846.069 209.952 851.385 208.329 855.863 205.512V208.52H871.069V153.038H855.863Z" fill="url(#paint63_linear_1598_1218)"/>
<defs>
<linearGradient id="paint0_linear_1598_1218" x1="906.841" y1="206.858" x2="908" y2="33.5" gradientUnits="userSpaceOnUse">
<stop stop-color="#29252B"/>
<stop offset="1" stop-color="#29252B" stop-opacity="0"/>
</linearGradient>
<linearGradient id="paint1_linear_1598_1218" x1="906.841" y1="206.858" x2="908" y2="33.5" gradientUnits="userSpaceOnUse">
<stop stop-color="#29252B"/>
<stop offset="1" stop-color="#29252B" stop-opacity="0"/>
</linearGradient>
<linearGradient id="paint2_linear_1598_1218" x1="906.841" y1="206.858" x2="908" y2="33.5" gradientUnits="userSpaceOnUse">
<stop stop-color="#29252B"/>
<stop offset="1" stop-color="#29252B" stop-opacity="0"/>
</linearGradient>
<linearGradient id="paint3_linear_1598_1218" x1="906.841" y1="206.858" x2="908" y2="33.5" gradientUnits="userSpaceOnUse">
<stop stop-color="#29252B"/>
<stop offset="1" stop-color="#29252B" stop-opacity="0"/>
</linearGradient>
<linearGradient id="paint4_linear_1598_1218" x1="906.841" y1="206.858" x2="908" y2="33.5" gradientUnits="userSpaceOnUse">
<stop stop-color="#29252B"/>
<stop offset="1" stop-color="#29252B" stop-opacity="0"/>
</linearGradient>
<linearGradient id="paint5_linear_1598_1218" x1="906.841" y1="206.858" x2="908" y2="33.5" gradientUnits="userSpaceOnUse">
<stop stop-color="#29252B"/>
<stop offset="1" stop-color="#29252B" stop-opacity="0"/>
</linearGradient>
<linearGradient id="paint6_linear_1598_1218" x1="906.841" y1="206.858" x2="908" y2="33.5" gradientUnits="userSpaceOnUse">
<stop stop-color="#29252B"/>
<stop offset="1" stop-color="#29252B" stop-opacity="0"/>
</linearGradient>
<linearGradient id="paint7_linear_1598_1218" x1="906.841" y1="206.858" x2="908" y2="33.5" gradientUnits="userSpaceOnUse">
<stop stop-color="#29252B"/>
<stop offset="1" stop-color="#29252B" stop-opacity="0"/>
</linearGradient>
<linearGradient id="paint8_linear_1598_1218" x1="906.841" y1="206.858" x2="908" y2="33.5" gradientUnits="userSpaceOnUse">
<stop stop-color="#29252B"/>
<stop offset="1" stop-color="#29252B" stop-opacity="0"/>
</linearGradient>
<linearGradient id="paint9_linear_1598_1218" x1="906.841" y1="206.858" x2="908" y2="33.5" gradientUnits="userSpaceOnUse">
<stop stop-color="#29252B"/>
<stop offset="1" stop-color="#29252B" stop-opacity="0"/>
</linearGradient>
<linearGradient id="paint10_linear_1598_1218" x1="906.841" y1="206.858" x2="908" y2="33.5" gradientUnits="userSpaceOnUse">
<stop stop-color="#29252B"/>
<stop offset="1" stop-color="#29252B" stop-opacity="0"/>
</linearGradient>
<linearGradient id="paint11_linear_1598_1218" x1="906.841" y1="206.858" x2="908" y2="33.5" gradientUnits="userSpaceOnUse">
<stop stop-color="#29252B"/>
<stop offset="1" stop-color="#29252B" stop-opacity="0"/>
</linearGradient>
<linearGradient id="paint12_linear_1598_1218" x1="906.841" y1="206.858" x2="908" y2="33.5" gradientUnits="userSpaceOnUse">
<stop stop-color="#29252B"/>
<stop offset="1" stop-color="#29252B" stop-opacity="0"/>
</linearGradient>
<linearGradient id="paint13_linear_1598_1218" x1="906.841" y1="206.858" x2="908" y2="33.5" gradientUnits="userSpaceOnUse">
<stop stop-color="#29252B"/>
<stop offset="1" stop-color="#29252B" stop-opacity="0"/>
</linearGradient>
<linearGradient id="paint14_linear_1598_1218" x1="906.841" y1="206.858" x2="908" y2="33.5" gradientUnits="userSpaceOnUse">
<stop stop-color="#29252B"/>
<stop offset="1" stop-color="#29252B" stop-opacity="0"/>
</linearGradient>
<linearGradient id="paint15_linear_1598_1218" x1="906.841" y1="206.858" x2="908" y2="33.5" gradientUnits="userSpaceOnUse">
<stop stop-color="#29252B"/>
<stop offset="1" stop-color="#29252B" stop-opacity="0"/>
</linearGradient>
<linearGradient id="paint16_linear_1598_1218" x1="906.841" y1="206.858" x2="908" y2="33.5" gradientUnits="userSpaceOnUse">
<stop stop-color="#29252B"/>
<stop offset="1" stop-color="#29252B" stop-opacity="0"/>
</linearGradient>
<linearGradient id="paint17_linear_1598_1218" x1="906.841" y1="206.858" x2="908" y2="33.5" gradientUnits="userSpaceOnUse">
<stop stop-color="#29252B"/>
<stop offset="1" stop-color="#29252B" stop-opacity="0"/>
</linearGradient>
<linearGradient id="paint18_linear_1598_1218" x1="906.841" y1="206.858" x2="908" y2="33.5" gradientUnits="userSpaceOnUse">
<stop stop-color="#29252B"/>
<stop offset="1" stop-color="#29252B" stop-opacity="0"/>
</linearGradient>
<linearGradient id="paint19_linear_1598_1218" x1="906.841" y1="206.858" x2="908" y2="33.5" gradientUnits="userSpaceOnUse">
<stop stop-color="#29252B"/>
<stop offset="1" stop-color="#29252B" stop-opacity="0"/>
</linearGradient>
<linearGradient id="paint20_linear_1598_1218" x1="906.841" y1="206.858" x2="908" y2="33.5" gradientUnits="userSpaceOnUse">
<stop stop-color="#29252B"/>
<stop offset="1" stop-color="#29252B" stop-opacity="0"/>
</linearGradient>
<linearGradient id="paint21_linear_1598_1218" x1="906.841" y1="206.858" x2="908" y2="33.5" gradientUnits="userSpaceOnUse">
<stop stop-color="#29252B"/>
<stop offset="1" stop-color="#29252B" stop-opacity="0"/>
</linearGradient>
<linearGradient id="paint22_linear_1598_1218" x1="906.841" y1="206.858" x2="908" y2="33.5" gradientUnits="userSpaceOnUse">
<stop stop-color="#29252B"/>
<stop offset="1" stop-color="#29252B" stop-opacity="0"/>
</linearGradient>
<linearGradient id="paint23_linear_1598_1218" x1="906.841" y1="206.858" x2="908" y2="33.5" gradientUnits="userSpaceOnUse">
<stop stop-color="#29252B"/>
<stop offset="1" stop-color="#29252B" stop-opacity="0"/>
</linearGradient>
<linearGradient id="paint24_linear_1598_1218" x1="906.841" y1="206.858" x2="908" y2="33.5" gradientUnits="userSpaceOnUse">
<stop stop-color="#29252B"/>
<stop offset="1" stop-color="#29252B" stop-opacity="0"/>
</linearGradient>
<linearGradient id="paint25_linear_1598_1218" x1="906.841" y1="206.858" x2="908" y2="33.5" gradientUnits="userSpaceOnUse">
<stop stop-color="#29252B"/>
<stop offset="1" stop-color="#29252B" stop-opacity="0"/>
</linearGradient>
<linearGradient id="paint26_linear_1598_1218" x1="906.841" y1="206.858" x2="908" y2="33.5" gradientUnits="userSpaceOnUse">
<stop stop-color="#29252B"/>
<stop offset="1" stop-color="#29252B" stop-opacity="0"/>
</linearGradient>
<linearGradient id="paint27_linear_1598_1218" x1="906.841" y1="206.858" x2="908" y2="33.5" gradientUnits="userSpaceOnUse">
<stop stop-color="#29252B"/>
<stop offset="1" stop-color="#29252B" stop-opacity="0"/>
</linearGradient>
<linearGradient id="paint28_linear_1598_1218" x1="906.841" y1="206.858" x2="908" y2="33.5" gradientUnits="userSpaceOnUse">
<stop stop-color="#29252B"/>
<stop offset="1" stop-color="#29252B" stop-opacity="0"/>
</linearGradient>
<linearGradient id="paint29_linear_1598_1218" x1="906.841" y1="206.858" x2="908" y2="33.5" gradientUnits="userSpaceOnUse">
<stop stop-color="#29252B"/>
<stop offset="1" stop-color="#29252B" stop-opacity="0"/>
</linearGradient>
<linearGradient id="paint30_linear_1598_1218" x1="906.841" y1="206.858" x2="908" y2="33.5" gradientUnits="userSpaceOnUse">
<stop stop-color="#29252B"/>
<stop offset="1" stop-color="#29252B" stop-opacity="0"/>
</linearGradient>
<linearGradient id="paint31_linear_1598_1218" x1="906.841" y1="206.858" x2="908" y2="33.5" gradientUnits="userSpaceOnUse">
<stop stop-color="#29252B"/>
<stop offset="1" stop-color="#29252B" stop-opacity="0"/>
</linearGradient>
<linearGradient id="paint32_linear_1598_1218" x1="906.841" y1="206.858" x2="908" y2="33.5" gradientUnits="userSpaceOnUse">
<stop stop-color="#29252B"/>
<stop offset="1" stop-color="#29252B" stop-opacity="0"/>
</linearGradient>
<linearGradient id="paint33_linear_1598_1218" x1="906.841" y1="206.858" x2="908" y2="33.5" gradientUnits="userSpaceOnUse">
<stop stop-color="#29252B"/>
<stop offset="1" stop-color="#29252B" stop-opacity="0"/>
</linearGradient>
<linearGradient id="paint34_linear_1598_1218" x1="906.841" y1="206.858" x2="908" y2="33.5" gradientUnits="userSpaceOnUse">
<stop stop-color="#29252B"/>
<stop offset="1" stop-color="#29252B" stop-opacity="0"/>
</linearGradient>
<linearGradient id="paint35_linear_1598_1218" x1="906.841" y1="206.858" x2="908" y2="33.5" gradientUnits="userSpaceOnUse">
<stop stop-color="#29252B"/>
<stop offset="1" stop-color="#29252B" stop-opacity="0"/>
</linearGradient>
<linearGradient id="paint36_linear_1598_1218" x1="906.841" y1="206.858" x2="908" y2="33.5" gradientUnits="userSpaceOnUse">
<stop stop-color="#29252B"/>
<stop offset="1" stop-color="#29252B" stop-opacity="0"/>
</linearGradient>
<linearGradient id="paint37_linear_1598_1218" x1="906.841" y1="206.858" x2="908" y2="33.5" gradientUnits="userSpaceOnUse">
<stop stop-color="#29252B"/>
<stop offset="1" stop-color="#29252B" stop-opacity="0"/>
</linearGradient>
<linearGradient id="paint38_linear_1598_1218" x1="906.841" y1="206.858" x2="908" y2="33.5" gradientUnits="userSpaceOnUse">
<stop stop-color="#29252B"/>
<stop offset="1" stop-color="#29252B" stop-opacity="0"/>
</linearGradient>
<linearGradient id="paint39_linear_1598_1218" x1="906.841" y1="206.858" x2="908" y2="33.5" gradientUnits="userSpaceOnUse">
<stop stop-color="#29252B"/>
<stop offset="1" stop-color="#29252B" stop-opacity="0"/>
</linearGradient>
<linearGradient id="paint40_linear_1598_1218" x1="906.841" y1="206.858" x2="908" y2="33.5" gradientUnits="userSpaceOnUse">
<stop stop-color="#29252B"/>
<stop offset="1" stop-color="#29252B" stop-opacity="0"/>
</linearGradient>
<linearGradient id="paint41_linear_1598_1218" x1="906.841" y1="206.858" x2="908" y2="33.5" gradientUnits="userSpaceOnUse">
<stop stop-color="#29252B"/>
<stop offset="1" stop-color="#29252B" stop-opacity="0"/>
</linearGradient>
<linearGradient id="paint42_linear_1598_1218" x1="906.841" y1="206.858" x2="908" y2="33.5" gradientUnits="userSpaceOnUse">
<stop stop-color="#29252B"/>
<stop offset="1" stop-color="#29252B" stop-opacity="0"/>
</linearGradient>
<linearGradient id="paint43_linear_1598_1218" x1="906.841" y1="206.858" x2="908" y2="33.5" gradientUnits="userSpaceOnUse">
<stop stop-color="#29252B"/>
<stop offset="1" stop-color="#29252B" stop-opacity="0"/>
</linearGradient>
<linearGradient id="paint44_linear_1598_1218" x1="906.841" y1="206.858" x2="908" y2="33.5" gradientUnits="userSpaceOnUse">
<stop stop-color="#29252B"/>
<stop offset="1" stop-color="#29252B" stop-opacity="0"/>
</linearGradient>
<linearGradient id="paint45_linear_1598_1218" x1="906.841" y1="206.858" x2="908" y2="33.5" gradientUnits="userSpaceOnUse">
<stop stop-color="#29252B"/>
<stop offset="1" stop-color="#29252B" stop-opacity="0"/>
</linearGradient>
<linearGradient id="paint46_linear_1598_1218" x1="906.841" y1="206.858" x2="908" y2="33.5" gradientUnits="userSpaceOnUse">
<stop stop-color="#29252B"/>
<stop offset="1" stop-color="#29252B" stop-opacity="0"/>
</linearGradient>
<linearGradient id="paint47_linear_1598_1218" x1="906.841" y1="206.858" x2="908" y2="33.5" gradientUnits="userSpaceOnUse">
<stop stop-color="#29252B"/>
<stop offset="1" stop-color="#29252B" stop-opacity="0"/>
</linearGradient>
<linearGradient id="paint48_linear_1598_1218" x1="906.841" y1="206.858" x2="908" y2="33.5" gradientUnits="userSpaceOnUse">
<stop stop-color="#29252B"/>
<stop offset="1" stop-color="#29252B" stop-opacity="0"/>
</linearGradient>
<linearGradient id="paint49_linear_1598_1218" x1="906.841" y1="206.858" x2="908" y2="33.5" gradientUnits="userSpaceOnUse">
<stop stop-color="#29252B"/>
<stop offset="1" stop-color="#29252B" stop-opacity="0"/>
</linearGradient>
<linearGradient id="paint50_linear_1598_1218" x1="906.841" y1="206.858" x2="908" y2="33.5" gradientUnits="userSpaceOnUse">
<stop stop-color="#29252B"/>
<stop offset="1" stop-color="#29252B" stop-opacity="0"/>
</linearGradient>
<linearGradient id="paint51_linear_1598_1218" x1="906.841" y1="206.858" x2="908" y2="33.5" gradientUnits="userSpaceOnUse">
<stop stop-color="#29252B"/>
<stop offset="1" stop-color="#29252B" stop-opacity="0"/>
</linearGradient>
<linearGradient id="paint52_linear_1598_1218" x1="906.841" y1="206.858" x2="908" y2="33.5" gradientUnits="userSpaceOnUse">
<stop stop-color="#29252B"/>
<stop offset="1" stop-color="#29252B" stop-opacity="0"/>
</linearGradient>
<linearGradient id="paint53_linear_1598_1218" x1="906.841" y1="206.858" x2="908" y2="33.5" gradientUnits="userSpaceOnUse">
<stop stop-color="#29252B"/>
<stop offset="1" stop-color="#29252B" stop-opacity="0"/>
</linearGradient>
<linearGradient id="paint54_linear_1598_1218" x1="906.841" y1="206.858" x2="908" y2="33.5" gradientUnits="userSpaceOnUse">
<stop stop-color="#29252B"/>
<stop offset="1" stop-color="#29252B" stop-opacity="0"/>
</linearGradient>
<linearGradient id="paint55_linear_1598_1218" x1="906.841" y1="206.858" x2="908" y2="33.5" gradientUnits="userSpaceOnUse">
<stop stop-color="#29252B"/>
<stop offset="1" stop-color="#29252B" stop-opacity="0"/>
</linearGradient>
<linearGradient id="paint56_linear_1598_1218" x1="906.841" y1="206.858" x2="908" y2="33.5" gradientUnits="userSpaceOnUse">
<stop stop-color="#29252B"/>
<stop offset="1" stop-color="#29252B" stop-opacity="0"/>
</linearGradient>
<linearGradient id="paint57_linear_1598_1218" x1="906.841" y1="206.858" x2="908" y2="33.5" gradientUnits="userSpaceOnUse">
<stop stop-color="#29252B"/>
<stop offset="1" stop-color="#29252B" stop-opacity="0"/>
</linearGradient>
<linearGradient id="paint58_linear_1598_1218" x1="906.841" y1="206.858" x2="908" y2="33.5" gradientUnits="userSpaceOnUse">
<stop stop-color="#29252B"/>
<stop offset="1" stop-color="#29252B" stop-opacity="0"/>
</linearGradient>
<linearGradient id="paint59_linear_1598_1218" x1="906.841" y1="206.858" x2="908" y2="33.5" gradientUnits="userSpaceOnUse">
<stop stop-color="#29252B"/>
<stop offset="1" stop-color="#29252B" stop-opacity="0"/>
</linearGradient>
<linearGradient id="paint60_linear_1598_1218" x1="906.841" y1="206.858" x2="908" y2="33.5" gradientUnits="userSpaceOnUse">
<stop stop-color="#29252B"/>
<stop offset="1" stop-color="#29252B" stop-opacity="0"/>
</linearGradient>
<linearGradient id="paint61_linear_1598_1218" x1="906.841" y1="206.858" x2="908" y2="33.5" gradientUnits="userSpaceOnUse">
<stop stop-color="#29252B"/>
<stop offset="1" stop-color="#29252B" stop-opacity="0"/>
</linearGradient>
<linearGradient id="paint62_linear_1598_1218" x1="906.841" y1="206.858" x2="908" y2="33.5" gradientUnits="userSpaceOnUse">
<stop stop-color="#29252B"/>
<stop offset="1" stop-color="#29252B" stop-opacity="0"/>
</linearGradient>
<linearGradient id="paint63_linear_1598_1218" x1="906.841" y1="206.858" x2="908" y2="33.5" gradientUnits="userSpaceOnUse">
<stop stop-color="#29252B"/>
<stop offset="1" stop-color="#29252B" stop-opacity="0"/>
</linearGradient>
</defs>
</svg>
