<svg xmlns="http://www.w3.org/2000/svg" width="1728" height="210" fill="none"><path fill="url(#a)" d="M965.438 19.17v3.008a29.17 29.17 0 0 0-15.469-4.416 29.25 29.25 0 0 0-20.906 8.738l-30.747 31.226c-2.802 2.865-6.729 4.608-11.04 4.608-8.549 0-15.469-6.9-15.469-15.423s6.944-15.422 15.469-15.422c4.335 0 8.238 1.767 11.04 4.608l5.675 5.777 9.651-9.812-5.484-5.562a29.25 29.25 0 0 0-20.906-8.738 29.24 29.24 0 0 0-15.469 4.416V0h-15.182v74.7h15.182v-3.008c4.502 2.793 9.818 4.44 15.469 4.44 8.19 0 15.59-3.366 20.906-8.737l30.747-31.298c2.802-2.865 6.729-4.608 11.04-4.608 8.549 0 15.469 6.9 15.469 15.422s-6.92 15.447-15.469 15.447c-4.335 0-8.238-1.79-11.04-4.632l-5.651-5.753-9.65 9.812 5.459 5.562a29.25 29.25 0 0 0 20.906 8.738 29 29 0 0 0 15.469-4.44v3.008h15.206V19.17z"/><path fill="url(#b)" d="M965.438 63.793V66.8a29.17 29.17 0 0 0-15.469-4.417 29.25 29.25 0 0 0-20.906 8.738l-30.747 31.227c-2.802 2.865-6.729 4.607-11.04 4.607-8.549 0-15.469-6.899-15.469-15.422s6.944-15.422 15.469-15.422c4.335 0 8.238 1.766 11.04 4.607l5.675 5.778 9.651-9.812-5.484-5.563a29.25 29.25 0 0 0-20.905-8.738 29.24 29.24 0 0 0-15.47 4.417V44.623h-15.182v74.7h15.182v-3.008c4.502 2.793 9.818 4.44 15.47 4.44 8.189 0 15.589-3.366 20.905-8.738l30.747-31.298c2.802-2.865 6.729-4.607 11.04-4.607 8.549 0 15.469 6.9 15.469 15.422s-6.92 15.446-15.469 15.446c-4.335 0-8.238-1.79-11.04-4.631l-5.651-5.754-9.65 9.812 5.459 5.563a29.25 29.25 0 0 0 20.906 8.737 29 29 0 0 0 15.469-4.44v3.008h15.206V63.793z"/><path fill="url(#c)" d="M965.438 108.415v3.008a29.18 29.18 0 0 0-15.469-4.416 29.25 29.25 0 0 0-20.906 8.737l-30.747 31.227c-2.802 2.865-6.729 4.608-11.04 4.608-8.549 0-15.469-6.9-15.469-15.423s6.944-15.422 15.469-15.422c4.335 0 8.238 1.767 11.04 4.608l5.675 5.777 9.651-9.812-5.484-5.563a29.25 29.25 0 0 0-20.905-8.737 29.24 29.24 0 0 0-15.47 4.416V89.245h-15.182v74.7h15.182v-3.008c4.502 2.793 9.818 4.441 15.47 4.441 8.189 0 15.589-3.367 20.905-8.738l30.747-31.298c2.802-2.865 6.729-4.608 11.04-4.608 8.549 0 15.469 6.899 15.469 15.422s-6.92 15.446-15.469 15.446c-4.335 0-8.238-1.79-11.04-4.631l-5.651-5.754-9.65 9.813 5.459 5.562a29.25 29.25 0 0 0 20.906 8.738 29 29 0 0 0 15.469-4.441v3.008h15.206v-55.482z"/><path fill="url(#d)" d="M965.438 153.038v3.008a29.18 29.18 0 0 0-15.469-4.417c-8.19 0-15.59 3.343-20.906 8.738l-30.747 31.227c-2.802 2.864-6.729 4.607-11.04 4.607-8.549 0-15.469-6.899-15.469-15.422s6.944-15.422 15.469-15.422c4.335 0 8.238 1.766 11.04 4.607l5.675 5.777 9.651-9.812-5.484-5.562a29.25 29.25 0 0 0-20.905-8.738 29.24 29.24 0 0 0-15.47 4.417v-22.179h-15.182v74.701h15.182v-3.008c4.502 2.793 9.818 4.44 15.47 4.44 8.189 0 15.589-3.366 20.905-8.738l30.747-31.298c2.802-2.865 6.729-4.607 11.04-4.607 8.549 0 15.469 6.899 15.469 15.422s-6.92 15.446-15.469 15.446c-4.335 0-8.238-1.791-11.04-4.631l-5.651-5.754-9.65 9.812 5.459 5.563a29.25 29.25 0 0 0 20.906 8.737 29 29 0 0 0 15.469-4.44v3.008h15.206v-55.482z"/><path fill="url(#e)" d="M1075.01 19.17v3.008a29.14 29.14 0 0 0-15.47-4.416c-8.19 0-15.59 3.342-20.9 8.738l-30.75 31.226c-2.8 2.865-6.73 4.608-11.039 4.608-8.549 0-15.469-6.9-15.469-15.423s6.944-15.422 15.469-15.422c4.339 0 8.239 1.767 11.039 4.608l5.68 5.777 9.65-9.812-5.49-5.562a29.23 29.23 0 0 0-20.903-8.738 29.24 29.24 0 0 0-15.469 4.416V0h-15.182v74.7h15.182v-3.008c4.502 2.793 9.818 4.44 15.469 4.44 8.193 0 15.593-3.366 20.903-8.737l30.75-31.298c2.8-2.865 6.73-4.608 11.04-4.608 8.55 0 15.47 6.9 15.47 15.422s-6.92 15.447-15.47 15.447c-4.33 0-8.24-1.79-11.04-4.632l-5.65-5.753-9.65 9.812 5.46 5.562a29.23 29.23 0 0 0 20.9 8.738c5.68 0 11-1.623 15.47-4.44v3.008h15.21V19.17z"/><path fill="url(#f)" d="M1075.01 63.793V66.8a29.14 29.14 0 0 0-15.47-4.417c-8.19 0-15.59 3.343-20.9 8.738l-30.75 31.227c-2.8 2.865-6.73 4.607-11.039 4.607-8.549 0-15.469-6.899-15.469-15.422s6.944-15.422 15.469-15.422c4.339 0 8.239 1.766 11.039 4.607l5.68 5.778 9.65-9.812-5.49-5.563a29.23 29.23 0 0 0-20.903-8.738 29.24 29.24 0 0 0-15.469 4.417V44.623h-15.182v74.7h15.182v-3.008c4.502 2.793 9.818 4.44 15.469 4.44 8.193 0 15.593-3.366 20.903-8.738l30.75-31.298c2.8-2.865 6.73-4.607 11.04-4.607 8.55 0 15.47 6.9 15.47 15.422s-6.92 15.446-15.47 15.446c-4.33 0-8.24-1.79-11.04-4.631l-5.65-5.754-9.65 9.812 5.46 5.563a29.23 29.23 0 0 0 20.9 8.737c5.68 0 11-1.623 15.47-4.44v3.008h15.21V63.793z"/><path fill="url(#g)" d="M1075.01 108.415v3.008a29.14 29.14 0 0 0-15.47-4.416c-8.19 0-15.59 3.342-20.9 8.737l-30.75 31.227c-2.8 2.865-6.73 4.608-11.039 4.608-8.549 0-15.469-6.9-15.469-15.423s6.944-15.422 15.469-15.422c4.339 0 8.239 1.767 11.039 4.608l5.68 5.777 9.65-9.812-5.49-5.563a29.23 29.23 0 0 0-20.903-8.737 29.24 29.24 0 0 0-15.469 4.416V89.245h-15.182v74.7h15.182v-3.008c4.502 2.793 9.818 4.441 15.469 4.441 8.193 0 15.593-3.367 20.903-8.738l30.75-31.298c2.8-2.865 6.73-4.608 11.04-4.608 8.55 0 15.47 6.899 15.47 15.422s-6.92 15.446-15.47 15.446c-4.33 0-8.24-1.79-11.04-4.631l-5.65-5.754-9.65 9.813 5.46 5.562a29.23 29.23 0 0 0 20.9 8.738c5.68 0 11-1.624 15.47-4.441v3.008h15.21v-55.482z"/><path fill="url(#h)" d="M1075.01 153.038v3.008a29.15 29.15 0 0 0-15.47-4.417c-8.19 0-15.59 3.343-20.9 8.738l-30.75 31.227c-2.8 2.864-6.73 4.607-11.039 4.607-8.549 0-15.469-6.899-15.469-15.422s6.944-15.422 15.469-15.422c4.339 0 8.239 1.766 11.039 4.607l5.68 5.777 9.65-9.812-5.49-5.562a29.23 29.23 0 0 0-20.903-8.738 29.24 29.24 0 0 0-15.469 4.417v-22.179h-15.182v74.701h15.182v-3.008c4.502 2.793 9.818 4.44 15.469 4.44 8.193 0 15.593-3.366 20.903-8.738l30.75-31.298c2.8-2.865 6.73-4.607 11.04-4.607 8.55 0 15.47 6.899 15.47 15.422s-6.92 15.446-15.47 15.446c-4.33 0-8.24-1.791-11.04-4.631l-5.65-5.754-9.65 9.812 5.46 5.563a29.23 29.23 0 0 0 20.9 8.737c5.68 0 11-1.623 15.47-4.44v3.008h15.21v-55.482z"/><path fill="url(#i)" d="M1184.59 19.17v3.008a29.2 29.2 0 0 0-15.47-4.416c-8.19 0-15.59 3.342-20.91 8.738l-30.74 31.226c-2.81 2.865-6.73 4.608-11.04 4.608-8.55 0-15.47-6.9-15.47-15.423s6.94-15.422 15.47-15.422c4.33 0 8.23 1.767 11.04 4.608l5.67 5.777 9.65-9.812-5.48-5.562a29.27 29.27 0 0 0-20.91-8.738c-5.67 0-10.97 1.623-15.47 4.416V0h-15.18v74.7h15.18v-3.008c4.5 2.793 9.82 4.44 15.47 4.44 8.19 0 15.59-3.366 20.91-8.737l30.75-31.298c2.8-2.865 6.72-4.608 11.03-4.608 8.55 0 15.47 6.9 15.47 15.422s-6.92 15.447-15.47 15.447c-4.33 0-8.23-1.79-11.03-4.632l-5.66-5.753-9.65 9.812 5.46 5.562a29.27 29.27 0 0 0 20.91 8.738c5.67 0 10.99-1.623 15.47-4.44v3.008h15.2V19.17z"/><path fill="url(#j)" d="M1184.59 63.793V66.8a29.2 29.2 0 0 0-15.47-4.417c-8.19 0-15.59 3.343-20.91 8.738l-30.74 31.227c-2.81 2.865-6.73 4.607-11.04 4.607-8.55 0-15.47-6.899-15.47-15.422s6.94-15.422 15.47-15.422c4.33 0 8.23 1.766 11.04 4.607l5.67 5.778 9.65-9.812-5.48-5.563a29.27 29.27 0 0 0-20.91-8.738c-5.67 0-10.97 1.624-15.47 4.417V44.623h-15.18v74.7h15.18v-3.008c4.5 2.793 9.82 4.44 15.47 4.44 8.19 0 15.59-3.366 20.91-8.738l30.75-31.298c2.8-2.865 6.72-4.607 11.03-4.607 8.55 0 15.47 6.9 15.47 15.422s-6.92 15.446-15.47 15.446c-4.33 0-8.23-1.79-11.03-4.631l-5.66-5.754-9.65 9.812 5.46 5.563a29.27 29.27 0 0 0 20.91 8.737c5.67 0 10.99-1.623 15.47-4.44v3.008h15.2V63.793z"/><path fill="url(#k)" d="M1184.59 108.415v3.008a29.2 29.2 0 0 0-15.47-4.416c-8.19 0-15.59 3.342-20.91 8.737l-30.74 31.227c-2.81 2.865-6.73 4.608-11.04 4.608-8.55 0-15.47-6.9-15.47-15.423s6.94-15.422 15.47-15.422c4.33 0 8.23 1.767 11.04 4.608l5.67 5.777 9.65-9.812-5.48-5.563a29.27 29.27 0 0 0-20.91-8.737c-5.67 0-10.97 1.623-15.47 4.416V89.245h-15.18v74.7h15.18v-3.008c4.5 2.793 9.82 4.441 15.47 4.441 8.19 0 15.59-3.367 20.91-8.738l30.75-31.298c2.8-2.865 6.72-4.608 11.03-4.608 8.55 0 15.47 6.899 15.47 15.422s-6.92 15.446-15.47 15.446c-4.33 0-8.23-1.79-11.03-4.631l-5.66-5.754-9.65 9.813 5.46 5.562a29.27 29.27 0 0 0 20.91 8.738c5.67 0 10.99-1.624 15.47-4.441v3.008h15.2v-55.482z"/><path fill="url(#l)" d="M1184.59 153.038v3.008a29.2 29.2 0 0 0-15.47-4.417c-8.19 0-15.59 3.343-20.91 8.738l-30.74 31.227c-2.81 2.864-6.73 4.607-11.04 4.607-8.55 0-15.47-6.899-15.47-15.422s6.94-15.422 15.47-15.422c4.33 0 8.23 1.766 11.04 4.607l5.67 5.777 9.65-9.812-5.48-5.562a29.27 29.27 0 0 0-20.91-8.738 29.25 29.25 0 0 0-15.47 4.417v-22.179h-15.18v74.701h15.18v-3.008c4.5 2.793 9.82 4.44 15.47 4.44 8.19 0 15.59-3.366 20.91-8.738l30.75-31.298c2.8-2.865 6.72-4.607 11.03-4.607 8.55 0 15.47 6.899 15.47 15.422s-6.92 15.446-15.47 15.446c-4.33 0-8.23-1.791-11.03-4.631l-5.66-5.754-9.65 9.812 5.46 5.563a29.27 29.27 0 0 0 20.91 8.737c5.67 0 10.99-1.623 15.47-4.44v3.008h15.2v-55.482z"/><path fill="url(#m)" d="M1294.16 19.17v3.008a29.14 29.14 0 0 0-15.47-4.416c-8.19 0-15.59 3.342-20.9 8.738l-30.75 31.226c-2.8 2.865-6.73 4.608-11.04 4.608-8.55 0-15.47-6.9-15.47-15.423s6.95-15.422 15.47-15.422c4.34 0 8.24 1.767 11.04 4.608l5.68 5.777 9.65-9.812-5.49-5.562a29.23 29.23 0 0 0-20.9-8.738 29.2 29.2 0 0 0-15.47 4.416V0h-15.18v74.7h15.18v-3.008c4.5 2.793 9.82 4.44 15.47 4.44 8.19 0 15.59-3.366 20.9-8.737l30.75-31.298c2.8-2.865 6.73-4.608 11.04-4.608 8.55 0 15.47 6.9 15.47 15.422s-6.92 15.447-15.47 15.447c-4.33 0-8.24-1.79-11.04-4.632l-5.65-5.753-9.65 9.812 5.46 5.562a29.23 29.23 0 0 0 20.9 8.738c5.68 0 11-1.623 15.47-4.44v3.008h15.21V19.17z"/><path fill="url(#n)" d="M1294.16 63.793V66.8a29.14 29.14 0 0 0-15.47-4.417c-8.19 0-15.59 3.343-20.9 8.738l-30.75 31.227c-2.8 2.865-6.73 4.607-11.04 4.607-8.55 0-15.47-6.899-15.47-15.422s6.95-15.422 15.47-15.422c4.34 0 8.24 1.766 11.04 4.607l5.68 5.778 9.65-9.812-5.49-5.563a29.23 29.23 0 0 0-20.9-8.738 29.2 29.2 0 0 0-15.47 4.417V44.623h-15.18v74.7h15.18v-3.008c4.5 2.793 9.82 4.44 15.47 4.44 8.19 0 15.59-3.366 20.9-8.738l30.75-31.298c2.8-2.865 6.73-4.607 11.04-4.607 8.55 0 15.47 6.9 15.47 15.422s-6.92 15.446-15.47 15.446c-4.33 0-8.24-1.79-11.04-4.631l-5.65-5.754-9.65 9.812 5.46 5.563a29.23 29.23 0 0 0 20.9 8.737c5.68 0 11-1.623 15.47-4.44v3.008h15.21V63.793z"/><path fill="url(#o)" d="M1294.16 108.415v3.008a29.14 29.14 0 0 0-15.47-4.416c-8.19 0-15.59 3.342-20.9 8.737l-30.75 31.227c-2.8 2.865-6.73 4.608-11.04 4.608-8.55 0-15.47-6.9-15.47-15.423s6.95-15.422 15.47-15.422c4.34 0 8.24 1.767 11.04 4.608l5.68 5.777 9.65-9.812-5.49-5.563a29.23 29.23 0 0 0-20.9-8.737c-5.68 0-10.97 1.623-15.47 4.416V89.245h-15.18v74.7h15.18v-3.008c4.5 2.793 9.82 4.441 15.47 4.441 8.19 0 15.59-3.367 20.9-8.738l30.75-31.298c2.8-2.865 6.73-4.608 11.04-4.608 8.55 0 15.47 6.899 15.47 15.422s-6.92 15.446-15.47 15.446c-4.33 0-8.24-1.79-11.04-4.631l-5.65-5.754-9.65 9.813 5.46 5.562a29.23 29.23 0 0 0 20.9 8.738c5.68 0 11-1.624 15.47-4.441v3.008h15.21v-55.482z"/><path fill="url(#p)" d="M1294.16 153.038v3.008a29.15 29.15 0 0 0-15.47-4.417c-8.19 0-15.59 3.343-20.9 8.738l-30.75 31.227c-2.8 2.864-6.73 4.607-11.04 4.607-8.55 0-15.47-6.899-15.47-15.422s6.95-15.422 15.47-15.422c4.34 0 8.24 1.766 11.04 4.607l5.68 5.777 9.65-9.812-5.49-5.562a29.23 29.23 0 0 0-20.9-8.738c-5.68 0-10.97 1.624-15.47 4.417v-22.179h-15.18v74.701h15.18v-3.008c4.5 2.793 9.82 4.44 15.47 4.44 8.19 0 15.59-3.366 20.9-8.738l30.75-31.298c2.8-2.865 6.73-4.607 11.04-4.607 8.55 0 15.47 6.899 15.47 15.422s-6.92 15.446-15.47 15.446c-4.33 0-8.24-1.791-11.04-4.631l-5.65-5.754-9.65 9.812 5.46 5.563a29.23 29.23 0 0 0 20.9 8.737c5.68 0 11-1.623 15.47-4.44v3.008h15.21v-55.482z"/><path fill="url(#q)" d="M1403.74 19.17v3.008a29.2 29.2 0 0 0-15.47-4.416c-8.19 0-15.59 3.342-20.91 8.738l-30.74 31.226c-2.81 2.865-6.73 4.608-11.04 4.608-8.55 0-15.47-6.9-15.47-15.423s6.94-15.422 15.47-15.422c4.33 0 8.23 1.767 11.04 4.608l5.67 5.777 9.65-9.812-5.48-5.562a29.27 29.27 0 0 0-20.91-8.738c-5.67 0-10.96 1.623-15.47 4.416V0h-15.18v74.7h15.18v-3.008c4.51 2.793 9.82 4.44 15.47 4.44 8.19 0 15.59-3.366 20.91-8.737l30.75-31.298c2.8-2.865 6.72-4.608 11.03-4.608 8.55 0 15.47 6.9 15.47 15.422s-6.92 15.447-15.47 15.447c-4.33 0-8.23-1.79-11.03-4.632l-5.66-5.753-9.65 9.812 5.46 5.562a29.27 29.27 0 0 0 20.91 8.738c5.67 0 10.99-1.623 15.47-4.44v3.008h15.2V19.17z"/><path fill="url(#r)" d="M1403.74 63.793V66.8a29.2 29.2 0 0 0-15.47-4.417c-8.19 0-15.59 3.343-20.91 8.738l-30.74 31.227c-2.81 2.865-6.73 4.607-11.04 4.607-8.55 0-15.47-6.899-15.47-15.422s6.94-15.422 15.47-15.422c4.33 0 8.23 1.766 11.04 4.607l5.67 5.778 9.65-9.812-5.48-5.563a29.27 29.27 0 0 0-20.91-8.738c-5.67 0-10.96 1.624-15.47 4.417V44.623h-15.18v74.7h15.18v-3.008c4.51 2.793 9.82 4.44 15.47 4.44 8.19 0 15.59-3.366 20.91-8.738l30.75-31.298c2.8-2.865 6.72-4.607 11.04-4.607 8.54 0 15.46 6.9 15.46 15.422s-6.92 15.446-15.46 15.446c-4.34 0-8.24-1.79-11.04-4.631l-5.66-5.754-9.65 9.812 5.46 5.563a29.27 29.27 0 0 0 20.91 8.737c5.67 0 10.99-1.623 15.47-4.44v3.008h15.2V63.793z"/><path fill="url(#s)" d="M1403.74 108.415v3.008a29.2 29.2 0 0 0-15.47-4.416c-8.19 0-15.59 3.342-20.91 8.737l-30.74 31.227c-2.81 2.865-6.73 4.608-11.04 4.608-8.55 0-15.47-6.9-15.47-15.423s6.94-15.422 15.47-15.422c4.33 0 8.23 1.767 11.04 4.608l5.67 5.777 9.65-9.812-5.48-5.563a29.27 29.27 0 0 0-20.91-8.737c-5.67 0-10.96 1.623-15.47 4.416V89.245h-15.18v74.7h15.18v-3.008c4.51 2.793 9.82 4.441 15.47 4.441 8.19 0 15.59-3.367 20.91-8.738l30.75-31.298c2.8-2.865 6.72-4.608 11.04-4.608 8.54 0 15.46 6.899 15.46 15.422s-6.92 15.446-15.46 15.446c-4.34 0-8.24-1.79-11.04-4.631l-5.66-5.754-9.65 9.813 5.46 5.562a29.27 29.27 0 0 0 20.91 8.738c5.67 0 10.99-1.624 15.47-4.441v3.008h15.2v-55.482z"/><path fill="url(#t)" d="M1403.74 153.038v3.008a29.2 29.2 0 0 0-15.47-4.417c-8.19 0-15.59 3.343-20.91 8.738l-30.74 31.227c-2.81 2.864-6.73 4.607-11.04 4.607-8.55 0-15.47-6.899-15.47-15.422s6.94-15.422 15.47-15.422c4.33 0 8.23 1.766 11.04 4.607l5.67 5.777 9.65-9.812-5.48-5.562a29.27 29.27 0 0 0-20.91-8.738c-5.67 0-10.96 1.624-15.47 4.417v-22.179h-15.18v74.701h15.18v-3.008c4.51 2.793 9.82 4.44 15.47 4.44 8.19 0 15.59-3.366 20.91-8.738l30.75-31.298c2.8-2.865 6.72-4.607 11.04-4.607 8.54 0 15.46 6.899 15.46 15.422s-6.92 15.446-15.46 15.446c-4.34 0-8.24-1.791-11.04-4.631l-5.66-5.754-9.65 9.812 5.46 5.563a29.27 29.27 0 0 0 20.91 8.737c5.67 0 10.99-1.623 15.47-4.44v3.008h15.2v-55.482z"/><path fill="url(#u)" d="M1513.31 19.17v3.008a29.14 29.14 0 0 0-15.47-4.416c-8.19 0-15.59 3.342-20.9 8.738l-30.75 31.226c-2.8 2.865-6.73 4.608-11.04 4.608-8.55 0-15.47-6.9-15.47-15.423s6.95-15.422 15.47-15.422c4.34 0 8.24 1.767 11.04 4.608l5.68 5.777 9.65-9.812-5.49-5.562a29.23 29.23 0 0 0-20.9-8.738 29.2 29.2 0 0 0-15.47 4.416V0h-15.18v74.7h15.18v-3.008c4.5 2.793 9.82 4.44 15.47 4.44 8.19 0 15.59-3.366 20.9-8.737l30.75-31.298c2.8-2.865 6.73-4.608 11.04-4.608 8.55 0 15.47 6.9 15.47 15.422s-6.92 15.447-15.47 15.447c-4.33 0-8.24-1.79-11.04-4.632l-5.65-5.753-9.65 9.812 5.46 5.562a29.23 29.23 0 0 0 20.9 8.738c5.68 0 11-1.623 15.47-4.44v3.008h15.21V19.17z"/><path fill="url(#v)" d="M1513.31 63.793V66.8a29.14 29.14 0 0 0-15.47-4.417c-8.19 0-15.59 3.343-20.9 8.738l-30.75 31.227c-2.8 2.865-6.73 4.607-11.04 4.607-8.55 0-15.47-6.899-15.47-15.422s6.95-15.422 15.47-15.422c4.34 0 8.24 1.766 11.04 4.607l5.68 5.778 9.65-9.812-5.49-5.563a29.23 29.23 0 0 0-20.9-8.738 29.2 29.2 0 0 0-15.47 4.417V44.623h-15.18v74.7h15.18v-3.008c4.5 2.793 9.82 4.44 15.47 4.44 8.19 0 15.59-3.366 20.9-8.738l30.75-31.298c2.8-2.865 6.73-4.607 11.04-4.607 8.55 0 15.47 6.9 15.47 15.422s-6.92 15.446-15.47 15.446c-4.33 0-8.24-1.79-11.04-4.631l-5.65-5.754-9.65 9.812 5.46 5.563a29.23 29.23 0 0 0 20.9 8.737c5.68 0 11-1.623 15.47-4.44v3.008h15.21V63.793z"/><path fill="url(#w)" d="M1513.31 108.415v3.008a29.14 29.14 0 0 0-15.47-4.416c-8.19 0-15.59 3.342-20.9 8.737l-30.75 31.227c-2.8 2.865-6.73 4.608-11.04 4.608-8.55 0-15.47-6.9-15.47-15.423s6.95-15.422 15.47-15.422c4.34 0 8.24 1.767 11.04 4.608l5.68 5.777 9.65-9.812-5.49-5.563a29.23 29.23 0 0 0-20.9-8.737c-5.68 0-10.97 1.623-15.47 4.416V89.245h-15.18v74.7h15.18v-3.008c4.5 2.793 9.82 4.441 15.47 4.441 8.19 0 15.59-3.367 20.9-8.738l30.75-31.298c2.8-2.865 6.73-4.608 11.04-4.608 8.55 0 15.47 6.899 15.47 15.422s-6.92 15.446-15.47 15.446c-4.33 0-8.24-1.79-11.04-4.631l-5.65-5.754-9.65 9.813 5.46 5.562a29.23 29.23 0 0 0 20.9 8.738c5.68 0 11-1.624 15.47-4.441v3.008h15.21v-55.482z"/><path fill="url(#x)" d="M1513.31 153.038v3.008a29.15 29.15 0 0 0-15.47-4.417c-8.19 0-15.59 3.343-20.9 8.738l-30.75 31.227c-2.8 2.864-6.73 4.607-11.04 4.607-8.55 0-15.47-6.899-15.47-15.422s6.95-15.422 15.47-15.422c4.34 0 8.24 1.766 11.04 4.607l5.68 5.777 9.65-9.812-5.49-5.562a29.23 29.23 0 0 0-20.9-8.738c-5.68 0-10.97 1.624-15.47 4.417v-22.179h-15.18v74.701h15.18v-3.008c4.5 2.793 9.82 4.44 15.47 4.44 8.19 0 15.59-3.366 20.9-8.738l30.75-31.298c2.8-2.865 6.73-4.607 11.04-4.607 8.55 0 15.47 6.899 15.47 15.422s-6.92 15.446-15.47 15.446c-4.33 0-8.24-1.791-11.04-4.631l-5.65-5.754-9.65 9.812 5.46 5.563a29.23 29.23 0 0 0 20.9 8.737c5.68 0 11-1.623 15.47-4.44v3.008h15.21v-55.482z"/><path fill="url(#y)" d="M1622.89 19.17v3.008a29.2 29.2 0 0 0-15.47-4.416c-8.19 0-15.59 3.342-20.91 8.738l-30.74 31.226c-2.81 2.865-6.73 4.608-11.04 4.608-8.55 0-15.47-6.9-15.47-15.423s6.94-15.422 15.47-15.422c4.33 0 8.23 1.767 11.04 4.608l5.67 5.777 9.65-9.812-5.48-5.562a29.27 29.27 0 0 0-20.91-8.738c-5.67 0-10.96 1.623-15.47 4.416V0h-15.18v74.7h15.18v-3.008c4.51 2.793 9.82 4.44 15.47 4.44 8.19 0 15.59-3.366 20.91-8.737l30.75-31.298c2.8-2.865 6.72-4.608 11.04-4.608 8.54 0 15.46 6.9 15.46 15.422s-6.92 15.447-15.46 15.447c-4.34 0-8.24-1.79-11.04-4.632l-5.66-5.753-9.65 9.812 5.46 5.562a29.27 29.27 0 0 0 20.91 8.738c5.67 0 10.99-1.623 15.47-4.44v3.008h15.2V19.17z"/><path fill="url(#z)" d="M1622.89 63.793V66.8a29.2 29.2 0 0 0-15.47-4.417c-8.19 0-15.59 3.343-20.91 8.738l-30.74 31.227c-2.81 2.865-6.73 4.607-11.04 4.607-8.55 0-15.47-6.899-15.47-15.422s6.94-15.422 15.47-15.422c4.33 0 8.23 1.766 11.04 4.607l5.67 5.778 9.65-9.812-5.48-5.563a29.27 29.27 0 0 0-20.91-8.738c-5.67 0-10.96 1.624-15.47 4.417V44.623h-15.18v74.7h15.18v-3.008c4.51 2.793 9.82 4.44 15.47 4.44 8.19 0 15.59-3.366 20.91-8.738l30.75-31.298c2.8-2.865 6.72-4.607 11.04-4.607 8.54 0 15.46 6.9 15.46 15.422s-6.92 15.446-15.46 15.446c-4.34 0-8.24-1.79-11.04-4.631l-5.66-5.754-9.65 9.812 5.46 5.563a29.27 29.27 0 0 0 20.91 8.737c5.67 0 10.99-1.623 15.47-4.44v3.008h15.2V63.793z"/><path fill="url(#A)" d="M1622.89 108.415v3.008a29.2 29.2 0 0 0-15.47-4.416c-8.19 0-15.59 3.342-20.91 8.737l-30.74 31.227c-2.81 2.865-6.73 4.608-11.04 4.608-8.55 0-15.47-6.9-15.47-15.423s6.94-15.422 15.47-15.422c4.33 0 8.23 1.767 11.04 4.608l5.67 5.777 9.65-9.812-5.48-5.563a29.27 29.27 0 0 0-20.91-8.737c-5.67 0-10.96 1.623-15.47 4.416V89.245h-15.18v74.7h15.18v-3.008c4.51 2.793 9.82 4.441 15.47 4.441 8.19 0 15.59-3.367 20.91-8.738l30.75-31.298c2.8-2.865 6.72-4.608 11.04-4.608 8.54 0 15.46 6.899 15.46 15.422s-6.92 15.446-15.46 15.446c-4.34 0-8.24-1.79-11.04-4.631l-5.66-5.754-9.65 9.813 5.46 5.562a29.27 29.27 0 0 0 20.91 8.738c5.67 0 10.99-1.624 15.47-4.441v3.008h15.2v-55.482z"/><path fill="url(#B)" d="M1622.89 153.038v3.008a29.2 29.2 0 0 0-15.47-4.417c-8.19 0-15.59 3.343-20.91 8.738l-30.74 31.227c-2.81 2.864-6.73 4.607-11.04 4.607-8.55 0-15.47-6.899-15.47-15.422s6.94-15.422 15.47-15.422c4.33 0 8.23 1.766 11.04 4.607l5.67 5.777 9.65-9.812-5.48-5.562a29.27 29.27 0 0 0-20.91-8.738c-5.67 0-10.96 1.624-15.47 4.417v-22.179h-15.18v74.701h15.18v-3.008c4.51 2.793 9.82 4.44 15.47 4.44 8.19 0 15.59-3.366 20.91-8.738l30.75-31.298c2.8-2.865 6.72-4.607 11.04-4.607 8.54 0 15.46 6.899 15.46 15.422s-6.92 15.446-15.46 15.446c-4.34 0-8.24-1.791-11.04-4.631l-5.66-5.754-9.65 9.812 5.46 5.563a29.27 29.27 0 0 0 20.91 8.737c5.67 0 10.99-1.623 15.47-4.44v3.008h15.2v-55.482z"/><path fill="url(#C)" d="M1732.46 19.17v3.008a29.14 29.14 0 0 0-15.47-4.416c-8.19 0-15.59 3.342-20.9 8.738l-30.75 31.226c-2.8 2.865-6.73 4.608-11.04 4.608-8.55 0-15.47-6.9-15.47-15.423s6.95-15.422 15.47-15.422c4.34 0 8.24 1.767 11.04 4.608l5.68 5.777 9.65-9.812-5.49-5.562a29.23 29.23 0 0 0-20.9-8.738 29.2 29.2 0 0 0-15.47 4.416V0h-15.18v74.7h15.18v-3.008c4.5 2.793 9.82 4.44 15.47 4.44 8.19 0 15.59-3.366 20.9-8.737l30.75-31.298c2.8-2.865 6.73-4.608 11.04-4.608 8.55 0 15.47 6.9 15.47 15.422s-6.92 15.447-15.47 15.447c-4.33 0-8.24-1.79-11.04-4.632l-5.65-5.753-9.65 9.812 5.46 5.562a29.23 29.23 0 0 0 20.9 8.738c5.68 0 11-1.623 15.47-4.44v3.008h15.21V19.17z"/><path fill="url(#D)" d="M1732.46 63.793V66.8a29.14 29.14 0 0 0-15.47-4.417c-8.19 0-15.59 3.343-20.9 8.738l-30.75 31.227c-2.8 2.865-6.73 4.607-11.04 4.607-8.55 0-15.47-6.899-15.47-15.422s6.95-15.422 15.47-15.422c4.34 0 8.24 1.766 11.04 4.607l5.68 5.778 9.65-9.812-5.49-5.563a29.23 29.23 0 0 0-20.9-8.738 29.2 29.2 0 0 0-15.47 4.417V44.623h-15.18v74.7h15.18v-3.008c4.5 2.793 9.82 4.44 15.47 4.44 8.19 0 15.59-3.366 20.9-8.738l30.75-31.298c2.8-2.865 6.73-4.607 11.04-4.607 8.55 0 15.47 6.9 15.47 15.422s-6.92 15.446-15.47 15.446c-4.33 0-8.24-1.79-11.04-4.631l-5.65-5.754-9.65 9.812 5.46 5.563a29.23 29.23 0 0 0 20.9 8.737c5.68 0 11-1.623 15.47-4.44v3.008h15.21V63.793z"/><path fill="url(#E)" d="M1732.46 108.415v3.008a29.14 29.14 0 0 0-15.47-4.416c-8.19 0-15.59 3.342-20.9 8.737l-30.75 31.227c-2.8 2.865-6.73 4.608-11.04 4.608-8.55 0-15.47-6.9-15.47-15.423s6.95-15.422 15.47-15.422c4.34 0 8.24 1.767 11.04 4.608l5.68 5.777 9.65-9.812-5.49-5.563a29.23 29.23 0 0 0-20.9-8.737c-5.68 0-10.97 1.623-15.47 4.416V89.245h-15.18v74.7h15.18v-3.008c4.5 2.793 9.82 4.441 15.47 4.441 8.19 0 15.59-3.367 20.9-8.738l30.75-31.298c2.8-2.865 6.73-4.608 11.04-4.608 8.55 0 15.47 6.899 15.47 15.422s-6.92 15.446-15.47 15.446c-4.33 0-8.24-1.79-11.04-4.631l-5.65-5.754-9.65 9.813 5.46 5.562a29.23 29.23 0 0 0 20.9 8.738c5.68 0 11-1.624 15.47-4.441v3.008h15.21v-55.482z"/><path fill="url(#F)" d="M1732.46 153.038v3.008a29.15 29.15 0 0 0-15.47-4.417c-8.19 0-15.59 3.343-20.9 8.738l-30.75 31.227c-2.8 2.864-6.73 4.607-11.04 4.607-8.55 0-15.47-6.899-15.47-15.422s6.95-15.422 15.47-15.422c4.34 0 8.24 1.766 11.04 4.607l5.68 5.777 9.65-9.812-5.49-5.562a29.23 29.23 0 0 0-20.9-8.738c-5.68 0-10.97 1.624-15.47 4.417v-22.179h-15.18v74.701h15.18v-3.008c4.5 2.793 9.82 4.44 15.47 4.44 8.19 0 15.59-3.366 20.9-8.738l30.75-31.298c2.8-2.865 6.73-4.607 11.04-4.607 8.55 0 15.47 6.899 15.47 15.422s-6.92 15.446-15.47 15.446c-4.33 0-8.24-1.791-11.04-4.631l-5.65-5.754-9.65 9.812 5.46 5.563a29.23 29.23 0 0 0 20.9 8.737c5.68 0 11-1.623 15.47-4.44v3.008h15.21v-55.482z"/><path fill="url(#G)" d="M88.838 19.17v3.008a29.18 29.18 0 0 0-15.47-4.416A29.25 29.25 0 0 0 52.463 26.5L21.715 57.726c-2.802 2.865-6.729 4.608-11.04 4.608-8.548 0-15.469-6.9-15.469-15.423S2.151 31.49 10.676 31.49c4.334 0 8.237 1.767 11.04 4.608l5.674 5.777 9.651-9.812-5.484-5.562a29.25 29.25 0 0 0-20.905-8.738 29.24 29.24 0 0 0-15.47 4.416V0H-20v74.7h15.182v-3.008c4.502 2.793 9.818 4.44 15.47 4.44 8.19 0 15.59-3.366 20.905-8.737l30.748-31.298c2.801-2.865 6.729-4.608 11.04-4.608 8.548 0 15.469 6.9 15.469 15.422s-6.92 15.447-15.47 15.447c-4.334 0-8.237-1.79-11.04-4.632l-5.65-5.753-9.651 9.812 5.46 5.562a29.25 29.25 0 0 0 20.905 8.738 29 29 0 0 0 15.47-4.44v3.008h15.206V19.17z"/><path fill="url(#H)" d="M88.838 63.793V66.8a29.18 29.18 0 0 0-15.47-4.417 29.25 29.25 0 0 0-20.905 8.738L21.714 102.35c-2.802 2.865-6.729 4.607-11.04 4.607-8.548 0-15.469-6.899-15.469-15.422s6.945-15.422 15.47-15.422c4.334 0 8.237 1.766 11.04 4.607l5.674 5.778 9.65-9.812-5.483-5.563a29.25 29.25 0 0 0-20.905-8.738 29.24 29.24 0 0 0-15.47 4.417V44.623H-20v74.7h15.182v-3.008c4.502 2.793 9.818 4.44 15.47 4.44 8.19 0 15.589-3.366 20.905-8.738l30.748-31.298c2.801-2.865 6.729-4.607 11.04-4.607 8.548 0 15.469 6.9 15.469 15.422s-6.92 15.446-15.47 15.446c-4.334 0-8.238-1.79-11.04-4.631l-5.65-5.754-9.651 9.812 5.46 5.563a29.25 29.25 0 0 0 20.905 8.737 29 29 0 0 0 15.47-4.44v3.008h15.206V63.793z"/><path fill="url(#I)" d="M88.838 108.415v3.008a29.2 29.2 0 0 0-15.47-4.416 29.25 29.25 0 0 0-20.905 8.737l-30.748 31.227c-2.802 2.865-6.729 4.608-11.04 4.608-8.548 0-15.469-6.9-15.469-15.423s6.945-15.422 15.47-15.422c4.334 0 8.237 1.767 11.04 4.608l5.674 5.777 9.65-9.812-5.483-5.563a29.25 29.25 0 0 0-20.905-8.737 29.24 29.24 0 0 0-15.47 4.416V89.245H-20v74.7h15.182v-3.008c4.502 2.793 9.818 4.441 15.47 4.441 8.19 0 15.589-3.367 20.905-8.738l30.748-31.298c2.801-2.865 6.729-4.608 11.04-4.608 8.548 0 15.469 6.899 15.469 15.422s-6.92 15.446-15.47 15.446c-4.334 0-8.238-1.79-11.04-4.631l-5.65-5.754-9.651 9.813 5.46 5.562a29.25 29.25 0 0 0 20.905 8.738 29 29 0 0 0 15.47-4.441v3.008h15.206v-55.482z"/><path fill="url(#J)" d="M88.838 153.038v3.008a29.2 29.2 0 0 0-15.47-4.417c-8.19 0-15.59 3.343-20.905 8.738l-30.748 31.227c-2.802 2.864-6.729 4.607-11.04 4.607-8.548 0-15.469-6.899-15.469-15.422s6.945-15.422 15.47-15.422c4.334 0 8.237 1.766 11.04 4.607l5.674 5.777 9.65-9.812-5.483-5.562a29.25 29.25 0 0 0-20.905-8.738 29.24 29.24 0 0 0-15.47 4.417v-22.179H-20v74.701h15.182v-3.008C-.316 208.353 5 210 10.652 210c8.19 0 15.589-3.366 20.905-8.738l30.748-31.298c2.801-2.865 6.729-4.607 11.04-4.607 8.548 0 15.469 6.899 15.469 15.422s-6.92 15.446-15.47 15.446c-4.334 0-8.238-1.791-11.04-4.631l-5.65-5.754-9.651 9.812 5.46 5.563a29.25 29.25 0 0 0 20.905 8.737 29 29 0 0 0 15.47-4.44v3.008h15.206v-55.482z"/><path fill="url(#K)" d="M198.413 19.17v3.008a29.17 29.17 0 0 0-15.47-4.416 29.25 29.25 0 0 0-20.905 8.738L131.29 57.726c-2.802 2.865-6.729 4.608-11.039 4.608-8.549 0-15.47-6.9-15.47-15.423s6.945-15.422 15.47-15.422c4.334 0 8.237 1.767 11.039 4.608l5.676 5.777 9.65-9.812-5.484-5.562a29.25 29.25 0 0 0-20.905-8.738 29.24 29.24 0 0 0-15.47 4.416V0H89.575v74.7h15.182v-3.008c4.502 2.793 9.819 4.44 15.47 4.44 8.19 0 15.589-3.366 20.905-8.737l30.748-31.298c2.802-2.865 6.729-4.608 11.039-4.608 8.549 0 15.47 6.9 15.47 15.422s-6.921 15.447-15.47 15.447c-4.334 0-8.237-1.79-11.039-4.632l-5.652-5.753-9.65 9.812 5.46 5.562a29.25 29.25 0 0 0 20.905 8.738 29 29 0 0 0 15.47-4.44v3.008h15.206V19.17z"/><path fill="url(#L)" d="M198.413 63.793V66.8a29.17 29.17 0 0 0-15.47-4.417 29.25 29.25 0 0 0-20.905 8.738L131.29 102.35c-2.801 2.865-6.729 4.607-11.039 4.607-8.549 0-15.47-6.899-15.47-15.422s6.945-15.422 15.47-15.422c4.334 0 8.238 1.766 11.039 4.607l5.676 5.778 9.65-9.812-5.484-5.563a29.25 29.25 0 0 0-20.905-8.738 29.24 29.24 0 0 0-15.47 4.417V44.623H89.575v74.7h15.182v-3.008c4.502 2.793 9.819 4.44 15.47 4.44 8.19 0 15.589-3.366 20.905-8.738l30.748-31.298c2.802-2.865 6.729-4.607 11.039-4.607 8.549 0 15.47 6.9 15.47 15.422s-6.921 15.446-15.47 15.446c-4.334 0-8.237-1.79-11.039-4.631l-5.651-5.754-9.651 9.812 5.46 5.563a29.25 29.25 0 0 0 20.905 8.737 29 29 0 0 0 15.47-4.44v3.008h15.206V63.793z"/><path fill="url(#M)" d="M198.413 108.415v3.008a29.18 29.18 0 0 0-15.47-4.416 29.25 29.25 0 0 0-20.905 8.737l-30.748 31.227c-2.801 2.865-6.729 4.608-11.039 4.608-8.549 0-15.47-6.9-15.47-15.423s6.945-15.422 15.47-15.422c4.334 0 8.238 1.767 11.039 4.608l5.676 5.777 9.65-9.812-5.484-5.563a29.25 29.25 0 0 0-20.905-8.737 29.24 29.24 0 0 0-15.47 4.416V89.245H89.575v74.7h15.182v-3.008c4.502 2.793 9.819 4.441 15.47 4.441 8.19 0 15.589-3.367 20.905-8.738l30.748-31.298c2.802-2.865 6.729-4.608 11.039-4.608 8.549 0 15.47 6.899 15.47 15.422s-6.921 15.446-15.47 15.446c-4.334 0-8.237-1.79-11.039-4.631l-5.651-5.754-9.651 9.813 5.46 5.562a29.25 29.25 0 0 0 20.905 8.738 29 29 0 0 0 15.47-4.441v3.008h15.206v-55.482z"/><path fill="url(#N)" d="M198.413 153.038v3.008a29.2 29.2 0 0 0-15.47-4.417 29.25 29.25 0 0 0-20.905 8.738l-30.748 31.227c-2.801 2.864-6.729 4.607-11.039 4.607-8.549 0-15.47-6.899-15.47-15.422s6.945-15.422 15.47-15.422c4.334 0 8.238 1.766 11.039 4.607l5.676 5.777 9.65-9.812-5.484-5.562a29.25 29.25 0 0 0-20.905-8.738 29.24 29.24 0 0 0-15.47 4.417v-22.179H89.575v74.701h15.182v-3.008c4.502 2.793 9.819 4.44 15.47 4.44 8.19 0 15.589-3.366 20.905-8.738l30.748-31.298c2.802-2.865 6.729-4.607 11.039-4.607 8.549 0 15.47 6.899 15.47 15.422s-6.921 15.446-15.47 15.446c-4.334 0-8.237-1.791-11.039-4.631l-5.651-5.754-9.651 9.812 5.46 5.563a29.25 29.25 0 0 0 20.905 8.737 29 29 0 0 0 15.47-4.44v3.008h15.206v-55.482z"/><path fill="url(#O)" d="M307.988 19.17v3.008a29.17 29.17 0 0 0-15.47-4.416 29.25 29.25 0 0 0-20.905 8.738l-30.748 31.226c-2.801 2.865-6.729 4.608-11.039 4.608-8.549 0-15.47-6.9-15.47-15.423s6.945-15.422 15.47-15.422c4.334 0 8.238 1.767 11.039 4.608l5.676 5.777 9.65-9.812-5.484-5.562a29.25 29.25 0 0 0-20.905-8.738 29.24 29.24 0 0 0-15.47 4.416V0H199.15v74.7h15.182v-3.008c4.502 2.793 9.819 4.44 15.47 4.44 8.19 0 15.589-3.366 20.905-8.737l30.748-31.298c2.802-2.865 6.729-4.608 11.039-4.608 8.549 0 15.47 6.9 15.47 15.422s-6.921 15.447-15.47 15.447c-4.334 0-8.237-1.79-11.039-4.632l-5.652-5.753-9.65 9.812 5.46 5.562a29.25 29.25 0 0 0 20.905 8.738 29 29 0 0 0 15.47-4.44v3.008h15.206V19.17z"/><path fill="url(#P)" d="M307.988 63.793V66.8a29.17 29.17 0 0 0-15.47-4.417 29.25 29.25 0 0 0-20.905 8.738l-30.748 31.227c-2.801 2.865-6.729 4.607-11.039 4.607-8.549 0-15.47-6.899-15.47-15.422s6.945-15.422 15.47-15.422c4.334 0 8.238 1.766 11.039 4.607l5.676 5.778 9.65-9.812-5.484-5.563a29.25 29.25 0 0 0-20.905-8.738 29.24 29.24 0 0 0-15.47 4.417V44.623H199.15v74.7h15.182v-3.008c4.502 2.793 9.819 4.44 15.47 4.44 8.19 0 15.589-3.366 20.905-8.738l30.748-31.298c2.802-2.865 6.729-4.607 11.039-4.607 8.549 0 15.47 6.9 15.47 15.422s-6.921 15.446-15.47 15.446c-4.334 0-8.237-1.79-11.039-4.631l-5.651-5.754-9.651 9.812 5.46 5.563a29.25 29.25 0 0 0 20.905 8.737 29 29 0 0 0 15.47-4.44v3.008h15.206V63.793z"/><path fill="url(#Q)" d="M307.988 108.415v3.008a29.18 29.18 0 0 0-15.47-4.416 29.25 29.25 0 0 0-20.905 8.737l-30.748 31.227c-2.801 2.865-6.729 4.608-11.039 4.608-8.549 0-15.47-6.9-15.47-15.423s6.945-15.422 15.47-15.422c4.334 0 8.238 1.767 11.039 4.608l5.676 5.777 9.65-9.812-5.484-5.563a29.25 29.25 0 0 0-20.905-8.737 29.24 29.24 0 0 0-15.47 4.416V89.245H199.15v74.7h15.182v-3.008c4.502 2.793 9.819 4.441 15.47 4.441 8.19 0 15.589-3.367 20.905-8.738l30.748-31.298c2.802-2.865 6.729-4.608 11.039-4.608 8.549 0 15.47 6.899 15.47 15.422s-6.921 15.446-15.47 15.446c-4.334 0-8.237-1.79-11.039-4.631l-5.651-5.754-9.651 9.813 5.46 5.562a29.25 29.25 0 0 0 20.905 8.738 29 29 0 0 0 15.47-4.441v3.008h15.206v-55.482z"/><path fill="url(#R)" d="M307.988 153.038v3.008a29.2 29.2 0 0 0-15.47-4.417 29.25 29.25 0 0 0-20.905 8.738l-30.748 31.227c-2.801 2.864-6.729 4.607-11.039 4.607-8.549 0-15.47-6.899-15.47-15.422s6.945-15.422 15.47-15.422c4.334 0 8.238 1.766 11.039 4.607l5.676 5.777 9.65-9.812-5.484-5.562a29.25 29.25 0 0 0-20.905-8.738 29.24 29.24 0 0 0-15.47 4.417v-22.179H199.15v74.701h15.182v-3.008c4.502 2.793 9.819 4.44 15.47 4.44 8.19 0 15.589-3.366 20.905-8.738l30.748-31.298c2.802-2.865 6.729-4.607 11.039-4.607 8.549 0 15.47 6.899 15.47 15.422s-6.921 15.446-15.47 15.446c-4.334 0-8.237-1.791-11.039-4.631l-5.651-5.754-9.651 9.812 5.46 5.563a29.25 29.25 0 0 0 20.905 8.737 29 29 0 0 0 15.47-4.44v3.008h15.206v-55.482z"/><path fill="url(#S)" d="M417.563 19.17v3.008a29.17 29.17 0 0 0-15.47-4.416 29.25 29.25 0 0 0-20.905 8.738L350.44 57.726c-2.801 2.865-6.729 4.608-11.039 4.608-8.549 0-15.47-6.9-15.47-15.423s6.945-15.422 15.47-15.422c4.334 0 8.238 1.767 11.039 4.608l5.676 5.777 9.65-9.812-5.484-5.562a29.25 29.25 0 0 0-20.905-8.738 29.24 29.24 0 0 0-15.47 4.416V0h-15.182v74.7h15.182v-3.008c4.502 2.793 9.819 4.44 15.47 4.44 8.19 0 15.589-3.366 20.905-8.737l30.748-31.298c2.802-2.865 6.729-4.608 11.039-4.608 8.549 0 15.47 6.9 15.47 15.422s-6.921 15.447-15.47 15.447c-4.334 0-8.237-1.79-11.039-4.632l-5.651-5.753-9.651 9.812 5.46 5.562a29.25 29.25 0 0 0 20.905 8.738 29 29 0 0 0 15.47-4.44v3.008h15.206V19.17z"/><path fill="url(#T)" d="M417.563 63.793V66.8a29.17 29.17 0 0 0-15.47-4.417 29.25 29.25 0 0 0-20.905 8.738L350.44 102.35c-2.801 2.865-6.729 4.607-11.039 4.607-8.549 0-15.47-6.899-15.47-15.422s6.945-15.422 15.47-15.422c4.334 0 8.238 1.766 11.039 4.607l5.676 5.778 9.65-9.812-5.484-5.563a29.25 29.25 0 0 0-20.905-8.738 29.24 29.24 0 0 0-15.47 4.417V44.623h-15.182v74.7h15.182v-3.008c4.502 2.793 9.819 4.44 15.47 4.44 8.19 0 15.589-3.366 20.905-8.738l30.748-31.298c2.802-2.865 6.729-4.607 11.039-4.607 8.549 0 15.47 6.9 15.47 15.422s-6.921 15.446-15.47 15.446c-4.334 0-8.237-1.79-11.039-4.631l-5.651-5.754-9.651 9.812 5.46 5.563a29.25 29.25 0 0 0 20.905 8.737 29 29 0 0 0 15.47-4.44v3.008h15.206V63.793z"/><path fill="url(#U)" d="M417.563 108.415v3.008a29.18 29.18 0 0 0-15.47-4.416 29.25 29.25 0 0 0-20.905 8.737l-30.748 31.227c-2.801 2.865-6.729 4.608-11.039 4.608-8.549 0-15.47-6.9-15.47-15.423s6.945-15.422 15.47-15.422c4.334 0 8.238 1.767 11.039 4.608l5.676 5.777 9.65-9.812-5.484-5.563a29.25 29.25 0 0 0-20.905-8.737 29.24 29.24 0 0 0-15.47 4.416V89.245h-15.182v74.7h15.182v-3.008c4.502 2.793 9.819 4.441 15.47 4.441 8.19 0 15.589-3.367 20.905-8.738l30.748-31.298c2.802-2.865 6.729-4.608 11.039-4.608 8.549 0 15.47 6.899 15.47 15.422s-6.921 15.446-15.47 15.446c-4.334 0-8.237-1.79-11.039-4.631l-5.651-5.754-9.651 9.813 5.46 5.562a29.25 29.25 0 0 0 20.905 8.738 29 29 0 0 0 15.47-4.441v3.008h15.206v-55.482z"/><path fill="url(#V)" d="M417.563 153.038v3.008a29.2 29.2 0 0 0-15.47-4.417 29.25 29.25 0 0 0-20.905 8.738l-30.748 31.227c-2.801 2.864-6.729 4.607-11.039 4.607-8.549 0-15.47-6.899-15.47-15.422s6.945-15.422 15.47-15.422c4.334 0 8.238 1.766 11.039 4.607l5.676 5.777 9.65-9.812-5.484-5.562a29.25 29.25 0 0 0-20.905-8.738 29.24 29.24 0 0 0-15.47 4.417v-22.179h-15.182v74.701h15.182v-3.008c4.502 2.793 9.819 4.44 15.47 4.44 8.19 0 15.589-3.366 20.905-8.738l30.748-31.298c2.802-2.865 6.729-4.607 11.039-4.607 8.549 0 15.47 6.899 15.47 15.422s-6.921 15.446-15.47 15.446c-4.334 0-8.237-1.791-11.039-4.631l-5.651-5.754-9.651 9.812 5.46 5.563a29.25 29.25 0 0 0 20.905 8.737 29 29 0 0 0 15.47-4.44v3.008h15.206v-55.482z"/><path fill="url(#W)" d="M527.138 19.17v3.008a29.17 29.17 0 0 0-15.47-4.416 29.25 29.25 0 0 0-20.905 8.738l-30.748 31.226c-2.801 2.865-6.729 4.608-11.039 4.608-8.549 0-15.469-6.9-15.469-15.423s6.944-15.422 15.469-15.422c4.334 0 8.238 1.767 11.039 4.608l5.676 5.777 9.65-9.812-5.483-5.562a29.25 29.25 0 0 0-20.906-8.738 29.23 29.23 0 0 0-15.469 4.416V0H418.3v74.7h15.183v-3.008c4.501 2.793 9.818 4.44 15.469 4.44 8.19 0 15.589-3.366 20.906-8.737l30.747-31.298c2.802-2.865 6.729-4.608 11.039-4.608 8.549 0 15.47 6.9 15.47 15.422s-6.921 15.447-15.47 15.447c-4.334 0-8.237-1.79-11.039-4.632l-5.651-5.753-9.651 9.812 5.46 5.562a29.25 29.25 0 0 0 20.905 8.738 29 29 0 0 0 15.47-4.44v3.008h15.206V19.17z"/><path fill="url(#X)" d="M527.138 63.793V66.8a29.17 29.17 0 0 0-15.47-4.417 29.25 29.25 0 0 0-20.905 8.738l-30.748 31.227c-2.801 2.865-6.729 4.607-11.039 4.607-8.549 0-15.47-6.899-15.47-15.422s6.945-15.422 15.47-15.422c4.334 0 8.238 1.766 11.039 4.607l5.676 5.778 9.65-9.812-5.483-5.563a29.25 29.25 0 0 0-20.906-8.738 29.24 29.24 0 0 0-15.47 4.417V44.623H418.3v74.7h15.182v-3.008c4.502 2.793 9.819 4.44 15.47 4.44 8.19 0 15.589-3.366 20.906-8.738l30.747-31.298c2.802-2.865 6.729-4.607 11.039-4.607 8.549 0 15.47 6.9 15.47 15.422s-6.921 15.446-15.47 15.446c-4.334 0-8.237-1.79-11.039-4.631l-5.651-5.754-9.651 9.812 5.46 5.563a29.25 29.25 0 0 0 20.905 8.737 29 29 0 0 0 15.47-4.44v3.008h15.206V63.793z"/><path fill="url(#Y)" d="M527.138 108.415v3.008a29.18 29.18 0 0 0-15.47-4.416 29.25 29.25 0 0 0-20.905 8.737l-30.748 31.227c-2.801 2.865-6.729 4.608-11.039 4.608-8.549 0-15.47-6.9-15.47-15.423s6.945-15.422 15.47-15.422c4.334 0 8.238 1.767 11.039 4.608l5.676 5.777 9.65-9.812-5.483-5.563a29.25 29.25 0 0 0-20.906-8.737 29.24 29.24 0 0 0-15.47 4.416V89.245H418.3v74.7h15.182v-3.008c4.502 2.793 9.819 4.441 15.47 4.441 8.19 0 15.589-3.367 20.906-8.738l30.747-31.298c2.802-2.865 6.729-4.608 11.039-4.608 8.549 0 15.47 6.899 15.47 15.422s-6.921 15.446-15.47 15.446c-4.334 0-8.237-1.79-11.039-4.631l-5.651-5.754-9.651 9.813 5.46 5.562a29.25 29.25 0 0 0 20.905 8.738 29 29 0 0 0 15.47-4.441v3.008h15.206v-55.482z"/><path fill="url(#Z)" d="M527.138 153.038v3.008a29.2 29.2 0 0 0-15.47-4.417 29.25 29.25 0 0 0-20.905 8.738l-30.748 31.227c-2.801 2.864-6.729 4.607-11.039 4.607-8.549 0-15.47-6.899-15.47-15.422s6.945-15.422 15.47-15.422c4.334 0 8.238 1.766 11.039 4.607l5.676 5.777 9.65-9.812-5.483-5.562a29.25 29.25 0 0 0-20.906-8.738 29.24 29.24 0 0 0-15.47 4.417v-22.179H418.3v74.701h15.182v-3.008c4.502 2.793 9.819 4.44 15.47 4.44 8.19 0 15.589-3.366 20.906-8.738l30.747-31.298c2.802-2.865 6.729-4.607 11.039-4.607 8.549 0 15.47 6.899 15.47 15.422s-6.921 15.446-15.47 15.446c-4.334 0-8.237-1.791-11.039-4.631l-5.651-5.754-9.651 9.812 5.46 5.563a29.25 29.25 0 0 0 20.905 8.737 29 29 0 0 0 15.47-4.44v3.008h15.206v-55.482z"/><path fill="url(#aa)" d="M636.713 19.17v3.008a29.17 29.17 0 0 0-15.469-4.416 29.25 29.25 0 0 0-20.906 8.738l-30.747 31.226c-2.802 2.865-6.729 4.608-11.04 4.608-8.549 0-15.469-6.9-15.469-15.423s6.944-15.422 15.469-15.422c4.334 0 8.238 1.767 11.04 4.608l5.675 5.777 9.65-9.812-5.483-5.562a29.25 29.25 0 0 0-20.906-8.738 29.24 29.24 0 0 0-15.469 4.416V0h-15.183v74.7h15.183v-3.008c4.502 2.793 9.818 4.44 15.469 4.44 8.19 0 15.589-3.366 20.906-8.737l30.747-31.298c2.802-2.865 6.729-4.608 11.04-4.608 8.549 0 15.469 6.9 15.469 15.422s-6.92 15.447-15.469 15.447c-4.335 0-8.238-1.79-11.04-4.632l-5.651-5.753-9.651 9.812 5.46 5.562a29.25 29.25 0 0 0 20.906 8.738 29 29 0 0 0 15.469-4.44v3.008h15.206V19.17z"/><path fill="url(#ab)" d="M636.713 63.793V66.8a29.17 29.17 0 0 0-15.47-4.417 29.25 29.25 0 0 0-20.905 8.738L569.59 102.35c-2.801 2.865-6.729 4.607-11.039 4.607-8.549 0-15.469-6.899-15.469-15.422s6.944-15.422 15.469-15.422c4.334 0 8.238 1.766 11.039 4.607l5.676 5.778 9.65-9.812-5.483-5.563a29.25 29.25 0 0 0-20.906-8.738 29.24 29.24 0 0 0-15.469 4.417V44.623h-15.183v74.7h15.183v-3.008c4.502 2.793 9.818 4.44 15.469 4.44 8.19 0 15.589-3.366 20.906-8.738l30.747-31.298c2.802-2.865 6.729-4.607 11.04-4.607 8.548 0 15.469 6.9 15.469 15.422s-6.921 15.446-15.469 15.446c-4.335 0-8.238-1.79-11.04-4.631l-5.651-5.754-9.651 9.812 5.46 5.563a29.25 29.25 0 0 0 20.905 8.737 29 29 0 0 0 15.47-4.44v3.008h15.206V63.793z"/><path fill="url(#ac)" d="M636.713 108.415v3.008a29.18 29.18 0 0 0-15.47-4.416 29.25 29.25 0 0 0-20.905 8.737l-30.748 31.227c-2.801 2.865-6.729 4.608-11.039 4.608-8.549 0-15.469-6.9-15.469-15.423s6.944-15.422 15.469-15.422c4.334 0 8.238 1.767 11.039 4.608l5.676 5.777 9.65-9.812-5.483-5.563a29.25 29.25 0 0 0-20.906-8.737 29.24 29.24 0 0 0-15.469 4.416V89.245h-15.183v74.7h15.183v-3.008c4.502 2.793 9.818 4.441 15.469 4.441 8.19 0 15.589-3.367 20.906-8.738l30.747-31.298c2.802-2.865 6.729-4.608 11.04-4.608 8.548 0 15.469 6.899 15.469 15.422s-6.921 15.446-15.469 15.446c-4.335 0-8.238-1.79-11.04-4.631l-5.651-5.754-9.651 9.813 5.46 5.562a29.25 29.25 0 0 0 20.905 8.738 29 29 0 0 0 15.47-4.441v3.008h15.206v-55.482z"/><path fill="url(#ad)" d="M636.713 153.038v3.008a29.2 29.2 0 0 0-15.47-4.417 29.25 29.25 0 0 0-20.905 8.738l-30.748 31.227c-2.801 2.864-6.729 4.607-11.039 4.607-8.549 0-15.469-6.899-15.469-15.422s6.944-15.422 15.469-15.422c4.334 0 8.238 1.766 11.039 4.607l5.676 5.777 9.65-9.812-5.483-5.562a29.25 29.25 0 0 0-20.906-8.738 29.24 29.24 0 0 0-15.469 4.417v-22.179h-15.183v74.701h15.183v-3.008c4.502 2.793 9.818 4.44 15.469 4.44 8.19 0 15.589-3.366 20.906-8.738l30.747-31.298c2.802-2.865 6.729-4.607 11.04-4.607 8.548 0 15.469 6.899 15.469 15.422s-6.921 15.446-15.469 15.446c-4.335 0-8.238-1.791-11.04-4.631l-5.651-5.754-9.651 9.812 5.46 5.563a29.25 29.25 0 0 0 20.905 8.737 29 29 0 0 0 15.47-4.44v3.008h15.206v-55.482z"/><path fill="url(#ae)" d="M746.288 19.17v3.008a29.17 29.17 0 0 0-15.469-4.416 29.25 29.25 0 0 0-20.906 8.738l-30.747 31.226c-2.802 2.865-6.729 4.608-11.04 4.608-8.549 0-15.469-6.9-15.469-15.423s6.944-15.422 15.469-15.422c4.335 0 8.238 1.767 11.04 4.608l5.675 5.777 9.65-9.812-5.483-5.562a29.25 29.25 0 0 0-20.906-8.738 29.24 29.24 0 0 0-15.469 4.416V0h-15.182v74.7h15.182v-3.008c4.502 2.793 9.818 4.44 15.469 4.44 8.19 0 15.59-3.366 20.906-8.737l30.747-31.298c2.802-2.865 6.729-4.608 11.04-4.608 8.549 0 15.469 6.9 15.469 15.422s-6.92 15.447-15.469 15.447c-4.335 0-8.238-1.79-11.04-4.632l-5.651-5.753-9.651 9.812 5.46 5.562a29.25 29.25 0 0 0 20.906 8.738 29 29 0 0 0 15.469-4.44v3.008h15.206V19.17z"/><path fill="url(#af)" d="M746.288 63.793V66.8a29.17 29.17 0 0 0-15.47-4.417 29.25 29.25 0 0 0-20.905 8.738l-30.747 31.227c-2.802 2.865-6.729 4.607-11.04 4.607-8.549 0-15.469-6.899-15.469-15.422s6.944-15.422 15.469-15.422c4.334 0 8.238 1.766 11.04 4.607l5.675 5.778 9.65-9.812-5.483-5.563a29.25 29.25 0 0 0-20.906-8.738 29.24 29.24 0 0 0-15.469 4.417V44.623H637.45v74.7h15.183v-3.008c4.502 2.793 9.818 4.44 15.469 4.44 8.19 0 15.589-3.366 20.906-8.738l30.747-31.298c2.802-2.865 6.729-4.607 11.04-4.607 8.549 0 15.469 6.9 15.469 15.422s-6.92 15.446-15.469 15.446c-4.335 0-8.238-1.79-11.04-4.631l-5.651-5.754-9.651 9.812 5.46 5.563a29.25 29.25 0 0 0 20.905 8.737 29 29 0 0 0 15.47-4.44v3.008h15.206V63.793z"/><path fill="url(#ag)" d="M746.288 108.415v3.008a29.18 29.18 0 0 0-15.47-4.416 29.25 29.25 0 0 0-20.905 8.737l-30.747 31.227c-2.802 2.865-6.729 4.608-11.04 4.608-8.549 0-15.469-6.9-15.469-15.423s6.944-15.422 15.469-15.422a15.45 15.45 0 0 1 11.04 4.608l5.675 5.777 9.65-9.812-5.483-5.563a29.25 29.25 0 0 0-20.906-8.737 29.24 29.24 0 0 0-15.469 4.416V89.245H637.45v74.7h15.183v-3.008c4.502 2.793 9.818 4.441 15.469 4.441 8.19 0 15.589-3.367 20.906-8.738l30.747-31.298c2.802-2.865 6.729-4.608 11.04-4.608 8.549 0 15.469 6.899 15.469 15.422s-6.92 15.446-15.469 15.446c-4.335 0-8.238-1.79-11.04-4.631l-5.651-5.754-9.651 9.813 5.46 5.562a29.25 29.25 0 0 0 20.905 8.738 29 29 0 0 0 15.47-4.441v3.008h15.206v-55.482z"/><path fill="url(#ah)" d="M746.288 153.038v3.008a29.2 29.2 0 0 0-15.47-4.417 29.25 29.25 0 0 0-20.905 8.738l-30.747 31.227c-2.802 2.864-6.729 4.607-11.04 4.607-8.549 0-15.469-6.899-15.469-15.422s6.944-15.422 15.469-15.422c4.334 0 8.238 1.766 11.04 4.607l5.675 5.777 9.65-9.812-5.483-5.562a29.25 29.25 0 0 0-20.906-8.738 29.24 29.24 0 0 0-15.469 4.417v-22.179H637.45v74.701h15.183v-3.008c4.502 2.793 9.818 4.44 15.469 4.44 8.19 0 15.589-3.366 20.906-8.738l30.747-31.298c2.802-2.865 6.729-4.607 11.04-4.607 8.549 0 15.469 6.899 15.469 15.422s-6.92 15.446-15.469 15.446c-4.335 0-8.238-1.791-11.04-4.631l-5.651-5.754-9.651 9.812 5.46 5.563a29.25 29.25 0 0 0 20.905 8.737 29 29 0 0 0 15.47-4.44v3.008h15.206v-55.482z"/><path fill="url(#ai)" d="M855.863 19.17v3.008a29.17 29.17 0 0 0-15.469-4.416 29.25 29.25 0 0 0-20.906 8.738l-30.747 31.226c-2.802 2.865-6.729 4.608-11.04 4.608-8.549 0-15.469-6.9-15.469-15.423s6.944-15.422 15.469-15.422c4.335 0 8.238 1.767 11.04 4.608l5.675 5.777 9.651-9.812-5.484-5.562a29.25 29.25 0 0 0-20.906-8.738 29.24 29.24 0 0 0-15.469 4.416V0h-15.182v74.7h15.182v-3.008c4.502 2.793 9.818 4.44 15.469 4.44 8.19 0 15.59-3.366 20.906-8.737l30.747-31.298c2.802-2.865 6.729-4.608 11.04-4.608 8.549 0 15.469 6.9 15.469 15.422s-6.92 15.447-15.469 15.447c-4.335 0-8.238-1.79-11.04-4.632l-5.651-5.753-9.651 9.812 5.46 5.562a29.25 29.25 0 0 0 20.906 8.738 29 29 0 0 0 15.469-4.44v3.008h15.206V19.17z"/><path fill="url(#aj)" d="M855.863 63.793V66.8a29.17 29.17 0 0 0-15.469-4.417 29.25 29.25 0 0 0-20.906 8.738l-30.747 31.227c-2.802 2.865-6.729 4.607-11.04 4.607-8.549 0-15.469-6.899-15.469-15.422s6.944-15.422 15.469-15.422c4.335 0 8.238 1.766 11.04 4.607l5.675 5.778 9.651-9.812-5.484-5.563a29.25 29.25 0 0 0-20.906-8.738 29.24 29.24 0 0 0-15.469 4.417V44.623h-15.182v74.7h15.182v-3.008c4.502 2.793 9.818 4.44 15.469 4.44 8.19 0 15.59-3.366 20.906-8.738l30.747-31.298c2.802-2.865 6.729-4.607 11.04-4.607 8.549 0 15.469 6.9 15.469 15.422s-6.92 15.446-15.469 15.446c-4.335 0-8.238-1.79-11.04-4.631l-5.651-5.754-9.651 9.812 5.46 5.563a29.25 29.25 0 0 0 20.906 8.737 29 29 0 0 0 15.469-4.44v3.008h15.206V63.793z"/><path fill="url(#ak)" d="M855.863 108.415v3.008a29.18 29.18 0 0 0-15.469-4.416 29.25 29.25 0 0 0-20.906 8.737l-30.747 31.227c-2.802 2.865-6.729 4.608-11.04 4.608-8.549 0-15.469-6.9-15.469-15.423s6.944-15.422 15.469-15.422c4.335 0 8.238 1.767 11.04 4.608l5.675 5.777 9.651-9.812-5.484-5.563a29.25 29.25 0 0 0-20.906-8.737 29.24 29.24 0 0 0-15.469 4.416V89.245h-15.182v74.7h15.182v-3.008c4.502 2.793 9.818 4.441 15.469 4.441 8.19 0 15.59-3.367 20.906-8.738l30.747-31.298c2.802-2.865 6.729-4.608 11.04-4.608 8.549 0 15.469 6.899 15.469 15.422s-6.92 15.446-15.469 15.446c-4.335 0-8.238-1.79-11.04-4.631l-5.651-5.754-9.651 9.813 5.46 5.562a29.25 29.25 0 0 0 20.906 8.738 29 29 0 0 0 15.469-4.441v3.008h15.206v-55.482z"/><path fill="url(#al)" d="M855.863 153.038v3.008a29.18 29.18 0 0 0-15.469-4.417c-8.19 0-15.59 3.343-20.906 8.738l-30.747 31.227c-2.802 2.864-6.729 4.607-11.04 4.607-8.549 0-15.469-6.899-15.469-15.422s6.944-15.422 15.469-15.422c4.335 0 8.238 1.766 11.04 4.607l5.675 5.777 9.651-9.812-5.484-5.562a29.25 29.25 0 0 0-20.906-8.738 29.24 29.24 0 0 0-15.469 4.417v-22.179h-15.182v74.701h15.182v-3.008c4.502 2.793 9.818 4.44 15.469 4.44 8.19 0 15.59-3.366 20.906-8.738l30.747-31.298c2.802-2.865 6.729-4.607 11.04-4.607 8.549 0 15.469 6.899 15.469 15.422s-6.92 15.446-15.469 15.446c-4.335 0-8.238-1.791-11.04-4.631l-5.651-5.754-9.651 9.812 5.46 5.563a29.25 29.25 0 0 0 20.906 8.737 29 29 0 0 0 15.469-4.44v3.008h15.206v-55.482z"/><defs><linearGradient id="a" x1="906.841" x2="908" y1="206.858" y2="33.5" gradientUnits="userSpaceOnUse"><stop stop-color="#29252B"/><stop offset="1" stop-color="#29252B" stop-opacity="0"/></linearGradient><linearGradient id="b" x1="906.841" x2="908" y1="206.858" y2="33.5" gradientUnits="userSpaceOnUse"><stop stop-color="#29252B"/><stop offset="1" stop-color="#29252B" stop-opacity="0"/></linearGradient><linearGradient id="c" x1="906.841" x2="908" y1="206.858" y2="33.5" gradientUnits="userSpaceOnUse"><stop stop-color="#29252B"/><stop offset="1" stop-color="#29252B" stop-opacity="0"/></linearGradient><linearGradient id="d" x1="906.841" x2="908" y1="206.858" y2="33.5" gradientUnits="userSpaceOnUse"><stop stop-color="#29252B"/><stop offset="1" stop-color="#29252B" stop-opacity="0"/></linearGradient><linearGradient id="e" x1="906.841" x2="908" y1="206.858" y2="33.5" gradientUnits="userSpaceOnUse"><stop stop-color="#29252B"/><stop offset="1" stop-color="#29252B" stop-opacity="0"/></linearGradient><linearGradient id="f" x1="906.841" x2="908" y1="206.858" y2="33.5" gradientUnits="userSpaceOnUse"><stop stop-color="#29252B"/><stop offset="1" stop-color="#29252B" stop-opacity="0"/></linearGradient><linearGradient id="g" x1="906.841" x2="908" y1="206.858" y2="33.5" gradientUnits="userSpaceOnUse"><stop stop-color="#29252B"/><stop offset="1" stop-color="#29252B" stop-opacity="0"/></linearGradient><linearGradient id="h" x1="906.841" x2="908" y1="206.858" y2="33.5" gradientUnits="userSpaceOnUse"><stop stop-color="#29252B"/><stop offset="1" stop-color="#29252B" stop-opacity="0"/></linearGradient><linearGradient id="i" x1="906.841" x2="908" y1="206.858" y2="33.5" gradientUnits="userSpaceOnUse"><stop stop-color="#29252B"/><stop offset="1" stop-color="#29252B" stop-opacity="0"/></linearGradient><linearGradient id="j" x1="906.841" x2="908" y1="206.858" y2="33.5" gradientUnits="userSpaceOnUse"><stop stop-color="#29252B"/><stop offset="1" stop-color="#29252B" stop-opacity="0"/></linearGradient><linearGradient id="k" x1="906.841" x2="908" y1="206.858" y2="33.5" gradientUnits="userSpaceOnUse"><stop stop-color="#29252B"/><stop offset="1" stop-color="#29252B" stop-opacity="0"/></linearGradient><linearGradient id="l" x1="906.841" x2="908" y1="206.858" y2="33.5" gradientUnits="userSpaceOnUse"><stop stop-color="#29252B"/><stop offset="1" stop-color="#29252B" stop-opacity="0"/></linearGradient><linearGradient id="m" x1="906.841" x2="908" y1="206.858" y2="33.5" gradientUnits="userSpaceOnUse"><stop stop-color="#29252B"/><stop offset="1" stop-color="#29252B" stop-opacity="0"/></linearGradient><linearGradient id="n" x1="906.841" x2="908" y1="206.858" y2="33.5" gradientUnits="userSpaceOnUse"><stop stop-color="#29252B"/><stop offset="1" stop-color="#29252B" stop-opacity="0"/></linearGradient><linearGradient id="o" x1="906.841" x2="908" y1="206.858" y2="33.5" gradientUnits="userSpaceOnUse"><stop stop-color="#29252B"/><stop offset="1" stop-color="#29252B" stop-opacity="0"/></linearGradient><linearGradient id="p" x1="906.841" x2="908" y1="206.858" y2="33.5" gradientUnits="userSpaceOnUse"><stop stop-color="#29252B"/><stop offset="1" stop-color="#29252B" stop-opacity="0"/></linearGradient><linearGradient id="q" x1="906.841" x2="908" y1="206.858" y2="33.5" gradientUnits="userSpaceOnUse"><stop stop-color="#29252B"/><stop offset="1" stop-color="#29252B" stop-opacity="0"/></linearGradient><linearGradient id="r" x1="906.841" x2="908" y1="206.858" y2="33.5" gradientUnits="userSpaceOnUse"><stop stop-color="#29252B"/><stop offset="1" stop-color="#29252B" stop-opacity="0"/></linearGradient><linearGradient id="s" x1="906.841" x2="908" y1="206.858" y2="33.5" gradientUnits="userSpaceOnUse"><stop stop-color="#29252B"/><stop offset="1" stop-color="#29252B" stop-opacity="0"/></linearGradient><linearGradient id="t" x1="906.841" x2="908" y1="206.858" y2="33.5" gradientUnits="userSpaceOnUse"><stop stop-color="#29252B"/><stop offset="1" stop-color="#29252B" stop-opacity="0"/></linearGradient><linearGradient id="u" x1="906.841" x2="908" y1="206.858" y2="33.5" gradientUnits="userSpaceOnUse"><stop stop-color="#29252B"/><stop offset="1" stop-color="#29252B" stop-opacity="0"/></linearGradient><linearGradient id="v" x1="906.841" x2="908" y1="206.858" y2="33.5" gradientUnits="userSpaceOnUse"><stop stop-color="#29252B"/><stop offset="1" stop-color="#29252B" stop-opacity="0"/></linearGradient><linearGradient id="w" x1="906.841" x2="908" y1="206.858" y2="33.5" gradientUnits="userSpaceOnUse"><stop stop-color="#29252B"/><stop offset="1" stop-color="#29252B" stop-opacity="0"/></linearGradient><linearGradient id="x" x1="906.841" x2="908" y1="206.858" y2="33.5" gradientUnits="userSpaceOnUse"><stop stop-color="#29252B"/><stop offset="1" stop-color="#29252B" stop-opacity="0"/></linearGradient><linearGradient id="y" x1="906.841" x2="908" y1="206.858" y2="33.5" gradientUnits="userSpaceOnUse"><stop stop-color="#29252B"/><stop offset="1" stop-color="#29252B" stop-opacity="0"/></linearGradient><linearGradient id="z" x1="906.841" x2="908" y1="206.858" y2="33.5" gradientUnits="userSpaceOnUse"><stop stop-color="#29252B"/><stop offset="1" stop-color="#29252B" stop-opacity="0"/></linearGradient><linearGradient id="A" x1="906.841" x2="908" y1="206.858" y2="33.5" gradientUnits="userSpaceOnUse"><stop stop-color="#29252B"/><stop offset="1" stop-color="#29252B" stop-opacity="0"/></linearGradient><linearGradient id="B" x1="906.841" x2="908" y1="206.858" y2="33.5" gradientUnits="userSpaceOnUse"><stop stop-color="#29252B"/><stop offset="1" stop-color="#29252B" stop-opacity="0"/></linearGradient><linearGradient id="C" x1="906.841" x2="908" y1="206.858" y2="33.5" gradientUnits="userSpaceOnUse"><stop stop-color="#29252B"/><stop offset="1" stop-color="#29252B" stop-opacity="0"/></linearGradient><linearGradient id="D" x1="906.841" x2="908" y1="206.858" y2="33.5" gradientUnits="userSpaceOnUse"><stop stop-color="#29252B"/><stop offset="1" stop-color="#29252B" stop-opacity="0"/></linearGradient><linearGradient id="E" x1="906.841" x2="908" y1="206.858" y2="33.5" gradientUnits="userSpaceOnUse"><stop stop-color="#29252B"/><stop offset="1" stop-color="#29252B" stop-opacity="0"/></linearGradient><linearGradient id="F" x1="906.841" x2="908" y1="206.858" y2="33.5" gradientUnits="userSpaceOnUse"><stop stop-color="#29252B"/><stop offset="1" stop-color="#29252B" stop-opacity="0"/></linearGradient><linearGradient id="G" x1="906.841" x2="908" y1="206.858" y2="33.5" gradientUnits="userSpaceOnUse"><stop stop-color="#29252B"/><stop offset="1" stop-color="#29252B" stop-opacity="0"/></linearGradient><linearGradient id="H" x1="906.841" x2="908" y1="206.858" y2="33.5" gradientUnits="userSpaceOnUse"><stop stop-color="#29252B"/><stop offset="1" stop-color="#29252B" stop-opacity="0"/></linearGradient><linearGradient id="I" x1="906.841" x2="908" y1="206.858" y2="33.5" gradientUnits="userSpaceOnUse"><stop stop-color="#29252B"/><stop offset="1" stop-color="#29252B" stop-opacity="0"/></linearGradient><linearGradient id="J" x1="906.841" x2="908" y1="206.858" y2="33.5" gradientUnits="userSpaceOnUse"><stop stop-color="#29252B"/><stop offset="1" stop-color="#29252B" stop-opacity="0"/></linearGradient><linearGradient id="K" x1="906.841" x2="908" y1="206.858" y2="33.5" gradientUnits="userSpaceOnUse"><stop stop-color="#29252B"/><stop offset="1" stop-color="#29252B" stop-opacity="0"/></linearGradient><linearGradient id="L" x1="906.841" x2="908" y1="206.858" y2="33.5" gradientUnits="userSpaceOnUse"><stop stop-color="#29252B"/><stop offset="1" stop-color="#29252B" stop-opacity="0"/></linearGradient><linearGradient id="M" x1="906.841" x2="908" y1="206.858" y2="33.5" gradientUnits="userSpaceOnUse"><stop stop-color="#29252B"/><stop offset="1" stop-color="#29252B" stop-opacity="0"/></linearGradient><linearGradient id="N" x1="906.841" x2="908" y1="206.858" y2="33.5" gradientUnits="userSpaceOnUse"><stop stop-color="#29252B"/><stop offset="1" stop-color="#29252B" stop-opacity="0"/></linearGradient><linearGradient id="O" x1="906.841" x2="908" y1="206.858" y2="33.5" gradientUnits="userSpaceOnUse"><stop stop-color="#29252B"/><stop offset="1" stop-color="#29252B" stop-opacity="0"/></linearGradient><linearGradient id="P" x1="906.841" x2="908" y1="206.858" y2="33.5" gradientUnits="userSpaceOnUse"><stop stop-color="#29252B"/><stop offset="1" stop-color="#29252B" stop-opacity="0"/></linearGradient><linearGradient id="Q" x1="906.841" x2="908" y1="206.858" y2="33.5" gradientUnits="userSpaceOnUse"><stop stop-color="#29252B"/><stop offset="1" stop-color="#29252B" stop-opacity="0"/></linearGradient><linearGradient id="R" x1="906.841" x2="908" y1="206.858" y2="33.5" gradientUnits="userSpaceOnUse"><stop stop-color="#29252B"/><stop offset="1" stop-color="#29252B" stop-opacity="0"/></linearGradient><linearGradient id="S" x1="906.841" x2="908" y1="206.858" y2="33.5" gradientUnits="userSpaceOnUse"><stop stop-color="#29252B"/><stop offset="1" stop-color="#29252B" stop-opacity="0"/></linearGradient><linearGradient id="T" x1="906.841" x2="908" y1="206.858" y2="33.5" gradientUnits="userSpaceOnUse"><stop stop-color="#29252B"/><stop offset="1" stop-color="#29252B" stop-opacity="0"/></linearGradient><linearGradient id="U" x1="906.841" x2="908" y1="206.858" y2="33.5" gradientUnits="userSpaceOnUse"><stop stop-color="#29252B"/><stop offset="1" stop-color="#29252B" stop-opacity="0"/></linearGradient><linearGradient id="V" x1="906.841" x2="908" y1="206.858" y2="33.5" gradientUnits="userSpaceOnUse"><stop stop-color="#29252B"/><stop offset="1" stop-color="#29252B" stop-opacity="0"/></linearGradient><linearGradient id="W" x1="906.841" x2="908" y1="206.858" y2="33.5" gradientUnits="userSpaceOnUse"><stop stop-color="#29252B"/><stop offset="1" stop-color="#29252B" stop-opacity="0"/></linearGradient><linearGradient id="X" x1="906.841" x2="908" y1="206.858" y2="33.5" gradientUnits="userSpaceOnUse"><stop stop-color="#29252B"/><stop offset="1" stop-color="#29252B" stop-opacity="0"/></linearGradient><linearGradient id="Y" x1="906.841" x2="908" y1="206.858" y2="33.5" gradientUnits="userSpaceOnUse"><stop stop-color="#29252B"/><stop offset="1" stop-color="#29252B" stop-opacity="0"/></linearGradient><linearGradient id="Z" x1="906.841" x2="908" y1="206.858" y2="33.5" gradientUnits="userSpaceOnUse"><stop stop-color="#29252B"/><stop offset="1" stop-color="#29252B" stop-opacity="0"/></linearGradient><linearGradient id="aa" x1="906.841" x2="908" y1="206.858" y2="33.5" gradientUnits="userSpaceOnUse"><stop stop-color="#29252B"/><stop offset="1" stop-color="#29252B" stop-opacity="0"/></linearGradient><linearGradient id="ab" x1="906.841" x2="908" y1="206.858" y2="33.5" gradientUnits="userSpaceOnUse"><stop stop-color="#29252B"/><stop offset="1" stop-color="#29252B" stop-opacity="0"/></linearGradient><linearGradient id="ac" x1="906.841" x2="908" y1="206.858" y2="33.5" gradientUnits="userSpaceOnUse"><stop stop-color="#29252B"/><stop offset="1" stop-color="#29252B" stop-opacity="0"/></linearGradient><linearGradient id="ad" x1="906.841" x2="908" y1="206.858" y2="33.5" gradientUnits="userSpaceOnUse"><stop stop-color="#29252B"/><stop offset="1" stop-color="#29252B" stop-opacity="0"/></linearGradient><linearGradient id="ae" x1="906.841" x2="908" y1="206.858" y2="33.5" gradientUnits="userSpaceOnUse"><stop stop-color="#29252B"/><stop offset="1" stop-color="#29252B" stop-opacity="0"/></linearGradient><linearGradient id="af" x1="906.841" x2="908" y1="206.858" y2="33.5" gradientUnits="userSpaceOnUse"><stop stop-color="#29252B"/><stop offset="1" stop-color="#29252B" stop-opacity="0"/></linearGradient><linearGradient id="ag" x1="906.841" x2="908" y1="206.858" y2="33.5" gradientUnits="userSpaceOnUse"><stop stop-color="#29252B"/><stop offset="1" stop-color="#29252B" stop-opacity="0"/></linearGradient><linearGradient id="ah" x1="906.841" x2="908" y1="206.858" y2="33.5" gradientUnits="userSpaceOnUse"><stop stop-color="#29252B"/><stop offset="1" stop-color="#29252B" stop-opacity="0"/></linearGradient><linearGradient id="ai" x1="906.841" x2="908" y1="206.858" y2="33.5" gradientUnits="userSpaceOnUse"><stop stop-color="#29252B"/><stop offset="1" stop-color="#29252B" stop-opacity="0"/></linearGradient><linearGradient id="aj" x1="906.841" x2="908" y1="206.858" y2="33.5" gradientUnits="userSpaceOnUse"><stop stop-color="#29252B"/><stop offset="1" stop-color="#29252B" stop-opacity="0"/></linearGradient><linearGradient id="ak" x1="906.841" x2="908" y1="206.858" y2="33.5" gradientUnits="userSpaceOnUse"><stop stop-color="#29252B"/><stop offset="1" stop-color="#29252B" stop-opacity="0"/></linearGradient><linearGradient id="al" x1="906.841" x2="908" y1="206.858" y2="33.5" gradientUnits="userSpaceOnUse"><stop stop-color="#29252B"/><stop offset="1" stop-color="#29252B" stop-opacity="0"/></linearGradient></defs></svg>