<svg xmlns="http://www.w3.org/2000/svg" width="1000" height="1179" fill="none"><g clip-path="url(#a)"><path fill="url(#b)" fill-opacity=".6" d="M877.413-359.944v24.247c-36.1-22.515-78.957-35.601-124.71-35.601-66.024 0-125.676 26.941-168.533 70.431L336.293-49.165c-22.587 23.092-54.247 37.14-88.996 37.14-68.919 0-124.71-55.613-124.71-124.312s55.984-124.312 124.71-124.312c34.942 0 66.409 14.24 88.996 37.14l45.753 46.569 77.799-79.09-44.208-44.837c-42.857-43.49-102.51-70.431-168.533-70.431-45.753 0-88.417 13.086-124.71 35.601v-178.771H0V87.655h122.394V63.41c36.293 22.514 79.15 35.792 124.71 35.792 66.023 0 125.676-27.133 168.533-70.43l247.876-252.28c22.587-23.092 54.248-37.14 88.997-37.14 68.919 0 124.71 55.613 124.71 124.312S821.429-11.833 752.51-11.833c-34.942 0-66.41-14.432-88.997-37.332l-45.56-46.376-77.798 79.09 44.015 44.837c42.857 43.49 102.509 70.43 168.533 70.43 45.753 0 88.61-13.085 124.71-35.792V87.27H1000v-447.214z"/><path fill="url(#c)" fill-opacity=".6" d="M877.413-.264v24.246c-36.1-22.514-78.957-35.6-124.71-35.6-66.024 0-125.676 26.94-168.533 70.43L336.293 310.516c-22.587 23.092-54.247 37.14-88.996 37.14-68.919 0-124.71-55.614-124.71-124.312s55.984-124.312 124.71-124.312c34.942 0 66.409 14.24 88.996 37.14l45.753 46.569 77.799-79.09-44.208-44.837c-42.857-43.49-102.51-70.43-168.533-70.43-45.753 0-88.417 13.085-124.71 35.6v-178.771H0v602.123h122.394v-24.247c36.293 22.515 79.15 35.793 124.71 35.793 66.023 0 125.676-27.133 168.533-70.43l247.876-252.28c22.587-23.092 54.248-37.14 88.997-37.14 68.919 0 124.71 55.613 124.71 124.312 0 68.698-55.791 124.504-124.71 124.504-34.942 0-66.41-14.432-88.997-37.332l-45.56-46.376-77.798 79.09 44.015 44.837c42.857 43.489 102.509 70.43 168.533 70.43 45.753 0 88.61-13.085 124.71-35.793v24.247H1000V-.264z"/><path fill="url(#d)" fill-opacity=".6" d="M877.413 359.416v24.246c-36.1-22.514-78.957-35.6-124.71-35.6-66.024 0-125.676 26.941-168.533 70.431L336.293 670.195c-22.587 23.092-54.247 37.139-88.996 37.139-68.919 0-124.71-55.613-124.71-124.311s55.984-124.312 124.71-124.312c34.942 0 66.409 14.24 88.996 37.14l45.753 46.568 77.799-79.09-44.208-44.836c-42.857-43.49-102.51-70.431-168.533-70.431-45.753 0-88.417 13.086-124.71 35.6v-178.77H0v602.123h122.394v-24.247c36.293 22.515 79.15 35.793 124.71 35.793 66.023 0 125.676-27.133 168.533-70.431l247.876-252.279c22.587-23.092 54.248-37.14 88.997-37.14 68.919 0 124.71 55.613 124.71 124.312 0 68.698-55.791 124.504-124.71 124.504-34.942 0-66.41-14.433-88.997-37.332l-45.56-46.377-77.798 79.091 44.015 44.836c42.857 43.49 102.509 70.431 168.533 70.431 45.753 0 88.61-13.086 124.71-35.793v24.247H1000V359.416z"/><path fill="url(#e)" fill-opacity=".6" d="M877.413 719.095v24.247c-36.1-22.515-78.957-35.6-124.71-35.6-66.024 0-125.676 26.941-168.533 70.43L336.293 1029.87c-22.587 23.1-54.247 37.14-88.996 37.14-68.919 0-124.71-55.61-124.71-124.307 0-68.699 55.984-124.312 124.71-124.312 34.942 0 66.409 14.24 88.996 37.14l45.753 46.568 77.799-79.09-44.208-44.837c-42.857-43.489-102.51-70.43-168.533-70.43-45.753 0-88.417 13.085-124.71 35.6v-178.77H0v602.118h122.394v-24.24c36.293 22.51 79.15 35.79 124.71 35.79 66.023 0 125.676-27.13 168.533-70.43l247.876-252.279c22.587-23.092 54.248-37.14 88.997-37.14 68.919 0 124.71 55.613 124.71 124.312 0 68.697-55.791 124.507-124.71 124.507-34.942 0-66.41-14.44-88.997-37.34l-45.56-46.372-77.798 79.092 44.015 44.84c42.857 43.49 102.509 70.43 168.533 70.43 45.753 0 88.61-13.09 124.71-35.8v24.25H1000V719.095z"/><path fill="url(#f)" fill-opacity=".2" d="M0-20h1000v191H0z"/></g><defs><linearGradient id="b" x1="500" x2="500" y1="-514.468" y2="1178.24" gradientUnits="userSpaceOnUse"><stop stop-color="#29252B"/><stop offset="1" stop-color="#29252B" stop-opacity="0"/></linearGradient><linearGradient id="c" x1="500" x2="500" y1="-514.468" y2="1178.24" gradientUnits="userSpaceOnUse"><stop stop-color="#29252B"/><stop offset="1" stop-color="#29252B" stop-opacity="0"/></linearGradient><linearGradient id="d" x1="500" x2="500" y1="-514.468" y2="1178.24" gradientUnits="userSpaceOnUse"><stop stop-color="#29252B"/><stop offset="1" stop-color="#29252B" stop-opacity="0"/></linearGradient><linearGradient id="e" x1="500" x2="500" y1="-514.468" y2="1178.24" gradientUnits="userSpaceOnUse"><stop stop-color="#29252B"/><stop offset="1" stop-color="#29252B" stop-opacity="0"/></linearGradient><radialGradient id="f" cx="0" cy="0" r="1" gradientTransform="matrix(0 95 -497.382 0 500 -20)" gradientUnits="userSpaceOnUse"><stop stop-color="#A9A9A9"/><stop offset="1" stop-opacity="0"/></radialGradient><clipPath id="a"><path fill="#fff" d="M0 0h1000v1178.24H0z"/></clipPath></defs></svg>