<svg xmlns="http://www.w3.org/2000/svg" width="385" height="360" fill="none"><path fill="#383339" d="M292.682 360h-55.146L0 221.96l133.012-76.788.156-.091v31.827L55.133 221.96l58.835 34.192z"/><path fill="#383339" d="M186.625 114.214v31.828L142.704 171.4v-31.802zM384.448 0v31.814L196.16 140.534v-31.827z"/><path fill="#1A161D" d="M237.536 360H209.06L0 238.51v-16.55z"/><path fill="#29252B" d="M133.168 143.443v1.638l-.156.091.001-4.275q.156 1.269.155 2.546M142.665 139.598h-.104v-1.572c.052.559.078 1.066.104 1.572M142.704 186.132v10.587l-.143.078V186.21zM142.704 219.102v10.588l-.143.078V219.18z"/><path fill="#29252B" d="M142.704 186.132v10.587l-.143.078V186.21zM142.704 219.102v10.588l-.143.078V219.18z"/><path fill="#575255" d="M384.436 99.977V360c-4.415 0-15.543-.009-20.539 0h-71.28L113.903 256.152l19.201-11.094v7.015a6.717 6.717 0 0 0 9.392.13l.143-.13V239.55l43.921-25.358v6.781a6.74 6.74 0 0 0 7.348 1.461 6.7 6.7 0 0 0 2.188-1.461v-12.276z"/><path fill="#575255" d="M151.134 243.992c3.586 2.196 5.392 5.053 5.392 7.924s-1.754 5.742-5.314 7.925a27.29 27.29 0 0 1-25.89 0c-3.586-2.183-5.378-5.041-5.391-7.925s1.766-5.728 5.326-7.911a27.17 27.17 0 0 1 25.877 0z"/><path fill="#575255" d="M146.042 247.37c2.183 1.299 3.261 2.91 3.274 4.547s-1.065 3.286-3.222 4.546a17.36 17.36 0 0 1-15.68 0c-2.169-1.299-3.26-2.896-3.273-4.546s1.065-3.287 3.222-4.534a15.85 15.85 0 0 1 7.794-1.884c2.745-.06 5.46.584 7.885 1.871M204.526 212.775c3.599 2.196 5.391 5.054 5.391 7.925s-1.74 5.729-5.3 7.924a27.27 27.27 0 0 1-25.89 0c-3.586-2.195-5.379-5.053-5.392-7.924s1.754-5.729 5.314-7.912a24.93 24.93 0 0 1 12.912-3.286 25.37 25.37 0 0 1 12.965 3.273"/><path fill="#575255" d="M199.447 216.153c2.17 1.299 3.261 2.897 3.261 4.547s-1.052 3.286-3.209 4.534a17.29 17.29 0 0 1-15.693 0c-2.169-1.299-3.247-2.884-3.26-4.534s1.065-3.287 3.221-4.534a15.7 15.7 0 0 1 7.795-1.884 16.1 16.1 0 0 1 7.885 1.871"/><path fill="#766F71" d="M191.627 196.485v4.936l-5.002 2.858-43.921 25.411v-10.588l43.921-25.358h.104a3.257 3.257 0 0 1 4.898 2.741M191.627 163.528v4.936l-5.002 2.884-43.921 25.371v-10.626l43.921-25.358.104-.065a3.262 3.262 0 0 1 4.898 2.858"/><path fill="#1A161D" d="M186.625 204.332v9.86l-43.921 25.358v-9.86zM186.625 171.348v22.396l-43.921 25.358v-22.383zM186.625 146.042v14.732l-43.921 25.358V171.4z"/><path fill="#766F71" d="M196.16 87.532v133.441a6.74 6.74 0 0 1-9.535 0v-16.694l5.002-2.883v-4.911a3.262 3.262 0 0 0-4.898-2.832h-.104v-22.305l5.002-2.884v-4.936a3.26 3.26 0 0 0-4.898-2.819l-.104.065V89.961a22.08 22.08 0 0 0-22.032-23.598A22.083 22.083 0 0 0 142.56 89.96l.001 48.065a31.48 31.48 0 0 0-9.094-19.407l-.442-.429V87.532a31.58 31.58 0 0 1 31.574-30.94 31.58 31.58 0 0 1 31.574 30.94z"/><path fill="#1A161D" d="M384.448 31.814v68.163L196.16 208.697v-68.163z"/><path fill="#766F71" d="M142.704 140.988v45.105l-.143.078v10.587l.142-.078v22.383l-.142.078v10.588l.142-.078v22.383l-.142.078a6.72 6.72 0 0 1-9.393-.13V143.443a21 21 0 0 0-.156-2.597 22.083 22.083 0 0 0-43.908 2.598v27.06l-9.536 5.521V140.95a31.581 31.581 0 0 1 53.457-22.747l.442.429a31.48 31.48 0 0 1 9.094 19.408v1.572h.104c.025.442.039.909.039 1.376"/><path fill="#1A161D" d="M133.168 176.908v68.149l-19.2 11.095-58.835-34.192z"/><path fill="#383339" d="m235.003 235.327.156 1.598c0-.533-.078-1.065-.104-1.611z"/><path fill="#29252B" d="M267.934 274.988c-20.33-9.301-31.359-22.993-32.775-37.673l2.195 23.383a35.4 35.4 0 0 0 5.041 14.81 41 41 0 0 0 3.455 4.767 54.3 54.3 0 0 0 9.249 8.951 65 65 0 0 0 3.066 2.222 81 81 0 0 0 8.912 5.196c.974.493 1.988.974 3.014 1.442l.13.065a94 94 0 0 0 8.6 3.455c.974.364 1.974.689 2.962 1.001a110 110 0 0 0 8.638 2.429c.962.247 1.936.455 2.923.662q4.21.936 8.561 1.572c.961.143 1.923.299 2.897.403 2.793.39 5.638.688 8.496.883.948.078 1.923.156 2.897.195 2.793.169 5.612.247 8.431.273h2.858c1.468 0 2.936 0 4.404-.091l-2.183-23.188c-22.162.818-44.025-2.638-61.771-10.757"/><path fill="#1A161D" d="M384.435 274.534v24.02l-1.558.597c-.923.325-1.858.663-2.793.974-2.664.936-5.392 1.78-8.172 2.599-.909.259-1.844.506-2.78.753-2.715.728-5.456 1.299-8.236 1.949q-1.377.285-2.806.545a146 146 0 0 1-8.275 1.39c-.948.143-1.897.26-2.845.364-.325 0-.662.091-1 .117-2.429.312-4.872.546-7.327.74h-.169c-.883.065-1.78.143-2.663.182-1.299.078-2.663.143-3.988.182l-2.183-23.188 3.326-.156 3.326-.221q3.754-.272 7.495-.728l1.299-.155 1.793-.234 2.378-.338 1.299-.208c1.507-.234 3-.494 4.481-.766l1.299-.247 2.066-.416h.26l3.014-.649 1.663-.39.571-.143c1.429-.338 2.845-.702 4.261-1.091h.13c.948-.247 1.884-.52 2.819-.793l1.377-.415.325-.104a55 55 0 0 0 2.078-.637l2.053-.675a162 162 0 0 0 4.378-1.546l2.195-.845z"/><path fill="#383339" d="M242.525 230.56c0-.299.077-.597.142-.909a.2.2 0 0 1 0-.078c0-.247.078-.494.13-.741s.117-.571.182-.87.195-.792.299-1.182.208-.793.338-1.195a1.4 1.4 0 0 1 0-.221l.156-.468c.143-.403.285-.818.441-1.234l.351-.883c.169-.403.351-.806.533-1.209l.234-.506.428-.858c.195-.363.39-.753.598-1.13.416-.753.87-1.507 1.299-2.26.429-.754 1-1.507 1.533-2.248l.831-1.117.871-1.117c.298-.377.61-.753.922-1.104s.636-.728.974-1.091l1.001-1.092 1.052-1.078 1.091-1.078 1.143-1.065c.403-.364.78-.715 1.195-1.066.416-.35 1.014-.883 1.533-1.299a61 61 0 0 1 2.43-1.935l.584-.429c.65-.494 1.299-.987 2.001-1.468l1.546-1.091c.519-.364 1.052-.702 1.584-1.052l1.027-.663 1.091-.688 1.819-1.092c.454-.272.909-.545 1.39-.805l.311-.182 2.962-1.611.858-.428.234-.13.727-.351 1.208-.611a99 99 0 0 1 6.586-2.962 129 129 0 0 1 14.251-5.092 67 67 0 0 1 3.69-1.039c1.247-.312 2.494-.676 3.78-.962 2.52-.623 5.092-1.169 7.691-1.636a136 136 0 0 1 3.897-.689l2.676-.416q1.117-.168 2.221-.311c2.079-.286 4.17-.52 6.275-.715a174 174 0 0 1 6.391-.481l2.118-.103c1.416 0 2.819-.117 4.209-.13h6.222l2.079.065c1.299 0 2.715.104 4.066.194s2.715.169 4.04.299c.676 0 1.299.104 2.001.182 1.987.195 3.897.442 5.897.728 2.001.285 3.898.584 5.755.961h.104c1.858.351 3.69.727 5.495 1.169.611.13 1.222.286 1.819.442.598.156 1.208.299 1.806.48.597.182 1.169.299 1.754.481v-7.509c-39.856-10.678-91.663-3.104-123.711 19.668-17.72 12.601-26.177 27.541-25.67 41.766 0 .532 0 1.065.091 1.585v.454a35 35 0 0 0 .974 5.43c.13.507.286 1.014.442 1.507.156.494.234.741.364 1.105a37 37 0 0 0 1.688 4.001q.312.636.663 1.299l.545.987.559.922c.195.312.39.637.598.949s.402.623.623.935a49.7 49.7 0 0 0 8.665 9.483c.87.754 1.767 1.481 2.715 2.196a74 74 0 0 0 4.482 3.144 84 84 0 0 0 3.274 1.987 83 83 0 0 0 7.184 3.689c17.706 8.107 39.556 11.562 61.654 10.757l3.325-.156c1.104 0 2.209-.13 3.326-.208l3.351-.286c1.378-.13 2.768-.273 4.145-.454l1.299-.156 1.792-.234 2.378-.338 1.299-.208 2.247-.363c.455-.065.896-.156 1.299-.234l.884-.169 1.299-.247 2.065-.416h.26l2.338-.506.637-.143 1.663-.39.571-.143 2.183-.532 2.078-.559h.13l1.936-.546.883-.247.871-.246.506-.169.325-.104 2.078-.637 2.053-.675a243 243 0 0 0 4.378-1.546l2.195-.845.936-.376v-7.795a153.7 153.7 0 0 1-45.468 11.159c-25.228 2.391-49.365-.987-67.929-9.483-15.277-7.171-25.02-16.901-27.761-27.839 0-.221-.104-.429-.156-.663-.052-.233-.117-.519-.169-.792-.091-.468-.182-.922-.233-1.39s-.104-.78-.143-1.169v-4.352q.026-.909.117-1.728"/><path fill="#383339" d="M273.728 193.887a104 104 0 0 1 3.599-1.923c-1.222.624-2.43 1.299-3.599 1.923M279.717 190.783l-2.39 1.221.935-.507zM286.303 187.834a132 132 0 0 0-6.586 2.949c2.13-1.04 4.326-2.092 6.586-2.949M300.411 182.871a142 142 0 0 0-14.108 4.963 129 129 0 0 1 14.108-4.963M384.436 181.403V266.7a153.7 153.7 0 0 1-45.468 11.159c-25.228 2.391-49.365-.987-67.929-9.483-15.446-7.054-25.189-16.784-27.93-27.722.65-11.458 8.535-23.033 22.578-33.023 14.394-10.223 33.49-17.511 54.561-20.915 1.611-.273 3.248-.506 4.898-.714l-.767-8.106-2.221.298q1.117-.168 2.221-.311c2.079-.286 4.17-.52 6.275-.715a174 174 0 0 1 6.391-.481l2.118-.104 4.209-.129h6.222l2.079.065c1.299 0 2.715.116 4.066.194s2.715.169 4.04.299l2.001.182c1.987.195 3.897.442 5.898.728 2 .285 3.897.584 5.754.961h.104c1.858.351 3.69.727 5.495 1.169l1.819.442 1.806.48z"/><path fill="#29252B" d="m324.418 177.843.754 8.093c-1.65.208-3.274.455-4.898.728-21.097 3.391-40.18 10.678-54.561 20.915-14.056 9.99-21.941 21.565-22.591 33.01 0-.208-.104-.429-.156-.663s-.117-.52-.169-.792a34 34 0 0 1-.234-1.39c-.064-.468-.103-.78-.129-1.17a10 10 0 0 1-.078-1.545 30.16 30.16 0 0 1 3.52-14.94c.182-.364.377-.753.598-1.117.402-.753.857-1.52 1.299-2.273s.987-1.494 1.52-2.235c.272-.39.558-.753.831-1.13s.585-.727.87-1.117.611-.741.936-1.104l.961-1.092c.338-.363.663-.727 1.013-1.091l1.04-1.078c.376-.351.727-.715 1.104-1.078l1.13-1.066 1.195-1.065a81 81 0 0 1 6.496-5.196 95 95 0 0 1 3.143-2.144l1.014-.662 1.104-.689c.597-.363 1.195-.727 1.806-1.078.61-.351.922-.545 1.39-.818l.324-.182a113 113 0 0 1 5.989-3.144 130 130 0 0 1 6.586-2.949 142 142 0 0 1 14.186-4.91 154 154 0 0 1 3.703-1.04l3.767-.961q3.78-.896 7.704-1.637l3.897-.688c1.715-.247 3.286-.494 4.936-.702"/><path fill="#1A161D" d="M242.381 236.094v-.442a1.7 1.7 0 0 0 0 .442M242.408 236.588v-.494.481c0 .39.078.792.13 1.169-.052-.377-.091-.767-.13-1.156M242.355 235.652a29.9 29.9 0 0 1 3.508-15.589 30.15 30.15 0 0 0-3.521 14.94c0 .246 0 .454.013.649M246.461 218.972q.592-1.17 1.299-2.273c-.442.753-.896 1.52-1.299 2.273M247.799 216.699c.454-.741.961-1.494 1.52-2.234a51 51 0 0 0-1.52 2.234M264.934 199.486a79 79 0 0 1 3.156-2.13 95 95 0 0 0-3.143 2.143 81 81 0 0 0-6.496 5.197 78 78 0 0 1 6.483-5.21M384.436 181.403v7.872c-15.784-4.417-34.062-5.859-52.977-4.066a127 127 0 0 0-6.287.727l-.767-8.106c2.079-.286 4.183-.519 6.288-.714 2.104-.195 4.274-.364 6.378-.494l2.118-.104 4.209-.13h6.223l2.078.065c1.299 0 2.715.117 4.066.195s2.715.169 4.04.299l2.001.182c1.987.208 3.897.441 5.898.727s3.897.598 5.755.962h.103c1.858.363 3.69.74 5.496 1.169l1.818.441 1.806.481z"/><path fill="#29252B" d="m343.787 284.653 2.196 23.176c-2.442.299-4.885.533-7.34.728h-.156l-2.195-23.189z"/><path fill="#766F71" d="M355.272 259.23c1.143.52.48 1.65-1.027 1.793l-23.188 2.196a5.06 5.06 0 0 1-2.468-.351l-62.096-28.45c-1.131-.519-.481-1.65 1.039-1.793l23.188-2.182a4.7 4.7 0 0 1 2.456.351zM362.637 238.523a1.75 1.75 0 0 1 1.13 1.299l1.299 13.433c.091.87-1.689 1.481-2.832.961l-62.096-28.437a1.697 1.697 0 0 1-1.13-1.299l-1.299-13.419c-.078-.883 1.702-1.494 2.845-.974zM384.435 224.753v8.106l-12.601 1.182a4.86 4.86 0 0 1-2.455-.35l-62.109-28.437c-1.13-.52-.48-1.65 1.039-1.793l23.189-2.195a5.2 5.2 0 0 1 2.455.35z"/><path fill="#575255" d="M265.7 204.085a386 386 0 0 1 35.452-13.134c-1 .858-22.227 19.603-17.434 47.17a51.04 51.04 0 0 0 38.778 40.479 124.4 124.4 0 0 1-44.312-7.275c-9.197-3.338-19.85-7.496-28.047-17.68a38.8 38.8 0 0 1-6.313-10.484 32.06 32.06 0 0 1-1.066-17.433c4.002-15.849 22.072-21.448 22.942-21.643"/><path fill="#575255" d="M233.976 231.963a55.2 55.2 0 0 0 1.78 14.614c12.328 46.975 84.583 61.616 93.611 63.33a120.6 120.6 0 0 1-33.477-1.169s-23.227-4.118-42.259-16.797a52 52 0 0 1-12.289-11.016 47.3 47.3 0 0 1-5.196-8.119c-8.665-17.226-4.014-34.919-2.17-40.843"/></svg>