<svg width="385" height="360" viewBox="0 0 385 360" fill="none" xmlns="http://www.w3.org/2000/svg">
<path d="M292.682 360H237.536L0 221.96L133.012 145.172L133.168 145.081V176.908L55.1328 221.96L113.968 256.152L292.682 360Z" fill="#383339"/>
<path d="M186.625 114.214V146.042L142.704 171.4V140.988C142.704 140.521 142.704 140.053 142.704 139.598L186.625 114.214Z" fill="#383339"/>
<path d="M384.448 0V31.8144L196.16 140.534V108.707L384.448 0Z" fill="#383339"/>
<path d="M237.536 360L209.06 360L0 238.51V221.96L237.536 360Z" fill="#1A161D"/>
<path d="M133.168 143.443L133.168 145.081L133.012 145.172L133.013 140.897C133.117 141.742 133.169 142.592 133.168 143.443Z" fill="#29252B"/>
<path d="M142.665 139.598H142.561V138.026C142.613 138.585 142.639 139.092 142.665 139.598Z" fill="#29252B"/>
<path d="M142.704 186.132V196.719L142.561 196.797V186.21L142.704 186.132Z" fill="#29252B"/>
<path d="M142.704 219.102V229.69L142.561 229.768V219.18L142.704 219.102Z" fill="#29252B"/>
<path d="M142.704 186.132V196.719L142.561 196.797V186.21L142.704 186.132Z" fill="#29252B"/>
<path d="M142.704 219.102V229.69L142.561 229.768V219.18L142.704 219.102Z" fill="#29252B"/>
<path d="M384.436 99.9769V342.164C384.436 347.307 384.436 355.373 384.436 360C380.021 360 368.893 359.991 363.897 360H292.617L113.903 256.152L133.104 245.058V252.073C134.341 253.318 136.018 254.028 137.773 254.053C139.529 254.077 141.224 253.413 142.496 252.203L142.639 252.073V239.55L186.56 214.192V220.973C187.187 221.599 187.93 222.096 188.748 222.434C189.566 222.773 190.443 222.948 191.328 222.948C192.214 222.948 193.09 222.773 193.908 222.434C194.726 222.096 195.47 221.599 196.096 220.973V208.697L384.436 99.9769Z" fill="#575255"/>
<path d="M151.134 243.992C154.72 246.188 156.526 249.045 156.526 251.916C156.526 254.787 154.772 257.658 151.212 259.841C147.234 261.985 142.786 263.108 138.267 263.108C133.748 263.108 129.3 261.985 125.322 259.841C121.736 257.658 119.944 254.8 119.931 251.916C119.918 249.032 121.697 246.188 125.257 244.005C129.23 241.853 133.677 240.726 138.196 240.726C142.714 240.726 147.161 241.853 151.134 244.005V243.992Z" fill="#575255"/>
<path d="M146.042 247.37C148.225 248.669 149.303 250.28 149.316 251.917C149.329 253.554 148.251 255.203 146.094 256.463C143.664 257.693 140.978 258.334 138.254 258.334C135.531 258.334 132.845 257.693 130.414 256.463C128.245 255.164 127.154 253.567 127.141 251.917C127.128 250.267 128.206 248.63 130.363 247.383C132.756 246.097 135.44 245.449 138.157 245.499C140.902 245.439 143.617 246.083 146.042 247.37Z" fill="#575255"/>
<path d="M204.526 212.775C208.125 214.971 209.917 217.829 209.917 220.7C209.917 223.571 208.177 226.429 204.617 228.624C200.639 230.769 196.191 231.891 191.672 231.891C187.153 231.891 182.704 230.769 178.727 228.624C175.141 226.429 173.348 223.571 173.335 220.7C173.322 217.829 175.089 214.971 178.649 212.788C182.575 210.542 187.039 209.405 191.561 209.502C196.098 209.414 200.575 210.544 204.526 212.775Z" fill="#575255"/>
<path d="M199.447 216.153C201.617 217.452 202.708 219.05 202.708 220.7C202.708 222.35 201.656 223.986 199.499 225.234C197.069 226.472 194.38 227.118 191.653 227.118C188.925 227.118 186.236 226.472 183.806 225.234C181.637 223.935 180.559 222.35 180.546 220.7C180.533 219.05 181.611 217.413 183.767 216.166C186.159 214.874 188.844 214.225 191.562 214.282C194.307 214.224 197.021 214.868 199.447 216.153Z" fill="#575255"/>
<path d="M191.627 196.485V201.421L186.625 204.279L142.704 229.69V219.102L186.625 193.744H186.729C187.219 193.459 187.775 193.307 188.341 193.303C188.907 193.298 189.465 193.441 189.96 193.718C190.454 193.995 190.868 194.395 191.16 194.88C191.452 195.366 191.613 195.919 191.627 196.485Z" fill="#766F71"/>
<path d="M191.627 163.528V168.464L186.625 171.348L142.704 196.719L142.704 186.093L186.625 160.735L186.729 160.67C187.228 160.381 187.794 160.229 188.37 160.229C188.946 160.23 189.512 160.383 190.01 160.674C190.507 160.964 190.919 161.381 191.203 161.883C191.487 162.384 191.634 162.952 191.627 163.528Z" fill="#766F71"/>
<path d="M186.625 204.332V214.192L142.704 239.55L142.704 229.69L186.625 204.332Z" fill="#1A161D"/>
<path d="M186.625 171.348V193.744L142.704 219.102V196.719L186.625 171.348Z" fill="#1A161D"/>
<path d="M186.625 146.042V160.774L142.704 186.132L142.704 171.4L186.625 146.042Z" fill="#1A161D"/>
<path d="M196.16 87.5317V220.973C195.534 221.599 194.791 222.096 193.973 222.434C193.155 222.773 192.278 222.948 191.393 222.948C190.507 222.948 189.63 222.773 188.812 222.434C187.994 222.096 187.251 221.599 186.625 220.973L186.625 204.279L191.627 201.396L191.627 196.485C191.629 195.911 191.479 195.347 191.193 194.849C190.907 194.351 190.495 193.938 189.998 193.651C189.501 193.363 188.937 193.212 188.363 193.213C187.789 193.213 187.225 193.365 186.729 193.653H186.625L186.625 171.348L191.627 168.464V163.528C191.627 162.955 191.475 162.392 191.188 161.896C190.901 161.4 190.489 160.989 189.992 160.703C189.496 160.417 188.933 160.267 188.36 160.268C187.787 160.269 187.225 160.421 186.729 160.709L186.625 160.774L186.625 89.961C186.833 86.9404 186.417 83.9094 185.404 81.0563C184.39 78.2032 182.801 75.5889 180.735 73.3758C178.669 71.1627 176.17 69.3981 173.393 68.1917C170.616 66.9852 167.62 66.3626 164.593 66.3626C161.565 66.3626 158.57 66.9852 155.793 68.1917C153.016 69.3981 150.517 71.1627 148.45 73.3758C146.384 75.5889 144.795 78.2032 143.782 81.0563C142.769 83.9094 142.353 86.9404 142.56 89.961L142.561 138.026C141.893 130.692 138.675 123.825 133.467 118.619L133.025 118.19V87.5317C133.193 79.2687 136.593 71.4006 142.496 65.6161C148.399 59.8316 156.335 56.5917 164.599 56.5917C172.864 56.5917 180.799 59.8316 186.702 65.6161C192.605 71.4006 196.006 79.2687 196.173 87.5317H196.16Z" fill="#766F71"/>
<path d="M384.448 31.8144V99.9769L196.16 208.697V140.534L384.448 31.8144Z" fill="#1A161D"/>
<path d="M142.704 140.988V186.093L142.561 186.171V196.758L142.703 196.68V219.063L142.561 219.141V229.729L142.703 229.651V252.034L142.561 252.112C141.289 253.322 139.593 253.986 137.838 253.962C136.082 253.938 134.406 253.227 133.168 251.982L133.168 143.443C133.171 142.575 133.119 141.708 133.012 140.846C132.188 135.399 129.358 130.456 125.076 126.988C120.795 123.521 115.372 121.779 109.872 122.104C104.372 122.43 99.1928 124.799 95.3502 128.747C91.5077 132.696 89.2797 137.938 89.1036 143.444V170.504L79.5684 176.025V140.95C79.5741 134.761 81.3985 128.709 84.8148 123.548C88.231 118.387 93.0886 114.344 98.7838 111.92C104.479 109.497 110.761 108.8 116.849 109.917C122.936 111.034 128.562 113.916 133.025 118.203L133.467 118.632C138.675 123.838 141.893 130.706 142.561 138.04V139.612H142.665C142.69 140.054 142.704 140.521 142.704 140.988Z" fill="#766F71"/>
<path d="M133.168 176.908L133.168 245.057L113.968 256.152L55.1328 221.96L133.168 176.908Z" fill="#1A161D"/>
<path d="M235.003 235.327L235.159 236.925C235.159 236.392 235.081 235.86 235.055 235.314L235.003 235.327Z" fill="#383339"/>
<path d="M267.934 274.988C247.604 265.687 236.575 251.995 235.159 237.315L237.354 260.698C237.908 265.949 239.63 271.01 242.395 275.508C243.431 277.178 244.585 278.771 245.85 280.275C248.567 283.615 251.672 286.62 255.099 289.226C256.074 289.98 257.1 290.72 258.165 291.448C261.022 293.368 263.998 295.104 267.077 296.644C268.051 297.137 269.065 297.618 270.091 298.086L270.221 298.151C272.983 299.424 275.85 300.576 278.821 301.606C279.795 301.97 280.795 302.295 281.783 302.607C284.597 303.525 287.477 304.334 290.421 305.036C291.383 305.283 292.357 305.491 293.344 305.698C296.15 306.322 299.004 306.846 301.905 307.27C302.866 307.413 303.828 307.569 304.802 307.673C307.595 308.063 310.44 308.361 313.298 308.556C314.246 308.634 315.221 308.712 316.195 308.751C318.988 308.92 321.807 308.998 324.626 309.024C325.574 309.024 326.523 309.024 327.484 309.024C328.952 309.024 330.42 309.024 331.888 308.933L329.705 285.745C307.543 286.563 285.68 283.107 267.934 274.988Z" fill="#29252B"/>
<path d="M384.435 274.534V298.554L382.877 299.151C381.954 299.476 381.019 299.814 380.084 300.125C377.42 301.061 374.692 301.905 371.912 302.724C371.003 302.983 370.068 303.23 369.132 303.477C366.417 304.205 363.676 304.776 360.896 305.426C359.978 305.616 359.043 305.798 358.09 305.971C355.362 306.517 352.582 306.972 349.815 307.361C348.867 307.504 347.918 307.621 346.97 307.725C346.645 307.725 346.308 307.816 345.97 307.842C343.541 308.154 341.098 308.388 338.643 308.582H338.474C337.591 308.647 336.694 308.725 335.811 308.764C334.512 308.842 333.148 308.907 331.823 308.946L329.64 285.758L332.966 285.602L336.292 285.381C338.795 285.199 341.293 284.957 343.787 284.653L345.086 284.498L346.879 284.264L349.257 283.926L350.556 283.718C352.063 283.484 353.556 283.224 355.037 282.952L356.336 282.705L358.402 282.289H358.662L361.676 281.64L363.339 281.25L363.91 281.107C365.339 280.769 366.755 280.405 368.171 280.016H368.301C369.249 279.769 370.185 279.496 371.12 279.223L372.497 278.808L372.822 278.704C373.523 278.509 374.212 278.288 374.9 278.067L376.953 277.392C378.421 276.898 379.889 276.378 381.331 275.846L383.526 275.001L384.435 274.534Z" fill="#1A161D"/>
<path d="M242.525 230.56C242.525 230.261 242.602 229.963 242.667 229.651C242.661 229.625 242.661 229.598 242.667 229.573C242.667 229.326 242.745 229.079 242.797 228.832C242.849 228.585 242.914 228.261 242.979 227.962C243.044 227.663 243.174 227.17 243.278 226.78C243.382 226.39 243.486 225.987 243.616 225.585C243.61 225.511 243.61 225.437 243.616 225.364L243.772 224.896C243.915 224.493 244.057 224.078 244.213 223.662L244.564 222.779C244.733 222.376 244.915 221.973 245.097 221.57L245.331 221.064L245.759 220.206C245.954 219.843 246.149 219.453 246.357 219.076C246.773 218.323 247.227 217.569 247.656 216.816C248.085 216.062 248.656 215.309 249.189 214.568L250.02 213.451L250.891 212.334C251.189 211.957 251.501 211.581 251.813 211.23C252.125 210.879 252.449 210.502 252.787 210.139L253.788 209.047L254.84 207.969L255.931 206.891L257.074 205.826C257.477 205.462 257.854 205.111 258.269 204.76C258.685 204.41 259.283 203.877 259.802 203.461C260.582 202.799 261.4 202.162 262.232 201.526L262.816 201.097C263.466 200.603 264.115 200.11 264.817 199.629L266.363 198.538C266.882 198.174 267.415 197.836 267.947 197.486L268.974 196.823L270.065 196.135L271.884 195.043C272.338 194.771 272.793 194.498 273.274 194.238L273.585 194.056L276.547 192.445L277.405 192.017L277.639 191.887L278.366 191.536L279.574 190.925C281.705 189.873 283.887 188.886 286.16 187.963C290.807 185.988 295.565 184.288 300.411 182.871C301.619 182.494 302.854 182.144 304.101 181.832C305.348 181.52 306.595 181.156 307.881 180.87C310.401 180.247 312.973 179.701 315.572 179.234C316.871 178.987 318.17 178.753 319.469 178.545L322.145 178.129C322.89 178.017 323.63 177.913 324.366 177.818C326.445 177.532 328.536 177.298 330.641 177.103C332.745 176.908 334.915 176.739 337.032 176.622L339.15 176.519C340.566 176.519 341.969 176.402 343.359 176.389H349.581L351.66 176.454C352.959 176.454 354.375 176.558 355.726 176.648C357.077 176.739 358.441 176.817 359.766 176.947C360.442 176.947 361.065 177.051 361.767 177.129C363.754 177.324 365.664 177.571 367.664 177.857C369.665 178.142 371.562 178.441 373.419 178.818H373.523C375.381 179.169 377.213 179.545 379.018 179.987C379.629 180.117 380.24 180.273 380.837 180.429C381.435 180.585 382.045 180.728 382.643 180.909C383.24 181.091 383.812 181.208 384.397 181.39V173.881C344.541 163.203 292.734 170.777 260.686 193.549C242.966 206.15 234.509 221.09 235.016 235.315C235.016 235.847 235.016 236.38 235.107 236.9V237.354C235.289 239.187 235.615 241.003 236.081 242.784C236.211 243.291 236.367 243.798 236.523 244.291C236.679 244.785 236.757 245.032 236.887 245.396C237.37 246.761 237.934 248.097 238.575 249.397C238.783 249.821 239.004 250.254 239.238 250.696L239.783 251.683L240.342 252.605C240.537 252.917 240.732 253.242 240.94 253.554C241.148 253.866 241.342 254.177 241.563 254.489C244.029 258.011 246.942 261.199 250.228 263.972C251.098 264.726 251.995 265.453 252.943 266.168C253.891 266.882 254.866 267.597 255.879 268.285C256.386 268.636 256.905 268.974 257.425 269.312C258.482 269.987 259.573 270.65 260.699 271.299C262.942 272.598 265.336 273.828 267.883 274.988C285.589 283.095 307.439 286.55 329.537 285.745L332.862 285.589C333.966 285.589 335.071 285.459 336.188 285.381L339.539 285.095C340.917 284.965 342.307 284.822 343.684 284.641L344.983 284.485L346.775 284.251L349.153 283.913L350.452 283.705L352.699 283.342C353.154 283.277 353.595 283.186 353.998 283.108L354.882 282.939L356.181 282.692L358.246 282.276H358.506L360.844 281.77L361.481 281.627L363.144 281.237L363.715 281.094L365.898 280.562L367.976 280.003H368.106L370.042 279.457L370.925 279.21L371.796 278.964L372.302 278.795L372.627 278.691L374.705 278.054L376.758 277.379C378.239 276.872 379.707 276.353 381.136 275.833L383.331 274.988L384.267 274.612V266.817C369.769 272.836 354.436 276.6 338.799 277.976C313.571 280.367 289.434 276.989 270.87 268.493C255.593 261.322 245.85 251.592 243.109 240.654C243.109 240.433 243.005 240.225 242.953 239.991C242.901 239.758 242.836 239.472 242.784 239.199C242.693 238.731 242.602 238.277 242.551 237.809C242.499 237.341 242.447 237.029 242.408 236.64C242.408 236.51 242.408 236.38 242.408 236.25V236.159C242.408 236.003 242.408 235.86 242.408 235.717C242.408 235.523 242.408 235.315 242.408 235.12C242.408 234.47 242.408 233.821 242.408 233.145V232.288C242.425 231.682 242.464 231.106 242.525 230.56Z" fill="#383339"/>
<path d="M273.728 193.887C274.91 193.224 276.105 192.588 277.327 191.964C276.105 192.588 274.897 193.263 273.728 193.887Z" fill="#383339"/>
<path d="M279.717 190.783L277.327 192.004L278.262 191.497L279.717 190.783Z" fill="#383339"/>
<path d="M286.303 187.834C284.056 188.769 281.847 189.756 279.717 190.783C281.847 189.743 284.043 188.691 286.303 187.834Z" fill="#383339"/>
<path d="M300.411 182.871C295.625 184.276 290.915 185.933 286.303 187.834C290.906 185.908 295.617 184.251 300.411 182.871Z" fill="#383339"/>
<path d="M307.881 180.896C310.401 180.286 312.973 179.727 315.584 179.26C312.969 179.736 310.401 180.282 307.881 180.896Z" fill="#383339"/>
<path d="M384.436 181.403V266.7C369.938 272.72 354.605 276.483 338.968 277.859C313.74 280.25 289.603 276.872 271.039 268.376C255.593 261.322 245.85 251.592 243.109 240.654C243.759 229.196 251.644 217.621 265.687 207.631C280.081 197.408 299.177 190.12 320.248 186.716C321.859 186.443 323.496 186.21 325.146 186.002L324.379 177.896L322.158 178.194C322.903 178.082 323.643 177.978 324.379 177.883C326.458 177.597 328.549 177.363 330.654 177.168C332.758 176.973 334.928 176.804 337.045 176.687L339.163 176.583L343.372 176.454H349.594L351.673 176.519C352.972 176.519 354.388 176.635 355.739 176.713C357.09 176.791 358.454 176.882 359.779 177.012L361.78 177.194C363.767 177.389 365.677 177.636 367.678 177.922C369.678 178.207 371.575 178.506 373.432 178.883H373.536C375.394 179.234 377.226 179.61 379.031 180.052L380.85 180.494L382.656 180.974L384.436 181.403Z" fill="#383339"/>
<path d="M324.418 177.843L325.172 185.936C323.522 186.144 321.898 186.391 320.274 186.664C299.177 190.055 280.094 197.342 265.713 207.579C251.657 217.569 243.772 229.144 243.122 240.589C243.122 240.381 243.018 240.16 242.966 239.926C242.914 239.692 242.849 239.406 242.797 239.134C242.745 238.861 242.628 238.211 242.563 237.744C242.499 237.276 242.46 236.964 242.434 236.574C242.369 236.062 242.343 235.545 242.356 235.029C242.221 229.828 243.434 224.682 245.876 220.089C246.058 219.725 246.253 219.336 246.474 218.972C246.876 218.219 247.331 217.452 247.773 216.699C248.214 215.945 248.76 215.205 249.293 214.464C249.565 214.074 249.851 213.711 250.124 213.334C250.397 212.957 250.709 212.607 250.994 212.217C251.28 211.827 251.605 211.476 251.93 211.113L252.891 210.021C253.229 209.658 253.554 209.294 253.904 208.93L254.944 207.852C255.32 207.501 255.671 207.137 256.048 206.774L257.178 205.708L258.373 204.643C260.448 202.801 262.616 201.066 264.869 199.447C265.895 198.719 266.934 198.005 268.012 197.303L269.026 196.641L270.13 195.952C270.727 195.589 271.325 195.225 271.936 194.874C272.546 194.523 272.858 194.329 273.326 194.056L273.65 193.874C275.599 192.783 277.548 191.743 279.639 190.73C281.731 189.717 283.978 188.717 286.225 187.781C290.864 185.895 295.599 184.256 300.411 182.871C301.632 182.507 302.867 182.169 304.114 181.831L307.881 180.87C310.401 180.273 312.969 179.727 315.585 179.233L319.482 178.545C321.197 178.298 322.768 178.051 324.418 177.843Z" fill="#29252B"/>
<path d="M242.381 236.094C242.381 235.951 242.381 235.795 242.381 235.652C242.355 235.795 242.368 235.951 242.381 236.094Z" fill="#1A161D"/>
<path d="M242.408 236.588C242.408 236.419 242.408 236.263 242.408 236.094C242.408 236.25 242.408 236.406 242.408 236.575C242.408 236.965 242.486 237.367 242.538 237.744C242.486 237.367 242.447 236.977 242.408 236.588Z" fill="#1A161D"/>
<path d="M242.355 235.652C242.087 230.234 243.3 224.845 245.863 220.063C243.42 224.656 242.207 229.802 242.342 235.003C242.342 235.249 242.342 235.457 242.355 235.652Z" fill="#1A161D"/>
<path d="M246.461 218.972C246.855 218.193 247.289 217.434 247.76 216.699C247.318 217.452 246.864 218.219 246.461 218.972Z" fill="#1A161D"/>
<path d="M247.799 216.699C248.253 215.958 248.76 215.205 249.319 214.465C248.786 215.205 248.266 215.971 247.799 216.699Z" fill="#1A161D"/>
<path d="M264.934 199.486C265.96 198.759 267.012 198.044 268.09 197.356C267.012 198.057 265.973 198.772 264.947 199.499C262.694 201.119 260.526 202.853 258.451 204.696C260.518 202.845 262.682 201.106 264.934 199.486Z" fill="#1A161D"/>
<path d="M384.436 181.403L384.436 189.275C368.652 184.858 350.374 183.416 331.459 185.209C329.355 185.404 327.25 185.638 325.172 185.936L324.405 177.83C326.484 177.544 328.588 177.311 330.693 177.116C332.797 176.921 334.967 176.752 337.071 176.622L339.189 176.518L343.398 176.388H349.621L351.699 176.453C352.998 176.453 354.414 176.57 355.765 176.648C357.116 176.726 358.48 176.817 359.805 176.947L361.806 177.129C363.793 177.337 365.703 177.57 367.704 177.856C369.704 178.142 371.601 178.454 373.459 178.818H373.562C375.42 179.181 377.252 179.558 379.058 179.987L380.876 180.428L382.682 180.909L384.436 181.403Z" fill="#1A161D"/>
<path d="M343.787 284.653L345.983 307.829C343.541 308.128 341.098 308.362 338.643 308.557H338.487L336.292 285.368L343.787 284.653Z" fill="#29252B"/>
<path d="M355.272 259.23C356.415 259.75 355.752 260.88 354.245 261.023L331.057 263.219C330.218 263.31 329.369 263.189 328.589 262.868L266.493 234.418C265.362 233.899 266.012 232.768 267.532 232.625L290.72 230.443C291.555 230.339 292.403 230.46 293.176 230.794L355.272 259.23Z" fill="#766F71"/>
<path d="M362.637 238.523C362.922 238.623 363.176 238.796 363.374 239.023C363.572 239.251 363.707 239.527 363.767 239.822L365.066 253.255C365.157 254.125 363.377 254.736 362.234 254.216L300.138 225.779C299.851 225.683 299.595 225.512 299.397 225.283C299.198 225.055 299.064 224.778 299.008 224.48L297.709 211.061C297.631 210.178 299.411 209.567 300.554 210.087L362.637 238.523Z" fill="#766F71"/>
<path d="M384.435 224.753V232.859L371.834 234.041C370.999 234.139 370.153 234.018 369.379 233.691L307.27 205.254C306.14 204.734 306.79 203.604 308.309 203.461L331.498 201.266C332.333 201.183 333.175 201.303 333.953 201.616L384.435 224.753Z" fill="#766F71"/>
<path d="M265.7 204.085C275.495 199.902 287.369 195.303 301.152 190.951C300.152 191.809 278.925 210.554 283.718 238.121C285.527 247.916 290.162 256.967 297.053 264.16C303.943 271.353 312.787 276.372 322.496 278.6C307.406 278.883 292.391 276.418 278.184 271.325C268.987 267.987 258.334 263.829 250.137 253.645C247.492 250.506 245.361 246.967 243.824 243.161C241.862 237.561 241.493 231.525 242.758 225.728C246.76 209.879 264.83 204.28 265.7 204.085Z" fill="#575255"/>
<path d="M233.976 231.963C233.914 236.892 234.512 241.807 235.756 246.577C248.084 293.552 320.339 308.193 329.367 309.907C318.208 311.077 306.941 310.684 295.89 308.738C295.89 308.738 272.663 304.62 253.631 291.941C248.974 288.947 244.826 285.228 241.342 280.925C239.338 278.403 237.597 275.682 236.146 272.806C227.481 255.58 232.132 237.887 233.976 231.963Z" fill="#575255"/>
</svg>
