<svg xmlns="http://www.w3.org/2000/svg" width="350" height="981" fill="none"><path fill="url(#a)" d="M399.618-24.885v16.65c-24.794-15.46-54.229-24.447-85.653-24.447-45.345 0-86.315 18.5-115.75 48.366L27.97 188.534c-15.513 15.858-37.257 25.504-61.123 25.504-47.335 0-85.653-38.19-85.653-85.367s38.45-85.368 85.653-85.368c23.998 0 45.61 9.78 61.123 25.505l31.424 31.98 53.433-54.313-30.362-30.79C53.03-14.182 12.06-32.683-33.285-32.683c-31.424 0-60.727 8.986-85.654 24.447V-131H-203v413.491h84.061V265.84c24.927 15.462 54.362 24.58 85.653 24.58 45.346 0 86.316-18.633 115.75-48.366L252.71 68.808c15.513-15.858 37.258-25.505 61.124-25.505 47.334 0 85.652 38.19 85.652 85.368s-38.318 85.499-85.652 85.499c-23.999 0-45.611-9.911-61.124-25.636l-31.291-31.848-53.433 54.313 30.23 30.79c29.435 29.866 70.405 48.366 115.75 48.366 31.424 0 60.859-8.986 85.653-24.579v16.651h84.194V-24.885z"/><path fill="url(#b)" d="M399.618 222.115v16.65c-24.794-15.461-54.229-24.447-85.653-24.447-45.345 0-86.315 18.501-115.75 48.366L27.97 435.534c-15.513 15.858-37.257 25.504-61.123 25.504-47.335 0-85.653-38.19-85.653-85.367s38.45-85.368 85.653-85.368c23.998 0 45.61 9.779 61.123 25.505l31.424 31.98 53.433-54.313-30.362-30.791c-29.435-29.865-70.405-48.366-115.75-48.366-31.424 0-60.727 8.986-85.654 24.447V116H-203v413.491h84.061V512.84c24.927 15.462 54.362 24.58 85.653 24.58 45.346 0 86.316-18.633 115.75-48.366L252.71 315.808c15.513-15.858 37.258-25.505 61.124-25.505 47.334 0 85.652 38.191 85.652 85.368s-38.318 85.499-85.652 85.499c-23.999 0-45.611-9.911-61.124-25.636l-31.291-31.848-53.433 54.313 30.23 30.79c29.435 29.866 70.405 48.366 115.75 48.366 31.424 0 60.859-8.986 85.653-24.579v16.651h84.194V222.115z"/><path fill="url(#c)" d="M399.618 469.115v16.651c-24.794-15.462-54.229-24.448-85.653-24.448-45.345 0-86.315 18.501-115.75 48.366L27.97 682.534c-15.513 15.858-37.257 25.504-61.123 25.504-47.335 0-85.653-38.19-85.653-85.367s38.45-85.368 85.653-85.368c23.998 0 45.61 9.779 61.123 25.505l31.424 31.98 53.433-54.313-30.362-30.791c-29.435-29.865-70.405-48.366-115.75-48.366-31.424 0-60.727 8.986-85.654 24.448V363H-203v413.491h84.061V759.84c24.927 15.462 54.362 24.58 85.653 24.58 45.346 0 86.316-18.633 115.75-48.366L252.71 562.808c15.513-15.858 37.258-25.505 61.124-25.505 47.334 0 85.652 38.191 85.652 85.368s-38.318 85.499-85.652 85.499c-23.999 0-45.611-9.911-61.124-25.636l-31.291-31.848-53.433 54.313 30.23 30.79c29.435 29.866 70.405 48.366 115.75 48.366 31.424 0 60.859-8.986 85.653-24.579v16.651h84.194V469.115z"/><path fill="url(#d)" d="M399.618 716.115v16.651c-24.794-15.462-54.229-24.448-85.653-24.448-45.345 0-86.315 18.501-115.75 48.366L27.97 929.534c-15.513 15.858-37.257 25.504-61.123 25.504-47.335 0-85.653-38.19-85.653-85.367s38.45-85.368 85.653-85.368c23.998 0 45.61 9.779 61.123 25.505l31.424 31.98 53.433-54.313-30.362-30.791c-29.435-29.865-70.405-48.366-115.75-48.366-31.424 0-60.727 8.986-85.654 24.448V610H-203v413.49h84.061v-16.65c24.927 15.46 54.362 24.58 85.653 24.58 45.346 0 86.316-18.63 115.75-48.366L252.71 809.808c15.513-15.858 37.258-25.505 61.124-25.505 47.334 0 85.652 38.191 85.652 85.368s-38.318 85.499-85.652 85.499c-23.999 0-45.611-9.911-61.124-25.636l-31.291-31.848-53.433 54.313 30.23 30.79c29.435 29.861 70.405 48.371 115.75 48.371 31.424 0 60.859-8.99 85.653-24.58v16.65h84.194V716.115z"/><defs><linearGradient id="a" x1="-2.5" x2="347" y1="470.5" y2="470.5" gradientUnits="userSpaceOnUse"><stop stop-color="#29252B"/><stop offset="1" stop-color="#29252B" stop-opacity="0"/></linearGradient><linearGradient id="b" x1="-2.5" x2="347" y1="470.5" y2="470.5" gradientUnits="userSpaceOnUse"><stop stop-color="#29252B"/><stop offset="1" stop-color="#29252B" stop-opacity="0"/></linearGradient><linearGradient id="c" x1="-2.5" x2="347" y1="470.5" y2="470.5" gradientUnits="userSpaceOnUse"><stop stop-color="#29252B"/><stop offset="1" stop-color="#29252B" stop-opacity="0"/></linearGradient><linearGradient id="d" x1="-2.5" x2="347" y1="470.5" y2="470.5" gradientUnits="userSpaceOnUse"><stop stop-color="#29252B"/><stop offset="1" stop-color="#29252B" stop-opacity="0"/></linearGradient></defs></svg>