<svg xmlns="http://www.w3.org/2000/svg" width="419" height="360" fill="none"><path fill="#383339" d="M399.273 240.635c11.755 8.093 16.732 15.457 17.733 26.069l1.062 33.736c-.94-9.226-4.238-16.802-17.733-26.079-.263-8.305-.617-19.382-.87-27.697-.06-1.811-.131-4.218-.192-6.069M231.795 277.375c-11.764-8.153-16.731-15.467-17.733-26.068l-1.011-33.737c.94 9.226 4.238 16.803 17.733 26.079.263 8.305.607 19.392.87 27.697.06 1.811.131 4.229.192 6.07"/><path fill="#1A161D" d="m258.774 338.769 15.386 9.104c38.208 22.063 91.144 2.205 118.224-44.358 27.081-46.563 18.128-102.221-20.13-124.283l-15.386-9.105c38.207 22.063 47.241 77.7 20.161 124.263-27.081 46.564-80.007 66.441-118.255 44.379"/><path fill="#383339" d="M356.898 170.148c-38.248-22.023-91.174-2.195-118.254 44.368s-18.047 102.19 20.13 124.253c38.178 22.062 91.144 2.205 118.214-44.358s18.087-102.201-20.09-124.263"/><path fill="#29252B" d="m347.227 180.567 3.794 2.196c-33.504-19.342-79.804-1.872-103.374 39.037s-15.599 89.737 17.905 109.079l-3.794-2.195c-33.513-19.342-41.475-68.181-17.915-109.08s69.88-58.328 103.384-39.037"/><path fill="#1A161D" d="M349.442 183.218c-33.18-19.15-79.014-1.852-102.392 38.642s-15.447 88.848 17.723 107.997 79.005 1.851 102.382-38.643 15.447-88.847-17.713-107.996"/><path fill="#383339" d="m269.628 257.923 25.543 28.071-6.343 30.095zM304.751 240.584l-8.103 38.451-25.543-28.092 32.907-10.126z"/><path fill="#383339" d="m314.098 196.287-9.347 44.297-.739.233-32.907 10.126z"/><path fill="#383339" d="m304.751 240.584 26.594 23.075-34.697 15.376zM329.899 270.628l-41.071 45.461 6.343-30.095zM314.098 196.287l17.247 67.371-26.594-23.074z"/><path fill="#575255" d="M417.006 266.703c-.849 21.486-23.094 37.55-59.501 42.972-.152-4.673-.344-10.905-.496-15.588a185.7 185.7 0 0 1-60.806 23.742c17.804 19.462 34.829 30.59 62.85 41.171-.152-4.673-.344-10.905-.496-15.588 36.417-5.453 58.672-21.517 59.511-42.973zM214.062 251.307c.85-21.486 23.095-37.55 59.502-42.972.141 4.674.344 10.915.485 15.589a185.7 185.7 0 0 1 60.786-23.732c-17.773-19.433-34.808-30.591-62.819-41.192.152 4.674.344 10.915.485 15.589-36.417 5.452-58.672 21.526-59.501 42.972z"/><path fill="#383339" d="M19.33 81.45C7.7 89.5 2.79 96.73 1.8 107.22l-1 33.35c.93-9.12 4.19-16.61 17.53-25.78.26-8.21.6-19.16.86-27.38.06-1.79.13-4.17.19-6M184.89 117.77c11.62-8.06 16.54-15.29 17.53-25.78l1.05-33.35c-.93 9.12-4.19 16.61-17.53 25.78-.26 8.21-.61 19.17-.86 27.38-.06 1.79-.13 4.18-.19 6"/><path fill="#1A161D" d="m158.18 178.46-15.21 9c-37.78 21.81-90.1 2.18-116.87-43.85S8.26 42.56 46 20.75l15.22-9c-37.74 21.83-46.67 76.83-19.9 122.86s79.09 65.66 116.86 43.85"/><path fill="#383339" d="M61.25 11.77C99-10 151.35 9.6 178.12 55.63s17.84 101-19.94 122.83-90.1 2.18-116.86-43.85S23.48 33.58 61.25 11.77"/><path fill="#29252B" d="M70.78 22.07 67 24.24c33.12-19.12 78.89-1.85 102.24 38.59s15.42 88.71-17.7 107.83l3.75-2.17c33.12-19.12 41.05-67.4 17.7-107.83S103.9 3 70.78 22.07"/><path fill="#1A161D" d="M68.59 24.69c32.79-18.93 78.11-1.83 101.22 38.2s15.27 87.83-17.53 106.76-78.09 1.83-101.21-38.2S35.81 43.62 68.59 24.69"/><path fill="#383339" d="M161.64 94.08c1.21-.59 2.69.89 2.36 2.35l-5.19 22.39a2.8 2.8 0 0 1-1.43 1.91l-66.09 32.64c-1.21.59-2.69-.89-2.35-2.35l5.18-22.39a2.82 2.82 0 0 1 1.44-1.91zM133.78 74.26a2.78 2.78 0 0 1 2.39 0l20.93 9.48c1.36.63 1.64 2.71.43 3.3L91.45 119.7a2.78 2.78 0 0 1-2.39 0l-20.93-9.49c-1.36-.62-1.64-2.69-.43-3.29zM134.12 41c1.21-.59 2.69.89 2.36 2.35l-5.19 22.39a2.79 2.79 0 0 1-1.44 1.91l-66.08 32.61c-1.21.59-2.69-.89-2.35-2.35l5.18-22.39a2.9 2.9 0 0 1 1.4-1.91z"/><path fill="#575255" d="M1.8 107.22c.84 21.24 22.83 37.12 58.82 42.48.14-4.62.34-10.78.48-15.41a183.8 183.8 0 0 0 60.09 23.47C103.62 177 86.78 188 59.09 198.46c.15-4.62.34-10.78.48-15.41-36-5.39-58-21.27-58.82-42.48zM202.42 92c-.84-21.24-22.83-37.12-58.82-42.48-.15 4.62-.34 10.79-.49 15.41A183.4 183.4 0 0 0 83 41.46c17.6-19.2 34.43-30.23 62.13-40.71-.15 4.62-.34 10.79-.49 15.41 36 5.39 58 21.28 58.83 42.48z"/></svg>