<svg xmlns="http://www.w3.org/2000/svg" width="100" height="100" fill="none"><rect width="100" height="100" fill="#21262B" rx="50"/><path fill="#7258A6" d="M41.524 53.915c1.976 0 3.21 2.127 2.223 3.828L30.52 80.528c-.988 1.701-3.457 1.701-4.445 0L12.848 57.743c-.988-1.702.247-3.828 2.222-3.828zm15.167-5.195c-1.976 0-3.21-2.127-2.223-3.828l13.227-22.785c.988-1.702 3.458-1.702 4.446 0l13.227 22.785c.988 1.701-.247 3.828-2.223 3.828z"/><path fill="#AC90E3" d="M51.01 42.822c-.986 1.703-3.456 1.706-4.446.006L33.31 20.059c-.99-1.7.242-3.829 2.218-3.831l26.454-.032c1.976-.002 3.213 2.124 2.227 3.827l-13.2 22.8Z"/><path fill="#7258A6" d="M26.183 22.687c.986-1.703 3.456-1.705 4.446-.005l13.254 22.769c.99 1.7-.242 3.829-2.218 3.831l-26.454.031c-1.976.003-3.213-2.123-2.227-3.826zm47.771 56.851c-.986 1.703-3.455 1.706-4.445.005L56.254 56.775c-.99-1.7.243-3.83 2.218-3.832l26.455-.03c1.975-.003 3.213 2.122 2.227 3.825z"/></svg>