<svg xmlns="http://www.w3.org/2000/svg" width="100" height="100" fill="none"><g clip-path="url(#a)"><g clip-path="url(#b)"><mask id="c" width="100" height="100" x="0" y="0" maskUnits="userSpaceOnUse" style="mask-type:luminance"><path fill="#fff" d="M100 0H0v100h100z"/></mask><g mask="url(#c)"><path fill="url(#d)" d="M50 100c27.614 0 50-22.386 50-50S77.614 0 50 0 0 22.386 0 50s22.386 50 50 50"/><path fill="#fff" d="M71.881 69.923 54.974 29.046c-.953-2.113-2.37-3.144-4.24-3.144H49.24c-1.869 0-3.286 1.031-4.24 3.144l-7.358 17.81h-5.567a3.05 3.05 0 0 0-3.029 3.028v.039a3.06 3.06 0 0 0 3.029 3.028h2.99L28.04 69.923c-.129.373-.206.76-.206 1.16 0 .953.296 1.7.825 2.28s1.288.864 2.242.864a3 3 0 0 0 1.74-.58c.541-.374.915-.915 1.211-1.534l7.732-19.175h5.36a3.05 3.05 0 0 0 3.03-3.028v-.077a3.06 3.06 0 0 0-3.03-3.029h-2.86l5.902-14.703 16.083 40c.296.618.67 1.16 1.21 1.533a3.03 3.03 0 0 0 1.74.58c.954 0 1.702-.284 2.243-.863.541-.58.825-1.328.825-2.281a2.7 2.7 0 0 0-.207-1.147Z"/></g></g></g><defs><clipPath id="a"><path fill="#fff" d="M0 0h100v100H0z"/></clipPath><clipPath id="b"><path fill="#fff" d="M0 0h100v100H0z"/></clipPath><linearGradient id="d" x1="87.279" x2="12.879" y1="18.632" y2="81.232" gradientUnits="userSpaceOnUse"><stop stop-color="#B6509E"/><stop offset="1" stop-color="#2EBAC6"/></linearGradient></defs></svg>