<svg xmlns="http://www.w3.org/2000/svg" width="100" height="100" fill="none"><g clip-path="url(#a)"><circle cx="50" cy="50" r="50" fill="#1A2632"/><path fill="#37BEC1" d="m56.906 19.773-33.99 15.133a6.201 6.201 0 1 0 5.044 11.33l33.99-15.133a6.201 6.201 0 1 0-5.044-11.33"/><path fill="#FBB144" d="m47.477 44.335-22.66 10.089a6.202 6.202 0 0 0 5.045 11.33l22.66-10.089a6.202 6.202 0 0 0-5.044-11.33Z"/><path fill="#E4615E" d="M72.04 53.763 38.05 68.897a6.202 6.202 0 0 0 5.044 11.33l33.99-15.133a6.202 6.202 0 0 0-5.044-11.33Z"/></g><defs><clipPath id="a"><path fill="#fff" d="M0 0h100v100H0z"/></clipPath></defs></svg>