<svg xmlns="http://www.w3.org/2000/svg" width="101" height="101" fill="none"><circle cx="50.704" cy="50.538" r="50" fill="#DF42AB"/><path fill="#fff" d="M49.327 47.271 30.612 28.57c-.141-.141-.424-.282-.565-.353-.282-.07-.565 0-.777.07-.282.071-.494.283-.635.495-.142.282-.212.494-.212.776v20.677c-.07.141-.07.212-.07.353v21.03c0 .142 0 .354.07.494.07.142.141.283.282.424.14.14.281.21.422.281l.002.001c.07 0 .159.018.247.036s.177.035.247.035H50.81c.141 0 .353 0 .494-.07l.003-.002c.14-.07.28-.14.42-.281.142-.141.213-.282.283-.424.071-.14.071-.352.071-.494V53.834l18.715 18.702c.057.114.205.182.335.24l.088.042c.212.07.354.07.565.07.142 0 .353 0 .495-.07h.002c.14-.071.281-.142.421-.282.142-.141.212-.282.283-.424.07-.14.07-.282.07-.494v-42.06c0-.141 0-.353-.07-.494a1.5 1.5 0 0 0-.283-.424 1.5 1.5 0 0 0-.423-.282c-.07 0-.16-.018-.248-.035a1.4 1.4 0 0 0-.247-.035H50.598c-.141 0-.353 0-.494.07s-.283.141-.424.282a1.5 1.5 0 0 0-.283.424c-.07.141-.07.353-.07.494z"/></svg>