<svg xmlns="http://www.w3.org/2000/svg" width="100" height="100" fill="none"><g clip-path="url(#a)"><circle cx="50" cy="50" r="50" fill="#10021C"/><g clip-path="url(#b)"><path fill="#E5E2DB" d="M16.543 45.62H12.75v-2.225h10.023v2.225H18.98v10.77h-2.443V45.62zm7.542-2.225h8.35v2.225h-5.902v3.098h5.383v2.225h-5.383v3.213h6.017v2.224h-8.465zm9.318 8.76v-.524h2.415v.525c0 1.558 1.022 2.339 2.689 2.339s2.508-.738 2.508-1.782c0-1.076-.945-1.448-2.617-1.825l-.427-.098c-2.688-.596-4.273-1.503-4.273-3.88 0-2.378 1.798-3.793 4.585-3.793s4.81 1.415 4.81 4.23v.552h-2.416v-.552c0-1.487-.908-2.083-2.394-2.083s-2.164.602-2.164 1.569c0 .962.721 1.432 2.279 1.765l.426.099c2.765.595 4.602 1.557 4.602 3.934s-1.913 4.006-4.925 4.006c-2.994.017-5.098-1.65-5.098-4.481Zm10.88 0v-.524H46.7v.525c0 1.558 1.022 2.339 2.689 2.339s2.508-.738 2.508-1.782c0-1.076-.945-1.448-2.617-1.825l-.427-.098c-2.688-.596-4.273-1.503-4.273-3.88 0-2.378 1.798-3.793 4.585-3.793s4.81 1.415 4.81 4.23v.552h-2.416v-.552c0-1.487-.908-2.083-2.394-2.083s-2.17.596-2.17 1.558.722 1.432 2.28 1.765l.425.099c2.766.595 4.602 1.557 4.602 3.934s-1.913 4.006-4.924 4.006c-2.995.028-5.094-1.64-5.094-4.47Zm11.472-8.76h8.35v2.225h-5.902v3.098h5.383v2.225h-5.383v3.213h6.017v2.224h-8.465zm9.919 0h5.645c2.432 0 4.05 1.372 4.05 3.47v.225c0 1.557-.836 2.508-1.93 2.956v.34c.99.054 1.558.72 1.558 1.764v4.247H72.55V52.5c0-.595-.279-1.005-1.006-1.005h-3.415v4.896H65.68zm5.383 5.87c1.148 0 1.853-.689 1.853-1.727v-.186c0-1.038-.667-1.727-1.853-1.727h-2.93v3.64zm8.504-5.87h4.273l3.416 12.996h-2.52l-.704-2.858h-4.64l-.705 2.858h-2.52zm3.88 7.881-1.574-6.334h-.339l-1.574 6.329h3.487z"/></g></g><defs><clipPath id="a"><path fill="#fff" d="M0 0h100v100H0z"/></clipPath><clipPath id="b"><path fill="#fff" d="M12.75 42.62h74.5v14.06h-74.5z"/></clipPath></defs></svg>