<svg xmlns="http://www.w3.org/2000/svg" width="40" height="40"><g fill="none" fill-rule="nonzero"><path fill="#8DC63F" d="M40 19.912C40.049 30.957 31.134 39.95 20.09 40 9.043 40.049.05 31.135 0 20.09S8.864.05 19.91 0C30.954-.049 39.95 8.866 40 19.912"/><path fill="#F9E988" d="M38.493 19.916c.047 10.213-8.195 18.53-18.409 18.577S1.554 30.298 1.507 20.084 9.702 1.554 19.916 1.507a18.494 18.494 0 0 1 18.577 18.409"/><path fill="#FFF" d="M20.337 2.706c1.176-.21 2.38-.21 3.555 0 1.187.188 2.334.573 3.395 1.138 1.053.58 1.966 1.365 2.872 2.107s1.81 1.492 2.67 2.318a13.5 13.5 0 0 1 2.276 2.75 15.6 15.6 0 0 1 1.595 3.214c.79 2.255 1.015 4.67.655 7.032h-.118a33 33 0 0 0-1.732-6.609 26 26 0 0 0-1.36-3.085 31 31 0 0 0-1.799-2.887 10.5 10.5 0 0 0-2.415-2.438c-.937-.668-2.016-1.102-3.062-1.513s-2.09-.82-3.175-1.134-2.196-.547-3.353-.775z"/><path fill="#8BC53F" d="M29.377 13.383c-1.342-.39-2.74-.94-4.143-1.496-.08-.354-.394-.794-1.026-1.332-.92-.798-2.649-.777-4.143-.421-1.648-.388-3.277-.525-4.847-.15-12.78 3.52-5.531 12.123-10.226 20.763.668 1.416 7.868 9.694 18.287 7.466 0 0-3.562-8.562 4.478-12.67 6.522-3.345 11.236-9.536 1.62-12.16"/><path fill="#FFF" d="M30.955 19.012a.775.775 0 1 1-1.55.013.775.775 0 0 1 1.55-.013"/><path fill="#009345" d="M20.065 10.13c.932.067 4.301 1.167 5.17 1.757-.72-2.107-3.162-2.381-5.17-1.757"/><path fill="#FFF" d="M20.952 15.444a3.582 3.582 0 1 1-7.164 0 3.582 3.582 0 0 1 7.164 0"/><path fill="#58595B" d="M19.892 15.476a2.516 2.516 0 1 1-5.032.004 2.516 2.516 0 0 1 5.032-.004"/><path fill="#8BC53F" d="M33.853 20.588c-2.898 2.042-6.193 3.582-10.867 3.582-2.188 0-2.63-2.318-4.076-1.184-.748.588-3.371 1.897-5.468 1.804s-5.479-1.325-6.417-5.782c-.373 4.457-.564 7.74-2.237 11.503 3.333 5.338 11.28 9.453 18.49 7.683-.773-5.411 3.956-10.713 6.622-13.425 1.007-1.026 2.95-2.704 3.953-4.19z"/><path fill="#58595B" d="M33.74 20.723a13 13 0 0 1-3.06 1.962 19.5 19.5 0 0 1-3.435 1.252c-1.18.305-2.415.535-3.665.421s-2.529-.54-3.353-1.475l.04-.046c1.02.66 2.186.89 3.349.925a15.8 15.8 0 0 0 3.521-.293 19.2 19.2 0 0 0 3.422-1.054 12.9 12.9 0 0 0 3.142-1.736z"/></g></svg>