<svg xmlns="http://www.w3.org/2000/svg" width="33" height="19" fill="none"><g opacity=".85"><path stroke="#fff" stroke-linecap="round" stroke-linejoin="round" stroke-width="1.25" d="m28.895 8.776-5.12-5.12 2.194-2.193 5.12 5.119z"/><path stroke="#fff" stroke-linecap="round" stroke-linejoin="round" stroke-width="1.25" d="m24.507 4.388-5.485 1.097-2.56 10.603 10.604-2.56 1.097-5.484zM16.463 16.088l5.547-5.547"/><path stroke="#fff" stroke-linecap="round" stroke-linejoin="round" stroke-width="1.25" d="M24.507 9.507a1.463 1.463 0 1 0-2.925 0 1.463 1.463 0 0 0 2.925 0"/><path fill="#fff" d="M3.388 13.528q-.609 0-.936-.281-.316-.28-.316-.632a.72.72 0 0 1 .222-.527q.223-.222.655-.222.153 0 .351.035l.316.035a1.4 1.4 0 0 0-.14-.573 2.5 2.5 0 0 0-.304-.515 6 6 0 0 0-.351-.445 7.3 7.3 0 0 1-.726 1.147 8 8 0 0 1-.772.866q-.21.21-.445.21a.4.4 0 0 1-.304-.128.5.5 0 0 1-.117-.34q0-.233.164-.432l.152-.188q.644-.795.971-1.31.2-.34.468-.901.27-.573.527-1.182.222-.515.924-.515.327 0 .456.059t.129.187q0 .07-.047.222a1.7 1.7 0 0 1-.128.305q-.21.42-.211.713 0 .176.117.386.128.21.386.527.375.491.562.842.199.34.199.75 0 .116-.024.327.573-.222 1.346-1.182.14-.164.316-.164.152 0 .234.14a.7.7 0 0 1 .093.387q0 .444-.222.725-.585.726-1.123.995-.527.258-1.31.28a1.66 1.66 0 0 1-1.112.399"/><path fill="#fff" d="M7.738 6.987q-.492 0-.738-.223-.245-.234-.245-.643t.316-.679q.327-.28.807-.28.434 0 .702.21.27.21.27.597 0 .468-.305.749-.305.27-.807.269m-.094 6.283q-.76 0-1.112-.538-.339-.539-.339-1.428 0-.526.129-1.345.14-.831.35-1.545.106-.374.282-.515.176-.14.561-.14.597 0 .597.398 0 .292-.222 1.357-.282 1.288-.281 1.744 0 .35.093.538.094.187.316.187.21 0 .527-.293.315-.292.842-.924.141-.164.316-.164.153 0 .234.14a.7.7 0 0 1 .094.387q0 .468-.222.725Q8.65 13.27 7.644 13.27"/><path fill="#fff" d="M15.075 10.626q.152 0 .234.152a.64.64 0 0 1 .094.363q0 .27-.082.42a.76.76 0 0 1-.258.27q-1.005.679-1.474 1.006l-.749.503q-.444 2.423-1.17 3.803-.714 1.392-1.825 1.392-.597 0-.971-.374-.375-.363-.375-.96 0-.83.655-1.79.655-.947 2.458-2.34l.07-.456q-.199.315-.527.491-.315.165-.632.164-.725 0-1.158-.526-.433-.527-.433-1.381 0-.936.433-1.767.432-.843 1.147-1.346.725-.514 1.532-.514.258 0 .34.105.093.094.152.351a2.5 2.5 0 0 1 .515-.047q.292 0 .41.094.128.08.128.34 0 .14-.012.221-.046.363-.292 1.837l-.105.62q-.048.328-.106.703.9-.703 1.732-1.24a.53.53 0 0 1 .269-.094m-4.13 1.462q.268 0 .515-.327.245-.328.35-.936l.375-2.001q-.48.011-.89.374a2.46 2.46 0 0 0-.655.936 3.2 3.2 0 0 0-.245 1.24q0 .363.14.539a.51.51 0 0 0 .41.175m-.972 5.313q.293 0 .656-.703.374-.702.713-2.234-.9.772-1.298 1.392t-.398 1.088a.7.7 0 0 0 .07.328q.082.129.257.129"/></g></svg>