<svg xmlns="http://www.w3.org/2000/svg" width="471" height="360" fill="none"><g fill="#1a161d"><path d="m354.781-45.517 2.514 9.383c-16.273-4.979-34.176-5.61-51.841-.876-25.49 6.83-45.728 23.428-57.765 44.692l-69.601 123.051c-6.326 11.274-17.093 19.985-30.509 23.58-26.608 7.13-53.915-8.621-61.04-35.207-7.123-26.586 8.725-53.9 35.259-61.01 13.491-3.615 27.116-1.36 38.211 5.166l22.494 13.29 21.836-38.657-21.718-12.778C161.565 12.72 135.74 8.465 110.25 15.295c-17.665 4.733-32.78 14.211-44.458 26.679L47.254-27.21 0-14.548l62.438 233.021 47.254-12.662-2.514-9.383c16.347 4.958 34.271 5.663 51.861.95 25.49-6.831 45.708-23.502 57.764-44.692l69.542-123.275c6.326-11.273 17.093-19.985 30.509-23.58 26.608-7.13 53.915 8.62 61.039 35.207s-8.629 53.955-35.238 61.085c-13.491 3.614-27.136 1.285-38.232-5.24l-22.399-13.235-21.835 38.656 21.643 12.798c21.056 12.397 46.881 16.652 72.371 9.822 17.665-4.733 32.854-14.231 44.438-26.753l2.514 9.383 47.329-12.682L402.11-58.199z"/><path d="m392.019 93.458 2.5 9.331c-16.26-4.93-34.156-5.532-51.82-.799-25.491 6.83-45.744 23.369-57.806 44.539l-69.747 122.508c-6.339 11.223-17.114 19.905-30.53 23.499-26.609 7.13-53.884-8.5-60.968-34.938s8.796-53.631 35.331-60.741c13.49-3.615 27.108-1.39 38.189 5.086l22.467 13.188 21.882-38.485-21.692-12.682c-21.031-12.303-46.84-16.499-72.331-9.669-17.664 4.733-32.787 14.183-44.478 26.602l-18.434-68.798-47.255 12.662 62.09 231.719 47.254-12.661-2.5-9.331c16.334 4.909 34.25 5.586 51.84.872 25.49-6.83 45.723-23.443 57.805-44.539l69.688-122.73c6.339-11.223 17.114-19.904 30.53-23.499 26.609-7.13 53.884 8.5 60.968 34.938s-8.702 53.686-35.311 60.815c-13.49 3.615-27.128 1.316-38.21-5.159l-22.372-13.135-21.881 38.486 21.617 12.701c21.031 12.303 46.84 16.5 72.33 9.669 17.665-4.733 32.862-14.202 44.459-26.675l2.5 9.331 47.329-12.682-46.115-172.105z"/><path d="m429.081 231.775 2.514 9.383c-16.272-4.978-34.176-5.609-51.84-.876-25.491 6.831-45.729 23.428-57.765 44.692l-69.601 123.052c-6.326 11.273-17.093 19.985-30.509 23.579-26.609 7.13-53.916-8.62-61.04-35.207-7.124-26.586 8.724-53.9 35.258-61.01 13.491-3.614 27.117-1.359 38.212 5.167l22.493 13.288 21.836-38.656-21.717-12.778c-21.057-12.397-46.881-16.652-72.372-9.822-17.665 4.733-32.78 14.211-44.457 26.679l-18.538-69.184L74.3 262.744l62.438 233.021 47.255-12.662-2.515-9.383c16.347 4.958 34.271 5.663 51.861.95 25.491-6.83 45.708-23.502 57.765-44.692l69.541-123.275c6.326-11.273 17.093-19.985 30.509-23.58 26.609-7.129 53.916 8.621 61.039 35.207 7.124 26.587-8.629 53.955-35.238 61.085-13.49 3.615-27.136 1.285-38.231-5.241l-22.399-13.234-21.836 38.656 21.643 12.798c21.056 12.397 46.881 16.652 72.372 9.822 17.664-4.733 32.854-14.231 44.437-26.753l2.514 9.383 47.329-12.682-46.374-173.071z"/></g></svg>