<svg width="450" height="172" viewBox="0 0 450 172" fill="none" xmlns="http://www.w3.org/2000/svg">
<g clip-path="url(#clip0_7_3)">
<path d="M219.237 35.4077C236.352 63.5752 237.244 109.756 221.23 138.554C205.216 167.353 178.359 167.864 161.245 139.697C144.13 111.529 143.237 65.3486 159.251 36.55C175.265 7.75138 202.122 7.23989 219.237 35.4077ZM168.493 126.66C181.33 147.786 201.472 147.403 213.483 125.804C225.493 104.204 224.824 69.5698 211.988 48.4436C199.152 27.318 179.01 27.7014 166.999 49.3005C154.988 70.8995 155.657 105.535 168.493 126.66Z" fill="#060606"/>
<mask id="mask0_7_3" style="mask-type:luminance" maskUnits="userSpaceOnUse" x="153" y="14" width="88" height="149">
<path d="M226.187 36.1512C243.338 64.3529 244.308 110.543 228.353 139.321C212.397 168.099 185.559 168.566 168.408 140.365C151.257 112.163 150.287 65.9723 166.243 37.1945C182.198 8.41668 209.036 7.94978 226.187 36.1512ZM175.63 127.338C188.493 148.489 208.622 148.139 220.589 126.555C232.555 104.972 231.828 70.3291 218.965 49.1781C206.101 28.0269 185.973 28.3771 174.006 49.9604C162.04 71.5435 162.767 106.187 175.63 127.338Z" fill="#141414" stroke="#060606" stroke-width="2.28633"/>
</mask>
<g mask="url(#mask0_7_3)">
<path d="M226.198 36.1474C243.346 64.3456 244.307 110.535 228.346 139.315C212.384 168.095 185.544 168.567 168.397 140.368C151.249 112.171 150.288 65.9807 166.249 37.2008C182.211 8.42081 209.051 7.94939 226.198 36.1474ZM175.622 127.341C188.483 148.49 208.613 148.136 220.584 126.551C232.555 104.966 231.833 70.3237 218.973 49.1752C206.112 28.0266 185.983 28.3802 174.011 49.9651C162.04 71.5498 162.761 106.192 175.622 127.341Z" fill="#141414" stroke="#060606" stroke-width="2.28633"/>
</g>
<path d="M233.69 52.1277C229.135 38.9082 222.319 28.3772 214.198 22.01C206.076 15.6426 197.055 13.7573 188.397 16.6185C179.74 19.4795 171.881 26.9436 165.919 37.9654C159.958 48.9873 156.193 63.0147 155.152 78.0834C154.112 93.1521 155.847 108.507 160.116 121.999C164.384 135.49 170.972 146.442 178.956 153.321C186.941 160.2 195.923 162.661 204.643 160.359C213.363 158.058 221.386 151.109 227.588 140.487L220.016 127.43C215.364 135.396 209.347 140.608 202.807 142.334C196.266 144.06 189.53 142.214 183.542 137.055C177.553 131.896 172.613 123.682 169.411 113.563C166.21 103.445 164.908 91.9286 165.689 80.6271C166.469 69.3255 169.293 58.8049 173.764 50.5386C178.235 42.2724 184.129 36.6743 190.622 34.5284C197.116 32.3824 203.881 33.7964 209.973 38.5719C216.064 43.3478 221.176 51.2458 224.592 61.1601L233.69 52.1277Z" fill="white" stroke="#060606" stroke-width="1.14317"/>
<path d="M156.067 103.974C158.166 118.834 162.903 132.296 169.614 142.476C176.324 152.655 184.674 159.042 193.492 160.742C202.311 162.441 211.157 159.369 218.791 151.954C226.426 144.54 232.467 133.154 236.068 119.393C239.669 105.631 240.65 90.1828 238.874 75.211C237.098 60.2387 232.653 46.4927 226.162 35.8986C219.672 25.304 211.46 18.3913 202.677 16.1285C193.895 13.8657 184.981 16.3663 177.184 23.2799L182.213 39.5244C188.06 34.3391 194.745 32.4639 201.332 34.161C207.92 35.8578 214.078 41.0424 218.946 48.9884C223.814 56.9343 227.148 67.2434 228.48 78.4726C229.812 89.7017 229.076 101.288 226.375 111.609C223.675 121.93 219.144 130.469 213.418 136.03C207.692 141.591 201.058 143.896 194.444 142.621C187.83 141.346 181.568 136.556 176.535 128.921C171.501 121.287 167.949 111.19 166.375 100.045L156.067 103.974Z" fill="#547907"/>
<path d="M156.067 103.974C158.146 118.692 162.813 132.042 169.426 142.189C176.039 152.337 184.273 158.783 192.998 160.641C201.722 162.5 210.507 159.68 218.145 152.568C225.784 145.457 231.9 134.404 235.653 120.929L226.065 112.761C223.249 122.867 218.662 131.157 212.933 136.491C207.205 141.824 200.616 143.94 194.072 142.545C187.529 141.151 181.353 136.317 176.394 128.706C171.434 121.096 167.934 111.083 166.375 100.045L156.067 103.974Z" fill="#B0F127"/>
<path d="M226.293 36.1134C243.408 64.2813 244.301 110.461 228.287 139.26C212.273 168.059 185.416 168.57 168.301 140.402C151.187 112.235 150.294 66.0544 166.308 37.2557C182.323 8.45696 209.179 7.94576 226.293 36.1134ZM175.551 127.367C188.387 148.492 208.529 148.109 220.539 126.509C232.55 104.911 231.881 70.2755 219.044 49.1497C206.208 28.0239 186.066 28.4073 174.056 50.0063C162.045 71.605 162.714 106.24 175.551 127.367Z" stroke="#060606" stroke-width="1.14317"/>
<path fill-rule="evenodd" clip-rule="evenodd" d="M136.182 97.7381C137.664 93.7596 136.925 88.6797 133.585 83.1826C126.045 70.7723 108.099 60.9371 93.5031 61.2151C85.8199 61.3614 80.5962 64.2808 78.4714 68.8233L78.4692 68.8222L78.4252 68.9234C78.3738 69.0362 78.3243 69.1501 78.2767 69.2649L76.308 73.793L77.4132 74.3579C77.5257 77.347 78.5977 80.6833 80.7279 84.1892C88.2684 96.5995 106.214 106.434 120.81 106.157C125.878 106.06 129.876 104.757 132.62 102.577L133.823 103.192L136.202 97.7486L136.182 97.7381Z" fill="#B0F127"/>
<path d="M136.182 97.7383L135.795 97.5962L135.667 97.9388L135.995 98.1035L136.182 97.7383ZM78.4714 68.8235L78.2855 69.1891L78.666 69.3798L78.8455 68.996L78.4714 68.8235ZM78.4692 68.8224L78.6551 68.4567L78.264 68.2608L78.0904 68.6601L78.4692 68.8224ZM78.4252 68.9235L78.8011 69.0923L78.804 69.0858L78.4252 68.9235ZM78.2767 69.265L78.6555 69.4274L78.6582 69.4209L78.2767 69.265ZM76.308 73.7931L75.9293 73.6309L75.7766 73.9821L76.1192 74.1573L76.308 73.7931ZM77.4132 74.358L77.8254 74.3427L77.8164 74.1035L77.602 73.9939L77.4132 74.358ZM132.62 102.577L132.809 102.214L132.571 102.092L132.363 102.258L132.62 102.577ZM133.823 103.193L133.634 103.556L134.026 103.757L134.201 103.356L133.823 103.193ZM136.202 97.7487L136.581 97.9118L136.736 97.557L136.388 97.383L136.202 97.7487ZM133.232 83.3943C136.532 88.825 137.219 93.7728 135.795 97.5962L136.568 97.8803C138.108 93.7467 137.319 88.5343 133.938 82.9712L133.232 83.3943ZM93.511 61.6247C100.72 61.4874 108.784 63.8496 115.991 67.7994C123.198 71.7492 129.508 77.2651 133.232 83.3943L133.938 82.9712C130.122 76.69 123.689 71.0832 116.389 67.0823C109.089 63.0815 100.883 60.665 93.4952 60.8057L93.511 61.6247ZM78.8455 68.996C80.8799 64.6467 85.919 61.7693 93.511 61.6247L93.4952 60.8057C85.7207 60.9538 80.3125 63.9151 78.0972 68.651L78.8455 68.996ZM78.6572 68.4579L78.6551 68.4567L78.2833 69.188L78.2855 69.1891L78.6572 68.4579ZM78.0904 68.6601L78.0464 68.7613L78.804 69.0858L78.848 68.9847L78.0904 68.6601ZM78.6582 69.4209C78.704 69.3104 78.7517 69.2009 78.8011 69.0923L78.0493 68.7549C77.9959 68.872 77.9446 68.9901 77.8952 69.1092L78.6582 69.4209ZM77.898 69.1027L75.9293 73.6309L76.6868 73.9555L78.6555 69.4274L77.898 69.1027ZM76.1192 74.1573L77.2243 74.7221L77.602 73.9939L76.4969 73.429L76.1192 74.1573ZM81.0811 83.9778C78.9779 80.5164 77.9347 77.2469 77.8254 74.3427L77.0009 74.3734C77.1167 77.4473 78.2174 80.8506 80.3746 84.4009L81.0811 83.9778ZM120.802 105.748C113.593 105.885 105.529 103.522 98.3224 99.5727C91.1156 95.6229 84.8052 90.1069 81.0811 83.9778L80.3746 84.4009C84.1911 90.6821 90.6237 96.2889 97.9237 100.29C105.224 104.291 113.43 106.707 120.818 106.566L120.802 105.748ZM132.363 102.258C129.709 104.366 125.807 105.652 120.802 105.748L120.818 106.566C125.949 106.469 130.043 105.149 132.878 102.898L132.363 102.258ZM132.431 102.942L133.634 103.556L134.012 102.828L132.809 102.214L132.431 102.942ZM134.201 103.356L136.581 97.9118L135.824 97.5857L133.445 103.03L134.201 103.356ZM136.388 97.383L136.367 97.3726L135.995 98.1035L136.016 98.114L136.388 97.383Z" fill="#060606"/>
<mask id="mask1_7_3" style="mask-type:alpha" maskUnits="userSpaceOnUse" x="75" y="60" width="63" height="47">
<path fill-rule="evenodd" clip-rule="evenodd" d="M136.183 97.7844C137.658 93.8076 136.911 88.7256 133.564 83.222C126.008 70.797 108.058 60.9304 93.4717 61.1843C85.7937 61.3179 80.5784 64.2292 78.4626 68.7691L78.4604 68.768L78.4167 68.8691C78.3655 68.9819 78.3162 69.0957 78.2688 69.2104L76.3091 73.7361L77.4144 74.3029C77.5319 77.2927 78.6087 80.6314 80.7434 84.1414C88.2998 96.5665 106.25 106.433 120.836 106.179C125.9 106.091 129.894 104.794 132.632 102.619L133.835 103.236L136.204 97.7949L136.183 97.7844Z" fill="#B0F127"/>
<path d="M136.183 97.7843L135.796 97.6416L135.669 97.9845L135.998 98.1498L136.183 97.7843ZM78.4625 68.769L78.2774 69.1343L78.658 69.3257L78.8367 68.9421L78.4625 68.769ZM78.4603 68.7679L78.6455 68.4025L78.2544 68.2059L78.0816 68.6049L78.4603 68.7679ZM78.4166 68.869L78.7926 69.0384L78.7954 69.0319L78.4166 68.869ZM78.2688 69.2103L78.6476 69.3733L78.6503 69.3668L78.2688 69.2103ZM76.309 73.736L75.9302 73.5731L75.7782 73.9241L76.1209 74.0999L76.309 73.736ZM77.4143 74.3028L77.8263 74.2882L77.8169 74.0489L77.6024 73.9389L77.4143 74.3028ZM132.632 102.619L132.821 102.255L132.583 102.133L132.374 102.298L132.632 102.619ZM133.835 103.236L133.647 103.599L134.039 103.8L134.214 103.399L133.835 103.236ZM136.204 97.7948L136.582 97.9585L136.737 97.6039L136.389 97.4293L136.204 97.7948ZM133.212 83.4329C136.518 88.87 137.213 93.8199 135.796 97.6416L136.57 97.927C138.102 93.7957 137.304 88.5805 133.917 83.0109L133.212 83.4329ZM93.4802 61.5937C100.684 61.4683 108.747 63.8443 115.955 67.8067C123.164 71.7692 129.48 77.2965 133.212 83.4329L133.917 83.0109C130.092 76.7223 123.655 71.1038 116.353 67.0902C109.051 63.0765 100.845 60.6461 93.463 60.7746L93.4802 61.5937ZM78.8367 68.9421C80.8625 64.5955 85.8935 61.7258 93.4802 61.5937L93.463 60.7746C85.6939 60.9098 80.2942 63.8627 78.0883 68.5958L78.8367 68.9421ZM78.6477 68.4036L78.6455 68.4025L78.2752 69.1332L78.2774 69.1343L78.6477 68.4036ZM78.0816 68.6049L78.0378 68.7061L78.7954 69.0319L78.8391 68.9308L78.0816 68.6049ZM78.6503 69.3668C78.6959 69.2564 78.7433 69.1469 78.7926 69.0384L78.0406 68.6996C77.9875 68.8167 77.9364 68.9347 77.8873 69.0538L78.6503 69.3668ZM77.89 69.0473L75.9302 73.5731L76.6878 73.8989L78.6476 69.3733L77.89 69.0473ZM76.1209 74.0999L77.2262 74.6667L77.6024 73.9389L76.4971 73.3721L76.1209 74.0999ZM81.096 83.9304C78.9884 80.4648 77.9404 77.193 77.8263 74.2882L77.0023 74.3174C77.1232 77.3921 78.2289 80.7978 80.3907 84.3524L81.096 83.9304ZM120.827 105.77C113.624 105.895 105.561 103.519 98.3521 99.5566C91.1434 95.5941 84.8279 90.0668 81.096 83.9304L80.3907 84.3524C84.2152 90.641 90.6529 96.2594 97.9549 100.273C105.257 104.287 113.462 106.717 120.844 106.589L120.827 105.77ZM132.374 102.298C129.726 104.402 125.829 105.683 120.827 105.77L120.844 106.589C125.972 106.499 130.061 105.186 132.891 102.939L132.374 102.298ZM132.444 102.983L133.647 103.599L134.023 102.872L132.821 102.255L132.444 102.983ZM134.214 103.399L136.582 97.9585L135.826 97.6312L133.457 103.072L134.214 103.399ZM136.389 97.4293L136.368 97.4188L135.998 98.1498L136.019 98.1603L136.389 97.4293Z" fill="#060606"/>
</mask>
<g mask="url(#mask1_7_3)">
<path d="M149.411 56.7578L122.436 105.33L134.904 125.797L161.88 77.2248L149.411 56.7578Z" fill="#B0F127"/>
</g>
<path d="M136.182 97.7383L135.795 97.5962L135.667 97.9388L135.995 98.1035L136.182 97.7383ZM78.4714 68.8235L78.2855 69.1891L78.666 69.3798L78.8455 68.996L78.4714 68.8235ZM78.4692 68.8224L78.6551 68.4567L78.264 68.2608L78.0904 68.6601L78.4692 68.8224ZM78.4252 68.9235L78.8011 69.0923L78.804 69.0858L78.4252 68.9235ZM78.2767 69.265L78.6555 69.4274L78.6582 69.4209L78.2767 69.265ZM76.308 73.7931L75.9293 73.6309L75.7766 73.9821L76.1192 74.1573L76.308 73.7931ZM77.4132 74.358L77.8254 74.3427L77.8164 74.1035L77.602 73.9939L77.4132 74.358ZM132.62 102.577L132.809 102.214L132.571 102.092L132.363 102.258L132.62 102.577ZM133.823 103.193L133.634 103.556L134.026 103.757L134.201 103.356L133.823 103.193ZM136.202 97.7487L136.581 97.9118L136.736 97.557L136.388 97.383L136.202 97.7487ZM133.232 83.3943C136.532 88.825 137.219 93.7728 135.795 97.5962L136.568 97.8803C138.108 93.7467 137.319 88.5343 133.938 82.9712L133.232 83.3943ZM93.511 61.6247C100.72 61.4874 108.784 63.8496 115.991 67.7994C123.198 71.7492 129.508 77.2651 133.232 83.3943L133.938 82.9712C130.122 76.69 123.689 71.0832 116.389 67.0823C109.089 63.0815 100.883 60.665 93.4952 60.8057L93.511 61.6247ZM78.8455 68.996C80.8799 64.6467 85.919 61.7693 93.511 61.6247L93.4952 60.8057C85.7207 60.9538 80.3125 63.9151 78.0972 68.651L78.8455 68.996ZM78.6572 68.4579L78.6551 68.4567L78.2833 69.188L78.2855 69.1891L78.6572 68.4579ZM78.0904 68.6601L78.0464 68.7613L78.804 69.0858L78.848 68.9847L78.0904 68.6601ZM78.6582 69.4209C78.704 69.3104 78.7517 69.2009 78.8011 69.0923L78.0493 68.7549C77.9959 68.872 77.9446 68.9901 77.8952 69.1092L78.6582 69.4209ZM77.898 69.1027L75.9293 73.6309L76.6868 73.9555L78.6555 69.4274L77.898 69.1027ZM76.1192 74.1573L77.2243 74.7221L77.602 73.9939L76.4969 73.429L76.1192 74.1573ZM81.0811 83.9778C78.9779 80.5164 77.9347 77.2469 77.8254 74.3427L77.0009 74.3734C77.1167 77.4473 78.2174 80.8506 80.3746 84.4009L81.0811 83.9778ZM120.802 105.748C113.593 105.885 105.529 103.522 98.3224 99.5727C91.1156 95.6229 84.8052 90.1069 81.0811 83.9778L80.3746 84.4009C84.1911 90.6821 90.6237 96.2889 97.9237 100.29C105.224 104.291 113.43 106.707 120.818 106.566L120.802 105.748ZM132.363 102.258C129.709 104.366 125.807 105.652 120.802 105.748L120.818 106.566C125.949 106.469 130.043 105.149 132.878 102.898L132.363 102.258ZM132.431 102.942L133.634 103.556L134.012 102.828L132.809 102.214L132.431 102.942ZM134.201 103.356L136.581 97.9118L135.824 97.5857L133.445 103.03L134.201 103.356ZM136.388 97.383L136.367 97.3726L135.995 98.1035L136.016 98.114L136.388 97.383Z" fill="#060606"/>
<path d="M118.752 110.868C133.349 110.59 139.068 100.304 131.528 87.8935C123.987 75.4832 106.042 65.648 91.4455 65.926C76.8494 66.204 71.1297 76.4899 78.6703 88.9002C86.2108 101.31 104.156 111.146 118.752 110.868Z" fill="white"/>
<path d="M118.752 110.868C133.349 110.59 139.068 100.304 131.528 87.8935C123.987 75.4832 106.042 65.648 91.4455 65.926C76.8494 66.204 71.1297 76.4899 78.6703 88.9002C86.2108 101.31 104.156 111.146 118.752 110.868Z" stroke="#060606" stroke-width="1.14317"/>
<path d="M108.775 103.021L90.8046 89.453L91.2667 88.936L103.918 88.0596L97.1964 82.301L102.165 75.3604L120.228 88.2636L107.084 89.1741L113.631 94.7831L108.775 103.021Z" fill="black"/>
<path d="M281.559 108.793L281.44 109.112L281.45 109.117L278.547 115.758L277.288 115.115L277.068 115.002L276.876 115.155C273.258 118.029 267.956 119.77 261.18 119.899C251.421 120.085 240.516 116.888 230.778 111.551C221.039 106.214 212.504 98.7563 207.463 90.4593C204.615 85.773 203.196 81.3362 203.048 77.3843L203.039 77.1616L202.84 77.0596L201.667 76.4605L204.197 70.6425L204.197 70.6425L204.199 70.6375C204.252 70.5117 204.306 70.3868 204.362 70.2627L204.362 70.2627L204.364 70.2577L204.381 70.2203L204.439 70.0948C207.221 64.1474 214.095 60.2491 224.372 60.0534C234.131 59.8675 245.036 63.0645 254.774 68.4017C264.513 73.7389 273.048 81.1964 278.089 89.4935C282.556 96.8447 283.504 103.572 281.559 108.793Z" fill="#B0F127" stroke="black" stroke-width="0.762111"/>
<path d="M258.414 126.635C278.098 126.26 285.811 112.389 275.642 95.6533C265.473 78.9175 241.273 65.6543 221.59 66.0292C201.906 66.404 194.193 80.2749 204.362 97.0107C214.531 113.747 238.731 127.01 258.414 126.635Z" fill="white"/>
<mask id="mask2_7_3" style="mask-type:alpha" maskUnits="userSpaceOnUse" x="199" y="65" width="82" height="62">
<path d="M258.449 126.692C278.114 126.349 285.797 112.479 275.609 95.7107C265.422 78.9429 241.222 65.6277 221.557 65.9705C201.892 66.3133 194.209 80.1843 204.397 96.9521C214.584 113.72 238.784 127.035 258.449 126.692Z" fill="#B0F127"/>
</mask>
<g mask="url(#mask2_7_3)">
<path d="M230.653 80.936L230.838 81.6416L243.214 101.995L243.582 102.197L251.275 96.4191L230.653 80.936Z" fill="#060606"/>
<path d="M230.636 80.9505L229.079 96.82L243.564 102.211L237.557 92.3325L230.636 80.9505Z" fill="#060606"/>
<path d="M244.652 103.975L244.601 104.119L249.014 111.374L249.357 111.712L252.36 98.1962L244.652 103.975Z" fill="#060606"/>
<path d="M249.344 111.724L244.642 103.991L230.156 98.6023L249.344 111.724Z" fill="#060606"/>
<path d="M243.578 102.198L251.277 96.4167L237.566 92.3135L243.578 102.198Z" fill="#060606"/>
<path d="M229.069 96.8152L243.564 102.209L237.553 92.3254L229.069 96.8152Z" fill="#060606"/>
</g>
<path d="M258.414 126.635C278.098 126.26 285.811 112.389 275.642 95.6533C265.473 78.9175 241.273 65.6543 221.59 66.0292C201.906 66.404 194.193 80.2749 204.362 97.0107C214.531 113.747 238.731 127.01 258.414 126.635Z" stroke="#060606" stroke-width="1.14317"/>
<path fill-rule="evenodd" clip-rule="evenodd" d="M373.35 119.857C375.349 114.491 374.353 107.64 369.849 100.227C359.68 83.4917 335.48 70.2286 315.796 70.6035C305.435 70.8008 298.39 74.7378 295.525 80.8637L295.522 80.8619L295.446 81.0361C295.388 81.1634 295.333 81.2916 295.279 81.4208L292.607 87.5653L294.098 88.3274C294.25 92.3582 295.696 96.8573 298.568 101.585C308.737 118.321 332.937 131.584 352.621 131.209C359.455 131.079 364.846 129.322 368.547 126.382L370.169 127.211L373.377 119.87L373.35 119.857Z" fill="#B0F127"/>
<path d="M373.35 119.857L372.963 119.715L372.835 120.057L373.164 120.222L373.35 119.857ZM295.525 80.8638L295.339 81.2294L295.72 81.42L295.899 81.0362L295.525 80.8638ZM295.522 80.862L295.707 80.4963L295.316 80.3005L295.143 80.6997L295.522 80.862ZM295.446 81.0361L295.822 81.2038L295.825 81.1984L295.446 81.0361ZM295.279 81.4208L295.657 81.5831L295.66 81.5777L295.279 81.4208ZM292.607 87.5653L292.228 87.403L292.076 87.7543L292.418 87.9294L292.607 87.5653ZM294.098 88.3274L294.51 88.3121L294.501 88.0729L294.287 87.9633L294.098 88.3274ZM368.547 126.382L368.736 126.018L368.498 125.897L368.289 126.063L368.547 126.382ZM370.169 127.211L369.98 127.575L370.371 127.776L370.547 127.375L370.169 127.211ZM373.377 119.87L373.756 120.033L373.91 119.679L373.563 119.504L373.377 119.87ZM369.495 100.439C373.96 107.786 374.904 114.505 372.963 119.715L373.737 119.999C375.793 114.478 374.746 107.495 370.202 100.016L369.495 100.439ZM315.804 71.013C325.556 70.8272 336.456 74.0222 346.191 79.3577C355.926 84.6929 364.457 92.1473 369.495 100.439L370.202 100.016C365.071 91.5718 356.418 84.0268 346.59 78.6406C336.762 73.254 325.719 70.0049 315.788 70.194L315.804 71.013ZM295.899 81.0362C298.674 75.1036 305.534 71.2086 315.804 71.013L315.788 70.194C305.336 70.3931 298.107 74.3719 295.151 80.6913L295.899 81.0362ZM295.711 80.4981L295.707 80.4963L295.336 81.2276L295.339 81.2294L295.711 80.4981ZM295.143 80.6997L295.067 80.8738L295.825 81.1984L295.9 81.0242L295.143 80.6997ZM295.66 81.5777C295.712 81.4522 295.766 81.3275 295.822 81.2038L295.069 80.8685C295.01 80.9993 294.953 81.1311 294.898 81.2639L295.66 81.5777ZM294.9 81.2585L292.228 87.403L292.986 87.7276L295.657 81.5831L294.9 81.2585ZM292.418 87.9294L293.909 88.6915L294.287 87.9633L292.796 87.2012L292.418 87.9294ZM298.921 101.374C296.076 96.6902 294.659 92.258 294.51 88.3121L293.686 88.3427C293.841 92.4585 295.315 97.0244 298.215 101.797L298.921 101.374ZM352.613 130.8C342.86 130.986 331.961 127.79 322.226 122.455C312.491 117.12 303.96 109.665 298.921 101.374L298.215 101.797C303.346 110.241 311.999 117.786 321.827 123.172C331.655 128.559 342.697 131.808 352.629 131.619L352.613 130.8ZM368.289 126.063C364.679 128.93 359.384 130.671 352.613 130.8L352.629 131.619C359.526 131.487 365.014 129.713 368.805 126.702L368.289 126.063ZM368.358 126.747L369.98 127.575L370.357 126.847L368.736 126.018L368.358 126.747ZM370.547 127.375L373.756 120.033L372.999 119.707L369.79 127.048L370.547 127.375ZM373.563 119.504L373.535 119.491L373.164 120.222L373.191 120.236L373.563 119.504Z" fill="#060606"/>
<mask id="mask3_7_3" style="mask-type:alpha" maskUnits="userSpaceOnUse" x="292" y="70" width="83" height="62">
<path fill-rule="evenodd" clip-rule="evenodd" d="M373.355 119.923C375.344 114.56 374.337 107.706 369.823 100.284C359.633 83.5287 335.427 70.2232 315.757 70.5656C305.403 70.7458 298.369 74.6719 295.516 80.7942L295.513 80.7924L295.437 80.9665C295.38 81.0937 295.325 81.2219 295.271 81.351L292.612 87.4922L294.103 88.2569C294.261 92.2887 295.714 96.791 298.592 101.524C308.782 118.28 332.989 131.585 352.659 131.243C359.488 131.124 364.873 129.375 368.566 126.442L370.188 127.274L373.382 119.936L373.355 119.923Z" fill="#B0F127"/>
<path d="M373.355 119.923L372.968 119.78L372.841 120.122L373.17 120.288L373.355 119.923ZM295.516 80.7941L295.331 81.1596L295.712 81.3508L295.89 80.9673L295.516 80.7941ZM295.513 80.7924L295.698 80.427L295.307 80.2304L295.134 80.6295L295.513 80.7924ZM295.437 80.9664L295.814 81.1347L295.816 81.1294L295.437 80.9664ZM295.271 81.3509L295.65 81.5139L295.652 81.5085L295.271 81.3509ZM292.611 87.4921L292.233 87.3291L292.081 87.6802L292.423 87.856L292.611 87.4921ZM294.103 88.2568L294.515 88.2422L294.505 88.0029L294.291 87.893L294.103 88.2568ZM368.566 126.442L368.754 126.078L368.517 125.956L368.308 126.122L368.566 126.442ZM370.188 127.274L370 127.637L370.392 127.838L370.567 127.437L370.188 127.274ZM373.382 119.936L373.761 120.1L373.915 119.746L373.567 119.571L373.382 119.936ZM369.47 100.495C373.944 107.851 374.899 114.572 372.968 119.78L373.742 120.065C375.787 114.548 374.73 107.561 370.176 100.073L369.47 100.495ZM315.765 70.9751C325.511 70.8055 336.409 74.0191 346.146 79.3716C355.884 84.7238 364.422 92.1937 369.47 100.495L370.176 100.073C365.034 91.6191 356.374 84.0585 346.543 78.6551C336.713 73.2513 325.672 69.9832 315.748 70.156L315.765 70.9751ZM295.89 80.9673C298.653 75.0382 305.502 71.1537 315.765 70.9751L315.748 70.156C305.303 70.3378 298.085 74.3055 295.142 80.621L295.89 80.9673ZM295.701 80.4288L295.698 80.427L295.327 81.1577L295.331 81.1596L295.701 80.4288ZM295.134 80.6295L295.058 80.8034L295.816 81.1294L295.891 80.9553L295.134 80.6295ZM295.652 81.5085C295.704 81.383 295.758 81.2584 295.814 81.1347L295.061 80.7981C295.002 80.9289 294.945 81.0607 294.89 81.1934L295.652 81.5085ZM294.892 81.188L292.233 87.3291L292.99 87.6551L295.65 81.5139L294.892 81.188ZM292.423 87.856L293.915 88.6207L294.291 87.893L292.799 87.1282L292.423 87.856ZM298.945 101.313C296.093 96.6244 294.67 92.1891 294.515 88.2422L293.691 88.2714C293.853 92.3882 295.334 96.9574 298.239 101.735L298.945 101.313ZM352.65 130.834C342.904 131.003 332.006 127.789 322.269 122.437C312.531 117.085 303.993 109.615 298.945 101.313L298.239 101.735C303.381 110.189 312.041 117.75 321.872 123.154C331.702 128.557 342.743 131.825 352.667 131.653L352.65 130.834ZM368.308 126.122C364.705 128.984 359.417 130.716 352.65 130.834L352.667 131.653C359.56 131.533 365.041 129.767 368.824 126.762L368.308 126.122ZM368.378 126.806L370 127.637L370.376 126.91L368.754 126.078L368.378 126.806ZM370.567 127.437L373.761 120.1L373.004 119.773L369.81 127.11L370.567 127.437ZM373.567 119.571L373.54 119.557L373.17 120.288L373.197 120.302L373.567 119.571Z" fill="#060606"/>
</mask>
<g mask="url(#mask3_7_3)">
<path d="M391.193 64.5942L354.815 130.095L371.629 157.696L408.007 92.1947L391.193 64.5942Z" fill="#B0F127"/>
</g>
<path d="M373.35 119.857L372.963 119.715L372.835 120.057L373.164 120.222L373.35 119.857ZM295.525 80.8638L295.339 81.2294L295.72 81.42L295.899 81.0362L295.525 80.8638ZM295.522 80.862L295.707 80.4963L295.316 80.3005L295.143 80.6997L295.522 80.862ZM295.446 81.0361L295.822 81.2038L295.825 81.1984L295.446 81.0361ZM295.279 81.4208L295.657 81.5831L295.66 81.5777L295.279 81.4208ZM292.607 87.5653L292.228 87.403L292.076 87.7543L292.418 87.9294L292.607 87.5653ZM294.098 88.3274L294.51 88.3121L294.501 88.0729L294.287 87.9633L294.098 88.3274ZM368.547 126.382L368.736 126.018L368.498 125.897L368.289 126.063L368.547 126.382ZM370.169 127.211L369.98 127.575L370.371 127.776L370.547 127.375L370.169 127.211ZM373.377 119.87L373.756 120.033L373.91 119.679L373.563 119.504L373.377 119.87ZM369.495 100.439C373.96 107.786 374.904 114.505 372.963 119.715L373.737 119.999C375.793 114.478 374.746 107.495 370.202 100.016L369.495 100.439ZM315.804 71.013C325.556 70.8272 336.456 74.0222 346.191 79.3577C355.926 84.6929 364.457 92.1473 369.495 100.439L370.202 100.016C365.071 91.5718 356.418 84.0268 346.59 78.6406C336.762 73.254 325.719 70.0049 315.788 70.194L315.804 71.013ZM295.899 81.0362C298.674 75.1036 305.534 71.2086 315.804 71.013L315.788 70.194C305.336 70.3931 298.107 74.3719 295.151 80.6913L295.899 81.0362ZM295.711 80.4981L295.707 80.4963L295.336 81.2276L295.339 81.2294L295.711 80.4981ZM295.143 80.6997L295.067 80.8738L295.825 81.1984L295.9 81.0242L295.143 80.6997ZM295.66 81.5777C295.712 81.4522 295.766 81.3275 295.822 81.2038L295.069 80.8685C295.01 80.9993 294.953 81.1311 294.898 81.2639L295.66 81.5777ZM294.9 81.2585L292.228 87.403L292.986 87.7276L295.657 81.5831L294.9 81.2585ZM292.418 87.9294L293.909 88.6915L294.287 87.9633L292.796 87.2012L292.418 87.9294ZM298.921 101.374C296.076 96.6902 294.659 92.258 294.51 88.3121L293.686 88.3427C293.841 92.4585 295.315 97.0244 298.215 101.797L298.921 101.374ZM352.613 130.8C342.86 130.986 331.961 127.79 322.226 122.455C312.491 117.12 303.96 109.665 298.921 101.374L298.215 101.797C303.346 110.241 311.999 117.786 321.827 123.172C331.655 128.559 342.697 131.808 352.629 131.619L352.613 130.8ZM368.289 126.063C364.679 128.93 359.384 130.671 352.613 130.8L352.629 131.619C359.526 131.487 365.014 129.713 368.805 126.702L368.289 126.063ZM368.358 126.747L369.98 127.575L370.357 126.847L368.736 126.018L368.358 126.747ZM370.547 127.375L373.756 120.033L372.999 119.707L369.79 127.048L370.547 127.375ZM373.563 119.504L373.535 119.491L373.164 120.222L373.191 120.236L373.563 119.504Z" fill="#060606"/>
<path d="M349.847 137.565C369.53 137.19 377.244 123.319 367.075 106.583C356.906 89.8475 332.706 76.5844 313.022 76.9592C293.339 77.3341 285.626 91.205 295.794 107.941C305.963 124.677 330.163 137.94 349.847 137.565Z" fill="white" stroke="#060606" stroke-width="1.14317"/>
<mask id="mask4_7_3" style="mask-type:alpha" maskUnits="userSpaceOnUse" x="290" y="76" width="83" height="63">
<path d="M349.881 137.622C369.546 137.28 377.229 123.409 367.042 106.641C356.855 89.873 332.654 76.5579 312.99 76.9007C293.325 77.2435 285.642 91.1144 295.829 107.882C306.016 124.65 330.217 137.965 349.881 137.622Z" fill="#B0F127" stroke="#060606" stroke-width="1.14317"/>
</mask>
<g mask="url(#mask4_7_3)">
<path d="M349.881 137.622C369.546 137.28 377.229 123.409 367.042 106.641C356.855 89.873 332.654 76.5579 312.99 76.9007C293.325 77.2435 285.642 91.1144 295.829 107.882C306.016 124.65 330.217 137.965 349.881 137.622Z" stroke="#060606" stroke-width="1.14317"/>
</g>
<path d="M324.416 112.601C324.499 112.454 324.683 112.366 324.933 112.361L347.533 111.931C347.946 111.923 348.407 112.338 348.264 112.589L346.078 116.423C345.994 116.57 345.81 116.658 345.56 116.663L322.96 117.093C322.547 117.101 322.087 116.687 322.229 116.436L324.416 112.601Z" fill="#060606"/>
<path d="M315.922 98.6217C316.012 98.4747 316.197 98.3866 316.439 98.382L339.039 97.9515C339.452 97.9437 339.913 98.3583 339.77 98.6091L337.583 102.444C337.5 102.591 337.316 102.679 337.066 102.683L314.466 103.114C314.053 103.122 313.592 102.707 313.735 102.456L315.922 98.6217Z" fill="#060606"/>
<path d="M339.266 105.213C339.008 105.072 338.722 104.993 338.473 104.998L315.873 105.428C315.46 105.436 315.508 105.859 315.949 106.098L322.691 109.763C322.949 109.903 323.235 109.983 323.484 109.978L346.085 109.548C346.498 109.539 346.45 109.117 346.009 108.877L339.266 105.213Z" fill="#060606"/>
</g>
<defs>
<clipPath id="clip0_7_3">
<rect width="450" height="172" fill="white"/>
</clipPath>
</defs>
</svg>
