<svg xmlns="http://www.w3.org/2000/svg" width="51" height="52" fill="none"><rect width="49.118" height="49.34" x=".816" y="1.492" fill="#383339" stroke="url(#a)" rx="24.559"/><path fill="#fff" d="M22.059 23.71v1.773h2.406v4.914h-2.406v1.766h6.89v-1.766H26.66V23.71zm2.25-2.164q0 .25.085.468.095.21.258.36.165.156.391.242.234.086.516.086.578 0 .914-.32.343-.33.343-.836a1.08 1.08 0 0 0-.343-.828q-.336-.33-.914-.329-.282.001-.516.086a1.2 1.2 0 0 0-.39.235q-.165.156-.258.375a1.2 1.2 0 0 0-.086.46"/><defs><radialGradient id="a" cx="0" cy="0" r="1" gradientTransform="matrix(0 25.1702 -25.0591 0 25.375 26.163)" gradientUnits="userSpaceOnUse"><stop stop-color="#fff"/><stop offset="1" stop-color="#fff" stop-opacity="0"/></radialGradient></defs></svg>